<svg width="26" height="30" viewBox="0 0 26 30" fill="none" xmlns="http://www.w3.org/2000/svg">
<path d="M4.24756 4.90382V9.80874L0.000854492 12.2611V7.35619L4.24756 4.90382Z" fill="#5737D6"/>
<path d="M12.7428 0.000907898V9.80782C12.7424 9.80802 8.4959 7.35507 8.49512 7.35624V2.45132L8.49609 2.4523L12.7428 0.000907898Z" fill="#5737D6"/>
<path d="M16.9904 2.45139V7.35631L12.7436 9.80867H12.7427V0.000974574L12.7436 0L16.9904 2.45139Z" fill="#AEECD4"/>
<path d="M21.2379 4.90382V9.80874C19.1201 11.0314 14.8615 13.492 12.7438 14.7127V9.80874L16.9903 7.35619H16.9913L21.2379 4.90382Z" fill="#5737D6"/>
<path d="M25.4867 7.35625V12.2612L21.239 9.80862H21.238V4.90389L25.4857 7.35625H25.4867Z" fill="#AEECD4"/>
<path d="M8.49419 17.165C6.37708 18.3869 2.11712 20.8467 0.000974761 22.0689H0V17.165L0.000974761 17.166C0.000974761 17.1642 4.24807 14.7154 4.24846 14.7137L8.49419 17.165Z" fill="#5737D6"/>
<path d="M8.49517 17.165V22.0689L4.24846 24.5213H4.24749V24.5203L0.000976562 22.0689C2.11887 20.846 6.37727 18.3857 8.49517 17.165Z" fill="#8280F4"/>
<path d="M12.7437 9.80868V14.7126H12.7418C10.6248 13.4903 6.36487 11.0306 4.24853 9.80868H4.24756V4.90376L8.49505 7.35631H8.49602V7.35729C8.49641 7.3569 12.7429 9.80984 12.7437 9.80868Z" fill="#AEECD4"/>
<path d="M12.7419 14.7126C12.7417 14.7132 8.49517 17.163 8.49517 17.164L4.24963 14.7126H4.24671L0.000976562 12.2612L4.24768 9.80866H4.24866C6.36558 11.0309 10.6255 13.4905 12.7419 14.7126Z" fill="#8280F4"/>
<path d="M16.9913 22.0689V26.9739L12.7436 24.5213H12.7427V14.7146L12.7436 14.7136L16.9894 17.165H16.9904V22.0689H16.9913Z" fill="#AEECD4"/>
<path d="M25.4857 17.165V22.0689C23.3687 20.8467 19.1088 18.3871 16.9924 17.165C16.9924 17.1644 21.2392 14.7146 21.239 14.7137L25.4847 17.165H25.4857Z" fill="#AEECD4"/>
<path d="M25.4858 22.0689L21.2391 24.5213H21.2381V24.5203C21.2377 24.5207 16.9912 22.0677 16.9906 22.0689V17.165L16.9916 17.1659L16.9926 17.165C19.1093 18.3873 23.3693 20.847 25.4858 22.0689Z" fill="#8280F4"/>
<path d="M25.4866 12.2611C23.368 13.4856 19.108 15.9399 16.9905 17.164L12.7448 14.7125C14.8619 13.4906 19.1218 11.031 21.238 9.80876H21.239L25.4866 12.2611Z" fill="#8280F4"/>
<path d="M12.7428 14.7146V24.5213L8.49609 26.9739V22.0689H8.49512V17.165L8.49609 17.166C8.49531 17.1654 12.7428 14.715 12.7428 14.7146Z" fill="#5737D6"/>
<path d="M16.9914 26.9738C16.9902 26.9727 12.7439 29.4289 12.7418 29.4252L8.49622 26.9738L12.7427 24.5215H12.7437L16.9914 26.9738Z" fill="#8280F4"/>
</svg>
