<svg width="137" height="32" viewBox="0 0 137 32" fill="none" xmlns="http://www.w3.org/2000/svg">
<path d="M4.24756 7.47858V12.3835L0.000854492 14.8359V9.93094L4.24756 7.47858Z" fill="#5737D6"/>
<path d="M12.7428 2.57567V12.3826C12.7424 12.3828 8.4959 9.92983 8.49512 9.931V5.02608L8.49609 5.02706L12.7428 2.57567Z" fill="#5737D6"/>
<path d="M16.9904 5.02614V9.93106L12.7436 12.3834H12.7427V2.57573L12.7436 2.57475L16.9904 5.02614Z" fill="#AEECD4"/>
<path d="M21.2379 7.47858V12.3835C19.1201 13.6062 14.8615 16.0667 12.7438 17.2874V12.3835L16.9903 9.93094H16.9913L21.2379 7.47858Z" fill="#5737D6"/>
<path d="M25.4867 9.93101V14.8359L21.239 12.3834H21.238V7.47865L25.4857 9.93101H25.4867Z" fill="#AEECD4"/>
<path d="M8.49419 19.7398C6.37708 20.9616 2.11712 23.4214 0.000974761 24.6437H0V19.7398L0.000974761 19.7407C0.000974761 19.739 4.24807 17.2902 4.24846 17.2884L8.49419 19.7398Z" fill="#5737D6"/>
<path d="M8.49517 19.7397V24.6437L4.24846 27.096H4.24749V27.0951L0.000976562 24.6437C2.11887 23.4208 6.37727 20.9605 8.49517 19.7397Z" fill="#8280F4"/>
<path d="M12.7437 12.3834V17.2874H12.7418C10.6248 16.0651 6.36487 13.6053 4.24853 12.3834H4.24756V7.47852L8.49505 9.93107H8.49602V9.93205C8.49641 9.93166 12.7429 12.3846 12.7437 12.3834Z" fill="#AEECD4"/>
<path d="M12.7419 17.2874C12.7417 17.288 8.49517 19.7378 8.49517 19.7388L4.24963 17.2874H4.24671L0.000976562 14.836L4.24768 12.3834H4.24866C6.36558 13.6057 10.6255 16.0653 12.7419 17.2874Z" fill="#8280F4"/>
<path d="M16.9913 24.6437V29.5486L12.7436 27.0961H12.7427V17.2894L12.7436 17.2884L16.9894 19.7398H16.9904V24.6437H16.9913Z" fill="#AEECD4"/>
<path d="M25.4857 19.7398V24.6437C23.3687 23.4214 19.1088 20.9618 16.9924 19.7398C16.9924 19.7392 21.2392 17.2894 21.239 17.2884L25.4847 19.7398H25.4857Z" fill="#AEECD4"/>
<path d="M25.4858 24.6437L21.2391 27.096H21.2381V27.0951C21.2377 27.0955 16.9912 24.6425 16.9906 24.6437V19.7397L16.9916 19.7407L16.9926 19.7397C19.1093 20.962 23.3693 23.4218 25.4858 24.6437Z" fill="#8280F4"/>
<path d="M25.4866 14.8359C23.368 16.0603 19.108 18.5146 16.9905 19.7388L12.7448 17.2873C14.8619 16.0654 19.1218 13.6058 21.238 12.3835H21.239L25.4866 14.8359Z" fill="#8280F4"/>
<path d="M12.7428 17.2893V27.0961L8.49609 29.5486V24.6437H8.49512V19.7398L8.49609 19.7407C8.49531 19.7401 12.7428 17.2897 12.7428 17.2893Z" fill="#5737D6"/>
<path d="M16.9914 29.5486C16.9902 29.5474 12.7439 32.0037 12.7418 32L8.49622 29.5486L12.7427 27.0962H12.7437L16.9914 29.5486Z" fill="#8280F4"/>
<path d="M35.9172 12.1022H33.396V8.49479H35.9172V3.18036H40.3779V8.49479H45.5756V12.1022H40.3779V23.9325C40.3779 25.5229 40.9985 26.1825 42.8603 26.1825H45.5756V29.8673H42.0847C38.2832 29.8673 35.9172 28.2768 35.9172 23.9325V12.1022Z" fill="#5737D6"/>
<path d="M48.1349 8.49478H52.5568V29.8673H48.1349V8.49478ZM47.5531 2.83146C47.5531 1.24099 48.7943 0 50.3846 0C51.9362 0 53.1774 1.24099 53.1774 2.83146C53.1774 4.42193 51.9362 5.66293 50.3846 5.66293C48.7943 5.66293 47.5531 4.42193 47.5531 2.83146Z" fill="#5737D6"/>
<path d="M87.5399 17.9205C87.5399 14.0024 85.4065 11.9855 82.1869 11.9855C78.9286 11.9855 76.7953 14.0024 76.7953 17.9205V29.8673H72.4122V17.9205C72.4122 14.0024 70.2789 11.9855 67.0591 11.9855C63.801 11.9855 61.6675 14.0024 61.6675 17.9205V29.8673H57.2456V8.49481H61.6675V10.9382C63.1029 9.19279 65.4301 8.14534 67.9902 8.14534C71.3647 8.14534 74.1964 9.58047 75.6705 12.3737C76.9892 9.7746 80.0148 8.14534 83.118 8.14534C88.1217 8.14534 91.9231 11.2875 91.9231 17.2607V29.8673H87.5399V17.9205Z" fill="#5737D6"/>
<path d="M115.752 29.8673H111.33V27.3073C109.934 29.1301 107.529 30.1776 105.008 30.1776C100.004 30.1776 96.2029 27.0358 96.2029 21.0622V8.49484H100.586V20.4028C100.586 24.3205 102.719 26.3374 105.939 26.3374C109.197 26.3374 111.33 24.3205 111.33 20.4028V8.49484H115.752V29.8673Z" fill="#5737D6"/>
<path d="M128.253 30.2164C123.132 30.2164 119.525 27.1908 119.331 23.3119H123.908C124.063 25.0577 125.731 26.4928 128.175 26.4928C130.735 26.4928 132.093 25.4068 132.093 23.9325C132.093 19.7432 119.68 22.1484 119.68 14.3132C119.68 10.8994 122.861 8.14548 127.904 8.14548C132.752 8.14548 135.933 10.7446 136.166 15.0112H131.744C131.589 13.1492 130.153 11.8694 127.749 11.8694C125.382 11.8694 124.141 12.8389 124.141 14.274C124.141 18.5798 136.204 16.1746 136.437 23.8937C136.437 27.5011 133.295 30.2164 128.253 30.2164Z" fill="#5737D6"/>
</svg>
