<svg width="253" height="80" viewBox="0 0 253 80" fill="none" xmlns="http://www.w3.org/2000/svg">
<path d="M7.3 15.5V23.9L0 28.1V19.7L7.3 15.5Z" fill="#5737D6"/>
<path d="M21.9 7.1V23.9L14.6 19.7V11.3L21.9 7.1Z" fill="#5737D6"/>
<path d="M29.2 11.3V19.7L21.9 23.9V7.1L29.2 11.3Z" fill="#92F3D4"/>
<path d="M36.5 15.5V23.9C32.9 26 25.5 30.2 21.9 32.3V23.9L29.2 19.7L36.5 15.5Z" fill="#5737D6"/>
<path d="M43.8 19.7V28.1L36.5 23.9V15.5L43.8 19.7Z" fill="#92F3D4"/>
<path d="M14.6 36.6C10.9 38.7 3.6 42.9 0 45V36.6L7.3 32.4L14.6 36.6Z" fill="#5737D6"/>
<path d="M14.6 36.6V45L7.3 49.2L0 45C3.6 42.9 10.9 38.7 14.6 36.6Z" fill="#8280F4"/>
<path d="M21.9 23.9V32.3C18.3 30.2 11 26 7.30005 23.9V15.5L14.6 19.7L21.9 23.9Z" fill="#92F3D4"/>
<path d="M21.9 32.4L14.6 36.6L7.3 32.4L0 28.1L7.3 23.9C10.9 26 18.2 30.3 21.9 32.4Z" fill="#8280F4"/>
<path d="M29.2 45V53.4L21.9 49.2V32.4L29.2 36.6V45Z" fill="#92F3D4"/>
<path d="M43.7999 36.6V45C40.1999 42.9 32.8 38.7 29.2 36.6L36.5 32.4L43.7999 36.6Z" fill="#92F3D4"/>
<path d="M43.7999 45L36.5 49.2L29.2 45V36.6C32.8 38.7 40.0999 42.9 43.7999 45Z" fill="#8280F4"/>
<path d="M43.8 28.1C40.2 30.2 32.8 34.4 29.2 36.5L21.9 32.3C25.5 30.2 32.9 26 36.5 23.9L43.8 28.1Z" fill="#8280F4"/>
<path d="M21.9 32.4V49.2L14.6 53.4V45V36.6L21.9 32.4Z" fill="#5737D6"/>
<path d="M29.2 53.4L21.9 57.6L14.6 53.4L21.9 49.2L29.2 53.4Z" fill="#8280F4"/>
<path d="M62.1 22.9H57.3V16.1H62.1V6H70.5V16.1H80.3001V22.9H70.5V45.3C70.5 48.3 71.7 49.6 75.2 49.6H80.3001V56.6H73.7C66.5 56.6 62 53.6 62 45.4C62.1 45.3 62.1 22.9 62.1 22.9Z" fill="#5737D6"/>
<path d="M84.1001 5.4C84.1001 2.4 86.4001 0 89.5001 0C92.6001 0 94.8001 2.3 94.8001 5.4C94.8001 8.5 92.5001 10.8 89.5001 10.8C86.5001 10.8 84.1001 8.4 84.1001 5.4ZM85.2001 16.1H93.6001V56.6H85.2001V16.1Z" fill="#5737D6"/>
<path d="M159.9 33.9C159.9 26.5 155.9 22.7 149.8 22.7C143.7 22.7 139.6 26.5 139.6 33.9V56.5H131.3V33.9C131.3 26.5 127.3 22.7 121.2 22.7C115.1 22.7 111 26.5 111 33.9V56.5H102.6V16.1H111V20.7C113.7 17.4 118.1 15.4 123 15.4C129.4 15.4 134.8 18.1 137.6 23.4C140.1 18.5 145.8 15.4 151.7 15.4C161.2 15.4 168.4 21.3 168.4 32.7V56.6H160.1L159.9 33.9Z" fill="#5737D6"/>
<path d="M213.3 56.6H204.9V51.8C202.3 55.3 197.7 57.2 192.9 57.2C183.4 57.2 176.2 51.2 176.2 39.9V16.1H184.5V38.6C184.5 46 188.5 49.8 194.6 49.8C200.7 49.8 204.8 46 204.8 38.6V16.1H213.2L213.3 56.6Z" fill="#5737D6"/>
<path d="M237 57.2C227.3 57.2 220.5 51.5 220.1 44.1H228.8C229.1 47.4 232.2 50.1 236.9 50.1C241.6 50.1 244.3 48 244.3 45.3C244.3 37.4 220.8 41.9 220.8 27.1C220.8 20.6 226.8 15.4 236.4 15.4C246 15.4 251.6 20.3 252 28.4H243.6C243.3 24.9 240.6 22.5 236 22.5C231.4 22.5 229.2 24.3 229.2 27C229.2 35.2 252.1 30.6 252.5 45.2C252.5 52.1 246.5 57.2 237 57.2Z" fill="#5737D6"/>
<path d="M183.5 65C184.1 65.3 184.6 65.8 184.9 66.4C185.2 67 185.4 67.8 185.4 68.7V74.5H183.8V68.9C183.8 67.9 183.6 67.2 183.1 66.6C182.6 66.1 182 65.8 181.1 65.8C180.2 65.8 179.6 66.1 179.1 66.6C178.6 67.1 178.3 67.9 178.3 69V74.4H176.7V68.8C176.7 67.8 176.5 67.1 176 66.5C175.5 66 174.9 65.7 174 65.7C173.1 65.7 172.5 66 172 66.5C171.5 67 171.2 67.8 171.2 68.9V74.3H169.6V64.5H171.2V65.9C171.5 65.4 172 65 172.5 64.7C173 64.4 173.6 64.3 174.3 64.3C175.1 64.3 175.9 64.5 176.5 64.9C177.1 65.3 177.6 65.8 177.9 66.5C178.2 65.8 178.6 65.3 179.3 64.9C180 64.5 180.6 64.3 181.4 64.3C182.2 64.5 182.9 64.7 183.5 65Z" fill="#1A0B5E"/>
<path d="M188.1 66.9C188.5 66.1 189.1 65.5 189.8 65.1C190.5 64.7 191.3 64.5 192.2 64.5C193.1 64.5 193.8 64.7 194.4 65.1C195 65.5 195.5 65.9 195.8 66.5V64.7H197.5V74.5H195.8V72.7C195.5 73.3 195 73.8 194.4 74.1C193.8 74.5 193 74.7 192.2 74.7C191.3 74.7 190.5 74.5 189.8 74.1C189.1 73.7 188.5 73.1 188.1 72.3C187.7 71.5 187.5 70.6 187.5 69.6C187.5 68.6 187.7 67.7 188.1 66.9ZM195.4 67.6C195.1 67 194.7 66.6 194.2 66.3C193.7 66 193.1 65.9 192.5 65.9C191.9 65.9 191.3 66 190.8 66.3C190.3 66.6 189.9 67 189.6 67.6C189.3 68.2 189.2 68.8 189.2 69.5C189.2 70.3 189.4 70.9 189.6 71.5C189.9 72.1 190.3 72.5 190.8 72.8C191.3 73.1 191.9 73.2 192.5 73.2C193.1 73.2 193.7 73.1 194.2 72.8C194.7 72.5 195.1 72.1 195.4 71.5C195.7 70.9 195.8 70.3 195.8 69.6C195.8 68.8 195.7 68.2 195.4 67.6Z" fill="#1A0B5E"/>
<path d="M207.9 65.6C208.6 66.3 209 67.4 209 68.7V74.5H207.4V68.9C207.4 67.9 207.2 67.2 206.7 66.6C206.2 66.1 205.5 65.8 204.7 65.8C203.8 65.8 203.2 66.1 202.6 66.6C202 67.1 201.8 67.9 201.8 69V74.4H200.2V64.6H201.8V66C202.1 65.5 202.6 65.1 203.1 64.8C203.7 64.5 204.3 64.4 204.9 64.4C206.2 64.5 207.2 64.9 207.9 65.6Z" fill="#1A0B5E"/>
<path d="M211.7 66.9C212.1 66.1 212.7 65.5 213.4 65.1C214.1 64.7 214.9 64.5 215.8 64.5C216.7 64.5 217.4 64.7 218 65.1C218.6 65.5 219.1 65.9 219.4 66.5V64.7H221.1V74.5H219.4V72.7C219.1 73.3 218.6 73.8 218 74.1C217.4 74.5 216.6 74.7 215.8 74.7C214.9 74.7 214.1 74.5 213.4 74.1C212.7 73.7 212.1 73.1 211.7 72.3C211.3 71.5 211.1 70.6 211.1 69.6C211.1 68.6 211.3 67.7 211.7 66.9ZM219 67.6C218.7 67 218.3 66.6 217.8 66.3C217.3 66 216.7 65.9 216.1 65.9C215.5 65.9 214.9 66 214.4 66.3C213.9 66.6 213.5 67 213.2 67.6C212.9 68.2 212.8 68.8 212.8 69.5C212.8 70.3 213 70.9 213.2 71.5C213.5 72.1 213.9 72.5 214.4 72.8C214.9 73.1 215.5 73.2 216.1 73.2C216.7 73.2 217.3 73.1 217.8 72.8C218.3 72.5 218.7 72.1 219 71.5C219.3 70.9 219.4 70.3 219.4 69.6C219.4 68.8 219.3 68.2 219 67.6Z" fill="#1A0B5E"/>
<path d="M230.2 65.1C230.8 65.5 231.3 65.9 231.6 66.5V64.7H233.3V74.8C233.3 75.7 233.1 76.5 232.7 77.2C232.3 77.9 231.8 78.4 231.1 78.8C230.4 79.2 229.6 79.4 228.6 79.4C227.3 79.4 226.2 79.1 225.4 78.5C224.5 77.9 224 77.1 223.9 76H225.5C225.7 76.6 226.1 77.1 226.6 77.4C227.2 77.8 227.8 77.9 228.6 77.9C229.5 77.9 230.2 77.6 230.8 77.1C231.4 76.5 231.7 75.7 231.7 74.7V72.6C231.4 73.2 230.9 73.7 230.3 74C229.7 74.3 228.9 74.6 228.1 74.6C227.2 74.6 226.4 74.4 225.7 74C225 73.6 224.4 73 224 72.2C223.6 71.4 223.4 70.5 223.4 69.5C223.4 68.5 223.6 67.6 224 66.8C224.4 66 225 65.4 225.7 65C226.4 64.6 227.2 64.4 228.1 64.4C228.8 64.5 229.5 64.7 230.2 65.1ZM231.1 67.6C230.8 67 230.4 66.6 229.9 66.3C229.4 66 228.8 65.9 228.2 65.9C227.6 65.9 227 66 226.5 66.3C226 66.6 225.6 67 225.3 67.6C225 68.2 224.9 68.8 224.9 69.5C224.9 70.3 225.1 70.9 225.3 71.5C225.6 72.1 226 72.5 226.5 72.8C227 73.1 227.6 73.2 228.2 73.2C228.8 73.2 229.4 73.1 229.9 72.8C230.4 72.5 230.8 72.1 231.1 71.5C231.4 70.9 231.5 70.3 231.5 69.6C231.6 68.8 231.4 68.2 231.1 67.6Z" fill="#1A0B5E"/>
<path d="M244.9 70.2H237C237.1 71.2 237.4 71.9 238 72.5C238.6 73 239.3 73.3 240.2 73.3C240.9 73.3 241.5 73.1 242 72.8C242.5 72.5 242.8 72 243 71.5H244.8C244.5 72.4 244 73.2 243.2 73.8C242.4 74.4 241.4 74.7 240.3 74.7C239.4 74.7 238.5 74.5 237.8 74.1C237.1 73.7 236.5 73.1 236.1 72.3C235.7 71.5 235.5 70.6 235.5 69.6C235.5 68.6 235.7 67.7 236.1 66.9C236.5 66.1 237.1 65.5 237.8 65.1C238.5 64.7 239.4 64.5 240.3 64.5C241.2 64.5 242.1 64.7 242.8 65.1C243.5 65.5 244.1 66.1 244.5 66.8C244.9 67.5 245.1 68.3 245.1 69.2C245 69.5 245 69.9 244.9 70.2ZM242.9 67.3C242.6 66.9 242.3 66.5 241.8 66.3C241.3 66.1 240.8 65.9 240.2 65.9C239.4 65.9 238.7 66.2 238.1 66.7C237.5 67.2 237.2 68 237.1 68.9H243.3C243.3 68.3 243.2 67.7 242.9 67.3Z" fill="#1A0B5E"/>
<path d="M250 65C250.5 64.7 251.2 64.5 251.9 64.5V66.2H251.5C249.7 66.2 248.7 67.2 248.7 69.2V74.6H247.1V64.8H248.7V66.4C249.1 65.7 249.5 65.3 250 65Z" fill="#1A0B5E"/>
</svg>
