<!-- Generated by IcoMoon.io -->
<svg version="1.1" xmlns="http://www.w3.org/2000/svg" width="32" height="32" viewBox="0 0 32 32">
<title>activity</title>
<path d="M20 30.333h-8c-7.24 0-10.333-3.093-10.333-10.333v-8c0-7.24 3.093-10.333 10.333-10.333h8c7.24 0 10.333 3.093 10.333 10.333v8c0 7.24-3.093 10.333-10.333 10.333zM12 3.667c-6.147 0-8.333 2.187-8.333 8.333v8c0 6.147 2.187 8.333 8.333 8.333h8c6.147 0 8.333-2.187 8.333-8.333v-8c0-6.147-2.187-8.333-8.333-8.333h-8z"></path>
<path d="M9.773 20.32c-0.213 0-0.427-0.067-0.613-0.213-0.44-0.333-0.52-0.96-0.187-1.4l3.173-4.12c0.387-0.493 0.933-0.813 1.56-0.893 0.613-0.080 1.24 0.093 1.733 0.48l2.44 1.92c0.093 0.080 0.187 0.080 0.253 0.067 0.053 0 0.147-0.027 0.227-0.133l3.080-3.973c0.333-0.44 0.973-0.52 1.4-0.173 0.44 0.333 0.52 0.96 0.173 1.4l-3.080 3.973c-0.387 0.493-0.933 0.813-1.56 0.88-0.627 0.080-1.24-0.093-1.733-0.48l-2.44-1.92c-0.093-0.080-0.2-0.080-0.253-0.067-0.053 0-0.147 0.027-0.227 0.133l-3.173 4.12c-0.173 0.267-0.467 0.4-0.773 0.4z"></path>
</svg>
