<!-- Generated by IcoMoon.io -->
<svg version="1.1" xmlns="http://www.w3.org/2000/svg" width="32" height="32" viewBox="0 0 32 32">
<title>additem</title>
<path d="M10.667 22.333h-3.427c-3.587 0-5.573-1.973-5.573-5.573v-9.52c0-3.587 1.973-5.573 5.573-5.573h6.093c3.587 0 5.573 1.973 5.573 5.573 0 0.547-0.453 1-1 1s-1-0.453-1-1c0-2.507-1.067-3.573-3.573-3.573h-6.093c-2.507 0-3.573 1.067-3.573 3.573v9.52c0 2.507 1.067 3.573 3.573 3.573h3.427c0.547 0 1 0.453 1 1s-0.453 1-1 1z"></path>
<path d="M24.76 30.333h-6.093c-3.587 0-5.573-1.973-5.573-5.573v-9.52c0-3.587 1.973-5.573 5.573-5.573h6.093c3.587 0 5.573 1.973 5.573 5.573v9.52c0 3.6-1.973 5.573-5.573 5.573zM18.667 11.667c-2.507 0-3.573 1.067-3.573 3.573v9.52c0 2.507 1.067 3.573 3.573 3.573h6.093c2.507 0 3.573-1.067 3.573-3.573v-9.52c0-2.507-1.067-3.573-3.573-3.573h-6.093z"></path>
<path d="M24.175 21h-4.333c-0.547 0-1-0.453-1-1s0.453-1 1-1h4.333c0.547 0 1 0.453 1 1s-0.453 1-1 1z"></path>
<path d="M22 23.173c-0.547 0-1-0.453-1-1v-4.333c0-0.547 0.453-1 1-1s1 0.453 1 1v4.333c0 0.547-0.453 1-1 1z"></path>
</svg>
