<!-- Generated by IcoMoon.io -->
<svg version="1.1" xmlns="http://www.w3.org/2000/svg" width="32" height="32" viewBox="0 0 32 32">
<title>airdrop</title>
<path d="M15.999 18.32c-1.040 0-2.027-0.4-2.787-1.147-0.973-0.973-1.36-2.373-1.040-3.747 0.333-1.4 1.453-2.52 2.853-2.853 1.36-0.333 2.76 0.053 3.747 1.040s1.36 2.373 1.040 3.747c-0.333 1.4-1.453 2.52-2.853 2.853-0.32 0.067-0.64 0.107-0.96 0.107zM15.999 12.453c-0.16 0-0.333 0.027-0.493 0.067-0.667 0.16-1.213 0.707-1.373 1.373-0.173 0.693 0.013 1.373 0.507 1.853 0.493 0.493 1.16 0.667 1.867 0.507 0.667-0.16 1.213-0.707 1.373-1.373 0.173-0.693-0.013-1.373-0.507-1.853-0.373-0.373-0.853-0.573-1.373-0.573z"></path>
<path d="M8.027 23.96c-0.24 0-0.493-0.093-0.68-0.267-2.587-2.4-4.067-5.787-4.067-9.307 0-7.013 5.707-12.72 12.72-12.72s12.72 5.707 12.72 12.72c0 3.547-1.427 6.827-4.013 9.267-0.4 0.373-1.040 0.36-1.413-0.040s-0.36-1.040 0.040-1.413c2.187-2.053 3.387-4.813 3.387-7.8 0-5.907-4.813-10.72-10.72-10.72s-10.72 4.813-10.72 10.72c0 3.013 1.213 5.787 3.427 7.84 0.4 0.373 0.427 1.013 0.053 1.413-0.2 0.2-0.467 0.307-0.733 0.307z"></path>
<path d="M21.333 20.4c-0.24 0-0.493-0.093-0.68-0.267-0.4-0.373-0.427-1.013-0.040-1.413 1.107-1.173 1.72-2.72 1.72-4.32 0-3.493-2.84-6.32-6.32-6.32s-6.32 2.84-6.32 6.32c0 1.613 0.613 3.147 1.72 4.32 0.373 0.4 0.36 1.040-0.040 1.413s-1.040 0.36-1.413-0.040c-1.453-1.547-2.267-3.573-2.267-5.693 0-4.587 3.733-8.32 8.32-8.32s8.32 3.733 8.32 8.32c0 2.12-0.8 4.147-2.267 5.693-0.2 0.2-0.467 0.307-0.733 0.307z"></path>
<path d="M17.92 30.333h-3.827c-1.52 0-2.867-0.853-3.52-2.213s-0.48-2.947 0.467-4.133l1.92-2.387c0.747-0.933 1.853-1.467 3.053-1.467s2.307 0.533 3.053 1.467l1.92 2.387c0.947 1.187 1.133 2.773 0.467 4.133-0.68 1.36-2.027 2.213-3.533 2.213zM14.506 22.84l-1.92 2.387c-0.467 0.587-0.56 1.347-0.227 2.013 0.32 0.68 0.973 1.080 1.72 1.080h3.827c0.747 0 1.4-0.4 1.72-1.080s0.24-1.427-0.227-2.013l-1.92-2.387c-0.72-0.907-2.24-0.907-2.973 0z"></path>
</svg>
