<!-- Generated by IcoMoon.io -->
<svg version="1.1" xmlns="http://www.w3.org/2000/svg" width="32" height="32" viewBox="0 0 32 32">
<title>airpod</title>
<path d="M20.16 30.333h-8.32c-5.373 0-8.587-1.053-9.173-6.453-0.107-0.773-0.16-1.693-0.16-2.88v-10c0-1.147 0.053-2.093 0.16-2.893 0.613-5.413 3.693-6.44 9.187-6.44h8.333c5.493 0 8.587 1.027 9.173 6.467 0.133 0.893 0.16 1.907 0.16 2.867v10c0 1.16-0.053 2.080-0.16 2.907-0.613 5.4-3.707 6.427-9.2 6.427zM11.84 3.667c-5.667 0-6.813 1.227-7.2 4.68-0.107 0.733-0.147 1.6-0.147 2.653v10c0 1.093 0.053 1.92 0.147 2.627 0.387 3.48 1.52 4.707 7.2 4.707h8.32c5.667 0 6.813-1.227 7.2-4.667 0.093-0.733 0.147-1.6 0.147-2.667v-10c0-0.88-0.013-1.813-0.133-2.613-0.387-3.493-1.52-4.72-7.2-4.72h-8.333z"></path>
<path d="M28.307 12.893h-5.467c-0.547 0-1-0.453-1-1s0.453-1 1-1h5.467c0.547 0 1 0.453 1 1s-0.453 1-1 1z"></path>
<path d="M9.159 12.893h-5.467c-0.547 0-1-0.453-1-1s0.453-1 1-1h5.467c0.547 0 1 0.453 1 1s-0.453 1-1 1z"></path>
<path d="M20.107 15.627h-8.213c-1 0-1.96-0.4-2.653-1.12-0.693-0.667-1.080-1.613-1.080-2.613 0-2.053 1.68-3.733 3.733-3.733h8.2c1 0 1.96 0.413 2.653 1.12 0.693 0.68 1.093 1.613 1.093 2.613 0 2.053-1.68 3.733-3.733 3.733zM11.893 10.16c-0.96 0-1.733 0.773-1.733 1.733 0 0.467 0.173 0.893 0.493 1.2 0.333 0.347 0.773 0.533 1.24 0.533h8.213c0.96 0 1.733-0.773 1.733-1.733 0-0.453-0.187-0.88-0.507-1.2-0.333-0.347-0.773-0.533-1.24-0.533h-8.2z"></path>
</svg>
