<!-- Generated by IcoMoon.io -->
<svg version="1.1" xmlns="http://www.w3.org/2000/svg" width="32" height="32" viewBox="0 0 32 32">
<title>airplane-square</title>
<path d="M19.279 26.44c-0.307 0-0.613-0.067-0.893-0.213-0.067-0.040-0.133-0.080-0.187-0.133l-2.227-1.893-2.187 1.893c-0.067 0.053-0.133 0.093-0.2 0.133-0.52 0.253-1.107 0.28-1.627 0.053-0.533-0.227-0.933-0.667-1.12-1.213l-0.427-1.28c-0.227-0.667-0.027-1.507 0.467-2.013l2.227-2.187-0.013-1.933-4.013 1.72c-0.667 0.28-1.36 0.253-1.893-0.107-0.52-0.333-0.827-0.96-0.827-1.68v-1.24c0-1.040 0.72-2.147 1.68-2.56l5.053-2.173v-2.547c0-1.307 0.867-2.72 2.027-3.28 0.573-0.28 1.227-0.28 1.8 0 1.16 0.6 2.027 2.013 2.027 3.28v2.547l5.053 2.173c0.96 0.4 1.68 1.507 1.68 2.56v1.24c0 0.72-0.307 1.347-0.853 1.693s-1.227 0.387-1.893 0.107l-4-1.72v1.96l2.173 2.173c0.493 0.493 0.693 1.347 0.467 2.013l-0.427 1.267c-0.187 0.547-0.587 0.987-1.12 1.2-0.24 0.107-0.493 0.16-0.747 0.16zM15.999 22.227c0.453 0 0.893 0.147 1.253 0.427l2.067 1.76 0.36-1.24-2.173-2.16c-0.347-0.333-0.573-0.893-0.573-1.387v-2.467c0-0.6 0.253-1.12 0.707-1.427s1.040-0.347 1.6-0.107l4.427 1.893 0.013-1.173c0-0.253-0.24-0.627-0.467-0.72l-5.267-2.267c-0.573-0.24-1-0.88-1-1.533v-2.76c0-0.52-0.453-1.253-0.92-1.493-0.48 0.24-0.933 0.96-0.933 1.493v2.76c0 0.627-0.413 1.28-1 1.533l-5.253 2.267c-0.227 0.093-0.48 0.48-0.48 0.72v1.173l4.413-1.88c0.547-0.24 1.12-0.213 1.587 0.093s0.733 0.827 0.733 1.44v2.467c0 0.48-0.227 1.040-0.573 1.387l-2.24 2.2 0.427 1.173 2.013-1.707c0.373-0.307 0.827-0.467 1.28-0.467zM18.733 11.52l0.013 0.013c0-0.013-0.013-0.013-0.013-0.013z"></path>
<path d="M20 30.333h-8c-7.24 0-10.333-3.093-10.333-10.333v-8c0-7.24 3.093-10.333 10.333-10.333h8c7.24 0 10.333 3.093 10.333 10.333v8c0 7.24-3.093 10.333-10.333 10.333zM12 3.667c-6.147 0-8.333 2.187-8.333 8.333v8c0 6.147 2.187 8.333 8.333 8.333h8c6.147 0 8.333-2.187 8.333-8.333v-8c0-6.147-2.187-8.333-8.333-8.333h-8z"></path>
</svg>
