<!-- Generated by IcoMoon.io -->
<svg version="1.1" xmlns="http://www.w3.org/2000/svg" width="32" height="32" viewBox="0 0 32 32">
<title>airplane</title>
<path d="M11.44 30.067c-0.293 0-0.6-0.053-0.88-0.173-0.627-0.267-1.107-0.787-1.32-1.44l-0.587-1.76c-0.267-0.8-0.027-1.8 0.56-2.4l3.027-3.040c0.040-0.040 0.093-0.187 0.093-0.253v-3.293l-6.080 2.627c-0.813 0.347-1.64 0.307-2.267-0.107s-1-1.16-1-2.027v-1.72c0-1.307 0.933-2.707 2.12-3.173l7.213-3.12v-3.787c0-1.613 1.133-3.467 2.573-4.213 0.693-0.347 1.493-0.347 2.173 0 1.453 0.747 2.587 2.587 2.587 4.2v3.787l7.253 3.12c1.187 0.507 2.093 1.867 2.093 3.187v1.72c0 0.88-0.36 1.613-1 2.027s-1.453 0.453-2.267 0.12l-6.080-2.627v3.293c0 0.053 0.053 0.187 0.093 0.227l3.040 3.053c0.587 0.587 0.827 1.613 0.56 2.4l-0.587 1.76c-0.227 0.653-0.707 1.173-1.347 1.427-0.627 0.253-1.32 0.227-1.92-0.067-0.067-0.040-0.133-0.080-0.2-0.133l-3.107-2.613c-0.107-0.093-0.32-0.080-0.413 0l-3.107 2.613c-0.053 0.053-0.12 0.093-0.187 0.12-0.32 0.187-0.68 0.267-1.040 0.267zM12.747 15.52c0.307 0 0.6 0.080 0.853 0.253 0.467 0.307 0.733 0.827 0.733 1.44v3.8c0 0.573-0.28 1.253-0.68 1.653l-3.027 3.040c-0.053 0.067-0.107 0.267-0.080 0.347l0.587 1.773c0.040 0.133 0.133 0.187 0.187 0.213 0.040 0.013 0.107 0.040 0.187 0.013l2.987-2.52c0.84-0.72 2.16-0.72 3 0l2.973 2.507c0.093 0.013 0.16 0 0.2-0.013 0.053-0.027 0.16-0.080 0.2-0.213l0.587-1.76c0.027-0.093-0.027-0.293-0.080-0.347l-3.027-3.040c-0.4-0.373-0.693-1.067-0.693-1.653v-3.8c0-0.6 0.253-1.12 0.707-1.427s1.040-0.347 1.6-0.107l6.56 2.827c0.2 0.080 0.333 0.080 0.373 0.053s0.093-0.147 0.093-0.36v-1.72c0-0.507-0.427-1.16-0.88-1.347l-7.44-3.213c-0.587-0.253-1-0.893-1-1.533v-4c0-0.88-0.693-2.013-1.493-2.413-0.107-0.053-0.24-0.053-0.36 0-0.773 0.4-1.48 1.56-1.48 2.427v4c0 0.627-0.413 1.28-1 1.533l-7.44 3.213c-0.467 0.187-0.893 0.84-0.893 1.333v1.72c0 0.213 0.053 0.333 0.093 0.36s0.173 0.027 0.373-0.053l6.547-2.827c0.24-0.107 0.493-0.16 0.733-0.16z"></path>
</svg>
