<!-- Generated by IcoMoon.io -->
<svg version="1.1" xmlns="http://www.w3.org/2000/svg" width="32" height="32" viewBox="0 0 32 32">
<title>airpods</title>
<path d="M11.48 26.333c-1.947 0-3.52-1.573-3.52-3.52v-9.080h-0.267c-3.333 0-6.040-2.707-6.040-6.040s2.707-6.040 6.040-6.040h2.52c2.64 0 4.773 2.147 4.773 4.773v16.373c0.013 1.96-1.56 3.533-3.507 3.533zM7.707 3.667c-2.227 0-4.040 1.813-4.040 4.040s1.813 4.040 4.040 4.040h1.267c0.547 0 1 0.453 1 1v10.080c0 0.84 0.68 1.52 1.52 1.52s1.52-0.68 1.52-1.52v-16.373c0-1.533-1.24-2.773-2.773-2.773h-2.533v-0.013z"></path>
<path d="M7.706 9.96c-1.24 0-2.253-1.013-2.253-2.267s1.013-2.253 2.253-2.253c0.547 0 1 0.453 1 1s-0.453 1-1 1c-0.147 0-0.253 0.12-0.253 0.253s0.12 0.267 0.253 0.267c0.547 0 1 0.453 1 1s-0.453 1-1 1z"></path>
<path d="M20.52 26.333c-1.947 0-3.52-1.573-3.52-3.52v-16.373c0-2.64 2.147-4.773 4.773-4.773h2.52c3.333 0 6.040 2.707 6.040 6.040s-2.707 6.040-6.040 6.040h-0.267v9.080c0.013 1.933-1.573 3.507-3.507 3.507zM21.773 3.667c-1.533 0-2.773 1.24-2.773 2.773v16.373c0 0.84 0.68 1.52 1.52 1.52s1.52-0.68 1.52-1.52v-10.080c0-0.547 0.453-1 1-1h1.267c2.227 0 4.040-1.813 4.040-4.040s-1.813-4.040-4.040-4.040h-2.533v0.013z"></path>
<path d="M24.293 9.96c-0.547 0-1-0.453-1-1s0.453-1 1-1c0.147 0 0.253-0.12 0.253-0.267s-0.12-0.253-0.253-0.253c-0.547 0-1-0.453-1-1s0.453-1 1-1c1.24 0 2.253 1.013 2.253 2.253s-1 2.267-2.253 2.267z"></path>
<path d="M11.333 30.333c-0.547 0-1-0.453-1-1v-4c0-0.547 0.453-1 1-1s1 0.453 1 1v4c0 0.547-0.453 1-1 1z"></path>
<path d="M20.667 30.333c-0.547 0-1-0.453-1-1v-4c0-0.547 0.453-1 1-1s1 0.453 1 1v4c0 0.547-0.453 1-1 1z"></path>
</svg>
