<!-- Generated by IcoMoon.io -->
<svg version="1.1" xmlns="http://www.w3.org/2000/svg" width="32" height="32" viewBox="0 0 32 32">
<title>alarm</title>
<path d="M29.333 30.333h-26.667c-0.547 0-1-0.453-1-1s0.453-1 1-1h26.667c0.547 0 1 0.453 1 1s-0.453 1-1 1z"></path>
<path d="M28 30.333h-24c-0.547 0-1-0.453-1-1v-9.333c0-7.173 5.827-13 13-13s13 5.827 13 13v9.333c0 0.547-0.453 1-1 1zM5 28.333h22v-8.333c0-6.067-4.933-11-11-11s-11 4.933-11 11v8.333z"></path>
<path d="M16 5c-0.547 0-1-0.453-1-1v-1.333c0-0.547 0.453-1 1-1s1 0.453 1 1v1.333c0 0.547-0.453 1-1 1z"></path>
<path d="M6.666 7.667c-0.253 0-0.507-0.093-0.707-0.293l-1.333-1.333c-0.387-0.387-0.387-1.027 0-1.413s1.027-0.387 1.413 0l1.333 1.333c0.387 0.387 0.387 1.027 0 1.413-0.2 0.2-0.453 0.293-0.707 0.293z"></path>
<path d="M25.333 7.667c-0.253 0-0.507-0.093-0.707-0.293-0.387-0.387-0.387-1.027 0-1.413l1.333-1.333c0.387-0.387 1.027-0.387 1.413 0s0.387 1.027 0 1.413l-1.333 1.333c-0.2 0.2-0.453 0.293-0.707 0.293z"></path>
</svg>
