<!-- Generated by IcoMoon.io -->
<svg version="1.1" xmlns="http://www.w3.org/2000/svg" width="32" height="32" viewBox="0 0 32 32">
<title>align-horizontally</title>
<path d="M10.693 27h-1.387c-2.68 0-3.973-1.24-3.973-3.8v-14.4c0-2.56 1.307-3.8 3.973-3.8h1.387c2.667 0 3.973 1.24 3.973 3.8v14.4c0 2.56-1.307 3.8-3.973 3.8zM9.307 7c-1.693 0-1.973 0.453-1.973 1.8v14.4c0 1.347 0.28 1.8 1.973 1.8h1.387c1.693 0 1.973-0.453 1.973-1.8v-14.4c0-1.347-0.28-1.8-1.973-1.8h-1.387z"></path>
<path d="M22.027 24.333h-1.387c-2.68 0-3.973-1.24-3.973-3.8v-9.067c0-2.56 1.307-3.8 3.973-3.8h1.387c2.68 0 3.973 1.24 3.973 3.8v9.067c0 2.56-1.307 3.8-3.973 3.8zM20.64 9.667c-1.693 0-1.973 0.453-1.973 1.8v9.067c0 1.347 0.28 1.8 1.973 1.8h1.387c1.693 0 1.973-0.453 1.973-1.8v-9.067c0-1.347-0.28-1.8-1.973-1.8h-1.387z"></path>
<path d="M5.867 17h-3.2c-0.547 0-1-0.453-1-1s0.44-1 1-1h3.2c0.547 0 1 0.453 1 1s-0.44 1-1 1z"></path>
<path d="M17.333 17h-2.667c-0.547 0-1-0.453-1-1s0.453-1 1-1h2.667c0.547 0 1 0.453 1 1s-0.453 1-1 1z"></path>
<path d="M29.334 17h-3.6c-0.547 0-1-0.453-1-1s0.453-1 1-1h3.6c0.547 0 1 0.453 1 1s-0.44 1-1 1z"></path>
</svg>
