<!-- Generated by IcoMoon.io -->
<svg version="1.1" xmlns="http://www.w3.org/2000/svg" width="32" height="32" viewBox="0 0 32 32">
<title>align-left</title>
<path d="M22.533 26.667h-15.733c-0.547 0-1-0.453-1-1s0.453-1 1-1h15.733c1.347 0 1.8-0.28 1.8-1.973v-1.387c0-1.693-0.453-1.973-1.8-1.973h-15.733c-0.547 0-1-0.453-1-1s0.453-1 1-1h15.733c2.56 0 3.8 1.307 3.8 3.973v1.387c0 2.667-1.24 3.973-3.8 3.973z"></path>
<path d="M15.866 15.333h-9.067c-0.547 0-1-0.453-1-1s0.453-1 1-1h9.067c1.347 0 1.8-0.28 1.8-1.973v-1.387c0-1.693-0.453-1.973-1.8-1.973h-9.067c-0.547 0-1-0.453-1-1s0.453-1 1-1h9.067c2.56 0 3.8 1.307 3.8 3.973v1.387c0 2.667-1.24 3.973-3.8 3.973z"></path>
<path d="M6.667 30.32c-0.547 0-1-0.453-1-1v-26.667c0-0.547 0.453-1 1-1s1 0.453 1 1v26.667c0 0.547-0.453 1-1 1z"></path>
</svg>
