<!-- Generated by IcoMoon.io -->
<svg version="1.1" xmlns="http://www.w3.org/2000/svg" width="32" height="32" viewBox="0 0 32 32">
<title>align-vertically</title>
<path d="M23.2 26.667h-14.4c-2.56 0-3.8-1.307-3.8-3.973v-1.387c0-2.667 1.24-3.973 3.8-3.973h14.4c2.56 0 3.8 1.307 3.8 3.973v1.387c0 2.667-1.24 3.973-3.8 3.973zM8.8 19.333c-1.347 0-1.8 0.28-1.8 1.973v1.387c0 1.693 0.453 1.973 1.8 1.973h14.4c1.347 0 1.8-0.28 1.8-1.973v-1.387c0-1.693-0.453-1.973-1.8-1.973h-14.4z"></path>
<path d="M20.533 15.333h-9.067c-2.56 0-3.8-1.307-3.8-3.973v-1.387c0-2.68 1.24-3.973 3.8-3.973h9.067c2.56 0 3.8 1.307 3.8 3.973v1.387c0 2.667-1.24 3.973-3.8 3.973zM11.467 8c-1.347 0-1.8 0.28-1.8 1.973v1.387c0 1.693 0.453 1.973 1.8 1.973h9.067c1.347 0 1.8-0.28 1.8-1.973v-1.387c0-1.693-0.453-1.973-1.8-1.973h-9.067z"></path>
<path d="M16 30.333c-0.547 0-1-0.453-1-1v-3.2c0-0.547 0.453-1 1-1s1 0.453 1 1v3.2c0 0.547-0.453 1-1 1z"></path>
<path d="M16 18.333c-0.547 0-1-0.453-1-1v-2.667c0-0.547 0.453-1 1-1s1 0.453 1 1v2.667c0 0.547-0.453 1-1 1z"></path>
<path d="M16 7.253c-0.547 0-1-0.453-1-1v-3.587c0-0.547 0.453-1 1-1s1 0.44 1 1v3.587c0 0.56-0.453 1-1 1z"></path>
</svg>
