<!-- Generated by IcoMoon.io -->
<svg version="1.1" xmlns="http://www.w3.org/2000/svg" width="32" height="32" viewBox="0 0 32 32">
<title>align-right</title>
<path d="M25.2 26.667h-15.733c-2.56 0-3.8-1.307-3.8-3.973v-1.387c0-2.667 1.24-3.973 3.8-3.973h15.733c0.547 0 1 0.453 1 1s-0.453 1-1 1h-15.733c-1.347 0-1.8 0.28-1.8 1.973v1.387c0 1.693 0.453 1.973 1.8 1.973h15.733c0.547 0 1 0.453 1 1s-0.453 1-1 1z"></path>
<path d="M25.2 15.333h-9.067c-2.56 0-3.8-1.307-3.8-3.973v-1.387c0-2.68 1.24-3.973 3.8-3.973h9.067c0.547 0 1 0.453 1 1s-0.453 1-1 1h-9.067c-1.347 0-1.8 0.28-1.8 1.973v1.387c0 1.693 0.453 1.973 1.8 1.973h9.067c0.547 0 1 0.453 1 1s-0.453 1-1 1z"></path>
<path d="M25.333 30.32c-0.547 0-1-0.453-1-1v-26.667c0-0.547 0.453-1 1-1s1 0.453 1 1v26.667c0 0.547-0.453 1-1 1z"></path>
</svg>
