<!-- Generated by IcoMoon.io -->
<svg version="1.1" xmlns="http://www.w3.org/2000/svg" width="32" height="32" viewBox="0 0 32 32">
<title>archive-slash</title>
<path d="M2.667 30.333c-0.253 0-0.507-0.093-0.707-0.293-0.387-0.387-0.387-1.027 0-1.413l26.667-26.667c0.387-0.387 1.027-0.387 1.413 0s0.387 1.027 0 1.413l-26.667 26.667c-0.2 0.2-0.453 0.293-0.707 0.293z"></path>
<path d="M25.173 30.333c-0.747 0-1.547-0.227-2.347-0.667l-8.693-5.427c-0.467-0.293-0.613-0.907-0.32-1.373s0.907-0.613 1.373-0.32l8.653 5.4c0.747 0.413 1.493 0.507 1.973 0.227s0.76-0.973 0.76-1.893v-14.667c0-0.547 0.453-1 1-1s1 0.453 1 1v14.667c0 1.64-0.64 2.96-1.747 3.613-0.493 0.293-1.053 0.44-1.653 0.44z"></path>
<path d="M4.427 27.6c-0.547 0-1-0.453-1-1v-18.787c0-3.387 2.76-6.147 6.147-6.147h12.867c1.853 0 3.6 0.827 4.773 2.28 0.347 0.427 0.28 1.053-0.147 1.413-0.427 0.347-1.053 0.28-1.4-0.147-0.8-0.987-1.973-1.547-3.227-1.547h-12.867c-2.28 0-4.147 1.867-4.147 4.147v18.787c0 0.547-0.453 1-1 1z"></path>
</svg>
