<!-- Generated by IcoMoon.io -->
<svg version="1.1" xmlns="http://www.w3.org/2000/svg" width="32" height="32" viewBox="0 0 32 32">
<title>archive-book</title>
<path d="M21.333 30.333h-10.667c-4.867 0-7.667-2.8-7.667-7.667v-13.333c0-4.867 2.8-7.667 7.667-7.667h10.667c4.867 0 7.667 2.8 7.667 7.667v13.333c0 4.867-2.8 7.667-7.667 7.667zM10.667 3.667c-3.813 0-5.667 1.853-5.667 5.667v13.333c0 3.813 1.853 5.667 5.667 5.667h10.667c3.813 0 5.667-1.853 5.667-5.667v-13.333c0-3.813-1.853-5.667-5.667-5.667h-10.667z"></path>
<path d="M12 14.813c-0.227 0-0.453-0.040-0.667-0.133-0.613-0.267-1-0.867-1-1.52v-10.493c0-0.547 0.453-1 1-1h9.333c0.547 0 1 0.453 1 1v10.48c0 0.667-0.387 1.267-1 1.52-0.6 0.267-1.307 0.147-1.8-0.307l-2.867-2.627-2.867 2.64c-0.32 0.293-0.72 0.44-1.133 0.44zM16 9.613c0.4 0 0.813 0.147 1.133 0.44l2.533 2.333v-8.72h-7.333v8.72l2.533-2.333c0.32-0.293 0.733-0.44 1.133-0.44z"></path>
<path d="M23.333 19.667h-5.667c-0.547 0-1-0.453-1-1s0.453-1 1-1h5.667c0.547 0 1 0.453 1 1s-0.453 1-1 1z"></path>
<path d="M23.333 25h-11.333c-0.547 0-1-0.453-1-1s0.453-1 1-1h11.333c0.547 0 1 0.453 1 1s-0.453 1-1 1z"></path>
</svg>
