<!-- Generated by IcoMoon.io -->
<svg version="1.1" xmlns="http://www.w3.org/2000/svg" width="32" height="32" viewBox="0 0 32 32">
<title>archive-minus</title>
<path d="M19.333 15.2h-6.667c-0.547 0-1-0.453-1-1s0.453-1 1-1h6.667c0.547 0 1 0.453 1 1s-0.453 1-1 1z"></path>
<path d="M6.573 30.333c-0.56 0-1.080-0.133-1.547-0.4-1.027-0.6-1.613-1.813-1.613-3.32v-18.8c0-3.387 2.76-6.147 6.147-6.147h12.867c3.387 0 6.147 2.76 6.147 6.147v18.787c0 1.507-0.587 2.72-1.613 3.32s-2.373 0.533-3.693-0.2l-6.507-3.613c-0.387-0.213-1.147-0.213-1.533 0l-6.507 3.613c-0.72 0.4-1.453 0.613-2.147 0.613zM9.573 3.667c-2.28 0-4.147 1.867-4.147 4.147v18.787c0 0.787 0.227 1.373 0.627 1.6 0.4 0.24 1.027 0.16 1.707-0.227l6.507-3.613c0.987-0.547 2.48-0.547 3.467 0l6.507 3.613c0.68 0.387 1.307 0.467 1.707 0.227s0.627-0.827 0.627-1.6v-18.787c0-2.28-1.867-4.147-4.147-4.147h-12.853z"></path>
</svg>
