<!-- Generated by IcoMoon.io -->
<svg version="1.1" xmlns="http://www.w3.org/2000/svg" width="32" height="32" viewBox="0 0 32 32">
<title>archive-1</title>
<path d="M16 13.707c-1.36 0-2.72-0.24-4.013-0.707-0.52-0.187-0.787-0.76-0.6-1.28 0.2-0.52 0.773-0.787 1.293-0.6 2.147 0.773 4.507 0.773 6.653 0 0.52-0.187 1.093 0.080 1.28 0.6s-0.080 1.093-0.6 1.28c-1.293 0.467-2.653 0.707-4.013 0.707z"></path>
<path d="M25.427 30.333c-0.68 0-1.427-0.2-2.147-0.613l-6.507-3.613c-0.387-0.213-1.147-0.213-1.533 0l-6.507 3.613c-1.32 0.733-2.667 0.813-3.693 0.2-1.027-0.6-1.613-1.813-1.613-3.32v-18.787c0-3.387 2.76-6.147 6.147-6.147h12.867c3.387 0 6.147 2.76 6.147 6.147v18.787c0 1.507-0.587 2.72-1.613 3.32-0.467 0.28-1 0.413-1.547 0.413zM16 23.947c0.627 0 1.24 0.133 1.733 0.413l6.507 3.613c0.68 0.387 1.307 0.467 1.707 0.227s0.627-0.813 0.627-1.6v-18.787c0-2.28-1.867-4.147-4.147-4.147h-12.853c-2.28 0-4.147 1.867-4.147 4.147v18.787c0 0.787 0.227 1.373 0.627 1.6s1.013 0.16 1.707-0.227l6.507-3.613c0.493-0.28 1.107-0.413 1.733-0.413z"></path>
</svg>
