<!-- Generated by IcoMoon.io -->
<svg version="1.1" xmlns="http://www.w3.org/2000/svg" width="32" height="32" viewBox="0 0 32 32">
<title>archive-2</title>
<path d="M22 30.333h-12c-4.4 0-5-2.4-5-5v-11.707c0-0.547 0.453-1 1-1s1 0.453 1 1v11.707c0 2.32 0.4 3 3 3h12c2.6 0 3-0.68 3-3v-11.707c0-0.547 0.453-1 1-1s1 0.453 1 1v11.707c0 2.6-0.6 5-5 5z"></path>
<path d="M25.333 14.333h-18.667c-3.227 0-5-1.773-5-5v-2.667c0-3.227 1.773-5 5-5h18.667c3.227 0 5 1.773 5 5v2.667c0 3.227-1.773 5-5 5zM6.667 3.667c-2.107 0-3 0.893-3 3v2.667c0 2.107 0.893 3 3 3h18.667c2.107 0 3-0.893 3-3v-2.667c0-2.107-0.893-3-3-3h-18.667z"></path>
<path d="M18.426 19.667h-4.853c-0.547 0-1-0.453-1-1s0.453-1 1-1h4.853c0.547 0 1 0.453 1 1s-0.453 1-1 1z"></path>
</svg>
