<!-- Generated by IcoMoon.io -->
<svg version="1.1" xmlns="http://www.w3.org/2000/svg" width="32" height="32" viewBox="0 0 32 32">
<title>archive</title>
<path d="M20 30.333h-8c-7.24 0-10.333-3.093-10.333-10.333v-8c0-7.24 3.093-10.333 10.333-10.333h8c7.24 0 10.333 3.093 10.333 10.333v8c0 7.24-3.093 10.333-10.333 10.333zM12 3.667c-6.147 0-8.333 2.187-8.333 8.333v8c0 6.147 2.187 8.333 8.333 8.333h8c6.147 0 8.333-2.187 8.333-8.333v-8c0-6.147-2.187-8.333-8.333-8.333h-8z"></path>
<path d="M24 20.333c-0.547 0-1-0.453-1-1 0-0.92-0.747-1.667-1.667-1.667h-10.667c-0.92 0-1.667 0.747-1.667 1.667 0 0.547-0.453 1-1 1s-1-0.453-1-1v-9c0-2.027 1.64-3.667 3.667-3.667h10.667c2.027 0 3.667 1.64 3.667 3.667v9c0 0.547-0.453 1-1 1zM10.667 15.667h10.667c0.6 0 1.173 0.147 1.667 0.4v-5.733c0-0.92-0.747-1.667-1.667-1.667h-10.667c-0.92 0-1.667 0.747-1.667 1.667v5.733c0.493-0.253 1.067-0.4 1.667-0.4z"></path>
<path d="M25.333 22h-1.333c-0.547 0-1-0.453-1-1s0.453-1 1-1h1.333c0.547 0 1 0.453 1 1s-0.453 1-1 1z"></path>
<path d="M8 22h-1.333c-0.547 0-1-0.453-1-1s0.453-1 1-1h1.333c0.547 0 1 0.453 1 1s-0.453 1-1 1z"></path>
<path d="M24 19.667c-0.547 0-1-0.453-1-1v-4c0-0.92-0.747-1.667-1.667-1.667h-10.667c-0.92 0-1.667 0.747-1.667 1.667v4c0 0.547-0.453 1-1 1s-1-0.453-1-1v-4c0-2.027 1.64-3.667 3.667-3.667h10.667c2.027 0 3.667 1.64 3.667 3.667v4c0 0.547-0.453 1-1 1z"></path>
<path d="M16 25.333c-2.040 0-3.76-1.427-4.213-3.333h-3.787c-0.547 0-1-0.453-1-1v-1.667c0-2.027 1.64-3.667 3.667-3.667h10.667c2.027 0 3.667 1.64 3.667 3.667v1.667c0 0.547-0.453 1-1 1h-3.787c-0.453 1.907-2.173 3.333-4.213 3.333zM9 20h3.667c0.547 0 1 0.453 1 1 0 1.28 1.053 2.333 2.333 2.333s2.333-1.053 2.333-2.333c0-0.547 0.453-1 1-1h3.667v-0.667c0-0.92-0.747-1.667-1.667-1.667h-10.667c-0.92 0-1.667 0.747-1.667 1.667v0.667z"></path>
</svg>
