<!-- Generated by IcoMoon.io -->
<svg version="1.1" xmlns="http://www.w3.org/2000/svg" width="32" height="32" viewBox="0 0 32 32">
<title>arrange-circle-2</title>
<path d="M18.814 23.48c-0.253 0-0.507-0.093-0.707-0.293-0.387-0.387-0.387-1.027 0-1.413l4.053-4.053c0.387-0.387 1.027-0.387 1.413 0s0.387 1.027 0 1.413l-4.053 4.053c-0.187 0.187-0.44 0.293-0.707 0.293z"></path>
<path d="M22.866 19.427h-13.747c-0.547 0-1-0.453-1-1s0.453-1 1-1h13.747c0.547 0 1 0.453 1 1s-0.44 1-1 1z"></path>
<path d="M9.132 14.573c-0.253 0-0.507-0.093-0.707-0.293-0.387-0.387-0.387-1.027 0-1.413l4.053-4.053c0.387-0.387 1.027-0.387 1.413 0s0.387 1.027 0 1.413l-4.053 4.053c-0.2 0.2-0.453 0.293-0.707 0.293z"></path>
<path d="M22.866 14.573h-13.747c-0.547 0-1-0.453-1-1s0.453-1 1-1h13.747c0.547 0 1 0.453 1 1s-0.44 1-1 1z"></path>
<path d="M16 30.333c-7.907 0-14.333-6.427-14.333-14.333s6.427-14.333 14.333-14.333c7.907 0 14.333 6.427 14.333 14.333s-6.427 14.333-14.333 14.333zM16 3.667c-6.8 0-12.333 5.533-12.333 12.333s5.533 12.333 12.333 12.333c6.8 0 12.333-5.533 12.333-12.333s-5.533-12.333-12.333-12.333z"></path>
</svg>
