<!-- Generated by IcoMoon.io -->
<svg version="1.1" xmlns="http://www.w3.org/2000/svg" width="32" height="32" viewBox="0 0 32 32">
<title>arrow-swap</title>
<path d="M12.013 28.334c-0.253 0-0.507-0.093-0.707-0.293l-6.68-6.68c-0.387-0.387-0.387-1.027 0-1.413s1.027-0.387 1.413 0l6.68 6.68c0.387 0.387 0.387 1.027 0 1.413-0.2 0.187-0.453 0.293-0.707 0.293z"></path>
<path d="M12.013 28.333c-0.547 0-1-0.453-1-1v-22.667c0-0.547 0.453-1 1-1s1 0.453 1 1v22.667c0 0.547-0.453 1-1 1z"></path>
<path d="M26.679 12.347c-0.253 0-0.507-0.093-0.707-0.293l-6.68-6.68c-0.387-0.387-0.387-1.027 0-1.413s1.027-0.387 1.413 0l6.68 6.68c0.387 0.387 0.387 1.027 0 1.413-0.2 0.2-0.453 0.293-0.707 0.293z"></path>
<path d="M19.987 28.333c-0.547 0-1-0.453-1-1v-22.667c0-0.547 0.453-1 1-1s1 0.453 1 1v22.667c0 0.547-0.44 1-1 1z"></path>
</svg>
