<!-- Generated by IcoMoon.io -->
<svg version="1.1" xmlns="http://www.w3.org/2000/svg" width="32" height="32" viewBox="0 0 32 32">
<title>arrow-2</title>
<path d="M23.038 14.934c-0.253 0-0.507-0.093-0.707-0.293-0.387-0.387-0.387-1.027 0-1.413l4.253-4.253-4.253-4.253c-0.387-0.387-0.387-1.027 0-1.413s1.027-0.387 1.413 0l4.96 4.96c0.187 0.187 0.293 0.44 0.293 0.707s-0.107 0.52-0.293 0.707l-4.96 4.96c-0.2 0.187-0.453 0.293-0.707 0.293z"></path>
<path d="M28 9.973h-24c-0.547 0-1-0.453-1-1s0.453-1 1-1h24c0.547 0 1 0.453 1 1s-0.453 1-1 1z"></path>
<path d="M8.96 29c-0.253 0-0.507-0.093-0.707-0.293l-4.96-4.96c-0.187-0.187-0.293-0.44-0.293-0.707s0.107-0.52 0.293-0.707l4.96-4.96c0.387-0.387 1.027-0.387 1.413 0s0.387 1.027 0 1.413l-4.253 4.253 4.253 4.253c0.387 0.387 0.387 1.027 0 1.413-0.187 0.2-0.44 0.293-0.707 0.293z"></path>
<path d="M28 24.027h-24c-0.547 0-1-0.453-1-1s0.453-1 1-1h24c0.547 0 1 0.453 1 1s-0.453 1-1 1z"></path>
</svg>
