<!-- Generated by IcoMoon.io -->
<svg version="1.1" xmlns="http://www.w3.org/2000/svg" width="32" height="32" viewBox="0 0 32 32">
<title>arrow-up-1</title>
<path d="M16 30.333c-7.907 0-14.333-6.427-14.333-14.333s6.427-14.333 14.333-14.333c7.907 0 14.333 6.427 14.333 14.333s-6.427 14.333-14.333 14.333zM16 3.667c-6.8 0-12.333 5.533-12.333 12.333s5.533 12.333 12.333 12.333c6.8 0 12.333-5.533 12.333-12.333s-5.533-12.333-12.333-12.333z"></path>
<path d="M16 21.667c-0.547 0-1-0.453-1-1v-8c0-0.547 0.453-1 1-1s1 0.453 1 1v8c0 0.547-0.453 1-1 1z"></path>
<path d="M19.999 16.333c-0.253 0-0.507-0.093-0.707-0.293l-3.293-3.293-3.293 3.293c-0.387 0.387-1.027 0.387-1.413 0s-0.387-1.027 0-1.413l4-4c0.387-0.387 1.027-0.387 1.413 0l4 4c0.387 0.387 0.387 1.027 0 1.413-0.2 0.2-0.453 0.293-0.707 0.293z"></path>
</svg>
