<!-- Generated by IcoMoon.io -->
<svg version="1.1" xmlns="http://www.w3.org/2000/svg" width="32" height="32" viewBox="0 0 32 32">
<title>arrow-swap-horizontal</title>
<path d="M20.653 27.68c-0.253 0-0.507-0.093-0.707-0.293-0.387-0.387-0.387-1.027 0-1.413l6.68-6.68c0.387-0.387 1.027-0.387 1.413 0s0.387 1.027 0 1.413l-6.68 6.68c-0.2 0.187-0.453 0.293-0.707 0.293z"></path>
<path d="M27.333 20.987h-22.667c-0.547 0-1-0.453-1-1s0.453-1 1-1h22.667c0.547 0 1 0.453 1 1s-0.453 1-1 1z"></path>
<path d="M4.666 13.013c-0.253 0-0.507-0.093-0.707-0.293-0.387-0.387-0.387-1.027 0-1.413l6.68-6.68c0.387-0.387 1.027-0.387 1.413 0s0.387 1.027 0 1.413l-6.68 6.68c-0.187 0.187-0.453 0.293-0.707 0.293z"></path>
<path d="M27.333 13.013h-22.667c-0.547 0-1-0.453-1-1s0.453-1 1-1h22.667c0.547 0 1 0.453 1 1s-0.453 1-1 1z"></path>
</svg>
