<!-- Generated by IcoMoon.io -->
<svg version="1.1" xmlns="http://www.w3.org/2000/svg" width="32" height="32" viewBox="0 0 32 32">
<title>arrow-circle-left</title>
<path d="M16 30.333c-7.907 0-14.333-6.427-14.333-14.333s6.427-14.333 14.333-14.333c7.907 0 14.333 6.427 14.333 14.333s-6.427 14.333-14.333 14.333zM16 3.667c-6.8 0-12.333 5.533-12.333 12.333s5.533 12.333 12.333 12.333c6.8 0 12.333-5.533 12.333-12.333s-5.533-12.333-12.333-12.333z"></path>
<path d="M17.68 21.707c-0.253 0-0.507-0.093-0.707-0.293l-4.707-4.707c-0.387-0.387-0.387-1.027 0-1.413l4.707-4.707c0.387-0.387 1.027-0.387 1.413 0s0.387 1.027 0 1.413l-4 4 4 4c0.387 0.387 0.387 1.027 0 1.413-0.187 0.2-0.44 0.293-0.707 0.293z"></path>
</svg>
