<!-- Generated by IcoMoon.io -->
<svg version="1.1" xmlns="http://www.w3.org/2000/svg" width="32" height="32" viewBox="0 0 32 32">
<title>arrow-left</title>
<path d="M12.759 25.093c-0.253 0-0.507-0.093-0.707-0.293l-8.093-8.093c-0.387-0.387-0.387-1.027 0-1.413l8.093-8.093c0.387-0.387 1.027-0.387 1.413 0s0.387 1.027 0 1.413l-7.387 7.387 7.387 7.387c0.387 0.387 0.387 1.027 0 1.413-0.187 0.2-0.453 0.293-0.707 0.293z"></path>
<path d="M27.333 17h-22.44c-0.547 0-1-0.453-1-1s0.453-1 1-1h22.44c0.547 0 1 0.453 1 1s-0.453 1-1 1z"></path>
</svg>
