<!-- Generated by IcoMoon.io -->
<svg version="1.1" xmlns="http://www.w3.org/2000/svg" width="32" height="32" viewBox="0 0 32 32">
<title>arrow-left-1</title>
<path d="M20.133 25.533c-1.12 0-2.347-0.36-3.587-1.080l-6.173-3.56c-2.173-1.267-3.373-3-3.373-4.893s1.2-3.627 3.373-4.88l6.173-3.56c2.173-1.253 4.267-1.427 5.92-0.48 1.64 0.947 2.547 2.853 2.547 5.36v7.12c0 2.507-0.907 4.413-2.547 5.36-0.707 0.413-1.493 0.613-2.333 0.613zM20.133 8.48c-0.773 0-1.653 0.267-2.587 0.813l-6.173 3.56c-1.533 0.88-2.373 2-2.373 3.147s0.84 2.267 2.373 3.147l6.173 3.56c1.533 0.88 2.92 1.053 3.92 0.48s1.547-1.867 1.547-3.627v-7.12c0-1.76-0.547-3.053-1.547-3.627-0.4-0.227-0.853-0.333-1.333-0.333z"></path>
</svg>
