<!-- Generated by IcoMoon.io -->
<svg version="1.1" xmlns="http://www.w3.org/2000/svg" width="32" height="32" viewBox="0 0 32 32">
<title>arrow-right-4</title>
<path d="M11.867 25.533c-0.84 0-1.627-0.2-2.32-0.6-1.64-0.947-2.547-2.853-2.547-5.36v-7.133c0-2.507 0.907-4.413 2.547-5.36s3.733-0.773 5.92 0.48l6.173 3.56c2.173 1.253 3.373 2.987 3.373 4.88s-1.2 3.627-3.373 4.88l-6.173 3.56c-1.253 0.733-2.48 1.093-3.6 1.093zM11.867 8.48c-0.493 0-0.947 0.107-1.333 0.333-0.987 0.573-1.533 1.853-1.533 3.627v7.12c0 1.76 0.547 3.053 1.547 3.627s2.387 0.4 3.92-0.48l6.173-3.56c1.533-0.88 2.373-2 2.373-3.147s-0.84-2.267-2.373-3.147l-6.173-3.56c-0.947-0.547-1.827-0.813-2.6-0.813z"></path>
</svg>
