<!-- Generated by IcoMoon.io -->
<svg version="1.1" xmlns="http://www.w3.org/2000/svg" width="32" height="32" viewBox="0 0 32 32">
<title>arrow-bottom</title>
<path d="M15.999 25c-1.893 0-3.627-1.2-4.88-3.373l-3.56-6.173c-1.267-2.173-1.427-4.267-0.48-5.907s2.853-2.547 5.36-2.547h7.12c2.507 0 4.413 0.907 5.36 2.547s0.773 3.747-0.48 5.92l-3.56 6.173c-1.253 2.16-2.987 3.36-4.88 3.36zM12.439 9c-1.773 0-3.053 0.547-3.627 1.547-0.587 1-0.413 2.387 0.467 3.907l3.56 6.173c0.88 1.533 2 2.373 3.147 2.373s2.267-0.84 3.147-2.373l3.56-6.173c0.88-1.533 1.053-2.92 0.48-3.92s-1.867-1.547-3.627-1.547h-7.107v0.013z"></path>
</svg>
