<!-- Generated by IcoMoon.io -->
<svg version="1.1" xmlns="http://www.w3.org/2000/svg" width="32" height="32" viewBox="0 0 32 32">
<title>arrow-3</title>
<path d="M13.932 9.96c-0.253 0-0.507-0.093-0.707-0.293l-4.253-4.253-4.253 4.253c-0.387 0.387-1.027 0.387-1.413 0s-0.387-1.027 0-1.413l4.96-4.96c0.187-0.187 0.44-0.293 0.707-0.293s0.52 0.107 0.707 0.293l4.96 4.96c0.387 0.387 0.387 1.027 0 1.413-0.2 0.2-0.453 0.293-0.707 0.293z"></path>
<path d="M8.974 29c-0.547 0-1-0.453-1-1v-24c0-0.547 0.453-1 1-1s1 0.453 1 1v24c0 0.547-0.453 1-1 1z"></path>
<path d="M23.040 29c-0.267 0-0.52-0.107-0.707-0.293l-4.96-4.96c-0.387-0.387-0.387-1.027 0-1.413s1.027-0.387 1.413 0l4.253 4.253 4.253-4.253c0.387-0.387 1.027-0.387 1.413 0s0.387 1.027 0 1.413l-4.96 4.96c-0.187 0.187-0.453 0.293-0.707 0.293z"></path>
<path d="M23.026 29c-0.547 0-1-0.453-1-1v-24c0-0.547 0.453-1 1-1s1 0.453 1 1v24c0 0.547-0.44 1-1 1z"></path>
</svg>
