<!-- Generated by IcoMoon.io -->
<svg version="1.1" xmlns="http://www.w3.org/2000/svg" width="32" height="32" viewBox="0 0 32 32">
<title>arrow-up</title>
<path d="M19.56 25h-7.12c-2.507 0-4.413-0.907-5.36-2.547s-0.773-3.747 0.48-5.92l3.56-6.173c1.253-2.16 2.987-3.36 4.88-3.36s3.627 1.2 4.88 3.373l3.56 6.173c1.253 2.173 1.427 4.28 0.48 5.92-0.947 1.627-2.853 2.533-5.36 2.533zM16 9c-1.147 0-2.267 0.84-3.147 2.373l-3.56 6.173c-0.88 1.533-1.053 2.92-0.48 3.92s1.867 1.547 3.627 1.547h7.12c1.76 0 3.053-0.547 3.627-1.547s0.4-2.387-0.48-3.92l-3.56-6.173c-0.88-1.533-2-2.373-3.147-2.373z"></path>
</svg>
