<!-- Generated by IcoMoon.io -->
<svg version="1.1" xmlns="http://www.w3.org/2000/svg" width="32" height="32" viewBox="0 0 32 32">
<title>arrow-down</title>
<path d="M15.999 28.333c-0.253 0-0.507-0.093-0.707-0.293l-8.093-8.093c-0.387-0.387-0.387-1.027 0-1.413s1.027-0.387 1.413 0l7.387 7.387 7.387-7.387c0.387-0.387 1.027-0.387 1.413 0s0.387 1.027 0 1.413l-8.093 8.093c-0.2 0.2-0.453 0.293-0.707 0.293z"></path>
<path d="M16 28.107c-0.547 0-1-0.453-1-1v-22.44c0-0.547 0.453-1 1-1s1 0.453 1 1v22.44c0 0.547-0.453 1-1 1z"></path>
</svg>
