<!-- Generated by IcoMoon.io -->
<svg version="1.1" xmlns="http://www.w3.org/2000/svg" width="32" height="32" viewBox="0 0 32 32">
<title>arrow-square</title>
<path d="M16.187 21.093c-0.547 0-1-0.453-1-1v-2.613c0-3.907 3.173-7.080 7.093-7.080h2.613c0.547 0 1 0.453 1 1s-0.453 1-1 1h-2.613c-2.8 0-5.093 2.28-5.093 5.080v2.613c0 0.56-0.453 1-1 1z"></path>
<path d="M16.188 24c-0.547 0-1-0.453-1-1v-5.507c0-2.8-2.28-5.080-5.080-5.080h-2.613c-0.547 0-1-0.453-1-1s0.453-1 1-1h2.613c3.907 0 7.080 3.173 7.080 7.080v5.507c0 0.547-0.453 1-1 1z"></path>
<path d="M9.519 14.8c-0.253 0-0.507-0.093-0.707-0.293l-2.4-2.4c-0.387-0.387-0.387-1.027 0-1.413l2.4-2.4c0.387-0.387 1.027-0.387 1.413 0s0.387 1.027 0 1.413l-1.693 1.693 1.693 1.693c0.387 0.387 0.387 1.027 0 1.413-0.2 0.2-0.453 0.293-0.707 0.293z"></path>
<path d="M22.481 14.8c-0.253 0-0.507-0.093-0.707-0.293-0.387-0.387-0.387-1.027 0-1.413l1.693-1.693-1.693-1.693c-0.387-0.387-0.387-1.027 0-1.413s1.027-0.387 1.413 0l2.4 2.4c0.387 0.387 0.387 1.027 0 1.413l-2.4 2.4c-0.187 0.2-0.453 0.293-0.707 0.293z"></path>
<path d="M20 30.333h-8c-7.24 0-10.333-3.093-10.333-10.333v-8c0-7.24 3.093-10.333 10.333-10.333h8c7.24 0 10.333 3.093 10.333 10.333v8c0 7.24-3.093 10.333-10.333 10.333zM12 3.667c-6.147 0-8.333 2.187-8.333 8.333v8c0 6.147 2.187 8.333 8.333 8.333h8c6.147 0 8.333-2.187 8.333-8.333v-8c0-6.147-2.187-8.333-8.333-8.333h-8z"></path>
</svg>
