<!-- Generated by IcoMoon.io -->
<svg version="1.1" xmlns="http://www.w3.org/2000/svg" width="32" height="32" viewBox="0 0 32 32">
<title>attach-circle</title>
<path d="M16.266 23.173c-0.933 0-1.88-0.36-2.587-1.067-0.693-0.693-1.080-1.613-1.080-2.587s0.387-1.907 1.080-2.587l1.88-1.88c0.387-0.387 1.027-0.387 1.413 0s0.387 1.027 0 1.413l-1.88 1.88c-0.32 0.32-0.493 0.733-0.493 1.173s0.173 0.867 0.493 1.173c0.653 0.653 1.707 0.653 2.36 0l2.96-2.96c1.693-1.693 1.693-4.44 0-6.133s-4.44-1.693-6.133 0l-3.227 3.227c-0.68 0.68-1.053 1.573-1.053 2.52s0.373 1.853 1.053 2.52c0.387 0.387 0.387 1.027 0 1.413s-1.027 0.387-1.413 0c-1.053-1.053-1.627-2.453-1.627-3.947s0.573-2.893 1.627-3.947l3.227-3.227c2.467-2.467 6.493-2.467 8.96 0s2.467 6.493 0 8.96l-2.96 2.96c-0.72 0.733-1.653 1.093-2.6 1.093z"></path>
<path d="M16 30.333c-7.907 0-14.333-6.427-14.333-14.333s6.427-14.333 14.333-14.333c7.907 0 14.333 6.427 14.333 14.333s-6.427 14.333-14.333 14.333zM16 3.667c-6.8 0-12.333 5.533-12.333 12.333s5.533 12.333 12.333 12.333c6.8 0 12.333-5.533 12.333-12.333s-5.533-12.333-12.333-12.333z"></path>
</svg>
