<!-- Generated by IcoMoon.io -->
<svg version="1.1" xmlns="http://www.w3.org/2000/svg" width="32" height="32" viewBox="0 0 32 32">
<title>audio-square</title>
<path d="M20 30.333h-8c-7.24 0-10.333-3.093-10.333-10.333v-8c0-7.24 3.093-10.333 10.333-10.333h8c7.24 0 10.333 3.093 10.333 10.333v8c0 7.24-3.093 10.333-10.333 10.333zM12 3.667c-6.147 0-8.333 2.187-8.333 8.333v8c0 6.147 2.187 8.333 8.333 8.333h8c6.147 0 8.333-2.187 8.333-8.333v-8c0-6.147-2.187-8.333-8.333-8.333h-8z"></path>
<path d="M12.827 24.067c-2.107 0-3.827-1.72-3.827-3.827s1.72-3.827 3.827-3.827c2.107 0 3.827 1.72 3.827 3.827s-1.72 3.827-3.827 3.827zM12.827 18.427c-1 0-1.827 0.813-1.827 1.827 0 1 0.813 1.827 1.827 1.827 1 0 1.827-0.813 1.827-1.827s-0.827-1.827-1.827-1.827z"></path>
<path d="M15.654 21.24c-0.547 0-1-0.453-1-1v-9.88c0-0.547 0.453-1 1-1s1 0.453 1 1v9.88c0 0.56-0.453 1-1 1z"></path>
<path d="M20.694 15.24c-0.28 0-0.573-0.053-0.867-0.147l-3.12-1.040c-1.173-0.387-2.053-1.613-2.053-2.853v-0.827c0-0.84 0.347-1.573 0.96-2.013s1.413-0.547 2.213-0.28l3.12 1.040c1.173 0.387 2.053 1.613 2.053 2.853v0.827c0 0.84-0.347 1.573-0.96 2.013-0.387 0.28-0.853 0.427-1.347 0.427zM16.947 9.933c-0.067 0-0.133 0.013-0.173 0.040-0.080 0.053-0.133 0.2-0.133 0.387v0.827c0 0.373 0.347 0.84 0.693 0.96l3.12 1.040c0.173 0.053 0.333 0.053 0.413 0s0.133-0.2 0.133-0.387v-0.827c0-0.373-0.347-0.84-0.693-0.96l-3.12-1.040c-0.080-0.027-0.173-0.040-0.24-0.040z"></path>
</svg>
