<!-- Generated by IcoMoon.io -->
<svg version="1.1" xmlns="http://www.w3.org/2000/svg" width="32" height="32" viewBox="0 0 32 32">
<title>award</title>
<path d="M16 30.333c-0.8 0-1.587-0.187-2.227-0.547l-6.307-3.64c-2.613-1.76-2.787-2.080-2.787-4.84v-6.613c0-2.76 0.173-3.080 2.733-4.8l6.373-3.68c1.267-0.733 3.173-0.733 4.44 0l6.307 3.64c2.613 1.76 2.787 2.080 2.787 4.84v6.613c0 2.76-0.173 3.080-2.733 4.8l-6.373 3.68c-0.627 0.373-1.427 0.547-2.213 0.547zM16 7.667c-0.453 0-0.907 0.093-1.227 0.28l-6.307 3.64c-1.787 1.213-1.787 1.213-1.787 3.107v6.613c0 1.893 0 1.893 1.853 3.147l6.253 3.6c0.64 0.373 1.8 0.373 2.44 0l6.307-3.64c1.787-1.213 1.787-1.213 1.787-3.107v-6.613c0-1.893 0-1.893-1.853-3.147l-6.253-3.6c-0.307-0.187-0.76-0.28-1.213-0.28z"></path>
<path d="M23.333 11.173c-0.547 0-1-0.453-1-1v-3.507c0-2.107-0.893-3-3-3h-6.667c-2.107 0-3 0.893-3 3v3.413c0 0.547-0.453 1-1 1s-1-0.44-1-1v-3.413c0-3.227 1.773-5 5-5h6.667c3.227 0 5 1.773 5 5v3.507c0 0.547-0.453 1-1 1z"></path>
<path d="M18.174 23.507c-0.28 0-0.573-0.053-0.867-0.173l-1.307-0.507-1.307 0.52c-0.707 0.28-1.427 0.213-1.96-0.173s-0.813-1.053-0.773-1.813l0.080-1.4-0.893-1.080c-0.48-0.6-0.64-1.293-0.427-1.933 0.2-0.627 0.747-1.107 1.48-1.293l1.36-0.347 0.76-1.187c0.813-1.28 2.56-1.28 3.373 0l0.76 1.187 1.36 0.347c0.733 0.187 1.28 0.667 1.48 1.293s0.040 1.333-0.44 1.92l-0.893 1.080 0.080 1.4c0.040 0.76-0.24 1.413-0.773 1.813-0.32 0.227-0.693 0.347-1.093 0.347zM12.694 17.6l0.893 1.080c0.307 0.36 0.48 0.933 0.453 1.4l-0.080 1.4 1.307-0.52c0.44-0.173 1.027-0.173 1.467 0l1.307 0.52-0.080-1.4c-0.027-0.467 0.147-1.027 0.453-1.4l0.893-1.080-1.36-0.347c-0.453-0.12-0.933-0.467-1.187-0.853l-0.747-1.173-0.76 1.173c-0.253 0.4-0.733 0.747-1.187 0.867l-1.373 0.333z"></path>
</svg>
