<!-- Generated by IcoMoon.io -->
<svg version="1.1" xmlns="http://www.w3.org/2000/svg" width="32" height="32" viewBox="0 0 32 32">
<title>backward-10-seconds</title>
<path d="M12.719 22.227c-0.547 0-1-0.453-1-1v-4.52l-0.253 0.28c-0.373 0.413-1 0.44-1.413 0.080-0.413-0.373-0.44-1-0.080-1.413l2-2.227c0.28-0.307 0.72-0.413 1.107-0.267s0.64 0.52 0.64 0.933v7.133c0 0.56-0.44 1-1 1z"></path>
<path d="M13.36 6.96c-0.227 0-0.44-0.067-0.627-0.227-0.427-0.347-0.493-0.973-0.16-1.4l2.64-3.293c0.347-0.427 0.973-0.493 1.4-0.16s0.493 0.973 0.16 1.4l-2.64 3.293c-0.187 0.253-0.48 0.387-0.773 0.387z"></path>
<path d="M15.999 30.333c-7.080 0-12.853-5.76-12.853-12.853 0-2.76 0.893-5.413 2.6-7.68 0.333-0.44 0.96-0.533 1.4-0.2s0.533 0.96 0.2 1.4c-1.44 1.92-2.2 4.16-2.2 6.48 0 5.987 4.867 10.853 10.853 10.853s10.853-4.867 10.853-10.853c0-5.987-4.867-10.853-10.853-10.853-0.773 0-1.56 0.093-2.413 0.293-0.533 0.12-1.080-0.213-1.2-0.747s0.213-1.080 0.747-1.2c1-0.227 1.947-0.347 2.867-0.347 7.080 0 12.853 5.76 12.853 12.853s-5.773 12.853-12.853 12.853z"></path>
<path d="M18.667 22.227c-2.027 0-3.667-1.64-3.667-3.667v-1.8c0-2.027 1.64-3.667 3.667-3.667s3.667 1.64 3.667 3.667v1.8c0 2.027-1.64 3.667-3.667 3.667zM18.667 15.107c-0.92 0-1.667 0.747-1.667 1.667v1.8c0 0.92 0.747 1.667 1.667 1.667s1.667-0.747 1.667-1.667v-1.8c0-0.92-0.747-1.667-1.667-1.667z"></path>
</svg>
