<!-- Generated by IcoMoon.io -->
<svg version="1.1" xmlns="http://www.w3.org/2000/svg" width="32" height="32" viewBox="0 0 32 32">
<title>backward-5-seconds</title>
<path d="M16.507 22.56h-3.053c-0.547 0-1-0.453-1-1s0.453-1 1-1h3.053c0.573 0 1.040-0.467 1.040-1.040s-0.467-1.040-1.040-1.040h-3.053c-0.32 0-0.627-0.16-0.813-0.413s-0.24-0.6-0.133-0.907l1.013-3.053c0.133-0.413 0.52-0.68 0.947-0.68h4.080c0.547 0 1 0.453 1 1s-0.453 1-1 1h-3.36l-0.347 1.053h1.667c1.68 0 3.040 1.36 3.040 3.040s-1.36 3.040-3.040 3.040z"></path>
<path d="M13.36 6.96c-0.227 0-0.44-0.067-0.627-0.227-0.427-0.347-0.493-0.973-0.16-1.4l2.64-3.293c0.347-0.427 0.973-0.493 1.4-0.16 0.427 0.347 0.493 0.973 0.16 1.4l-2.64 3.293c-0.187 0.253-0.48 0.387-0.773 0.387z"></path>
<path d="M15.999 30.333c-7.080 0-12.853-5.76-12.853-12.853 0-2.76 0.893-5.413 2.6-7.68 0.333-0.44 0.96-0.533 1.4-0.2s0.533 0.96 0.2 1.4c-1.44 1.92-2.2 4.16-2.2 6.48 0 5.987 4.867 10.853 10.853 10.853s10.853-4.867 10.853-10.853c0-5.987-4.867-10.853-10.853-10.853-0.773 0-1.56 0.093-2.413 0.293-0.533 0.12-1.080-0.213-1.2-0.747s0.213-1.080 0.747-1.2c1-0.227 1.947-0.347 2.867-0.347 7.080 0 12.853 5.76 12.853 12.853s-5.773 12.853-12.853 12.853z"></path>
</svg>
