<!-- Generated by IcoMoon.io -->
<svg version="1.1" xmlns="http://www.w3.org/2000/svg" width="32" height="32" viewBox="0 0 32 32">
<title>backward</title>
<path d="M26.733 24.48c-0.613 0-1.24-0.16-1.8-0.493l-8.453-4.88c-0.387-0.227-0.693-0.493-0.92-0.787-0.147-0.173-0.227-0.4-0.227-0.627v-3.413c0-0.227 0.080-0.453 0.227-0.627 0.24-0.293 0.547-0.56 0.92-0.773l8.467-4.893c1.12-0.653 2.467-0.653 3.6 0s1.8 1.813 1.8 3.12v9.76c0 1.307-0.667 2.467-1.8 3.12-0.573 0.333-1.2 0.493-1.813 0.493zM17.32 17.28c0.053 0.040 0.107 0.080 0.16 0.107l8.44 4.867c0.507 0.293 1.107 0.293 1.6 0 0.507-0.293 0.8-0.813 0.8-1.387v-9.76c0-0.573-0.293-1.093-0.8-1.387s-1.093-0.293-1.6 0l-8.453 4.88c-0.053 0.027-0.107 0.067-0.147 0.107v2.573z"></path>
<path d="M13.72 24.48c-0.613 0-1.24-0.16-1.8-0.493l-8.453-4.88c-1.12-0.653-1.8-1.813-1.8-3.12s0.667-2.467 1.8-3.12l8.453-4.88c1.12-0.653 2.467-0.653 3.6 0s1.8 1.813 1.8 3.12v9.76c0 1.307-0.667 2.467-1.8 3.12-0.56 0.333-1.187 0.493-1.8 0.493zM13.72 9.52c-0.28 0-0.547 0.067-0.8 0.213l-8.453 4.88c-0.507 0.293-0.8 0.813-0.8 1.387s0.293 1.093 0.8 1.387l8.453 4.88c0.507 0.293 1.107 0.293 1.6 0 0.507-0.293 0.8-0.8 0.8-1.387v-9.76c0-0.573-0.293-1.093-0.8-1.387-0.253-0.147-0.52-0.213-0.8-0.213z"></path>
</svg>
