<!-- Generated by IcoMoon.io -->
<svg version="1.1" xmlns="http://www.w3.org/2000/svg" width="32" height="32" viewBox="0 0 32 32">
<title>backward-item</title>
<path d="M25.133 15.667h-3.6c-3.547 0-5.2-1.653-5.2-5.2v-3.6c0-3.547 1.653-5.2 5.2-5.2h3.6c3.547 0 5.2 1.653 5.2 5.2v3.6c0 3.547-1.653 5.2-5.2 5.2zM21.533 3.667c-2.453 0-3.2 0.747-3.2 3.2v3.6c0 2.453 0.747 3.2 3.2 3.2h3.6c2.453 0 3.2-0.747 3.2-3.2v-3.6c0-2.453-0.747-3.2-3.2-3.2h-3.6z"></path>
<path d="M10.467 30.333h-3.6c-3.547 0-5.2-1.653-5.2-5.2v-3.6c0-3.547 1.653-5.2 5.2-5.2h3.6c3.547 0 5.2 1.653 5.2 5.2v3.6c0 3.547-1.653 5.2-5.2 5.2zM6.867 18.333c-2.453 0-3.2 0.747-3.2 3.2v3.6c0 2.453 0.747 3.2 3.2 3.2h3.6c2.453 0 3.2-0.747 3.2-3.2v-3.6c0-2.453-0.747-3.2-3.2-3.2h-3.6z"></path>
<path d="M18.161 24.173h-3.493c-0.547 0-1-0.453-1-1v-1.64c0-2.453-0.747-3.2-3.2-3.2h-1.64c-0.547 0-1-0.453-1-1v-3.493c0-4.16 1.853-6.013 6.013-6.013h3.493c0.547 0 1 0.453 1 1v1.64c0 2.453 0.747 3.2 3.2 3.2h1.64c0.547 0 1 0.453 1 1v3.493c0 4.16-1.853 6.013-6.013 6.013zM15.668 22.173h2.493c3.040 0 4.013-0.973 4.013-4.013v-2.493h-0.64c-3.547 0-5.2-1.653-5.2-5.2v-0.64h-2.493c-3.040 0-4.013 0.973-4.013 4.013v2.493h0.64c3.547 0 5.2 1.653 5.2 5.2v0.64z"></path>
</svg>
