<!-- Generated by IcoMoon.io -->
<svg version="1.1" xmlns="http://www.w3.org/2000/svg" width="32" height="32" viewBox="0 0 32 32">
<title>bag-cross-1</title>
<path d="M17.854 24.147c-0.253 0-0.507-0.093-0.707-0.293l-3.68-3.68c-0.387-0.387-0.387-1.027 0-1.413s1.027-0.387 1.413 0l3.68 3.68c0.387 0.387 0.387 1.027 0 1.413-0.187 0.2-0.44 0.293-0.707 0.293z"></path>
<path d="M14.148 24.187c-0.253 0-0.507-0.093-0.707-0.293-0.387-0.387-0.387-1.027 0-1.413l3.68-3.68c0.387-0.387 1.027-0.387 1.413 0s0.387 1.027 0 1.413l-3.68 3.68c-0.2 0.2-0.453 0.293-0.707 0.293z"></path>
<path d="M6.921 8.507c-0.253 0-0.52-0.107-0.707-0.293-0.387-0.387-0.387-1.027 0-1.413l4.84-4.84c0.387-0.387 1.027-0.387 1.413 0s0.387 1.027 0 1.413l-4.84 4.84c-0.2 0.187-0.453 0.293-0.707 0.293z"></path>
<path d="M25.079 8.507c-0.253 0-0.507-0.093-0.707-0.293l-4.84-4.84c-0.387-0.387-0.387-1.027 0-1.413s1.027-0.387 1.413 0l4.84 4.84c0.387 0.387 0.387 1.027 0 1.413-0.187 0.187-0.453 0.293-0.707 0.293z"></path>
<path d="M26.947 14.133c-0.093 0-0.187 0-0.28 0h-21.333c-0.933 0.013-2 0.013-2.773-0.76-0.613-0.6-0.893-1.533-0.893-2.907 0-3.667 2.68-3.667 3.96-3.667h20.747c1.28 0 3.96 0 3.96 3.667 0 1.387-0.28 2.307-0.893 2.907-0.693 0.693-1.627 0.76-2.493 0.76zM5.627 12.133h21.053c0.6 0.013 1.16 0.013 1.347-0.173 0.093-0.093 0.293-0.413 0.293-1.493 0-1.507-0.373-1.667-1.96-1.667h-20.733c-1.587 0-1.96 0.16-1.96 1.667 0 1.080 0.213 1.4 0.293 1.493 0.187 0.173 0.76 0.173 1.347 0.173h0.32z"></path>
<path d="M19.854 30.333h-8.040c-4.773 0-5.84-2.84-6.253-5.307l-1.88-11.533c-0.093-0.547 0.28-1.053 0.827-1.147s1.053 0.28 1.147 0.827l1.88 11.52c0.387 2.36 1.187 3.64 4.28 3.64h8.040c3.427 0 3.813-1.2 4.253-3.52l2.24-11.667c0.107-0.547 0.627-0.907 1.173-0.787 0.547 0.107 0.893 0.627 0.787 1.173l-2.24 11.667c-0.52 2.707-1.387 5.133-6.213 5.133z"></path>
</svg>
