<!-- Generated by IcoMoon.io -->
<svg version="1.1" xmlns="http://www.w3.org/2000/svg" width="32" height="32" viewBox="0 0 32 32">
<title>bag-tick-2</title>
<path d="M16 26.333c-3.493 0-6.333-2.84-6.333-6.333s2.84-6.333 6.333-6.333c3.493 0 6.333 2.84 6.333 6.333s-2.84 6.333-6.333 6.333zM16 15.667c-2.387 0-4.333 1.947-4.333 4.333s1.947 4.333 4.333 4.333c2.387 0 4.333-1.947 4.333-4.333s-1.947-4.333-4.333-4.333z"></path>
<path d="M15.255 22.053c-0.427 0-0.853-0.16-1.173-0.493l-0.867-0.867c-0.387-0.387-0.387-1.027 0-1.413s1.027-0.387 1.413 0l0.64 0.64 2.147-1.973c0.4-0.373 1.040-0.347 1.413 0.053s0.347 1.040-0.053 1.413l-2.373 2.187c-0.333 0.307-0.747 0.453-1.147 0.453z"></path>
<path d="M20 30.333h-8c-6.16 0-7.307-2.867-7.6-5.653l-1-7.987c-0.147-1.44-0.2-3.507 1.2-5.053 1.2-1.333 3.187-1.973 6.067-1.973h10.667c2.893 0 4.88 0.653 6.067 1.973 1.387 1.547 1.347 3.613 1.2 5.027l-1 8.013c-0.293 2.787-1.44 5.653-7.6 5.653zM10.666 11.667c-2.253 0-3.8 0.44-4.587 1.32-0.653 0.72-0.867 1.827-0.693 3.48l1 7.987c0.227 2.133 0.813 3.893 5.613 3.893h8c4.8 0 5.387-1.747 5.613-3.867l1-8.013c0.173-1.627-0.040-2.733-0.693-3.467-0.787-0.893-2.333-1.333-4.587-1.333h-10.667z"></path>
<path d="M22 11.507c-0.547 0-1-0.453-1-1v-1.84c0-1.4-0.6-2.76-1.64-3.707-1.053-0.96-2.427-1.4-3.853-1.267-2.4 0.227-4.507 2.68-4.507 5.24v1.293c0 0.547-0.453 1-1 1s-1-0.453-1-1v-1.307c0-3.587 2.893-6.893 6.32-7.227 2-0.187 3.92 0.44 5.387 1.787 1.453 1.32 2.293 3.213 2.293 5.187v1.84c0 0.547-0.453 1-1 1z"></path>
</svg>
