<!-- Generated by IcoMoon.io -->
<svg version="1.1" xmlns="http://www.w3.org/2000/svg" width="32" height="32" viewBox="0 0 32 32">
<title>bank</title>
<path d="M28 15.667h-24c-1.28 0-2.333-1.053-2.333-2.333v-4.427c0-0.907 0.627-1.827 1.467-2.16l12-4.8c0.507-0.2 1.227-0.2 1.733 0l12 4.8c0.84 0.333 1.467 1.267 1.467 2.16v4.427c0 1.28-1.053 2.333-2.333 2.333zM16 3.787c-0.053 0-0.107-0-0.133 0.013l-11.987 4.8c-0.080 0.040-0.213 0.213-0.213 0.307v4.427c0 0.187 0.147 0.333 0.333 0.333h24c0.187 0 0.333-0.147 0.333-0.333v-4.427c0-0.093-0.12-0.267-0.213-0.307l-12-4.8c-0.027-0.013-0.067-0.013-0.12-0.013z"></path>
<path d="M29.333 30.333h-26.667c-0.547 0-1-0.453-1-1v-4c0-1.28 1.053-2.333 2.333-2.333h24c1.28 0 2.333 1.053 2.333 2.333v4c0 0.547-0.453 1-1 1zM3.667 28.333h24.667v-3c0-0.187-0.147-0.333-0.333-0.333h-24c-0.187 0-0.333 0.147-0.333 0.333v3z"></path>
<path d="M5.333 25c-0.547 0-1-0.453-1-1v-9.333c0-0.547 0.453-1 1-1s1 0.453 1 1v9.333c0 0.547-0.453 1-1 1z"></path>
<path d="M10.667 25c-0.547 0-1-0.453-1-1v-9.333c0-0.547 0.453-1 1-1s1 0.453 1 1v9.333c0 0.547-0.453 1-1 1z"></path>
<path d="M16 25c-0.547 0-1-0.453-1-1v-9.333c0-0.547 0.453-1 1-1s1 0.453 1 1v9.333c0 0.547-0.453 1-1 1z"></path>
<path d="M21.333 25c-0.547 0-1-0.453-1-1v-9.333c0-0.547 0.453-1 1-1s1 0.453 1 1v9.333c0 0.547-0.453 1-1 1z"></path>
<path d="M26.667 25c-0.547 0-1-0.453-1-1v-9.333c0-0.547 0.453-1 1-1s1 0.453 1 1v9.333c0 0.547-0.453 1-1 1z"></path>
<path d="M30.667 30.333h-29.333c-0.547 0-1-0.453-1-1s0.453-1 1-1h29.333c0.547 0 1 0.453 1 1s-0.453 1-1 1z"></path>
<path d="M16 12.333c-1.653 0-3-1.347-3-3s1.347-3 3-3c1.653 0 3 1.347 3 3s-1.347 3-3 3zM16 8.333c-0.547 0-1 0.453-1 1s0.453 1 1 1c0.547 0 1-0.453 1-1s-0.453-1-1-1z"></path>
</svg>
