<!-- Generated by IcoMoon.io -->
<svg version="1.1" xmlns="http://www.w3.org/2000/svg" width="32" height="32" viewBox="0 0 32 32">
<title>battery-charging</title>
<path d="M27.333 20.333c-0.547 0-1-0.453-1-1s0.453-1 1-1c0.787 0 0.96-0.12 0.973-0.12 0.027-0.080 0.027-0.547 0.027-0.88v-2.667c0-0.333 0-0.787-0.053-0.907-0.013 0.013-0.213-0.093-0.947-0.093-0.547 0-1-0.453-1-1s0.453-1 1-1c2.773 0 3 1.36 3 3v2.667c0 1.64-0.227 3-3 3z"></path>
<path d="M13.335 22.333c-0.227 0-0.467-0.080-0.653-0.24-0.413-0.36-0.467-0.987-0.107-1.413l2.773-3.24c0.040-0.12 0-0.227-0.027-0.28-0.040-0.067-0.12-0.16-0.293-0.16h-3.067c-0.84 0-1.6-0.44-2.027-1.16s-0.427-1.6 0-2.333l2.6-3.44c0.333-0.44 0.96-0.533 1.4-0.2s0.533 0.96 0.2 1.4l-2.52 3.333c-0.013 0.040 0.040 0.16 0.067 0.227 0.040 0.067 0.12 0.16 0.293 0.16h3.067c0.84 0 1.6 0.44 2.027 1.16s0.427 1.6 0 2.333c-0.027 0.053-0.067 0.107-0.107 0.147l-2.853 3.333c-0.213 0.253-0.493 0.373-0.773 0.373z"></path>
<path d="M9.333 26.333c-5.88 0-7.667-1.787-7.667-7.667v-5.333c0-5.88 1.787-7.667 7.667-7.667 0.547 0 1 0.453 1 1s-0.453 1-1 1c-4.76 0-5.667 0.907-5.667 5.667v5.333c0 4.76 0.907 5.667 5.667 5.667 0.547 0 1 0.453 1 1s-0.453 1-1 1z"></path>
<path d="M17.333 26.333c-0.547 0-1-0.453-1-1s0.453-1 1-1c4.76 0 5.667-0.907 5.667-5.667v-5.333c0-4.76-0.907-5.667-5.667-5.667-0.547 0-1-0.453-1-1s0.453-1 1-1c5.88 0 7.667 1.787 7.667 7.667v5.333c0 5.88-1.787 7.667-7.667 7.667z"></path>
</svg>
