<!-- Generated by IcoMoon.io -->
<svg version="1.1" xmlns="http://www.w3.org/2000/svg" width="32" height="32" viewBox="0 0 32 32">
<title>battery-disable</title>
<path d="M27.333 20.333c-0.547 0-1-0.453-1-1s0.453-1 1-1c0.787 0 0.96-0.12 0.973-0.12 0.027-0.080 0.027-0.547 0.027-0.88v-2.667c0-0.333 0-0.787-0.053-0.907-0.013 0.013-0.213-0.093-0.947-0.093-0.547 0-1-0.453-1-1s0.453-1 1-1c2.773 0 3 1.36 3 3v2.667c0 1.64-0.227 3-3 3z"></path>
<path d="M5.335 29.667c-0.187 0-0.373-0.053-0.533-0.16-0.467-0.293-0.613-0.907-0.307-1.373l16-25.333c0.293-0.467 0.92-0.6 1.373-0.307 0.467 0.293 0.613 0.907 0.307 1.373l-16 25.333c-0.187 0.307-0.507 0.467-0.84 0.467z"></path>
<path d="M7.187 26.227c-0.040 0-0.080 0-0.107 0-4.533-0.507-5.413-3.147-5.413-7.56v-5.333c0-5.88 1.787-7.667 7.667-7.667 0.547 0 1 0.453 1 1s-0.453 1-1 1c-4.76 0-5.667 0.907-5.667 5.667v5.333c0 4.427 0.907 5.267 3.627 5.573 0.547 0.067 0.947 0.56 0.88 1.107-0.053 0.507-0.493 0.88-0.987 0.88z"></path>
<path d="M17.333 26.333c-0.547 0-1-0.453-1-1s0.453-1 1-1c4.76 0 5.667-0.907 5.667-5.667v-5.333c0-4.413-0.907-5.267-3.613-5.573-0.547-0.067-0.947-0.56-0.88-1.107s0.547-0.96 1.107-0.88c4.507 0.507 5.387 3.16 5.387 7.56v5.333c0 5.88-1.787 7.667-7.667 7.667z"></path>
</svg>
