<!-- Generated by IcoMoon.io -->
<svg version="1.1" xmlns="http://www.w3.org/2000/svg" width="32" height="32" viewBox="0 0 32 32">
<title>battery-empty-1</title>
<path d="M17.333 26.333h-8c-5.88 0-7.667-1.787-7.667-7.667v-5.333c0-5.88 1.787-7.667 7.667-7.667h8c5.88 0 7.667 1.787 7.667 7.667v5.333c0 5.88-1.787 7.667-7.667 7.667zM9.333 7.667c-4.773 0-5.667 0.907-5.667 5.667v5.333c0 4.76 0.893 5.667 5.667 5.667h8c4.773 0 5.667-0.907 5.667-5.667v-5.333c0-4.76-0.893-5.667-5.667-5.667h-8z"></path>
<path d="M27.333 20.333c-0.547 0-1-0.453-1-1s0.453-1 1-1c0.787 0 0.96-0.12 0.973-0.12 0.027-0.080 0.027-0.547 0.027-0.88v-2.667c0-0.333 0-0.787-0.053-0.907-0.013 0.013-0.213-0.093-0.947-0.093-0.547 0-1-0.453-1-1s0.453-1 1-1c2.773 0 3 1.36 3 3v2.667c0 1.64-0.227 3-3 3z"></path>
<path d="M8.506 19.667c-0.080 0-0.16-0.013-0.24-0.027-0.533-0.133-0.867-0.68-0.733-1.213 0.4-1.587 0.4-3.267 0-4.853-0.133-0.533 0.187-1.080 0.733-1.213 0.52-0.133 1.067 0.2 1.2 0.733 0.48 1.907 0.48 3.92 0 5.813-0.107 0.453-0.52 0.76-0.96 0.76z"></path>
</svg>
