<!-- Generated by IcoMoon.io -->
<svg version="1.1" xmlns="http://www.w3.org/2000/svg" width="32" height="32" viewBox="0 0 32 32">
<title>bezier</title>
<path d="M4 13c-2.027 0-3.667-1.64-3.667-3.667s1.64-3.667 3.667-3.667c2.027 0 3.667 1.64 3.667 3.667s-1.64 3.667-3.667 3.667zM4 7.667c-0.92 0-1.667 0.747-1.667 1.667s0.747 1.667 1.667 1.667c0.92 0 1.667-0.747 1.667-1.667s-0.747-1.667-1.667-1.667z"></path>
<path d="M28 13c-2.027 0-3.667-1.64-3.667-3.667s1.64-3.667 3.667-3.667c2.027 0 3.667 1.64 3.667 3.667s-1.64 3.667-3.667 3.667zM28 7.667c-0.92 0-1.667 0.747-1.667 1.667s0.747 1.667 1.667 1.667c0.92 0 1.667-0.747 1.667-1.667s-0.747-1.667-1.667-1.667z"></path>
<path d="M25.333 10.333h-5.333c-0.547 0-1-0.453-1-1s0.453-1 1-1h5.333c0.547 0 1 0.453 1 1s-0.453 1-1 1z"></path>
<path d="M12 10.333h-5.333c-0.547 0-1-0.453-1-1s0.453-1 1-1h5.333c0.547 0 1 0.453 1 1s-0.453 1-1 1z"></path>
<path d="M8 27.667h-2.667c-1.653 0-3-1.347-3-3v-2.667c0-1.653 1.347-3 3-3h2.667c1.653 0 3 1.347 3 3v2.667c0 1.2-0.707 2.267-1.8 2.733-0.36 0.173-0.773 0.267-1.2 0.267zM5.333 21c-0.547 0-1 0.453-1 1v2.667c0 0.547 0.453 1 1 1h2.667c0.133 0 0.253-0.027 0.387-0.093 0.387-0.16 0.613-0.52 0.613-0.907v-2.667c0-0.547-0.453-1-1-1h-2.667z"></path>
<path d="M26.667 27.667h-2.667c-0.427 0-0.84-0.093-1.24-0.28-1.053-0.44-1.76-1.52-1.76-2.72v-2.667c0-1.653 1.347-3 3-3h2.667c1.653 0 3 1.347 3 3v2.667c0 1.653-1.347 3-3 3zM24 21c-0.547 0-1 0.453-1 1v2.667c0 0.387 0.227 0.747 0.573 0.893 0.173 0.080 0.293 0.107 0.427 0.107h2.667c0.547 0 1-0.453 1-1v-2.667c0-0.547-0.453-1-1-1h-2.667z"></path>
<path d="M18 14.333h-4c-1.653 0-3-1.347-3-3v-4c0-1.653 1.347-3 3-3h4c1.653 0 3 1.347 3 3v4c0 1.653-1.347 3-3 3zM14 6.333c-0.547 0-1 0.453-1 1v4c0 0.547 0.453 1 1 1h4c0.547 0 1-0.453 1-1v-4c0-0.547-0.453-1-1-1h-4z"></path>
<path d="M25.294 21c-0.040 0-0.080 0-0.12 0-0.547-0.067-0.947-0.56-0.88-1.107 0.027-0.187 0.027-0.36 0.027-0.547 0-3.467-1.88-6.667-4.787-8.133-0.493-0.253-0.693-0.853-0.44-1.347s0.853-0.693 1.347-0.44c3.573 1.813 5.88 5.707 5.88 9.92 0 0.267-0.013 0.52-0.053 0.787-0.040 0.493-0.467 0.867-0.973 0.867z"></path>
<path d="M6.707 21c-0.507 0-0.933-0.373-0.987-0.88-0.027-0.267-0.053-0.52-0.053-0.787 0-4.213 2.307-8.107 5.88-9.92 0.493-0.253 1.093-0.053 1.347 0.44s0.053 1.093-0.44 1.347c-2.907 1.467-4.787 4.667-4.787 8.133 0 0.187 0.013 0.36 0.027 0.547 0.067 0.547-0.333 1.040-0.88 1.107-0.027 0.013-0.067 0.013-0.107 0.013z"></path>
</svg>
