<!-- Generated by IcoMoon.io -->
<svg version="1.1" xmlns="http://www.w3.org/2000/svg" width="32" height="32" viewBox="0 0 32 32">
<title>bill</title>
<path d="M16 29.666c-1.093 0-2.187-0.347-3.093-1.027l-6.947-5.2c-1.293-0.973-2.067-2.52-2.067-4.133v-16.96h24.213v16.96c0 1.613-0.773 3.16-2.067 4.133l-6.947 5.2c-0.907 0.68-2 1.027-3.093 1.027zM5.893 4.333v14.96c0 0.987 0.48 1.933 1.267 2.533l6.947 5.2c1.12 0.84 2.68 0.84 3.8 0l6.947-5.2c0.787-0.6 1.267-1.547 1.267-2.533v-14.96h-20.227z"></path>
<path d="M29.333 4.333h-26.667c-0.547 0-1-0.453-1-1s0.453-1 1-1h26.667c0.547 0 1 0.453 1 1s-0.453 1-1 1z"></path>
<path d="M21.333 11.667h-10.667c-0.547 0-1-0.453-1-1s0.453-1 1-1h10.667c0.547 0 1 0.453 1 1s-0.453 1-1 1z"></path>
<path d="M21.333 18.333h-10.667c-0.547 0-1-0.453-1-1s0.453-1 1-1h10.667c0.547 0 1 0.453 1 1s-0.453 1-1 1z"></path>
</svg>
