<!-- Generated by IcoMoon.io -->
<svg version="1.1" xmlns="http://www.w3.org/2000/svg" width="32" height="32" viewBox="0 0 32 32">
<title>bitcoin-convert</title>
<path d="M21.334 31.627c-0.36 0-0.693-0.2-0.867-0.507s-0.173-0.693 0.013-1l1.4-2.333c0.28-0.48 0.893-0.627 1.373-0.347s0.627 0.893 0.347 1.373l-0.36 0.6c3.68-0.867 6.44-4.173 6.44-8.12 0-0.547 0.453-1 1-1s1 0.453 1 1c-0.013 5.693-4.653 10.333-10.347 10.333z"></path>
<path d="M1.333 11.627c-0.547 0-1-0.453-1-1 0-5.693 4.64-10.333 10.333-10.333 0.36 0 0.693 0.2 0.867 0.507s0.173 0.693-0.013 1l-1.4 2.333c-0.28 0.48-0.893 0.627-1.373 0.347s-0.627-0.893-0.347-1.373l0.36-0.6c-3.68 0.867-6.44 4.173-6.44 8.12 0.013 0.547-0.44 1-0.987 1z"></path>
<path d="M12.575 21.44h-3.747c-0.547 0-1-0.453-1-1v-3c0-0.547 0.453-1 1-1h3.747c1.333 0 2.507 1.173 2.507 2.507 0 1.36-1.133 2.493-2.507 2.493zM9.828 19.44h2.747c0.28 0 0.507-0.227 0.507-0.507 0-0.2-0.227-0.507-0.507-0.507h-2.747v1.013z"></path>
<path d="M13.106 24.44h-4.293c-0.547 0-1-0.453-1-1v-3c0-0.547 0.453-1 1-1h4.293c1.493 0 2.72 1.12 2.72 2.507s-1.213 2.493-2.72 2.493zM9.826 22.44h3.293c0.427 0 0.72-0.267 0.72-0.507s-0.293-0.507-0.72-0.507h-3.293v1.013z"></path>
<path d="M11.227 25.933c-0.547 0-1-0.453-1-1v-1.507c0-0.547 0.453-1 1-1s1 0.453 1 1v1.507c0 0.56-0.453 1-1 1z"></path>
<path d="M11.227 18.427c-0.547 0-1-0.453-1-1v-1.507c0-0.547 0.453-1 1-1s1 0.453 1 1v1.507c0 0.56-0.453 1-1 1z"></path>
<path d="M11.56 29.667c-5.093 0-9.227-4.147-9.227-9.227s4.147-9.227 9.227-9.227c0.24 0 0.453 0.013 0.693 0.027 4.52 0.347 8.173 4 8.507 8.493 0.013 0.293 0.027 0.493 0.027 0.707 0.013 5.080-4.133 9.227-9.227 9.227zM11.56 13.2c-3.987 0-7.227 3.24-7.227 7.227s3.24 7.227 7.227 7.227c3.987 0 7.24-3.24 7.24-7.227 0-0.173-0.013-0.347-0.027-0.52-0.267-3.573-3.133-6.427-6.653-6.693-0.173 0-0.36-0.013-0.56-0.013z"></path>
<path d="M20.44 20.8h-0.653c-0.52 0-0.96-0.4-1-0.92-0.267-3.533-3.12-6.387-6.653-6.653-0.52-0.040-0.92-0.48-0.92-1v-0.653c0-5.093 4.147-9.227 9.24-9.227s9.227 4.147 9.227 9.227c0 5.080-4.16 9.227-9.24 9.227zM13.2 11.347c3.76 0.68 6.773 3.68 7.453 7.453 3.893-0.12 7.013-3.32 7.013-7.227 0-3.987-3.24-7.227-7.227-7.227-3.92-0.013-7.12 3.107-7.24 7z"></path>
</svg>
