<!-- Generated by IcoMoon.io -->
<svg version="1.1" xmlns="http://www.w3.org/2000/svg" width="32" height="32" viewBox="0 0 32 32">
<title>bitcoin-card</title>
<path d="M17.333 12.333h-14.667c-0.547 0-1-0.453-1-1s0.453-1 1-1h14.667c0.547 0 1 0.453 1 1s-0.453 1-1 1z"></path>
<path d="M10.667 23h-2.667c-0.547 0-1-0.453-1-1s0.453-1 1-1h2.667c0.547 0 1 0.453 1 1s-0.453 1-1 1z"></path>
<path d="M19.333 23h-5.333c-0.547 0-1-0.453-1-1s0.453-1 1-1h5.333c0.547 0 1 0.453 1 1s-0.453 1-1 1z"></path>
<path d="M23.413 28.333h-14.827c-5.307 0-6.92-1.6-6.92-6.853v-10.96c0-5.253 1.613-6.853 6.92-6.853h9.12c0.547 0 1 0.453 1 1s-0.453 1-1 1h-9.12c-4.187 0-4.92 0.72-4.92 4.853v10.96c0 4.133 0.733 4.853 4.92 4.853h14.827c4.187 0 4.92-0.72 4.92-4.853v-6.373c0-0.547 0.453-1 1-1s1 0.453 1 1v6.373c0 5.253-1.613 6.853-6.92 6.853z"></path>
<path d="M26.827 8.667h-4.16c-0.547 0-1-0.453-1-1v-3.333c0-0.547 0.453-1 1-1h4.173c1.427 0 2.667 1.24 2.667 2.667-0.013 1.467-1.2 2.667-2.68 2.667zM23.667 6.667h3.173c0.373 0 0.667-0.293 0.667-0.667 0-0.293-0.32-0.667-0.667-0.667h-3.173v1.333z"></path>
<path d="M27.427 12h-4.76c-0.547 0-1-0.453-1-1v-3.333c0-0.547 0.453-1 1-1h4.76c1.6 0 2.907 1.2 2.907 2.667s-1.307 2.667-2.907 2.667zM23.667 10h3.76c0.493 0 0.907-0.307 0.907-0.667s-0.413-0.667-0.907-0.667h-3.76v1.333z"></path>
<path d="M25.013 13.667c-0.547 0-1-0.453-1-1v-1.667c0-0.547 0.453-1 1-1s1 0.453 1 1v1.667c0 0.56-0.44 1-1 1z"></path>
<path d="M25.013 5.333c-0.547 0-1-0.453-1-1v-1.667c0-0.547 0.453-1 1-1s1 0.453 1 1v1.667c0 0.547-0.44 1-1 1z"></path>
<path d="M24.253 5.333h-2.92c-0.547 0-1-0.453-1-1s0.453-1 1-1h2.92c0.547 0 1 0.453 1 1s-0.453 1-1 1z"></path>
<path d="M24.253 12h-2.92c-0.547 0-1-0.453-1-1s0.453-1 1-1h2.92c0.547 0 1 0.453 1 1s-0.453 1-1 1z"></path>
</svg>
