<!-- Generated by IcoMoon.io -->
<svg version="1.1" xmlns="http://www.w3.org/2000/svg" width="32" height="32" viewBox="0 0 32 32">
<title>bitcoin-refresh</title>
<path d="M5.96 16.227c-0.253 0-0.507-0.093-0.707-0.293l-1.613-1.613-1.613 1.613c-0.387 0.387-1.027 0.387-1.413 0s-0.387-1.027 0-1.413l2.32-2.32c0.387-0.387 1.027-0.387 1.413 0l2.32 2.32c0.387 0.387 0.387 1.027 0 1.413-0.187 0.2-0.453 0.293-0.707 0.293z"></path>
<path d="M28.348 20.093c-0.253 0-0.507-0.093-0.707-0.293l-2.32-2.32c-0.387-0.387-0.387-1.027 0-1.413s1.027-0.387 1.413 0l1.613 1.613 1.613-1.613c0.387-0.387 1.027-0.387 1.413 0s0.387 1.027 0 1.413l-2.32 2.32c-0.187 0.187-0.453 0.293-0.707 0.293z"></path>
<path d="M28.347 20.093c-0.547 0-1-0.453-1-1v-3.093c0-6.253-5.093-11.347-11.347-11.347-3.453 0-6.68 1.547-8.853 4.253-0.347 0.427-0.973 0.493-1.4 0.16-0.427-0.347-0.507-0.973-0.16-1.4 2.547-3.187 6.347-5 10.413-5 7.36 0 13.347 5.987 13.347 13.347v3.093c0 0.533-0.44 0.987-1 0.987z"></path>
<path d="M16 29.347c-7.36 0-13.347-5.987-13.347-13.347v-3.093c0-0.547 0.453-1 1-1s1 0.453 1 1v3.093c0 6.253 5.093 11.347 11.347 11.347 3.453 0 6.68-1.547 8.853-4.253 0.347-0.427 0.973-0.507 1.4-0.16s0.507 0.973 0.16 1.4c-2.547 3.187-6.347 5.013-10.413 5.013z"></path>
<path d="M17.84 17h-5.84c-0.547 0-1-0.453-1-1v-4.667c0-0.547 0.453-1 1-1h5.84c1.773 0 3.333 1.56 3.333 3.333 0 1.84-1.507 3.333-3.333 3.333zM13 15h4.827c0.733 0 1.333-0.6 1.333-1.333 0-0.6-0.6-1.333-1.333-1.333h-4.827v2.667z"></path>
<path d="M18.667 21.667h-6.667c-0.547 0-1-0.453-1-1v-4.667c0-0.547 0.453-1 1-1h6.667c2.027 0 3.667 1.493 3.667 3.333s-1.64 3.333-3.667 3.333zM13 19.667h5.667c0.92 0 1.667-0.6 1.667-1.333s-0.747-1.333-1.667-1.333h-5.667v2.667z"></path>
<path d="M15.734 24c-0.547 0-1-0.453-1-1v-2.333c0-0.547 0.453-1 1-1s1 0.453 1 1v2.333c0 0.547-0.453 1-1 1z"></path>
<path d="M15.734 12.333c-0.547 0-1-0.453-1-1v-2.333c0-0.547 0.453-1 1-1s1 0.453 1 1v2.333c0 0.547-0.453 1-1 1z"></path>
</svg>
