<!-- Generated by IcoMoon.io -->
<svg version="1.1" xmlns="http://www.w3.org/2000/svg" width="32" height="32" viewBox="0 0 32 32">
<title>blend-2</title>
<path d="M11.961 22.333c-0.52 0-0.973-0.040-1.4-0.107-5.067-0.667-8.933-5.067-8.933-10.227 0-5.693 4.64-10.333 10.333-10.333 5.16 0 9.56 3.853 10.227 8.96 0.067 0.4 0.107 0.853 0.107 1.373 0 5.693-4.627 10.333-10.333 10.333zM11.961 3.667c-4.6 0-8.333 3.733-8.333 8.333 0 4.16 3.107 7.707 7.227 8.253 0.347 0.053 0.707 0.080 1.107 0.080 4.6 0 8.333-3.733 8.333-8.333 0-0.4-0.027-0.76-0.080-1.080-0.547-4.147-4.080-7.253-8.253-7.253z"></path>
<path d="M19.959 30.334c-5.16 0-9.56-3.853-10.227-8.96-0.040-0.32 0.067-0.627 0.293-0.853s0.56-0.32 0.867-0.267c0.32 0.053 0.667 0.080 1.067 0.080 4.6 0 8.333-3.733 8.333-8.333 0-0.4-0.027-0.76-0.080-1.080-0.053-0.307 0.053-0.627 0.267-0.853s0.52-0.347 0.853-0.293c5.107 0.667 8.96 5.067 8.96 10.227 0 5.693-4.627 10.333-10.333 10.333zM11.972 22.334c1.013 3.493 4.253 6 7.987 6 4.6 0 8.333-3.733 8.333-8.333 0-3.733-2.507-6.987-6-7.987 0 5.68-4.627 10.32-10.32 10.32z"></path>
<path d="M20.573 21.546c-0.253 0-0.507-0.093-0.707-0.28l-1.733-1.707c-0.387-0.387-0.4-1.027-0.013-1.413s1.013-0.4 1.413-0.013l1.733 1.707c0.387 0.387 0.4 1.027 0.013 1.413-0.187 0.187-0.453 0.293-0.707 0.293z"></path>
<path d="M22.627 17c-0.253 0-0.507-0.093-0.707-0.293l-1.333-1.333c-0.387-0.387-0.387-1.027 0-1.413s1.027-0.387 1.413 0l1.333 1.333c0.387 0.387 0.387 1.027 0 1.413-0.187 0.2-0.44 0.293-0.707 0.293z"></path>
<path d="M15.96 23.667c-0.253 0-0.507-0.093-0.707-0.293l-1.333-1.333c-0.387-0.387-0.387-1.027 0-1.413s1.027-0.387 1.413 0l1.333 1.333c0.387 0.387 0.387 1.027 0 1.413-0.187 0.2-0.44 0.293-0.707 0.293z"></path>
</svg>
