<!-- Generated by IcoMoon.io -->
<svg version="1.1" xmlns="http://www.w3.org/2000/svg" width="32" height="32" viewBox="0 0 32 32">
<title>blend</title>
<path d="M21.294 25c-2.227 0-4.36-0.827-6-2.307-0.213-0.187-0.333-0.467-0.333-0.747s0.12-0.56 0.333-0.747c1.48-1.307 2.333-3.2 2.333-5.2s-0.853-3.893-2.333-5.2c-0.213-0.187-0.333-0.453-0.333-0.747 0-0.28 0.12-0.56 0.333-0.747 1.653-1.493 3.773-2.307 6-2.307 4.96 0 9 4.040 9 9s-4.027 9-9 9zM17.468 21.853c1.133 0.747 2.453 1.147 3.84 1.147 3.853 0 7-3.147 7-7s-3.147-7-7-7c-1.373 0-2.707 0.4-3.84 1.147 1.387 1.613 2.173 3.68 2.173 5.853s-0.787 4.24-2.173 5.853z"></path>
<path d="M10.628 25c-4.96 0-9-4.040-9-9s4.040-9 9-9c2.227 0 4.36 0.827 6 2.307 1.893 1.68 3 4.12 3 6.693s-1.093 5-3 6.693c-1.64 1.48-3.773 2.307-6 2.307zM10.628 9c-3.853 0-7 3.147-7 7s3.147 7 7 7c1.733 0 3.387-0.64 4.667-1.8 1.493-1.32 2.333-3.213 2.333-5.2s-0.853-3.893-2.333-5.2c-1.28-1.16-2.933-1.8-4.667-1.8z"></path>
</svg>
