<!-- Generated by IcoMoon.io -->
<svg version="1.1" xmlns="http://www.w3.org/2000/svg" width="32" height="32" viewBox="0 0 32 32">
<title>bluetooth-rectangle</title>
<path d="M16.8 24.147c-0.293 0-0.52-0.080-0.653-0.133-0.293-0.133-0.96-0.573-0.96-1.787v-3.56l-3.067 2.813c-0.4 0.373-1.040 0.347-1.413-0.067s-0.347-1.040 0.067-1.413l4.373-4.013-4.373-4.013c-0.413-0.373-0.44-1-0.067-1.413 0.373-0.4 1.013-0.44 1.413-0.067l3.067 2.813v-3.547c0-1.2 0.667-1.64 0.96-1.787 0.28-0.133 1.053-0.36 1.987 0.4l2.747 2.293c0.4 0.333 0.64 0.827 0.653 1.333s-0.2 1.013-0.587 1.36l-2.84 2.6 2.84 2.6c0.387 0.36 0.6 0.853 0.587 1.36s-0.253 1-0.653 1.333l-2.747 2.293c-0.507 0.48-0.973 0.6-1.333 0.6zM17.2 17.88v3.893l2.227-1.853-2.227-2.040zM17.2 10.227v3.893l2.227-2.040-2.227-1.853z"></path>
<path d="M20 30.333h-8c-4.587 0-7.667-3.080-7.667-7.667v-13.333c0-4.587 3.080-7.667 7.667-7.667h8c4.587 0 7.667 3.080 7.667 7.667v13.333c0 4.587-3.080 7.667-7.667 7.667zM12 3.667c-3.44 0-5.667 2.227-5.667 5.667v13.333c0 3.44 2.227 5.667 5.667 5.667h8c3.44 0 5.667-2.227 5.667-5.667v-13.333c0-3.44-2.227-5.667-5.667-5.667h-8z"></path>
</svg>
