<!-- Generated by IcoMoon.io -->
<svg version="1.1" xmlns="http://www.w3.org/2000/svg" width="32" height="32" viewBox="0 0 32 32">
<title>bluetooth</title>
<path d="M17.507 30.333c-0.36 0-0.64-0.093-0.84-0.187-0.48-0.227-1.293-0.853-1.293-2.533v-8.6l-7.187 6.587c-0.4 0.373-1.040 0.347-1.413-0.067s-0.347-1.040 0.067-1.413l8.533-7.827v-0.6l-8.533-7.827c-0.413-0.373-0.44-1-0.067-1.413 0.373-0.4 1.013-0.44 1.413-0.067l7.187 6.587v-8.6c0-1.68 0.813-2.32 1.293-2.533 0.48-0.227 1.48-0.44 2.773 0.64l5.133 4.28c0.56 0.467 0.893 1.133 0.907 1.84s-0.28 1.387-0.827 1.88l-6 5.507 6 5.507c0.533 0.493 0.84 1.187 0.827 1.88-0.013 0.707-0.347 1.373-0.907 1.84l-5.133 4.28c-0.76 0.653-1.427 0.84-1.933 0.84zM17.373 17.533v10.080c0 0.493 0.107 0.707 0.16 0.733 0.013-0.013 0.253-0.067 0.627-0.373l5.133-4.28c0.12-0.107 0.187-0.227 0.187-0.36s-0.053-0.253-0.173-0.36l-5.933-5.44zM17.493 3.667c-0.013 0.013-0.12 0.24-0.12 0.72v10.080l5.933-5.44c0.12-0.107 0.173-0.227 0.173-0.36s-0.067-0.253-0.187-0.36l-5.147-4.28c-0.347-0.293-0.573-0.36-0.653-0.36z"></path>
</svg>
