<!-- Generated by IcoMoon.io -->
<svg version="1.1" xmlns="http://www.w3.org/2000/svg" width="32" height="32" viewBox="0 0 32 32">
<title>blur</title>
<path d="M16.001 30.333c-6.507 0-11.8-5.293-11.8-11.8-0.040-7.64 7.24-14 10.373-16.387 0.84-0.64 2.013-0.64 2.853 0 3.133 2.427 10.413 8.867 10.373 16.4 0 6.493-5.293 11.787-11.8 11.787zM16.001 3.667c-0.067 0-0.147 0.027-0.213 0.080-2.253 1.72-9.613 7.867-9.573 14.787 0 5.413 4.4 9.8 9.8 9.8s9.8-4.387 9.8-9.787c0.040-6.827-7.333-13.053-9.6-14.8-0.080-0.053-0.147-0.080-0.213-0.080z"></path>
<path d="M16 30.333c-0.547 0-1-0.453-1-1v-26.667c0-0.547 0.453-1 1-1s1 0.453 1 1v26.667c0 0.547-0.453 1-1 1z"></path>
<path d="M16 26.28c-0.373 0-0.733-0.213-0.907-0.56-0.24-0.493-0.040-1.093 0.467-1.333l10.267-4.987c0.493-0.24 1.093-0.027 1.333 0.467s0.040 1.093-0.467 1.333l-10.267 4.987c-0.133 0.053-0.28 0.093-0.427 0.093z"></path>
<path d="M16 19.613c-0.373 0-0.733-0.213-0.907-0.56-0.24-0.493-0.040-1.093 0.467-1.333l9.827-4.773c0.493-0.24 1.093-0.040 1.333 0.467s0.040 1.093-0.467 1.333l-9.827 4.773c-0.133 0.053-0.28 0.093-0.427 0.093z"></path>
<path d="M16 12.947c-0.373 0-0.733-0.213-0.907-0.56-0.24-0.493-0.040-1.093 0.467-1.333l6.707-3.253c0.493-0.24 1.093-0.027 1.333 0.467s0.040 1.093-0.467 1.333l-6.707 3.253c-0.133 0.053-0.28 0.093-0.427 0.093z"></path>
</svg>
