<!-- Generated by IcoMoon.io -->
<svg version="1.1" xmlns="http://www.w3.org/2000/svg" width="32" height="32" viewBox="0 0 32 32">
<title>book</title>
<path d="M4.667 25c-0.547 0-1-0.453-1-1v-14.667c0-5.88 1.787-7.667 7.667-7.667h9.333c5.88 0 7.667 1.787 7.667 7.667v13.333c0 0.213 0 0.413-0.013 0.627-0.040 0.547-0.533 0.973-1.067 0.933-0.547-0.040-0.973-0.52-0.933-1.067 0.013-0.16 0.013-0.333 0.013-0.493v-13.333c0-4.76-0.893-5.667-5.667-5.667h-9.333c-4.773 0-5.667 0.907-5.667 5.667v14.667c0 0.547-0.453 1-1 1z"></path>
<path d="M22.667 30.333h-13.333c-3.12 0-5.667-2.547-5.667-5.667v-0.867c0-2.653 2.16-4.8 4.8-4.8h18.867c0.547 0 1 0.453 1 1v4.667c0 3.12-2.547 5.667-5.667 5.667zM8.467 21c-1.547 0-2.8 1.253-2.8 2.8v0.867c0 2.027 1.64 3.667 3.667 3.667h13.333c2.027 0 3.667-1.64 3.667-3.667v-3.667h-17.867z"></path>
<path d="M21.333 10.333h-10.667c-0.547 0-1-0.453-1-1s0.453-1 1-1h10.667c0.547 0 1 0.453 1 1s-0.453 1-1 1z"></path>
<path d="M17.333 15h-6.667c-0.547 0-1-0.453-1-1s0.453-1 1-1h6.667c0.547 0 1 0.453 1 1s-0.453 1-1 1z"></path>
</svg>
