<!-- Generated by IcoMoon.io -->
<svg version="1.1" xmlns="http://www.w3.org/2000/svg" width="32" height="32" viewBox="0 0 32 32">
<title>book-saved</title>
<path d="M16 29.44c-0.4 0-0.8-0.093-1.133-0.28-2.493-1.36-6.867-2.8-9.613-3.16l-0.387-0.053c-1.747-0.213-3.187-1.853-3.187-3.627v-16.107c0-1.053 0.413-2.013 1.173-2.707s1.747-1.027 2.787-0.933c2.92 0.24 7.347 1.707 9.853 3.267l0.32 0.187c0.093 0.040 0.293 0.053 0.373 0l0.213-0.133c0.893-0.56 2.013-1.107 3.24-1.6 0.307-0.12 0.653-0.080 0.933 0.107s0.44 0.493 0.44 0.827v3.573l1.107-0.733c0.333-0.227 0.773-0.227 1.107 0l1.107 0.733v-5.093c0-0.48 0.347-0.893 0.813-0.987 0.387-0.067 0.773-0.12 1.12-0.147 0.027 0 0.133 0 0.16 0 0.973-0.080 1.973 0.253 2.72 0.947 0.76 0.693 1.173 1.653 1.173 2.707v16.093c0 1.787-1.44 3.413-3.2 3.627l-0.44 0.053c-2.747 0.36-7.147 1.813-9.587 3.16-0.293 0.187-0.693 0.28-1.093 0.28zM5.306 4.547c-0.427 0-0.813 0.147-1.12 0.427-0.333 0.307-0.52 0.747-0.52 1.24v16.107c0 0.787 0.68 1.547 1.44 1.653l0.4 0.053c3 0.4 7.6 1.907 10.267 3.373 0.12 0.053 0.293 0.067 0.36 0.040 2.68-1.48 7.293-3 10.307-3.4l0.453-0.053c0.76-0.093 1.44-0.867 1.44-1.653v-16.093c0-0.493-0.187-0.92-0.52-1.24-0.333-0.307-0.8-0.453-1.28-0.427-0.040 0-0.16 0-0.187 0v6.093c0 0.373-0.2 0.707-0.533 0.88s-0.72 0.16-1.027-0.053l-2.107-1.4-2.107 1.4c-0.307 0.2-0.693 0.227-1.027 0.053-0.32-0.173-0.533-0.507-0.533-0.88v-3.907c-0.573 0.28-1.093 0.56-1.547 0.827l-0.213 0.133c-0.733 0.453-1.773 0.453-2.48 0.013l-0.32-0.2c-2.253-1.413-6.36-2.773-8.973-2.987-0.067 0-0.12 0-0.173 0z"></path>
<path d="M16 28.32c-0.547 0-1-0.453-1-1v-20c0-0.547 0.453-1 1-1s1 0.453 1 1v20c0 0.56-0.453 1-1 1z"></path>
<path d="M25.333 11.667c-0.2 0-0.387-0.053-0.56-0.173l-2.107-1.4-2.107 1.4c-0.307 0.2-0.693 0.227-1.027 0.053-0.32-0.173-0.533-0.507-0.533-0.88v-5.44c0-0.413 0.253-0.773 0.627-0.933 1.84-0.733 3.853-1.307 5.547-1.573 0.293-0.053 0.587 0.040 0.813 0.227s0.347 0.467 0.347 0.76v6.96c0 0.373-0.2 0.707-0.533 0.88-0.147 0.080-0.307 0.12-0.467 0.12zM22.667 7.893c0.187 0 0.387 0.053 0.56 0.173l1.107 0.733v-3.88c-1.067 0.24-2.227 0.587-3.333 1v2.88l1.107-0.733c0.173-0.12 0.373-0.173 0.56-0.173z"></path>
</svg>
