<!-- Generated by IcoMoon.io -->
<svg version="1.1" xmlns="http://www.w3.org/2000/svg" width="32" height="32" viewBox="0 0 32 32">
<title>bookmark-2</title>
<path d="M20.413 20.027c-0.773 0-1.613-0.253-2.453-0.773l-1.76-1.067c-0.080-0.053-0.32-0.053-0.4 0l-1.76 1.067c-1.44 0.88-2.853 1.013-3.987 0.373-1.107-0.627-1.72-1.88-1.72-3.52v-9.4c0-3.253 1.773-5.040 5-5.040h5.333c3.227 0 5 1.787 5 5.040v9.4c0 1.653-0.613 2.907-1.72 3.52-0.467 0.267-0.987 0.4-1.533 0.4zM16 16.147c0.44 0 0.88 0.107 1.24 0.32l1.76 1.067c0.787 0.48 1.507 0.6 1.96 0.347 0.44-0.253 0.693-0.907 0.693-1.787v-9.387c0-2.133-0.893-3.040-3-3.040h-5.333c-2.107 0-3 0.907-3 3.040v9.4c0 0.88 0.253 1.533 0.693 1.787 0.453 0.253 1.173 0.133 1.96-0.347l1.76-1.067c0.387-0.227 0.827-0.333 1.267-0.333z"></path>
<path d="M20 30.333h-8c-7.24 0-10.333-3.12-10.333-10.427v-4.040c0-6.213 2.24-9.36 7.253-10.2 0.533-0.093 1.053 0.28 1.147 0.827s-0.28 1.053-0.827 1.147c-4.013 0.667-5.587 2.973-5.587 8.227v4.040c0 6.147 2.253 8.427 8.333 8.427h8c6.080 0 8.333-2.28 8.333-8.427v-4.040c0-5.333-1.627-7.64-5.813-8.267-0.547-0.080-0.92-0.587-0.84-1.133s0.587-0.92 1.133-0.84c5.2 0.773 7.52 3.92 7.52 10.24v4.040c0.013 7.307-3.080 10.427-10.32 10.427z"></path>
</svg>
