<!-- Generated by IcoMoon.io -->
<svg version="1.1" xmlns="http://www.w3.org/2000/svg" width="32" height="32" viewBox="0 0 32 32">
<title>book-1</title>
<path d="M16 29.44c-0.4 0-0.8-0.093-1.133-0.28-2.493-1.36-6.88-2.8-9.627-3.16l-0.387-0.053c-1.747-0.213-3.187-1.853-3.187-3.627v-16.107c0-1.053 0.413-2.013 1.173-2.707s1.747-1.027 2.787-0.933c2.933 0.227 7.36 1.693 9.867 3.267l0.32 0.187c0.093 0.053 0.293 0.053 0.373 0.013l0.213-0.133c2.507-1.573 6.933-3.067 9.88-3.32 0.027 0 0.133 0 0.16 0 0.973-0.093 1.973 0.253 2.72 0.947 0.76 0.693 1.173 1.653 1.173 2.707v16.093c0 1.787-1.44 3.413-3.2 3.627l-0.44 0.053c-2.747 0.36-7.147 1.813-9.587 3.16-0.32 0.187-0.707 0.267-1.107 0.267zM5.307 4.56c-0.427 0-0.813 0.147-1.12 0.427-0.333 0.307-0.52 0.747-0.52 1.227v16.107c0 0.787 0.68 1.547 1.44 1.653l0.4 0.053c3 0.4 7.6 1.907 10.267 3.36 0.12 0.053 0.293 0.067 0.36 0.040 2.667-1.48 7.293-3 10.307-3.4l0.453-0.053c0.76-0.093 1.44-0.867 1.44-1.653v-16.093c0-0.493-0.187-0.92-0.52-1.24-0.347-0.307-0.787-0.453-1.28-0.427-0.027 0-0.133 0-0.16 0-2.547 0.227-6.653 1.6-8.893 3l-0.213 0.147c-0.733 0.453-1.773 0.453-2.48 0.013l-0.32-0.187c-2.28-1.4-6.387-2.76-9-2.973-0.053 0-0.107 0-0.16 0z"></path>
<path d="M16 28.32c-0.547 0-1-0.453-1-1v-20c0-0.547 0.453-1 1-1s1 0.453 1 1v20c0 0.56-0.453 1-1 1z"></path>
<path d="M10.333 12.32h-3c-0.547 0-1-0.453-1-1s0.453-1 1-1h3c0.547 0 1 0.453 1 1s-0.453 1-1 1z"></path>
<path d="M11.333 16.32h-4c-0.547 0-1-0.453-1-1s0.453-1 1-1h4c0.547 0 1 0.453 1 1s-0.453 1-1 1z"></path>
</svg>
