<!-- Generated by IcoMoon.io -->
<svg version="1.1" xmlns="http://www.w3.org/2000/svg" width="32" height="32" viewBox="0 0 32 32">
<title>bookmark</title>
<path d="M20 30.333h-8c-7.24 0-10.333-3.093-10.333-10.333v-8c0-7.24 3.093-10.333 10.333-10.333h8c7.24 0 10.333 3.093 10.333 10.333v8c0 7.24-3.093 10.333-10.333 10.333zM12 3.667c-6.147 0-8.333 2.187-8.333 8.333v8c0 6.147 2.187 8.333 8.333 8.333h8c6.147 0 8.333-2.187 8.333-8.333v-8c0-6.147-2.187-8.333-8.333-8.333h-8z"></path>
<path d="M11.573 20.44c-0.56 0-1.080-0.133-1.533-0.387-1.107-0.627-1.707-1.867-1.707-3.493v-13.307c0-0.547 0.453-1 1-1s1 0.453 1 1v13.307c0 0.867 0.253 1.507 0.693 1.747 0.467 0.267 1.187 0.133 1.973-0.333l1.76-1.053c0.72-0.427 1.747-0.427 2.467 0l1.76 1.053c0.8 0.48 1.52 0.6 1.973 0.333 0.44-0.253 0.693-0.893 0.693-1.747v-13.307c0-0.547 0.453-1 1-1s1 0.453 1 1v13.307c0 1.627-0.6 2.867-1.707 3.493s-2.56 0.493-3.987-0.36l-1.76-1.053c-0.080-0.053-0.333-0.053-0.413 0l-1.76 1.053c-0.827 0.493-1.68 0.747-2.453 0.747z"></path>
</svg>
