<!-- Generated by IcoMoon.io -->
<svg version="1.1" xmlns="http://www.w3.org/2000/svg" width="32" height="32" viewBox="0 0 32 32">
<title>book-square</title>
<path d="M20 30.333h-8c-7.24 0-10.333-3.093-10.333-10.333v-8c0-7.24 3.093-10.333 10.333-10.333h8c7.24 0 10.333 3.093 10.333 10.333v8c0 7.24-3.093 10.333-10.333 10.333zM12 3.667c-6.147 0-8.333 2.187-8.333 8.333v8c0 6.147 2.187 8.333 8.333 8.333h8c6.147 0 8.333-2.187 8.333-8.333v-8c0-6.147-2.187-8.333-8.333-8.333h-8z"></path>
<path d="M16 25.267c-0.32 0-0.64-0.080-0.907-0.227-1.547-0.84-4.28-1.747-6-1.973l-0.253-0.040c-1.307-0.16-2.347-1.333-2.347-2.68v-10.267c0-0.76 0.32-1.493 0.867-2 0.56-0.507 1.28-0.76 2.053-0.693 1.947 0.16 4.773 1.093 6.44 2.133l0.133 0.080 0.053-0.040c1.68-1.053 4.507-2 6.467-2.173 0.027 0 0.107 0 0.133 0 0.693-0.067 1.44 0.2 1.987 0.693 0.56 0.507 0.867 1.213 0.867 1.987v10.253c0 1.333-1.040 2.507-2.36 2.68l-0.28 0.040c-1.707 0.227-4.453 1.133-5.973 1.973-0.253 0.187-0.56 0.253-0.88 0.253zM9.187 9.4c-0.187 0-0.347 0.067-0.467 0.173-0.147 0.133-0.213 0.32-0.213 0.52v10.267c0 0.32 0.293 0.653 0.6 0.693l0.253 0.040c1.947 0.267 4.933 1.24 6.667 2.187 1.613-0.933 4.613-1.933 6.573-2.187l0.293-0.040c0.307-0.040 0.6-0.373 0.6-0.693v-10.253c0-0.213-0.080-0.387-0.213-0.52-0.147-0.133-0.333-0.187-0.547-0.173-0.027 0-0.107 0-0.133 0-1.547 0.133-4.093 0.987-5.48 1.867l-0.133 0.080c-0.587 0.36-1.413 0.36-1.973 0.013l-0.2-0.12c-1.4-0.88-3.947-1.72-5.56-1.853-0.027 0-0.040 0-0.067 0z"></path>
<path d="M16 24.547c-0.547 0-1-0.453-1-1v-12.747c0-0.547 0.453-1 1-1s1 0.453 1 1v12.747c0 0.56-0.453 1-1 1z"></path>
</svg>
