<!-- Generated by IcoMoon.io -->
<svg version="1.1" xmlns="http://www.w3.org/2000/svg" width="32" height="32" viewBox="0 0 32 32">
<title>box-time</title>
<path d="M15.999 17.733c-0.173 0-0.347-0.040-0.507-0.133l-11.773-6.813c-0.48-0.28-0.64-0.893-0.36-1.373s0.88-0.64 1.373-0.36l11.267 6.52 11.2-6.48c0.48-0.28 1.093-0.107 1.373 0.36 0.28 0.48 0.107 1.093-0.36 1.373l-11.693 6.773c-0.173 0.080-0.347 0.133-0.52 0.133z"></path>
<path d="M16 29.813c-0.547 0-1-0.453-1-1v-12.093c0-0.547 0.453-1 1-1s1 0.453 1 1v12.093c0 0.547-0.453 1-1 1z"></path>
<path d="M15.999 30.333c-1.173 0-2.347-0.253-3.253-0.773l-7.12-3.947c-1.933-1.067-3.453-3.64-3.453-5.853v-7.547c0-2.213 1.52-4.773 3.453-5.853l7.12-3.947c1.813-1.013 4.667-1.013 6.493 0l7.12 3.947c1.933 1.067 3.453 3.64 3.453 5.853v7.547c0 0.093 0 0.227-0.040 0.4-0.080 0.347-0.333 0.627-0.667 0.733s-0.707 0.040-0.973-0.2c-1.52-1.333-3.893-1.387-5.52-0.093-1.027 0.813-1.627 2.053-1.627 3.373 0 0.787 0.213 1.56 0.627 2.227 0.107 0.187 0.213 0.333 0.333 0.467 0.2 0.227 0.28 0.533 0.227 0.827s-0.24 0.56-0.507 0.693l-2.44 1.347c-0.893 0.547-2.053 0.8-3.227 0.8zM15.999 3.667c-0.827 0-1.667 0.173-2.267 0.507l-7.12 3.947c-1.293 0.72-2.413 2.627-2.413 4.093v7.547c0 1.467 1.133 3.387 2.413 4.093l7.12 3.947c1.213 0.68 3.333 0.68 4.547 0l1.493-0.827c-0.493-0.893-0.76-1.933-0.76-3 0-1.947 0.867-3.747 2.373-4.947 1.827-1.453 4.413-1.76 6.44-0.88v-5.947c0-1.467-1.133-3.387-2.413-4.093l-7.12-3.947c-0.627-0.32-1.467-0.493-2.293-0.493z"></path>
<path d="M25.333 30.333c-3.493 0-6.333-2.84-6.333-6.333 0-1.947 0.867-3.747 2.373-4.947 1.12-0.893 2.533-1.387 3.96-1.387 3.493 0 6.333 2.84 6.333 6.333 0 1.813-0.787 3.547-2.16 4.747-1.16 1.027-2.64 1.587-4.173 1.587zM25.333 19.667c-0.987 0-1.92 0.333-2.707 0.96-1.027 0.813-1.627 2.053-1.627 3.373 0 2.387 1.947 4.333 4.333 4.333 1.040 0 2.053-0.387 2.867-1.080 0.933-0.827 1.467-2 1.467-3.253 0-2.387-1.947-4.333-4.333-4.333z"></path>
<path d="M24 26.333c-0.333 0-0.667-0.173-0.853-0.48-0.28-0.48-0.133-1.093 0.347-1.373l1.187-0.707v-1.44c0-0.547 0.453-1 1-1s1 0.453 1 1v2c0 0.347-0.187 0.68-0.48 0.853l-1.667 1c-0.187 0.107-0.36 0.147-0.533 0.147z"></path>
</svg>
