<!-- Generated by IcoMoon.io -->
<svg version="1.1" xmlns="http://www.w3.org/2000/svg" width="32" height="32" viewBox="0 0 32 32">
<title>box-1</title>
<path d="M15.999 17.733c-0.173 0-0.347-0.040-0.507-0.133l-11.773-6.813c-0.467-0.28-0.64-0.893-0.36-1.373s0.893-0.64 1.373-0.36l11.267 6.52 11.2-6.48c0.48-0.28 1.093-0.107 1.373 0.36 0.28 0.48 0.107 1.093-0.36 1.373l-11.693 6.773c-0.173 0.080-0.347 0.133-0.52 0.133z"></path>
<path d="M16 29.813c-0.547 0-1-0.453-1-1v-12.093c0-0.547 0.453-1 1-1s1 0.453 1 1v12.093c0 0.547-0.453 1-1 1z"></path>
<path d="M16.001 30.333c-1.173 0-2.333-0.253-3.253-0.76l-7.12-3.96c-1.933-1.067-3.44-3.64-3.44-5.853v-7.533c0-2.213 1.507-4.773 3.44-5.853l7.12-3.947c1.827-1.013 4.68-1.013 6.507 0l7.12 3.96c1.933 1.067 3.44 3.64 3.44 5.853v7.533c0 2.213-1.507 4.773-3.44 5.853l-7.12 3.947c-0.92 0.507-2.080 0.76-3.253 0.76zM16.001 3.667c-0.84 0-1.667 0.173-2.28 0.507l-7.12 3.96c-1.28 0.707-2.413 2.627-2.413 4.093v7.533c0 1.467 1.133 3.387 2.413 4.107l7.12 3.96c1.213 0.68 3.347 0.68 4.56 0l7.12-3.96c1.28-0.72 2.413-2.627 2.413-4.107v-7.533c0-1.467-1.133-3.387-2.413-4.107l-7.12-3.96c-0.613-0.32-1.44-0.493-2.28-0.493z"></path>
</svg>
