<!-- Generated by IcoMoon.io -->
<svg version="1.1" xmlns="http://www.w3.org/2000/svg" width="32" height="32" viewBox="0 0 32 32">
<title>box-search</title>
<path d="M15.999 17.733c-0.173 0-0.347-0.040-0.507-0.133l-11.773-6.813c-0.48-0.28-0.64-0.893-0.36-1.373s0.88-0.64 1.373-0.36l11.267 6.52 11.2-6.48c0.48-0.28 1.093-0.107 1.373 0.36 0.28 0.48 0.107 1.093-0.36 1.373l-11.693 6.773c-0.173 0.080-0.347 0.133-0.52 0.133z"></path>
<path d="M16 29.813c-0.547 0-1-0.453-1-1v-12.093c0-0.547 0.453-1 1-1s1 0.453 1 1v12.093c0 0.547-0.453 1-1 1z"></path>
<path d="M15.999 30.333c-1.213 0-2.373-0.28-3.253-0.773l-7.12-3.947c-1.933-1.067-3.453-3.64-3.453-5.853v-7.547c0-2.213 1.52-4.773 3.453-5.853l7.12-3.947c1.813-1.013 4.667-1.013 6.493 0l7.12 3.947c1.933 1.067 3.453 3.64 3.453 5.853v4.88c0 0.547-0.453 1-1 1s-1-0.453-1-1v-4.88c0-1.467-1.133-3.387-2.413-4.093l-7.12-3.947c-1.213-0.68-3.333-0.68-4.547 0l-7.12 3.947c-1.293 0.72-2.413 2.627-2.413 4.093v7.547c0 1.467 1.133 3.387 2.413 4.093l7.12 3.947c1.173 0.653 3.387 0.653 4.547 0 0.48-0.267 1.093-0.093 1.36 0.387s0.093 1.093-0.387 1.36c-0.88 0.507-2.040 0.787-3.253 0.787z"></path>
<path d="M25.6 29.533c-2.907 0-5.267-2.36-5.267-5.267s2.36-5.267 5.267-5.267c2.907 0 5.267 2.36 5.267 5.267s-2.36 5.267-5.267 5.267zM25.6 21c-1.8 0-3.267 1.467-3.267 3.267s1.467 3.267 3.267 3.267c1.8 0 3.267-1.467 3.267-3.267s-1.467-3.267-3.267-3.267z"></path>
<path d="M30.666 30.333c-0.253 0-0.507-0.093-0.707-0.293l-1.333-1.333c-0.387-0.387-0.387-1.027 0-1.413s1.027-0.387 1.413 0l1.333 1.333c0.387 0.387 0.387 1.027 0 1.413-0.2 0.2-0.453 0.293-0.707 0.293z"></path>
</svg>
