<!-- Generated by IcoMoon.io -->
<svg version="1.1" xmlns="http://www.w3.org/2000/svg" width="32" height="32" viewBox="0 0 32 32">
<title>box-add</title>
<path d="M25.334 30.333c-1.867 0-3.613-0.813-4.813-2.24-0.013-0.027-0.093-0.093-0.16-0.2-0.147-0.147-0.32-0.413-0.467-0.667-0.587-0.947-0.907-2.067-0.907-3.24 0-1.947 0.867-3.747 2.373-4.947 1.12-0.893 2.533-1.387 3.96-1.387 1.547 0 2.973 0.533 4.12 1.533 0.16 0.107 0.347 0.307 0.52 0.493 1.080 1.187 1.68 2.707 1.68 4.293 0 1.16-0.32 2.293-0.92 3.267-0.32 0.56-0.76 1.067-1.267 1.493-1.080 1.040-2.56 1.6-4.12 1.6zM25.334 19.667c-0.987 0-1.92 0.333-2.707 0.96-1.027 0.813-1.627 2.053-1.627 3.373 0 0.787 0.213 1.56 0.627 2.227 0.107 0.187 0.213 0.333 0.333 0.48 0.027 0.027 0.107 0.107 0.173 0.213 0.733 0.867 1.933 1.427 3.2 1.427 1.053 0 2.067-0.387 2.84-1.080 0.347-0.293 0.64-0.64 0.853-1.013 0.427-0.68 0.64-1.453 0.64-2.24 0-1.080-0.413-2.133-1.16-2.947-0.093-0.107-0.2-0.213-0.307-0.293-0.84-0.747-1.813-1.107-2.867-1.107z"></path>
<path d="M27.32 24.973h-3.987c-0.547 0-1-0.453-1-1s0.453-1 1-1h3.987c0.547 0 1 0.453 1 1s-0.44 1-1 1z"></path>
<path d="M25.333 27.013c-0.547 0-1-0.453-1-1v-3.987c0-0.547 0.453-1 1-1s1 0.453 1 1v3.987c0 0.56-0.453 1-1 1z"></path>
<path d="M15.999 17.733c-0.173 0-0.347-0.040-0.507-0.133l-11.773-6.813c-0.48-0.28-0.64-0.893-0.36-1.373s0.893-0.64 1.36-0.36l11.267 6.52 11.2-6.48c0.48-0.28 1.093-0.107 1.36 0.36 0.28 0.48 0.107 1.093-0.36 1.373l-11.693 6.773c-0.147 0.080-0.32 0.133-0.493 0.133z"></path>
<path d="M16 29.813c-0.547 0-1-0.453-1-1v-12.093c0-0.547 0.453-1 1-1s1 0.453 1 1v12.093c0 0.547-0.453 1-1 1z"></path>
<path d="M15.999 30.333c-1.173 0-2.347-0.253-3.253-0.773l-7.12-3.947c-1.933-1.067-3.453-3.64-3.453-5.853v-7.547c0-2.213 1.52-4.773 3.453-5.853l7.12-3.947c1.813-1.027 4.667-1.027 6.493 0l7.12 3.947c1.933 1.067 3.453 3.64 3.453 5.853v7.547c0 0.133 0 0.24-0.027 0.373-0.067 0.347-0.32 0.64-0.653 0.747-0.333 0.12-0.707 0.040-0.987-0.187-1.533-1.333-3.907-1.387-5.52-0.093-1.027 0.813-1.627 2.053-1.627 3.373 0 0.787 0.213 1.56 0.627 2.227 0.107 0.187 0.213 0.333 0.333 0.48 0.2 0.227 0.28 0.533 0.227 0.827s-0.24 0.547-0.507 0.693l-2.44 1.347c-0.907 0.533-2.067 0.787-3.24 0.787zM15.999 3.667c-0.827 0-1.667 0.173-2.267 0.507l-7.12 3.947c-1.293 0.707-2.413 2.627-2.413 4.093v7.547c0 1.467 1.133 3.387 2.413 4.093l7.12 3.947c1.213 0.68 3.333 0.68 4.547 0l1.493-0.827c-0.493-0.893-0.76-1.933-0.76-3 0-1.947 0.867-3.747 2.373-4.947 1.813-1.453 4.413-1.76 6.44-0.893v-5.947c0-1.467-1.133-3.387-2.413-4.093l-7.12-3.947c-0.627-0.307-1.467-0.48-2.293-0.48z"></path>
</svg>
