<!-- Generated by IcoMoon.io -->
<svg version="1.1" xmlns="http://www.w3.org/2000/svg" width="32" height="32" viewBox="0 0 32 32">
<title>box-2</title>
<path d="M15.999 30.333c-0.080 0-0.16-0.013-0.227-0.027-0.080-0.013-0.16-0.053-0.24-0.093l-2.947-1.467c-0.493-0.253-0.693-0.853-0.453-1.347 0.253-0.493 0.853-0.693 1.347-0.453l1.52 0.76v-2.080c0-0.547 0.453-1 1-1s1 0.453 1 1v2.080l1.52-0.76c0.493-0.24 1.093-0.040 1.347 0.453s0.053 1.093-0.453 1.347l-2.947 1.467c-0.080 0.040-0.16 0.067-0.24 0.093-0.080 0.013-0.147 0.027-0.227 0.027zM24.893 25.893c-0.36 0-0.72-0.2-0.893-0.547-0.253-0.493-0.053-1.093 0.453-1.347l2.413-1.2v-3.080c0-0.547 0.453-1 1-1s1 0.453 1 1v3.707c0 0.373-0.213 0.72-0.547 0.893l-2.96 1.48c-0.173 0.053-0.32 0.093-0.467 0.093zM7.106 25.893c-0.147 0-0.307-0.040-0.44-0.107l-2.96-1.48c-0.333-0.173-0.547-0.52-0.547-0.893v-3.707c0-0.547 0.453-1 1-1s1 0.453 1 1v3.080l2.413 1.2c0.493 0.253 0.693 0.853 0.453 1.347-0.2 0.347-0.547 0.56-0.92 0.56zM15.999 19.227c-0.547 0-1-0.453-1-1v-3.080l-2.413-1.2c-0.493-0.253-0.693-0.853-0.453-1.347 0.253-0.493 0.853-0.693 1.347-0.453l2.52 1.253 2.52-1.253c0.493-0.24 1.093-0.053 1.347 0.453s0.053 1.093-0.453 1.347l-2.413 1.2v3.080c0 0.547-0.453 1-1 1zM27.853 13.293c-0.547 0-1-0.453-1-1v-2.080l-1.52 0.76c-0.493 0.253-1.093 0.053-1.347-0.453-0.253-0.493-0.053-1.093 0.453-1.347l1.173-0.587-1.173-0.587c-0.493-0.253-0.693-0.853-0.453-1.347 0.253-0.493 0.853-0.693 1.347-0.453l2.947 1.467c0.027 0.013 0.067 0.027 0.093 0.053 0.080 0.040 0.147 0.107 0.213 0.173 0.040 0.053 0.080 0.107 0.12 0.16 0.053 0.093 0.093 0.187 0.12 0.293 0.013 0.080 0.027 0.16 0.027 0.227v3.693c0 0.587-0.453 1.027-1 1.027zM4.146 13.293c-0.547 0-1-0.453-1-1v-3.693c0-0.080 0.013-0.16 0.027-0.227 0.027-0.107 0.067-0.2 0.12-0.293 0.040-0.067 0.080-0.12 0.133-0.173s0.12-0.107 0.187-0.147c0.027-0.013 0.067-0.040 0.093-0.053l2.947-1.467c0.493-0.24 1.093-0.053 1.347 0.453s0.053 1.093-0.453 1.347l-1.173 0.587 1.173 0.587c0.493 0.253 0.693 0.853 0.453 1.347-0.253 0.493-0.84 0.693-1.347 0.453l-1.52-0.76v2.080c0.013 0.52-0.427 0.96-0.987 0.96zM18.959 5.147c-0.147 0-0.307-0.040-0.44-0.107l-2.52-1.253-2.52 1.253c-0.493 0.253-1.093 0.053-1.347-0.453-0.253-0.493-0.053-1.093 0.453-1.347l2.96-1.48c0.28-0.147 0.613-0.147 0.893 0l2.96 1.48c0.493 0.253 0.693 0.853 0.453 1.347-0.173 0.36-0.52 0.56-0.893 0.56z"></path>
</svg>
