<!-- Generated by IcoMoon.io -->
<svg version="1.1" xmlns="http://www.w3.org/2000/svg" width="32" height="32" viewBox="0 0 32 32">
<title>briefcase</title>
<path d="M21.334 30.333h-10.667c-6.16 0-7.307-2.867-7.6-5.653l-1-10.68c-0.147-1.4-0.187-3.467 1.2-5.013 1.2-1.333 3.187-1.973 6.067-1.973h13.333c2.893 0 4.88 0.653 6.067 1.973 1.387 1.547 1.347 3.613 1.2 5.027l-1 10.653c-0.293 2.8-1.44 5.667-7.6 5.667zM9.334 9c-2.253 0-3.8 0.44-4.587 1.32-0.653 0.72-0.867 1.827-0.693 3.48l1 10.68c0.227 2.107 0.8 3.853 5.613 3.853h10.667c4.8 0 5.387-1.747 5.613-3.867l1-10.653c0.173-1.667-0.040-2.773-0.693-3.493-0.787-0.88-2.333-1.32-4.587-1.32h-13.333z"></path>
<path d="M21.333 9c-0.547 0-1-0.453-1-1v-1.067c0-2.373 0-3.267-3.267-3.267h-2.133c-3.267 0-3.267 0.893-3.267 3.267v1.067c0 0.547-0.453 1-1 1s-1-0.453-1-1v-1.067c0-2.347 0-5.267 5.267-5.267h2.133c5.267 0 5.267 2.92 5.267 5.267v1.067c0 0.547-0.453 1-1 1z"></path>
<path d="M16 22.333c-3.667 0-3.667-2.267-3.667-3.627v-1.373c0-1.88 0.453-2.333 2.333-2.333h2.667c1.88 0 2.333 0.453 2.333 2.333v1.333c0 1.387 0 3.667-3.667 3.667zM14.333 17c0 0.107 0 0.227 0 0.333v1.373c0 1.373 0 1.627 1.667 1.627s1.667-0.213 1.667-1.64v-1.36c0-0.107 0-0.227 0-0.333-0.107 0-0.227 0-0.333 0h-2.667c-0.107 0-0.227 0-0.333 0z"></path>
<path d="M18.666 19.693c-0.493 0-0.933-0.373-0.987-0.88-0.067-0.547 0.32-1.053 0.867-1.12 3.52-0.44 6.893-1.773 9.733-3.84 0.44-0.333 1.067-0.227 1.4 0.227 0.32 0.44 0.227 1.067-0.227 1.4-3.12 2.267-6.8 3.72-10.667 4.213-0.040 0-0.080 0-0.12 0z"></path>
<path d="M13.334 19.707c-0.040 0-0.080 0-0.12 0-3.653-0.413-7.213-1.747-10.293-3.853-0.453-0.307-0.573-0.933-0.267-1.387s0.933-0.573 1.387-0.267c2.813 1.92 6.053 3.133 9.387 3.52 0.547 0.067 0.947 0.56 0.88 1.107-0.040 0.507-0.467 0.88-0.973 0.88z"></path>
</svg>
