<!-- Generated by IcoMoon.io -->
<svg version="1.1" xmlns="http://www.w3.org/2000/svg" width="32" height="32" viewBox="0 0 32 32">
<title>brifecase-cross</title>
<path d="M16 25.267c-3.493 0-6.333-2.84-6.333-6.333s2.84-6.333 6.333-6.333c3.493 0 6.333 2.84 6.333 6.333s-2.84 6.333-6.333 6.333zM16 14.6c-2.387 0-4.333 1.947-4.333 4.333s1.947 4.333 4.333 4.333c2.387 0 4.333-1.947 4.333-4.333s-1.947-4.333-4.333-4.333z"></path>
<path d="M17.427 21.413c-0.253 0-0.507-0.093-0.707-0.293l-2.813-2.813c-0.387-0.387-0.387-1.027 0-1.413s1.027-0.387 1.413 0l2.813 2.813c0.387 0.387 0.387 1.027 0 1.413-0.2 0.2-0.453 0.293-0.707 0.293z"></path>
<path d="M14.572 21.453c-0.253 0-0.507-0.093-0.707-0.293-0.387-0.387-0.387-1.027 0-1.413l2.813-2.813c0.387-0.387 1.027-0.387 1.413 0s0.387 1.027 0 1.413l-2.813 2.813c-0.2 0.187-0.453 0.293-0.707 0.293z"></path>
<path d="M21.334 30.333h-10.667c-6.16 0-7.307-2.867-7.6-5.653l-1-10.68c-0.147-1.4-0.187-3.467 1.2-5.013 1.2-1.333 3.187-1.973 6.067-1.973h13.333c2.893 0 4.88 0.653 6.067 1.973 1.387 1.547 1.347 3.613 1.2 5.027l-1 10.653c-0.293 2.8-1.44 5.667-7.6 5.667zM9.334 9c-2.253 0-3.8 0.44-4.587 1.32-0.653 0.72-0.867 1.827-0.693 3.48l1 10.68c0.227 2.107 0.8 3.853 5.613 3.853h10.667c4.8 0 5.387-1.747 5.613-3.867l1-10.653c0.173-1.667-0.040-2.773-0.693-3.493-0.787-0.88-2.333-1.32-4.587-1.32h-13.333z"></path>
<path d="M21.333 9c-0.547 0-1-0.453-1-1v-1.067c0-2.373 0-3.267-3.267-3.267h-2.133c-3.267 0-3.267 0.893-3.267 3.267v1.067c0 0.547-0.453 1-1 1s-1-0.453-1-1v-1.067c0-2.347 0-5.267 5.267-5.267h2.133c5.267 0 5.267 2.92 5.267 5.267v1.067c0 0.547-0.453 1-1 1z"></path>
<path d="M21.347 19.187c-0.453 0-0.853-0.307-0.973-0.76-0.133-0.533 0.187-1.080 0.72-1.213 2.6-0.653 5.013-1.787 7.173-3.36 0.44-0.32 1.080-0.227 1.4 0.227 0.32 0.44 0.227 1.067-0.227 1.4-2.373 1.72-5.013 2.96-7.867 3.68-0.067 0.013-0.147 0.027-0.227 0.027z"></path>
<path d="M10.668 19.227c-0.080 0-0.16-0.013-0.24-0.027-2.68-0.653-5.2-1.787-7.507-3.36-0.453-0.307-0.573-0.933-0.267-1.387s0.933-0.573 1.387-0.267c2.107 1.44 4.4 2.467 6.853 3.067 0.533 0.133 0.867 0.667 0.733 1.213-0.093 0.453-0.507 0.76-0.96 0.76z"></path>
</svg>
