<!-- Generated by IcoMoon.io -->
<svg version="1.1" xmlns="http://www.w3.org/2000/svg" width="32" height="32" viewBox="0 0 32 32">
<title>broom</title>
<path d="M8.6 11.333c-0.080 0-0.16-0.013-0.24-0.027-0.253-0.067-0.48-0.227-0.613-0.453l-2.080-3.413c-0.507-0.827-0.667-1.813-0.427-2.773 0.227-0.947 0.813-1.76 1.653-2.267 0.827-0.507 1.813-0.667 2.773-0.427 0.96 0.227 1.76 0.813 2.267 1.653l2.080 3.413c0.293 0.467 0.133 1.080-0.333 1.373l-4.56 2.773c-0.16 0.093-0.333 0.147-0.52 0.147zM8.786 3.867c-0.307 0-0.6 0.080-0.853 0.24-0.373 0.227-0.64 0.6-0.747 1.027-0.107 0.44-0.040 0.88 0.187 1.253l1.56 2.56 2.853-1.733-1.56-2.56c-0.227-0.373-0.6-0.64-1.027-0.747-0.147-0.027-0.28-0.040-0.413-0.040z"></path>
<path d="M15.226 30.147c-0.4 0-0.8-0.053-1.187-0.173-1.173-0.347-2.12-1.147-2.667-2.28l-2.733-5.573c-1.453-2.96-0.427-6.48 2.387-8.2l4.213-2.56c2.813-1.72 6.427-1.013 8.387 1.64l3.693 4.987c0.747 1.013 1.027 2.227 0.8 3.413s-0.947 2.213-2.027 2.867l-8.573 5.213c-0.72 0.44-1.507 0.667-2.293 0.667zM18.533 12.427c-0.773 0-1.547 0.213-2.267 0.64l-4.213 2.56c-1.933 1.173-2.627 3.587-1.64 5.613l2.733 5.573c0.307 0.613 0.813 1.053 1.44 1.24s1.293 0.080 1.867-0.267l8.573-5.213c0.587-0.36 0.973-0.907 1.107-1.547 0.12-0.64-0.027-1.293-0.44-1.84l-3.693-4.987c-0.84-1.16-2.133-1.773-3.467-1.773z"></path>
<path d="M10.241 16.573c-0.080 0-0.16-0.013-0.24-0.027-0.253-0.067-0.48-0.227-0.613-0.453l-2.773-4.56c-0.293-0.467-0.133-1.080 0.333-1.373l6.827-4.16c0.467-0.28 1.093-0.133 1.373 0.333l2.773 4.56c0.133 0.227 0.187 0.493 0.12 0.76-0.067 0.253-0.227 0.48-0.453 0.613l-6.827 4.16c-0.16 0.107-0.347 0.147-0.52 0.147zM8.841 11.36l1.733 2.853 5.12-3.12-1.733-2.853-5.12 3.12z"></path>
<path d="M21.279 27.027c-0.333 0-0.667-0.173-0.853-0.48l-2.2-3.613c-0.293-0.467-0.133-1.080 0.333-1.373 0.467-0.28 1.093-0.133 1.373 0.333l2.2 3.613c0.293 0.467 0.133 1.080-0.333 1.373-0.16 0.093-0.347 0.147-0.52 0.147z"></path>
<path d="M17.868 29.107c-0.333 0-0.667-0.173-0.853-0.48l-2.2-3.613c-0.293-0.467-0.133-1.080 0.333-1.373 0.467-0.28 1.093-0.133 1.373 0.333l2.2 3.613c0.293 0.467 0.133 1.080-0.333 1.373-0.16 0.093-0.347 0.147-0.52 0.147z"></path>
<path d="M24.693 24.947c-0.333 0-0.667-0.173-0.853-0.48l-2.2-3.613c-0.293-0.467-0.133-1.080 0.333-1.373 0.467-0.28 1.093-0.133 1.373 0.333l2.2 3.613c0.293 0.467 0.133 1.080-0.333 1.373-0.16 0.093-0.333 0.147-0.52 0.147z"></path>
</svg>
