<!-- Generated by IcoMoon.io -->
<svg version="1.1" xmlns="http://www.w3.org/2000/svg" width="32" height="32" viewBox="0 0 32 32">
<title>brush-2</title>
<path d="M16 30.333c-2.387 0-4.333-1.947-4.333-4.333v-1h-5.667c-0.987 0-1.907-0.387-2.6-1.093-0.68-0.667-1.067-1.587-1.067-2.573 0-1.867 1.453-3.467 3.32-3.653 0.067-0.013 0.2-0.013 0.347-0.013h20c0.147 0 0.28 0 0.413 0.027 0.787 0.067 1.573 0.44 2.187 1.067 0.76 0.733 1.147 1.8 1.053 2.893-0.16 1.88-1.827 3.347-3.8 3.347h-5.52v1c0 2.387-1.947 4.333-4.333 4.333zM6 19.667c-0.027 0-0.133 0-0.16 0.013-0.84 0.080-1.507 0.813-1.507 1.653 0 0.44 0.173 0.853 0.48 1.16 0.32 0.333 0.733 0.507 1.187 0.507h6.667c0.547 0 1 0.453 1 1v2c0 1.28 1.053 2.333 2.333 2.333s2.333-1.053 2.333-2.333v-2c0-0.547 0.453-1 1-1h6.52c0.92 0 1.733-0.68 1.813-1.52 0.040-0.507-0.133-0.973-0.48-1.32-0.293-0.293-0.64-0.467-1.013-0.493l-0.173-0.013-20 0.013z"></path>
<path d="M26.253 19.68c-0.053 0-0.107 0-0.16-0.013h-20.093c-0.28 0.053-0.613-0.027-0.827-0.213-0.227-0.173-0.4-0.44-0.413-0.72l-0.653-11.613c-0.133-1.36 0.32-2.76 1.267-3.813 0.947-1.040 2.293-1.64 3.707-1.64h13.84c1.413 0 2.76 0.6 3.707 1.653 0.933 1.040 1.4 2.44 1.267 3.827l-0.64 11.587c-0.013 0.28-0.147 0.547-0.373 0.72-0.173 0.147-0.4 0.227-0.627 0.227zM6.693 17.667h18.613l0.587-10.653c0-0.013 0-0.027 0-0.053 0.080-0.853-0.187-1.68-0.76-2.307s-1.373-0.987-2.227-0.987h-13.827c-0.84 0-1.653 0.36-2.227 0.987-0.573 0.64-0.84 1.453-0.747 2.307l0.587 10.707z"></path>
<path d="M10.654 10.333c-0.547 0-1-0.453-1-1v-6.667c0-0.547 0.453-1 1-1s1 0.453 1 1v6.667c0 0.547-0.453 1-1 1z"></path>
<path d="M16 6.333c-0.547 0-1-0.453-1-1v-2.667c0-0.547 0.453-1 1-1s1 0.453 1 1v2.667c0 0.547-0.453 1-1 1z"></path>
</svg>
