<!-- Generated by IcoMoon.io -->
<svg version="1.1" xmlns="http://www.w3.org/2000/svg" width="32" height="32" viewBox="0 0 32 32">
<title>brush-1</title>
<path d="M19.961 30.333h-8c-7.24 0-10.333-3.093-10.333-10.333v-8c0-7.24 3.093-10.333 10.333-10.333h2.667c0.547 0 1 0.453 1 1s-0.453 1-1 1h-2.667c-6.147 0-8.333 2.187-8.333 8.333v8c0 6.147 2.187 8.333 8.333 8.333h8c6.147 0 8.333-2.187 8.333-8.333v-2.667c0-0.547 0.453-1 1-1s1 0.453 1 1v2.667c0 7.24-3.080 10.333-10.333 10.333z"></path>
<path d="M17.039 20.32c-0.2 0-0.387-0.053-0.56-0.173-0.28-0.187-0.44-0.493-0.44-0.827 0-0.147-0.013-0.307-0.040-0.467-0.093-0.707-0.413-1.333-0.947-1.88-0.547-0.547-1.213-0.893-1.947-0.987-0.107-0.013-0.28-0.027-0.44-0.013-0.333 0.027-0.667-0.12-0.867-0.387s-0.253-0.627-0.147-0.947c0.16-0.453 0.413-0.88 0.707-1.213l1.64-2.053c2.853-3.56 8.6-7.827 12.84-9.52 0.973-0.373 2-0.16 2.707 0.547 0.733 0.733 0.947 1.773 0.56 2.72-1.693 4.227-5.96 9.987-9.507 12.827l-2.093 1.68c-0.413 0.293-0.747 0.493-1.093 0.627-0.12 0.040-0.253 0.067-0.373 0.067zM14.293 14.227c0.813 0.267 1.547 0.72 2.173 1.333 0.613 0.613 1.053 1.32 1.307 2.080l1.573-1.267c3.32-2.667 7.32-8.053 8.907-12.013 0.107-0.253-0.013-0.44-0.12-0.56-0.067-0.067-0.253-0.213-0.56-0.093-3.947 1.587-9.333 5.587-12 8.907l-1.28 1.613z"></path>
<path d="M10.268 25c-0.853 0-1.667-0.333-2.28-0.947-0.707-0.707-1.053-1.68-0.933-2.68l0.28-2.613c0.293-2.707 2.493-4.707 5.253-4.76 0.213-0.013 0.48 0 0.733 0.013 1.213 0.16 2.293 0.693 3.147 1.56 0.853 0.853 1.373 1.867 1.52 3.013 0.040 0.253 0.053 0.507 0.053 0.747 0 1.453-0.56 2.827-1.587 3.853-0.84 0.84-1.933 1.36-3.173 1.52l-2.64 0.28c-0.133 0.013-0.253 0.013-0.373 0.013zM12.801 15.987c-0.040 0-0.093 0-0.133 0-1.533 0.040-3.147 1.067-3.347 2.987l-0.28 2.627c-0.040 0.387 0.093 0.773 0.36 1.040s0.64 0.4 1.013 0.36l2.627-0.28c0.773-0.093 1.467-0.427 1.987-0.947 0.64-0.653 1-1.507 1-2.44 0-0.147-0.013-0.307-0.040-0.467-0.093-0.707-0.413-1.333-0.947-1.88-0.547-0.547-1.213-0.893-1.947-0.987-0.067-0.013-0.173-0.013-0.293-0.013z"></path>
<path d="M21.092 16.973c-0.547 0-1-0.453-1-1 0-2.227-1.813-4.053-4.053-4.053-0.547 0-1-0.453-1-1s0.453-1 1-1c3.333 0 6.053 2.707 6.053 6.053 0 0.547-0.44 1-1 1z"></path>
</svg>
