<!-- Generated by IcoMoon.io -->
<svg version="1.1" xmlns="http://www.w3.org/2000/svg" width="32" height="32" viewBox="0 0 32 32">
<title>brush-3</title>
<path d="M26.667 12.093h-21.333c-0.547 0-1-0.453-1-1v-5.76c0-2.027 1.64-3.667 3.667-3.667h16c2.027 0 3.667 1.64 3.667 3.667v5.76c0 0.547-0.453 1-1 1zM6.333 10.093h19.333v-4.76c0-0.92-0.747-1.667-1.667-1.667h-16c-0.92 0-1.667 0.747-1.667 1.667v4.76z"></path>
<path d="M16.667 30.333h-1.333c-2.027 0-3.667-1.64-3.667-3.667v-2.8c0-0.6-0.32-1.16-0.853-1.453l-3.947-2.227c-1.573-0.88-2.547-2.547-2.547-4.36v-4.747c0-0.547 0.453-1 1-1h21.333c0.547 0 1 0.453 1 1v4.747c0 1.8-0.973 3.467-2.547 4.36l-3.947 2.227c-0.52 0.293-0.853 0.853-0.853 1.453v2.8c0.027 2.027-1.613 3.667-3.64 3.667zM6.334 12.093v3.747c0 1.080 0.587 2.080 1.52 2.613l3.947 2.227c1.147 0.653 1.867 1.867 1.867 3.187v2.8c0 0.92 0.747 1.667 1.667 1.667h1.333c0.92 0 1.667-0.747 1.667-1.667v-2.8c0-1.32 0.72-2.547 1.867-3.187l3.947-2.227c0.947-0.533 1.52-1.533 1.52-2.613v-3.747h-19.333z"></path>
</svg>
