<!-- Generated by IcoMoon.io -->
<svg version="1.1" xmlns="http://www.w3.org/2000/svg" width="32" height="32" viewBox="0 0 32 32">
<title>brush</title>
<path d="M13.333 22.333c-0.547 0-1-0.453-1-1 0-2.227 0-5 5-5h5.333c3 0 3-0.4 3-3v-2.667c0-2.6 0-3-3-3h-1.333c-0.547 0-1-0.453-1-1s0.453-1 1-1h1.333c4.667 0 5 1.893 5 5v2.667c0 3.107-0.333 5-5 5h-5.333c-3 0-3 0.813-3 3 0 0.547-0.453 1-1 1z"></path>
<path d="M16.001 11.667h-5.333c-0.427 0-0.813-0.28-0.947-0.68-0.92-2.787-0.92-5.853 0-8.627 0.133-0.413 0.52-0.693 0.947-0.693h5.333c0.427 0 0.813 0.28 0.947 0.68 0.933 2.787 0.933 5.853 0 8.627-0.133 0.413-0.507 0.693-0.947 0.693zM11.415 9.667h3.853c0.52-1.96 0.52-4.040 0-6h-3.853c-0.52 1.96-0.52 4.040 0 6z"></path>
<path d="M10.667 11.667h-1.333c-3.227 0-5-1.773-5-5s1.773-5 5-5h1.333c0.347 0 0.667 0.173 0.853 0.48 0.187 0.293 0.2 0.667 0.040 0.973-1.2 2.387-1.2 4.72 0 7.107 0.16 0.307 0.133 0.68-0.040 0.973-0.187 0.293-0.507 0.467-0.853 0.467zM9.173 3.667c-1.987 0.053-2.84 0.947-2.84 3 0 2.040 0.853 2.947 2.827 3-0.667-2-0.667-4 0.013-6z"></path>
<path d="M17.332 11.667h-1.333c-0.347 0-0.667-0.173-0.853-0.48-0.187-0.293-0.2-0.667-0.040-0.973 1.187-2.387 1.187-4.72 0-7.107-0.16-0.307-0.133-0.68 0.040-0.973 0.187-0.293 0.507-0.467 0.853-0.467h1.333c3.227 0 5 1.773 5 5s-1.773 5-5 5zM17.492 3.667c0.667 2 0.667 4 0 6 1.987-0.053 2.827-0.947 2.827-3 0.013-2.053-0.84-2.947-2.827-3z"></path>
<path d="M14 30.333h-1.333c-1.373 0-3-0.52-3-3v-4c0-2.48 1.627-3 3-3h1.333c1.373 0 3 0.52 3 3v4c0 2.48-1.627 3-3 3zM12.667 22.333c-1 0-1 0.293-1 1v4c0 0.707 0 1 1 1h1.333c1 0 1-0.293 1-1v-4c0-0.707 0-1-1-1h-1.333z"></path>
</svg>
