<!-- Generated by IcoMoon.io -->
<svg version="1.1" xmlns="http://www.w3.org/2000/svg" width="32" height="32" viewBox="0 0 32 32">
<title>bubble</title>
<path d="M20.788 17.347c-4.32 0-7.84-3.52-7.84-7.84s3.52-7.84 7.84-7.84c4.32 0 7.84 3.52 7.84 7.84s-3.52 7.84-7.84 7.84zM20.788 3.667c-3.213 0-5.84 2.613-5.84 5.84s2.613 5.84 5.84 5.84c3.227 0 5.84-2.613 5.84-5.84s-2.627-5.84-5.84-5.84z"></path>
<path d="M8.482 26.92c-2.813 0-5.107-2.293-5.107-5.107s2.293-5.107 5.107-5.107c2.813 0 5.107 2.293 5.107 5.107s-2.293 5.107-5.107 5.107zM8.482 18.707c-1.707 0-3.107 1.387-3.107 3.107 0 1.707 1.387 3.107 3.107 3.107 1.707 0 3.107-1.387 3.107-3.107 0-1.707-1.4-3.107-3.107-3.107z"></path>
<path d="M22.161 30.333c-2.44 0-4.413-1.987-4.413-4.413 0-2.44 1.987-4.413 4.413-4.413s4.413 1.987 4.413 4.413c0 2.427-1.987 4.413-4.413 4.413zM22.161 23.493c-1.333 0-2.413 1.080-2.413 2.413s1.080 2.413 2.413 2.413c1.333 0 2.413-1.080 2.413-2.413 0-1.32-1.080-2.413-2.413-2.413z"></path>
</svg>
