<!-- Generated by IcoMoon.io -->
<svg version="1.1" xmlns="http://www.w3.org/2000/svg" width="32" height="32" viewBox="0 0 32 32">
<title>bucket-square</title>
<path d="M13.801 24.52c-0.907 0-1.773-0.413-2.6-1.24l-3.773-3.773c-1.653-1.653-1.653-3.547 0-5.187l6.293-6.293c0.387-0.387 1.027-0.387 1.413 0l6.92 6.92c0.36 0.36 0.547 0.827 0.547 1.333s-0.2 0.987-0.547 1.333l-5.667 5.667c-0.8 0.827-1.68 1.24-2.587 1.24zM14.441 10.134l-5.587 5.587c-0.427 0.427-0.653 0.827-0.653 1.187 0 0.347 0.213 0.747 0.653 1.187l3.773 3.773c0.867 0.867 1.493 0.867 2.36 0l5.587-5.587-6.133-6.147z"></path>
<path d="M14.44 9.72c-0.253 0-0.507-0.093-0.707-0.293l-1.253-1.253c-0.387-0.387-0.387-1.027 0-1.413s1.027-0.387 1.413 0l1.253 1.253c0.387 0.387 0.387 1.027 0 1.413-0.2 0.2-0.453 0.293-0.707 0.293z"></path>
<path d="M7.254 17.854c-0.533 0-0.973-0.413-1-0.96s0.4-1.013 0.96-1.040l14.24-0.627c0.547-0.053 1.013 0.4 1.040 0.96 0.027 0.547-0.4 1.013-0.96 1.040l-14.24 0.627c-0.013 0-0.027 0-0.040 0z"></path>
<path d="M23.067 25.533c-1.507 0-2.747-1.227-2.747-2.747 0-1.44 1.533-3.213 2-3.72 0.373-0.413 1.093-0.413 1.467 0 0.467 0.507 2 2.293 2 3.72 0.013 1.52-1.213 2.747-2.72 2.747zM23.067 21.333c-0.413 0.587-0.747 1.173-0.747 1.453 0 0.4 0.333 0.747 0.747 0.747s0.747-0.333 0.747-0.747c-0.013-0.28-0.333-0.867-0.747-1.453z"></path>
<path d="M20 30.333h-8c-7.24 0-10.333-3.093-10.333-10.333v-8c0-7.24 3.093-10.333 10.333-10.333h8c7.24 0 10.333 3.093 10.333 10.333v8c0 7.24-3.093 10.333-10.333 10.333zM12 3.667c-6.147 0-8.333 2.187-8.333 8.333v8c0 6.147 2.187 8.333 8.333 8.333h8c6.147 0 8.333-2.187 8.333-8.333v-8c0-6.147-2.187-8.333-8.333-8.333h-8z"></path>
</svg>
