<!-- Generated by IcoMoon.io -->
<svg version="1.1" xmlns="http://www.w3.org/2000/svg" width="32" height="32" viewBox="0 0 32 32">
<title>bucket-circle</title>
<path d="M14.145 23.080c-0.787 0-1.573-0.36-2.307-1.093l-3.187-3.187c-1.467-1.467-1.467-3.147 0-4.6l5.32-5.32c0.187-0.187 0.44-0.293 0.707-0.293s0.52 0.107 0.707 0.293l5.853 5.853c0.333 0.333 0.507 0.773 0.507 1.24s-0.187 0.907-0.52 1.24l-4.787 4.787c-0.72 0.707-1.507 1.080-2.293 1.080zM14.679 10.987l-4.613 4.613c-0.227 0.227-0.507 0.573-0.507 0.893s0.28 0.653 0.507 0.893l3.187 3.187c0.227 0.227 0.573 0.507 0.893 0.507s0.653-0.28 0.893-0.507l4.613-4.613-4.973-4.973z"></path>
<path d="M14.681 10.573c-0.253 0-0.507-0.093-0.707-0.293l-1.067-1.067c-0.387-0.387-0.387-1.027 0-1.413s1.027-0.387 1.413 0l1.067 1.067c0.387 0.387 0.387 1.027 0 1.413-0.2 0.2-0.453 0.293-0.707 0.293z"></path>
<path d="M8.613 17.44c-0.533 0-0.973-0.413-1-0.96s0.4-1.013 0.96-1.040l12.040-0.52c0.547-0.040 1.013 0.4 1.040 0.96s-0.4 1.013-0.96 1.040l-12.040 0.52c-0.013 0-0.027 0-0.040 0z"></path>
<path d="M21.961 23.934c-1.36 0-2.467-1.107-2.467-2.467 0-1.267 1.333-2.813 1.733-3.253 0.373-0.413 1.093-0.413 1.467 0 0.4 0.44 1.733 1.987 1.733 3.253 0.013 1.36-1.093 2.467-2.467 2.467zM21.961 20.507c-0.28 0.413-0.467 0.787-0.467 0.96 0 0.253 0.213 0.467 0.467 0.467s0.467-0.213 0.467-0.467c0.013-0.173-0.187-0.547-0.467-0.96z"></path>
<path d="M16 30.333c-7.907 0-14.333-6.427-14.333-14.333s6.427-14.333 14.333-14.333c7.907 0 14.333 6.427 14.333 14.333s-6.427 14.333-14.333 14.333zM16 3.667c-6.8 0-12.333 5.533-12.333 12.333s5.533 12.333 12.333 12.333c6.8 0 12.333-5.533 12.333-12.333s-5.533-12.333-12.333-12.333z"></path>
</svg>
