<!-- Generated by IcoMoon.io -->
<svg version="1.1" xmlns="http://www.w3.org/2000/svg" width="32" height="32" viewBox="0 0 32 32">
<title>bucket</title>
<path d="M12.027 26.334c-1.147 0-2.293-0.547-3.387-1.64l-5.347-5.347c-1.080-1.080-1.627-2.213-1.627-3.387 0-1.16 0.547-2.307 1.627-3.387l8.907-8.907c0.187-0.187 0.44-0.293 0.707-0.293s0.52 0.107 0.707 0.293l9.8 9.8c0.427 0.427 0.667 0.987 0.667 1.6 0 0.6-0.24 1.173-0.667 1.6l-8.027 8.027c-1.067 1.093-2.213 1.64-3.36 1.64zM12.92 5.8l-8.2 8.2c-0.693 0.693-1.040 1.36-1.040 1.973s0.347 1.28 1.040 1.96l5.347 5.347c1.4 1.4 2.533 1.4 3.933 0l8.027-8.027c0.080-0.080 0.093-0.28 0-0.373l-9.107-9.080z"></path>
<path d="M12.919 5.386c-0.253 0-0.507-0.093-0.707-0.293l-1.787-1.787c-0.387-0.387-0.387-1.027 0-1.413s1.027-0.387 1.413 0l1.787 1.787c0.387 0.387 0.387 1.027 0 1.413-0.2 0.2-0.453 0.293-0.707 0.293z"></path>
<path d="M2.762 16.893c-0.533 0-0.973-0.413-1-0.96s0.4-1.013 0.96-1.040l20.173-0.88c0.547-0.027 1.013 0.4 1.040 0.96 0.027 0.547-0.4 1.013-0.96 1.040l-20.173 0.88c-0.013 0-0.027 0-0.040 0z"></path>
<path d="M21.333 30.333h-17.333c-0.547 0-1-0.453-1-1s0.453-1 1-1h17.333c0.547 0 1 0.453 1 1s-0.453 1-1 1z"></path>
<path d="M25.133 27.773c-1.907 0-3.467-1.56-3.467-3.467 0-1.933 2.28-4.493 2.733-5 0.373-0.413 1.093-0.413 1.467 0 0.453 0.493 2.733 3.053 2.733 4.987s-1.56 3.48-3.467 3.48zM25.133 21.56c-0.733 0.96-1.467 2.133-1.467 2.76 0 0.813 0.653 1.467 1.467 1.467s1.467-0.653 1.467-1.467c0-0.64-0.733-1.813-1.467-2.76z"></path>
</svg>
