<!-- Generated by IcoMoon.io -->
<svg version="1.1" xmlns="http://www.w3.org/2000/svg" width="32" height="32" viewBox="0 0 32 32">
<title>buildings</title>
<path d="M17.333 30.333h-10.667c-3.227 0-5-1.773-5-5v-10.667c0-3.227 1.773-5 5-5h6.667c0.547 0 1 0.453 1 1v14.667c0 2.107 0.893 3 3 3 0.547 0 1 0.453 1 1s-0.453 1-1 1zM6.667 11.667c-2.107 0-3 0.893-3 3v10.667c0 2.107 0.893 3 3 3h6.4c-0.48-0.787-0.733-1.787-0.733-3v-13.667h-5.667z"></path>
<path d="M13.333 11.667h-6.667c-0.547 0-1-0.453-1-1v-2.667c0-2.027 1.64-3.667 3.667-3.667h4.147c0.307 0 0.6 0.147 0.787 0.387 0.187 0.253 0.253 0.573 0.173 0.867s-0.107 0.627-0.107 1.080v4c0 0.547-0.453 1-1 1zM7.667 9.667h4.667v-3c0-0.12 0-0.227 0-0.333h-3c-0.92 0-1.667 0.747-1.667 1.667v1.667z"></path>
<path d="M18.667 18.333c-0.547 0-1-0.453-1-1v-6.667c0-0.547 0.453-1 1-1s1 0.453 1 1v6.667c0 0.547-0.453 1-1 1z"></path>
<path d="M24 18.333c-0.547 0-1-0.453-1-1v-6.667c0-0.547 0.453-1 1-1s1 0.453 1 1v6.667c0 0.547-0.453 1-1 1z"></path>
<path d="M24 30.333h-5.333c-0.547 0-1-0.453-1-1v-5.333c0-1.28 1.053-2.333 2.333-2.333h2.667c1.28 0 2.333 1.053 2.333 2.333v5.333c0 0.547-0.453 1-1 1zM19.667 28.333h3.333v-4.333c0-0.187-0.147-0.333-0.333-0.333h-2.667c-0.187 0-0.333 0.147-0.333 0.333v4.333z"></path>
<path d="M8 23.667c-0.547 0-1-0.453-1-1v-5.333c0-0.547 0.453-1 1-1s1 0.453 1 1v5.333c0 0.547-0.453 1-1 1z"></path>
<path d="M25.333 30.333h-8c-3.227 0-5-1.773-5-5v-18.667c0-3.227 1.773-5 5-5h8c3.227 0 5 1.773 5 5v18.667c0 3.227-1.773 5-5 5zM17.333 3.667c-2.107 0-3 0.893-3 3v18.667c0 2.107 0.893 3 3 3h8c2.107 0 3-0.893 3-3v-18.667c0-2.107-0.893-3-3-3h-8z"></path>
</svg>
