<!-- Generated by IcoMoon.io -->
<svg version="1.1" xmlns="http://www.w3.org/2000/svg" width="32" height="32" viewBox="0 0 32 32">
<title>building-4</title>
<path d="M30.667 30.333h-29.333c-0.547 0-1-0.453-1-1s0.453-1 1-1h29.333c0.547 0 1 0.453 1 1s-0.453 1-1 1z"></path>
<path d="M26.374 30.346c-0.547 0-1-0.453-1-1v-5.947c0-0.547 0.453-1 1-1s1 0.453 1 1v5.947c0 0.547-0.44 1-1 1z"></path>
<path d="M26.399 24.4c-2.173 0-3.933-1.76-3.933-3.933v-3.027c0-2.173 1.76-3.933 3.933-3.933s3.933 1.76 3.933 3.933v3.027c0 2.173-1.76 3.933-3.933 3.933zM26.399 15.52c-1.067 0-1.933 0.867-1.933 1.933v3.027c0 1.067 0.867 1.933 1.933 1.933s1.933-0.867 1.933-1.933v-3.027c0-1.067-0.867-1.933-1.933-1.933z"></path>
<path d="M19.066 30.333c-0.547 0-1-0.453-1-1v-21.293c0-2.12-0.893-3.027-2.973-3.027h-8.307c-2.093 0-3 0.907-3 3.027v21.293c0 0.547-0.453 1-1 1s-1-0.453-1-1v-21.293c0-3.24 1.773-5.027 5-5.027h8.307c3.213 0 4.973 1.787 4.973 5.027v21.293c0 0.547-0.453 1-1 1z"></path>
<path d="M14.333 12h-6.6c-0.547 0-1-0.453-1-1s0.453-1 1-1h6.6c0.547 0 1 0.453 1 1s-0.453 1-1 1z"></path>
<path d="M14.333 17h-6.6c-0.547 0-1-0.453-1-1s0.453-1 1-1h6.6c0.547 0 1 0.453 1 1s-0.453 1-1 1z"></path>
<path d="M11 30.333c-0.547 0-1-0.453-1-1v-5c0-0.547 0.453-1 1-1s1 0.453 1 1v5c0 0.547-0.453 1-1 1z"></path>
</svg>
