<!-- Generated by IcoMoon.io -->
<svg version="1.1" xmlns="http://www.w3.org/2000/svg" width="32" height="32" viewBox="0 0 32 32">
<title>buildings-2</title>
<path d="M8.933 25h-3.4c-2.453 0-3.867-1.413-3.867-3.867v-15.6c0-2.453 1.413-3.867 3.867-3.867h5.733c2.453 0 3.867 1.413 3.867 3.867v2.467c0 0.547-0.453 1-1 1s-1-0.453-1-1v-2.467c0-1.36-0.507-1.867-1.867-1.867h-5.733c-1.36 0-1.867 0.507-1.867 1.867v15.6c0 1.36 0.507 1.867 1.867 1.867h3.4c0.547 0 1 0.453 1 1s-0.453 1-1 1z"></path>
<path d="M19.947 30.333h-7.787c-2.68 0-4.227-1.547-4.227-4.227v-14.88c0-2.68 1.547-4.227 4.227-4.227h7.787c2.68 0 4.213 1.547 4.213 4.227v14.88c0 2.68-1.533 4.227-4.213 4.227zM12.16 9c-1.6 0-2.227 0.627-2.227 2.227v14.88c0 1.6 0.627 2.227 2.227 2.227h7.787c1.587 0 2.213-0.627 2.213-2.227v-14.88c0-1.6-0.627-2.227-2.213-2.227h-7.787z"></path>
<path d="M26.467 25h-3.307c-0.547 0-1-0.453-1-1s0.453-1 1-1h3.307c1.36 0 1.867-0.507 1.867-1.867v-15.6c0-1.36-0.507-1.867-1.867-1.867h-5.733c-1.36 0-1.867 0.507-1.867 1.867v2.467c0 0.547-0.453 1-1 1s-1-0.453-1-1v-2.467c0-2.453 1.413-3.867 3.867-3.867h5.733c2.453 0 3.867 1.413 3.867 3.867v15.6c0 2.453-1.413 3.867-3.867 3.867z"></path>
<path d="M18.667 15.667h-5.333c-0.547 0-1-0.453-1-1s0.453-1 1-1h5.333c0.547 0 1 0.453 1 1s-0.453 1-1 1z"></path>
<path d="M18.667 19.667h-5.333c-0.547 0-1-0.453-1-1s0.453-1 1-1h5.333c0.547 0 1 0.453 1 1s-0.453 1-1 1z"></path>
<path d="M16 30.333c-0.547 0-1-0.453-1-1v-4c0-0.547 0.453-1 1-1s1 0.453 1 1v4c0 0.547-0.453 1-1 1z"></path>
</svg>
