<!-- Generated by IcoMoon.io -->
<svg version="1.1" xmlns="http://www.w3.org/2000/svg" width="32" height="32" viewBox="0 0 32 32">
<title>building</title>
<path d="M16.666 30.334h-11.227c-2.093 0-3.813-1.68-3.813-3.76v-19.787c0-2.040 0.76-3.627 2.147-4.493 1.4-0.88 3.213-0.853 5.093 0.080l5.92 2.907c1.613 0.8 2.88 2.813 2.88 4.6v19.453c0 0.547-0.453 1-1 1zM6.080 3.667c-0.467 0-0.893 0.107-1.253 0.333-0.773 0.48-1.2 1.48-1.2 2.787v19.787c0 0.973 0.813 1.76 1.813 1.76h10.227v-18.453c0-1.027-0.827-2.347-1.773-2.8l-5.92-2.907c-0.68-0.333-1.32-0.507-1.893-0.507z"></path>
<path d="M25.080 30.333h-8.413c-0.547 0-1-0.453-1-1v-15.44c0-0.307 0.133-0.587 0.373-0.773s0.533-0.267 0.84-0.2l0.627 0.133 8.72 1.947c2.653 0.587 3.987 2.147 4.067 4.8 0.013 0 0.013 0.133 0.013 0.28v5.040c-0.013 3.413-1.813 5.213-5.227 5.213zM17.667 28.333h7.413c2.347 0 3.213-0.867 3.213-3.213v-5.147c-0.067-1.827-0.76-2.64-2.507-3.027l-8.12-1.813v13.2z"></path>
<path d="M11.96 13h-4.627c-0.547 0-1-0.453-1-1s0.453-1 1-1h4.627c0.547 0 1 0.453 1 1s-0.44 1-1 1z"></path>
<path d="M11.96 18.333h-4.627c-0.547 0-1-0.453-1-1s0.453-1 1-1h4.627c0.547 0 1 0.453 1 1s-0.44 1-1 1z"></path>
<path d="M20.293 23.667c-2.2 0-4-1.8-4-4v-5.64c0-0.307 0.133-0.587 0.373-0.787s0.547-0.267 0.84-0.2l6 1.347c0.453 0.107 0.787 0.507 0.787 0.973v4.293c0 2.213-1.787 4.013-4 4.013zM18.293 15.28v4.387c0 1.107 0.893 2 2 2s2-0.893 2-2v-3.493l-4-0.893z"></path>
<path d="M26.293 23.667c-2.2 0-4-1.8-4-4v-4.293c0-0.307 0.133-0.587 0.373-0.773s0.547-0.267 0.84-0.2l2.707 0.6c2.653 0.587 3.987 2.147 4.067 4.8 0 0.027 0 0.053 0 0.080-0.107 2.12-1.853 3.787-3.987 3.787zM24.293 16.613v3.053c0 1.107 0.893 2 2 2 1.053 0 1.92-0.813 1.987-1.853-0.067-1.68-0.76-2.48-2.493-2.867l-1.493-0.333z"></path>
</svg>
