<!-- Generated by IcoMoon.io -->
<svg version="1.1" xmlns="http://www.w3.org/2000/svg" width="32" height="32" viewBox="0 0 32 32">
<title>building-3</title>
<path d="M29.333 30.333h-26.667c-0.547 0-1-0.453-1-1s0.453-1 1-1h26.667c0.547 0 1 0.453 1 1s-0.453 1-1 1z"></path>
<path d="M4.013 30.347c-0.267 0-0.52-0.107-0.707-0.293s-0.293-0.44-0.293-0.707l-0.013-19.92c0-1.213 0.613-2.36 1.627-3.040l5.333-3.56c1.24-0.827 2.84-0.827 4.067 0l5.333 3.56c1.027 0.68 1.627 1.813 1.627 3.040l0.013 19.893c0 0.547-0.44 1-1 1l-15.987 0.027zM12 4.2c-0.32 0-0.64 0.093-0.92 0.28l-5.333 3.56c-0.467 0.307-0.747 0.827-0.747 1.387l0.013 18.92 14-0.027-0.013-18.893c0-0.56-0.28-1.080-0.733-1.373l-5.333-3.56c-0.28-0.2-0.613-0.293-0.933-0.293z"></path>
<path d="M26.641 30.347c-0.547 0-1-0.453-1-1v-5.347c0-0.547 0.453-1 1-1s1 0.453 1 1v5.347c0 0.547-0.44 1-1 1z"></path>
<path d="M26.667 25c-2.027 0-3.667-1.64-3.667-3.667v-2.667c0-2.027 1.64-3.667 3.667-3.667s3.667 1.64 3.667 3.667v2.667c0 2.027-1.64 3.667-3.667 3.667zM26.667 17c-0.92 0-1.667 0.747-1.667 1.667v2.667c0 0.92 0.747 1.667 1.667 1.667s1.667-0.747 1.667-1.667v-2.667c0-0.92-0.747-1.667-1.667-1.667z"></path>
<path d="M20 19.667h-16c-0.547 0-1-0.453-1-1s0.453-1 1-1h16c0.547 0 1 0.453 1 1s-0.453 1-1 1z"></path>
<path d="M12 30.333c-0.547 0-1-0.453-1-1v-5c0-0.547 0.453-1 1-1s1 0.453 1 1v5c0 0.547-0.453 1-1 1z"></path>
<path d="M12 15c-1.653 0-3-1.347-3-3s1.347-3 3-3c1.653 0 3 1.347 3 3s-1.347 3-3 3zM12 11c-0.547 0-1 0.453-1 1s0.453 1 1 1c0.547 0 1-0.453 1-1s-0.453-1-1-1z"></path>
</svg>
