<!-- Generated by IcoMoon.io -->
<svg version="1.1" xmlns="http://www.w3.org/2000/svg" width="32" height="32" viewBox="0 0 32 32">
<title>bus</title>
<path d="M22.533 30.333h-13.067c-2.827 0-5.133-2.307-5.133-5.133v-18.4c0-2.827 2.307-5.133 5.133-5.133h13.067c2.827 0 5.133 2.307 5.133 5.133v18.4c0 2.827-2.307 5.133-5.133 5.133zM9.467 3.667c-1.72 0-3.133 1.4-3.133 3.133v18.4c0 1.72 1.4 3.133 3.133 3.133h13.067c1.72 0 3.133-1.4 3.133-3.133v-18.4c0-1.72-1.4-3.133-3.133-3.133h-13.067z"></path>
<path d="M24.667 18.333h-17.333c-1.653 0-3-1.347-3-3v-2.667c0-1.653 1.347-3 3-3h17.333c1.653 0 3 1.347 3 3v2.667c0 1.653-1.347 3-3 3zM7.333 11.667c-0.547 0-1 0.453-1 1v2.667c0 0.547 0.453 1 1 1h17.333c0.547 0 1-0.453 1-1v-2.667c0-0.547-0.453-1-1-1h-17.333z"></path>
<path d="M10.667 25c-0.44 0-0.867-0.173-1.173-0.493-0.080-0.067-0.147-0.16-0.213-0.253-0.053-0.080-0.107-0.187-0.147-0.28-0.053-0.107-0.080-0.213-0.107-0.32-0.013-0.107-0.027-0.213-0.027-0.32s0.013-0.213 0.027-0.32c0.027-0.107 0.053-0.213 0.107-0.32 0.040-0.093 0.093-0.2 0.147-0.28 0.067-0.093 0.133-0.187 0.213-0.253 0.613-0.627 1.72-0.627 2.347 0 0.080 0.067 0.147 0.16 0.213 0.253 0.053 0.080 0.107 0.187 0.147 0.28 0.053 0.107 0.080 0.213 0.107 0.32 0.013 0.107 0.027 0.213 0.027 0.32s-0.013 0.213-0.027 0.32c-0.027 0.107-0.053 0.213-0.107 0.32-0.040 0.093-0.093 0.2-0.147 0.28-0.067 0.093-0.133 0.187-0.213 0.253-0.307 0.32-0.733 0.493-1.173 0.493z"></path>
<path d="M21.333 25c-0.44 0-0.867-0.173-1.173-0.493-0.32-0.307-0.493-0.733-0.493-1.173s0.173-0.867 0.493-1.173c0.613-0.627 1.733-0.627 2.347 0 0.32 0.307 0.493 0.733 0.493 1.173s-0.173 0.867-0.493 1.173c-0.307 0.32-0.733 0.493-1.173 0.493z"></path>
<path d="M19.333 7.667h-6.667c-0.547 0-1-0.453-1-1s0.453-1 1-1h6.667c0.547 0 1 0.453 1 1s-0.453 1-1 1z"></path>
</svg>
