<!-- Generated by IcoMoon.io -->
<svg version="1.1" xmlns="http://www.w3.org/2000/svg" width="32" height="32" viewBox="0 0 32 32">
<title>buy-crypto</title>
<path d="M20.666 21c-0.24 0-0.507-0.013-0.747-0.027-0.493-0.027-0.893-0.427-0.933-0.92-0.293-3.72-3.32-6.733-7.027-7.027-0.493-0.040-0.893-0.44-0.92-0.933-0.013-0.24-0.027-0.507-0.027-0.747 0-5.333 4.333-9.667 9.667-9.667s9.667 4.333 9.667 9.667c0 5.333-4.347 9.653-9.68 9.653zM13 11.147c3.973 0.707 7.16 3.88 7.853 7.853 4.147-0.107 7.48-3.493 7.48-7.667 0-4.227-3.44-7.667-7.667-7.667-4.16 0-7.56 3.333-7.667 7.48z"></path>
<path d="M11.333 30.333c-5.333 0-9.667-4.333-9.667-9.667s4.333-9.667 9.667-9.667c0.24 0 0.507 0.013 0.747 0.027 4.707 0.373 8.52 4.187 8.88 8.867 0.013 0.267 0.027 0.533 0.027 0.773 0.013 5.333-4.32 9.667-9.653 9.667zM11.333 13c-4.227 0-7.667 3.44-7.667 7.667s3.44 7.667 7.667 7.667c4.227 0 7.667-3.44 7.667-7.667 0-0.213-0.013-0.427-0.027-0.64-0.293-3.693-3.32-6.72-7.027-7.013-0.187 0-0.4-0.013-0.613-0.013z"></path>
<path d="M11.333 25c-0.36 0-0.707-0.2-0.88-0.52l-1.040-1.893-1.893-1.040c-0.32-0.173-0.52-0.507-0.52-0.88s0.2-0.707 0.52-0.88l1.893-1.040 1.040-1.893c0.347-0.64 1.4-0.64 1.76 0l1.040 1.893 1.893 1.040c0.32 0.173 0.52 0.507 0.52 0.88s-0.2 0.707-0.52 0.88l-1.893 1.040-1.040 1.893c-0.173 0.32-0.52 0.52-0.88 0.52zM10.080 20.667l0.547 0.307c0.173 0.093 0.307 0.227 0.4 0.4l0.307 0.547 0.307-0.547c0.093-0.173 0.227-0.307 0.4-0.4l0.547-0.307-0.547-0.307c-0.173-0.093-0.307-0.227-0.4-0.4l-0.307-0.547-0.307 0.547c-0.093 0.173-0.227 0.307-0.4 0.4l-0.547 0.307z"></path>
</svg>
