<!-- Generated by IcoMoon.io -->
<svg version="1.1" xmlns="http://www.w3.org/2000/svg" width="32" height="32" viewBox="0 0 32 32">
<title>cake</title>
<path d="M29.333 30.333h-26.667c-0.547 0-1-0.453-1-1s0.453-1 1-1h26.667c0.547 0 1 0.453 1 1s-0.453 1-1 1z"></path>
<path d="M27.853 30.333c-0.547 0-1-0.453-1-1v-12c0-1.653-1.547-3-3.44-3h-14.827c-1.893 0-3.44 1.347-3.44 3v12c0 0.547-0.453 1-1 1s-1-0.453-1-1v-12c0-2.76 2.44-5 5.44-5h14.813c3 0 5.44 2.24 5.44 5v12c0.013 0.547-0.44 1-0.987 1z"></path>
<path d="M24.587 14.333c-0.547 0-1-0.453-1-1v-3.773c0-1.040-1-1.893-2.213-1.893h-10.733c-1.227 0-2.213 0.853-2.213 1.893v3.773c0 0.547-0.453 1-1 1s-1.013-0.453-1.013-1v-3.773c0-2.147 1.893-3.893 4.213-3.893h10.733c2.32 0 4.213 1.747 4.213 3.893v3.773c0.013 0.547-0.44 1-0.987 1z"></path>
<path d="M23.108 23.667c-1.547 0-2.8-1.253-2.8-2.8v-0.413c0-0.44-0.36-0.8-0.8-0.8s-0.8 0.36-0.8 0.8v0.413c0 1.547-1.253 2.8-2.8 2.8s-2.8-1.253-2.8-2.8v-0.413c0-0.44-0.36-0.8-0.8-0.8s-0.8 0.36-0.8 0.8v0.413c0 1.547-1.253 2.8-2.8 2.8s-2.8-1.253-2.8-2.8v-0.44c0-0.427-0.347-0.787-0.787-0.8h-0.493c-0.547-0.013-1-0.467-0.987-1.013s0.453-0.987 1-0.987h0.507c1.52 0.027 2.76 1.28 2.76 2.8v0.44c0 0.44 0.36 0.8 0.8 0.8s0.8-0.36 0.8-0.8v-0.413c0-1.547 1.253-2.8 2.8-2.8s2.8 1.253 2.8 2.8v0.413c0 0.44 0.36 0.8 0.8 0.8s0.8-0.36 0.8-0.8v-0.413c0-1.547 1.253-2.8 2.8-2.8s2.8 1.253 2.8 2.8v0.413c0 0.44 0.36 0.8 0.8 0.8s0.8-0.36 0.8-0.8v-0.413c0-1.547 1.253-2.8 2.8-2.8h0.6c0.547 0 1 0.453 1 1s-0.453 1-1 1h-0.6c-0.44 0-0.8 0.36-0.8 0.8v0.413c0 1.547-1.253 2.8-2.8 2.8z"></path>
<path d="M10.667 7.667c-0.547 0-1-0.453-1-1v-2.667c0-0.547 0.453-1 1-1s1 0.453 1 1v2.667c0 0.547-0.453 1-1 1z"></path>
<path d="M21.333 7.667c-0.547 0-1-0.453-1-1v-2.667c0-0.547 0.453-1 1-1s1 0.453 1 1v2.667c0 0.547-0.453 1-1 1z"></path>
<path d="M16 7.667c-0.547 0-1-0.453-1-1v-4c0-0.547 0.453-1 1-1s1 0.453 1 1v4c0 0.547-0.453 1-1 1z"></path>
</svg>
