<!-- Generated by IcoMoon.io -->
<svg version="1.1" xmlns="http://www.w3.org/2000/svg" width="32" height="32" viewBox="0 0 32 32">
<title>calculator</title>
<path d="M18.667 30.333h-5.333c-7.24 0-10.333-3.093-10.333-10.333v-8c0-7.24 3.093-10.333 10.333-10.333h5.333c7.24 0 10.333 3.093 10.333 10.333v8c0 7.24-3.093 10.333-10.333 10.333zM13.333 3.667c-6.147 0-8.333 2.187-8.333 8.333v8c0 6.147 2.187 8.333 8.333 8.333h5.333c6.147 0 8.333-2.187 8.333-8.333v-8c0-6.147-2.187-8.333-8.333-8.333h-5.333z"></path>
<path d="M20 14.44h-8c-1.653 0-3-1.347-3-3v-1.333c0-1.653 1.347-3 3-3h8c1.653 0 3 1.347 3 3v1.333c0 1.653-1.347 3-3 3zM12 9.107c-0.547 0-1 0.453-1 1v1.333c0 0.547 0.453 1 1 1h8c0.547 0 1-0.453 1-1v-1.333c0-0.547-0.453-1-1-1h-8z"></path>
<path d="M10.867 19.893c-0.173 0-0.347-0.040-0.507-0.107s-0.307-0.16-0.427-0.28c-0.253-0.253-0.387-0.587-0.387-0.947 0-0.173 0.027-0.347 0.093-0.507 0.067-0.173 0.16-0.307 0.293-0.44 0.053-0.053 0.12-0.12 0.2-0.16 0.067-0.053 0.147-0.093 0.227-0.12 0.080-0.040 0.173-0.067 0.253-0.080 0.427-0.093 0.893 0.053 1.2 0.36 0.12 0.12 0.227 0.267 0.293 0.44 0.067 0.16 0.107 0.333 0.107 0.507 0 0.36-0.147 0.693-0.4 0.947s-0.587 0.387-0.947 0.387z"></path>
<path d="M16.214 19.893c-0.36 0-0.693-0.133-0.947-0.387s-0.387-0.587-0.387-0.947c0-0.173 0.027-0.347 0.093-0.507 0.067-0.173 0.16-0.307 0.293-0.44 0.053-0.053 0.12-0.12 0.2-0.16 0.067-0.053 0.147-0.093 0.227-0.12 0.080-0.040 0.173-0.067 0.253-0.080 0.253-0.053 0.52-0.027 0.773 0.080 0.16 0.067 0.307 0.16 0.427 0.28 0.12 0.133 0.227 0.267 0.293 0.44 0.067 0.16 0.107 0.333 0.107 0.507 0 0.36-0.147 0.693-0.4 0.947s-0.587 0.387-0.933 0.387z"></path>
<path d="M21.534 19.893c-0.173 0-0.347-0.040-0.507-0.107s-0.307-0.16-0.427-0.28c-0.133-0.133-0.227-0.28-0.293-0.44s-0.093-0.333-0.093-0.507c0-0.173 0.027-0.347 0.093-0.507 0.067-0.173 0.16-0.307 0.293-0.44 0.493-0.493 1.387-0.493 1.88 0 0.253 0.253 0.4 0.6 0.4 0.947 0 0.36-0.147 0.693-0.4 0.947-0.24 0.24-0.573 0.387-0.947 0.387z"></path>
<path d="M10.881 25.227c-0.36 0-0.693-0.133-0.947-0.387s-0.4-0.587-0.4-0.947c0-0.347 0.147-0.693 0.4-0.947 0.053-0.053 0.133-0.12 0.2-0.16 0.067-0.053 0.147-0.093 0.227-0.12 0.080-0.040 0.173-0.067 0.253-0.080 0.44-0.080 0.893 0.053 1.2 0.36 0.067 0.067 0.12 0.133 0.173 0.2 0.040 0.080 0.080 0.16 0.12 0.24 0.027 0.080 0.053 0.16 0.080 0.24 0.013 0.093 0.027 0.173 0.027 0.267 0 0.36-0.147 0.693-0.4 0.947s-0.587 0.387-0.933 0.387z"></path>
<path d="M16.214 25.227c-0.36 0-0.693-0.133-0.947-0.387s-0.4-0.587-0.4-0.947c0-0.347 0.147-0.693 0.4-0.947 0.307-0.307 0.773-0.44 1.2-0.36 0.080 0.013 0.173 0.040 0.253 0.080 0.080 0.027 0.16 0.067 0.227 0.12 0.067 0.040 0.133 0.107 0.2 0.16 0.253 0.253 0.387 0.6 0.387 0.947 0 0.36-0.133 0.693-0.387 0.947s-0.587 0.387-0.933 0.387z"></path>
<path d="M21.534 25.227c-0.347 0-0.68-0.133-0.933-0.387s-0.387-0.587-0.387-0.947c0-0.347 0.133-0.693 0.387-0.947 0.12-0.12 0.267-0.213 0.427-0.28 0.493-0.2 1.093-0.093 1.453 0.28 0.253 0.253 0.387 0.6 0.387 0.947 0 0.36-0.133 0.693-0.387 0.947-0.12 0.12-0.267 0.213-0.427 0.28s-0.333 0.107-0.52 0.107z"></path>
</svg>
