<!-- Generated by IcoMoon.io -->
<svg version="1.1" xmlns="http://www.w3.org/2000/svg" width="32" height="32" viewBox="0 0 32 32">
<title>calendar</title>
<path d="M10.667 7.667c-0.547 0-1-0.453-1-1v-4c0-0.547 0.453-1 1-1s1 0.453 1 1v4c0 0.547-0.453 1-1 1z"></path>
<path d="M21.333 7.667c-0.547 0-1-0.453-1-1v-4c0-0.547 0.453-1 1-1s1 0.453 1 1v4c0 0.547-0.453 1-1 1z"></path>
<path d="M20 30.333h-8c-7.493 0-9-3.533-9-9.24v-8.227c0-6.32 2.133-8.893 7.613-9.2h10.72c0.013 0 0.040 0 0.053 0 5.48 0.307 7.613 2.88 7.613 9.2v8.227c0 5.707-1.507 9.24-9 9.24zM10.667 5.667c-3.733 0.213-5.667 1.387-5.667 7.2v8.227c0 5.107 0.973 7.24 7 7.24h8c6.027 0 7-2.133 7-7.24v-8.227c0-5.8-1.92-6.987-5.693-7.2h-10.64z"></path>
<path d="M27.667 24.467h-23.333c-0.547 0-1-0.453-1-1s0.453-1 1-1h23.333c0.547 0 1 0.453 1 1s-0.453 1-1 1z"></path>
<path d="M16 11c-1.64 0-3.027 0.893-3.027 2.627 0 0.827 0.387 1.453 0.973 1.853-0.813 0.48-1.28 1.253-1.28 2.16 0 1.653 1.267 2.68 3.333 2.68 2.053 0 3.333-1.027 3.333-2.68 0-0.907-0.467-1.693-1.293-2.16 0.6-0.413 0.973-1.027 0.973-1.853 0-1.733-1.373-2.627-3.013-2.627zM16 14.787c-0.693 0-1.2-0.413-1.2-1.067 0-0.667 0.507-1.053 1.2-1.053s1.2 0.387 1.2 1.053c0 0.653-0.507 1.067-1.2 1.067zM16 18.667c-0.88 0-1.52-0.44-1.52-1.24s0.64-1.227 1.52-1.227c0.88 0 1.52 0.44 1.52 1.227 0 0.8-0.64 1.24-1.52 1.24z"></path>
</svg>
