<!-- Generated by IcoMoon.io -->
<svg version="1.1" xmlns="http://www.w3.org/2000/svg" width="32" height="32" viewBox="0 0 32 32">
<title>calendar-circle</title>
<path d="M16 30.333c-7.907 0-14.333-6.427-14.333-14.333s6.427-14.333 14.333-14.333c7.907 0 14.333 6.427 14.333 14.333s-6.427 14.333-14.333 14.333zM16 3.667c-6.8 0-12.333 5.533-12.333 12.333s5.533 12.333 12.333 12.333c6.8 0 12.333-5.533 12.333-12.333s-5.533-12.333-12.333-12.333z"></path>
<path d="M13.188 11.44c-0.547 0-1-0.453-1-1v-2.667c0-0.547 0.453-1 1-1s1 0.453 1 1v2.667c0 0.547-0.44 1-1 1z"></path>
<path d="M18.813 11.44c-0.547 0-1-0.453-1-1v-2.667c0-0.547 0.453-1 1-1s1 0.453 1 1v2.667c0 0.547-0.453 1-1 1z"></path>
<path d="M21.959 14.52h-11.933c-0.547 0-1-0.453-1-1s0.453-1 1-1h11.933c0.547 0 1 0.453 1 1s-0.44 1-1 1z"></path>
<path d="M18 24.56h-4c-3.667 0-6.333-2.667-6.333-6.333v-4c0-3.667 2.667-6.333 6.333-6.333h4c3.667 0 6.333 2.667 6.333 6.333v4c0 3.667-2.667 6.333-6.333 6.333zM14 9.893c-3 0-4.333 2.173-4.333 4.333v4c0 2.16 1.333 4.333 4.333 4.333h4c3 0 4.333-2.173 4.333-4.333v-4c0-2.16-1.333-4.333-4.333-4.333h-4z"></path>
</svg>
