<!-- Generated by IcoMoon.io -->
<svg version="1.1" xmlns="http://www.w3.org/2000/svg" width="32" height="32" viewBox="0 0 32 32">
<title>calendar-edit</title>
<path d="M10.667 7.667c-0.547 0-1-0.453-1-1v-4c0-0.547 0.453-1 1-1s1 0.453 1 1v4c0 0.547-0.453 1-1 1z"></path>
<path d="M21.333 7.667c-0.547 0-1-0.453-1-1v-4c0-0.547 0.453-1 1-1s1 0.453 1 1v4c0 0.547-0.453 1-1 1z"></path>
<path d="M11.333 19.333c-0.173 0-0.347-0.040-0.507-0.107-0.173-0.067-0.307-0.16-0.44-0.28-0.24-0.253-0.387-0.6-0.387-0.947s0.147-0.693 0.387-0.947c0.133-0.12 0.28-0.213 0.44-0.28 0.32-0.133 0.693-0.133 1.013 0 0.16 0.067 0.307 0.16 0.44 0.28 0.053 0.067 0.12 0.133 0.16 0.2 0.053 0.080 0.093 0.16 0.12 0.24 0.040 0.080 0.067 0.16 0.080 0.24 0.013 0.093 0.027 0.187 0.027 0.267 0 0.347-0.147 0.693-0.387 0.947-0.133 0.12-0.28 0.213-0.44 0.28s-0.333 0.107-0.507 0.107z"></path>
<path d="M16 19.333c-0.173 0-0.347-0.040-0.507-0.107-0.173-0.067-0.307-0.16-0.44-0.28-0.24-0.253-0.387-0.6-0.387-0.947 0-0.080 0.013-0.173 0.027-0.267 0.013-0.080 0.040-0.16 0.080-0.24 0.027-0.080 0.067-0.16 0.12-0.24 0.053-0.067 0.107-0.133 0.16-0.2 0.493-0.493 1.387-0.493 1.893 0 0.053 0.067 0.107 0.133 0.16 0.2 0.053 0.080 0.093 0.16 0.12 0.24 0.040 0.080 0.067 0.16 0.080 0.24 0.013 0.093 0.027 0.187 0.027 0.267 0 0.347-0.147 0.693-0.387 0.947-0.253 0.24-0.587 0.387-0.947 0.387z"></path>
<path d="M11.333 24c-0.173 0-0.347-0.040-0.507-0.107s-0.307-0.16-0.44-0.28c-0.24-0.253-0.387-0.6-0.387-0.947 0-0.080 0.013-0.173 0.027-0.253 0.013-0.093 0.040-0.173 0.080-0.253 0.027-0.080 0.067-0.16 0.12-0.24 0.040-0.067 0.107-0.133 0.16-0.2 0.133-0.12 0.28-0.213 0.44-0.28 0.32-0.133 0.693-0.133 1.013 0 0.16 0.067 0.307 0.16 0.44 0.28 0.053 0.067 0.12 0.133 0.16 0.2 0.053 0.080 0.093 0.16 0.12 0.24 0.040 0.080 0.067 0.16 0.080 0.253 0.013 0.080 0.027 0.173 0.027 0.253 0 0.347-0.147 0.693-0.387 0.947-0.133 0.12-0.28 0.213-0.44 0.28s-0.333 0.107-0.507 0.107z"></path>
<path d="M27.333 13.12h-22.667c-0.547 0-1-0.453-1-1s0.453-1 1-1h22.667c0.547 0 1 0.453 1 1s-0.453 1-1 1z"></path>
<path d="M21.093 30.373c-0.507 0-0.987-0.187-1.333-0.533-0.413-0.413-0.6-1.013-0.507-1.64l0.253-1.8c0.067-0.467 0.347-1.027 0.68-1.36l4.72-4.72c0.64-0.64 1.267-0.973 1.947-1.040 0.84-0.080 1.653 0.267 2.427 1.040 0.813 0.813 1.907 2.467 0 4.373l-4.72 4.72c-0.333 0.333-0.893 0.613-1.36 0.68l-1.8 0.253c-0.107 0.013-0.2 0.027-0.307 0.027zM27.079 21.267c-0.013 0-0.027 0-0.040 0-0.187 0.013-0.44 0.187-0.72 0.467l-4.72 4.72c-0.040 0.040-0.107 0.173-0.107 0.227l-0.24 1.667 1.667-0.24c0.053-0.013 0.187-0.080 0.227-0.12l4.72-4.72c0.587-0.587 0.667-0.88 0-1.547-0.213-0.2-0.52-0.453-0.787-0.453z"></path>
<path d="M27.894 25.667c-0.093 0-0.187-0.013-0.267-0.040-1.76-0.493-3.16-1.893-3.653-3.653-0.147-0.533 0.16-1.080 0.693-1.24 0.533-0.147 1.080 0.16 1.24 0.693 0.307 1.093 1.173 1.96 2.267 2.267 0.533 0.147 0.84 0.707 0.693 1.24-0.133 0.44-0.533 0.733-0.973 0.733z"></path>
<path d="M16 30.333h-5.333c-4.867 0-7.667-2.8-7.667-7.667v-11.333c0-4.867 2.8-7.667 7.667-7.667h10.667c4.867 0 7.667 2.8 7.667 7.667v4.667c0 0.547-0.453 1-1 1s-1-0.453-1-1v-4.667c0-3.813-1.853-5.667-5.667-5.667h-10.667c-3.813 0-5.667 1.853-5.667 5.667v11.333c0 3.813 1.853 5.667 5.667 5.667h5.333c0.547 0 1 0.453 1 1s-0.453 1-1 1z"></path>
</svg>
