<!-- Generated by IcoMoon.io -->
<svg version="1.1" xmlns="http://www.w3.org/2000/svg" width="32" height="32" viewBox="0 0 32 32">
<title>calendar-search</title>
<path d="M10.667 7.667c-0.547 0-1-0.453-1-1v-4c0-0.547 0.453-1 1-1s1 0.453 1 1v4c0 0.547-0.453 1-1 1z"></path>
<path d="M21.333 7.667c-0.547 0-1-0.453-1-1v-4c0-0.547 0.453-1 1-1s1 0.453 1 1v4c0 0.547-0.453 1-1 1z"></path>
<path d="M24.267 29.533c-2.907 0-5.267-2.36-5.267-5.267s2.36-5.267 5.267-5.267c2.907 0 5.267 2.36 5.267 5.267s-2.36 5.267-5.267 5.267zM24.267 21c-1.8 0-3.267 1.467-3.267 3.267s1.467 3.267 3.267 3.267c1.8 0 3.267-1.467 3.267-3.267s-1.467-3.267-3.267-3.267z"></path>
<path d="M29.333 30.333c-0.253 0-0.507-0.093-0.707-0.293l-1.333-1.333c-0.387-0.387-0.387-1.027 0-1.413s1.027-0.387 1.413 0l1.333 1.333c0.387 0.387 0.387 1.027 0 1.413-0.2 0.2-0.453 0.293-0.707 0.293z"></path>
<path d="M11.333 19.333c-0.173 0-0.347-0.040-0.507-0.107-0.173-0.067-0.32-0.16-0.44-0.28-0.053-0.067-0.12-0.133-0.16-0.2-0.053-0.080-0.093-0.16-0.12-0.24-0.040-0.080-0.067-0.16-0.080-0.24-0.013-0.093-0.027-0.187-0.027-0.267 0-0.347 0.147-0.693 0.387-0.947 0.12-0.12 0.267-0.213 0.44-0.28 0.48-0.213 1.080-0.093 1.453 0.28 0.24 0.253 0.387 0.6 0.387 0.947 0 0.080-0.013 0.173-0.027 0.267-0.013 0.080-0.040 0.16-0.080 0.24-0.027 0.080-0.067 0.16-0.12 0.24-0.053 0.067-0.107 0.133-0.16 0.2-0.253 0.24-0.6 0.387-0.947 0.387z"></path>
<path d="M16 19.333c-0.347 0-0.693-0.147-0.947-0.387-0.24-0.253-0.387-0.587-0.387-0.947 0-0.173 0.040-0.347 0.107-0.507s0.16-0.307 0.28-0.44c0.493-0.493 1.387-0.493 1.893 0 0.24 0.253 0.387 0.6 0.387 0.947 0 0.080-0.013 0.173-0.027 0.267-0.013 0.080-0.040 0.16-0.080 0.24-0.027 0.080-0.067 0.16-0.12 0.24-0.053 0.067-0.107 0.133-0.16 0.2-0.253 0.24-0.6 0.387-0.947 0.387z"></path>
<path d="M11.333 24c-0.347 0-0.693-0.147-0.947-0.387-0.24-0.253-0.387-0.6-0.387-0.947 0-0.173 0.040-0.347 0.107-0.507 0.067-0.173 0.16-0.32 0.28-0.44 0.493-0.493 1.4-0.493 1.893 0 0.24 0.253 0.387 0.6 0.387 0.947s-0.147 0.693-0.387 0.947c-0.253 0.24-0.6 0.387-0.947 0.387z"></path>
<path d="M27.333 13.12h-22.667c-0.547 0-1-0.453-1-1s0.453-1 1-1h22.667c0.547 0 1 0.453 1 1s-0.453 1-1 1z"></path>
<path d="M17.827 30.333h-7.16c-4.867 0-7.667-2.8-7.667-7.667v-11.333c0-4.867 2.8-7.667 7.667-7.667h10.667c4.867 0 7.667 2.8 7.667 7.667v6c0 0.547-0.453 1-1 1s-1-0.453-1-1v-6c0-3.813-1.853-5.667-5.667-5.667h-10.667c-3.813 0-5.667 1.853-5.667 5.667v11.333c0 3.813 1.853 5.667 5.667 5.667h7.16c0.547 0 1 0.453 1 1s-0.453 1-1 1z"></path>
</svg>
