<!-- Generated by IcoMoon.io -->
<svg version="1.1" xmlns="http://www.w3.org/2000/svg" width="32" height="32" viewBox="0 0 32 32">
<title>calendar-tick</title>
<path d="M10.667 7.667c-0.547 0-1-0.453-1-1v-4c0-0.547 0.453-1 1-1s1 0.453 1 1v4c0 0.547-0.453 1-1 1z"></path>
<path d="M21.333 7.667c-0.547 0-1-0.453-1-1v-4c0-0.547 0.453-1 1-1s1 0.453 1 1v4c0 0.547-0.453 1-1 1z"></path>
<path d="M11.333 19.333c-0.347 0-0.693-0.147-0.947-0.387-0.24-0.253-0.387-0.587-0.387-0.947 0-0.173 0.040-0.347 0.107-0.507s0.16-0.307 0.28-0.44c0.493-0.493 1.387-0.493 1.893 0 0.24 0.253 0.387 0.6 0.387 0.947 0 0.080-0.013 0.173-0.027 0.267-0.013 0.080-0.040 0.16-0.080 0.24-0.027 0.080-0.067 0.16-0.12 0.24-0.053 0.067-0.107 0.133-0.16 0.2-0.253 0.24-0.6 0.387-0.947 0.387z"></path>
<path d="M16 19.333c-0.173 0-0.347-0.040-0.507-0.107-0.173-0.067-0.307-0.16-0.44-0.28-0.24-0.253-0.387-0.587-0.387-0.947 0-0.173 0.040-0.347 0.107-0.507s0.16-0.307 0.28-0.44c0.133-0.12 0.267-0.213 0.44-0.28 0.493-0.2 1.080-0.093 1.453 0.28 0.24 0.253 0.387 0.6 0.387 0.947 0 0.080-0.013 0.173-0.027 0.267-0.013 0.080-0.040 0.16-0.080 0.24-0.027 0.080-0.067 0.16-0.12 0.24-0.040 0.067-0.107 0.133-0.16 0.2-0.253 0.24-0.6 0.387-0.947 0.387z"></path>
<path d="M11.333 24c-0.173 0-0.347-0.040-0.507-0.107-0.173-0.067-0.32-0.16-0.44-0.28s-0.213-0.267-0.28-0.44c-0.067-0.16-0.107-0.333-0.107-0.507s0.040-0.347 0.107-0.507c0.067-0.173 0.16-0.32 0.28-0.44s0.267-0.213 0.44-0.28c0.32-0.133 0.693-0.147 1.013 0 0.173 0.067 0.32 0.16 0.44 0.28s0.213 0.267 0.28 0.44c0.067 0.16 0.107 0.333 0.107 0.507s-0.040 0.347-0.107 0.507c-0.067 0.173-0.16 0.32-0.28 0.44s-0.267 0.213-0.44 0.28c-0.16 0.067-0.333 0.107-0.507 0.107z"></path>
<path d="M27.333 13.12h-22.667c-0.547 0-1-0.453-1-1s0.453-1 1-1h22.667c0.547 0 1 0.453 1 1s-0.453 1-1 1z"></path>
<path d="M24 31.667c-1.56 0-3.040-0.56-4.173-1.587-0.48-0.4-0.907-0.907-1.253-1.493-0.587-0.96-0.907-2.093-0.907-3.253 0-3.493 2.84-6.333 6.333-6.333 1.813 0 3.547 0.787 4.747 2.147 1.027 1.173 1.587 2.653 1.587 4.187 0 1.16-0.32 2.293-0.92 3.267-1.12 1.893-3.2 3.067-5.413 3.067zM24 21c-2.387 0-4.333 1.947-4.333 4.333 0 0.787 0.213 1.56 0.627 2.227 0.227 0.4 0.52 0.733 0.84 1.013 0.8 0.72 1.8 1.093 2.867 1.093 1.533 0 2.92-0.787 3.707-2.093 0.413-0.68 0.627-1.44 0.627-2.24 0-1.040-0.387-2.053-1.080-2.867-0.827-0.933-2.013-1.467-3.253-1.467z"></path>
<path d="M23.24 27.653c-0.253 0-0.507-0.093-0.707-0.293l-1.32-1.32c-0.387-0.387-0.387-1.027 0-1.413s1.027-0.387 1.413 0l0.64 0.64 2.133-1.973c0.4-0.373 1.040-0.347 1.413 0.053s0.347 1.040-0.053 1.413l-2.84 2.627c-0.2 0.173-0.44 0.267-0.68 0.267z"></path>
<path d="M20.493 30.333h-9.827c-4.867 0-7.667-2.8-7.667-7.667v-11.333c0-4.867 2.8-7.667 7.667-7.667h10.667c4.867 0 7.667 2.8 7.667 7.667v10.48c0 0.413-0.253 0.787-0.653 0.933-0.387 0.147-0.827 0.040-1.107-0.28-0.827-0.933-2.013-1.467-3.253-1.467-2.387 0-4.333 1.947-4.333 4.333 0 0.787 0.213 1.56 0.627 2.227 0.227 0.4 0.52 0.733 0.84 1.013 0.32 0.267 0.44 0.707 0.293 1.107-0.12 0.387-0.493 0.653-0.92 0.653zM10.667 5.667c-3.813 0-5.667 1.853-5.667 5.667v11.333c0 3.813 1.853 5.667 5.667 5.667h7.76c-0.493-0.907-0.76-1.933-0.76-3 0-3.493 2.84-6.333 6.333-6.333 1.053 0 2.093 0.267 3 0.76v-8.427c0-3.813-1.853-5.667-5.667-5.667h-10.667z"></path>
</svg>
