<!-- Generated by IcoMoon.io -->
<svg version="1.1" xmlns="http://www.w3.org/2000/svg" width="32" height="32" viewBox="0 0 32 32">
<title>calendar-add</title>
<path d="M10.667 7.667c-0.547 0-1-0.453-1-1v-4c0-0.547 0.453-1 1-1s1 0.453 1 1v4c0 0.547-0.453 1-1 1z"></path>
<path d="M21.333 7.667c-0.547 0-1-0.453-1-1v-4c0-0.547 0.453-1 1-1s1 0.453 1 1v4c0 0.547-0.453 1-1 1z"></path>
<path d="M11.333 19.333c-0.173 0-0.347-0.027-0.507-0.107-0.16-0.067-0.307-0.16-0.44-0.28-0.24-0.253-0.387-0.6-0.387-0.947 0-0.173 0.040-0.347 0.107-0.507s0.16-0.307 0.28-0.44c0.133-0.12 0.28-0.213 0.44-0.28 0.48-0.2 1.080-0.093 1.453 0.28 0.12 0.133 0.213 0.28 0.28 0.44s0.107 0.333 0.107 0.507c0 0.347-0.147 0.693-0.387 0.947-0.253 0.24-0.6 0.387-0.947 0.387z"></path>
<path d="M16 19.333c-0.347 0-0.693-0.147-0.947-0.387-0.12-0.133-0.213-0.28-0.28-0.44s-0.107-0.333-0.107-0.507c0-0.347 0.147-0.693 0.387-0.947 0.373-0.373 0.96-0.493 1.453-0.28 0.16 0.067 0.307 0.16 0.44 0.28 0.24 0.253 0.387 0.6 0.387 0.947 0 0.173-0.027 0.347-0.107 0.507-0.067 0.16-0.16 0.307-0.28 0.44-0.133 0.12-0.28 0.213-0.44 0.28-0.16 0.080-0.333 0.107-0.507 0.107z"></path>
<path d="M11.333 24c-0.173 0-0.347-0.040-0.507-0.107s-0.307-0.16-0.44-0.28c-0.24-0.253-0.387-0.587-0.387-0.947 0-0.173 0.040-0.347 0.107-0.507 0.067-0.173 0.16-0.307 0.28-0.44 0.133-0.12 0.28-0.213 0.44-0.28 0.48-0.213 1.080-0.093 1.453 0.28 0.12 0.133 0.213 0.267 0.28 0.44 0.067 0.16 0.107 0.333 0.107 0.507 0 0.36-0.147 0.693-0.387 0.947-0.253 0.24-0.6 0.387-0.947 0.387z"></path>
<path d="M27.333 13.12h-22.667c-0.547 0-1-0.453-1-1s0.453-1 1-1h22.667c0.547 0 1 0.453 1 1s-0.453 1-1 1z"></path>
<path d="M24 31.667c-3.493 0-6.333-2.84-6.333-6.333s2.84-6.333 6.333-6.333c3.493 0 6.333 2.84 6.333 6.333s-2.84 6.333-6.333 6.333zM24 21c-2.387 0-4.333 1.947-4.333 4.333s1.947 4.333 4.333 4.333c2.387 0 4.333-1.947 4.333-4.333s-1.947-4.333-4.333-4.333z"></path>
<path d="M25.987 26.4h-3.987c-0.547 0-1-0.453-1-1s0.453-1 1-1h3.987c0.547 0 1 0.453 1 1s-0.44 1-1 1z"></path>
<path d="M24 28.44c-0.547 0-1-0.453-1-1v-3.987c0-0.547 0.453-1 1-1s1 0.453 1 1v3.987c0 0.547-0.453 1-1 1z"></path>
<path d="M20.493 30.333h-9.827c-4.867 0-7.667-2.8-7.667-7.667v-11.333c0-4.867 2.8-7.667 7.667-7.667h10.667c4.867 0 7.667 2.8 7.667 7.667v10.48c0 0.413-0.253 0.787-0.653 0.933-0.387 0.147-0.827 0.040-1.107-0.28-0.827-0.933-2.013-1.467-3.253-1.467-2.387 0-4.333 1.947-4.333 4.333 0 0.787 0.213 1.56 0.627 2.227 0.227 0.4 0.52 0.733 0.84 1.013 0.32 0.267 0.44 0.707 0.293 1.107-0.12 0.387-0.493 0.653-0.92 0.653zM10.667 5.667c-3.813 0-5.667 1.853-5.667 5.667v11.333c0 3.813 1.853 5.667 5.667 5.667h7.76c-0.493-0.907-0.76-1.933-0.76-3 0-3.493 2.84-6.333 6.333-6.333 1.053 0 2.093 0.267 3 0.76v-8.427c0-3.813-1.853-5.667-5.667-5.667h-10.667z"></path>
</svg>
