<!-- Generated by IcoMoon.io -->
<svg version="1.1" xmlns="http://www.w3.org/2000/svg" width="32" height="32" viewBox="0 0 32 32">
<title>call-remove</title>
<path d="M23.267 30.333c-1.507 0-3.093-0.36-4.733-1.053-1.6-0.68-3.213-1.613-4.787-2.747-1.573-1.147-3.080-2.44-4.493-3.84-1.413-1.427-2.693-2.933-3.827-4.48-1.147-1.6-2.067-3.187-2.72-4.747-0.693-1.64-1.040-3.24-1.040-4.747 0-1.040 0.187-2.027 0.547-2.947 0.387-0.96 0.973-1.827 1.787-2.587 1.027-1 2.2-1.52 3.453-1.52 0.52 0 1.053 0.12 1.507 0.333 0.52 0.24 0.96 0.6 1.28 1.080l3.093 4.36c0.28 0.387 0.493 0.76 0.64 1.133 0.173 0.4 0.267 0.8 0.267 1.187 0 0.507-0.147 1-0.427 1.467-0.2 0.36-0.507 0.747-0.893 1.133l-0.907 0.947c0.013 0.040 0.027 0.067 0.040 0.093 0.16 0.28 0.48 0.76 1.093 1.48 0.64 0.747 1.267 1.413 1.88 2.053 0.8 0.787 1.44 1.387 2.053 1.893 0.76 0.64 1.253 0.96 1.547 1.107l-0.027 0.067 0.973-0.96c0.413-0.413 0.813-0.72 1.2-0.92 0.733-0.453 1.667-0.533 2.6-0.147 0.347 0.147 0.72 0.347 1.12 0.627l4.427 3.147c0.48 0.333 0.853 0.76 1.067 1.267 0.2 0.507 0.293 0.973 0.293 1.44 0 0.64-0.147 1.28-0.427 1.88s-0.627 1.12-1.067 1.6c-0.76 0.84-1.587 1.44-2.547 1.827-0.92 0.373-1.92 0.573-2.973 0.573zM7.453 3.667c-0.733 0-1.413 0.32-2.067 0.96-0.6 0.573-1.040 1.2-1.307 1.88-0.28 0.693-0.413 1.427-0.413 2.213 0 1.24 0.293 2.587 0.88 3.973 0.6 1.413 1.44 2.88 2.507 4.347s2.28 2.893 3.613 4.24c1.333 1.32 2.773 2.547 4.253 3.627 1.44 1.053 2.92 1.907 4.387 2.52 2.28 0.973 4.413 1.2 6.173 0.467 0.68-0.28 1.28-0.707 1.827-1.32 0.307-0.333 0.547-0.693 0.747-1.12 0.16-0.333 0.24-0.68 0.24-1.027 0-0.213-0.040-0.427-0.147-0.667-0.027-0.067-0.12-0.227-0.373-0.4l-4.427-3.147c-0.267-0.187-0.507-0.32-0.733-0.413-0.347-0.133-0.573-0.147-0.867 0.040-0.267 0.133-0.507 0.333-0.773 0.6l-1.013 1c-0.52 0.507-1.32 0.627-1.933 0.4l-0.36-0.16c-0.547-0.293-1.187-0.747-1.893-1.347-0.653-0.547-1.32-1.173-2.173-2.013-0.667-0.68-1.307-1.387-1.987-2.16-0.627-0.733-1.080-1.36-1.36-1.88l-0.173-0.4c-0.080-0.293-0.107-0.467-0.107-0.653 0-0.48 0.173-0.907 0.507-1.24l1-1.040c0.267-0.267 0.467-0.52 0.6-0.747 0.107-0.173 0.147-0.32 0.147-0.453 0-0.107-0.040-0.267-0.107-0.427-0.080-0.227-0.227-0.453-0.413-0.72l-3.093-4.373c-0.133-0.187-0.293-0.32-0.493-0.413-0.213-0.093-0.44-0.147-0.667-0.147zM18.6 20.013l-0.213 0.907 0.36-0.933c-0.053-0.013-0.107 0-0.147 0.027z"></path>
<path d="M21.64 11.36c-0.253 0-0.507-0.093-0.707-0.293-0.387-0.387-0.387-1.027 0-1.413l4.72-4.72c0.387-0.387 1.027-0.387 1.413 0s0.387 1.027 0 1.413l-4.72 4.72c-0.187 0.187-0.453 0.293-0.707 0.293z"></path>
<path d="M26.36 11.36c-0.253 0-0.507-0.093-0.707-0.293l-4.72-4.72c-0.387-0.387-0.387-1.027 0-1.413s1.027-0.387 1.413 0l4.72 4.72c0.387 0.387 0.387 1.027 0 1.413-0.2 0.187-0.453 0.293-0.707 0.293z"></path>
</svg>
