<!-- Generated by IcoMoon.io -->
<svg version="1.1" xmlns="http://www.w3.org/2000/svg" width="32" height="32" viewBox="0 0 32 32">
<title>camera</title>
<path d="M22.986 30.333h-13.973c-3.733 0-6.107-2.227-6.32-5.947l-0.693-11c-0.107-1.667 0.467-3.267 1.613-4.48 1.133-1.213 2.733-1.907 4.387-1.907 0.427 0 0.84-0.253 1.040-0.653l0.96-1.907c0.787-1.56 2.76-2.773 4.48-2.773h3.053c1.72 0 3.68 1.213 4.467 2.76l0.96 1.947c0.2 0.373 0.6 0.627 1.040 0.627 1.653 0 3.253 0.693 4.387 1.907 1.147 1.227 1.72 2.813 1.613 4.48l-0.693 11.013c-0.24 3.773-2.547 5.933-6.32 5.933zM14.48 3.667c-0.987 0-2.24 0.773-2.693 1.667l-0.96 1.92c-0.56 1.080-1.64 1.747-2.827 1.747-1.12 0-2.16 0.453-2.933 1.267-0.76 0.813-1.147 1.88-1.067 2.987l0.693 11.013c0.16 2.693 1.613 4.067 4.32 4.067h13.973c2.693 0 4.147-1.373 4.32-4.067l0.693-11.013c0.067-1.107-0.307-2.173-1.067-2.987-0.773-0.813-1.813-1.267-2.933-1.267-1.187 0-2.267-0.667-2.827-1.72l-0.973-1.947c-0.44-0.88-1.693-1.653-2.68-1.653h-3.040v-0.013z"></path>
<path d="M18 11.667h-4c-0.547 0-1-0.453-1-1s0.453-1 1-1h4c0.547 0 1 0.453 1 1s-0.453 1-1 1z"></path>
<path d="M16 25c-2.947 0-5.333-2.387-5.333-5.333s2.387-5.333 5.333-5.333c2.947 0 5.333 2.387 5.333 5.333s-2.387 5.333-5.333 5.333zM16 16.333c-1.84 0-3.333 1.493-3.333 3.333s1.493 3.333 3.333 3.333c1.84 0 3.333-1.493 3.333-3.333s-1.493-3.333-3.333-3.333z"></path>
</svg>
