<!-- Generated by IcoMoon.io -->
<svg version="1.1" xmlns="http://www.w3.org/2000/svg" width="32" height="32" viewBox="0 0 32 32">
<title>camera-slash</title>
<path d="M12 14.333h-4c-0.547 0-1-0.453-1-1s0.453-1 1-1h4c0.547 0 1 0.453 1 1s-0.453 1-1 1z"></path>
<path d="M22.986 30.333h-13.973c-0.547 0-1-0.453-1-1s0.453-1 1-1h13.973c2.693 0 4.147-1.373 4.32-4.067l0.693-11.013c0.067-0.947-0.213-1.88-0.787-2.64-0.333-0.44-0.24-1.067 0.2-1.4s1.067-0.24 1.4 0.2c0.853 1.147 1.28 2.547 1.187 3.973l-0.693 11.013c-0.24 3.773-2.547 5.933-6.32 5.933z"></path>
<path d="M4.586 28.28c-0.32 0-0.64-0.16-0.84-0.453-0.613-0.933-0.973-2.093-1.053-3.44l-0.693-11c-0.107-1.667 0.467-3.267 1.613-4.48 1.133-1.213 2.733-1.907 4.387-1.907 0.427 0 0.84-0.253 1.040-0.653l0.96-1.907c0.787-1.56 2.76-2.773 4.48-2.773h3.053c1.72 0 3.68 1.213 4.467 2.76l0.96 1.947c0.2 0.373 0.6 0.627 1.040 0.627 0.547 0 1 0.453 1 1s-0.453 1-1 1c-1.187 0-2.267-0.667-2.827-1.72l-0.973-1.947c-0.44-0.88-1.693-1.653-2.68-1.653h-3.053c-0.987 0-2.24 0.773-2.693 1.667l-0.947 1.907c-0.56 1.080-1.64 1.747-2.827 1.747-1.12 0-2.16 0.453-2.933 1.267-0.76 0.813-1.147 1.88-1.067 2.987l0.693 11.013c0.053 0.973 0.307 1.827 0.733 2.453 0.307 0.467 0.173 1.080-0.28 1.387-0.173 0.12-0.373 0.173-0.56 0.173z"></path>
<path d="M16 25c-1.187 0-2.347-0.4-3.28-1.133-0.44-0.347-0.507-0.973-0.173-1.4 0.347-0.44 0.973-0.507 1.4-0.173 0.587 0.453 1.307 0.707 2.053 0.707 1.84 0 3.333-1.493 3.333-3.333 0-0.64-0.173-1.253-0.507-1.773-0.293-0.467-0.16-1.080 0.307-1.387 0.467-0.293 1.080-0.16 1.387 0.307 0.533 0.84 0.827 1.827 0.827 2.84-0.013 2.96-2.4 5.347-5.347 5.347z"></path>
<path d="M2.666 30.333c-0.253 0-0.507-0.093-0.707-0.293-0.387-0.387-0.387-1.027 0-1.413l26.667-26.667c0.387-0.387 1.027-0.387 1.413 0s0.387 1.027 0 1.413l-26.667 26.667c-0.2 0.2-0.453 0.293-0.707 0.293z"></path>
</svg>
