<!-- Generated by IcoMoon.io -->
<svg version="1.1" xmlns="http://www.w3.org/2000/svg" width="32" height="32" viewBox="0 0 32 32">
<title>candle</title>
<path d="M8.667 30.333c-0.547 0-1-0.453-1-1v-9.333c0-0.547 0.453-1 1-1s1 0.453 1 1v9.333c0 0.547-0.453 1-1 1z"></path>
<path d="M8.667 7.667c-0.547 0-1-0.453-1-1v-4c0-0.547 0.453-1 1-1s1 0.453 1 1v4c0 0.547-0.453 1-1 1z"></path>
<path d="M23.333 30.333c-0.547 0-1-0.453-1-1v-4c0-0.547 0.453-1 1-1s1 0.453 1 1v4c0 0.547-0.453 1-1 1z"></path>
<path d="M23.333 13c-0.547 0-1-0.453-1-1v-9.333c0-0.547 0.453-1 1-1s1 0.453 1 1v9.333c0 0.547-0.453 1-1 1z"></path>
<path d="M10 21h-2.667c-2.293 0-3.667-1.373-3.667-3.667v-8c0-2.293 1.373-3.667 3.667-3.667h2.667c2.293 0 3.667 1.373 3.667 3.667v8c0 2.293-1.373 3.667-3.667 3.667zM7.333 7.667c-1.187 0-1.667 0.48-1.667 1.667v8c0 1.187 0.48 1.667 1.667 1.667h2.667c1.187 0 1.667-0.48 1.667-1.667v-8c0-1.187-0.48-1.667-1.667-1.667h-2.667z"></path>
<path d="M24.667 26.333h-2.667c-2.293 0-3.667-1.373-3.667-3.667v-8c0-2.293 1.373-3.667 3.667-3.667h2.667c2.293 0 3.667 1.373 3.667 3.667v8c0 2.293-1.373 3.667-3.667 3.667zM22 13c-1.187 0-1.667 0.48-1.667 1.667v8c0 1.187 0.48 1.667 1.667 1.667h2.667c1.187 0 1.667-0.48 1.667-1.667v-8c0-1.187-0.48-1.667-1.667-1.667h-2.667z"></path>
</svg>
