<!-- Generated by IcoMoon.io -->
<svg version="1.1" xmlns="http://www.w3.org/2000/svg" width="32" height="32" viewBox="0 0 32 32">
<title>candle-2</title>
<path d="M29.333 24.333h-9.333c-0.547 0-1-0.453-1-1s0.453-1 1-1h9.333c0.547 0 1 0.453 1 1s-0.453 1-1 1z"></path>
<path d="M6.667 24.333h-4c-0.547 0-1-0.453-1-1s0.453-1 1-1h4c0.547 0 1 0.453 1 1s-0.453 1-1 1z"></path>
<path d="M29.333 9.667h-4c-0.547 0-1-0.453-1-1s0.453-1 1-1h4c0.547 0 1 0.453 1 1s-0.453 1-1 1z"></path>
<path d="M12 9.667h-9.333c-0.547 0-1-0.453-1-1s0.453-1 1-1h9.333c0.547 0 1 0.453 1 1s-0.453 1-1 1z"></path>
<path d="M17.333 28.333h-8c-2.293 0-3.667-1.373-3.667-3.667v-2.667c0-2.293 1.373-3.667 3.667-3.667h8c2.293 0 3.667 1.373 3.667 3.667v2.667c0 2.293-1.373 3.667-3.667 3.667zM9.333 20.333c-1.187 0-1.667 0.48-1.667 1.667v2.667c0 1.187 0.48 1.667 1.667 1.667h8c1.187 0 1.667-0.48 1.667-1.667v-2.667c0-1.187-0.48-1.667-1.667-1.667h-8z"></path>
<path d="M22.667 13.667h-8c-2.293 0-3.667-1.373-3.667-3.667v-2.667c0-2.293 1.373-3.667 3.667-3.667h8c2.293 0 3.667 1.373 3.667 3.667v2.667c0 2.293-1.373 3.667-3.667 3.667zM14.667 5.667c-1.187 0-1.667 0.48-1.667 1.667v2.667c0 1.187 0.48 1.667 1.667 1.667h8c1.187 0 1.667-0.48 1.667-1.667v-2.667c0-1.187-0.48-1.667-1.667-1.667h-8z"></path>
</svg>
