<!-- Generated by IcoMoon.io -->
<svg version="1.1" xmlns="http://www.w3.org/2000/svg" width="32" height="32" viewBox="0 0 32 32">
<title>car</title>
<path d="M26.666 15.667h-21.333c-0.307 0-0.587-0.133-0.773-0.373-0.187-0.227-0.267-0.547-0.2-0.84l1.507-7.2c0.493-2.333 1.493-4.48 5.453-4.48h9.373c3.96 0 4.96 2.16 5.453 4.48l1.507 7.213c0.067 0.293-0.013 0.6-0.2 0.84-0.2 0.227-0.48 0.36-0.787 0.36zM6.559 13.667h18.867l-1.253-6c-0.373-1.747-0.813-2.893-3.493-2.893h-9.36c-2.68 0-3.12 1.147-3.493 2.893l-1.267 6z"></path>
<path d="M26.613 30.333h-2.507c-2.16 0-2.573-1.24-2.84-2.053l-0.267-0.8c-0.347-1.013-0.387-1.147-1.587-1.147h-6.827c-1.2 0-1.28 0.227-1.587 1.147l-0.267 0.8c-0.28 0.827-0.68 2.053-2.84 2.053h-2.507c-1.053 0-2.067-0.44-2.773-1.213-0.693-0.76-1.027-1.773-0.933-2.787l0.747-8.12c0.2-2.2 0.787-4.547 5.067-4.547h17.013c4.28 0 4.853 2.347 5.067 4.547l0.747 8.12c0.093 1.013-0.24 2.027-0.933 2.787-0.707 0.773-1.72 1.213-2.773 1.213zM12.586 24.333h6.827c2.427 0 3 1.080 3.48 2.493l0.28 0.827c0.227 0.68 0.227 0.693 0.947 0.693h2.507c0.493 0 0.96-0.2 1.293-0.56 0.32-0.347 0.467-0.787 0.427-1.253l-0.747-8.12c-0.173-1.8-0.387-2.733-3.067-2.733h-17.040c-2.693 0-2.907 0.933-3.067 2.733l-0.747 8.12c-0.040 0.467 0.107 0.907 0.427 1.253 0.32 0.36 0.8 0.56 1.293 0.56h2.507c0.72 0 0.72-0.013 0.947-0.68l0.267-0.813c0.333-1.067 0.827-2.52 3.467-2.52z"></path>
<path d="M5.333 11.667h-1.333c-0.547 0-1-0.453-1-1s0.453-1 1-1h1.333c0.547 0 1 0.453 1 1s-0.453 1-1 1z"></path>
<path d="M28 11.667h-1.333c-0.547 0-1-0.453-1-1s0.453-1 1-1h1.333c0.547 0 1 0.453 1 1s-0.453 1-1 1z"></path>
<path d="M16 7.667c-0.547 0-1-0.453-1-1v-2.667c0-0.547 0.453-1 1-1s1 0.453 1 1v2.667c0 0.547-0.453 1-1 1z"></path>
<path d="M18 7.667h-4c-0.547 0-1-0.453-1-1s0.453-1 1-1h4c0.547 0 1 0.453 1 1s-0.453 1-1 1z"></path>
<path d="M12 21h-4c-0.547 0-1-0.453-1-1s0.453-1 1-1h4c0.547 0 1 0.453 1 1s-0.453 1-1 1z"></path>
<path d="M24 21h-4c-0.547 0-1-0.453-1-1s0.453-1 1-1h4c0.547 0 1 0.453 1 1s-0.453 1-1 1z"></path>
</svg>
