<!-- Generated by IcoMoon.io -->
<svg version="1.1" xmlns="http://www.w3.org/2000/svg" width="32" height="32" viewBox="0 0 32 32">
<title>card-remove</title>
<path d="M29.201 14.374h-26.667c-0.547 0-1-0.453-1-1s0.453-1 1-1h26.667c0.547 0 1 0.453 1 1s-0.44 1-1 1z"></path>
<path d="M15.281 28.373h-6.813c-5.307 0-6.933-1.6-6.933-6.853v-10.96c0-4.2 0.893-6.533 5.653-6.813 0.413-0.013 0.827-0.027 1.28-0.027h14.813c5.307 0 6.933 1.6 6.933 6.853v5.88c0 0.547-0.453 1-1 1s-1-0.453-1-1v-5.88c0-4.12-0.733-4.853-4.933-4.853h-14.813c-0.427 0-0.813 0.013-1.187 0.027-2.893 0.173-3.747 0.827-3.747 4.827v10.96c0 4.12 0.733 4.853 4.933 4.853h6.813c0.547 0 1 0.453 1 1s-0.453 0.987-1 0.987z"></path>
<path d="M23.867 30.374c-3.493 0-6.333-2.84-6.333-6.333s2.84-6.333 6.333-6.333c3.493 0 6.333 2.84 6.333 6.333s-2.84 6.333-6.333 6.333zM23.867 19.707c-2.387 0-4.333 1.947-4.333 4.333s1.947 4.333 4.333 4.333c2.387 0 4.333-1.947 4.333-4.333s-1.947-4.333-4.333-4.333z"></path>
<path d="M25.294 26.533c-0.253 0-0.507-0.093-0.707-0.293l-2.813-2.813c-0.387-0.387-0.387-1.027 0-1.413s1.027-0.387 1.413 0l2.813 2.813c0.387 0.387 0.387 1.027 0 1.413-0.187 0.187-0.453 0.293-0.707 0.293z"></path>
<path d="M22.439 26.56c-0.253 0-0.507-0.093-0.707-0.293-0.387-0.387-0.387-1.027 0-1.413l2.813-2.813c0.387-0.387 1.027-0.387 1.413 0s0.387 1.027 0 1.413l-2.813 2.813c-0.187 0.2-0.44 0.293-0.707 0.293z"></path>
<path d="M13.201 22.374h-5.333c-0.547 0-1-0.453-1-1s0.453-1 1-1h5.333c0.547 0 1 0.453 1 1s-0.44 1-1 1z"></path>
</svg>
