<!-- Generated by IcoMoon.io -->
<svg version="1.1" xmlns="http://www.w3.org/2000/svg" width="32" height="32" viewBox="0 0 32 32">
<title>card-tick-1</title>
<path d="M29.333 14.333h-26.667c-0.547 0-1-0.453-1-1s0.453-1 1-1h26.667c0.547 0 1 0.453 1 1s-0.453 1-1 1z"></path>
<path d="M15.4 28.333h-6.813c-5.307 0-6.933-1.6-6.933-6.853v-10.96c0-4.2 0.893-6.533 5.653-6.813 0.4-0.013 0.827-0.027 1.28-0.027h14.813c5.307 0 6.933 1.6 6.933 6.853v5.88c0 0.547-0.453 1-1 1s-1-0.453-1-1v-5.88c0-4.12-0.733-4.853-4.933-4.853h-14.813c-0.427 0-0.813 0.013-1.187 0.027-2.893 0.173-3.747 0.827-3.747 4.827v10.96c0 4.12 0.733 4.853 4.933 4.853h6.813c0.547 0 1 0.453 1 1s-0.44 0.987-1 0.987z"></path>
<path d="M13.333 22.333h-5.333c-0.547 0-1-0.453-1-1s0.453-1 1-1h5.333c0.547 0 1 0.453 1 1s-0.453 1-1 1z"></path>
<path d="M24 30.333c-2.213 0-4.293-1.173-5.413-3.080-0.6-0.96-0.92-2.093-0.92-3.253 0-3.493 2.84-6.333 6.333-6.333s6.333 2.84 6.333 6.333c0 1.16-0.32 2.293-0.92 3.267-1.12 1.893-3.2 3.067-5.413 3.067zM24 19.667c-2.387 0-4.333 1.947-4.333 4.333 0 0.787 0.213 1.56 0.627 2.227 0.773 1.307 2.2 2.107 3.707 2.107s2.933-0.8 3.707-2.093c0.413-0.68 0.627-1.44 0.627-2.24 0-2.387-1.947-4.333-4.333-4.333z"></path>
<path d="M23.239 26.32c-0.253 0-0.507-0.093-0.707-0.293l-1.32-1.32c-0.387-0.387-0.387-1.027 0-1.413s1.027-0.387 1.413 0l0.64 0.64 2.133-1.973c0.4-0.373 1.040-0.347 1.413 0.053s0.347 1.040-0.053 1.413l-2.84 2.627c-0.2 0.173-0.44 0.267-0.68 0.267z"></path>
</svg>
