<!-- Generated by IcoMoon.io -->
<svg version="1.1" xmlns="http://www.w3.org/2000/svg" width="32" height="32" viewBox="0 0 32 32">
<title>card-pos</title>
<path d="M5.239 22.173c-0.253 0-0.507-0.093-0.707-0.293-0.387-0.387-0.387-1.027 0-1.413l15.933-15.933c0.387-0.387 1.027-0.387 1.413 0s0.387 1.027 0 1.413l-15.933 15.947c-0.187 0.187-0.453 0.28-0.707 0.28z"></path>
<path d="M14.799 25.373c-0.253 0-0.507-0.093-0.707-0.293-0.387-0.387-0.387-1.027 0-1.413l1.6-1.6c0.387-0.387 1.027-0.387 1.413 0s0.387 1.027 0 1.413l-1.6 1.6c-0.187 0.187-0.44 0.293-0.707 0.293z"></path>
<path d="M18.387 21.787c-0.253 0-0.507-0.093-0.707-0.293-0.387-0.387-0.387-1.027 0-1.413l3.187-3.187c0.387-0.387 1.027-0.387 1.413 0s0.387 1.027 0 1.413l-3.187 3.187c-0.187 0.187-0.453 0.293-0.707 0.293z"></path>
<path d="M14.801 30.333c-1.307 0-2.613-0.8-4.2-2.387l-6.547-6.547c-3.187-3.187-3.173-5.24 0.040-8.453l8.853-8.853c3.213-3.213 5.267-3.227 8.453-0.040l6.547 6.547c3.187 3.187 3.173 5.24-0.040 8.453l-8.853 8.853c-1.613 1.613-2.933 2.427-4.253 2.427zM17.201 3.667c-0.693 0-1.573 0.573-2.84 1.84l-8.853 8.853c-1.267 1.267-1.84 2.147-1.84 2.827 0 0.693 0.533 1.533 1.8 2.8l6.547 6.547c1.267 1.267 2.093 1.8 2.787 1.8 0 0 0 0 0.013 0 0.693 0 1.56-0.573 2.827-1.84l8.853-8.853c1.267-1.267 1.84-2.147 1.84-2.827 0-0.693-0.533-1.533-1.8-2.8l-6.547-6.547c-1.253-1.267-2.093-1.8-2.787-1.8z"></path>
<path d="M29.333 30.333h-26.667c-0.547 0-1-0.453-1-1s0.453-1 1-1h26.667c0.547 0 1 0.453 1 1s-0.453 1-1 1z"></path>
</svg>
