<!-- Generated by IcoMoon.io -->
<svg version="1.1" xmlns="http://www.w3.org/2000/svg" width="32" height="32" viewBox="0 0 32 32">
<title>card-edit</title>
<path d="M15.333 12.333h-12.667c-0.547 0-1-0.453-1-1s0.453-1 1-1h12.667c0.547 0 1 0.453 1 1s-0.453 1-1 1z"></path>
<path d="M10.667 23h-2.667c-0.547 0-1-0.453-1-1s0.453-1 1-1h2.667c0.547 0 1 0.453 1 1s-0.453 1-1 1z"></path>
<path d="M19.333 23h-5.333c-0.547 0-1-0.453-1-1s0.453-1 1-1h5.333c0.547 0 1 0.453 1 1s-0.453 1-1 1z"></path>
<path d="M23.413 28.333h-14.827c-5.307 0-6.92-1.6-6.92-6.853v-10.96c0-5.253 1.613-6.853 6.92-6.853h10.747c0.547 0 1 0.453 1 1s-0.453 1-1 1h-10.747c-4.187 0-4.92 0.72-4.92 4.853v10.947c0 4.133 0.733 4.853 4.92 4.853h14.813c4.187 0 4.92-0.72 4.92-4.853v-5.44c0-0.547 0.453-1 1-1s1 0.453 1 1v5.44c0.013 5.267-1.6 6.867-6.907 6.867z"></path>
<path d="M20.693 15.253c-0.52 0-1.013-0.187-1.36-0.547-0.427-0.427-0.613-1.040-0.52-1.68l0.267-1.893c0.067-0.48 0.36-1.053 0.693-1.387l4.947-4.947c1.96-1.96 3.667-0.84 4.52 0 0.84 0.84 1.96 2.547 0 4.52l-4.947 4.947c-0.347 0.347-0.92 0.627-1.387 0.693l-1.893 0.267c-0.107 0.013-0.213 0.027-0.32 0.027zM26.973 5.707c-0.267 0-0.507 0.187-0.84 0.507l-4.933 4.947c-0.040 0.053-0.12 0.2-0.133 0.267l-0.267 1.8 1.813-0.253c0.067-0.013 0.213-0.093 0.267-0.133l4.947-4.947c0.627-0.627 0.72-0.973 0-1.68-0.347-0.347-0.6-0.507-0.853-0.507z"></path>
<path d="M27.827 10.32c-0.093 0-0.187-0.013-0.267-0.040-1.827-0.52-3.28-1.96-3.787-3.787-0.147-0.533 0.16-1.080 0.693-1.24 0.533-0.147 1.080 0.16 1.24 0.693 0.333 1.16 1.253 2.080 2.413 2.413 0.533 0.147 0.84 0.707 0.693 1.227-0.147 0.44-0.547 0.733-0.987 0.733z"></path>
</svg>
