<!-- Generated by IcoMoon.io -->
<svg version="1.1" xmlns="http://www.w3.org/2000/svg" width="32" height="32" viewBox="0 0 32 32">
<title>card-receive</title>
<path d="M19.333 12.333h-16.667c-0.547 0-1-0.453-1-1s0.453-1 1-1h16.667c0.547 0 1 0.453 1 1s-0.453 1-1 1z"></path>
<path d="M10.667 23h-2.667c-0.547 0-1-0.453-1-1s0.453-1 1-1h2.667c0.547 0 1 0.453 1 1s-0.453 1-1 1z"></path>
<path d="M19.333 23h-5.333c-0.547 0-1-0.453-1-1s0.453-1 1-1h5.333c0.547 0 1 0.453 1 1s-0.453 1-1 1z"></path>
<path d="M23.413 28.333h-14.827c-5.307 0-6.92-1.6-6.92-6.853v-10.96c0-5.253 1.613-6.853 6.92-6.853h10.747c0.547 0 1 0.453 1 1s-0.453 1-1 1h-10.747c-4.187 0-4.92 0.72-4.92 4.853v10.947c0 4.133 0.733 4.853 4.92 4.853h14.813c4.187 0 4.92-0.72 4.92-4.853v-2.773c0-0.547 0.453-1 1-1s1 0.453 1 1v2.773c0.013 5.267-1.6 6.867-6.907 6.867z"></path>
<path d="M26.667 13.667c-0.133 0-0.253-0.027-0.387-0.080-0.373-0.16-0.613-0.52-0.613-0.92v-8c0-0.547 0.453-1 1-1s1 0.453 1 1v5.587l0.96-0.96c0.387-0.387 1.027-0.387 1.413 0s0.387 1.027 0 1.413l-2.667 2.667c-0.187 0.187-0.44 0.293-0.707 0.293z"></path>
<path d="M26.666 13.667c-0.253 0-0.507-0.093-0.707-0.293l-2.667-2.667c-0.387-0.387-0.387-1.027 0-1.413s1.027-0.387 1.413 0l2.667 2.667c0.387 0.387 0.387 1.027 0 1.413-0.2 0.2-0.453 0.293-0.707 0.293z"></path>
</svg>
