<!-- Generated by IcoMoon.io -->
<svg version="1.1" xmlns="http://www.w3.org/2000/svg" width="32" height="32" viewBox="0 0 32 32">
<title>card-add</title>
<path d="M18 12.333h-15.333c-0.547 0-1-0.453-1-1s0.453-1 1-1h15.333c0.547 0 1 0.453 1 1s-0.453 1-1 1z"></path>
<path d="M10.667 23h-2.667c-0.547 0-1-0.453-1-1s0.453-1 1-1h2.667c0.547 0 1 0.453 1 1s-0.453 1-1 1z"></path>
<path d="M19.333 23h-5.333c-0.547 0-1-0.453-1-1s0.453-1 1-1h5.333c0.547 0 1 0.453 1 1s-0.453 1-1 1z"></path>
<path d="M23.413 28.333h-14.827c-5.307 0-6.92-1.6-6.92-6.853v-10.96c0-5.253 1.613-6.853 6.92-6.853h9.413c0.547 0 1 0.453 1 1s-0.453 1-1 1h-9.413c-4.187 0-4.92 0.72-4.92 4.853v10.947c0 4.133 0.733 4.853 4.92 4.853h14.813c4.187 0 4.92-0.72 4.92-4.853v-5.44c0-0.547 0.453-1 1-1s1 0.453 1 1v5.44c0.013 5.267-1.6 6.867-6.907 6.867z"></path>
<path d="M29.333 9.333h-7.333c-0.547 0-1-0.453-1-1s0.453-1 1-1h7.333c0.547 0 1 0.453 1 1s-0.453 1-1 1z"></path>
<path d="M25.667 13c-0.547 0-1-0.453-1-1v-7.333c0-0.547 0.453-1 1-1s1 0.453 1 1v7.333c0 0.547-0.453 1-1 1z"></path>
</svg>
