<!-- Generated by IcoMoon.io -->
<svg version="1.1" xmlns="http://www.w3.org/2000/svg" width="32" height="32" viewBox="0 0 32 32">
<title>cards</title>
<path d="M25.333 17.813h-22.667c-0.547 0-1-0.453-1-1s0.453-1 1-1h22.667c0.547 0 1 0.453 1 1s-0.453 1-1 1z"></path>
<path d="M20.293 29h-12.587c-4.573 0-6.040-1.453-6.040-5.973v-9.32c0-3.587 0.813-5.707 4.947-5.947 0.347-0.013 0.707-0.027 1.093-0.027h12.587c4.573 0 6.040 1.453 6.040 5.973v9.533c-0.053 4.36-1.52 5.76-6.040 5.76zM7.707 9.733c-0.36 0-0.693 0.013-1 0.027-2.387 0.147-3.040 0.653-3.040 3.947v9.32c0 3.413 0.56 3.973 4.040 3.973h12.587c3.44 0 4-0.533 4.040-3.773v-9.52c0-3.413-0.56-3.973-4.040-3.973h-12.587z"></path>
<path d="M25.333 24.24c-0.253 0-0.507-0.093-0.68-0.267-0.2-0.187-0.32-0.453-0.32-0.733v-9.533c0-3.413-0.56-3.973-4.040-3.973h-12.587c-0.36 0-0.693 0.013-1 0.027-0.267 0.013-0.533-0.093-0.733-0.28s-0.307-0.453-0.307-0.733c0.053-4.347 1.52-5.747 6.040-5.747h12.587c4.573 0 6.040 1.453 6.040 5.973v9.32c0 3.587-0.813 5.707-4.947 5.947-0.013 0-0.040 0-0.053 0zM7.707 7.733h12.587c4.573 0 6.040 1.453 6.040 5.973v8.427c1.547-0.28 2-1.080 2-3.84v-9.32c0-3.413-0.56-3.973-4.040-3.973h-12.587c-3.040 0-3.827 0.413-4 2.733z"></path>
<path d="M9.28 24.747h-2.293c-0.547 0-1-0.453-1-1s0.453-1 1-1h2.293c0.547 0 1 0.453 1 1s-0.44 1-1 1z"></path>
<path d="M16.733 24.747h-4.587c-0.547 0-1-0.453-1-1s0.453-1 1-1h4.587c0.547 0 1 0.453 1 1s-0.44 1-1 1z"></path>
</svg>
