<!-- Generated by IcoMoon.io -->
<svg version="1.1" xmlns="http://www.w3.org/2000/svg" width="32" height="32" viewBox="0 0 32 32">
<title>card-slash</title>
<path d="M20.32 12.333h-17.653c-0.547 0-1-0.453-1-1s0.453-1 1-1h17.653c0.547 0 1 0.453 1 1s-0.453 1-1 1z"></path>
<path d="M9.72 23h-1.72c-0.547 0-1-0.453-1-1s0.453-1 1-1h1.72c0.547 0 1 0.453 1 1s-0.44 1-1 1z"></path>
<path d="M19.333 23h-4.667c-0.547 0-1-0.453-1-1s0.453-1 1-1h4.667c0.547 0 1 0.453 1 1s-0.453 1-1 1z"></path>
<path d="M23.414 28.333h-12.773c-0.547 0-1-0.453-1-1s0.453-1 1-1h12.773c4.187 0 4.92-0.72 4.92-4.853v-12.293c0-0.547 0.453-1 1-1s1 0.453 1 1v12.28c0 5.267-1.613 6.867-6.92 6.867z"></path>
<path d="M4.947 27.853c-0.12 0-0.253-0.027-0.373-0.067-2.413-0.96-2.907-3.213-2.907-6.307v-10.96c0-5.253 1.613-6.853 6.92-6.853h14.813c1.52 0 2.64 0.12 3.52 0.387 0.533 0.16 0.827 0.707 0.68 1.24-0.16 0.533-0.72 0.827-1.24 0.68-0.693-0.2-1.627-0.293-2.96-0.293h-14.813c-4.187 0-4.92 0.72-4.92 4.853v10.947c0 3.187 0.573 4.027 1.653 4.453 0.52 0.2 0.76 0.787 0.56 1.293-0.16 0.387-0.533 0.627-0.933 0.627z"></path>
<path d="M2.666 30.333c-0.253 0-0.507-0.093-0.707-0.293-0.387-0.387-0.387-1.027 0-1.413l26.667-26.667c0.387-0.387 1.027-0.387 1.413 0s0.387 1.027 0 1.413l-26.667 26.667c-0.2 0.2-0.453 0.293-0.707 0.293z"></path>
</svg>
