<!-- Generated by IcoMoon.io -->
<svg version="1.1" xmlns="http://www.w3.org/2000/svg" width="32" height="32" viewBox="0 0 32 32">
<title>category-2</title>
<path d="M25.333 14.333h-2.667c-3.227 0-5-1.773-5-5v-2.667c0-3.227 1.773-5 5-5h2.667c3.227 0 5 1.773 5 5v2.667c0 3.227-1.773 5-5 5zM22.667 3.667c-2.107 0-3 0.893-3 3v2.667c0 2.107 0.893 3 3 3h2.667c2.107 0 3-0.893 3-3v-2.667c0-2.107-0.893-3-3-3h-2.667z"></path>
<path d="M9.333 30.333h-2.667c-3.227 0-5-1.773-5-5v-2.667c0-3.227 1.773-5 5-5h2.667c3.227 0 5 1.773 5 5v2.667c0 3.227-1.773 5-5 5zM6.667 19.667c-2.107 0-3 0.893-3 3v2.667c0 2.107 0.893 3 3 3h2.667c2.107 0 3-0.893 3-3v-2.667c0-2.107-0.893-3-3-3h-2.667z"></path>
<path d="M8 14.333c-3.493 0-6.333-2.84-6.333-6.333s2.84-6.333 6.333-6.333c3.493 0 6.333 2.84 6.333 6.333s-2.84 6.333-6.333 6.333zM8 3.667c-2.387 0-4.333 1.947-4.333 4.333s1.947 4.333 4.333 4.333c2.387 0 4.333-1.947 4.333-4.333s-1.947-4.333-4.333-4.333z"></path>
<path d="M24 30.333c-3.493 0-6.333-2.84-6.333-6.333s2.84-6.333 6.333-6.333c3.493 0 6.333 2.84 6.333 6.333s-2.84 6.333-6.333 6.333zM24 19.667c-2.387 0-4.333 1.947-4.333 4.333s1.947 4.333 4.333 4.333c2.387 0 4.333-1.947 4.333-4.333s-1.947-4.333-4.333-4.333z"></path>
</svg>
