<!-- Generated by IcoMoon.io -->
<svg version="1.1" xmlns="http://www.w3.org/2000/svg" width="32" height="32" viewBox="0 0 32 32">
<title>category</title>
<path d="M9.333 14.333h-2.667c-3.227 0-5-1.773-5-5v-2.667c0-3.227 1.773-5 5-5h2.667c3.227 0 5 1.773 5 5v2.667c0 3.227-1.773 5-5 5zM6.667 3.667c-2.107 0-3 0.893-3 3v2.667c0 2.107 0.893 3 3 3h2.667c2.107 0 3-0.893 3-3v-2.667c0-2.107-0.893-3-3-3h-2.667z"></path>
<path d="M25.333 14.333h-2.667c-3.227 0-5-1.773-5-5v-2.667c0-3.227 1.773-5 5-5h2.667c3.227 0 5 1.773 5 5v2.667c0 3.227-1.773 5-5 5zM22.667 3.667c-2.107 0-3 0.893-3 3v2.667c0 2.107 0.893 3 3 3h2.667c2.107 0 3-0.893 3-3v-2.667c0-2.107-0.893-3-3-3h-2.667z"></path>
<path d="M25.333 30.333h-2.667c-3.227 0-5-1.773-5-5v-2.667c0-3.227 1.773-5 5-5h2.667c3.227 0 5 1.773 5 5v2.667c0 3.227-1.773 5-5 5zM22.667 19.667c-2.107 0-3 0.893-3 3v2.667c0 2.107 0.893 3 3 3h2.667c2.107 0 3-0.893 3-3v-2.667c0-2.107-0.893-3-3-3h-2.667z"></path>
<path d="M9.333 30.333h-2.667c-3.227 0-5-1.773-5-5v-2.667c0-3.227 1.773-5 5-5h2.667c3.227 0 5 1.773 5 5v2.667c0 3.227-1.773 5-5 5zM6.667 19.667c-2.107 0-3 0.893-3 3v2.667c0 2.107 0.893 3 3 3h2.667c2.107 0 3-0.893 3-3v-2.667c0-2.107-0.893-3-3-3h-2.667z"></path>
</svg>
