<!-- Generated by IcoMoon.io -->
<svg version="1.1" xmlns="http://www.w3.org/2000/svg" width="32" height="32" viewBox="0 0 32 32">
<title>chart-success</title>
<path d="M9.333 19.587c-0.547 0-1-0.453-1-1v-4.28c0-0.547 0.453-1 1-1s1 0.453 1 1v4.28c0 0.56-0.453 1-1 1z"></path>
<path d="M22.667 19.587c-0.547 0-1-0.453-1-1v-4.28c0-0.547 0.453-1 1-1s1 0.453 1 1v4.28c0 0.56-0.453 1-1 1z"></path>
<path d="M17.333 30.333h-5.333c-7.24 0-10.333-3.093-10.333-10.333v-8c0-7.24 3.093-10.333 10.333-10.333h8c7.24 0 10.333 3.093 10.333 10.333v5.333c0 0.547-0.453 1-1 1s-1-0.453-1-1v-5.333c0-6.147-2.187-8.333-8.333-8.333h-8c-6.147 0-8.333 2.187-8.333 8.333v8c0 6.147 2.187 8.333 8.333 8.333h5.333c0.547 0 1 0.453 1 1s-0.453 1-1 1z"></path>
<path d="M23.44 29c-0.267 0-0.52-0.107-0.707-0.293l-2.107-2.093c-0.387-0.387-0.4-1.027 0-1.413 0.387-0.387 1.027-0.4 1.413 0l1.347 1.333 3.867-4.52c0.36-0.427 0.987-0.467 1.413-0.107 0.413 0.36 0.467 0.987 0.107 1.413l-4.56 5.333c-0.187 0.213-0.44 0.333-0.72 0.347-0.027 0-0.040 0-0.053 0z"></path>
<path d="M16 19c-0.547 0-1-0.453-1-1v-4c0-0.547 0.453-1 1-1s1 0.453 1 1v4c0 0.547-0.453 1-1 1z"></path>
</svg>
