<!-- Generated by IcoMoon.io -->
<svg version="1.1" xmlns="http://www.w3.org/2000/svg" width="32" height="32" viewBox="0 0 32 32">
<title>chart-3</title>
<path d="M16 30.333c-7.907 0-14.333-6.427-14.333-14.333 0-3.147 1-6.133 2.893-8.64 0.333-0.44 0.96-0.52 1.4-0.187s0.533 0.96 0.2 1.4c-1.627 2.147-2.493 4.72-2.493 7.427 0 6.8 5.533 12.333 12.333 12.333s12.333-5.533 12.333-12.333c0-6.8-5.533-12.333-12.333-12.333-0.547 0-1-0.453-1-1s0.453-1 1-1c7.907 0 14.333 6.427 14.333 14.333s-6.427 14.333-14.333 14.333z"></path>
<path d="M16 26.333c-5.693 0-10.333-4.64-10.333-10.333 0-0.547 0.453-1 1-1s1 0.453 1 1c0 4.6 3.733 8.333 8.333 8.333s8.333-3.733 8.333-8.333c0-4.6-3.733-8.333-8.333-8.333-0.547 0-1-0.453-1-1s0.453-1 1-1c5.693 0 10.333 4.64 10.333 10.333s-4.64 10.333-10.333 10.333z"></path>
<path d="M16 22.333c-0.547 0-1-0.453-1-1s0.453-1 1-1c2.387 0 4.333-1.947 4.333-4.333s-1.947-4.333-4.333-4.333c-0.547 0-1-0.453-1-1s0.453-1 1-1c3.493 0 6.333 2.84 6.333 6.333s-2.84 6.333-6.333 6.333z"></path>
</svg>
