<!-- Generated by IcoMoon.io -->
<svg version="1.1" xmlns="http://www.w3.org/2000/svg" width="32" height="32" viewBox="0 0 32 32">
<title>chart-2</title>
<path d="M20 30.333h-8c-7.24 0-10.333-3.093-10.333-10.333v-8c0-7.24 3.093-10.333 10.333-10.333h8c7.24 0 10.333 3.093 10.333 10.333v8c0 7.24-3.093 10.333-10.333 10.333zM12 3.667c-6.147 0-8.333 2.187-8.333 8.333v8c0 6.147 2.187 8.333 8.333 8.333h8c6.147 0 8.333-2.187 8.333-8.333v-8c0-6.147-2.187-8.333-8.333-8.333h-8z"></path>
<path d="M20.667 25.667c-2.027 0-3.667-1.64-3.667-3.667v-12c0-2.027 1.64-3.667 3.667-3.667s3.667 1.64 3.667 3.667v12c0 2.027-1.64 3.667-3.667 3.667zM20.667 8.333c-0.92 0-1.667 0.747-1.667 1.667v12c0 0.92 0.747 1.667 1.667 1.667s1.667-0.747 1.667-1.667v-12c0-0.92-0.747-1.667-1.667-1.667z"></path>
<path d="M11.333 25.667c-2.027 0-3.667-1.64-3.667-3.667v-4.667c0-2.027 1.64-3.667 3.667-3.667s3.667 1.64 3.667 3.667v4.667c0 2.027-1.64 3.667-3.667 3.667zM11.333 15.667c-0.92 0-1.667 0.747-1.667 1.667v4.667c0 0.92 0.747 1.667 1.667 1.667s1.667-0.747 1.667-1.667v-4.667c0-0.92-0.747-1.667-1.667-1.667z"></path>
</svg>
