<!-- Generated by IcoMoon.io -->
<svg version="1.1" xmlns="http://www.w3.org/2000/svg" width="32" height="32" viewBox="0 0 32 32">
<title>chart-square</title>
<path d="M13.48 24.2h-5.053c-0.547 0-1-0.453-1-1v-6.827c0-1.387 1.133-2.52 2.52-2.52h3.533c0.547 0 1 0.453 1 1v8.333c0 0.56-0.453 1.013-1 1.013zM9.427 22.2h3.053v-6.333h-2.533c-0.28 0-0.52 0.227-0.52 0.52v5.813z"></path>
<path d="M18.519 24.2h-5.053c-0.547 0-1-0.453-1-1v-12.88c0-1.387 1.133-2.52 2.52-2.52h2.027c1.387 0 2.52 1.133 2.52 2.52v12.88c-0.013 0.547-0.453 1-1.013 1zM14.479 22.2h3.053v-11.88c0-0.28-0.227-0.52-0.52-0.52h-2.027c-0.28 0-0.52 0.227-0.52 0.52v11.88h0.013z"></path>
<path d="M23.574 24.2h-5.053c-0.547 0-1-0.453-1-1v-6.067c0-0.547 0.453-1 1-1h3.533c1.387 0 2.52 1.133 2.52 2.52v4.547c0 0.547-0.44 1-1 1zM19.521 22.2h3.053v-3.547c0-0.28-0.227-0.52-0.52-0.52h-2.533v4.067z"></path>
<path d="M20 30.333h-8c-7.24 0-10.333-3.093-10.333-10.333v-8c0-7.24 3.093-10.333 10.333-10.333h8c7.24 0 10.333 3.093 10.333 10.333v8c0 7.24-3.093 10.333-10.333 10.333zM12 3.667c-6.147 0-8.333 2.187-8.333 8.333v8c0 6.147 2.187 8.333 8.333 8.333h8c6.147 0 8.333-2.187 8.333-8.333v-8c0-6.147-2.187-8.333-8.333-8.333h-8z"></path>
</svg>
