<!-- Generated by IcoMoon.io -->
<svg version="1.1" xmlns="http://www.w3.org/2000/svg" width="32" height="32" viewBox="0 0 32 32">
<title>chart-fail</title>
<path d="M22.973 28.693c-0.253 0-0.507-0.093-0.707-0.293-0.387-0.387-0.387-1.027 0-1.413l4.72-4.72c0.387-0.387 1.027-0.387 1.413 0s0.387 1.027 0 1.413l-4.72 4.72c-0.187 0.187-0.453 0.293-0.707 0.293z"></path>
<path d="M27.693 28.693c-0.253 0-0.507-0.093-0.707-0.293l-4.72-4.72c-0.387-0.387-0.387-1.027 0-1.413s1.027-0.387 1.413 0l4.72 4.72c0.387 0.387 0.387 1.027 0 1.413-0.2 0.187-0.453 0.293-0.707 0.293z"></path>
<path d="M9.333 19c-0.547 0-1-0.453-1-1v-4c0-0.547 0.453-1 1-1s1 0.453 1 1v4c0 0.547-0.453 1-1 1z"></path>
<path d="M16 19c-0.547 0-1-0.453-1-1v-4c0-0.547 0.453-1 1-1s1 0.453 1 1v4c0 0.547-0.453 1-1 1z"></path>
<path d="M22.667 19c-0.547 0-1-0.453-1-1v-4c0-0.547 0.453-1 1-1s1 0.453 1 1v4c0 0.547-0.453 1-1 1z"></path>
<path d="M17.333 30.333h-5.333c-7.24 0-10.333-3.093-10.333-10.333v-8c0-7.24 3.093-10.333 10.333-10.333h8c7.24 0 10.333 3.093 10.333 10.333v5.333c0 0.547-0.453 1-1 1s-1-0.453-1-1v-5.333c0-6.147-2.187-8.333-8.333-8.333h-8c-6.147 0-8.333 2.187-8.333 8.333v8c0 6.147 2.187 8.333 8.333 8.333h5.333c0.547 0 1 0.453 1 1s-0.453 1-1 1z"></path>
</svg>
