<!-- Generated by IcoMoon.io -->
<svg version="1.1" xmlns="http://www.w3.org/2000/svg" width="32" height="32" viewBox="0 0 32 32">
<title>chart-21</title>
<path d="M28 30.333h-24c-0.547 0-1-0.453-1-1s0.453-1 1-1h24c0.547 0 1 0.453 1 1s-0.453 1-1 1z"></path>
<path d="M7.467 26.333h-2.133c-1.28 0-2.333-1.053-2.333-2.333v-11.493c0-1.28 1.053-2.333 2.333-2.333h2.133c1.28 0 2.333 1.053 2.333 2.333v11.493c0 1.28-1.053 2.333-2.333 2.333zM5.333 12.16c-0.187 0-0.333 0.147-0.333 0.333v11.507c0 0.187 0.147 0.333 0.333 0.333h2.133c0.187 0 0.333-0.147 0.333-0.333v-11.493c0-0.187-0.147-0.333-0.333-0.333h-2.133v-0.013z"></path>
<path d="M17.067 26.333h-2.133c-1.28 0-2.333-1.053-2.333-2.333v-15.747c0-1.28 1.053-2.333 2.333-2.333h2.133c1.28 0 2.333 1.053 2.333 2.333v15.747c0 1.28-1.053 2.333-2.333 2.333zM14.934 7.92c-0.187 0-0.333 0.147-0.333 0.333v15.747c0 0.187 0.147 0.333 0.333 0.333h2.133c0.187 0 0.333-0.147 0.333-0.333v-15.747c0-0.187-0.147-0.333-0.333-0.333h-2.133z"></path>
<path d="M26.667 26.333h-2.133c-1.28 0-2.333-1.053-2.333-2.333v-20c0-1.28 1.053-2.333 2.333-2.333h2.133c1.28 0 2.333 1.053 2.333 2.333v20c0 1.28-1.053 2.333-2.333 2.333zM24.534 3.667c-0.187 0-0.333 0.147-0.333 0.333v20c0 0.187 0.147 0.333 0.333 0.333h2.133c0.187 0 0.333-0.147 0.333-0.333v-20c0-0.187-0.147-0.333-0.333-0.333h-2.133z"></path>
</svg>
