<!-- Generated by IcoMoon.io -->
<svg version="1.1" xmlns="http://www.w3.org/2000/svg" width="32" height="32" viewBox="0 0 32 32">
<title>chart-1</title>
<path d="M29.333 30.333h-26.667c-0.547 0-1-0.453-1-1s0.453-1 1-1h26.667c0.547 0 1 0.453 1 1s-0.453 1-1 1z"></path>
<path d="M19 30.333h-6c-0.547 0-1-0.453-1-1v-24c0-2.293 1.267-3.667 3.4-3.667h1.2c2.133 0 3.4 1.373 3.4 3.667v24c0 0.547-0.453 1-1 1zM14 28.333h4v-23c0-1.533-0.72-1.667-1.4-1.667h-1.2c-0.68 0-1.4 0.133-1.4 1.667v23z"></path>
<path d="M9.333 30.333h-5.333c-0.547 0-1-0.453-1-1v-16c0-2.293 1.173-3.667 3.133-3.667h1.067c1.96 0 3.133 1.373 3.133 3.667v16c0 0.547-0.453 1-1 1zM5 28.333h3.333v-15c0-1.667-0.733-1.667-1.133-1.667h-1.067c-0.4 0-1.133 0-1.133 1.667v15z"></path>
<path d="M28 30.333h-5.333c-0.547 0-1-0.453-1-1v-9.333c0-2.293 1.173-3.667 3.133-3.667h1.067c1.96 0 3.133 1.373 3.133 3.667v9.333c0 0.547-0.453 1-1 1zM23.667 28.333h3.333v-8.333c0-1.667-0.733-1.667-1.133-1.667h-1.067c-0.4 0-1.133 0-1.133 1.667v8.333z"></path>
</svg>
