<!-- Generated by IcoMoon.io -->
<svg version="1.1" xmlns="http://www.w3.org/2000/svg" width="32" height="32" viewBox="0 0 32 32">
<title>check</title>
<path d="M14.693 27h-4.693c-1 0-1.733-0.040-2.36-0.133-4.44-0.493-5.307-3.133-5.307-7.533v-6.667c0-4.4 0.88-7.053 5.347-7.547 0.587-0.080 1.32-0.12 2.32-0.12h4.613c0.547 0 1 0.453 1 1s-0.453 1-1 1h-4.613c-0.907 0-1.547 0.040-2.067 0.107-2.707 0.293-3.6 1.147-3.6 5.56v6.667c0 4.413 0.893 5.253 3.56 5.56 0.56 0.080 1.2 0.107 2.107 0.107h4.693c0.547 0 1 0.453 1 1s-0.453 1-1 1z"></path>
<path d="M21.999 27h-1.973c-0.547 0-1-0.453-1-1s0.453-1 1-1h1.973c0.907 0 1.547-0.040 2.067-0.107 2.707-0.293 3.6-1.147 3.6-5.56v-6.667c0-4.413-0.893-5.253-3.56-5.56-0.56-0.080-1.2-0.107-2.107-0.107h-1.973c-0.547 0-1-0.453-1-1s0.453-1 1-1h1.973c1 0 1.733 0.040 2.36 0.133 4.44 0.493 5.307 3.133 5.307 7.533v6.667c0 4.4-0.88 7.053-5.347 7.547-0.587 0.080-1.32 0.12-2.32 0.12z"></path>
<path d="M20 30.333c-0.547 0-1-0.453-1-1v-26.667c0-0.547 0.453-1 1-1s1 0.453 1 1v26.667c0 0.547-0.453 1-1 1z"></path>
<path d="M10.667 21.667c-0.547 0-1-0.453-1-1v-9.333c0-0.547 0.453-1 1-1s1 0.453 1 1v9.333c0 0.547-0.453 1-1 1z"></path>
</svg>
