<!-- Generated by IcoMoon.io -->
<svg version="1.1" xmlns="http://www.w3.org/2000/svg" width="32" height="32" viewBox="0 0 32 32">
<title>chrome</title>
<path d="M16 30.333c-7.907 0-14.333-6.427-14.333-14.333s6.427-14.333 14.333-14.333c7.907 0 14.333 6.427 14.333 14.333s-6.427 14.333-14.333 14.333zM16 3.667c-6.8 0-12.333 5.533-12.333 12.333s5.533 12.333 12.333 12.333c6.8 0 12.333-5.533 12.333-12.333s-5.533-12.333-12.333-12.333z"></path>
<path d="M16 22.333c-3.493 0-6.333-2.84-6.333-6.333s2.84-6.333 6.333-6.333c3.493 0 6.333 2.84 6.333 6.333s-2.84 6.333-6.333 6.333zM16 11.667c-2.387 0-4.333 1.947-4.333 4.333s1.947 4.333 4.333 4.333c2.387 0 4.333-1.947 4.333-4.333s-1.947-4.333-4.333-4.333z"></path>
<path d="M28.226 11.667c-0.067 0-0.147-0.013-0.213-0.027-3.92-0.853-7.88-0.853-11.8 0-0.547 0.12-1.067-0.227-1.187-0.76-0.12-0.547 0.227-1.067 0.76-1.187 4.2-0.92 8.453-0.92 12.653 0 0.533 0.12 0.88 0.653 0.76 1.187-0.093 0.467-0.507 0.787-0.973 0.787z"></path>
<path d="M11.386 19.667c-0.28 0-0.56-0.12-0.76-0.347-2.773-3.187-4.88-6.827-6.28-10.827l0.92-0.413 0.947-0.32 0.027 0.080c1.307 3.747 3.293 7.173 5.907 10.173 0.36 0.413 0.32 1.053-0.093 1.413-0.2 0.16-0.44 0.24-0.667 0.24z"></path>
<path d="M14.506 30.253c-0.24 0-0.48-0.080-0.667-0.253-0.413-0.373-0.44-1-0.067-1.413 2.667-2.933 4.64-6.333 5.867-10.107 0.173-0.52 0.76-0.867 1.28-0.693s0.827 0.68 0.667 1.2c-1.347 4.16-3.467 7.813-6.32 10.96-0.213 0.2-0.493 0.307-0.76 0.307z"></path>
</svg>
