<!-- Generated by IcoMoon.io -->
<svg version="1.1" xmlns="http://www.w3.org/2000/svg" width="32" height="32" viewBox="0 0 32 32">
<title>clipboard-text</title>
<path d="M20 17.267h-9.333c-0.547 0-1-0.453-1-1s0.453-1 1-1h9.333c0.547 0 1 0.453 1 1s-0.453 1-1 1z"></path>
<path d="M16.507 22.6h-5.84c-0.547 0-1-0.453-1-1s0.453-1 1-1h5.84c0.547 0 1 0.453 1 1s-0.453 1-1 1z"></path>
<path d="M18.667 9h-5.333c-1.28 0-3.667 0-3.667-3.667s2.387-3.667 3.667-3.667h5.333c1.28 0 3.667 0 3.667 3.667 0 1.28 0 3.667-3.667 3.667zM13.333 3.667c-1.32 0-1.667 0-1.667 1.667s0.347 1.667 1.667 1.667h5.333c1.667 0 1.667-0.347 1.667-1.667 0-1.667-0.347-1.667-1.667-1.667h-5.333z"></path>
<path d="M20 30.333h-8c-7.493 0-9-3.44-9-9v-8c0-6.080 2.2-8.68 7.613-8.96 0.533-0.027 1.027 0.387 1.053 0.947s-0.4 1.013-0.947 1.040c-3.787 0.213-5.72 1.347-5.72 6.973v8c0 4.933 0.973 7 7 7h8c6.027 0 7-2.067 7-7v-8c0-5.627-1.933-6.76-5.72-6.973-0.547-0.027-0.973-0.507-0.947-1.053s0.507-0.973 1.053-0.947c5.413 0.293 7.613 2.893 7.613 8.96v8c0 5.573-1.507 9.013-9 9.013z"></path>
</svg>
