<!-- Generated by IcoMoon.io -->
<svg version="1.1" xmlns="http://www.w3.org/2000/svg" width="32" height="32" viewBox="0 0 32 32">
<title>clipboard</title>
<path d="M17.399 25.893c-0.72 0-1.48-0.067-2.307-0.2l-6.253-0.987c-1.973-0.307-3.493-0.853-4.627-1.653-2.92-2.027-2.747-5.507-2.373-7.947l0.987-6.253c0.907-5.733 3.867-7.88 9.6-6.987l6.253 0.987c2.947 0.467 6.907 1.653 7.16 6.627 0.053 0.853 0 1.827-0.187 2.973l-0.973 6.253c-0.773 4.893-3.053 7.187-7.28 7.187zM10.039 3.667c-3.173 0-4.613 1.613-5.24 5.507l-0.987 6.253c-0.613 3.933 0.507 5.267 1.547 6 0.88 0.627 2.12 1.053 3.787 1.307l6.253 0.987c4.653 0.733 6.573-0.667 7.307-5.333l0.973-6.253c0.16-1 0.213-1.84 0.16-2.547v-0.013c-0.147-2.8-1.733-4.173-5.48-4.76l-6.24-0.973c-0.773-0.12-1.453-0.173-2.080-0.173z"></path>
<path d="M19.572 30.333c-1.133 0-2.413-0.24-3.893-0.733l-6.013-2c-3.427-1.133-5.28-2.76-5.84-5.133-0.093-0.4 0.067-0.827 0.413-1.053s0.8-0.227 1.133 0.013c0.88 0.627 2.107 1.053 3.773 1.307l6.253 0.987c4.653 0.733 6.573-0.667 7.307-5.333l0.973-6.253c0.16-1 0.213-1.84 0.16-2.547-0.013-0.347 0.16-0.693 0.467-0.893s0.693-0.213 1.013-0.040c3.573 1.907 4.52 4.96 2.973 9.627l-2 6.013c-0.947 2.827-2.187 4.56-3.92 5.427-0.84 0.413-1.76 0.613-2.8 0.613zM7.639 24.48c0.64 0.427 1.493 0.84 2.653 1.227l6.013 2c2.293 0.76 3.933 0.827 5.16 0.227 1.227-0.613 2.16-1.973 2.92-4.267l2-6.013c1.093-3.307 0.667-5.067-0.6-6.253-0.027 0.333-0.080 0.68-0.133 1.053l-0.973 6.253c-0.907 5.733-3.867 7.88-9.6 7l-6.253-0.987c-0.413-0.080-0.813-0.16-1.187-0.24z"></path>
<path d="M10.987 12.96c-1.827 0-3.32-1.493-3.32-3.32s1.493-3.32 3.32-3.32c1.827 0 3.32 1.493 3.32 3.32s-1.493 3.32-3.32 3.32zM10.987 8.333c-0.72 0-1.32 0.587-1.32 1.32s0.587 1.32 1.32 1.32c0.72 0 1.32-0.587 1.32-1.32s-0.6-1.32-1.32-1.32z"></path>
</svg>
