<!-- Generated by IcoMoon.io -->
<svg version="1.1" xmlns="http://www.w3.org/2000/svg" width="32" height="32" viewBox="0 0 32 32">
<title>clock</title>
<path d="M16 30.333c-7.907 0-14.333-6.427-14.333-14.333s6.427-14.333 14.333-14.333c7.907 0 14.333 6.427 14.333 14.333s-6.427 14.333-14.333 14.333zM16 3.667c-6.8 0-12.333 5.533-12.333 12.333s5.533 12.333 12.333 12.333c6.8 0 12.333-5.533 12.333-12.333s-5.533-12.333-12.333-12.333z"></path>
<path d="M20.946 21.24c-0.173 0-0.347-0.040-0.507-0.147l-4.133-2.467c-1.027-0.613-1.787-1.96-1.787-3.147v-5.467c0-0.547 0.453-1 1-1s1 0.453 1 1v5.467c0 0.48 0.4 1.187 0.813 1.427l4.133 2.467c0.48 0.28 0.627 0.893 0.347 1.373-0.2 0.32-0.533 0.493-0.867 0.493z"></path>
</svg>
