<!-- Generated by IcoMoon.io -->
<svg version="1.1" xmlns="http://www.w3.org/2000/svg" width="32" height="32" viewBox="0 0 32 32">
<title>clock-1</title>
<path d="M17.867 19.467c-0.253 0-0.507-0.093-0.707-0.293l-1.867-1.867c-0.187-0.187-0.293-0.44-0.293-0.707v-3.72c0-0.547 0.453-1 1-1s1 0.453 1 1v3.307l1.573 1.573c0.387 0.387 0.387 1.027 0 1.413-0.2 0.2-0.453 0.293-0.707 0.293z"></path>
<path d="M16 25.667c-2.12 0-4.12-0.667-5.8-1.933-0.040-0.027-0.067-0.040-0.107-0.067-2.387-1.853-3.76-4.653-3.76-7.667 0-5.333 4.333-9.667 9.667-9.667s9.667 4.333 9.667 9.667c0 3-1.36 5.773-3.72 7.627-0.040 0.027-0.067 0.053-0.107 0.080-1.693 1.28-3.707 1.96-5.84 1.96zM11.24 22.013c0.040 0.027 0.067 0.040 0.093 0.067 2.707 2.093 6.68 2.080 9.373-0.027 0.027-0.027 0.067-0.053 0.093-0.067 1.827-1.467 2.867-3.64 2.867-5.987 0-4.227-3.44-7.667-7.667-7.667s-7.667 3.44-7.667 7.667c0 2.36 1.053 4.547 2.907 6.013z"></path>
<path d="M16.733 30.333h-1.453c-2.613 0-4.213-1.293-4.893-3.973l-0.667-3.293c-0.053-0.293 0.013-0.6 0.213-0.827s0.48-0.36 0.773-0.36h0.013c0.227 0 0.44 0.067 0.613 0.213 2.707 2.093 6.68 2.080 9.373-0.027 0.413-0.32 1.067-0.253 1.4 0.16 0.187 0.227 0.267 0.533 0.213 0.827l-0.68 3.293c-0.707 2.693-2.307 3.987-4.907 3.987zM12.119 24.853l0.213 1.067c0.507 2 1.547 2.413 2.947 2.413h1.453c1.387 0 2.427-0.413 2.947-2.44l0.213-1.040c-2.413 1.067-5.347 1.080-7.773 0z"></path>
<path d="M21.334 10.16c-0.227 0-0.453-0.080-0.627-0.213-2.693-2.107-6.667-2.12-9.373-0.027-0.413 0.32-1.067 0.253-1.387-0.147-0.187-0.227-0.267-0.533-0.213-0.827l0.653-3.253c0.68-2.733 2.28-4.027 4.893-4.027h1.453c2.6 0 4.2 1.293 4.88 3.947l0.693 3.347c0.067 0.293-0.013 0.6-0.2 0.827-0.187 0.24-0.467 0.373-0.773 0.373zM16 6.333c1.373 0 2.68 0.28 3.893 0.813l-0.227-1.080c-0.52-1.973-1.547-2.4-2.933-2.4h-1.453c-1.4 0-2.44 0.413-2.947 2.467l-0.213 1.013c1.213-0.533 2.52-0.813 3.88-0.813z"></path>
</svg>
