<!-- Generated by IcoMoon.io -->
<svg version="1.1" xmlns="http://www.w3.org/2000/svg" width="32" height="32" viewBox="0 0 32 32">
<title>cloud</title>
<path d="M22.239 27.773c-0.013 0-0.040 0-0.053 0h-14.787c-3.92-0.28-5.68-3.293-5.68-5.987 0-2.4 1.4-5.067 4.453-5.8-0.853-3.333-0.133-6.467 2.040-8.733 2.467-2.587 6.427-3.613 9.827-2.56 3.12 0.96 5.32 3.533 6.12 7.107 2.733 0.613 4.907 2.68 5.787 5.533 0.947 3.107 0.093 6.293-2.24 8.333-1.493 1.347-3.44 2.107-5.467 2.107zM7.425 17.8c-0.013 0-0.013 0-0.027 0-2.533 0.187-3.693 2.133-3.693 3.987s1.16 3.8 3.747 3.987h14.72c1.547-0.027 3.027-0.56 4.173-1.6 2.080-1.827 2.227-4.427 1.667-6.253-0.56-1.84-2.12-3.92-4.84-4.267-0.44-0.053-0.787-0.387-0.867-0.827-0.533-3.2-2.267-5.413-4.867-6.213-2.707-0.827-5.827-0.013-7.787 2.027-1.773 1.853-2.28 4.413-1.453 7.227 0.68 0.093 1.333 0.293 1.933 0.6 0.493 0.253 0.693 0.853 0.44 1.347s-0.853 0.693-1.347 0.44c-0.547-0.28-1.147-0.427-1.747-0.427-0.013-0.027-0.027-0.027-0.053-0.027z"></path>
<path d="M21.133 14.227c-0.373 0-0.72-0.2-0.893-0.56-0.253-0.493-0.040-1.093 0.453-1.347 0.827-0.413 1.747-0.64 2.653-0.653 0.533-0.013 1.013 0.427 1.013 0.987 0.013 0.547-0.427 1.013-0.987 1.013-0.613 0.013-1.24 0.16-1.8 0.44-0.147 0.080-0.293 0.12-0.44 0.12z"></path>
</svg>
