<!-- Generated by IcoMoon.io -->
<svg version="1.1" xmlns="http://www.w3.org/2000/svg" width="32" height="32" viewBox="0 0 32 32">
<title>cloud-sunny</title>
<path d="M22.226 27.773c-0.027 0-0.040 0-0.053 0h-14.787c-3.92-0.28-5.68-3.307-5.68-5.987 0-2.4 1.4-5.067 4.44-5.8-1.333-5.12 1.2-8.707 4.187-10.4 3.467-1.973 8.627-1.987 11.76 1.813 0.027 0.040 0.053 0.080 0.080 0.12 0.933 1.187 1.587 2.613 1.96 4.267 1.64 0.36 3.053 1.24 4.16 2.547 2.52 2.973 3 8.147-0.6 11.32-1.493 1.373-3.427 2.12-5.467 2.12zM15.319 6.267c-1.413 0-2.813 0.387-3.987 1.053-3.227 1.84-4.32 5.253-2.933 9.147 0.107 0.307 0.067 0.653-0.12 0.907s-0.493 0.427-0.813 0.427c-2.587 0.187-3.747 2.133-3.747 3.987s1.16 3.8 3.747 4h14.72c1.547 0.013 3.040-0.56 4.173-1.6l0.013-0.013c2.707-2.373 2.307-6.28 0.4-8.533-0.933-1.107-2.173-1.787-3.6-1.973-0.44-0.053-0.787-0.387-0.853-0.827-0.28-1.653-0.867-3.040-1.747-4.133-0.027-0.027-0.040-0.067-0.067-0.093-1.413-1.653-3.307-2.347-5.187-2.347z"></path>
<path d="M9.68 18.347c-0.147 0-0.307-0.040-0.44-0.107-0.56-0.28-1.173-0.427-1.8-0.44-0.547-0.013-0.987-0.467-0.987-1.013 0.013-0.547 0.533-1 1.013-0.987 0.92 0.013 1.84 0.24 2.653 0.653 0.493 0.24 0.693 0.853 0.453 1.347-0.173 0.347-0.52 0.547-0.893 0.547z"></path>
<path d="M21.133 14.227c-0.373 0-0.72-0.2-0.893-0.56-0.253-0.493-0.040-1.093 0.453-1.347 0.827-0.413 1.747-0.64 2.653-0.653 0.533-0.013 1.013 0.427 1.013 0.987 0.013 0.547-0.427 1.013-0.987 1.013-0.613 0.013-1.24 0.16-1.8 0.44-0.147 0.080-0.293 0.12-0.44 0.12z"></path>
<path d="M27.533 15.973c-0.28 0-0.573-0.12-0.773-0.36-0.92-1.107-2.173-1.787-3.6-1.973-0.44-0.053-0.787-0.387-0.853-0.827-0.28-1.653-0.867-3.040-1.747-4.133-0.147-0.173-0.227-0.4-0.227-0.627 0-0.267 0.107-0.533 0.293-0.72 1.067-1.080 2.48-1.667 4-1.667 3.12 0 5.667 2.547 5.667 5.667 0 1.733-0.773 3.347-2.133 4.427-0.187 0.147-0.4 0.213-0.627 0.213zM24.147 11.787c1.28 0.28 2.44 0.88 3.4 1.76 0.48-0.627 0.747-1.4 0.747-2.213 0-2.027-1.64-3.667-3.667-3.667-0.693 0-1.36 0.187-1.933 0.56 0.68 1.027 1.16 2.227 1.453 3.56z"></path>
</svg>
