<!-- Generated by IcoMoon.io -->
<svg version="1.1" xmlns="http://www.w3.org/2000/svg" width="32" height="32" viewBox="0 0 32 32">
<title>cloud-connection</title>
<path d="M21.413 22.333c-0.013 0-0.027 0-0.053 0h-12.88c-3.507-0.24-5.080-2.933-5.080-5.333 0-2.107 1.213-4.44 3.853-5.133-0.693-2.893-0.053-5.6 1.827-7.573 2.187-2.293 5.68-3.2 8.707-2.267 2.747 0.84 4.68 3.080 5.4 6.187 2.387 0.573 4.293 2.387 5.053 4.893 0.84 2.747 0.067 5.56-2 7.36-1.293 1.2-3.013 1.867-4.827 1.867zM8.533 13.68c-2.147 0.173-3.107 1.787-3.107 3.32 0 1.547 0.973 3.173 3.147 3.333h12.813c0.013 0 0.027 0 0.040 0 1.307 0 2.56-0.48 3.507-1.36 1.76-1.533 1.88-3.733 1.413-5.293-0.48-1.56-1.8-3.32-4.12-3.613-0.44-0.053-0.787-0.387-0.867-0.827-0.453-2.733-1.933-4.613-4.147-5.293-2.28-0.693-5.013 0.013-6.667 1.747-1.613 1.693-1.987 4.053-1.053 6.667 0.187 0.52-0.080 1.093-0.6 1.28-0.12 0.027-0.227 0.053-0.36 0.040z"></path>
<path d="M16 26.333c-0.547 0-1-0.453-1-1v-4c0-0.547 0.453-1 1-1s1 0.453 1 1v4c0 0.547-0.453 1-1 1z"></path>
<path d="M16 31.667c-2.027 0-3.667-1.64-3.667-3.667s1.64-3.667 3.667-3.667c2.027 0 3.667 1.64 3.667 3.667s-1.64 3.667-3.667 3.667zM16 26.333c-0.92 0-1.667 0.747-1.667 1.667s0.747 1.667 1.667 1.667c0.92 0 1.667-0.747 1.667-1.667s-0.747-1.667-1.667-1.667z"></path>
<path d="M24 29h-5.333c-0.547 0-1-0.453-1-1s0.453-1 1-1h5.333c0.547 0 1 0.453 1 1s-0.453 1-1 1z"></path>
<path d="M13.333 29h-5.333c-0.547 0-1-0.453-1-1s0.453-1 1-1h5.333c0.547 0 1 0.453 1 1s-0.453 1-1 1z"></path>
</svg>
