<!-- Generated by IcoMoon.io -->
<svg version="1.1" xmlns="http://www.w3.org/2000/svg" width="32" height="32" viewBox="0 0 32 32">
<title>cloud-notif</title>
<path d="M22.226 27.773c-0.027 0-0.040 0-0.053 0h-14.787c-3.92-0.28-5.68-3.307-5.68-5.987 0-2.4 1.4-5.067 4.44-5.8-0.84-3.36-0.107-6.507 2.107-8.787 2.507-2.587 6.493-3.587 9.893-2.48 0.52 0.173 0.813 0.733 0.64 1.253s-0.733 0.813-1.253 0.64c-2.707-0.867-5.867-0.080-7.853 1.987-1.933 2-2.387 4.787-1.28 7.867 0.107 0.307 0.067 0.653-0.12 0.907s-0.493 0.427-0.813 0.427c-2.587 0.187-3.747 2.133-3.747 3.987s1.16 3.8 3.747 4h14.72c1.52 0.013 3.040-0.56 4.173-1.6 1.533-1.347 2.2-3.307 1.867-5.387-0.093-0.547 0.28-1.053 0.827-1.147s1.053 0.28 1.147 0.827c0.453 2.747-0.493 5.44-2.493 7.2-1.493 1.333-3.44 2.093-5.48 2.093z"></path>
<path d="M9.68 18.347c-0.147 0-0.307-0.040-0.44-0.107-0.56-0.28-1.173-0.427-1.8-0.44-0.547-0.013-0.987-0.467-0.987-1.013 0.013-0.547 0.533-1 1.013-0.987 0.92 0.013 1.84 0.24 2.653 0.653 0.493 0.24 0.693 0.853 0.453 1.347-0.173 0.347-0.52 0.547-0.893 0.547z"></path>
<path d="M24.628 17c-3.12 0-5.667-2.547-5.667-5.667 0-1.467 0.56-2.853 1.573-3.893 0.027-0.040 0.053-0.067 0.080-0.093 1.067-1.080 2.48-1.667 4-1.667 3.12 0 5.667 2.547 5.667 5.667 0 1.733-0.773 3.347-2.133 4.427-0.973 0.787-2.227 1.227-3.52 1.227zM22.134 8.667c-0.027 0.040-0.053 0.067-0.093 0.107-0.693 0.68-1.080 1.6-1.080 2.573 0 2.027 1.64 3.667 3.667 3.667 0.827 0 1.64-0.28 2.28-0.8 0.893-0.707 1.387-1.747 1.387-2.867 0-2.027-1.64-3.667-3.667-3.667-0.947-0.013-1.827 0.347-2.493 0.987z"></path>
</svg>
