<!-- Generated by IcoMoon.io -->
<svg version="1.1" xmlns="http://www.w3.org/2000/svg" width="32" height="32" viewBox="0 0 32 32">
<title>cloud-minus</title>
<path d="M17.294 27.667h-5.333c-0.547 0-1-0.453-1-1s0.453-1 1-1h5.333c0.547 0 1 0.453 1 1s-0.44 1-1 1z"></path>
<path d="M22.2 27.667c-0.013 0-0.040 0-0.053 0-0.547 0-1-0.453-0.987-1.013 0-0.547 0.453-0.987 1-0.987 0.013 0 0.040 0 0.053 0 1.52 0 2.973-0.56 4.093-1.6 2.067-1.813 2.213-4.4 1.653-6.227s-2.107-3.893-4.813-4.24c-0.44-0.053-0.787-0.387-0.867-0.827-0.533-3.187-2.253-5.387-4.84-6.187-2.693-0.827-5.8-0.013-7.747 2.027-1.893 1.987-2.333 4.747-1.24 7.8 0.187 0.52-0.080 1.093-0.6 1.28s-1.093-0.080-1.28-0.6c-1.347-3.747-0.733-7.333 1.68-9.853 2.467-2.573 6.4-3.6 9.787-2.547 3.107 0.96 5.307 3.52 6.093 7.067 2.72 0.613 4.893 2.667 5.76 5.507 0.947 3.093 0.080 6.267-2.227 8.293-1.52 1.36-3.453 2.107-5.467 2.107z"></path>
<path d="M7.427 27.667c-0.027 0-0.053 0-0.067 0-3.84-0.267-5.587-3.28-5.587-5.96s1.747-5.68 5.587-5.96c0.987-0.013 1.96 0.213 2.813 0.64 0.493 0.253 0.68 0.853 0.44 1.347-0.253 0.493-0.853 0.68-1.347 0.44-0.56-0.293-1.2-0.413-1.813-0.427-2.52 0.187-3.667 2.12-3.667 3.96s1.147 3.773 3.733 3.96c0.547 0.040 0.96 0.52 0.92 1.067-0.053 0.533-0.493 0.933-1.013 0.933z"></path>
<path d="M21.094 14.187c-0.36 0-0.72-0.2-0.893-0.56-0.253-0.493-0.053-1.093 0.453-1.347 0.813-0.413 1.733-0.64 2.64-0.653 0.52 0.027 1.013 0.427 1.013 0.987 0.013 0.547-0.427 1.013-0.987 1.013-0.613 0.013-1.227 0.16-1.787 0.44-0.133 0.093-0.293 0.12-0.44 0.12z"></path>
</svg>
