<!-- Generated by IcoMoon.io -->
<svg version="1.1" xmlns="http://www.w3.org/2000/svg" width="32" height="32" viewBox="0 0 32 32">
<title>cloud-fog</title>
<path d="M5.72 16.493c-0.413 0-0.8-0.253-0.947-0.667-1.347-3.76-0.733-7.373 1.68-9.893 2.467-2.587 6.413-3.613 9.827-2.56 3.12 0.96 5.32 3.533 6.12 7.107 2.4 0.547 4.413 2.227 5.44 4.627 0.213 0.507-0.013 1.093-0.52 1.32-0.507 0.213-1.093-0.013-1.32-0.52-0.867-2-2.533-3.293-4.587-3.56-0.44-0.053-0.787-0.387-0.867-0.827-0.533-3.2-2.267-5.413-4.867-6.213-2.693-0.827-5.827-0.013-7.787 2.027-1.907 1.987-2.347 4.773-1.253 7.84 0.187 0.52-0.080 1.093-0.6 1.28-0.093 0.013-0.213 0.040-0.32 0.040z"></path>
<path d="M19.386 12.907c-0.373 0-0.72-0.2-0.893-0.56-0.253-0.493-0.040-1.093 0.453-1.347 0.84-0.413 1.733-0.64 2.653-0.653 0.573 0.027 1.013 0.427 1.013 0.987 0.013 0.547-0.427 1.013-0.987 1.013-0.627 0.013-1.227 0.16-1.8 0.44-0.147 0.093-0.293 0.12-0.44 0.12z"></path>
<path d="M26.667 21.040h-21.333c-0.547 0-1-0.453-1-1s0.453-1 1-1h21.333c0.547 0 1 0.453 1 1s-0.453 1-1 1z"></path>
<path d="M24 25.040h-16c-0.547 0-1-0.453-1-1s0.453-1 1-1h16c0.547 0 1 0.453 1 1s-0.453 1-1 1z"></path>
<path d="M20 29.040h-8c-0.547 0-1-0.453-1-1s0.453-1 1-1h8c0.547 0 1 0.453 1 1s-0.453 1-1 1z"></path>
</svg>
