<!-- Generated by IcoMoon.io -->
<svg version="1.1" xmlns="http://www.w3.org/2000/svg" width="32" height="32" viewBox="0 0 32 32">
<title>cloud-remove</title>
<path d="M17.293 24.48c-0.253 0-0.507-0.093-0.707-0.293l-2.813-2.813c-0.387-0.387-0.387-1.027 0-1.413s1.027-0.387 1.413 0l2.813 2.813c0.387 0.387 0.387 1.027 0 1.413-0.187 0.2-0.453 0.293-0.707 0.293z"></path>
<path d="M14.439 24.52c-0.253 0-0.507-0.093-0.707-0.293-0.387-0.387-0.387-1.027 0-1.413l2.813-2.813c0.387-0.387 1.027-0.387 1.413 0s0.387 1.027 0 1.413l-2.813 2.813c-0.187 0.187-0.44 0.293-0.707 0.293z"></path>
<path d="M9.946 25.787h-2.56c-3.92-0.28-5.68-3.293-5.68-5.987s1.76-5.707 5.613-5.973c0.533-0.053 1.027 0.373 1.067 0.933s-0.373 1.027-0.933 1.067c-2.587 0.187-3.747 2.133-3.747 3.987s1.16 3.8 3.747 3.987h2.493c0.547 0 1 0.453 1 1s-0.453 0.987-1 0.987z"></path>
<path d="M22.227 25.787c-0.027 0-0.040 0-0.067 0-0.547 0-1.053-0.453-1.053-1 0-0.573 0.44-1 0.987-1 1.653 0 3.107-0.573 4.253-1.6 2.080-1.813 2.213-4.427 1.653-6.267-0.56-1.827-2.12-3.92-4.84-4.253-0.44-0.053-0.787-0.387-0.867-0.827-0.533-3.2-2.253-5.413-4.867-6.213-2.707-0.84-5.84-0.013-7.8 2.040-1.907 1.987-2.347 4.773-1.24 7.84 0.187 0.52-0.080 1.093-0.6 1.28s-1.093-0.080-1.28-0.6c-1.347-3.76-0.733-7.36 1.68-9.893 2.467-2.587 6.427-3.613 9.827-2.573 3.12 0.96 5.32 3.533 6.12 7.107 2.733 0.613 4.907 2.68 5.773 5.533 0.947 3.107 0.093 6.307-2.227 8.333-1.493 1.333-3.427 2.093-5.453 2.093z"></path>
<path d="M16 29.707c-2.68 0-5.187-1.427-6.56-3.733-0.147-0.227-0.293-0.507-0.413-0.787-0.453-0.947-0.693-2.013-0.693-3.147 0-4.227 3.44-7.667 7.667-7.667s7.667 3.44 7.667 7.667c0 1.133-0.24 2.2-0.707 3.187-0.107 0.253-0.253 0.52-0.413 0.773-1.36 2.28-3.867 3.707-6.547 3.707zM16 16.373c-3.12 0-5.667 2.547-5.667 5.667 0 0.827 0.173 1.613 0.507 2.307 0.107 0.227 0.2 0.413 0.307 0.587 1.013 1.72 2.867 2.773 4.84 2.773s3.827-1.053 4.827-2.747c0.12-0.2 0.213-0.373 0.307-0.573 0.36-0.733 0.533-1.507 0.533-2.347 0.013-3.12-2.533-5.667-5.653-5.667z"></path>
</svg>
