<!-- Generated by IcoMoon.io -->
<svg version="1.1" xmlns="http://www.w3.org/2000/svg" width="32" height="32" viewBox="0 0 32 32">
<title>cloud-change</title>
<path d="M19.747 22.8c-0.013 0-0.027 0-0.040 0h-8.893c-2.64-0.187-3.813-2.2-3.813-4 0-1.507 0.827-3.16 2.6-3.773-0.4-2 0.093-3.867 1.413-5.253 1.587-1.667 4.133-2.32 6.32-1.653 1.947 0.6 3.347 2.16 3.893 4.333 1.667 0.467 2.987 1.773 3.533 3.547 0.613 2.027 0.053 4.107-1.467 5.427-0.96 0.88-2.227 1.373-3.547 1.373zM10.853 16.8c-1.36 0.12-1.853 1.147-1.853 2 0 0.867 0.493 1.907 1.88 2h8.827c0.867 0 1.627-0.293 2.24-0.867 1.12-0.973 1.187-2.373 0.893-3.36s-1.133-2.107-2.587-2.28c-0.44-0.053-0.787-0.387-0.867-0.827-0.293-1.773-1.24-2.987-2.653-3.427-1.453-0.453-3.227 0.013-4.28 1.12-1.040 1.080-1.267 2.613-0.667 4.307 0.187 0.52-0.080 1.093-0.6 1.28-0.107 0.040-0.28 0.067-0.333 0.053z"></path>
<path d="M12 30.333c-5.693 0-10.333-4.64-10.333-10.333 0-0.547 0.453-1 1-1s1 0.453 1 1c0 3.947 2.747 7.253 6.44 8.12l-0.36-0.6c-0.28-0.48-0.133-1.093 0.347-1.373 0.467-0.28 1.093-0.133 1.373 0.347l1.4 2.333c0.187 0.307 0.187 0.693 0.013 1-0.187 0.307-0.52 0.507-0.88 0.507z"></path>
<path d="M29.334 13c-0.547 0-1-0.453-1-1 0-3.947-2.747-7.253-6.44-8.12l0.36 0.6c0.28 0.48 0.133 1.093-0.347 1.373-0.467 0.28-1.093 0.133-1.373-0.347l-1.4-2.333c-0.187-0.307-0.187-0.693-0.013-1 0.173-0.32 0.507-0.507 0.867-0.507 5.693 0 10.333 4.64 10.333 10.333 0.013 0.547-0.44 1-0.987 1z"></path>
</svg>
