<!-- Generated by IcoMoon.io -->
<svg version="1.1" xmlns="http://www.w3.org/2000/svg" width="32" height="32" viewBox="0 0 32 32">
<title>code</title>
<path d="M9.188 21c-0.373 0-0.72-0.2-0.893-0.547-0.253-0.493-0.053-1.093 0.453-1.347 1.16-0.573 2.147-1.453 2.853-2.52 0.24-0.36 0.24-0.813 0-1.173-0.72-1.067-1.707-1.947-2.853-2.52-0.507-0.24-0.707-0.84-0.453-1.347 0.24-0.493 0.84-0.693 1.333-0.44 1.467 0.733 2.72 1.84 3.627 3.2 0.68 1.027 0.68 2.36 0 3.387-0.907 1.36-2.16 2.467-3.627 3.2-0.133 0.067-0.293 0.107-0.44 0.107z"></path>
<path d="M22.667 21h-5.333c-0.547 0-1-0.453-1-1s0.453-1 1-1h5.333c0.547 0 1 0.453 1 1s-0.453 1-1 1z"></path>
<path d="M20 30.333h-8c-7.24 0-10.333-3.093-10.333-10.333v-8c0-7.24 3.093-10.333 10.333-10.333h8c7.24 0 10.333 3.093 10.333 10.333v8c0 7.24-3.093 10.333-10.333 10.333zM12 3.667c-6.147 0-8.333 2.187-8.333 8.333v8c0 6.147 2.187 8.333 8.333 8.333h8c6.147 0 8.333-2.187 8.333-8.333v-8c0-6.147-2.187-8.333-8.333-8.333h-8z"></path>
</svg>
