<!-- Generated by IcoMoon.io -->
<svg version="1.1" xmlns="http://www.w3.org/2000/svg" width="32" height="32" viewBox="0 0 32 32">
<title>code-circle</title>
<path d="M10.666 19.667c-0.253 0-0.507-0.093-0.707-0.293l-2.667-2.667c-0.387-0.387-0.387-1.027 0-1.413l2.667-2.667c0.387-0.387 1.027-0.387 1.413 0s0.387 1.027 0 1.413l-1.96 1.96 1.96 1.96c0.387 0.387 0.387 1.027 0 1.413-0.2 0.2-0.453 0.293-0.707 0.293z"></path>
<path d="M21.333 19.667c-0.253 0-0.507-0.093-0.707-0.293-0.387-0.387-0.387-1.027 0-1.413l1.96-1.96-1.96-1.96c-0.387-0.387-0.387-1.027 0-1.413s1.027-0.387 1.413 0l2.667 2.667c0.387 0.387 0.387 1.027 0 1.413l-2.667 2.667c-0.2 0.2-0.453 0.293-0.707 0.293z"></path>
<path d="M16 30.333c-7.907 0-14.333-6.427-14.333-14.333s6.427-14.333 14.333-14.333c7.907 0 14.333 6.427 14.333 14.333s-6.427 14.333-14.333 14.333zM16 3.667c-6.8 0-12.333 5.533-12.333 12.333s5.533 12.333 12.333 12.333c6.8 0 12.333-5.533 12.333-12.333s-5.533-12.333-12.333-12.333z"></path>
<path d="M14.667 20.107c-0.133 0-0.267-0.027-0.387-0.080-0.507-0.213-0.747-0.8-0.52-1.32l2.667-6.227c0.213-0.507 0.8-0.747 1.307-0.52 0.507 0.213 0.747 0.8 0.52 1.32l-2.667 6.227c-0.16 0.373-0.533 0.6-0.92 0.6z"></path>
</svg>
