<!-- Generated by IcoMoon.io -->
<svg version="1.1" xmlns="http://www.w3.org/2000/svg" width="32" height="32" viewBox="0 0 32 32">
<title>code-1</title>
<path d="M12.001 23.667c-0.147 0-0.307-0.040-0.44-0.107-1.027-0.52-1.907-1.293-2.547-2.253-0.533-0.8-0.533-1.827 0-2.627 0.64-0.96 1.52-1.733 2.547-2.24 0.493-0.253 1.093-0.040 1.347 0.453s0.053 1.093-0.453 1.347c-0.72 0.36-1.333 0.907-1.773 1.573-0.080 0.12-0.080 0.28 0 0.413 0.44 0.667 1.053 1.213 1.773 1.573 0.493 0.253 0.693 0.853 0.453 1.347-0.187 0.32-0.547 0.52-0.907 0.52z"></path>
<path d="M20.279 23.667c-0.373 0-0.72-0.2-0.893-0.547-0.253-0.493-0.053-1.093 0.453-1.347 0.72-0.36 1.333-0.907 1.773-1.573 0.080-0.12 0.080-0.28 0-0.413-0.44-0.667-1.053-1.213-1.773-1.573-0.493-0.253-0.693-0.853-0.453-1.347 0.253-0.493 0.853-0.693 1.347-0.453 1.027 0.52 1.907 1.293 2.547 2.253 0.533 0.8 0.533 1.827 0 2.627-0.64 0.96-1.52 1.733-2.547 2.24-0.16 0.093-0.307 0.133-0.453 0.133z"></path>
<path d="M20 30.333h-8c-7.24 0-10.333-3.093-10.333-10.333v-8c0-7.24 3.093-10.333 10.333-10.333h8c7.24 0 10.333 3.093 10.333 10.333v8c0 7.24-3.093 10.333-10.333 10.333zM12 3.667c-6.147 0-8.333 2.187-8.333 8.333v8c0 6.147 2.187 8.333 8.333 8.333h8c6.147 0 8.333-2.187 8.333-8.333v-8c0-6.147-2.187-8.333-8.333-8.333h-8z"></path>
<path d="M2.974 11.68c-0.547 0-1-0.453-1-1s0.44-1 1-1l25.627-0.013c0.547 0 1 0.453 1 1s-0.44 1-1 1l-25.627 0.013z"></path>
</svg>
