<!-- Generated by IcoMoon.io -->
<svg version="1.1" xmlns="http://www.w3.org/2000/svg" width="32" height="32" viewBox="0 0 32 32">
<title>coffee</title>
<path d="M18.107 30.333h-9.827c-3.653 0-6.613-2.973-6.613-6.613v-9.76c0-3.653 2.973-6.613 6.613-6.613h9.827c3.653 0 6.613 2.973 6.613 6.613v9.76c0 3.64-2.973 6.613-6.613 6.613zM8.28 9.347c-2.547 0-4.613 2.067-4.613 4.613v9.76c0 2.547 2.067 4.613 4.613 4.613h9.827c2.547 0 4.613-2.067 4.613-4.613v-9.76c0-2.547-2.067-4.613-4.613-4.613h-9.827z"></path>
<path d="M7.333 6.333c-0.547 0-1-0.453-1-1v-2.333c0-0.547 0.453-1 1-1s1 0.453 1 1v2.333c0 0.547-0.453 1-1 1z"></path>
<path d="M12.667 6.333c-0.547 0-1-0.453-1-1v-2.333c0-0.547 0.453-1 1-1s1 0.453 1 1v2.333c0 0.547-0.453 1-1 1z"></path>
<path d="M18 6.333c-0.547 0-1-0.453-1-1v-2.333c0-0.547 0.453-1 1-1s1 0.453 1 1v2.333c0 0.547-0.453 1-1 1z"></path>
<path d="M23.719 24.16c-0.547 0-1-0.453-1-1v-11.227c0-0.547 0.453-1 1-1 3.653 0 6.613 2.973 6.613 6.613s-2.973 6.613-6.613 6.613zM24.719 13.040v9.013c2.067-0.453 3.613-2.307 3.613-4.507s-1.547-4.053-3.613-4.507z"></path>
<path d="M23.347 17h-20.68c-0.547 0-1-0.453-1-1s0.453-1 1-1h20.68c0.547 0 1 0.453 1 1s-0.453 1-1 1z"></path>
</svg>
