<!-- Generated by IcoMoon.io -->
<svg version="1.1" xmlns="http://www.w3.org/2000/svg" width="32" height="32" viewBox="0 0 32 32">
<title>coin-1</title>
<path d="M16 30.333c-5.333 0-9.667-3.827-9.667-8.533v-4.933c0-0.547 0.453-1 1-1s1 0.453 1 1c0 3.493 3.293 6.133 7.667 6.133s7.667-2.64 7.667-6.133c0-0.547 0.453-1 1-1s1 0.453 1 1v4.933c0 4.707-4.333 8.533-9.667 8.533zM8.333 21.947c0.093 3.533 3.493 6.387 7.667 6.387s7.573-2.853 7.667-6.387c-1.733 1.88-4.48 3.053-7.667 3.053s-5.92-1.173-7.667-3.053z"></path>
<path d="M16 18.333c-3.68 0-6.987-1.653-8.6-4.32-0.693-1.133-1.067-2.453-1.067-3.813 0-2.293 1.027-4.453 2.88-6.080 1.813-1.587 4.227-2.453 6.787-2.453s4.96 0.867 6.787 2.44c1.853 1.64 2.88 3.8 2.88 6.093 0 1.36-0.373 2.667-1.067 3.813-1.613 2.667-4.92 4.32-8.6 4.32zM16 3.667c-2.080 0-4.027 0.693-5.48 1.973-1.413 1.227-2.187 2.853-2.187 4.56 0 1 0.267 1.933 0.773 2.773 1.267 2.080 3.907 3.36 6.893 3.36s5.627-1.293 6.893-3.36c0.52-0.84 0.773-1.773 0.773-2.773 0-1.707-0.773-3.333-2.2-4.587-1.453-1.253-3.387-1.947-5.467-1.947z"></path>
<path d="M16 25c-5.507 0-9.667-3.493-9.667-8.133v-6.667c0-4.707 4.333-8.533 9.667-8.533 2.56 0 4.96 0.867 6.787 2.44 1.853 1.64 2.88 3.8 2.88 6.093v6.667c0 4.64-4.16 8.133-9.667 8.133zM16 3.667c-4.227 0-7.667 2.933-7.667 6.533v6.667c0 3.493 3.293 6.133 7.667 6.133s7.667-2.64 7.667-6.133v-6.667c0-1.707-0.773-3.333-2.2-4.587-1.453-1.253-3.387-1.947-5.467-1.947z"></path>
</svg>
