<!-- Generated by IcoMoon.io -->
<svg version="1.1" xmlns="http://www.w3.org/2000/svg" width="32" height="32" viewBox="0 0 32 32">
<title>coin</title>
<path d="M14.453 18.054h-2c-1.533 0-2.773-1.28-2.773-2.867 0-0.547 0.453-1 1-1s1 0.453 1 1c0 0.48 0.347 0.867 0.773 0.867h2c0.307 0 0.547-0.28 0.547-0.627 0-0.467-0.080-0.493-0.387-0.6l-3.213-1.12c-1.16-0.4-1.733-1.213-1.733-2.48 0-1.44 1.147-2.627 2.547-2.627h2c1.533 0 2.773 1.28 2.773 2.867 0 0.547-0.453 1-1 1s-1-0.453-1-1c0-0.48-0.347-0.867-0.773-0.867h-2c-0.307 0-0.547 0.28-0.547 0.627 0 0.467 0.080 0.493 0.387 0.6l3.213 1.12c1.16 0.413 1.72 1.227 1.72 2.48 0.013 1.453-1.133 2.627-2.533 2.627z"></path>
<path d="M13.333 19.12c-0.547 0-1-0.453-1-1v-0.987c0-0.547 0.453-1 1-1s1 0.453 1 1v0.987c0 0.56-0.453 1-1 1z"></path>
<path d="M13.333 10.587c-0.547 0-1-0.453-1-1v-1.040c0-0.547 0.453-1 1-1s1 0.453 1 1v1.040c0 0.547-0.453 1-1 1z"></path>
<path d="M13.32 24.96c-6.427 0-11.653-5.227-11.653-11.653s5.227-11.653 11.653-11.653 11.653 5.227 11.653 11.653c0 6.427-5.24 11.653-11.653 11.653zM13.32 3.667c-5.32 0-9.653 4.333-9.653 9.653s4.333 9.64 9.653 9.64 9.653-4.333 9.653-9.653c0-5.32-4.333-9.64-9.653-9.64z"></path>
<path d="M22.692 30.293c-2.467 0-4.787-1.2-6.213-3.227-0.32-0.453-0.213-1.080 0.24-1.4s1.080-0.213 1.4 0.24c1.053 1.493 2.76 2.373 4.573 2.373 3.093 0 5.6-2.507 5.6-5.6 0-1.8-0.88-3.507-2.347-4.56-0.453-0.32-0.547-0.947-0.227-1.4s0.947-0.547 1.4-0.227c1.987 1.427 3.173 3.733 3.173 6.187 0 4.213-3.4 7.613-7.6 7.613z"></path>
</svg>
