<!-- Generated by IcoMoon.io -->
<svg version="1.1" xmlns="http://www.w3.org/2000/svg" width="32" height="32" viewBox="0 0 32 32">
<title>colors-square</title>
<path d="M12.8 25c-3.2 0-5.8-2.6-5.8-5.8 0-2.613 1.76-4.92 4.28-5.6 0.493-0.133 1 0.12 1.187 0.6 0.44 1.107 1.387 1.96 2.533 2.267 0.627 0.173 1.373 0.173 2 0 0.493-0.133 1.013 0.12 1.2 0.587 0.267 0.68 0.4 1.4 0.4 2.133 0 1.653-0.707 3.227-1.933 4.32-1.053 0.96-2.427 1.493-3.867 1.493zM11.053 15.827c-1.24 0.64-2.053 1.933-2.053 3.373 0 2.093 1.707 3.8 3.8 3.8 0.933 0 1.84-0.347 2.533-0.973 0.813-0.72 1.267-1.747 1.267-2.827 0-0.213-0.013-0.413-0.053-0.627-0.707 0.067-1.427 0-2.080-0.187-1.427-0.387-2.653-1.32-3.413-2.56z"></path>
<path d="M16 18.6c-0.533 0-1.053-0.067-1.533-0.2-1.747-0.48-3.187-1.773-3.853-3.453-0.267-0.68-0.4-1.4-0.4-2.133 0-3.2 2.6-5.8 5.8-5.8s5.8 2.6 5.8 5.8c0 0.733-0.133 1.453-0.4 2.133-0.667 1.693-2.12 2.987-3.867 3.453-0.493 0.133-1.013 0.2-1.547 0.2zM16 9c-2.093 0-3.8 1.707-3.8 3.8 0 0.48 0.093 0.96 0.267 1.4 0.44 1.107 1.387 1.96 2.533 2.267 0.627 0.173 1.373 0.173 2 0 1.16-0.32 2.107-1.16 2.533-2.267 0.173-0.44 0.267-0.92 0.267-1.4 0-2.093-1.707-3.8-3.8-3.8z"></path>
<path d="M19.2 25c-1.44 0-2.813-0.533-3.867-1.493-0.213-0.187-0.333-0.467-0.333-0.747s0.12-0.56 0.333-0.747c0.8-0.707 1.267-1.733 1.267-2.813 0-0.48-0.093-0.96-0.267-1.4-0.107-0.267-0.093-0.56 0.040-0.813 0.12-0.253 0.36-0.44 0.627-0.52 1.147-0.32 2.093-1.16 2.533-2.267 0.187-0.467 0.693-0.733 1.187-0.6 2.52 0.68 4.28 2.987 4.28 5.6 0 3.2-2.6 5.8-5.8 5.8zM17.493 22.6c0.52 0.267 1.107 0.4 1.707 0.4 2.093 0 3.8-1.707 3.8-3.8 0-1.44-0.813-2.733-2.053-3.373-0.587 0.96-1.453 1.733-2.467 2.213 0.080 0.373 0.12 0.76 0.12 1.16 0 1.227-0.387 2.413-1.107 3.4z"></path>
<path d="M20 30.333h-8c-7.24 0-10.333-3.093-10.333-10.333v-8c0-7.24 3.093-10.333 10.333-10.333h8c7.24 0 10.333 3.093 10.333 10.333v8c0 7.24-3.093 10.333-10.333 10.333zM12 3.667c-6.147 0-8.333 2.187-8.333 8.333v8c0 6.147 2.187 8.333 8.333 8.333h8c6.147 0 8.333-2.187 8.333-8.333v-8c0-6.147-2.187-8.333-8.333-8.333h-8z"></path>
</svg>
