<!-- Generated by IcoMoon.io -->
<svg version="1.1" xmlns="http://www.w3.org/2000/svg" width="32" height="32" viewBox="0 0 32 32">
<title>color-swatch</title>
<path d="M8 30.333c-0.4 0-0.827-0.040-1.253-0.12-0.227-0.053-0.427-0.107-0.627-0.16-0.227-0.067-0.44-0.147-0.64-0.227-0.053-0.013-0.093-0.040-0.133-0.053-0.467-0.24-0.867-0.48-1.227-0.747-0.027-0.013-0.040-0.040-0.067-0.053-0.2-0.16-0.387-0.32-0.56-0.507-0.187-0.2-0.32-0.36-0.467-0.52-0.307-0.4-0.56-0.8-0.787-1.267-0.027-0.040-0.040-0.093-0.053-0.147-0.080-0.187-0.147-0.373-0.2-0.573-0.080-0.28-0.133-0.467-0.173-0.667-0.093-0.467-0.133-0.88-0.133-1.28v-18c0-2.547 1.787-4.333 4.333-4.333h4c2.547 0 4.333 1.787 4.333 4.333v17.987c0 1.653-0.64 3.227-1.8 4.413-0.213 0.213-0.373 0.36-0.52 0.48-0.427 0.373-0.973 0.707-1.56 0.947-0.133 0.053-0.293 0.12-0.467 0.187-0.653 0.2-1.333 0.307-2 0.307zM6.32 28c0.133 0.053 0.267 0.093 0.4 0.133 0.147 0.040 0.293 0.080 0.44 0.12 0.733 0.133 1.52 0.093 2.147-0.12 0.093-0.040 0.227-0.080 0.347-0.133 0.427-0.173 0.773-0.387 1.080-0.64 0.133-0.107 0.227-0.2 0.32-0.28 0.84-0.867 1.28-1.933 1.28-3.067v-18c0-1.44-0.893-2.333-2.333-2.333h-4c-1.44 0-2.333 0.893-2.333 2.333v17.987c0 0.28 0.027 0.573 0.093 0.88 0.027 0.12 0.067 0.267 0.107 0.427 0.053 0.147 0.093 0.267 0.147 0.4 0.027 0.040 0.040 0.080 0.053 0.107s0.027 0.067 0.040 0.093c0.16 0.293 0.32 0.547 0.493 0.773 0.093 0.107 0.213 0.24 0.333 0.373 0.147 0.16 0.267 0.253 0.4 0.36 0.013 0.013 0.040 0.027 0.053 0.040 0.213 0.16 0.453 0.307 0.733 0.453 0.027 0.013 0.053 0.013 0.080 0.027s0.067 0.040 0.12 0.067z"></path>
<path d="M26 30.333h-18c-0.547 0-1-0.453-1-1s0.453-1 1-1c0.467 0 0.92-0.067 1.307-0.2 0.093-0.040 0.227-0.080 0.347-0.133 0.427-0.173 0.773-0.387 1.080-0.64 0.133-0.107 0.227-0.2 0.32-0.28l9.12-9.107c0.187-0.187 0.44-0.293 0.707-0.293h5.12c2.547 0 4.333 1.787 4.333 4.333v4c0 2.533-1.787 4.32-4.333 4.32zM12.613 28.333h13.387c1.44 0 2.333-0.893 2.333-2.333v-4c0-1.44-0.893-2.333-2.333-2.333h-4.707l-8.68 8.667z"></path>
<path d="M6.414 30.093c-0.093 0-0.187-0.013-0.28-0.040-0.987-0.293-1.893-0.84-2.613-1.573-0.72-0.707-1.267-1.613-1.56-2.6-0.16-0.533 0.133-1.080 0.667-1.24s1.080 0.133 1.253 0.653c0.427 1.36 1.493 2.427 2.853 2.853 0.52 0.16 0.813 0.72 0.653 1.253-0.147 0.413-0.547 0.693-0.973 0.693z"></path>
<path d="M11.813 28.72c-0.253 0-0.507-0.093-0.707-0.293-0.387-0.387-0.4-1.013-0.013-1.413 0.8-0.813 1.24-1.893 1.24-3.027v-12.88c0-0.267 0.107-0.52 0.293-0.707l3.613-3.613c1.747-1.747 4.387-1.747 6.133 0l2.827 2.827c1.8 1.8 1.8 4.333 0 6.133l-12.68 12.667c-0.2 0.213-0.453 0.307-0.707 0.307zM14.333 11.533v12.253l9.453-9.44c1.013-1.013 1.013-2.28 0-3.307l-2.827-2.827c-1-1-2.307-1-3.307 0l-3.32 3.32z"></path>
<path d="M8 26.333c-1.28 0-2.333-1.053-2.333-2.333s1.053-2.333 2.333-2.333c1.28 0 2.333 1.053 2.333 2.333s-1.053 2.333-2.333 2.333zM8 23.667c-0.187 0-0.333 0.147-0.333 0.333 0 0.373 0.667 0.373 0.667 0 0-0.187-0.147-0.333-0.333-0.333z"></path>
</svg>
