<!-- Generated by IcoMoon.io -->
<svg version="1.1" xmlns="http://www.w3.org/2000/svg" width="32" height="32" viewBox="0 0 32 32">
<title>colorfilter</title>
<path d="M10.667 30.333c-4.96 0-9-4.040-9-9 0-4.053 2.72-7.627 6.627-8.68 0.493-0.133 1 0.12 1.187 0.6 0.813 2.040 2.547 3.6 4.667 4.173 1.173 0.32 2.533 0.32 3.68 0 0.493-0.133 1.013 0.12 1.2 0.6 0.413 1.053 0.627 2.173 0.627 3.32 0 2.56-1.093 5-3 6.693-1.627 1.467-3.76 2.293-5.987 2.293zM8.027 14.84c-2.6 1.067-4.36 3.627-4.36 6.493 0 3.853 3.147 7 7 7 1.733 0 3.387-0.64 4.667-1.8 1.493-1.32 2.333-3.213 2.333-5.2 0-0.613-0.080-1.2-0.227-1.773-1.253 0.2-2.613 0.133-3.813-0.2-2.413-0.667-4.44-2.32-5.6-4.52z"></path>
<path d="M16 19.667c-0.827 0-1.627-0.107-2.373-0.32-2.707-0.747-4.96-2.747-6-5.373-0.413-1.040-0.627-2.16-0.627-3.307 0-4.96 4.040-9 9-9s9 4.040 9 9c0 1.147-0.213 2.267-0.627 3.32-1.040 2.613-3.28 4.627-6 5.373-0.747 0.2-1.547 0.307-2.373 0.307zM16 3.667c-3.853 0-7 3.147-7 7 0 0.893 0.16 1.76 0.493 2.573 0.813 2.040 2.547 3.6 4.667 4.173 1.173 0.32 2.533 0.32 3.68 0 2.12-0.573 3.867-2.147 4.667-4.173 0.32-0.813 0.493-1.68 0.493-2.573 0-3.853-3.147-7-7-7z"></path>
<path d="M21.333 30.334c-2.227 0-4.36-0.827-6-2.307-0.213-0.187-0.333-0.467-0.333-0.747s0.12-0.56 0.333-0.747c1.48-1.307 2.333-3.2 2.333-5.2 0-0.893-0.16-1.76-0.493-2.573-0.107-0.267-0.093-0.56 0.040-0.813s0.36-0.44 0.627-0.52c2.12-0.573 3.853-2.133 4.667-4.173 0.187-0.48 0.707-0.72 1.187-0.6 3.907 1.067 6.627 4.627 6.627 8.68 0.013 4.96-4.027 9-8.987 9zM17.493 27.187c1.133 0.747 2.453 1.147 3.84 1.147 3.853 0 7-3.147 7-7 0-2.867-1.76-5.427-4.36-6.493-0.987 1.88-2.64 3.373-4.613 4.173 0.2 0.747 0.307 1.533 0.307 2.32 0 2.16-0.773 4.24-2.173 5.853z"></path>
</svg>
