<!-- Generated by IcoMoon.io -->
<svg version="1.1" xmlns="http://www.w3.org/2000/svg" width="32" height="32" viewBox="0 0 32 32">
<title>command-square</title>
<path d="M19.2 20.2h-6.4c-0.547 0-1-0.453-1-1v-6.4c0-0.547 0.453-1 1-1h6.4c0.547 0 1 0.453 1 1v6.4c0 0.547-0.453 1-1 1zM13.799 18.2h4.4v-4.4h-4.4v4.4z"></path>
<path d="M10.4 25c-1.88 0-3.4-1.52-3.4-3.4s1.52-3.4 3.4-3.4h2.4c0.547 0 1 0.453 1 1v2.4c0 1.88-1.52 3.4-3.4 3.4zM10.4 20.2c-0.773 0-1.4 0.627-1.4 1.4s0.627 1.4 1.4 1.4c0.773 0 1.4-0.627 1.4-1.4v-1.4h-1.4z"></path>
<path d="M12.8 13.8h-2.4c-1.88 0-3.4-1.52-3.4-3.4s1.52-3.4 3.4-3.4c1.88 0 3.4 1.52 3.4 3.4v2.4c0 0.547-0.453 1-1 1zM10.4 9c-0.773 0-1.4 0.627-1.4 1.4s0.627 1.4 1.4 1.4h1.4v-1.4c0-0.773-0.627-1.4-1.4-1.4z"></path>
<path d="M21.601 13.8h-2.4c-0.547 0-1-0.453-1-1v-2.4c0-1.88 1.52-3.4 3.4-3.4s3.4 1.52 3.4 3.4c0 1.88-1.52 3.4-3.4 3.4zM20.201 11.8h1.4c0.773 0 1.4-0.627 1.4-1.4s-0.627-1.4-1.4-1.4c-0.773 0-1.4 0.627-1.4 1.4v1.4z"></path>
<path d="M21.601 25c-1.88 0-3.4-1.52-3.4-3.4v-2.4c0-0.547 0.453-1 1-1h2.4c1.88 0 3.4 1.52 3.4 3.4s-1.52 3.4-3.4 3.4zM20.201 20.2v1.4c0 0.773 0.627 1.4 1.4 1.4s1.4-0.627 1.4-1.4c0-0.773-0.627-1.4-1.4-1.4h-1.4z"></path>
<path d="M20 30.333h-8c-7.24 0-10.333-3.093-10.333-10.333v-8c0-7.24 3.093-10.333 10.333-10.333h8c7.24 0 10.333 3.093 10.333 10.333v8c0 7.24-3.093 10.333-10.333 10.333zM12 3.667c-6.147 0-8.333 2.187-8.333 8.333v8c0 6.147 2.187 8.333 8.333 8.333h8c6.147 0 8.333-2.187 8.333-8.333v-8c0-6.147-2.187-8.333-8.333-8.333h-8z"></path>
</svg>
