<!-- Generated by IcoMoon.io -->
<svg version="1.1" xmlns="http://www.w3.org/2000/svg" width="32" height="32" viewBox="0 0 32 32">
<title>command</title>
<path d="M21.333 22.333h-10.667c-0.547 0-1-0.453-1-1v-10.667c0-0.547 0.453-1 1-1h10.667c0.547 0 1 0.453 1 1v10.667c0 0.547-0.453 1-1 1zM11.667 20.333h8.667v-8.667h-8.667v8.667z"></path>
<path d="M6.667 30.333c-2.76 0-5-2.24-5-5s2.24-5 5-5h4c0.547 0 1 0.453 1 1v4c0 2.76-2.24 5-5 5zM6.667 22.333c-1.653 0-3 1.347-3 3s1.347 3 3 3c1.653 0 3-1.347 3-3v-3h-3z"></path>
<path d="M10.667 11.667h-4c-2.76 0-5-2.24-5-5s2.24-5 5-5c2.76 0 5 2.24 5 5v4c0 0.547-0.453 1-1 1zM6.667 3.667c-1.653 0-3 1.347-3 3s1.347 3 3 3h3v-3c0-1.653-1.347-3-3-3z"></path>
<path d="M25.333 11.667h-4c-0.547 0-1-0.453-1-1v-4c0-2.76 2.24-5 5-5s5 2.24 5 5c0 2.76-2.24 5-5 5zM22.333 9.667h3c1.653 0 3-1.347 3-3s-1.347-3-3-3c-1.653 0-3 1.347-3 3v3z"></path>
<path d="M25.333 30.333c-2.76 0-5-2.24-5-5v-4c0-0.547 0.453-1 1-1h4c2.76 0 5 2.24 5 5s-2.24 5-5 5zM22.333 22.333v3c0 1.653 1.347 3 3 3s3-1.347 3-3c0-1.653-1.347-3-3-3h-3z"></path>
</svg>
