<!-- Generated by IcoMoon.io -->
<svg version="1.1" xmlns="http://www.w3.org/2000/svg" width="32" height="32" viewBox="0 0 32 32">
<title>convert</title>
<path d="M16.007 30.31c-7.89 0-14.304-6.413-14.304-14.303s6.413-14.304 14.304-14.304c7.89 0 14.303 6.413 14.303 14.304s-6.427 14.303-14.303 14.303zM16.007 3.699c-6.786 0-12.308 5.522-12.308 12.308s5.522 12.308 12.308 12.308c6.786 0 12.308-5.522 12.308-12.308s-5.522-12.308-12.308-12.308z"></path>
<path d="M19.066 17.271c-0.266 0-0.519-0.106-0.705-0.293l-10.884-10.911c-0.386-0.386-0.386-1.025 0-1.41s1.025-0.386 1.41 0l9.194 9.207 0.013-3.646c0-0.546 0.452-0.998 0.998-0.998 0.546-0.040 0.998 0.452 0.998 0.998l-0.013 6.054c0 0.399-0.239 0.772-0.612 0.918-0.133 0.053-0.266 0.080-0.399 0.080z"></path>
<path d="M23.817 27.636c-0.253 0-0.506-0.093-0.705-0.293l-9.194-9.208-0.013 3.646c0 0.546-0.452 0.998-0.998 0.998s-0.998-0.452-0.998-0.998l0.013-6.054c0-0.399 0.239-0.772 0.612-0.918 0.373-0.16 0.798-0.067 1.091 0.213l10.884 10.911c0.386 0.386 0.386 1.025 0 1.41-0.173 0.199-0.439 0.293-0.692 0.293z"></path>
</svg>
