<!-- Generated by IcoMoon.io -->
<svg version="1.1" xmlns="http://www.w3.org/2000/svg" width="32" height="32" viewBox="0 0 32 32">
<title>convert-3d-cube</title>
<path d="M20 30.333c-0.36 0-0.693-0.2-0.867-0.507s-0.173-0.693 0.013-1l1.4-2.333c0.28-0.48 0.893-0.627 1.373-0.347s0.627 0.893 0.347 1.373l-0.36 0.6c3.68-0.867 6.44-4.173 6.44-8.12 0-0.547 0.453-1 1-1s1 0.453 1 1c-0.013 5.693-4.653 10.333-10.347 10.333z"></path>
<path d="M2.667 13c-0.547 0-1-0.453-1-1 0-5.693 4.64-10.333 10.333-10.333 0.36 0 0.693 0.2 0.867 0.507s0.173 0.693-0.013 1l-1.4 2.333c-0.28 0.48-0.893 0.627-1.373 0.347s-0.627-0.893-0.347-1.373l0.36-0.6c-3.68 0.867-6.44 4.173-6.44 8.12 0.013 0.547-0.44 1-0.987 1z"></path>
<path d="M23.574 10c-0.173 0-0.347-0.040-0.507-0.133l-5.293-3.067c-0.48-0.28-0.64-0.893-0.36-1.373s0.893-0.64 1.36-0.36l4.8 2.773 4.76-2.76c0.48-0.28 1.093-0.107 1.36 0.36 0.28 0.48 0.107 1.093-0.36 1.373l-5.267 3.040c-0.147 0.093-0.32 0.147-0.493 0.147z"></path>
<path d="M23.573 15.426c-0.547 0-1-0.453-1-1v-5.44c0-0.547 0.453-1 1-1s1 0.453 1 1v5.44c0 0.56-0.453 1-1 1z"></path>
<path d="M23.573 15.667c-0.613 0-1.24-0.133-1.733-0.413l-3.2-1.773c-1.040-0.573-1.827-1.92-1.827-3.107v-3.387c0-1.2 0.787-2.533 1.84-3.12l3.2-1.773c0.987-0.547 2.467-0.547 3.467 0l3.2 1.773c1.040 0.573 1.827 1.92 1.827 3.107v3.387c0 1.2-0.787 2.533-1.827 3.107l-3.2 1.773c-0.52 0.293-1.133 0.427-1.747 0.427zM22.813 3.827l-3.2 1.773c-0.4 0.227-0.8 0.907-0.8 1.36v3.387c0 0.467 0.4 1.147 0.8 1.36l3.2 1.787c0.387 0.213 1.133 0.213 1.52 0l3.2-1.773c0.4-0.227 0.8-0.907 0.8-1.36v-3.387c0-0.467-0.4-1.147-0.8-1.36l-3.2-1.773c-0.387-0.227-1.147-0.227-1.52-0.013z"></path>
<path d="M8.428 24.667c-0.173 0-0.347-0.040-0.507-0.133l-5.293-3.067c-0.48-0.28-0.64-0.893-0.36-1.373s0.893-0.64 1.36-0.36l4.8 2.773 4.76-2.76c0.48-0.28 1.093-0.107 1.36 0.36 0.28 0.48 0.107 1.093-0.36 1.373l-5.267 3.040c-0.147 0.093-0.32 0.147-0.493 0.147z"></path>
<path d="M8.427 30.093c-0.547 0-1-0.453-1-1v-5.44c0-0.547 0.453-1 1-1s1 0.453 1 1v5.44c0 0.56-0.44 1-1 1z"></path>
<path d="M8.427 30.333c-0.613 0-1.24-0.133-1.733-0.413l-3.2-1.773c-1.040-0.573-1.827-1.92-1.827-3.107v-3.387c0-1.2 0.787-2.533 1.827-3.107l3.2-1.773c0.987-0.547 2.48-0.547 3.467 0l3.2 1.773c1.040 0.573 1.827 1.92 1.827 3.107v3.387c0 1.2-0.787 2.533-1.84 3.12l-3.2 1.773c-0.48 0.267-1.093 0.4-1.72 0.4zM7.667 18.493l-3.2 1.773c-0.4 0.227-0.8 0.907-0.8 1.36v3.387c0 0.467 0.4 1.147 0.8 1.36l3.2 1.773c0.387 0.213 1.133 0.213 1.52 0l3.2-1.773c0.4-0.227 0.8-0.907 0.8-1.36v-3.387c0-0.467-0.4-1.147-0.8-1.36l-3.2-1.787c-0.373-0.2-1.133-0.2-1.52 0.013z"></path>
</svg>
