<!-- Generated by IcoMoon.io -->
<svg version="1.1" xmlns="http://www.w3.org/2000/svg" width="32" height="32" viewBox="0 0 32 32">
<title>convert-card</title>
<path d="M29.333 8.413h-13.333c-0.547 0-1-0.453-1-1s0.453-1 1-1h13.333c0.547 0 1 0.453 1 1 0 0.56-0.453 1-1 1z"></path>
<path d="M26.373 15h-7.4c-2.92 0-3.96-1.027-3.96-3.933v-5.467c0-2.907 1.040-3.933 3.96-3.933h7.4c2.92 0 3.96 1.027 3.96 3.933v5.48c0 2.893-1.040 3.92-3.96 3.92zM18.96 3.667c-1.813 0-1.96 0.147-1.96 1.933v5.48c0 1.787 0.147 1.933 1.96 1.933h7.4c1.813 0 1.96-0.147 1.96-1.933v-5.48c0-1.787-0.147-1.933-1.96-1.933h-7.4z"></path>
<path d="M16 23.747h-13.333c-0.547 0-1-0.453-1-1s0.453-1 1-1h13.333c0.547 0 1 0.453 1 1 0 0.56-0.453 1-1 1z"></path>
<path d="M13.040 30.333h-7.4c-2.92 0-3.96-1.027-3.96-3.933v-5.467c0-2.907 1.040-3.933 3.96-3.933h7.4c2.92 0 3.96 1.027 3.96 3.933v5.48c0 2.893-1.040 3.92-3.96 3.92zM5.626 19c-1.813 0-1.96 0.147-1.96 1.933v5.48c0 1.787 0.147 1.933 1.96 1.933h7.4c1.813 0 1.96-0.147 1.96-1.933v-5.48c0-1.787-0.147-1.933-1.96-1.933h-7.4z"></path>
<path d="M20 30.334c-0.36 0-0.693-0.2-0.867-0.507-0.173-0.32-0.173-0.693 0.013-1.013l1.4-2.333c0.28-0.467 0.893-0.627 1.373-0.347s0.627 0.893 0.347 1.373l-0.36 0.6c3.68-0.867 6.44-4.173 6.44-8.12 0-0.547 0.453-1 1-1s1 0.453 1 1c-0.013 5.707-4.653 10.347-10.347 10.347z"></path>
<path d="M2.667 13c-0.547 0-1-0.453-1-1 0-5.693 4.64-10.333 10.333-10.333 0.36 0 0.693 0.2 0.867 0.507 0.173 0.32 0.173 0.693-0.013 1.013l-1.4 2.333c-0.28 0.467-0.893 0.627-1.373 0.347s-0.627-0.893-0.347-1.373l0.36-0.6c-3.68 0.867-6.44 4.173-6.44 8.12 0.013 0.533-0.44 0.987-0.987 0.987z"></path>
</svg>
