<!-- Generated by IcoMoon.io -->
<svg version="1.1" xmlns="http://www.w3.org/2000/svg" width="32" height="32" viewBox="0 0 32 32">
<title>convertshape-2</title>
<path d="M10.467 30.333h-3.6c-3.547 0-5.2-1.653-5.2-5.2v-3.6c0-3.547 1.653-5.2 5.2-5.2h3.6c3.547 0 5.2 1.653 5.2 5.2v3.6c0 3.547-1.653 5.2-5.2 5.2zM6.867 18.333c-2.453 0-3.2 0.747-3.2 3.2v3.6c0 2.453 0.747 3.2 3.2 3.2h3.6c2.453 0 3.2-0.747 3.2-3.2v-3.6c0-2.453-0.747-3.2-3.2-3.2h-3.6z"></path>
<path d="M20 30.333c-0.36 0-0.693-0.2-0.867-0.507s-0.173-0.693 0.013-1l1.4-2.333c0.28-0.48 0.893-0.627 1.373-0.347s0.627 0.893 0.347 1.373l-0.36 0.6c3.68-0.867 6.44-4.173 6.44-8.12 0-0.547 0.453-1 1-1s1 0.453 1 1c-0.013 5.693-4.653 10.333-10.347 10.333z"></path>
<path d="M2.667 13c-0.547 0-1-0.453-1-1 0-5.693 4.64-10.333 10.333-10.333 0.36 0 0.693 0.2 0.867 0.507s0.173 0.693-0.013 1l-1.4 2.347c-0.28 0.467-0.893 0.627-1.373 0.333-0.467-0.28-0.627-0.893-0.333-1.373l0.36-0.6c-3.693 0.867-6.44 4.173-6.44 8.12 0 0.547-0.453 1-1 1z"></path>
<path d="M23.333 15.667c-3.853 0-7-3.147-7-7s3.147-7 7-7c3.853 0 7 3.147 7 7s-3.147 7-7 7zM23.333 3.667c-2.76 0-5 2.24-5 5s2.24 5 5 5c2.76 0 5-2.24 5-5s-2.24-5-5-5z"></path>
</svg>
