<!-- Generated by IcoMoon.io -->
<svg version="1.1" xmlns="http://www.w3.org/2000/svg" width="32" height="32" viewBox="0 0 32 32">
<title>copy-success</title>
<path d="M22.8 1.667h-5.6c-5.213 0-7.533 2.32-7.533 7.533v1.467c0 0.547 0.453 1 1 1h4.133c4.133 0 5.533 1.4 5.533 5.533v4.133c0 0.547 0.453 1 1 1h1.467c5.213 0 7.533-2.32 7.533-7.533v-5.6c0-5.213-2.32-7.533-7.533-7.533zM11.667 9.667v-0.467c0-4.133 1.4-5.533 5.533-5.533h5.6c4.133 0 5.533 1.4 5.533 5.533v5.6c0 4.133-1.4 5.533-5.533 5.533h-0.467v-3.133c0-5.213-2.32-7.533-7.533-7.533h-3.133z"></path>
<path d="M14.8 9.667h-5.6c-5.213 0-7.533 2.32-7.533 7.533v5.6c0 5.213 2.32 7.533 7.533 7.533h5.6c5.213 0 7.533-2.32 7.533-7.533v-5.6c0-5.213-2.32-7.533-7.533-7.533zM9.2 28.333c-4.133 0-5.533-1.4-5.533-5.533v-5.6c0-4.133 1.4-5.533 5.533-5.533h5.6c4.133 0 5.533 1.4 5.533 5.533v5.6c0 4.133-1.4 5.533-5.533 5.533h-5.6z"></path>
<path d="M10.706 23.6c-0.253 0-0.507-0.093-0.707-0.293l-2.6-2.6c-0.387-0.387-0.387-1.027 0-1.413s1.027-0.387 1.413 0l1.893 1.893 4.48-4.48c0.387-0.387 1.027-0.387 1.413 0s0.387 1.027 0 1.413l-5.2 5.187c-0.187 0.187-0.44 0.293-0.693 0.293z"></path>
</svg>
