<!-- Generated by IcoMoon.io -->
<svg version="1.1" xmlns="http://www.w3.org/2000/svg" width="32" height="32" viewBox="0 0 32 32">
<title>copy</title>
<path d="M14.8 30.333h-5.6c-5.213 0-7.533-2.32-7.533-7.533v-5.6c0-5.213 2.32-7.533 7.533-7.533h5.6c5.213 0 7.533 2.32 7.533 7.533v5.6c0 5.213-2.32 7.533-7.533 7.533zM9.2 11.667c-4.133 0-5.533 1.4-5.533 5.533v5.6c0 4.133 1.4 5.533 5.533 5.533h5.6c4.133 0 5.533-1.4 5.533-5.533v-5.6c0-4.133-1.4-5.533-5.533-5.533h-5.6z"></path>
<path d="M22.8 22.333h-1.467c-0.547 0-1-0.453-1-1v-4.133c0-4.133-1.4-5.533-5.533-5.533h-4.133c-0.547 0-1-0.453-1-1v-1.467c0-5.213 2.32-7.533 7.533-7.533h5.6c5.213 0 7.533 2.32 7.533 7.533v5.6c0 5.213-2.32 7.533-7.533 7.533zM22.333 20.333h0.467c4.133 0 5.533-1.4 5.533-5.533v-5.6c0-4.133-1.4-5.533-5.533-5.533h-5.6c-4.133 0-5.533 1.4-5.533 5.533v0.467h3.133c5.213 0 7.533 2.32 7.533 7.533v3.133z"></path>
</svg>
