<!-- Generated by IcoMoon.io -->
<svg version="1.1" xmlns="http://www.w3.org/2000/svg" width="32" height="32" viewBox="0 0 32 32">
<title>courthouse</title>
<path d="M29.333 30.333h-26.667c-0.547 0-1-0.453-1-1s0.453-1 1-1h26.667c0.547 0 1 0.453 1 1s-0.453 1-1 1z"></path>
<path d="M19.333 8.307c-1.253 0-2.507-0.24-3.707-0.72-0.373-0.147-0.627-0.52-0.627-0.933v-4c0-0.333 0.16-0.64 0.44-0.827s0.627-0.227 0.933-0.107c1.907 0.76 4.013 0.76 5.92 0 0.307-0.12 0.653-0.080 0.933 0.107s0.44 0.493 0.44 0.827v4c0 0.413-0.253 0.773-0.627 0.933-1.2 0.48-2.453 0.72-3.707 0.72zM17 5.96c1.52 0.467 3.147 0.467 4.667 0v-1.933c-1.533 0.373-3.133 0.373-4.667 0v1.933z"></path>
<path d="M16 11.667c-0.547 0-1-0.453-1-1v-4c0-0.547 0.453-1 1-1s1 0.453 1 1v4c0 0.547-0.453 1-1 1z"></path>
<path d="M26.667 30.333h-21.333c-0.547 0-1-0.453-1-1v-14.667c0-3.227 1.773-5 5-5h13.333c3.227 0 5 1.773 5 5v14.667c0 0.547-0.453 1-1 1zM6.333 28.333h19.333v-13.667c0-2.107-0.893-3-3-3h-13.333c-2.107 0-3 0.893-3 3v13.667z"></path>
<path d="M25.893 17h-19.787c-0.547 0-1-0.453-1-1s0.453-1 1-1h19.787c0.547 0 1 0.453 1 1s-0.453 1-1 1z"></path>
<path d="M11.654 16h-2v13.333h2v-13.333z"></path>
<path d="M16.987 16h-2v13.333h2v-13.333z"></path>
<path d="M22.32 16h-2v13.333h2v-13.333z"></path>
</svg>
