<!-- Generated by IcoMoon.io -->
<svg version="1.1" xmlns="http://www.w3.org/2000/svg" width="32" height="32" viewBox="0 0 32 32">
<title>cpu-setting</title>
<path d="M12.8 27.667c-5.853 0-8.467-2.613-8.467-8.467v-6.4c0-5.853 2.613-8.467 8.467-8.467h6.4c5.853 0 8.467 2.613 8.467 8.467 0 0.547-0.453 1-1 1s-1-0.453-1-1c0-4.773-1.693-6.467-6.467-6.467h-6.4c-4.773 0-6.467 1.693-6.467 6.467v6.4c0 4.773 1.693 6.467 6.467 6.467 0.547 0 1 0.453 1 1s-0.453 1-1 1z"></path>
<path d="M10.654 22.8c-0.213 0-0.44-0.067-0.627-0.213-1.16-0.92-1.707-2.387-1.707-4.587v-4c0-3.867 1.8-5.667 5.667-5.667h4c2.2 0 3.653 0.547 4.587 1.707 0.347 0.427 0.267 1.067-0.16 1.4-0.427 0.347-1.067 0.28-1.4-0.16-0.32-0.413-0.987-0.947-3.013-0.947h-4c-2.773 0-3.667 0.893-3.667 3.667v4c0 2.027 0.547 2.693 0.947 3.013 0.427 0.347 0.507 0.973 0.16 1.4-0.2 0.253-0.493 0.387-0.787 0.387z"></path>
<path d="M10.68 6.333c-0.56 0-1-0.453-1-1v-2.667c0-0.547 0.453-1 1-1s1 0.453 1 1v2.667c0 0.547-0.453 1-1 1z"></path>
<path d="M16 6.333c-0.547 0-1-0.453-1-1v-2.667c0-0.547 0.453-1 1-1s1 0.453 1 1v2.667c0 0.547-0.453 1-1 1z"></path>
<path d="M21.333 6.333c-0.547 0-1-0.453-1-1v-2.667c0-0.547 0.453-1 1-1s1 0.453 1 1v2.667c0 0.547-0.453 1-1 1z"></path>
<path d="M29.333 11.667h-2.667c-0.547 0-1-0.453-1-1s0.453-1 1-1h2.667c0.547 0 1 0.453 1 1s-0.44 1-1 1z"></path>
<path d="M10.68 30.333c-0.547 0-1-0.453-1-1v-2.667c0-0.547 0.453-1 1-1s1 0.453 1 1v2.667c0 0.547-0.453 1-1 1z"></path>
<path d="M5.333 11.667h-2.667c-0.547 0-1-0.44-1-1s0.453-1 1-1h2.667c0.547 0 1 0.453 1 1s-0.44 1-1 1z"></path>
<path d="M5.333 17h-2.667c-0.547 0-1-0.453-1-1s0.453-1 1-1h2.667c0.547 0 1 0.453 1 1s-0.44 1-1 1z"></path>
<path d="M5.333 22.333h-2.667c-0.547 0-1-0.453-1-1s0.453-1 1-1h2.667c0.547 0 1 0.453 1 1s-0.44 1-1 1z"></path>
<path d="M22.28 25.787c-1.72 0-3.12-1.4-3.12-3.12s1.4-3.12 3.12-3.12c1.72 0 3.12 1.4 3.12 3.12-0.013 1.72-1.4 3.12-3.12 3.12zM22.28 21.547c-0.613 0-1.12 0.507-1.12 1.12s0.507 1.12 1.12 1.12c0.613 0 1.12-0.507 1.12-1.12-0.013-0.613-0.507-1.12-1.12-1.12z"></path>
<path d="M24.534 30.333c-0.747 0-1.48-0.387-1.88-1.080l-0.093-0.147c-0.147-0.253-0.267-0.32-0.293-0.333-0.013 0-0.147 0.080-0.293 0.333l-0.080 0.133c-0.613 1.053-1.96 1.4-2.987 0.787l-1.2-0.693c-0.547-0.307-0.933-0.813-1.093-1.427-0.16-0.6-0.080-1.24 0.227-1.773 0.147-0.253 0.147-0.4 0.133-0.427-0.013-0.013-0.133-0.080-0.427-0.080-1.293 0-2.347-1.053-2.347-2.333v-1.24c0-1.293 1.053-2.333 2.333-2.333 0.293 0 0.413-0.080 0.44-0.093 0-0.013 0-0.16-0.147-0.413-0.307-0.547-0.4-1.173-0.227-1.773 0.16-0.6 0.547-1.107 1.093-1.427l1.213-0.707c1.013-0.6 2.36-0.253 2.96 0.787l0.080 0.147c0.147 0.253 0.267 0.32 0.293 0.333 0.013 0 0.147-0.080 0.293-0.333l0.080-0.133c0.627-1.053 1.96-1.4 2.987-0.787l1.24 0.68c0.547 0.307 0.933 0.813 1.093 1.427 0.16 0.6 0.080 1.24-0.227 1.773-0.147 0.253-0.147 0.4-0.133 0.427 0.013 0.013 0.133 0.080 0.427 0.080 1.293 0 2.347 1.053 2.347 2.333v1.24c0 1.293-1.053 2.333-2.333 2.333-0.293 0-0.413 0.080-0.44 0.093 0 0.013 0 0.16 0.147 0.413 0.307 0.547 0.4 1.173 0.227 1.773-0.16 0.6-0.547 1.107-1.093 1.427l-1.213 0.707c-0.36 0.2-0.733 0.307-1.107 0.307zM22.281 26.773c0.8 0 1.533 0.48 2.027 1.333l0.080 0.147c0.040 0.067 0.147 0.107 0.227 0.053l1.227-0.707c0.107-0.053 0.147-0.16 0.16-0.213s0.027-0.147-0.027-0.253c-0.493-0.84-0.533-1.72-0.133-2.413s1.187-1.093 2.16-1.093c0.187 0 0.347-0.16 0.347-0.333v-1.24c0-0.187-0.16-0.333-0.333-0.333-0.973 0-1.773-0.4-2.16-1.093-0.4-0.693-0.347-1.573 0.133-2.413 0.067-0.107 0.053-0.213 0.027-0.253-0.013-0.053-0.053-0.147-0.16-0.213l-1.213-0.707c-0.093-0.053-0.2-0.013-0.253 0.067l-0.067 0.12c-0.493 0.853-1.227 1.333-2.027 1.333s-1.533-0.48-2.027-1.333l-0.080-0.133c-0.040-0.080-0.16-0.107-0.227-0.067l-1.227 0.707c-0.107 0.053-0.147 0.16-0.16 0.213s-0.027 0.147 0.027 0.253c0.493 0.84 0.533 1.72 0.133 2.413s-1.187 1.093-2.16 1.093c-0.187 0-0.347 0.16-0.347 0.333v1.24c0 0.187 0.16 0.333 0.333 0.333 0.973 0 1.773 0.4 2.16 1.093 0.4 0.693 0.347 1.573-0.133 2.413-0.053 0.107-0.040 0.2-0.027 0.253s0.053 0.147 0.16 0.213l1.213 0.707c0.093 0.053 0.2 0.013 0.253-0.067l0.067-0.133c0.48-0.84 1.227-1.32 2.027-1.32z"></path>
</svg>
