<!-- Generated by IcoMoon.io -->
<svg version="1.1" xmlns="http://www.w3.org/2000/svg" width="32" height="32" viewBox="0 0 32 32">
<title>cpu</title>
<path d="M19.2 27.667h-6.4c-5.853 0-8.467-2.613-8.467-8.467v-6.4c0-5.853 2.613-8.467 8.467-8.467h6.4c5.853 0 8.467 2.613 8.467 8.467v6.4c0 5.853-2.613 8.467-8.467 8.467zM12.8 6.333c-4.773 0-6.467 1.693-6.467 6.467v6.4c0 4.773 1.693 6.467 6.467 6.467h6.4c4.773 0 6.467-1.693 6.467-6.467v-6.4c0-4.773-1.693-6.467-6.467-6.467h-6.4z"></path>
<path d="M18 23.667h-4c-3.867 0-5.667-1.8-5.667-5.667v-4c0-3.867 1.8-5.667 5.667-5.667h4c3.867 0 5.667 1.8 5.667 5.667v4c0 3.867-1.8 5.667-5.667 5.667zM14 10.333c-2.773 0-3.667 0.893-3.667 3.667v4c0 2.773 0.893 3.667 3.667 3.667h4c2.773 0 3.667-0.893 3.667-3.667v-4c0-2.773-0.893-3.667-3.667-3.667h-4z"></path>
<path d="M10.68 6.333c-0.56 0-1-0.453-1-1v-2.667c0-0.547 0.453-1 1-1s1 0.453 1 1v2.667c0 0.547-0.453 1-1 1z"></path>
<path d="M16 6.333c-0.547 0-1-0.453-1-1v-2.667c0-0.547 0.453-1 1-1s1 0.453 1 1v2.667c0 0.547-0.453 1-1 1z"></path>
<path d="M21.333 6.333c-0.547 0-1-0.453-1-1v-2.667c0-0.547 0.453-1 1-1s1 0.453 1 1v2.667c0 0.547-0.453 1-1 1z"></path>
<path d="M29.333 11.667h-2.667c-0.547 0-1-0.453-1-1s0.453-1 1-1h2.667c0.547 0 1 0.453 1 1s-0.44 1-1 1z"></path>
<path d="M29.333 17h-2.667c-0.547 0-1-0.453-1-1s0.453-1 1-1h2.667c0.547 0 1 0.453 1 1s-0.44 1-1 1z"></path>
<path d="M29.333 22.333h-2.667c-0.547 0-1-0.453-1-1s0.453-1 1-1h2.667c0.547 0 1 0.453 1 1s-0.44 1-1 1z"></path>
<path d="M21.333 30.333c-0.547 0-1-0.453-1-1v-2.667c0-0.547 0.453-1 1-1s1 0.453 1 1v2.667c0 0.547-0.453 1-1 1z"></path>
<path d="M16.013 30.333c-0.547 0-1-0.453-1-1v-2.667c0-0.547 0.453-1 1-1s1 0.453 1 1v2.667c0 0.547-0.453 1-1 1z"></path>
<path d="M10.68 30.333c-0.547 0-1-0.453-1-1v-2.667c0-0.547 0.453-1 1-1s1 0.453 1 1v2.667c0 0.547-0.453 1-1 1z"></path>
<path d="M5.333 11.667h-2.667c-0.547 0-1-0.44-1-1s0.453-1 1-1h2.667c0.547 0 1 0.453 1 1s-0.44 1-1 1z"></path>
<path d="M5.333 17h-2.667c-0.547 0-1-0.453-1-1s0.453-1 1-1h2.667c0.547 0 1 0.453 1 1s-0.44 1-1 1z"></path>
<path d="M5.333 22.333h-2.667c-0.547 0-1-0.453-1-1s0.453-1 1-1h2.667c0.547 0 1 0.453 1 1s-0.44 1-1 1z"></path>
</svg>
