<!-- Generated by IcoMoon.io -->
<svg version="1.1" xmlns="http://www.w3.org/2000/svg" width="32" height="32" viewBox="0 0 32 32">
<title>creative-commons</title>
<path d="M16 30.333c-7.907 0-14.333-6.427-14.333-14.333s6.427-14.333 14.333-14.333c7.907 0 14.333 6.427 14.333 14.333s-6.427 14.333-14.333 14.333zM16 3.667c-6.8 0-12.333 5.533-12.333 12.333s5.533 12.333 12.333 12.333c6.8 0 12.333-5.533 12.333-12.333s-5.533-12.333-12.333-12.333z"></path>
<path d="M11.988 20.827c-2.667 0-4.827-2.16-4.827-4.827s2.16-4.827 4.827-4.827c1.173 0 2.293 0.427 3.187 1.2 0.413 0.36 0.453 1 0.093 1.413s-1 0.453-1.413 0.093c-0.52-0.453-1.173-0.707-1.867-0.707-1.56 0-2.827 1.267-2.827 2.827s1.267 2.827 2.827 2.827c0.68 0 1.347-0.253 1.867-0.707 0.413-0.36 1.040-0.32 1.413 0.093 0.36 0.413 0.32 1.053-0.093 1.413-0.893 0.773-2.027 1.2-3.187 1.2z"></path>
<path d="M21.321 20.827c-2.667 0-4.827-2.16-4.827-4.827s2.16-4.827 4.827-4.827c1.173 0 2.293 0.427 3.187 1.2 0.413 0.36 0.453 1 0.093 1.413s-1 0.453-1.413 0.093c-0.52-0.453-1.173-0.707-1.867-0.707-1.56 0-2.827 1.267-2.827 2.827s1.267 2.827 2.827 2.827c0.68 0 1.347-0.253 1.867-0.707 0.413-0.36 1.040-0.32 1.413 0.093 0.36 0.413 0.32 1.053-0.093 1.413-0.893 0.773-2.027 1.2-3.187 1.2z"></path>
</svg>
