<!-- Generated by IcoMoon.io -->
<svg version="1.1" xmlns="http://www.w3.org/2000/svg" width="32" height="32" viewBox="0 0 32 32">
<title>crop</title>
<path d="M25.333 26.333h-12.133c-5.773 0-7.533-1.76-7.533-7.533v-12.133c0-0.547 0.453-1 1-1h12.133c5.773 0 7.533 1.76 7.533 7.533v12.133c0 0.547-0.453 1-1 1zM7.667 7.667v11.133c0 4.653 0.88 5.533 5.533 5.533h11.133v-11.133c0-4.653-0.88-5.533-5.533-5.533h-11.133z"></path>
<path d="M6.667 7.667c-0.547 0-1-0.453-1-1v-4c0-0.547 0.453-1 1-1s1 0.453 1 1v4c0 0.547-0.453 1-1 1z"></path>
<path d="M6.667 7.667h-4c-0.547 0-1-0.453-1-1s0.453-1 1-1h4c0.547 0 1 0.453 1 1s-0.453 1-1 1z"></path>
<path d="M25.333 30.333c-0.547 0-1-0.453-1-1v-4c0-0.547 0.453-1 1-1s1 0.453 1 1v4c0 0.547-0.453 1-1 1z"></path>
<path d="M29.333 26.333h-4c-0.547 0-1-0.453-1-1s0.453-1 1-1h4c0.547 0 1 0.453 1 1s-0.453 1-1 1z"></path>
</svg>
