<!-- Generated by IcoMoon.io -->
<svg version="1.1" xmlns="http://www.w3.org/2000/svg" width="32" height="32" viewBox="0 0 32 32">
<title>crown</title>
<path d="M22.667 28.053h-13.333c-4.227 0-7.667-3.44-7.667-7.667v-12.773c0-1.733 0.8-2.333 1.28-2.533s1.467-0.347 2.693 0.88l3.453 3.453c0.133 0.133 0.347 0.133 0.467 0l4.787-4.787c0.88-0.88 2.427-0.88 3.293 0l4.787 4.787c0.133 0.133 0.347 0.133 0.467 0l3.453-3.453c1.227-1.227 2.213-1.067 2.693-0.88 0.48 0.2 1.28 0.787 1.28 2.533v12.787c0.013 4.573-3.067 7.653-7.653 7.653zM3.747 6.987c-0.040 0.107-0.080 0.307-0.080 0.627v12.787c0 3.12 2.547 5.667 5.667 5.667h13.333c3.44 0 5.667-2.227 5.667-5.667v-12.787c0-0.32-0.040-0.507-0.080-0.613-0.107 0.053-0.267 0.16-0.493 0.387l-3.453 3.453c-0.88 0.88-2.427 0.88-3.293 0l-4.787-4.787c-0.133-0.133-0.347-0.133-0.467 0l-4.773 4.773c-0.88 0.88-2.427 0.88-3.293 0l-3.453-3.453c-0.227-0.227-0.4-0.333-0.493-0.387z"></path>
</svg>
