<!-- Generated by IcoMoon.io -->
<svg version="1.1" xmlns="http://www.w3.org/2000/svg" width="32" height="32" viewBox="0 0 32 32">
<title>crown-1</title>
<path d="M22.267 26.307h-12.533c-0.987 0-1.987-0.707-2.32-1.627l-5.52-15.453c-0.68-1.947-0.187-2.84 0.347-3.24s1.533-0.64 3.213 0.56l5.2 3.72c0.16 0.093 0.307 0.133 0.413 0.107 0.12-0.040 0.213-0.147 0.28-0.333l2.347-6.253c0.707-1.867 1.747-2.147 2.307-2.147s1.6 0.28 2.307 2.147l2.347 6.253c0.067 0.173 0.16 0.293 0.28 0.333s0.267 0 0.413-0.12l4.88-3.48c1.787-1.28 2.827-1.027 3.4-0.613 0.56 0.427 1.080 1.373 0.347 3.44l-5.387 15.080c-0.333 0.92-1.333 1.627-2.32 1.627zM3.574 7.747c0.027 0.187 0.080 0.453 0.213 0.8l5.52 15.453c0.053 0.133 0.293 0.307 0.427 0.307h12.533c0.147 0 0.387-0.173 0.427-0.307l5.387-15.067c0.187-0.507 0.24-0.853 0.253-1.053-0.2 0.067-0.507 0.213-0.947 0.533l-4.88 3.48c-0.667 0.467-1.453 0.613-2.16 0.4s-1.28-0.773-1.573-1.533l-2.347-6.253c-0.173-0.467-0.333-0.693-0.427-0.8-0.093 0.107-0.253 0.333-0.427 0.787l-2.347 6.253c-0.28 0.76-0.853 1.32-1.573 1.533-0.707 0.213-1.507 0.067-2.16-0.4l-5.2-3.72c-0.307-0.213-0.547-0.347-0.72-0.413z"></path>
<path d="M23.333 30.333h-14.667c-0.547 0-1-0.453-1-1s0.453-1 1-1h14.667c0.547 0 1 0.453 1 1s-0.453 1-1 1z"></path>
<path d="M19.333 19.667h-6.667c-0.547 0-1-0.453-1-1s0.453-1 1-1h6.667c0.547 0 1 0.453 1 1s-0.453 1-1 1z"></path>
</svg>
