<!-- Generated by IcoMoon.io -->
<svg version="1.1" xmlns="http://www.w3.org/2000/svg" width="32" height="32" viewBox="0 0 32 32">
<title>cup</title>
<path d="M16.201 25.8c-0.547 0-1-0.453-1-1v-2.8c0-0.547 0.453-1 1-1s1 0.453 1 1v2.8c0 0.547-0.453 1-1 1z"></path>
<path d="M23.867 30.333h-15.333v-2.333c0-2.027 1.64-3.667 3.667-3.667h8c2.027 0 3.667 1.64 3.667 3.667v2.333zM10.534 28.333h11.333v-0.333c0-0.92-0.747-1.667-1.667-1.667h-8c-0.92 0-1.667 0.747-1.667 1.667v0.333z"></path>
<path d="M24.201 30.333h-16c-0.547 0-1-0.453-1-1s0.453-1 1-1h16c0.547 0 1 0.453 1 1s-0.453 1-1 1z"></path>
<path d="M24.574 16.587c-0.28 0-0.56-0.12-0.76-0.347-0.253-0.293-0.32-0.707-0.16-1.053 0.453-1.040 0.68-2.147 0.68-3.307v-4c0-0.467-0.080-0.92-0.24-1.4-0.013-0.040-0.027-0.093-0.040-0.147-0.040-0.2-0.053-0.4-0.053-0.587 0-0.547 0.453-1 1-1h0.8c2.387 0 4.333 2 4.333 4.467 0 2.040-0.84 4.053-2.293 5.507-0.027 0.027-0.107 0.093-0.12 0.107-0.787 0.653-1.68 1.387-2.88 1.72-0.093 0.027-0.173 0.040-0.267 0.040zM26.241 6.787c0.067 0.36 0.093 0.733 0.093 1.093v4c0 0.547-0.040 1.067-0.12 1.6 0.080-0.067 0.147-0.12 0.227-0.187 1.067-1.067 1.693-2.56 1.693-4.080 0-1.2-0.813-2.213-1.893-2.427z"></path>
<path d="M7.441 16.533c-0.107 0-0.2-0.013-0.307-0.053-1.093-0.347-2.12-0.987-2.973-1.84-1.533-1.693-2.293-3.547-2.293-5.507 0-2.427 1.907-4.333 4.333-4.333h0.867c0.333 0 0.653 0.173 0.84 0.453s0.213 0.64 0.080 0.947c-0.213 0.48-0.32 1.027-0.32 1.6v4c0 1.147 0.227 2.267 0.693 3.333 0.16 0.36 0.080 0.773-0.173 1.067-0.2 0.213-0.467 0.333-0.747 0.333zM5.734 6.84c-1.080 0.213-1.867 1.147-1.867 2.293 0 1.453 0.587 2.853 1.747 4.133 0.053 0.067 0.12 0.12 0.187 0.173-0.093-0.547-0.133-1.093-0.133-1.64v-4c0-0.32 0.027-0.64 0.067-0.96z"></path>
<path d="M16 22.333c-5.693 0-10.333-4.64-10.333-10.333v-4c0-3.493 2.84-6.333 6.333-6.333h8c3.493 0 6.333 2.84 6.333 6.333v4c0 5.693-4.64 10.333-10.333 10.333zM12 3.667c-2.387 0-4.333 1.947-4.333 4.333v4c0 4.6 3.733 8.333 8.333 8.333s8.333-3.733 8.333-8.333v-4c0-2.387-1.947-4.333-4.333-4.333h-8z"></path>
</svg>
