<!-- Generated by IcoMoon.io -->
<svg version="1.1" xmlns="http://www.w3.org/2000/svg" width="32" height="32" viewBox="0 0 32 32">
<title>d-rotate</title>
<path d="M16.001 17.44c-0.173 0-0.347-0.040-0.507-0.133l-7.067-4.080c-0.48-0.28-0.64-0.893-0.36-1.36 0.28-0.48 0.88-0.64 1.373-0.36l6.56 3.8 6.52-3.773c0.48-0.28 1.093-0.107 1.373 0.36 0.28 0.48 0.107 1.093-0.36 1.36l-7.013 4.053c-0.173 0.080-0.347 0.133-0.52 0.133z"></path>
<path d="M16 24.693c-0.547 0-1-0.453-1-1v-7.253c0-0.547 0.453-1 1-1s1 0.453 1 1v7.253c0 0.547-0.453 1-1 1z"></path>
<path d="M16 25c-0.773 0-1.533-0.173-2.147-0.507l-4.267-2.373c-1.28-0.707-2.267-2.4-2.267-3.867v-4.52c0-1.453 1-3.16 2.267-3.867l4.267-2.373c1.227-0.68 3.067-0.68 4.293 0l4.267 2.373c1.28 0.707 2.267 2.4 2.267 3.867v4.52c0 1.453-1 3.16-2.267 3.867l-4.267 2.373c-0.613 0.333-1.373 0.507-2.147 0.507zM16 9c-0.44 0-0.867 0.080-1.173 0.253l-4.267 2.373c-0.653 0.36-1.24 1.373-1.24 2.107v4.52c0 0.747 0.587 1.747 1.24 2.107l4.267 2.373c0.613 0.347 1.733 0.347 2.347 0l4.267-2.373c0.653-0.36 1.24-1.373 1.24-2.107v-4.52c0-0.747-0.587-1.747-1.24-2.107l-4.267-2.373c-0.307-0.173-0.733-0.253-1.173-0.253z"></path>
<path d="M20 30.333c-0.36 0-0.693-0.2-0.867-0.507-0.173-0.32-0.173-0.693 0.013-1.013l1.4-2.333c0.28-0.467 0.893-0.627 1.373-0.347s0.627 0.893 0.347 1.373l-0.36 0.6c3.68-0.867 6.44-4.173 6.44-8.12 0-0.547 0.453-1 1-1s1 0.453 1 1c-0.013 5.707-4.653 10.347-10.347 10.347z"></path>
<path d="M2.667 13c-0.547 0-1-0.453-1-1 0-5.693 4.64-10.333 10.333-10.333 0.36 0 0.693 0.2 0.867 0.507 0.173 0.32 0.173 0.693-0.013 1.013l-1.4 2.333c-0.28 0.467-0.893 0.627-1.373 0.347s-0.627-0.893-0.347-1.373l0.36-0.6c-3.68 0.867-6.44 4.173-6.44 8.12 0.013 0.533-0.44 0.987-0.987 0.987z"></path>
</svg>
