<!-- Generated by IcoMoon.io -->
<svg version="1.1" xmlns="http://www.w3.org/2000/svg" width="32" height="32" viewBox="0 0 32 32">
<title>danger</title>
<path d="M16 19.667c-0.547 0-1-0.453-1-1v-6.667c0-0.547 0.453-1 1-1s1 0.453 1 1v6.667c0 0.547-0.453 1-1 1z"></path>
<path d="M16 24c-0.080 0-0.173-0.013-0.267-0.027-0.080-0.013-0.16-0.040-0.24-0.080-0.080-0.027-0.16-0.067-0.24-0.12-0.067-0.053-0.133-0.107-0.2-0.16-0.24-0.253-0.387-0.6-0.387-0.947s0.147-0.693 0.387-0.947c0.067-0.053 0.133-0.107 0.2-0.16 0.080-0.053 0.16-0.093 0.24-0.12 0.080-0.040 0.16-0.067 0.24-0.080 0.173-0.040 0.36-0.040 0.52 0 0.093 0.013 0.173 0.040 0.253 0.080 0.080 0.027 0.16 0.067 0.24 0.12 0.067 0.053 0.133 0.107 0.2 0.16 0.24 0.253 0.387 0.6 0.387 0.947s-0.147 0.693-0.387 0.947c-0.067 0.053-0.133 0.107-0.2 0.16-0.080 0.053-0.16 0.093-0.24 0.12-0.080 0.040-0.16 0.067-0.253 0.080-0.080 0.013-0.173 0.027-0.253 0.027z"></path>
<path d="M24.081 29.547h-16.16c-2.6 0-4.587-0.947-5.6-2.653-1-1.707-0.867-3.907 0.4-6.187l8.080-14.533c1.333-2.4 3.173-3.72 5.2-3.72s3.867 1.32 5.2 3.72l8.080 14.547c1.267 2.28 1.413 4.467 0.4 6.187-1.013 1.693-3 2.64-5.6 2.64zM16.001 4.453c-1.253 0-2.48 0.96-3.453 2.693l-8.067 14.547c-0.907 1.627-1.053 3.12-0.427 4.2s2.013 1.667 3.88 1.667h16.16c1.867 0 3.24-0.587 3.88-1.667s0.48-2.56-0.427-4.2l-8.093-14.547c-0.973-1.733-2.2-2.693-3.453-2.693z"></path>
</svg>
