<!-- Generated by IcoMoon.io -->
<svg version="1.1" xmlns="http://www.w3.org/2000/svg" width="32" height="32" viewBox="0 0 32 32">
<title>data-2</title>
<path d="M9.333 11.667h-4c-2.027 0-3.667-1.64-3.667-3.667v-2.667c0-2.027 1.64-3.667 3.667-3.667h4c2.027 0 3.667 1.64 3.667 3.667v2.667c0 2.027-1.64 3.667-3.667 3.667zM5.333 3.667c-0.92 0-1.667 0.747-1.667 1.667v2.667c0 0.92 0.747 1.667 1.667 1.667h4c0.92 0 1.667-0.747 1.667-1.667v-2.667c0-0.92-0.747-1.667-1.667-1.667h-4z"></path>
<path d="M27.733 10.333h-4.8c-1.44 0-2.6-1.173-2.6-2.6v-2.133c0-1.44 1.173-2.6 2.6-2.6h4.8c1.44 0 2.6 1.173 2.6 2.6v2.133c0 1.44-1.16 2.6-2.6 2.6zM22.933 5c-0.32 0-0.6 0.28-0.6 0.6v2.133c0 0.32 0.28 0.6 0.6 0.6h4.8c0.32 0 0.6-0.28 0.6-0.6v-2.133c0-0.32-0.28-0.6-0.6-0.6h-4.8z"></path>
<path d="M27.733 20.333h-4.8c-1.44 0-2.6-1.173-2.6-2.6v-2.133c0-1.44 1.173-2.6 2.6-2.6h4.8c1.44 0 2.6 1.173 2.6 2.6v2.133c0 1.44-1.16 2.6-2.6 2.6zM22.933 15c-0.32 0-0.6 0.28-0.6 0.6v2.133c0 0.32 0.28 0.6 0.6 0.6h4.8c0.32 0 0.6-0.28 0.6-0.6v-2.133c0-0.32-0.28-0.6-0.6-0.6h-4.8z"></path>
<path d="M21.333 7.667h-9.333c-0.547 0-1-0.453-1-1s0.453-1 1-1h9.333c0.547 0 1 0.453 1 1s-0.453 1-1 1z"></path>
<path d="M16.667 6.667v17.333c0 1.467 1.2 2.667 2.667 2.667h2z"></path>
<path d="M21.333 27.667h-2c-2.027 0-3.667-1.64-3.667-3.667v-17.333c0-0.547 0.453-1 1-1s1 0.453 1 1v17.333c0 0.92 0.747 1.667 1.667 1.667h2c0.547 0 1 0.453 1 1s-0.453 1-1 1z"></path>
<path d="M21.333 17.667h-4.667c-0.547 0-1-0.453-1-1s0.453-1 1-1h4.667c0.547 0 1 0.453 1 1s-0.453 1-1 1z"></path>
<path d="M27.733 30.333h-4.8c-1.44 0-2.6-1.173-2.6-2.6v-2.133c0-1.44 1.173-2.6 2.6-2.6h4.8c1.44 0 2.6 1.173 2.6 2.6v2.133c0 1.44-1.16 2.6-2.6 2.6zM22.933 25c-0.32 0-0.6 0.28-0.6 0.6v2.133c0 0.32 0.28 0.6 0.6 0.6h4.8c0.32 0 0.6-0.28 0.6-0.6v-2.133c0-0.32-0.28-0.6-0.6-0.6h-4.8z"></path>
</svg>
