<!-- Generated by IcoMoon.io -->
<svg version="1.1" xmlns="http://www.w3.org/2000/svg" width="32" height="32" viewBox="0 0 32 32">
<title>dcube</title>
<path d="M16 16.333c-0.587 0-1.173-0.147-1.707-0.427l-8.68-4.68c-0.787-0.427-1.28-1.267-1.28-2.2s0.493-1.773 1.28-2.2l8.68-4.68c1.067-0.573 2.347-0.573 3.4 0l8.68 4.68c0.787 0.427 1.28 1.267 1.28 2.2s-0.493 1.773-1.28 2.2l-8.68 4.68c-0.52 0.293-1.107 0.427-1.693 0.427zM16 3.707c-0.253 0-0.52 0.067-0.76 0.2l-8.667 4.667c-0.227 0.12-0.24 0.373-0.24 0.453s0.013 0.333 0.24 0.44l8.68 4.68c0.48 0.253 1.027 0.253 1.507 0l8.68-4.68c0.213-0.12 0.24-0.373 0.24-0.44 0-0.080-0.013-0.333-0.24-0.44l-8.68-4.68c-0.24-0.133-0.507-0.2-0.76-0.2z"></path>
<path d="M13.040 30.293c-0.373 0-0.76-0.093-1.107-0.267l-8.080-4.027c-1.347-0.68-2.187-2.040-2.187-3.547v-7.627c0-0.867 0.44-1.653 1.173-2.107 0.747-0.453 1.64-0.493 2.413-0.107l8.080 4.027c1.347 0.68 2.187 2.027 2.187 3.547v7.627c0 0.867-0.44 1.653-1.173 2.107-0.4 0.253-0.853 0.373-1.307 0.373zM4.147 14.347c-0.107 0-0.2 0.040-0.253 0.067-0.080 0.053-0.227 0.173-0.227 0.413v7.627c0 0.747 0.413 1.427 1.080 1.76l8.067 4.040c0.213 0.107 0.387 0.027 0.467-0.013 0.080-0.053 0.227-0.173 0.227-0.413v-7.627c0-0.747-0.413-1.427-1.080-1.76l-8.067-4.040c-0.080-0.040-0.147-0.053-0.213-0.053z"></path>
<path d="M18.959 30.293c-0.453 0-0.907-0.12-1.307-0.373-0.733-0.453-1.173-1.24-1.173-2.107v-7.627c0-1.507 0.84-2.867 2.187-3.547l8.067-4.040c0.773-0.387 1.68-0.347 2.413 0.107s1.173 1.24 1.173 2.107v7.627c0 1.507-0.84 2.867-2.187 3.547l-8.067 4.040c-0.347 0.187-0.733 0.267-1.107 0.267zM27.853 14.347c-0.067 0-0.133 0.013-0.213 0.053l-8.067 4.040c-0.667 0.333-1.080 1-1.080 1.76v7.627c0 0.24 0.147 0.36 0.227 0.413s0.253 0.12 0.467 0.013l8.067-4.040c0.667-0.333 1.080-1.013 1.080-1.76v-7.627c0-0.24-0.147-0.36-0.227-0.413-0.053-0.027-0.147-0.067-0.253-0.067z"></path>
</svg>
