<!-- Generated by IcoMoon.io -->
<svg version="1.1" xmlns="http://www.w3.org/2000/svg" width="32" height="32" viewBox="0 0 32 32">
<title>designtools</title>
<path d="M13.907 24.493c-0.2 0-0.387-0.053-0.56-0.173-0.28-0.187-0.44-0.493-0.44-0.827 0-0.2-0.013-0.413-0.040-0.627-0.12-0.947-0.547-1.773-1.267-2.493s-1.613-1.173-2.573-1.293c-0.16-0.013-0.387-0.027-0.6-0.013-0.347 0.027-0.667-0.12-0.867-0.4-0.2-0.267-0.253-0.627-0.147-0.947 0.2-0.547 0.493-1.040 0.84-1.44l2.053-2.587c3.533-4.413 10.693-9.72 15.933-11.827 1.12-0.427 2.293-0.173 3.107 0.627 0.84 0.84 1.093 2.040 0.653 3.133-2.107 5.253-7.4 12.4-11.813 15.933l-2.627 2.107c-0.493 0.36-0.893 0.587-1.293 0.747-0.107 0.053-0.24 0.080-0.36 0.080zM10.053 17.253c1.12 0.293 2.12 0.88 2.96 1.72 0.84 0.827 1.4 1.787 1.68 2.853l2.253-1.813c4.187-3.347 9.213-10.133 11.2-15.12 0.2-0.493-0.080-0.84-0.213-0.96-0.093-0.093-0.44-0.387-0.973-0.187-4.96 2-11.747 7.027-15.107 11.213l-1.8 2.293z"></path>
<path d="M5.439 30.333c-1 0-1.96-0.4-2.68-1.12-0.827-0.827-1.227-1.973-1.093-3.147l0.36-3.28c0.347-3.253 3.013-5.667 6.32-5.733 0.253-0.013 0.587 0 0.893 0.027 1.453 0.187 2.747 0.84 3.787 1.88 1.027 1.027 1.64 2.253 1.827 3.627 0.040 0.293 0.067 0.613 0.067 0.893 0 1.76-0.68 3.4-1.907 4.64-1.027 1.013-2.347 1.64-3.84 1.827l-3.293 0.36c-0.147 0.013-0.293 0.027-0.44 0.027zM8.599 19.067c-0.053 0-0.12 0-0.173 0-2.013 0.040-4.147 1.413-4.413 3.947l-0.36 3.28c-0.067 0.56 0.133 1.107 0.52 1.507 0.387 0.387 0.933 0.587 1.48 0.52l3.28-0.36c1.027-0.133 1.947-0.56 2.64-1.253 0.853-0.853 1.333-2 1.333-3.227 0-0.2-0.013-0.413-0.040-0.627-0.12-0.947-0.547-1.773-1.267-2.493s-1.613-1.173-2.573-1.293c-0.107 0-0.267 0-0.427 0z"></path>
<path d="M18.986 20.294c-0.547 0-1-0.453-1-1 0-2.933-2.387-5.307-5.307-5.307-0.547 0-1-0.453-1-1s0.44-1 0.987-1c4.027 0 7.307 3.28 7.307 7.307 0.013 0.56-0.44 1-0.987 1z"></path>
<path d="M20.907 30.307c-1.24 0-2.48-0.587-3.667-1.773-0.387-0.387-0.387-1.027 0-1.413s1.027-0.387 1.413 0c1.573 1.573 2.92 1.573 4.493 0l3.947-3.947c1.587-1.587 1.587-2.933 0-4.507l-0.987-0.973c-0.387-0.387-0.4-1.027-0.013-1.413 0.387-0.4 1.027-0.4 1.413-0.013l0.987 0.973c2.373 2.373 2.373 4.973 0 7.347l-3.947 3.947c-1.16 1.173-2.4 1.773-3.64 1.773z"></path>
<path d="M4.146 15.013c-0.253 0-0.52-0.093-0.707-0.293-2.347-2.36-2.347-4.973 0-7.333l3.947-3.947c2.347-2.347 4.987-2.347 7.333 0l0.987 0.987c0.387 0.387 0.387 1.027 0 1.413s-1.027 0.387-1.413 0l-1-0.987c-1.573-1.573-2.933-1.573-4.493 0l-3.947 3.947c-1.573 1.587-1.573 2.933 0 4.52 0.387 0.387 0.387 1.027 0 1.413-0.2 0.187-0.453 0.28-0.707 0.28z"></path>
<path d="M10.067 11.067c-0.253 0-0.507-0.093-0.707-0.293-0.387-0.387-0.387-1.027 0-1.413l4.933-4.933c0.387-0.387 1.027-0.387 1.413 0s0.387 1.027 0 1.413l-4.933 4.933c-0.2 0.2-0.453 0.293-0.707 0.293z"></path>
<path d="M22.879 21.907c-0.253 0-0.507-0.093-0.707-0.293-0.387-0.387-0.387-1.027 0-1.413l3.947-3.947c0.387-0.387 1.027-0.387 1.413 0s0.387 1.027 0 1.413l-3.947 3.947c-0.187 0.2-0.44 0.293-0.707 0.293z"></path>
</svg>
