<!-- Generated by IcoMoon.io -->
<svg version="1.1" xmlns="http://www.w3.org/2000/svg" width="32" height="32" viewBox="0 0 32 32">
<title>devices-1</title>
<path d="M16.027 21.933h-8.027c-4.8 0-6.333-1.533-6.333-6.333v-7.6c0-4.8 1.533-6.333 6.333-6.333h13.333c4.8 0 6.333 1.533 6.333 6.333v2.387c0 0.28-0.12 0.56-0.333 0.747s-0.493 0.28-0.787 0.24c-0.293-0.040-0.64-0.053-1.013-0.053h-5.707c-2.307 0-2.8 0.493-2.8 2.8v6.813c0 0.547-0.453 1-1 1zM8 3.667c-3.72 0-4.333 0.613-4.333 4.333v7.6c0 3.72 0.613 4.333 4.333 4.333h7.027v-5.813c0-3.413 1.387-4.8 4.8-4.8h5.707c0.040 0 0.093 0 0.133 0v-1.32c0-3.72-0.613-4.333-4.333-4.333h-13.333z"></path>
<path d="M12 27.667c-0.547 0-1-0.453-1-1v-5.733c0-0.547 0.453-1 1-1s1 0.453 1 1v5.733c0 0.547-0.453 1-1 1z"></path>
<path d="M16 16.867h-13.333c-0.547 0-1-0.453-1-1s0.453-1 1-1h13.333c0.547 0 1 0.453 1 1s-0.453 1-1 1z"></path>
<path d="M16 27.667h-8.067c-0.547 0-1-0.453-1-1s0.453-1 1-1h8.067c0.547 0 1 0.453 1 1s-0.453 1-1 1z"></path>
<path fill="none" stroke-linejoin="round" stroke-linecap="round" stroke-miterlimit="10" stroke-width="2" stroke="#000" d="M26.666 10.387c-0.333-0.040-0.72-0.067-1.133-0.067h-5.707c-2.853 0-3.8 0.947-3.8 3.8v11.413c0 2.853 0.947 3.8 3.8 3.8h5.707c2.853 0 3.8-0.947 3.8-3.8v-11.413c0-2.44-0.693-3.48-2.667-3.733zM22.679 14.12c0.787 0 1.427 0.64 1.427 1.427s-0.64 1.427-1.427 1.427c-0.787 0-1.427-0.64-1.427-1.427s0.64-1.427 1.427-1.427zM22.679 25.533c-1.573 0-2.853-1.28-2.853-2.853 0-0.653 0.227-1.267 0.6-1.747 0.52-0.667 1.333-1.107 2.253-1.107 0.72 0 1.373 0.267 1.867 0.693 0.6 0.533 0.987 1.307 0.987 2.16 0 1.573-1.28 2.853-2.853 2.853z"></path>
<path d="M22.68 26.533c-2.12 0-3.853-1.733-3.853-3.853 0-0.853 0.293-1.693 0.813-2.36 0.733-0.947 1.853-1.493 3.040-1.493 0.92 0 1.827 0.333 2.52 0.933 0.853 0.76 1.333 1.813 1.333 2.92 0 2.12-1.733 3.853-3.853 3.853zM22.68 20.827c-0.573 0-1.107 0.267-1.467 0.72-0.253 0.32-0.387 0.72-0.387 1.133 0 1.027 0.827 1.853 1.853 1.853s1.853-0.827 1.853-1.853c0-0.533-0.24-1.040-0.653-1.413-0.32-0.28-0.76-0.44-1.2-0.44z"></path>
<path d="M22.679 17.973c-1.333 0-2.427-1.093-2.427-2.427s1.093-2.427 2.427-2.427c1.333 0 2.427 1.093 2.427 2.427s-1.093 2.427-2.427 2.427zM22.679 15.12c-0.24 0-0.427 0.187-0.427 0.427s0.187 0.427 0.427 0.427c0.24 0 0.427-0.187 0.427-0.427s-0.187-0.427-0.427-0.427z"></path>
</svg>
