<!-- Generated by IcoMoon.io -->
<svg version="1.1" xmlns="http://www.w3.org/2000/svg" width="32" height="32" viewBox="0 0 32 32">
<title>devices</title>
<path d="M16.001 25.893c-2.053 0-4.107-0.787-5.667-2.347-3.133-3.133-3.133-8.213 0-11.347 1.52-1.52 3.533-2.347 5.667-2.347s4.16 0.84 5.667 2.347c3.133 3.133 3.133 8.213 0 11.347-1.56 1.56-3.613 2.347-5.667 2.347zM16.001 11.867c-1.6 0-3.12 0.627-4.253 1.76-2.347 2.347-2.347 6.16 0 8.507s6.16 2.333 8.507 0c2.347-2.347 2.347-6.16 0-8.507-1.133-1.133-2.653-1.76-4.253-1.76z"></path>
<path d="M13.879 21c-0.253 0-0.52-0.093-0.707-0.293-0.387-0.387-0.387-1.027 0-1.427l2.12-2.12c0.387-0.387 1.027-0.387 1.427 0 0.387 0.387 0.387 1.027 0 1.427l-2.12 2.12c-0.213 0.2-0.467 0.293-0.72 0.293z"></path>
<path d="M25.055 10.013c-0.32 0-0.613-0.12-0.84-0.347-0.467-0.467-0.467-1.227 0-1.68 0.227-0.227 0.52-0.347 0.84-0.347s0.613 0.12 0.84 0.347c0.227 0.227 0.347 0.52 0.347 0.84s-0.12 0.613-0.347 0.84c-0.213 0.227-0.52 0.347-0.84 0.347zM24.961 8.72v0.2c0.027 0.027 0.067 0.040 0.107 0.040 0.16-0.093 0.16-0.187 0.093-0.24h-0.2z"></path>
<path d="M25.054 10.346c-0.413 0-0.787-0.16-1.080-0.453-0.587-0.587-0.587-1.56 0-2.16 0.293-0.293 0.667-0.44 1.080-0.44s0.787 0.16 1.080 0.453c0.293 0.293 0.44 0.667 0.44 1.080s-0.16 0.787-0.453 1.080c-0.267 0.28-0.653 0.44-1.067 0.44zM24.721 9.16c0.093 0.093 0.213 0.133 0.333 0.133s0.24-0.053 0.333-0.133c0.187-0.187 0.187-0.48 0-0.667-0.173-0.173-0.493-0.173-0.667 0-0.080 0.080-0.133 0.2-0.133 0.333 0 0.12 0.040 0.24 0.133 0.333z"></path>
<path d="M6.947 28.12c-0.307 0-0.613-0.12-0.84-0.347s-0.347-0.533-0.347-0.84c0-0.32 0.12-0.613 0.347-0.84s0.52-0.347 0.84-0.347c0.32 0 0.613 0.12 0.84 0.347 0.467 0.467 0.467 1.227 0 1.68-0.227 0.227-0.533 0.347-0.84 0.347zM6.92 26.8c-0.027 0-0.053 0.013-0.080 0.040-0.053 0.053-0.053 0.147 0 0.2 0.027 0.027 0.067 0.040 0.093 0.040l0.133-0.133c-0.040-0.12-0.093-0.147-0.147-0.147z"></path>
<path d="M6.947 28.453c-0.387 0-0.787-0.147-1.080-0.44s-0.453-0.68-0.453-1.080c0-0.413 0.16-0.787 0.453-1.080 0.28-0.28 0.667-0.44 1.080-0.44s0.787 0.16 1.080 0.453c0.6 0.6 0.6 1.56 0 2.16-0.293 0.28-0.693 0.427-1.080 0.427zM6.947 26.453c-0.12 0-0.24 0.040-0.333 0.133-0.187 0.187-0.187 0.48 0 0.667 0.093 0.093 0.213 0.133 0.333 0.133s0.253-0.053 0.333-0.147c0.080-0.080 0.133-0.2 0.133-0.333 0-0.12-0.053-0.253-0.133-0.333-0.093-0.067-0.213-0.12-0.333-0.12z"></path>
<path d="M28.799 19.066c-0.307 0-0.613-0.12-0.84-0.347-0.467-0.467-0.467-1.227 0-1.693 0.227-0.227 0.533-0.28 0.84-0.347 0.32 0 0.613 0.12 0.84 0.347 0.467 0.467 0.467 1.227 0 1.693-0.227 0.227-0.533 0.347-0.84 0.347zM28.706 17.973c0.027 0.027 0.067 0.040 0.107 0.040 0.147-0.093 0.147-0.187 0.093-0.24s-0.147-0.053-0.2 0c-0.053 0.053-0.053 0.147 0 0.2z"></path>
<path d="M28.801 19.4c-0.387 0-0.787-0.147-1.080-0.44-0.6-0.6-0.6-1.56 0-2.16 0.293-0.293 0.667-0.453 1.080-0.453s0.787 0.16 1.080 0.453c0.6 0.6 0.6 1.56 0 2.16-0.293 0.293-0.68 0.44-1.080 0.44zM28.467 18.213c0.093 0.093 0.213 0.133 0.333 0.133s0.24-0.053 0.333-0.133c0.187-0.187 0.187-0.48 0-0.667s-0.48-0.187-0.667 0c-0.173 0.173-0.187 0.48 0 0.667z"></path>
<path d="M3.2 19.067c-0.307 0-0.613-0.12-0.84-0.347-0.467-0.467-0.467-1.227 0-1.693s1.227-0.467 1.693 0c0.467 0.467 0.467 1.227 0 1.693-0.253 0.227-0.56 0.347-0.853 0.347zM3.094 17.974c0.053 0.053 0.147 0.053 0.2 0s0.053-0.147 0-0.2c-0.053-0.053-0.147-0.053-0.2 0s-0.053 0.147 0 0.2z"></path>
<path d="M3.199 19.4c-0.387 0-0.787-0.147-1.080-0.44-0.6-0.6-0.6-1.56 0-2.16s1.573-0.587 2.16 0c0.6 0.6 0.6 1.56 0 2.16-0.307 0.293-0.693 0.44-1.080 0.44zM2.853 18.213c0.187 0.187 0.48 0.187 0.667 0s0.187-0.493 0-0.667c-0.187-0.187-0.48-0.187-0.667 0-0.173 0.173-0.173 0.48 0 0.667z"></path>
<path d="M25.055 28.12c-0.307 0-0.613-0.12-0.84-0.347-0.467-0.467-0.467-1.227 0-1.693s1.227-0.467 1.693 0c0.227 0.227 0.347 0.52 0.347 0.84s-0.12 0.613-0.347 0.84c-0.24 0.24-0.547 0.36-0.853 0.36zM25.055 26.787c-0.040 0-0.067 0.013-0.093 0.040v0.2c0.053 0.053 0.147 0.053 0.2 0s0.053-0.147 0-0.2c-0.040-0.027-0.067-0.040-0.107-0.040z"></path>
<path d="M25.053 28.454c-0.387 0-0.787-0.147-1.080-0.44-0.6-0.6-0.6-1.56 0-2.16s1.56-0.6 2.16 0c0.293 0.293 0.453 0.667 0.453 1.080s-0.16 0.787-0.453 1.080c-0.293 0.293-0.693 0.44-1.080 0.44zM24.72 27.267c0.187 0.187 0.48 0.187 0.667 0s0.187-0.48 0-0.667c-0.187-0.187-0.48-0.187-0.667 0-0.093 0.093-0.133 0.213-0.133 0.333s0.040 0.24 0.133 0.333z"></path>
<path d="M6.947 10.013c-0.32 0-0.613-0.12-0.84-0.347s-0.347-0.52-0.347-0.84c0-0.32 0.12-0.613 0.347-0.84s0.52-0.347 0.84-0.347c0.32 0 0.613 0.12 0.84 0.347 0.467 0.467 0.467 1.227 0 1.693-0.227 0.213-0.52 0.333-0.84 0.333zM6.84 8.92c0.027 0.027 0.067 0.040 0.093 0.040l0.133-0.133-0.133-0.133c-0.147 0.080-0.147 0.173-0.093 0.227z"></path>
<path d="M6.947 10.346c-0.413 0-0.787-0.16-1.080-0.453-0.28-0.28-0.44-0.667-0.44-1.080s0.16-0.787 0.453-1.080c0.28-0.28 0.667-0.44 1.080-0.44s0.787 0.16 1.080 0.453c0.587 0.6 0.587 1.56 0 2.16-0.307 0.28-0.68 0.44-1.093 0.44zM6.614 9.16c0.093 0.093 0.213 0.147 0.333 0.147s0.24-0.053 0.333-0.133c0.093-0.080 0.133-0.213 0.133-0.333s-0.053-0.253-0.147-0.333c-0.16-0.173-0.493-0.173-0.667 0-0.173 0.16-0.173 0.467 0.013 0.653z"></path>
<path d="M15.999 6.267c-0.32 0-0.613-0.12-0.84-0.347s-0.347-0.52-0.347-0.84c0-0.32 0.12-0.613 0.347-0.84 0.467-0.467 1.227-0.467 1.693 0s0.467 1.227 0 1.68c-0.227 0.213-0.533 0.347-0.853 0.347zM16.093 4.973l-0.2 0.2c0.053 0.053 0.147 0.053 0.2 0v-0.2zM15.906 4.973c-0.053 0.053-0.053 0.147 0 0.2l0.2-0.2h-0.2z"></path>
<path d="M15.999 6.6c-0.413 0-0.787-0.16-1.080-0.453-0.28-0.28-0.44-0.667-0.44-1.080s0.16-0.787 0.453-1.080c0.6-0.6 1.56-0.6 2.16 0 0.587 0.6 0.587 1.56 0 2.16-0.293 0.293-0.68 0.453-1.093 0.453zM16.333 4.733l-0.667 0.667c0.187 0.187 0.48 0.187 0.667 0 0.093-0.093 0.133-0.213 0.133-0.333s-0.040-0.24-0.133-0.333zM15.999 4.6c-0.12 0-0.253 0.053-0.333 0.147-0.187 0.187-0.187 0.48 0 0.667l0.667-0.667c-0.080-0.093-0.2-0.147-0.333-0.147z"></path>
</svg>
