<!-- Generated by IcoMoon.io -->
<svg version="1.1" xmlns="http://www.w3.org/2000/svg" width="32" height="32" viewBox="0 0 32 32">
<title>device-message</title>
<path d="M20.667 25.533h-12c-4.453 0-7-2.547-7-7v-7.2c0-4.453 2.547-7 7-7h3.6c0.32 0 0.627 0.16 0.813 0.413s0.24 0.6 0.133 0.907c-0.147 0.413-0.213 0.867-0.213 1.347v5.2c0 1.013 0.307 1.853 0.893 2.44s1.427 0.893 2.44 0.893c0.547 0 1 0.453 1 1v1.6l3.64-2.44c0.16-0.107 0.36-0.173 0.56-0.173h3.467c0.48 0 0.933-0.067 1.347-0.213 0.307-0.107 0.64-0.053 0.907 0.133s0.413 0.493 0.413 0.813v2.267c0 4.467-2.547 7.013-7 7.013zM8.667 6.333c-3.36 0-5 1.64-5 5v7.2c0 3.36 1.64 5 5 5h12c3.36 0 5-1.64 5-5v-1.040c-0.213 0.027-0.44 0.040-0.667 0.040h-3.16l-3.6 2.4c-0.587 0.373-1.32 0.413-1.92 0.080-0.6-0.32-0.973-0.947-0.973-1.627v-0.933c-1.12-0.173-2.107-0.667-2.853-1.4-0.947-0.947-1.48-2.32-1.48-3.853v-5.2c0-0.227 0.013-0.453 0.027-0.667h-2.373z"></path>
<path d="M17.2 20.24c-0.307 0-0.613-0.080-0.893-0.227-0.6-0.32-0.973-0.947-0.973-1.627v-0.933c-1.12-0.173-2.107-0.667-2.853-1.4-0.947-0.947-1.48-2.32-1.48-3.853v-5.2c0-0.707 0.107-1.373 0.32-1.987 0.747-2.093 2.613-3.347 5.013-3.347h8.667c3.133 0 5.333 2.187 5.333 5.333v5.2c0 2.4-1.24 4.267-3.333 5.013-0.64 0.213-1.307 0.32-2 0.32h-3.16l-3.6 2.4c-0.32 0.213-0.68 0.307-1.040 0.307zM16.333 3.667c-1.533 0-2.667 0.733-3.12 2-0.133 0.4-0.213 0.853-0.213 1.333v5.2c0 1.013 0.307 1.853 0.893 2.44s1.427 0.893 2.44 0.893c0.547 0 1 0.453 1 1v1.6l3.64-2.44c0.16-0.107 0.36-0.173 0.56-0.173h3.467c0.48 0 0.933-0.067 1.347-0.213 1.267-0.453 1.987-1.587 1.987-3.12v-5.2c0-2.053-1.28-3.333-3.333-3.333h-8.667v0.013z"></path>
<path d="M19.467 30.333h-9.6c-0.547 0-1-0.453-1-1s0.453-1 1-1h9.6c0.547 0 1 0.453 1 1s-0.453 1-1 1z"></path>
<path d="M14.667 30.333c-0.547 0-1-0.453-1-1v-4.8c0-0.547 0.453-1 1-1s1 0.453 1 1v4.8c0 0.547-0.453 1-1 1z"></path>
<path d="M20.586 10.667c-0.56 0-1-0.453-1-1s0.453-1 1-1c0.547 0 1 0.453 1 1s-0.453 1-1 1z"></path>
<path d="M24.333 10.667c-0.56 0-1-0.453-1-1s0.453-1 1-1c0.547 0 1 0.453 1 1s-0.453 1-1 1z"></path>
<path d="M16.828 10.667c-0.56 0-1-0.453-1-1s0.453-1 1-1c0.547 0 1 0.453 1 1s-0.44 1-1 1z"></path>
</svg>
