<!-- Generated by IcoMoon.io -->
<svg version="1.1" xmlns="http://www.w3.org/2000/svg" width="32" height="32" viewBox="0 0 32 32">
<title>diagram</title>
<path d="M29.333 30.333h-22.667c-2.76 0-5-2.24-5-5v-22.667c0-0.547 0.453-1 1-1s1 0.453 1 1v22.667c0 1.653 1.347 3 3 3h22.667c0.547 0 1 0.453 1 1s-0.453 1-1 1z"></path>
<path d="M6.666 23.666c-0.227 0-0.467-0.080-0.653-0.24-0.413-0.36-0.467-0.987-0.107-1.413l6.12-7.147c0.667-0.773 1.627-1.24 2.64-1.28 1.013-0.027 2.013 0.347 2.733 1.067l1.267 1.267c0.333 0.333 0.773 0.493 1.24 0.493 0.467-0.013 0.893-0.227 1.2-0.587l6.12-7.147c0.36-0.413 0.987-0.467 1.413-0.107 0.413 0.36 0.467 0.987 0.107 1.413l-6.12 7.147c-0.667 0.773-1.627 1.24-2.64 1.28-1.013 0.027-2.013-0.347-2.733-1.067l-1.253-1.267c-0.333-0.333-0.773-0.507-1.24-0.493s-0.893 0.227-1.2 0.587l-6.12 7.147c-0.213 0.227-0.493 0.347-0.773 0.347z"></path>
</svg>
