<!-- Generated by IcoMoon.io -->
<svg version="1.1" xmlns="http://www.w3.org/2000/svg" width="32" height="32" viewBox="0 0 32 32">
<title>diamonds</title>
<path d="M16.001 30.134c-1.48 0-2.853-0.627-3.88-1.747l-9.147-10.053c-1.293-1.413-1.693-3.907-0.92-5.653l3.413-7.68c0.933-2.093 2.493-3.12 4.787-3.12h11.453c2.293 0 3.853 1.013 4.787 3.107l3.413 7.68c0.773 1.747 0.387 4.24-0.907 5.653l-9.133 10.067c-1 1.12-2.387 1.747-3.867 1.747zM21.721 3.867h-11.453c-1.747 0-2.453 0.773-2.96 1.933l-3.413 7.68c-0.453 1.027-0.187 2.667 0.56 3.493l9.147 10.053c0.64 0.707 1.493 1.093 2.4 1.093s1.76-0.387 2.4-1.093l9.133-10.067c0.76-0.84 1.027-2.467 0.56-3.493l-3.413-7.68c-0.507-1.147-1.213-1.92-2.96-1.92z"></path>
<path d="M4.667 11.667c-0.547 0-1-0.453-1-1s0.453-1 1-1l22.667-0.013c0.547 0 1 0.453 1 1s-0.453 1-1 1l-22.667 0.013z"></path>
</svg>
