<!-- Generated by IcoMoon.io -->
<svg version="1.1" xmlns="http://www.w3.org/2000/svg" width="32" height="32" viewBox="0 0 32 32">
<title>direct-inbox</title>
<path d="M16 13c-0.133 0-0.253-0.027-0.387-0.080-0.373-0.147-0.613-0.52-0.613-0.92v-9.333c0-0.547 0.453-1 1-1s1 0.453 1 1v6.92l0.96-0.96c0.387-0.387 1.027-0.387 1.413 0s0.387 1.027 0 1.413l-2.667 2.667c-0.187 0.187-0.44 0.293-0.707 0.293z"></path>
<path d="M15.999 13c-0.253 0-0.507-0.093-0.707-0.293l-2.667-2.667c-0.387-0.387-0.387-1.027 0-1.413s1.027-0.387 1.413 0l2.667 2.667c0.387 0.387 0.387 1.027 0 1.413-0.2 0.2-0.453 0.293-0.707 0.293z"></path>
<path d="M18.347 23.667h-4.707c-1.4 0-2.653-0.773-3.28-2.027l-1.56-3.12c-0.053-0.12-0.173-0.187-0.293-0.187h-5.867c-0.547 0-1-0.453-1-1s0.453-1 1-1h5.88c0.893 0 1.693 0.493 2.093 1.293l1.56 3.12c0.28 0.573 0.853 0.92 1.493 0.92h4.707c0.64 0 1.213-0.347 1.493-0.92l1.56-3.12c0.4-0.8 1.2-1.293 2.093-1.293h5.813c0.547 0 1 0.453 1 1s-0.453 1-1 1h-5.813c-0.133 0-0.24 0.067-0.293 0.187l-1.56 3.12c-0.667 1.253-1.92 2.027-3.32 2.027z"></path>
<path d="M20 30.333h-8c-7.24 0-10.333-3.093-10.333-10.333v-5.333c0-6.253 2.32-9.387 7.52-10.147 0.56-0.080 1.053 0.293 1.133 0.84s-0.293 1.053-0.84 1.133c-4.187 0.613-5.813 2.907-5.813 8.173v5.333c0 6.147 2.187 8.333 8.333 8.333h8c6.147 0 8.333-2.187 8.333-8.333v-5.333c0-5.267-1.627-7.56-5.813-8.173-0.547-0.080-0.92-0.587-0.84-1.133s0.587-0.92 1.133-0.84c5.2 0.76 7.52 3.893 7.52 10.147v5.333c0 7.24-3.093 10.333-10.333 10.333z"></path>
</svg>
