<!-- Generated by IcoMoon.io -->
<svg version="1.1" xmlns="http://www.w3.org/2000/svg" width="32" height="32" viewBox="0 0 32 32">
<title>direct-left</title>
<path d="M23.747 29.413c-0.84 0-1.68-0.2-2.48-0.627l-15.453-8.133c-1.733-0.907-2.813-2.693-2.813-4.653s1.080-3.747 2.813-4.653l15.453-8.133c2.067-1.080 4.467-0.733 6.133 0.893s2.067 4.027 1.027 6.107l-2.16 4.32c-0.453 0.907-0.453 2 0 2.92l2.16 4.32c1.040 2.080 0.64 4.48-1.027 6.107-1.027 1.013-2.32 1.533-3.653 1.533zM23.733 4.587c-0.48 0-1 0.12-1.533 0.4l-15.453 8.133c-1.093 0.573-1.747 1.653-1.747 2.88s0.653 2.307 1.747 2.88l15.453 8.133c1.547 0.813 2.987 0.253 3.8-0.56 0.827-0.8 1.413-2.227 0.64-3.787l-2.16-4.32c-0.733-1.48-0.733-3.227 0-4.707l2.16-4.32c0.787-1.56 0.187-2.987-0.64-3.787-0.533-0.52-1.333-0.947-2.267-0.947z"></path>
</svg>
