<!-- Generated by IcoMoon.io -->
<svg version="1.1" xmlns="http://www.w3.org/2000/svg" width="32" height="32" viewBox="0 0 32 32">
<title>directbox-notif</title>
<path d="M21.333 30.333h-10.667c-7.667 0-7.667-4.067-7.667-7.667v-1.333c0-2.973 0-6.333 6.333-6.333 1.587 0 2.173 0.387 3 1 0.040 0.040 0.093 0.067 0.133 0.12l1.36 1.44c1.147 1.213 3.227 1.213 4.373 0l1.36-1.44c0.040-0.040 0.080-0.080 0.133-0.12 0.827-0.627 1.413-1 3-1 6.333 0 6.333 3.36 6.333 6.333v1.333c-0.027 5.093-2.6 7.667-7.693 7.667zM9.333 17c-4.333 0-4.333 1.36-4.333 4.333v1.333c0 3.653 0 5.667 5.667 5.667h10.667c3.973 0 5.667-1.693 5.667-5.667v-1.333c0-2.973 0-4.333-4.333-4.333-0.96 0-1.16 0.12-1.733 0.547l-1.293 1.373c-0.96 1.013-2.253 1.573-3.64 1.573s-2.68-0.56-3.64-1.573l-1.293-1.373c-0.573-0.427-0.773-0.547-1.733-0.547z"></path>
<path d="M25.333 17c-0.547 0-1-0.453-1-1v-8c0-2.973 0-4.333-4.333-4.333h-8c-4.333 0-4.333 1.36-4.333 4.333v8c0 0.547-0.453 1-1 1s-1-0.453-1-1v-8c0-2.973 0-6.333 6.333-6.333h8c6.333 0 6.333 3.36 6.333 6.333v8c0 0.547-0.453 1-1 1z"></path>
<path d="M18.508 13.307h-4.44c-0.547 0-1-0.453-1-1s0.453-1 1-1h4.44c0.547 0 1 0.453 1 1s-0.44 1-1 1z"></path>
<path d="M19.628 9.307h-6.667c-0.547 0-1-0.453-1-1s0.453-1 1-1h6.667c0.547 0 1 0.453 1 1s-0.44 1-1 1z"></path>
</svg>
