<!-- Generated by IcoMoon.io -->
<svg version="1.1" xmlns="http://www.w3.org/2000/svg" width="32" height="32" viewBox="0 0 32 32">
<title>direct-right</title>
<path d="M8.254 29.413c-1.333 0-2.627-0.52-3.653-1.52-1.667-1.627-2.067-4.027-1.027-6.107l2.16-4.32c0.453-0.907 0.453-2 0-2.92l-2.16-4.333c-1.040-2.080-0.64-4.48 1.027-6.107s4.067-1.987 6.133-0.893l15.453 8.133c1.733 0.907 2.813 2.693 2.813 4.653s-1.080 3.747-2.813 4.653l-15.453 8.133c-0.8 0.427-1.64 0.627-2.48 0.627zM8.268 4.586c-0.92 0-1.72 0.427-2.267 0.96-0.827 0.8-1.413 2.227-0.64 3.787l2.16 4.32c0.733 1.48 0.733 3.227 0 4.707l-2.16 4.32c-0.787 1.56-0.187 2.987 0.64 3.787s2.253 1.373 3.8 0.56l15.453-8.133c1.093-0.573 1.747-1.653 1.747-2.88s-0.653-2.307-1.747-2.88l-15.453-8.16c-0.533-0.28-1.053-0.387-1.533-0.387z"></path>
</svg>
