<!-- Generated by IcoMoon.io -->
<svg version="1.1" xmlns="http://www.w3.org/2000/svg" width="32" height="32" viewBox="0 0 32 32">
<title>direct-up</title>
<path d="M24.16 29c-0.8 0-1.613-0.187-2.387-0.573l-4.32-2.16c-0.907-0.453-2-0.453-2.92 0l-4.32 2.16c-2.080 1.040-4.48 0.64-6.107-1.027s-1.987-4.067-0.893-6.133l8.133-15.453c0.907-1.733 2.693-2.813 4.653-2.813s3.747 1.080 4.653 2.813l8.133 15.453c1.080 2.067 0.733 4.467-0.893 6.133-1.027 1.053-2.36 1.6-3.733 1.6zM16 23.92c0.813 0 1.613 0.187 2.347 0.547l4.32 2.16c1.56 0.787 2.987 0.187 3.787-0.64s1.373-2.253 0.56-3.8l-8.133-15.453c-0.573-1.080-1.653-1.733-2.88-1.733s-2.307 0.653-2.88 1.747l-8.133 15.453c-0.813 1.547-0.253 2.987 0.56 3.8s2.227 1.413 3.787 0.64l4.32-2.16c0.733-0.373 1.533-0.56 2.347-0.56z"></path>
</svg>
