<!-- Generated by IcoMoon.io -->
<svg version="1.1" xmlns="http://www.w3.org/2000/svg" width="32" height="32" viewBox="0 0 32 32">
<title>direct-down</title>
<path d="M16 29c-1.96 0-3.747-1.080-4.653-2.813l-8.133-15.453c-1.093-2.067-0.733-4.467 0.893-6.133s4.027-2.067 6.107-1.027l4.32 2.16c0.907 0.453 2 0.453 2.92 0l4.32-2.16c2.093-1.040 4.493-0.64 6.12 1.027s1.987 4.067 0.893 6.133l-8.133 15.453c-0.907 1.733-2.693 2.813-4.653 2.813zM7.84 5c-0.947 0-1.773 0.453-2.307 1-0.8 0.827-1.373 2.253-0.56 3.8l8.133 15.453c0.573 1.093 1.653 1.747 2.88 1.747s2.307-0.653 2.88-1.747l8.133-15.453c0.813-1.547 0.253-2.987-0.56-3.8-0.8-0.813-2.213-1.413-3.787-0.64l-4.32 2.16c-1.48 0.733-3.227 0.733-4.707 0l-4.307-2.16c-0.507-0.253-1.013-0.36-1.48-0.36z"></path>
</svg>
