<!-- Generated by IcoMoon.io -->
<svg version="1.1" xmlns="http://www.w3.org/2000/svg" width="32" height="32" viewBox="0 0 32 32">
<title>directbox-receive</title>
<path d="M16 11.667c-0.133 0-0.253-0.027-0.387-0.080-0.373-0.147-0.613-0.52-0.613-0.92v-8c0-0.547 0.453-1 1-1s1 0.453 1 1v5.587l0.96-0.96c0.387-0.387 1.027-0.387 1.413 0s0.387 1.027 0 1.413l-2.667 2.667c-0.187 0.187-0.453 0.293-0.707 0.293z"></path>
<path d="M15.999 11.667c-0.253 0-0.507-0.093-0.707-0.293l-2.667-2.667c-0.387-0.387-0.387-1.027 0-1.413s1.027-0.387 1.413 0l2.667 2.667c0.387 0.387 0.387 1.027 0 1.413-0.2 0.2-0.453 0.293-0.707 0.293z"></path>
<path d="M21.333 30.333h-10.667c-7.667 0-7.667-4.067-7.667-7.667v-1.333c0-2.973 0-6.333 6.333-6.333 1.587 0 2.173 0.387 3 1 0.040 0.040 0.093 0.067 0.133 0.12l1.36 1.44c1.147 1.213 3.227 1.213 4.373 0l1.36-1.44c0.040-0.040 0.080-0.080 0.133-0.12 0.827-0.627 1.413-1 3-1 6.333 0 6.333 3.36 6.333 6.333v1.333c-0.027 5.093-2.6 7.667-7.693 7.667zM9.333 17c-4.333 0-4.333 1.36-4.333 4.333v1.333c0 3.653 0 5.667 5.667 5.667h10.667c3.973 0 5.667-1.693 5.667-5.667v-1.333c0-2.973 0-4.333-4.333-4.333-0.96 0-1.16 0.12-1.733 0.547l-1.293 1.373c-0.96 1.013-2.253 1.573-3.64 1.573s-2.68-0.56-3.64-1.573l-1.293-1.373c-0.573-0.427-0.773-0.547-1.733-0.547z"></path>
<path d="M6.667 17c-0.547 0-1-0.453-1-1v-5.333c0-2.587 0-5.8 4.907-6.267 0.547-0.053 1.040 0.347 1.093 0.907 0.053 0.547-0.347 1.040-0.907 1.093-3.093 0.28-3.093 1.533-3.093 4.267v5.333c0 0.547-0.453 1-1 1z"></path>
<path d="M25.333 17c-0.547 0-1-0.453-1-1v-5.333c0-2.733 0-3.987-3.093-4.28-0.547-0.053-0.947-0.547-0.893-1.093s0.533-0.96 1.093-0.893c4.907 0.467 4.907 3.68 4.907 6.267v5.333c-0.013 0.547-0.467 1-1.013 1z"></path>
</svg>
