<!-- Generated by IcoMoon.io -->
<svg version="1.1" xmlns="http://www.w3.org/2000/svg" width="32" height="32" viewBox="0 0 32 32">
<title>direct-notification</title>
<path d="M18.347 23.667h-4.707c-1.467 0-2.627-0.72-3.28-2.027l-1.187-2.387c-0.28-0.573-0.853-0.92-1.493-0.92h-5.040c-0.547 0-1-0.453-1-1s0.453-1 1-1h5.053c1.4 0 2.653 0.773 3.28 2.027l1.187 2.387c0.307 0.613 0.8 0.92 1.493 0.92h4.707c0.64 0 1.213-0.347 1.493-0.92l1.187-2.387c0.627-1.253 1.88-2.027 3.28-2.027h4.987c0.547 0 1 0.453 1 1s-0.453 1-1 1h-4.987c-0.64 0-1.213 0.347-1.493 0.92l-1.187 2.387c-0.64 1.253-1.893 2.027-3.293 2.027z"></path>
<path d="M25.333 11.667c-2.76 0-5-2.24-5-5s2.24-5 5-5c2.76 0 5 2.24 5 5s-2.24 5-5 5zM25.333 3.667c-1.653 0-3 1.347-3 3s1.347 3 3 3c1.653 0 3-1.347 3-3s-1.347-3-3-3z"></path>
<path d="M20 30.333h-8c-7.24 0-10.333-3.093-10.333-10.333v-8c0-7.24 3.093-10.333 10.333-10.333h6.667c0.547 0 1 0.453 1 1s-0.453 1-1 1h-6.667c-6.147 0-8.333 2.187-8.333 8.333v8c0 6.147 2.187 8.333 8.333 8.333h8c6.147 0 8.333-2.187 8.333-8.333v-6.667c0-0.547 0.453-1 1-1s1 0.453 1 1v6.667c0 7.24-3.093 10.333-10.333 10.333z"></path>
</svg>
