<!-- Generated by IcoMoon.io -->
<svg version="1.1" xmlns="http://www.w3.org/2000/svg" width="32" height="32" viewBox="0 0 32 32">
<title>discover-1</title>
<path d="M6.546 30.427c-1.453 0-2.693-0.467-3.6-1.373-1.293-1.293-1.693-3.267-1.12-5.56l3.307-13.24c0.573-2.293 2.813-4.52 5.093-5.093l13.24-3.307c2.293-0.573 4.267-0.173 5.56 1.12s1.693 3.267 1.12 5.56l-3.307 13.24c-0.573 2.293-2.813 4.52-5.093 5.093l-13.24 3.307c-0.68 0.16-1.333 0.253-1.96 0.253zM23.972 3.773l-13.24 3.32c-1.56 0.387-3.253 2.080-3.653 3.64l-3.307 13.24c-0.4 1.587-0.187 2.88 0.587 3.667 0.773 0.773 2.080 0.987 3.667 0.587l13.24-3.307c1.56-0.387 3.253-2.093 3.64-3.64l3.307-13.24c0.4-1.587 0.187-2.88-0.587-3.667s-2.067-0.987-3.653-0.6z"></path>
<path d="M16 21.667c-3.12 0-5.667-2.547-5.667-5.667s2.547-5.667 5.667-5.667c3.12 0 5.667 2.547 5.667 5.667s-2.547 5.667-5.667 5.667zM16 12.333c-2.027 0-3.667 1.64-3.667 3.667s1.64 3.667 3.667 3.667c2.027 0 3.667-1.64 3.667-3.667s-1.64-3.667-3.667-3.667z"></path>
</svg>
