<!-- Generated by IcoMoon.io -->
<svg version="1.1" xmlns="http://www.w3.org/2000/svg" width="32" height="32" viewBox="0 0 32 32">
<title>dislike</title>
<path d="M14.399 29.467c-0.387 0-0.773-0.067-1.133-0.2-1.667-0.547-2.733-2.387-2.36-4.093l0.653-4.2c0.013-0.093 0.013-0.227-0.080-0.333-0.067-0.067-0.16-0.107-0.267-0.107h-5.333c-1.307 0-2.44-0.547-3.107-1.493-0.653-0.92-0.787-2.133-0.36-3.307l3.187-9.707c0.493-1.933 2.56-3.493 4.693-3.493h5.067c0.747 0 2.373 0.227 3.24 1.093l4.040 3.12-1.227 1.587-4.133-3.2c-0.333-0.333-1.173-0.6-1.92-0.6h-5.067c-1.2 0-2.493 0.96-2.76 2.040l-3.227 9.8c-0.213 0.587-0.173 1.12 0.107 1.507 0.293 0.413 0.827 0.653 1.48 0.653h5.333c0.693 0 1.333 0.293 1.773 0.8 0.453 0.52 0.653 1.213 0.547 1.933l-0.667 4.28c-0.16 0.747 0.347 1.587 1.067 1.827 0.64 0.24 1.493-0.107 1.787-0.533l5.467-8.133 1.653 1.12-5.467 8.133c-0.627 0.933-1.813 1.507-2.987 1.507z"></path>
<path d="M26.159 24.133h-1.333c-2.467 0-3.667-1.16-3.667-3.533v-13.067c0-2.373 1.2-3.533 3.667-3.533h1.333c2.467 0 3.667 1.16 3.667 3.533v13.067c0 2.373-1.2 3.533-3.667 3.533zM24.825 6c-1.453 0-1.667 0.347-1.667 1.533v13.067c0 1.187 0.213 1.533 1.667 1.533h1.333c1.453 0 1.667-0.347 1.667-1.533v-13.067c0-1.187-0.213-1.533-1.667-1.533h-1.333z"></path>
</svg>
