<!-- Generated by IcoMoon.io -->
<svg version="1.1" xmlns="http://www.w3.org/2000/svg" width="32" height="32" viewBox="0 0 32 32">
<title>document-previous</title>
<path d="M12.001 23.667c-0.253 0-0.507-0.093-0.707-0.293l-2.667-2.667c-0.28-0.28-0.373-0.72-0.213-1.093s0.52-0.613 0.92-0.613h8c0.547 0 1 0.453 1 1s-0.453 1-1 1h-5.587l0.96 0.96c0.387 0.387 0.387 1.027 0 1.413-0.2 0.2-0.453 0.293-0.707 0.293z"></path>
<path d="M9.333 21c-0.253 0-0.507-0.093-0.707-0.293-0.387-0.387-0.387-1.027 0-1.413l2.667-2.667c0.387-0.387 1.027-0.387 1.413 0s0.387 1.027 0 1.413l-2.667 2.667c-0.2 0.2-0.453 0.293-0.707 0.293z"></path>
<path d="M20 30.333h-8c-7.24 0-10.333-3.093-10.333-10.333v-8c0-7.24 3.093-10.333 10.333-10.333h6.667c0.547 0 1 0.453 1 1s-0.453 1-1 1h-6.667c-6.147 0-8.333 2.187-8.333 8.333v8c0 6.147 2.187 8.333 8.333 8.333h8c6.147 0 8.333-2.187 8.333-8.333v-6.667c0-0.547 0.453-1 1-1s1 0.453 1 1v6.667c0 7.24-3.093 10.333-10.333 10.333z"></path>
<path d="M29.333 14.333h-5.333c-4.56 0-6.333-1.773-6.333-6.333v-5.333c0-0.4 0.24-0.773 0.613-0.92 0.373-0.16 0.8-0.067 1.093 0.213l10.667 10.667c0.28 0.28 0.373 0.72 0.213 1.093s-0.52 0.613-0.92 0.613zM19.667 5.080v2.92c0 3.44 0.893 4.333 4.333 4.333h2.92l-7.253-7.253z"></path>
</svg>
