<!-- Generated by IcoMoon.io -->
<svg version="1.1" xmlns="http://www.w3.org/2000/svg" width="32" height="32" viewBox="0 0 32 32">
<title>document-copy</title>
<path d="M15.2 30.333h-5.067c-5.853 0-8.467-2.613-8.467-8.467v-5.067c0-5.853 2.613-8.467 8.467-8.467h4c0.547 0 1 0.453 1 1s-0.453 1-1 1h-4c-4.773 0-6.467 1.693-6.467 6.467v5.067c0 4.773 1.693 6.467 6.467 6.467h5.067c4.773 0 6.467-1.693 6.467-6.467v-4c0-0.547 0.453-1 1-1s1 0.453 1 1v4c0 5.853-2.613 8.467-8.467 8.467z"></path>
<path d="M22.666 18.867h-4.267c-3.747 0-5.267-1.52-5.267-5.267v-4.267c0-0.4 0.24-0.773 0.613-0.92 0.373-0.16 0.8-0.067 1.093 0.213l8.533 8.533c0.28 0.28 0.373 0.72 0.213 1.093-0.147 0.373-0.52 0.613-0.92 0.613zM15.133 11.747v1.853c0 2.653 0.613 3.267 3.267 3.267h1.853l-5.12-5.12z"></path>
<path d="M20.799 3.667h-5.333c-0.547 0-1-0.453-1-1s0.453-1 1-1h5.333c0.547 0 1 0.453 1 1s-0.453 1-1 1z"></path>
<path d="M9.333 7.667c-0.547 0-1-0.453-1-1 0-2.76 2.24-5 5-5h3.493c0.547 0 1 0.453 1 1s-0.453 1-1 1h-3.493c-1.653 0-3 1.347-3 3 0 0.547-0.453 1-1 1z"></path>
<path d="M25.586 23.667c-0.547 0-1-0.453-1-1s0.453-1 1-1c1.52 0 2.747-1.24 2.747-2.747v-8.253c0-0.547 0.453-1 1-1s1 0.453 1 1v8.253c0 2.613-2.133 4.747-4.747 4.747z"></path>
<path d="M29.333 11.667h-4c-3.547 0-5-1.453-5-5v-4c0-0.4 0.24-0.773 0.613-0.92 0.373-0.16 0.8-0.067 1.093 0.213l8 8c0.28 0.28 0.373 0.72 0.213 1.093-0.147 0.373-0.52 0.613-0.92 0.613zM22.333 5.080v1.587c0 2.44 0.56 3 3 3h1.587l-4.587-4.587z"></path>
</svg>
