<!-- Generated by IcoMoon.io -->
<svg version="1.1" xmlns="http://www.w3.org/2000/svg" width="32" height="32" viewBox="0 0 32 32">
<title>document-favorite</title>
<path d="M20 30.333h-8c-7.24 0-10.333-3.093-10.333-10.333v-8c0-7.24 3.093-10.333 10.333-10.333h6.667c0.547 0 1 0.453 1 1s-0.453 1-1 1h-6.667c-6.147 0-8.333 2.187-8.333 8.333v8c0 6.147 2.187 8.333 8.333 8.333h8c6.147 0 8.333-2.187 8.333-8.333v-6.667c0-0.547 0.453-1 1-1s1 0.453 1 1v6.667c0 7.24-3.093 10.333-10.333 10.333z"></path>
<path d="M29.333 14.333h-5.333c-4.56 0-6.333-1.773-6.333-6.333v-5.333c0-0.4 0.24-0.773 0.613-0.92 0.373-0.16 0.8-0.067 1.093 0.213l10.667 10.667c0.28 0.28 0.373 0.72 0.213 1.093s-0.52 0.613-0.92 0.613zM19.667 5.080v2.92c0 3.44 0.893 4.333 4.333 4.333h2.92l-7.253-7.253z"></path>
<path d="M12.559 25.267c-1.16 0-3.853-1.413-4.68-4-0.573-1.787 0.093-4.12 2.16-4.787 0.867-0.28 1.787-0.16 2.52 0.293 0.72-0.453 1.653-0.573 2.533-0.293 2.067 0.667 2.733 3 2.16 4.787-0.84 2.64-3.667 4-4.693 4zM9.773 20.667c0.56 1.747 2.453 2.573 2.8 2.6 0.373-0.040 2.24-0.96 2.76-2.6 0.28-0.88 0-2-0.867-2.28-0.36-0.12-0.853-0.053-1.080 0.293-0.187 0.28-0.48 0.44-0.813 0.453-0.36 0-0.64-0.147-0.827-0.413-0.28-0.387-0.76-0.44-1.107-0.32-0.853 0.267-1.147 1.387-0.867 2.267z"></path>
</svg>
