<!-- Generated by IcoMoon.io -->
<svg version="1.1" xmlns="http://www.w3.org/2000/svg" width="32" height="32" viewBox="0 0 32 32">
<title>document-filter</title>
<path d="M9.44 21.467c-0.48 0-0.96-0.12-1.4-0.373-0.893-0.507-1.427-1.413-1.427-2.427v-4.76c0-0.347-0.227-0.933-0.507-1.267l-3.36-3.533c-0.627-0.613-1.080-1.68-1.080-2.493v-2.067c0-1.613 1.227-2.893 2.8-2.893h11.867c1.547 0 2.8 1.253 2.8 2.8v1.973c0 1.040-0.6 2.187-1.187 2.773l-3.907 3.453c-0.307 0.253-0.56 0.867-0.56 1.32v3.867c0 0.92-0.56 1.947-1.293 2.387l-1.227 0.8c-0.48 0.293-1 0.44-1.52 0.44zM4.467 3.667c-0.453 0-0.8 0.387-0.8 0.893v2.067c0 0.227 0.227 0.8 0.52 1.093l3.44 3.613c0.507 0.627 1 1.653 1 2.573v4.76c0 0.4 0.253 0.6 0.413 0.68 0.213 0.12 0.56 0.187 0.853 0l1.24-0.8c0.16-0.093 0.347-0.467 0.347-0.693v-3.867c0-1.053 0.52-2.213 1.253-2.84l3.84-3.4c0.24-0.24 0.56-0.893 0.56-1.32v-1.973c0-0.44-0.36-0.8-0.8-0.8h-11.867v0.013z"></path>
<path d="M20 30.333h-8c-7.24 0-10.333-3.093-10.333-10.333v-4c0-0.547 0.453-1 1-1s1 0.453 1 1v4c0 6.147 2.187 8.333 8.333 8.333h8c6.147 0 8.333-2.187 8.333-8.333v-8c0-3.867-0.907-6.107-2.947-7.267-0.213-0.12-0.92-0.44-2.947-0.76-0.547-0.080-0.92-0.6-0.827-1.147s0.613-0.92 1.147-0.827c1.747 0.28 2.933 0.6 3.613 0.987 2.693 1.533 3.96 4.4 3.96 9.013v8c0 7.24-3.093 10.333-10.333 10.333z"></path>
<path d="M24 18.333h-6.667c-0.547 0-1-0.453-1-1s0.453-1 1-1h6.667c0.547 0 1 0.453 1 1s-0.453 1-1 1z"></path>
<path d="M24 23.667h-9.333c-0.547 0-1-0.453-1-1s0.453-1 1-1h9.333c0.547 0 1 0.453 1 1s-0.453 1-1 1z"></path>
</svg>
