<!-- Generated by IcoMoon.io -->
<svg version="1.1" xmlns="http://www.w3.org/2000/svg" width="32" height="32" viewBox="0 0 32 32">
<title>document-code</title>
<path d="M21.333 30.333h-10.667c-4.867 0-7.667-2.8-7.667-7.667v-13.333c0-4.867 2.8-7.667 7.667-7.667h10.667c4.867 0 7.667 2.8 7.667 7.667v13.333c0 4.867-2.8 7.667-7.667 7.667zM10.667 3.667c-3.813 0-5.667 1.853-5.667 5.667v13.333c0 3.813 1.853 5.667 5.667 5.667h10.667c3.813 0 5.667-1.853 5.667-5.667v-13.333c0-3.813-1.853-5.667-5.667-5.667h-10.667z"></path>
<path d="M24.667 12.333h-2.667c-2.027 0-3.667-1.64-3.667-3.667v-2.667c0-0.547 0.453-1 1-1s1 0.453 1 1v2.667c0 0.92 0.747 1.667 1.667 1.667h2.667c0.547 0 1 0.453 1 1s-0.453 1-1 1z"></path>
<path d="M13.333 23.667c-0.253 0-0.507-0.093-0.707-0.293l-2.667-2.667c-0.387-0.387-0.387-1.027 0-1.413l2.667-2.667c0.387-0.387 1.027-0.387 1.413 0s0.387 1.027 0 1.413l-1.96 1.96 1.96 1.96c0.387 0.387 0.387 1.027 0 1.413-0.2 0.2-0.453 0.293-0.707 0.293z"></path>
<path d="M18.666 23.667c-0.253 0-0.507-0.093-0.707-0.293-0.387-0.387-0.387-1.027 0-1.413l1.96-1.96-1.96-1.96c-0.387-0.387-0.387-1.027 0-1.413s1.027-0.387 1.413 0l2.667 2.667c0.387 0.387 0.387 1.027 0 1.413l-2.667 2.667c-0.2 0.2-0.453 0.293-0.707 0.293z"></path>
</svg>
