<!-- Generated by IcoMoon.io -->
<svg version="1.1" xmlns="http://www.w3.org/2000/svg" width="32" height="32" viewBox="0 0 32 32">
<title>document-cloud</title>
<path d="M12 30.333c-7.24 0-10.333-3.093-10.333-10.333v-8c0-7.24 3.093-10.333 10.333-10.333h6.667c0.547 0 1 0.453 1 1s-0.453 1-1 1h-6.667c-6.147 0-8.333 2.187-8.333 8.333v8c0 6.147 2.187 8.333 8.333 8.333 0.547 0 1 0.453 1 1s-0.453 1-1 1z"></path>
<path d="M29.333 18.333c-0.547 0-1-0.453-1-1v-4c0-0.547 0.453-1 1-1s1 0.453 1 1v4c0 0.547-0.453 1-1 1z"></path>
<path d="M29.333 14.333h-5.333c-4.56 0-6.333-1.773-6.333-6.333v-5.333c0-0.4 0.24-0.773 0.613-0.92 0.373-0.16 0.8-0.067 1.093 0.213l10.667 10.667c0.28 0.28 0.373 0.72 0.213 1.093s-0.52 0.613-0.92 0.613zM19.667 5.080v2.92c0 3.44 0.893 4.333 4.333 4.333h2.92l-7.253-7.253z"></path>
<path d="M25.787 30.334c-0.013 0-0.027 0-0.027 0h-7.413c-2.227-0.16-3.347-1.867-3.347-3.493 0-1.307 0.733-2.68 2.147-3.24-0.293-1.667 0.133-3.213 1.24-4.373 1.36-1.427 3.547-2 5.44-1.413 1.653 0.507 2.84 1.813 3.333 3.627 1.4 0.427 2.507 1.533 2.96 3.040 0.533 1.747 0.040 3.533-1.28 4.68-0.813 0.747-1.907 1.173-3.053 1.173zM18.387 25.347c-1.013 0.093-1.387 0.853-1.387 1.493s0.373 1.413 1.413 1.493h7.347c0.68-0.040 1.28-0.24 1.76-0.667 0.867-0.76 0.933-1.84 0.693-2.613s-0.893-1.64-2.013-1.787c-0.44-0.053-0.787-0.387-0.867-0.827-0.293-1.8-1.307-2.467-2.093-2.707-1.16-0.36-2.56 0-3.4 0.893-0.573 0.6-1.133 1.68-0.507 3.4 0.187 0.52-0.080 1.093-0.6 1.28-0.12 0.027-0.24 0.040-0.347 0.040z"></path>
</svg>
