<!-- Generated by IcoMoon.io -->
<svg version="1.1" xmlns="http://www.w3.org/2000/svg" width="32" height="32" viewBox="0 0 32 32">
<title>document-sketch</title>
<path d="M20 30.333h-8c-7.24 0-10.333-3.093-10.333-10.333v-8c0-7.24 3.093-10.333 10.333-10.333h6.667c0.547 0 1 0.453 1 1s-0.453 1-1 1h-6.667c-6.147 0-8.333 2.187-8.333 8.333v8c0 6.147 2.187 8.333 8.333 8.333h8c6.147 0 8.333-2.187 8.333-8.333v-6.667c0-0.547 0.453-1 1-1s1 0.453 1 1v6.667c0 7.24-3.093 10.333-10.333 10.333z"></path>
<path d="M29.333 14.333h-5.333c-4.56 0-6.333-1.773-6.333-6.333v-5.333c0-0.4 0.24-0.773 0.613-0.92 0.373-0.16 0.8-0.067 1.093 0.213l10.667 10.667c0.28 0.28 0.373 0.72 0.213 1.093-0.147 0.373-0.52 0.613-0.92 0.613zM19.667 5.080v2.92c0 3.44 0.893 4.333 4.333 4.333h2.92l-7.253-7.253z"></path>
<path d="M12.868 24.947c-0.587 0-1.147-0.227-1.56-0.64l-3.28-3.28c-0.72-0.72-0.84-1.933-0.28-2.787l1.507-2.267c0.373-0.573 1.147-0.987 1.84-0.987h3.533c0.68 0 1.453 0.413 1.84 0.987l1.507 2.253c0.56 0.84 0.44 2.067-0.28 2.787l-3.28 3.28c-0.4 0.427-0.96 0.653-1.547 0.653zM11.108 17c-0.053 0.013-0.16 0.067-0.187 0.107l-1.493 2.253c-0.040 0.053-0.027 0.213 0.027 0.267l3.28 3.28c0.067 0.067 0.227 0.067 0.293 0l3.28-3.28c0.053-0.053 0.067-0.2 0.027-0.267l-1.507-2.253c-0.027-0.027-0.133-0.080-0.187-0.093l-3.533-0.013z"></path>
</svg>
