<!-- Generated by IcoMoon.io -->
<svg version="1.1" xmlns="http://www.w3.org/2000/svg" width="32" height="32" viewBox="0 0 32 32">
<title>document-like</title>
<path d="M21.333 30.333h-10.667c-4.867 0-7.667-2.8-7.667-7.667v-13.333c0-4.867 2.8-7.667 7.667-7.667h10.667c4.867 0 7.667 2.8 7.667 7.667v13.333c0 4.867-2.8 7.667-7.667 7.667zM10.667 3.667c-3.813 0-5.667 1.853-5.667 5.667v13.333c0 3.813 1.853 5.667 5.667 5.667h10.667c3.813 0 5.667-1.853 5.667-5.667v-13.333c0-3.813-1.853-5.667-5.667-5.667h-10.667z"></path>
<path d="M24.667 12.333h-2.667c-2.027 0-3.667-1.64-3.667-3.667v-2.667c0-0.547 0.453-1 1-1s1 0.453 1 1v2.667c0 0.92 0.747 1.667 1.667 1.667h2.667c0.547 0 1 0.453 1 1s-0.453 1-1 1z"></path>
<path d="M13.692 24.96c-1.173-0.027-3.853-1.453-4.667-4-0.573-1.773 0.093-4.12 2.147-4.787 0.88-0.28 1.787-0.16 2.507 0.293 0.72-0.453 1.64-0.573 2.533-0.293 2.053 0.667 2.72 3 2.173 4.787-0.827 2.64-3.667 4-4.693 4zM10.932 20.347c0.56 1.72 2.467 2.573 2.813 2.613 0.36-0.040 2.227-0.96 2.733-2.613 0.267-0.88-0.013-2-0.88-2.28-0.347-0.107-0.84-0.053-1.067 0.293-0.173 0.28-0.493 0.453-0.813 0.453-0.387 0-0.64-0.147-0.84-0.427-0.267-0.373-0.747-0.427-1.093-0.32-0.853 0.28-1.133 1.413-0.853 2.28z"></path>
</svg>
