<!-- Generated by IcoMoon.io -->
<svg version="1.1" xmlns="http://www.w3.org/2000/svg" width="32" height="32" viewBox="0 0 32 32">
<title>dollar-circle</title>
<path d="M17.867 23.227h-3.347c-2.187 0-3.96-1.84-3.96-4.107 0-0.547 0.453-1 1-1s1 0.453 1 1c0 1.16 0.88 2.107 1.96 2.107h3.347c0.867 0 1.587-0.773 1.587-1.707 0-1.16-0.413-1.387-1.093-1.627l-5.373-1.893c-1.040-0.36-2.44-1.133-2.44-3.52 0-2.053 1.613-3.707 3.587-3.707h3.347c2.187 0 3.96 1.84 3.96 4.107 0 0.547-0.453 1-1 1s-1-0.453-1-1c0-1.16-0.88-2.107-1.96-2.107h-3.347c-0.867 0-1.587 0.773-1.587 1.707 0 1.16 0.413 1.387 1.093 1.627l5.373 1.893c1.040 0.36 2.44 1.133 2.44 3.52-0.013 2.040-1.613 3.707-3.587 3.707z"></path>
<path d="M16 25c-0.547 0-1-0.453-1-1v-16c0-0.547 0.453-1 1-1s1 0.453 1 1v16c0 0.547-0.453 1-1 1z"></path>
<path d="M16 30.333c-7.907 0-14.333-6.427-14.333-14.333s6.427-14.333 14.333-14.333c7.907 0 14.333 6.427 14.333 14.333s-6.427 14.333-14.333 14.333zM16 3.667c-6.8 0-12.333 5.533-12.333 12.333s5.533 12.333 12.333 12.333c6.8 0 12.333-5.533 12.333-12.333s-5.533-12.333-12.333-12.333z"></path>
</svg>
