<!-- Generated by IcoMoon.io -->
<svg version="1.1" xmlns="http://www.w3.org/2000/svg" width="32" height="32" viewBox="0 0 32 32">
<title>driver</title>
<path d="M25.76 14.333h-19.507c-2.52 0-4.573-2.053-4.573-4.573v-3.507c0-2.52 2.053-4.573 4.573-4.573h19.507c2.52 0 4.573 2.053 4.573 4.573v3.507c0 2.52-2.053 4.573-4.573 4.573zM6.24 3.667c-1.427 0-2.573 1.16-2.573 2.573v3.507c0 1.427 1.16 2.573 2.573 2.573h19.507c1.427 0 2.573-1.16 2.573-2.573v-3.507c0-1.427-1.16-2.573-2.573-2.573h-19.507z"></path>
<path d="M25.76 30.333h-19.507c-2.52 0-4.573-2.053-4.573-4.573v-3.507c0-2.52 2.053-4.573 4.573-4.573h19.507c2.52 0 4.573 2.053 4.573 4.573v3.507c0 2.52-2.053 4.573-4.573 4.573zM6.24 19.667c-1.427 0-2.573 1.16-2.573 2.573v3.507c0 1.427 1.16 2.573 2.573 2.573h19.507c1.427 0 2.573-1.16 2.573-2.573v-3.507c0-1.427-1.16-2.573-2.573-2.573h-19.507z"></path>
<path d="M8 10.333c-0.547 0-1-0.453-1-1v-2.667c0-0.547 0.453-1 1-1s1 0.453 1 1v2.667c0 0.547-0.453 1-1 1z"></path>
<path d="M13.333 10.333c-0.547 0-1-0.453-1-1v-2.667c0-0.547 0.453-1 1-1s1 0.453 1 1v2.667c0 0.547-0.453 1-1 1z"></path>
<path d="M8 26.333c-0.547 0-1-0.453-1-1v-2.667c0-0.547 0.453-1 1-1s1 0.453 1 1v2.667c0 0.547-0.453 1-1 1z"></path>
<path d="M13.333 26.333c-0.547 0-1-0.453-1-1v-2.667c0-0.547 0.453-1 1-1s1 0.453 1 1v2.667c0 0.547-0.453 1-1 1z"></path>
<path d="M24 9h-5.333c-0.547 0-1-0.453-1-1s0.453-1 1-1h5.333c0.547 0 1 0.453 1 1s-0.453 1-1 1z"></path>
<path d="M24 25h-5.333c-0.547 0-1-0.453-1-1s0.453-1 1-1h5.333c0.547 0 1 0.453 1 1s-0.453 1-1 1z"></path>
</svg>
