<!-- Generated by IcoMoon.io -->
<svg version="1.1" xmlns="http://www.w3.org/2000/svg" width="32" height="32" viewBox="0 0 32 32">
<title>driving</title>
<path d="M23.734 11.573h-15.467c-0.307 0-0.587-0.133-0.773-0.373s-0.267-0.547-0.2-0.84l1.093-5.227c0.36-1.72 1.147-3.467 4.213-3.467h6.8c3.080 0 3.867 1.76 4.213 3.467l1.093 5.227c0.067 0.293-0.013 0.6-0.2 0.84s-0.467 0.373-0.773 0.373zM9.494 9.573h13l-0.84-4.013c-0.267-1.28-0.573-1.88-2.267-1.88h-6.8c-1.68 0-2 0.6-2.267 1.88l-0.827 4.013z"></path>
<path d="M23.694 22.2h-1.813c-1.76 0-2.12-1.093-2.32-1.68l-0.2-0.587c-0.213-0.64-0.213-0.64-0.893-0.64h-4.947c-0.68 0-0.68 0.013-0.893 0.64l-0.2 0.587c-0.2 0.587-0.56 1.68-2.32 1.68h-1.813c-0.84 0-1.653-0.36-2.213-0.973-0.547-0.6-0.827-1.413-0.747-2.227l0.547-5.88c0.173-1.84 0.773-3.547 3.947-3.547h12.333c3.173 0 3.773 1.707 3.947 3.547l0.547 5.893c0.080 0.813-0.2 1.627-0.747 2.227-0.56 0.613-1.373 0.96-2.213 0.96zM21.574 20.187c0.027 0 0.133 0.013 0.307 0.013h1.813c0.28 0 0.547-0.107 0.733-0.32 0.173-0.187 0.253-0.44 0.24-0.693l-0.547-5.893c-0.107-1.187-0.16-1.733-1.947-1.733h-12.333c-1.787 0-1.84 0.547-1.947 1.733l-0.547 5.893c-0.027 0.253 0.053 0.507 0.24 0.693 0.187 0.2 0.453 0.32 0.733 0.32h1.813c0.267 0 0.347-0.040 0.36-0.040-0.013 0 0.027-0.16 0.067-0.267l0.2-0.587c0.253-0.747 0.667-2.013 2.787-2.013h4.947c1.933 0 2.427 0.947 2.773 1.987l0.2 0.6c0.027 0.12 0.067 0.253 0.107 0.307-0.013 0 0 0 0 0z"></path>
<path d="M8.268 8.667h-0.973c-0.547 0-1-0.453-1-1s0.453-1 1-1h0.973c0.547 0 1 0.453 1 1s-0.453 1-1 1z"></path>
<path d="M24.708 8.667h-0.973c-0.547 0-1-0.453-1-1s0.453-1 1-1h0.973c0.547 0 1 0.453 1 1s-0.453 1-1 1z"></path>
<path d="M13.094 15.44h-2.907c-0.547 0-1-0.453-1-1s0.453-1 1-1h2.907c0.547 0 1 0.453 1 1s-0.44 1-1 1z"></path>
<path d="M21.8 15.44h-2.907c-0.547 0-1-0.453-1-1s0.453-1 1-1h2.907c0.547 0 1 0.453 1 1s-0.453 1-1 1z"></path>
<path d="M16 25c-0.547 0-1-0.453-1-1v-1.333c0-0.547 0.453-1 1-1s1 0.453 1 1v1.333c0 0.547-0.453 1-1 1z"></path>
<path d="M16 30.333c-0.547 0-1-0.453-1-1v-1.333c0-0.547 0.453-1 1-1s1 0.453 1 1v1.333c0 0.547-0.453 1-1 1z"></path>
<path d="M2.667 30.333c-0.080 0-0.16-0.013-0.24-0.027-0.533-0.133-0.867-0.68-0.733-1.213l1.333-5.333c0.133-0.533 0.667-0.867 1.213-0.733 0.533 0.133 0.867 0.68 0.733 1.213l-1.333 5.333c-0.12 0.453-0.52 0.76-0.973 0.76z"></path>
<path d="M29.334 30.333c-0.453 0-0.853-0.307-0.973-0.76l-1.333-5.333c-0.133-0.533 0.187-1.080 0.733-1.213 0.533-0.133 1.080 0.187 1.213 0.733l1.333 5.333c0.133 0.533-0.187 1.080-0.733 1.213-0.080 0.013-0.16 0.027-0.24 0.027z"></path>
</svg>
