<!-- Generated by IcoMoon.io -->
<svg version="1.1" xmlns="http://www.w3.org/2000/svg" width="32" height="32" viewBox="0 0 32 32">
<title>edit-2</title>
<path d="M7.387 26.027c-0.813 0-1.573-0.28-2.12-0.8-0.693-0.653-1.027-1.64-0.907-2.707l0.493-4.32c0.093-0.813 0.587-1.893 1.16-2.48l10.947-11.587c2.733-2.893 5.587-2.973 8.48-0.24s2.973 5.587 0.24 8.48l-10.947 11.587c-0.56 0.6-1.6 1.16-2.413 1.293l-4.293 0.733c-0.227 0.013-0.427 0.040-0.64 0.040zM21.24 3.88c-1.027 0-1.92 0.64-2.827 1.6l-10.947 11.6c-0.267 0.28-0.573 0.947-0.627 1.333l-0.493 4.32c-0.053 0.44 0.053 0.8 0.293 1.027s0.6 0.307 1.040 0.24l4.293-0.733c0.387-0.067 1.027-0.413 1.293-0.693l10.947-11.587c1.653-1.76 2.253-3.387-0.16-5.653-1.067-1.027-1.987-1.453-2.813-1.453z"></path>
<path d="M23.121 14.6c-0.027 0-0.067 0-0.093 0-4.16-0.413-7.507-3.573-8.147-7.707-0.080-0.547 0.293-1.053 0.84-1.147 0.547-0.080 1.053 0.293 1.147 0.84 0.507 3.227 3.12 5.707 6.373 6.027 0.547 0.053 0.947 0.547 0.893 1.093-0.067 0.507-0.507 0.893-1.013 0.893z"></path>
<path d="M28 30.333h-24c-0.547 0-1-0.453-1-1s0.453-1 1-1h24c0.547 0 1 0.453 1 1s-0.453 1-1 1z"></path>
</svg>
