<!-- Generated by IcoMoon.io -->
<svg version="1.1" xmlns="http://www.w3.org/2000/svg" width="32" height="32" viewBox="0 0 32 32">
<title>edit</title>
<path d="M20 30.333h-8c-7.24 0-10.333-3.093-10.333-10.333v-8c0-7.24 3.093-10.333 10.333-10.333h2.667c0.547 0 1 0.453 1 1s-0.453 1-1 1h-2.667c-6.147 0-8.333 2.187-8.333 8.333v8c0 6.147 2.187 8.333 8.333 8.333h8c6.147 0 8.333-2.187 8.333-8.333v-2.667c0-0.547 0.453-1 1-1s1 0.453 1 1v2.667c0 7.24-3.093 10.333-10.333 10.333z"></path>
<path d="M11.332 23.587c-0.813 0-1.56-0.293-2.107-0.827-0.653-0.653-0.933-1.6-0.787-2.6l0.573-4.013c0.107-0.773 0.613-1.773 1.16-2.32l10.507-10.507c2.653-2.653 5.347-2.653 8 0 1.453 1.453 2.107 2.933 1.973 4.413-0.12 1.2-0.76 2.373-1.973 3.573l-10.507 10.507c-0.547 0.547-1.547 1.053-2.32 1.16l-4.013 0.573c-0.173 0.040-0.347 0.040-0.507 0.040zM22.092 4.733l-10.507 10.507c-0.253 0.253-0.547 0.84-0.6 1.187l-0.573 4.013c-0.053 0.387 0.027 0.707 0.227 0.907s0.52 0.28 0.907 0.227l4.013-0.573c0.347-0.053 0.947-0.347 1.187-0.6l10.507-10.507c0.867-0.867 1.32-1.64 1.387-2.36 0.080-0.867-0.373-1.787-1.387-2.813-2.133-2.133-3.6-1.533-5.16 0.013z"></path>
<path d="M26.466 13.106c-0.093 0-0.187-0.013-0.267-0.040-3.507-0.987-6.293-3.773-7.28-7.28-0.147-0.533 0.16-1.080 0.693-1.24 0.533-0.147 1.080 0.16 1.227 0.693 0.8 2.84 3.053 5.093 5.893 5.893 0.533 0.147 0.84 0.707 0.693 1.24-0.12 0.453-0.52 0.733-0.96 0.733z"></path>
</svg>
