<!-- Generated by IcoMoon.io -->
<svg version="1.1" xmlns="http://www.w3.org/2000/svg" width="32" height="32" viewBox="0 0 32 32">
<title>electricity</title>
<path d="M18 22.333h-4c-3.667 0-6.333-2.667-6.333-6.333v-6.773c0-1.96 1.6-3.56 3.56-3.56h9.56c1.96 0 3.56 1.6 3.56 3.56v6.773c-0.013 3.667-2.68 6.333-6.347 6.333zM11.227 7.667c-0.853 0-1.56 0.693-1.56 1.56v6.773c0 2.16 1.333 4.333 4.333 4.333h4c3 0 4.333-2.173 4.333-4.333v-6.773c0-0.853-0.693-1.56-1.56-1.56h-9.547z"></path>
<path d="M12.667 7.667c-0.547 0-1-0.453-1-1v-4c0-0.547 0.453-1 1-1s1 0.453 1 1v4c0 0.547-0.453 1-1 1z"></path>
<path d="M19.333 7.667c-0.547 0-1-0.453-1-1v-4c0-0.547 0.453-1 1-1s1 0.453 1 1v4c0 0.547-0.453 1-1 1z"></path>
<path d="M16 30.333c-0.547 0-1-0.453-1-1v-8c0-0.547 0.453-1 1-1s1 0.453 1 1v8c0 0.547-0.453 1-1 1z"></path>
</svg>
