<!-- Generated by IcoMoon.io -->
<svg version="1.1" xmlns="http://www.w3.org/2000/svg" width="32" height="32" viewBox="0 0 32 32">
<title>emoji-sad</title>
<path d="M20 30.333h-8c-7.24 0-10.333-3.093-10.333-10.333v-8c0-7.24 3.093-10.333 10.333-10.333h8c7.24 0 10.333 3.093 10.333 10.333v8c0 7.24-3.093 10.333-10.333 10.333zM12 3.667c-6.147 0-8.333 2.187-8.333 8.333v8c0 6.147 2.187 8.333 8.333 8.333h8c6.147 0 8.333-2.187 8.333-8.333v-8c0-6.147-2.187-8.333-8.333-8.333h-8z"></path>
<path d="M14.186 12.667c-0.253 0-0.507-0.093-0.707-0.293-0.947-0.947-2.493-0.947-3.44 0-0.387 0.387-1.027 0.387-1.413 0s-0.387-1.027 0-1.413c1.72-1.72 4.533-1.72 6.267 0 0.387 0.387 0.387 1.027 0 1.413-0.2 0.2-0.453 0.293-0.707 0.293z"></path>
<path d="M17.814 12.667c-0.253 0-0.507-0.093-0.707-0.293-0.387-0.387-0.387-1.027 0-1.413 1.72-1.72 4.533-1.72 6.267 0 0.387 0.387 0.387 1.027 0 1.413s-1.027 0.387-1.413 0c-0.947-0.947-2.493-0.947-3.44 0-0.187 0.2-0.44 0.293-0.707 0.293z"></path>
<path d="M20.8 24.6h-9.6c-1.213 0-2.2-0.987-2.2-2.2 0-3.853 3.133-7 7-7s7 3.147 7 7c0 1.213-0.987 2.2-2.2 2.2zM16 17.4c-2.76 0-5 2.24-5 5 0 0.107 0.093 0.2 0.2 0.2h9.6c0.107 0 0.2-0.093 0.2-0.2 0-2.76-2.24-5-5-5z"></path>
</svg>
