<!-- Generated by IcoMoon.io -->
<svg version="1.1" xmlns="http://www.w3.org/2000/svg" width="32" height="32" viewBox="0 0 32 32">
<title>empty-wallet-time</title>
<path d="M23.653 30.334h-13.467c-0.413 0-0.787-0.253-0.933-0.653s-0.040-0.827 0.28-1.107c0.933-0.827 1.48-2.013 1.48-3.253 0-2.387-1.947-4.333-4.333-4.333-0.987 0-1.92 0.333-2.707 0.96-0.307 0.24-0.707 0.28-1.053 0.12s-0.56-0.52-0.56-0.907v-5.827c0-3.32 2.693-6.013 6.013-6.013h15.307c3.32 0 6.013 2.693 6.013 6.013v1.92c0 0.547-0.453 1-1 1h-2.693c-0.467 0-0.893 0.173-1.2 0.493l-0.013 0.013c-0.373 0.36-0.547 0.853-0.507 1.36 0.080 0.88 0.92 1.587 1.88 1.587h2.533c0.547 0 1 0.453 1 1v1.587c-0.027 3.347-2.72 6.040-6.040 6.040zM12.239 28.334h11.413c2.213 0 4.013-1.8 4.013-4.013v-0.587h-1.533c-2.013 0-3.72-1.493-3.88-3.413-0.107-1.093 0.293-2.173 1.093-2.96 0.693-0.707 1.627-1.093 2.627-1.093h1.693v-0.92c0-2.213-1.8-4.013-4.013-4.013h-15.307c-2.213 0-4.013 1.8-4.013 4.013v4.107c0.747-0.293 1.533-0.453 2.333-0.453 3.493 0 6.333 2.84 6.333 6.333 0 1.053-0.267 2.093-0.76 3z"></path>
<path d="M3.333 16.347c-0.547 0-1-0.453-1-1v-4.893c0-1.987 1.24-3.8 3.093-4.493l10.587-4c1.093-0.4 2.32-0.253 3.267 0.413s1.52 1.747 1.52 2.893v5.067c0 0.547-0.453 1-1 1s-1-0.453-1-1v-5.067c0-0.507-0.24-0.96-0.653-1.253-0.427-0.293-0.947-0.36-1.427-0.187l-10.587 4c-1.093 0.413-1.8 1.44-1.8 2.627v4.893c0 0.547-0.453 1-1 1z"></path>
<path d="M26.134 23.734c-2.013 0-3.72-1.493-3.88-3.413-0.107-1.107 0.293-2.187 1.093-2.973 0.68-0.693 1.613-1.080 2.613-1.080h2.773c1.32 0.040 2.333 1.080 2.333 2.36v2.747c0 1.28-1.013 2.32-2.293 2.36h-2.64zM28.707 18.267h-2.733c-0.467 0-0.893 0.173-1.2 0.493-0.387 0.373-0.573 0.88-0.52 1.387 0.080 0.88 0.92 1.587 1.88 1.587h2.613c0.173 0 0.333-0.16 0.333-0.36v-2.747c0-0.2-0.16-0.347-0.373-0.36z"></path>
<path d="M18.667 17h-9.333c-0.547 0-1-0.453-1-1s0.453-1 1-1h9.333c0.547 0 1 0.453 1 1s-0.453 1-1 1z"></path>
<path d="M6.667 31.667c-3.493 0-6.333-2.84-6.333-6.333 0-1.947 0.867-3.747 2.373-4.947 1.12-0.893 2.533-1.387 3.96-1.387 3.493 0 6.333 2.84 6.333 6.333 0 1.813-0.787 3.547-2.147 4.747-1.173 1.027-2.653 1.587-4.187 1.587zM6.667 21c-0.987 0-1.92 0.333-2.707 0.96-1.027 0.813-1.627 2.053-1.627 3.373 0 2.387 1.947 4.333 4.333 4.333 1.040 0 2.053-0.387 2.867-1.080 0.933-0.827 1.467-2 1.467-3.253 0-2.387-1.947-4.333-4.333-4.333z"></path>
<path d="M5.333 27.667c-0.333 0-0.667-0.173-0.853-0.48-0.28-0.48-0.133-1.093 0.347-1.373l1.187-0.707v-1.44c0-0.547 0.453-1 1-1s1 0.453 1 1v2c0 0.347-0.187 0.68-0.48 0.853l-1.667 1c-0.173 0.107-0.36 0.147-0.533 0.147z"></path>
</svg>
