<!-- Generated by IcoMoon.io -->
<svg version="1.1" xmlns="http://www.w3.org/2000/svg" width="32" height="32" viewBox="0 0 32 32">
<title>empty-wallet-add</title>
<path d="M23.653 30.333h-13.48c-0.427 0-0.8-0.267-0.947-0.653-0.147-0.4-0.027-0.84 0.293-1.107s0.613-0.613 0.827-0.987c0.427-0.68 0.64-1.453 0.64-2.24 0-2.387-1.947-4.333-4.333-4.333-0.987 0-1.92 0.333-2.707 0.96-0.307 0.24-0.707 0.28-1.053 0.12s-0.56-0.52-0.56-0.907v-5.827c0-3.32 2.693-6.013 6.013-6.013h15.307c3.32 0 6.013 2.693 6.013 6.013v1.92c0 0.547-0.453 1-1 1h-2.693c-0.467 0-0.893 0.173-1.2 0.493l-0.013 0.013c-0.373 0.36-0.547 0.853-0.507 1.36 0.080 0.88 0.92 1.587 1.88 1.587h2.533c0.547 0 1 0.453 1 1v1.587c0 3.32-2.693 6.013-6.013 6.013zM12.24 28.333h11.413c2.213 0 4.013-1.8 4.013-4.013v-0.587h-1.533c-2.013 0-3.72-1.493-3.88-3.413-0.107-1.093 0.293-2.173 1.093-2.96 0.693-0.707 1.627-1.093 2.627-1.093h1.693v-0.92c0-2.213-1.8-4.013-4.013-4.013h-15.307c-2.213 0-4.013 1.8-4.013 4.013v4.107c0.747-0.293 1.533-0.453 2.333-0.453 3.493 0 6.333 2.84 6.333 6.333 0 1.053-0.267 2.093-0.76 3z"></path>
<path d="M3.333 17.547c-0.547 0-1-0.453-1-1v-6.093c0-1.987 1.253-3.787 3.107-4.493l10.587-4c1.080-0.413 2.307-0.267 3.253 0.4 0.96 0.667 1.52 1.747 1.52 2.907v5.067c0 0.547-0.453 1-1 1s-1-0.453-1-1v-5.067c0-0.507-0.24-0.973-0.667-1.267s-0.933-0.36-1.413-0.173l-10.587 4c-1.080 0.413-1.813 1.467-1.813 2.627v6.093c0.013 0.56-0.44 1-0.987 1z"></path>
<path d="M26.134 23.734c-2.013 0-3.72-1.493-3.88-3.413-0.107-1.107 0.293-2.187 1.093-2.973 0.68-0.693 1.613-1.080 2.613-1.080h2.773c1.32 0.040 2.333 1.080 2.333 2.36v2.747c0 1.28-1.013 2.32-2.293 2.36h-2.64zM28.707 18.267h-2.733c-0.467 0-0.893 0.173-1.2 0.493-0.387 0.373-0.573 0.88-0.52 1.387 0.080 0.88 0.92 1.587 1.88 1.587h2.613c0.173 0 0.333-0.16 0.333-0.36v-2.747c0-0.2-0.16-0.347-0.373-0.36z"></path>
<path d="M18.667 17h-9.333c-0.547 0-1-0.453-1-1s0.453-1 1-1h9.333c0.547 0 1 0.453 1 1s-0.453 1-1 1z"></path>
<path d="M6.667 31.667c-2.213 0-4.293-1.173-5.413-3.080-0.6-0.96-0.92-2.093-0.92-3.253 0-1.947 0.867-3.747 2.373-4.947 1.12-0.893 2.533-1.387 3.96-1.387 3.493 0 6.333 2.84 6.333 6.333 0 1.16-0.32 2.293-0.92 3.267-0.32 0.56-0.76 1.067-1.267 1.493-1.107 1.013-2.587 1.573-4.147 1.573zM6.667 21c-0.987 0-1.92 0.333-2.707 0.96-1.027 0.813-1.627 2.053-1.627 3.373 0 0.787 0.213 1.56 0.627 2.227 0.787 1.333 2.173 2.107 3.707 2.107 1.053 0 2.067-0.387 2.84-1.080 0.347-0.293 0.64-0.64 0.853-1.013 0.427-0.68 0.64-1.453 0.64-2.24 0-2.387-1.947-4.333-4.333-4.333z"></path>
<path d="M8.653 26.307h-3.987c-0.547 0-1-0.453-1-1s0.453-1 1-1h3.987c0.547 0 1 0.453 1 1s-0.44 1-1 1z"></path>
<path d="M6.667 28.347c-0.547 0-1-0.453-1-1v-3.987c0-0.547 0.453-1 1-1s1 0.453 1 1v3.987c0 0.56-0.453 1-1 1z"></path>
</svg>
