<!-- Generated by IcoMoon.io -->
<svg version="1.1" xmlns="http://www.w3.org/2000/svg" width="32" height="32" viewBox="0 0 32 32">
<title>empty-wallet-change</title>
<path d="M23.654 30.333h-7.307c-0.547 0-1-0.453-1-1s0.453-1 1-1h7.307c2.213 0 4.013-1.8 4.013-4.013v-0.587h-1.533c-2.013 0-3.72-1.493-3.88-3.413-0.107-1.107 0.293-2.187 1.093-2.973 0.68-0.693 1.613-1.080 2.613-1.080h1.693v-0.92c0-2.213-1.8-4.013-4.013-4.013h-15.307c-2.213 0-4.013 1.8-4.013 4.013v2.307c0 0.547-0.453 1-1 1s-1-0.453-1-1v-2.307c0-3.32 2.693-6.013 6.013-6.013h15.307c3.32 0 6.013 2.693 6.013 6.013v1.92c0 0.547-0.453 1-1 1h-2.693c-0.467 0-0.893 0.173-1.2 0.493-0.387 0.373-0.573 0.88-0.52 1.387 0.080 0.88 0.92 1.587 1.88 1.587h2.533c0.547 0 1 0.453 1 1v1.587c0.013 3.32-2.68 6.013-6 6.013z"></path>
<path d="M3.333 17.547c-0.547 0-1-0.453-1-1v-6.093c0-1.987 1.253-3.787 3.107-4.493l10.587-4c1.093-0.413 2.307-0.267 3.253 0.4 0.96 0.667 1.52 1.747 1.52 2.907v5.067c0 0.547-0.453 1-1 1s-1-0.453-1-1v-5.067c0-0.507-0.24-0.973-0.667-1.267s-0.933-0.36-1.413-0.173l-10.587 4c-1.080 0.413-1.813 1.467-1.813 2.627v6.093c0.013 0.56-0.44 1-0.987 1z"></path>
<path d="M26.134 23.734c-2.013 0-3.72-1.493-3.88-3.413-0.107-1.107 0.293-2.187 1.093-2.973 0.68-0.693 1.613-1.080 2.613-1.080h2.773c1.32 0.040 2.333 1.080 2.333 2.36v2.747c0 1.28-1.013 2.32-2.293 2.36h-2.64zM28.707 18.267h-2.733c-0.467 0-0.893 0.173-1.2 0.493-0.387 0.373-0.573 0.88-0.52 1.387 0.080 0.88 0.92 1.587 1.88 1.587h2.613c0.173 0 0.333-0.16 0.333-0.36v-2.747c0-0.2-0.16-0.347-0.373-0.36z"></path>
<path d="M18.667 17h-9.333c-0.547 0-1-0.453-1-1s0.453-1 1-1h9.333c0.547 0 1 0.453 1 1s-0.453 1-1 1z"></path>
<path d="M12.667 26.253c-0.547 0-1-0.453-1-1v-1.707c0-0.293-0.24-0.547-0.547-0.547h-7.12c-0.547 0-1-0.453-1-1s0.453-1 1-1h7.12c1.4 0 2.547 1.147 2.547 2.547v1.707c0 0.547-0.453 1-1 1z"></path>
<path d="M5.626 24.626c-0.253 0-0.507-0.093-0.707-0.293l-1.627-1.627c-0.387-0.387-0.387-1.027 0-1.413l1.627-1.627c0.387-0.387 1.027-0.387 1.413 0s0.387 1.027 0 1.413l-0.92 0.92 0.92 0.92c0.387 0.387 0.387 1.027 0 1.413-0.2 0.2-0.453 0.293-0.707 0.293z"></path>
<path d="M12.667 30.040h-7.12c-1.4 0-2.547-1.147-2.547-2.547v-1.707c0-0.547 0.453-1 1-1s1 0.453 1 1v1.707c0 0.293 0.24 0.547 0.547 0.547h7.12c0.547 0 1 0.453 1 1s-0.453 1-1 1z"></path>
<path d="M11.041 31.667c-0.253 0-0.507-0.093-0.707-0.293-0.387-0.387-0.387-1.027 0-1.413l0.92-0.92-0.92-0.92c-0.387-0.387-0.387-1.027 0-1.413s1.027-0.387 1.413 0l1.627 1.627c0.387 0.387 0.387 1.027 0 1.413l-1.627 1.627c-0.187 0.2-0.453 0.293-0.707 0.293z"></path>
</svg>
