<!-- Generated by IcoMoon.io -->
<svg version="1.1" xmlns="http://www.w3.org/2000/svg" width="32" height="32" viewBox="0 0 32 32">
<title>eraser</title>
<path d="M20 30.333h-8c-7.24 0-10.333-3.093-10.333-10.333v-8c0-7.24 3.093-10.333 10.333-10.333h8c7.24 0 10.333 3.093 10.333 10.333v8c0 7.24-3.093 10.333-10.333 10.333zM12 3.667c-6.147 0-8.333 2.187-8.333 8.333v8c0 6.147 2.187 8.333 8.333 8.333h8c6.147 0 8.333-2.187 8.333-8.333v-8c0-6.147-2.187-8.333-8.333-8.333h-8z"></path>
<path d="M13.455 24.333c-0.827 0-1.64-0.307-2.267-0.933l-2.587-2.587c-1.253-1.253-1.253-3.28 0-4.533l7.667-7.667c1.253-1.253 3.28-1.253 4.533 0l2.587 2.587c1.253 1.253 1.253 3.28 0 4.533l-7.667 7.667c-0.627 0.613-1.44 0.933-2.267 0.933zM10.028 19.4l2.587 2.587c0.467 0.467 1.24 0.467 1.707 0l7.667-7.667c0.467-0.467 0.467-1.24 0-1.707l-2.587-2.587c-0.467-0.467-1.24-0.467-1.707 0l-7.667 7.667c-0.467 0.467-0.467 1.227 0 1.707z"></path>
<path d="M18.107 20.587c-0.253 0-0.507-0.093-0.707-0.293l-5.707-5.707c-0.387-0.387-0.387-1.027 0-1.413s1.027-0.387 1.413 0l5.707 5.707c0.387 0.387 0.387 1.027 0 1.413-0.187 0.2-0.453 0.293-0.707 0.293z"></path>
</svg>
