<!-- Generated by IcoMoon.io -->
<svg version="1.1" xmlns="http://www.w3.org/2000/svg" width="32" height="32" viewBox="0 0 32 32">
<title>eraser-1</title>
<path d="M28 30.333h-16c-0.547 0-1-0.453-1-1s0.453-1 1-1h16c0.547 0 1 0.453 1 1s-0.453 1-1 1z"></path>
<path d="M11.387 30.28c-1.333 0-2.6-0.52-3.533-1.467l-4.68-4.68c-1.947-1.947-1.947-5.12 0-7.067l13.907-13.907c1.88-1.88 5.187-1.88 7.067 0l4.68 4.68c1.947 1.947 1.947 5.12 0 7.067l-13.907 13.907c-0.933 0.96-2.187 1.467-3.533 1.467zM4.587 22.733l4.68 4.68c1.133 1.133 3.12 1.133 4.24 0l13.907-13.907c1.173-1.173 1.173-3.067 0-4.24l-4.68-4.68c-1.12-1.12-3.107-1.133-4.24 0l-13.907 13.907c-1.173 1.16-1.173 3.067 0 4.24z"></path>
<path d="M19.827 23.506c-0.253 0-0.507-0.093-0.707-0.293l-10.333-10.333c-0.387-0.387-0.387-1.027 0-1.413s1.027-0.387 1.413 0l10.333 10.333c0.387 0.387 0.387 1.027 0 1.413-0.2 0.2-0.453 0.293-0.707 0.293z"></path>
<path d="M4.695 24.547c-0.253 0-0.507-0.093-0.707-0.293-0.387-0.387-0.387-1.027 0-1.413l7.547-7.547c0.387-0.387 1.027-0.387 1.413 0s0.387 1.027 0 1.413l-7.547 7.547c-0.2 0.2-0.453 0.293-0.707 0.293z"></path>
<path d="M8.452 28.32c-0.253 0-0.507-0.093-0.707-0.293-0.387-0.387-0.387-1.027 0-1.413l7.547-7.547c0.387-0.387 1.027-0.387 1.413 0s0.387 1.027 0 1.413l-7.547 7.547c-0.187 0.187-0.44 0.293-0.707 0.293z"></path>
</svg>
