<!-- Generated by IcoMoon.io -->
<svg version="1.1" xmlns="http://www.w3.org/2000/svg" width="32" height="32" viewBox="0 0 32 32">
<title>export-2</title>
<path d="M16 30.333c-7.907 0-14.333-6.427-14.333-14.333s6.427-14.333 14.333-14.333c0.547 0 1 0.453 1 1s-0.453 1-1 1c-6.8 0-12.333 5.533-12.333 12.333s5.533 12.333 12.333 12.333c6.8 0 12.333-5.533 12.333-12.333 0-0.547 0.453-1 1-1s1 0.453 1 1c0 7.907-6.427 14.333-14.333 14.333z"></path>
<path d="M17.333 15.667c-0.253 0-0.507-0.093-0.707-0.293-0.387-0.387-0.387-1.027 0-1.413l10.933-10.933c0.387-0.387 1.027-0.387 1.413 0s0.387 1.027 0 1.413l-10.933 10.933c-0.2 0.2-0.453 0.293-0.707 0.293z"></path>
<path d="M29.333 10.107c-0.547 0-1-0.453-1-1v-5.44h-5.44c-0.547 0-1-0.453-1-1s0.453-1 1-1h6.44c0.547 0 1 0.453 1 1v6.44c0 0.547-0.453 1-1 1z"></path>
</svg>
