<!-- Generated by IcoMoon.io -->
<svg version="1.1" xmlns="http://www.w3.org/2000/svg" width="32" height="32" viewBox="0 0 32 32">
<title>export-3</title>
<path d="M17.333 15.667c-0.253 0-0.507-0.093-0.707-0.293-0.387-0.387-0.387-1.027 0-1.413l10.933-10.933c0.387-0.387 1.027-0.387 1.413 0s0.387 1.027 0 1.413l-10.933 10.933c-0.2 0.2-0.453 0.293-0.707 0.293z"></path>
<path d="M29.332 10.067c-0.547 0-1-0.453-1-1v-5.4h-5.4c-0.547 0-1-0.453-1-1s0.453-1 1-1h6.4c0.547 0 1 0.453 1 1v6.4c0 0.547-0.453 1-1 1z"></path>
<path d="M20 30.333h-8c-7.24 0-10.333-3.093-10.333-10.333v-8c0-7.24 3.093-10.333 10.333-10.333h2.667c0.547 0 1 0.453 1 1s-0.453 1-1 1h-2.667c-6.147 0-8.333 2.187-8.333 8.333v8c0 6.147 2.187 8.333 8.333 8.333h8c6.147 0 8.333-2.187 8.333-8.333v-2.667c0-0.547 0.453-1 1-1s1 0.453 1 1v2.667c0 7.24-3.093 10.333-10.333 10.333z"></path>
</svg>
