<!-- Generated by IcoMoon.io -->
<svg version="1.1" xmlns="http://www.w3.org/2000/svg" width="32" height="32" viewBox="0 0 32 32">
<title>external-drive</title>
<path d="M21.333 30.333h-9.333c-4.587 0-7.667-3.080-7.667-7.667v-13.333c0-4.587 3.080-7.667 7.667-7.667h9.333c4.587 0 7.667 3.080 7.667 7.667v13.333c0 4.587-3.080 7.667-7.667 7.667zM12 3.667c-3.44 0-5.667 2.227-5.667 5.667v13.333c0 3.44 2.227 5.667 5.667 5.667h9.333c3.44 0 5.667-2.227 5.667-5.667v-13.333c0-3.44-2.227-5.667-5.667-5.667h-9.333z"></path>
<path d="M28 21h-22.667c-0.547 0-1-0.453-1-1s0.453-1 1-1h22.667c0.547 0 1 0.453 1 1s-0.453 1-1 1z"></path>
<path d="M10.667 17h-1.333c-0.547 0-1-0.453-1-1s0.453-1 1-1h1.333c0.547 0 1 0.453 1 1s-0.453 1-1 1z"></path>
<path d="M10.667 13.667h-1.333c-0.547 0-1-0.453-1-1s0.453-1 1-1h1.333c0.547 0 1 0.453 1 1s-0.453 1-1 1z"></path>
<path d="M10.667 10.333h-1.333c-0.547 0-1-0.453-1-1s0.453-1 1-1h1.333c0.547 0 1 0.453 1 1s-0.453 1-1 1z"></path>
<path d="M22.667 26c-0.347 0-0.693-0.147-0.947-0.387-0.24-0.253-0.387-0.6-0.387-0.947 0-0.36 0.147-0.693 0.387-0.947 0.373-0.373 0.96-0.493 1.453-0.28 0.16 0.067 0.307 0.16 0.44 0.28 0.24 0.253 0.387 0.6 0.387 0.947s-0.147 0.693-0.387 0.947c-0.133 0.12-0.267 0.213-0.44 0.28-0.16 0.067-0.333 0.107-0.507 0.107z"></path>
</svg>
