<!-- Generated by IcoMoon.io -->
<svg version="1.1" xmlns="http://www.w3.org/2000/svg" width="32" height="32" viewBox="0 0 32 32">
<title>eye-slash</title>
<path d="M12.627 20.373c-0.253 0-0.507-0.093-0.707-0.293-1.093-1.093-1.693-2.547-1.693-4.080 0-3.187 2.587-5.773 5.773-5.773 1.533 0 2.987 0.6 4.080 1.693 0.187 0.187 0.293 0.44 0.293 0.707s-0.107 0.52-0.293 0.707l-6.747 6.747c-0.2 0.2-0.453 0.293-0.707 0.293zM16 12.227c-2.080 0-3.773 1.693-3.773 3.773 0 0.667 0.173 1.307 0.493 1.867l5.147-5.147c-0.56-0.32-1.2-0.493-1.867-0.493z"></path>
<path d="M7.466 24.68c-0.227 0-0.467-0.080-0.653-0.24-1.427-1.213-2.707-2.707-3.8-4.44-1.413-2.2-1.413-5.787 0-8 3.253-5.093 7.987-8.027 12.987-8.027 2.933 0 5.827 1.013 8.36 2.92 0.44 0.333 0.533 0.96 0.2 1.4s-0.96 0.533-1.4 0.2c-2.187-1.653-4.667-2.52-7.16-2.52-4.307 0-8.427 2.587-11.307 7.107-1 1.56-1 4.28 0 5.84s2.147 2.907 3.413 4c0.413 0.36 0.467 0.987 0.107 1.413-0.187 0.227-0.467 0.347-0.747 0.347z"></path>
<path d="M16.001 28.027c-1.773 0-3.507-0.36-5.173-1.067-0.507-0.213-0.747-0.8-0.533-1.307s0.8-0.747 1.307-0.533c1.413 0.6 2.893 0.907 4.387 0.907 4.307 0 8.427-2.587 11.307-7.107 1-1.56 1-4.28 0-5.84-0.413-0.653-0.867-1.28-1.347-1.867-0.347-0.427-0.28-1.053 0.147-1.413 0.427-0.347 1.053-0.293 1.413 0.147 0.52 0.64 1.027 1.333 1.48 2.053 1.413 2.2 1.413 5.787 0 8-3.253 5.093-7.987 8.027-12.987 8.027z"></path>
<path d="M16.919 21.693c-0.467 0-0.893-0.333-0.987-0.813-0.107-0.547 0.253-1.067 0.8-1.16 1.467-0.267 2.693-1.493 2.96-2.96 0.107-0.547 0.627-0.893 1.173-0.8 0.547 0.107 0.907 0.627 0.8 1.173-0.427 2.307-2.267 4.133-4.56 4.56-0.067-0.013-0.12 0-0.187 0z"></path>
<path d="M2.666 30.333c-0.253 0-0.507-0.093-0.707-0.293-0.387-0.387-0.387-1.027 0-1.413l9.96-9.96c0.387-0.387 1.027-0.387 1.413 0s0.387 1.027 0 1.413l-9.96 9.96c-0.2 0.2-0.453 0.293-0.707 0.293z"></path>
<path d="M19.374 13.627c-0.253 0-0.507-0.093-0.707-0.293-0.387-0.387-0.387-1.027 0-1.413l9.96-9.96c0.387-0.387 1.027-0.387 1.413 0s0.387 1.027 0 1.413l-9.96 9.96c-0.2 0.2-0.453 0.293-0.707 0.293z"></path>
</svg>
