<!-- Generated by IcoMoon.io -->
<svg version="1.1" xmlns="http://www.w3.org/2000/svg" width="32" height="32" viewBox="0 0 32 32">
<title>eye</title>
<path d="M16 21.773c-3.187 0-5.773-2.587-5.773-5.773s2.587-5.773 5.773-5.773c3.187 0 5.773 2.587 5.773 5.773s-2.587 5.773-5.773 5.773zM16 12.227c-2.080 0-3.773 1.693-3.773 3.773s1.693 3.773 3.773 3.773c2.080 0 3.773-1.693 3.773-3.773s-1.693-3.773-3.773-3.773z"></path>
<path d="M16 28.027c-5.013 0-9.747-2.933-13-8.027-1.413-2.2-1.413-5.787 0-8 3.267-5.093 8-8.027 13-8.027s9.733 2.933 12.987 8.027c1.413 2.2 1.413 5.787 0 8-3.253 5.093-7.987 8.027-12.987 8.027zM16 5.973c-4.307 0-8.427 2.587-11.307 7.107-1 1.56-1 4.28 0 5.84 2.88 4.52 7 7.107 11.307 7.107s8.427-2.587 11.307-7.107c1-1.56 1-4.28 0-5.84-2.88-4.52-7-7.107-11.307-7.107z"></path>
</svg>
