<!-- Generated by IcoMoon.io -->
<svg version="1.1" xmlns="http://www.w3.org/2000/svg" width="32" height="32" viewBox="0 0 32 32">
<title>favorite-chart</title>
<path d="M17.333 30.333h-5.333c-7.24 0-10.333-3.093-10.333-10.333v-8c0-7.24 3.093-10.333 10.333-10.333h8c7.24 0 10.333 3.093 10.333 10.333v5.333c0 0.547-0.453 1-1 1s-1-0.453-1-1v-5.333c0-6.147-2.187-8.333-8.333-8.333h-8c-6.147 0-8.333 2.187-8.333 8.333v8c0 6.147 2.187 8.333 8.333 8.333h5.333c0.547 0 1 0.453 1 1s-0.453 1-1 1z"></path>
<path d="M9.773 20.32c-0.213 0-0.427-0.067-0.613-0.213-0.44-0.333-0.52-0.96-0.187-1.4l3.173-4.12c0.387-0.493 0.933-0.813 1.56-0.893s1.24 0.093 1.733 0.48l2.44 1.92c0.093 0.080 0.187 0.067 0.253 0.067 0.053 0 0.147-0.027 0.227-0.133l3.080-3.973c0.333-0.44 0.96-0.52 1.4-0.173 0.44 0.333 0.52 0.96 0.173 1.4l-3.080 3.973c-0.387 0.493-0.933 0.813-1.56 0.88-0.613 0.080-1.24-0.093-1.72-0.48l-2.44-1.92c-0.093-0.080-0.2-0.080-0.253-0.067-0.053 0-0.147 0.027-0.227 0.133l-3.173 4.12c-0.187 0.267-0.48 0.4-0.787 0.4z"></path>
<path d="M27.014 30.334c-0.467 0-1.067-0.147-1.773-0.573l-0.333-0.2c-0.093-0.053-0.373-0.053-0.467 0l-0.333 0.2c-1.533 0.92-2.507 0.533-2.933 0.213-0.44-0.32-1.12-1.12-0.72-2.88l0.067-0.28c0.027-0.107-0.053-0.36-0.12-0.44l-0.467-0.467c-0.787-0.8-1.093-1.733-0.827-2.573 0.267-0.827 1.053-1.413 2.16-1.6l0.507-0.080c0.093-0.027 0.28-0.16 0.333-0.253l0.373-0.76c0.52-1.053 1.32-1.653 2.2-1.653s1.68 0.6 2.2 1.653l0.373 0.747c0.053 0.093 0.24 0.227 0.333 0.253l0.507 0.080c1.107 0.187 1.893 0.773 2.16 1.6s-0.027 1.76-0.827 2.573l-0.467 0.467c-0.067 0.080-0.147 0.333-0.12 0.44l0.067 0.28c0.4 1.76-0.28 2.56-0.72 2.88-0.24 0.187-0.627 0.373-1.173 0.373zM24.654 21c-0.013 0.013-0.2 0.147-0.387 0.533l-0.373 0.76c-0.32 0.653-1.080 1.213-1.787 1.333l-0.507 0.080c-0.427 0.067-0.573 0.213-0.587 0.24 0 0.027 0.040 0.24 0.347 0.547l0.467 0.467c0.547 0.56 0.827 1.52 0.653 2.28l-0.067 0.28c-0.12 0.52-0.067 0.747-0.040 0.827 0.040-0.027 0.267-0.053 0.707-0.32l0.333-0.2c0.733-0.44 1.787-0.44 2.52 0l0.333 0.2c0.547 0.333 0.773 0.293 0.787 0.293-0.053 0 0.013-0.267-0.107-0.8l-0.067-0.28c-0.173-0.773 0.107-1.72 0.653-2.28l0.467-0.467c0.307-0.307 0.347-0.52 0.347-0.56-0.013-0.027-0.16-0.16-0.587-0.24l-0.507-0.080c-0.72-0.12-1.467-0.68-1.787-1.333l-0.373-0.747c-0.213-0.4-0.4-0.52-0.44-0.533z"></path>
</svg>
