<!-- Generated by IcoMoon.io -->
<svg version="1.1" xmlns="http://www.w3.org/2000/svg" width="32" height="32" viewBox="0 0 32 32">
<title>filter-remove</title>
<path d="M14.574 30.333c-0.64 0-1.28-0.16-1.867-0.493-1.187-0.667-1.893-1.853-1.893-3.2v-7.133c0-0.68-0.44-1.68-0.853-2.2l-5.067-5.32c-0.84-0.84-1.493-2.307-1.493-3.387v-3.093c0-2.147 1.627-3.827 3.693-3.827h17.773c2.040 0 3.693 1.653 3.693 3.693v2.96c0 1.4-0.84 3.013-1.64 3.8-0.387 0.387-1.027 0.387-1.413 0s-0.387-1.027 0-1.413c0.493-0.493 1.053-1.6 1.053-2.387v-2.96c0-0.933-0.76-1.693-1.693-1.693h-17.76c-0.947 0-1.693 0.8-1.693 1.827v3.093c0 0.493 0.4 1.467 0.92 1.987l5.133 5.4c0.68 0.84 1.347 2.253 1.347 3.52v7.133c0 0.88 0.6 1.307 0.867 1.453 0.573 0.32 1.253 0.307 1.787-0.013l1.867-1.2c0.467-0.293 1.080-0.16 1.387 0.307 0.293 0.467 0.16 1.080-0.307 1.387l-1.88 1.213c-0.6 0.36-1.28 0.547-1.96 0.547z"></path>
<path d="M22.505 27c-2.56 0-4.973-1.36-6.28-3.56-0.693-1.12-1.053-2.427-1.053-3.773 0-4.040 3.293-7.333 7.333-7.333s7.333 3.293 7.333 7.333c0 1.347-0.373 2.653-1.067 3.787-1.293 2.187-3.693 3.547-6.267 3.547zM22.505 14.333c-2.947 0-5.333 2.387-5.333 5.333 0 0.973 0.267 1.92 0.773 2.733 0.96 1.613 2.707 2.6 4.56 2.6 1.893 0 3.6-0.96 4.56-2.587 0.507-0.827 0.773-1.773 0.773-2.747 0-2.947-2.387-5.333-5.333-5.333z"></path>
<path d="M24.2 22.32c-0.253 0-0.507-0.093-0.707-0.293l-3.347-3.347c-0.387-0.387-0.387-1.027 0-1.413s1.027-0.387 1.413 0l3.347 3.347c0.387 0.387 0.387 1.027 0 1.413-0.187 0.2-0.44 0.293-0.707 0.293z"></path>
<path d="M20.827 22.36c-0.253 0-0.507-0.093-0.707-0.293-0.387-0.387-0.387-1.027 0-1.413l3.347-3.347c0.387-0.387 1.027-0.387 1.413 0s0.387 1.027 0 1.413l-3.347 3.347c-0.2 0.2-0.453 0.293-0.707 0.293z"></path>
<path d="M14.574 30.333c-0.64 0-1.28-0.16-1.853-0.48-1.187-0.667-1.893-1.867-1.893-3.213v-7.133c0-0.667-0.44-1.68-0.867-2.2l-5.067-5.32c-0.84-0.867-1.493-2.32-1.493-3.387v-3.107c0-2.147 1.627-3.827 3.693-3.827h17.787c2.040 0 3.693 1.653 3.693 3.693v2.96c0 1.4-0.827 2.973-1.627 3.8l-2.4 2.12c-0.24 0.213-0.587 0.293-0.893 0.227-0.36-0.093-0.747-0.133-1.147-0.133-2.947 0-5.333 2.387-5.333 5.333 0 0.973 0.267 1.92 0.773 2.747 0.427 0.707 1 1.293 1.667 1.707 0.293 0.187 0.48 0.507 0.48 0.853v0.453c0 1.053-0.64 2.533-1.707 3.16l-1.84 1.187c-0.6 0.373-1.293 0.56-1.973 0.56zM7.108 3.667c-0.947 0-1.693 0.8-1.693 1.827v3.107c0 0.48 0.4 1.467 0.933 2l5.133 5.4c0.68 0.84 1.36 2.267 1.36 3.52v7.133c0 0.88 0.613 1.32 0.867 1.467 0.573 0.32 1.253 0.307 1.773-0.013l1.867-1.2c0.36-0.213 0.72-0.893 0.747-1.373-0.733-0.547-1.373-1.253-1.853-2.053-0.693-1.133-1.067-2.44-1.067-3.773 0-4.040 3.293-7.333 7.333-7.333 0.373 0 0.747 0.027 1.093 0.080l1.973-1.747c0.453-0.467 1.013-1.573 1.013-2.36v-2.96c0-0.933-0.76-1.693-1.693-1.693h-17.787v-0.027z"></path>
</svg>
