<!-- Generated by IcoMoon.io -->
<svg version="1.1" xmlns="http://www.w3.org/2000/svg" width="32" height="32" viewBox="0 0 32 32">
<title>filter-tick</title>
<path d="M22.505 27c-1.413 0-2.787-0.413-3.96-1.2-0.92-0.56-1.72-1.387-2.307-2.36-0.693-1.133-1.067-2.44-1.067-3.773 0-4.040 3.293-7.333 7.333-7.333 0.56 0 1.107 0.067 1.627 0.187 3.307 0.733 5.707 3.733 5.707 7.147 0 1.347-0.36 2.653-1.053 3.787-1.307 2.187-3.72 3.547-6.28 3.547zM22.505 14.333c-2.947 0-5.333 2.387-5.333 5.333 0 0.973 0.267 1.92 0.773 2.747 0.427 0.707 1 1.293 1.667 1.707 0.88 0.587 1.867 0.88 2.893 0.88 1.867 0 3.613-0.987 4.573-2.587 0.507-0.827 0.76-1.773 0.76-2.747 0-2.48-1.747-4.667-4.16-5.2-0.387-0.093-0.773-0.133-1.173-0.133z"></path>
<path d="M21.598 22.227c-0.253 0-0.507-0.093-0.707-0.293l-1.56-1.56c-0.387-0.387-0.387-1.027 0-1.413s1.027-0.387 1.413 0l0.88 0.88 2.68-2.467c0.413-0.373 1.040-0.347 1.413 0.053s0.347 1.040-0.053 1.413l-3.387 3.12c-0.187 0.173-0.44 0.267-0.68 0.267z"></path>
<path d="M14.574 30.333c-0.64 0-1.28-0.16-1.853-0.48-1.187-0.667-1.893-1.867-1.893-3.213v-7.133c0-0.68-0.44-1.68-0.867-2.2l-5.067-5.32c-0.84-0.867-1.493-2.32-1.493-3.387v-3.107c0-2.147 1.627-3.827 3.693-3.827h17.787c2.040 0 3.693 1.653 3.693 3.693v2.96c0 1.4-0.827 2.973-1.64 3.8l-2.4 2.12c-0.24 0.213-0.573 0.293-0.893 0.227-0.36-0.093-0.747-0.133-1.147-0.133-2.947 0-5.333 2.387-5.333 5.333 0 0.973 0.267 1.92 0.773 2.747 0.427 0.707 1 1.293 1.667 1.707 0.293 0.187 0.48 0.507 0.48 0.853v0.453c0 1.053-0.64 2.533-1.707 3.16l-1.84 1.187c-0.587 0.373-1.28 0.56-1.96 0.56zM7.108 3.667c-0.947 0-1.693 0.8-1.693 1.827v3.107c0 0.48 0.4 1.453 0.933 1.987l5.133 5.4c0.68 0.84 1.36 2.253 1.36 3.52v7.133c0 0.88 0.613 1.32 0.867 1.467 0.573 0.32 1.253 0.307 1.773-0.013l1.867-1.2c0.36-0.213 0.72-0.893 0.747-1.373-0.733-0.547-1.373-1.253-1.853-2.053-0.693-1.133-1.067-2.44-1.067-3.773 0-4.040 3.293-7.333 7.333-7.333 0.373 0 0.747 0.027 1.093 0.080l1.973-1.747c0.453-0.467 1.013-1.573 1.013-2.36v-2.96c0-0.933-0.76-1.693-1.693-1.693l-17.787-0.013z"></path>
</svg>
