<!-- Generated by IcoMoon.io -->
<svg version="1.1" xmlns="http://www.w3.org/2000/svg" width="32" height="32" viewBox="0 0 32 32">
<title>filter-search</title>
<path d="M14.574 30.333c-0.64 0-1.28-0.16-1.867-0.48-1.187-0.667-1.893-1.853-1.893-3.2v-7.133c0-0.68-0.44-1.68-0.853-2.2l-5.067-5.32c-0.84-0.84-1.493-2.307-1.493-3.387v-3.093c0-2.147 1.627-3.827 3.693-3.827h17.787c2.040 0 3.693 1.653 3.693 3.693v2.96c0 1.4-0.84 3.013-1.64 3.8-0.387 0.387-1.027 0.387-1.413 0s-0.387-1.027 0-1.413c0.493-0.493 1.053-1.6 1.053-2.387v-2.96c0-0.933-0.76-1.693-1.693-1.693h-17.787c-0.947 0-1.693 0.8-1.693 1.827v3.093c0 0.493 0.4 1.467 0.92 1.987l5.133 5.4c0.68 0.84 1.347 2.253 1.347 3.52v7.133c0 0.88 0.6 1.307 0.867 1.453 0.573 0.32 1.253 0.307 1.787-0.013l1.867-1.2c0.387-0.227 0.76-0.96 0.76-1.453 0-0.547 0.453-1 1-1s1 0.453 1 1c0 1.2-0.747 2.573-1.693 3.147l-1.853 1.2c-0.6 0.36-1.28 0.547-1.96 0.547z"></path>
<path d="M21.428 23.027c-2.907 0-5.267-2.36-5.267-5.267s2.36-5.267 5.267-5.267c2.907 0 5.267 2.36 5.267 5.267s-2.36 5.267-5.267 5.267zM21.428 14.493c-1.8 0-3.267 1.467-3.267 3.267s1.467 3.267 3.267 3.267c1.8 0 3.267-1.467 3.267-3.267s-1.467-3.267-3.267-3.267z"></path>
<path d="M26.494 23.827c-0.253 0-0.507-0.093-0.707-0.293l-1.333-1.333c-0.387-0.387-0.387-1.027 0-1.413s1.027-0.387 1.413 0l1.333 1.333c0.387 0.387 0.387 1.027 0 1.413-0.187 0.187-0.453 0.293-0.707 0.293z"></path>
</svg>
