<!-- Generated by IcoMoon.io -->
<svg version="1.1" xmlns="http://www.w3.org/2000/svg" width="32" height="32" viewBox="0 0 32 32">
<title>filter-square</title>
<path d="M15.173 25.2c-0.44 0-0.88-0.107-1.28-0.333-0.813-0.453-1.307-1.28-1.307-2.213v-4.107c0-0.253-0.2-0.747-0.4-1l-2.893-3.040c-0.547-0.547-0.96-1.507-0.96-2.24v-1.773c0-1.48 1.12-2.627 2.547-2.627h10.227c1.4 0 2.547 1.147 2.547 2.547v1.707c0 0.933-0.533 1.96-1.067 2.493l-3.373 2.987c-0.213 0.187-0.44 0.653-0.44 1.040v3.333c0 0.84-0.507 1.773-1.187 2.173l-1.053 0.68c-0.413 0.253-0.88 0.373-1.36 0.373zM10.88 9.867c-0.32 0-0.547 0.267-0.547 0.627v1.773c0 0.173 0.187 0.627 0.4 0.84l2.96 3.12c0.453 0.573 0.893 1.493 0.893 2.32v4.107c0 0.267 0.173 0.413 0.28 0.467 0.147 0.080 0.387 0.133 0.6 0l1.067-0.693c0.107-0.080 0.24-0.347 0.24-0.48v-3.333c0-0.947 0.467-2 1.133-2.547l3.307-2.933c0.173-0.173 0.44-0.707 0.44-1.040v-1.68c0-0.293-0.253-0.547-0.547-0.547h-10.227z"></path>
<path d="M20 30.333h-8c-7.24 0-10.333-3.093-10.333-10.333v-8c0-7.24 3.093-10.333 10.333-10.333h8c7.24 0 10.333 3.093 10.333 10.333v8c0 7.24-3.093 10.333-10.333 10.333zM12 3.667c-6.147 0-8.333 2.187-8.333 8.333v8c0 6.147 2.187 8.333 8.333 8.333h8c6.147 0 8.333-2.187 8.333-8.333v-8c0-6.147-2.187-8.333-8.333-8.333h-8z"></path>
</svg>
