<!-- Generated by IcoMoon.io -->
<svg version="1.1" xmlns="http://www.w3.org/2000/svg" width="32" height="32" viewBox="0 0 32 32">
<title>filter-edit</title>
<path d="M14.574 30.333c-0.64 0-1.28-0.16-1.867-0.48-1.187-0.667-1.893-1.853-1.893-3.2v-7.133c0-0.68-0.44-1.68-0.853-2.2l-5.067-5.32c-0.84-0.84-1.493-2.307-1.493-3.387v-3.093c0-2.147 1.627-3.827 3.693-3.827h17.787c2.040 0 3.693 1.653 3.693 3.693v2.96c0 1.4-0.84 3.013-1.64 3.8-0.387 0.387-1.027 0.387-1.413 0s-0.387-1.027 0-1.413c0.493-0.493 1.053-1.6 1.053-2.387v-2.96c0-0.933-0.76-1.693-1.693-1.693h-17.787c-0.947 0-1.693 0.8-1.693 1.827v3.093c0 0.493 0.4 1.467 0.92 1.987l5.133 5.4c0.68 0.84 1.347 2.253 1.347 3.52v7.133c0 0.88 0.6 1.307 0.867 1.453 0.573 0.32 1.253 0.307 1.787-0.013l1.867-1.2c0.467-0.293 1.080-0.16 1.387 0.307 0.293 0.467 0.16 1.080-0.293 1.387l-1.88 1.213c-0.6 0.347-1.28 0.533-1.96 0.533z"></path>
<path d="M18.254 25.187c-0.507 0-0.987-0.187-1.333-0.533-0.413-0.413-0.6-1.013-0.507-1.64l0.253-1.8c0.067-0.467 0.347-1.013 0.68-1.347l4.72-4.72c0.64-0.64 1.267-0.973 1.947-1.040 0.827-0.080 1.653 0.267 2.427 1.040s1.12 1.587 1.040 2.427c-0.067 0.667-0.413 1.307-1.040 1.947l-4.72 4.72c-0.333 0.333-0.893 0.613-1.36 0.68l-1.8 0.253c-0.107 0.013-0.2 0.013-0.307 0.013zM24.241 16.080c-0.013 0-0.027 0-0.040 0-0.187 0.013-0.44 0.173-0.72 0.467l-4.72 4.72c-0.040 0.040-0.107 0.173-0.107 0.227l-0.24 1.667 1.667-0.24c0.053-0.013 0.187-0.080 0.227-0.12l4.72-4.72c0.28-0.28 0.453-0.533 0.467-0.72 0.027-0.267-0.24-0.587-0.467-0.813-0.213-0.213-0.52-0.467-0.787-0.467z"></path>
<path d="M25.053 20.48c-0.093 0-0.187-0.013-0.267-0.040-1.76-0.493-3.16-1.893-3.653-3.653-0.147-0.533 0.16-1.080 0.693-1.24 0.533-0.147 1.080 0.16 1.227 0.693 0.307 1.093 1.173 1.96 2.267 2.267 0.533 0.147 0.84 0.707 0.693 1.24-0.12 0.453-0.52 0.733-0.96 0.733z"></path>
</svg>
