<!-- Generated by IcoMoon.io -->
<svg version="1.1" xmlns="http://www.w3.org/2000/svg" width="32" height="32" viewBox="0 0 32 32">
<title>filter</title>
<path d="M14.587 30.2c-0.64 0-1.267-0.16-1.853-0.48-1.173-0.653-1.88-1.84-1.88-3.173v-7.067c0-0.667-0.44-1.667-0.853-2.173l-4.987-5.28c-0.84-0.84-1.48-2.28-1.48-3.36v-3.067c0-2.133 1.613-3.8 3.667-3.8h17.6c2.027 0 3.667 1.64 3.667 3.667v2.933c0 1.4-0.84 2.987-1.627 3.773l-5.773 5.107c-0.56 0.467-1 1.493-1 2.32v5.733c0 1.187-0.747 2.56-1.68 3.12l-1.84 1.187c-0.6 0.373-1.28 0.56-1.96 0.56zM7.201 3.8c-0.933 0-1.667 0.787-1.667 1.8v3.067c0 0.493 0.4 1.453 0.907 1.96l5.080 5.347c0.68 0.84 1.347 2.24 1.347 3.493v7.067c0 0.867 0.6 1.293 0.853 1.427 0.56 0.307 1.24 0.307 1.76-0.013l1.853-1.187c0.373-0.227 0.747-0.947 0.747-1.427v-5.733c0-1.427 0.693-3 1.693-3.84l5.707-5.053c0.453-0.453 1-1.533 1-2.32v-2.92c0-0.92-0.747-1.667-1.667-1.667h-17.613z"></path>
<path d="M8 14.333c-0.187 0-0.36-0.053-0.533-0.147-0.467-0.293-0.613-0.92-0.32-1.387l6.573-10.533c0.293-0.467 0.907-0.613 1.373-0.32s0.613 0.907 0.32 1.373l-6.573 10.533c-0.187 0.307-0.507 0.48-0.84 0.48z"></path>
</svg>
