<!-- Generated by IcoMoon.io -->
<svg version="1.1" xmlns="http://www.w3.org/2000/svg" width="32" height="32" viewBox="0 0 32 32">
<title>finger-cricle</title>
<path d="M16 30.333c-7.907 0-14.333-6.427-14.333-14.333s6.427-14.333 14.333-14.333c7.907 0 14.333 6.427 14.333 14.333s-6.427 14.333-14.333 14.333zM16 3.667c-6.8 0-12.333 5.533-12.333 12.333s5.533 12.333 12.333 12.333c6.8 0 12.333-5.533 12.333-12.333s-5.533-12.333-12.333-12.333z"></path>
<path d="M15.999 20.84c-1.76 0-3.2-1.44-3.2-3.2v-3.293c0-1.76 1.44-3.2 3.2-3.2s3.2 1.44 3.2 3.2v3.293c0 1.773-1.44 3.2-3.2 3.2zM15.999 13.16c-0.653 0-1.2 0.533-1.2 1.2v3.293c0 0.667 0.533 1.2 1.2 1.2s1.2-0.533 1.2-1.2v-3.293c0-0.667-0.547-1.2-1.2-1.2z"></path>
<path d="M16 25.093c-4.227 0-7.667-3.44-7.667-7.667v-2.853c0-4.227 3.44-7.667 7.667-7.667 3.947 0 7.227 2.96 7.627 6.88 0.053 0.547-0.347 1.040-0.893 1.093-0.547 0.067-1.040-0.347-1.093-0.893-0.293-2.893-2.72-5.080-5.64-5.080-3.12 0-5.667 2.547-5.667 5.667v2.853c0 3.12 2.547 5.667 5.667 5.667 2.933 0 5.413-2.293 5.653-5.213 0.040-0.547 0.52-0.96 1.080-0.92 0.547 0.040 0.96 0.52 0.92 1.080-0.32 3.96-3.68 7.053-7.653 7.053z"></path>
</svg>
