<!-- Generated by IcoMoon.io -->
<svg version="1.1" xmlns="http://www.w3.org/2000/svg" width="32" height="32" viewBox="0 0 32 32">
<title>firstline</title>
<path d="M28 7h-9.333c-0.547 0-1-0.453-1-1s0.453-1 1-1h9.333c0.547 0 1 0.453 1 1s-0.453 1-1 1z"></path>
<path d="M28 13.667h-9.333c-0.547 0-1-0.453-1-1s0.453-1 1-1h9.333c0.547 0 1 0.453 1 1s-0.453 1-1 1z"></path>
<path d="M28 20.333h-24c-0.547 0-1-0.453-1-1s0.453-1 1-1h24c0.547 0 1 0.453 1 1s-0.453 1-1 1z"></path>
<path d="M28 27h-24c-0.547 0-1-0.453-1-1s0.453-1 1-1h24c0.547 0 1 0.453 1 1s-0.453 1-1 1z"></path>
<path d="M10.56 14.333h-3.787c-2.053 0-3.107-1.040-3.107-3.107v-3.787c0-2.053 1.040-3.107 3.107-3.107h3.8c2.053 0 3.107 1.040 3.107 3.107v3.8c-0.013 2.053-1.053 3.093-3.12 3.093zM6.773 6.333c-0.947 0-1.107 0.16-1.107 1.107v3.8c0 0.947 0.16 1.107 1.107 1.107h3.8c0.947 0 1.107-0.16 1.107-1.107v-3.8c0-0.947-0.16-1.107-1.107-1.107h-3.8z"></path>
</svg>
