<!-- Generated by IcoMoon.io -->
<svg version="1.1" xmlns="http://www.w3.org/2000/svg" width="32" height="32" viewBox="0 0 32 32">
<title>flag</title>
<path d="M6.867 30.333c-0.547 0-1-0.453-1-1v-26.667c0-0.547 0.453-1 1-1s1 0.453 1 1v26.667c0 0.547-0.453 1-1 1z"></path>
<path d="M21.801 22.333h-14.933c-0.547 0-1-0.453-1-1s0.453-1 1-1h14.933c1.453 0 2.133-0.387 2.267-0.72s-0.067-1.080-1.107-2.107l-1.6-1.6c-0.653-0.573-1.053-1.44-1.093-2.4-0.040-1.013 0.36-2.013 1.093-2.747l1.6-1.6c0.987-0.987 1.293-1.787 1.147-2.133s-0.907-0.693-2.307-0.693h-14.933c-0.56 0-1-0.453-1-1s0.453-1 1-1h14.933c2.92 0 3.853 1.213 4.16 1.933 0.293 0.72 0.493 2.24-1.587 4.32l-1.6 1.6c-0.333 0.333-0.52 0.8-0.507 1.267 0.013 0.4 0.173 0.76 0.453 1.013l1.653 1.64c2.040 2.040 1.84 3.56 1.547 4.293-0.307 0.707-1.253 1.933-4.12 1.933z"></path>
</svg>
