<!-- Generated by IcoMoon.io -->
<svg version="1.1" xmlns="http://www.w3.org/2000/svg" width="32" height="32" viewBox="0 0 32 32">
<title>flag-2</title>
<path d="M8.599 30.333c-0.547 0-1-0.453-1-1v-26.667c0-0.547 0.453-1 1-1s1 0.453 1 1v26.667c0 0.547-0.453 1-1 1z"></path>
<path d="M9.265 23.667c-0.373 0-0.72-0.2-0.893-0.56-0.24-0.493-0.040-1.093 0.453-1.333l11.067-5.467c1.627-0.84 2.547-1.853 2.507-2.8-0.040-0.92-1.027-1.867-2.72-2.587l-10.8-4.667c-0.52-0.227-0.747-0.813-0.533-1.32s0.813-0.747 1.32-0.52l10.8 4.667c3.333 1.413 3.893 3.333 3.933 4.347 0.067 1.773-1.213 3.427-3.6 4.653l-11.080 5.48c-0.147 0.080-0.307 0.107-0.453 0.107z"></path>
</svg>
