<!-- Generated by IcoMoon.io -->
<svg version="1.1" xmlns="http://www.w3.org/2000/svg" width="32" height="32" viewBox="0 0 32 32">
<title>flash-slash</title>
<path d="M13.32 30.333c-0.267 0-0.48-0.053-0.64-0.12-0.533-0.2-1.44-0.853-1.44-2.92v-3.253c0-0.547 0.453-1 1-1s1 0.453 1 1v3.253c0 0.667 0.12 0.96 0.173 1.040 0.040-0.053 0.32-0.187 0.76-0.693l10.093-11.467c0.373-0.427 0.427-0.693 0.427-0.747-0.027-0.013-0.267-0.147-0.827-0.147h-1.24c-0.547 0-1-0.453-1-1s0.453-1 1-1h1.24c1.787 0 2.427 0.84 2.653 1.333 0.227 0.507 0.427 1.533-0.747 2.88l-10.093 11.467c-0.947 1.093-1.773 1.373-2.36 1.373z"></path>
<path d="M12.241 20.293c-0.547 0-1-0.453-1-1v-0.573h-3.12c-1.787 0-2.427-0.84-2.653-1.333-0.227-0.507-0.427-1.533 0.747-2.88l10.093-11.467c1.36-1.547 2.467-1.44 3-1.24s1.44 0.853 1.44 2.92v7.080c0 0.547-0.453 1-1 1s-1-0.453-1-1v-7.107c0-0.667-0.12-0.96-0.173-1.040-0.040 0.053-0.32 0.187-0.76 0.693l-10.093 11.467c-0.373 0.427-0.427 0.693-0.427 0.747 0.027 0.013 0.267 0.147 0.827 0.147h4.12c0.547 0 1 0.453 1 1v1.573c0 0.56-0.453 1.013-1 1.013z"></path>
<path d="M2.666 30.333c-0.253 0-0.507-0.093-0.707-0.293-0.387-0.387-0.387-1.027 0-1.413l26.667-26.667c0.387-0.387 1.027-0.387 1.413 0s0.387 1.027 0 1.413l-26.667 26.667c-0.2 0.2-0.453 0.293-0.707 0.293z"></path>
</svg>
