<!-- Generated by IcoMoon.io -->
<svg version="1.1" xmlns="http://www.w3.org/2000/svg" width="32" height="32" viewBox="0 0 32 32">
<title>flash-circle</title>
<path d="M16 30.333c-7.907 0-14.333-6.427-14.333-14.333s6.427-14.333 14.333-14.333c7.907 0 14.333 6.427 14.333 14.333s-6.427 14.333-14.333 14.333zM16 3.667c-6.8 0-12.333 5.533-12.333 12.333s5.533 12.333 12.333 12.333c6.8 0 12.333-5.533 12.333-12.333s-5.533-12.333-12.333-12.333z"></path>
<path d="M12.947 23.787c-0.387 0-0.68-0.133-0.853-0.267-0.36-0.24-0.907-0.853-0.56-2.227l1.027-4.147-1.227-0.307c-1.24-0.307-1.52-1.093-1.573-1.413s-0.080-1.16 0.96-1.893l6.907-4.787c1.16-0.8 1.92-0.507 2.28-0.267s0.907 0.853 0.56 2.227l-1.027 4.147 1.227 0.307c1.24 0.307 1.52 1.093 1.573 1.427s0.080 1.16-0.96 1.893l-6.907 4.787c-0.573 0.387-1.040 0.52-1.427 0.52zM12.147 14.987l1.867 0.467c0.533 0.133 0.867 0.68 0.733 1.213l-1.173 4.72 6.28-4.36-1.867-0.467c-0.533-0.133-0.867-0.68-0.733-1.213l1.173-4.72-6.28 4.36z"></path>
</svg>
