<!-- Generated by IcoMoon.io -->
<svg version="1.1" xmlns="http://www.w3.org/2000/svg" width="32" height="32" viewBox="0 0 32 32">
<title>flash</title>
<path d="M18.093 29.84c-0.307 0-0.613-0.053-0.907-0.16-1-0.373-1.64-1.307-1.64-2.373v-8.6h-3.12c-1.013 0-1.893-0.573-2.307-1.493s-0.253-1.96 0.413-2.72l10.093-11.467c0.707-0.8 1.8-1.080 2.8-0.693 1 0.373 1.64 1.307 1.64 2.373v8.6h3.12c1.013 0 1.893 0.573 2.307 1.493s0.253 1.96-0.413 2.72l-10.093 11.467c-0.493 0.56-1.187 0.853-1.893 0.853zM22.507 4.16c-0.12 0-0.267 0.040-0.387 0.187l-10.093 11.48c-0.213 0.24-0.133 0.48-0.093 0.573s0.173 0.32 0.493 0.32h4.12c0.547 0 1 0.453 1 1v9.6c0 0.333 0.24 0.467 0.347 0.507s0.373 0.107 0.587-0.147l10.093-11.48c0.213-0.24 0.133-0.48 0.093-0.573s-0.173-0.32-0.493-0.32h-4.12c-0.547 0-1-0.453-1-1v-9.6c0-0.333-0.24-0.467-0.347-0.507-0.040-0.027-0.12-0.040-0.2-0.040z"></path>
<path d="M11.333 6.333h-9.333c-0.547 0-1-0.453-1-1s0.453-1 1-1h9.333c0.547 0 1 0.453 1 1s-0.453 1-1 1z"></path>
<path d="M10 27.667h-8c-0.547 0-1-0.453-1-1s0.453-1 1-1h8c0.547 0 1 0.453 1 1s-0.453 1-1 1z"></path>
<path d="M6 17h-4c-0.547 0-1-0.453-1-1s0.453-1 1-1h4c0.547 0 1 0.453 1 1s-0.453 1-1 1z"></path>
</svg>
