<!-- Generated by IcoMoon.io -->
<svg version="1.1" xmlns="http://www.w3.org/2000/svg" width="32" height="32" viewBox="0 0 32 32">
<title>flash-circle-1</title>
<path d="M14.759 24.227c-0.227 0-0.44-0.040-0.667-0.12-0.733-0.28-1.213-0.96-1.213-1.747v-4.4h-1.307c-0.747 0-1.4-0.427-1.707-1.093-0.307-0.68-0.187-1.44 0.307-2l5.68-6.453c0.52-0.587 1.32-0.787 2.053-0.507s1.213 0.96 1.213 1.747v4.4h1.32c0.747 0 1.4 0.427 1.707 1.093 0.307 0.68 0.187 1.44-0.307 2l-5.68 6.453c-0.373 0.4-0.88 0.627-1.4 0.627zM11.866 15.96h2.013c0.547 0 1 0.453 1 1v5.040l5.253-5.96h-2.013c-0.547 0-1-0.453-1-1v-5.040l-5.253 5.96z"></path>
<path d="M15.961 30.333c-7.893 0-14.333-6.427-14.333-14.333s6.44-14.333 14.333-14.333c7.893 0 14.333 6.427 14.333 14.333s-6.427 14.333-14.333 14.333zM15.961 3.667c-6.8 0-12.333 5.533-12.333 12.333s5.533 12.333 12.333 12.333c6.8 0 12.333-5.533 12.333-12.333s-5.533-12.333-12.333-12.333z"></path>
</svg>
