<!-- Generated by IcoMoon.io -->
<svg version="1.1" xmlns="http://www.w3.org/2000/svg" width="32" height="32" viewBox="0 0 32 32">
<title>flash-1</title>
<path d="M13.321 30.333c-0.267 0-0.48-0.053-0.64-0.12-0.533-0.2-1.44-0.853-1.44-2.92v-8.6h-3.12c-1.787 0-2.427-0.84-2.653-1.333-0.227-0.507-0.427-1.533 0.747-2.88l10.093-11.467c1.36-1.547 2.467-1.44 3-1.24s1.44 0.853 1.44 2.92v8.6h3.12c1.787 0 2.427 0.84 2.653 1.333 0.227 0.507 0.427 1.533-0.747 2.88l-10.093 11.467c-0.947 1.080-1.773 1.36-2.36 1.36zM18.574 3.653c-0.040 0.053-0.32 0.187-0.76 0.693l-10.093 11.467c-0.373 0.427-0.427 0.693-0.427 0.747 0.027 0.013 0.267 0.147 0.827 0.147h4.12c0.547 0 1 0.453 1 1v9.6c0 0.667 0.12 0.96 0.173 1.040 0.040-0.053 0.32-0.187 0.76-0.693l10.093-11.467c0.373-0.427 0.427-0.693 0.427-0.747-0.027-0.013-0.267-0.147-0.827-0.147h-4.12c-0.547 0-1-0.453-1-1v-9.6c0.013-0.667-0.12-0.947-0.173-1.040z"></path>
</svg>
