<!-- Generated by IcoMoon.io -->
<svg version="1.1" xmlns="http://www.w3.org/2000/svg" width="32" height="32" viewBox="0 0 32 32">
<title>folder-favorite</title>
<path d="M16.001 23.84c-0.333 0-0.68-0.12-0.947-0.36l-3.44-3.013c-1.293-1.133-1.467-3.080-0.387-4.427 1.093-1.36 3.040-1.613 4.44-0.56l0.333 0.253 0.347-0.267c1.4-1.053 3.347-0.8 4.44 0.56 1.080 1.347 0.907 3.293-0.387 4.427l-3.44 3.013c-0.28 0.253-0.627 0.373-0.96 0.373zM12.921 18.96l3.080 2.693 3.080-2.693c0.493-0.427 0.56-1.16 0.147-1.667-0.413-0.52-1.147-0.613-1.68-0.213l-0.947 0.707c-0.36 0.267-0.84 0.267-1.2 0l-0.947-0.707c-0.52-0.4-1.267-0.307-1.68 0.213-0.4 0.507-0.333 1.24 0.147 1.667z"></path>
<path d="M22.667 30.333h-13.333c-5.88 0-7.667-1.787-7.667-7.667v-13.333c0-5.88 1.787-7.667 7.667-7.667h2c2.333 0 3.067 0.76 4 2l2 2.667c0.44 0.587 0.507 0.667 1.333 0.667h4c5.88 0 7.667 1.787 7.667 7.667v8c0 5.88-1.787 7.667-7.667 7.667zM9.333 3.667c-4.773 0-5.667 0.907-5.667 5.667v13.333c0 4.76 0.893 5.667 5.667 5.667h13.333c4.773 0 5.667-0.907 5.667-5.667v-8c0-4.76-0.893-5.667-5.667-5.667h-4c-1.707 0-2.267-0.587-2.933-1.467l-2-2.667c-0.693-0.92-0.907-1.2-2.4-1.2h-2z"></path>
</svg>
