<!-- Generated by IcoMoon.io -->
<svg version="1.1" xmlns="http://www.w3.org/2000/svg" width="32" height="32" viewBox="0 0 32 32">
<title>folder-connection</title>
<path d="M16 26.333c-0.547 0-1-0.453-1-1v-4c0-0.547 0.453-1 1-1s1 0.453 1 1v4c0 0.547-0.453 1-1 1z"></path>
<path d="M16 31.667c-2.027 0-3.667-1.64-3.667-3.667s1.64-3.667 3.667-3.667c2.027 0 3.667 1.64 3.667 3.667s-1.64 3.667-3.667 3.667zM16 26.333c-0.92 0-1.667 0.747-1.667 1.667s0.747 1.667 1.667 1.667c0.92 0 1.667-0.747 1.667-1.667s-0.747-1.667-1.667-1.667z"></path>
<path d="M24 29h-5.333c-0.547 0-1-0.453-1-1s0.453-1 1-1h5.333c0.547 0 1 0.453 1 1s-0.453 1-1 1z"></path>
<path d="M13.333 29h-5.333c-0.547 0-1-0.453-1-1s0.453-1 1-1h5.333c0.547 0 1 0.453 1 1s-0.453 1-1 1z"></path>
<path d="M20.667 22.333h-9.333c-4.293 0-5.667-1.373-5.667-5.667v-9.333c0-4.293 1.373-5.667 5.667-5.667h1.4c1.773 0 2.347 0.6 3.040 1.52l1.4 1.867c0.267 0.347 0.267 0.347 0.693 0.347h2.8c4.293 0 5.667 1.373 5.667 5.667v5.6c0 4.293-1.373 5.667-5.667 5.667zM11.333 3.667c-3.187 0-3.667 0.48-3.667 3.667v9.333c0 3.187 0.48 3.667 3.667 3.667h9.333c3.187 0 3.667-0.48 3.667-3.667v-5.6c0-3.187-0.48-3.667-3.667-3.667h-2.8c-1.32 0-1.8-0.493-2.28-1.133l-1.413-1.88c-0.467-0.627-0.533-0.72-1.44-0.72h-1.4z"></path>
</svg>
