<!-- Generated by IcoMoon.io -->
<svg version="1.1" xmlns="http://www.w3.org/2000/svg" width="32" height="32" viewBox="0 0 32 32">
<title>folder-cloud</title>
<path d="M12 30.333h-2.667c-5.88 0-7.667-1.787-7.667-7.667v-13.333c0-5.88 1.787-7.667 7.667-7.667h2c2.333 0 3.067 0.76 4 2l2 2.667c0.44 0.587 0.507 0.667 1.333 0.667h4c5.88 0 7.667 1.787 7.667 7.667v2.667c0 0.547-0.453 1-1 1s-1-0.453-1-1v-2.667c0-4.76-0.893-5.667-5.667-5.667h-4c-1.707 0-2.267-0.587-2.933-1.467l-2-2.667c-0.693-0.92-0.907-1.2-2.4-1.2h-2c-4.773 0-5.667 0.907-5.667 5.667v13.333c0 4.76 0.893 5.667 5.667 5.667h2.667c0.547 0 1 0.453 1 1s-0.453 1-1 1z"></path>
<path d="M25.787 30.413c-0.013 0-0.027 0-0.040 0h-7.413c-2.227-0.16-3.347-1.867-3.347-3.493 0-1.307 0.733-2.68 2.147-3.24-0.293-1.667 0.133-3.213 1.24-4.373 1.36-1.427 3.547-2 5.44-1.427 1.653 0.507 2.84 1.813 3.333 3.627 1.4 0.427 2.507 1.533 2.96 3.040 0.533 1.747 0.040 3.533-1.28 4.68-0.8 0.76-1.893 1.187-3.040 1.187zM18.387 25.427c-1.013 0.093-1.387 0.853-1.387 1.493s0.373 1.413 1.413 1.493h7.347c0.64 0.053 1.28-0.24 1.76-0.667 0.867-0.76 0.92-1.84 0.693-2.613s-0.893-1.64-2.013-1.787c-0.44-0.053-0.787-0.387-0.867-0.827-0.293-1.8-1.307-2.467-2.093-2.72-1.173-0.36-2.56 0.013-3.4 0.893-0.573 0.6-1.133 1.68-0.507 3.4 0.187 0.52-0.080 1.093-0.6 1.28-0.12 0.040-0.24 0.053-0.347 0.053z"></path>
</svg>
