<!-- Generated by IcoMoon.io -->
<svg version="1.1" xmlns="http://www.w3.org/2000/svg" width="32" height="32" viewBox="0 0 32 32">
<title>folder-open</title>
<path d="M24.388 30.333h-16.773c-4.533 0-4.773-2.493-4.973-4.507l-0.533-6.68c-0.12-1.293 0.253-2.587 1.080-3.627 0.987-1.2 2.387-1.853 3.893-1.853h17.84c1.48 0 2.88 0.653 3.827 1.787l0.227 0.307c0.72 0.987 1.040 2.187 0.92 3.4l-0.533 6.653c-0.2 2.027-0.44 4.52-4.973 4.52zM7.081 15.667c-0.893 0-1.747 0.4-2.307 1.093l-0.093 0.093c-0.427 0.547-0.653 1.32-0.573 2.12l0.533 6.68c0.187 1.947 0.267 2.68 2.973 2.68h16.773c2.72 0 2.787-0.733 2.973-2.693l0.533-6.68c0.080-0.787-0.147-1.573-0.667-2.187l-0.133-0.16c-0.6-0.627-1.36-0.947-2.187-0.947h-17.827z"></path>
<path d="M27.333 16.293c-0.547 0-1-0.453-1-1v-2.387c0-3.973-0.693-4.667-4.667-4.667h-3.4c-1.507 0-2.027-0.533-2.6-1.293l-1.72-2.28c-0.587-0.773-0.72-0.96-1.92-0.96h-1.693c-3.973 0-4.667 0.693-4.667 4.667v6.867c0 0.547-0.453 1-1 1s-1-0.453-1-1v-6.867c0-5.107 1.56-6.667 6.667-6.667h1.707c2.053 0 2.693 0.667 3.52 1.76l1.707 2.267c0.36 0.48 0.387 0.507 1.013 0.507h3.4c5.107 0 6.667 1.56 6.667 6.667v2.387c-0.013 0.547-0.467 1-1.013 1z"></path>
<path d="M19.426 23.667h-6.853c-0.547 0-1-0.453-1-1s0.453-1 1-1h6.853c0.547 0 1 0.453 1 1s-0.44 1-1 1z"></path>
</svg>
