<!-- Generated by IcoMoon.io -->
<svg version="1.1" xmlns="http://www.w3.org/2000/svg" width="32" height="32" viewBox="0 0 32 32">
<title>folder-cross</title>
<path d="M18.415 21.973c-0.253 0-0.507-0.093-0.707-0.293l-4.72-4.72c-0.387-0.387-0.387-1.027 0-1.413s1.027-0.387 1.413 0l4.72 4.72c0.387 0.387 0.387 1.027 0 1.413-0.2 0.187-0.453 0.293-0.707 0.293z"></path>
<path d="M13.64 22.027c-0.253 0-0.507-0.093-0.707-0.293-0.387-0.387-0.387-1.027 0-1.413l4.72-4.72c0.387-0.387 1.027-0.387 1.413 0s0.387 1.027 0 1.413l-4.72 4.72c-0.187 0.187-0.453 0.293-0.707 0.293z"></path>
<path d="M22.667 30.333h-13.333c-5.88 0-7.667-1.787-7.667-7.667v-13.333c0-5.88 1.787-7.667 7.667-7.667h2c2.333 0 3.067 0.76 4 2l2 2.667c0.44 0.587 0.507 0.667 1.333 0.667h4c5.88 0 7.667 1.787 7.667 7.667v8c0 5.88-1.787 7.667-7.667 7.667zM9.333 3.667c-4.76 0-5.667 0.907-5.667 5.667v13.333c0 4.76 0.907 5.667 5.667 5.667h13.333c4.76 0 5.667-0.907 5.667-5.667v-8c0-4.76-0.907-5.667-5.667-5.667h-4c-1.707 0-2.267-0.587-2.933-1.467l-2-2.667c-0.693-0.92-0.893-1.2-2.4-1.2h-2z"></path>
</svg>
