<!-- Generated by IcoMoon.io -->
<svg version="1.1" xmlns="http://www.w3.org/2000/svg" width="32" height="32" viewBox="0 0 32 32">
<title>forbidden</title>
<path d="M19.867 30.333h-7.733c-1.187 0-2.707-0.627-3.533-1.467l-5.467-5.467c-0.84-0.84-1.467-2.36-1.467-3.533v-7.733c0-1.187 0.627-2.707 1.467-3.533l5.467-5.467c0.84-0.84 2.36-1.467 3.533-1.467h7.733c1.187 0 2.707 0.627 3.533 1.467l5.467 5.467c0.84 0.84 1.467 2.36 1.467 3.533v7.733c0 1.187-0.627 2.707-1.467 3.533l-5.467 5.467c-0.84 0.84-2.347 1.467-3.533 1.467zM12.133 3.667c-0.653 0-1.667 0.413-2.12 0.88l-5.467 5.467c-0.453 0.467-0.88 1.467-0.88 2.12v7.733c0 0.653 0.413 1.667 0.88 2.12l5.467 5.467c0.467 0.453 1.467 0.88 2.12 0.88h7.733c0.653 0 1.667-0.413 2.12-0.88l5.467-5.467c0.453-0.467 0.88-1.467 0.88-2.12v-7.733c0-0.653-0.413-1.667-0.88-2.12l-5.467-5.467c-0.467-0.453-1.467-0.88-2.12-0.88h-7.733z"></path>
<path d="M6.585 26.44c-0.253 0-0.507-0.093-0.707-0.293-0.387-0.387-0.387-1.027 0-1.413l18.853-18.853c0.387-0.387 1.027-0.387 1.413 0s0.387 1.027 0 1.413l-18.853 18.853c-0.2 0.2-0.453 0.293-0.707 0.293z"></path>
</svg>
