<!-- Generated by IcoMoon.io -->
<svg version="1.1" xmlns="http://www.w3.org/2000/svg" width="32" height="32" viewBox="0 0 32 32">
<title>format-square</title>
<path d="M22.733 27.667h-13.467c-0.293 0-0.573-0.133-0.773-0.36s-0.267-0.533-0.213-0.827c0.027-0.16 0.053-0.32 0.053-0.48 0-1.28-1.053-2.333-2.333-2.333-0.16 0-0.333 0.013-0.48 0.053-0.293 0.053-0.6-0.027-0.827-0.213s-0.36-0.467-0.36-0.773v-13.467c0-0.293 0.133-0.573 0.36-0.773s0.52-0.267 0.827-0.213c0.147 0.040 0.32 0.053 0.48 0.053 1.28 0 2.333-1.053 2.333-2.333 0-0.16-0.013-0.333-0.053-0.48-0.053-0.293 0.027-0.6 0.213-0.827s0.467-0.36 0.773-0.36h13.467c0.293 0 0.573 0.133 0.773 0.36s0.267 0.533 0.213 0.827c-0.027 0.16-0.053 0.32-0.053 0.48 0 1.28 1.053 2.333 2.333 2.333 0.16 0 0.333-0.013 0.48-0.053 0.293-0.053 0.6 0.027 0.827 0.213s0.36 0.467 0.36 0.773v13.467c0 0.293-0.133 0.573-0.36 0.773s-0.533 0.267-0.827 0.213c-0.16-0.027-0.32-0.053-0.48-0.053-1.28 0-2.333 1.053-2.333 2.333 0 0.16 0.013 0.333 0.053 0.48 0.053 0.293-0.027 0.6-0.213 0.827s-0.48 0.36-0.773 0.36zM10.32 25.667h11.36c0.16-2.12 1.867-3.827 3.987-3.987v-11.36c-2.12-0.16-3.827-1.867-3.987-3.987h-11.36c-0.16 2.12-1.867 3.827-3.987 3.987v11.36c2.12 0.16 3.827 1.867 3.987 3.987z"></path>
<path d="M6 10.333c-0.293 0-0.573-0.027-0.853-0.080-2.027-0.413-3.48-2.2-3.48-4.253 0-2.387 1.947-4.333 4.333-4.333 2.053 0 3.84 1.453 4.253 3.467 0.053 0.293 0.080 0.573 0.080 0.867 0 2.387-1.947 4.333-4.333 4.333zM6 3.667c-1.28 0-2.333 1.053-2.333 2.333 0 1.107 0.787 2.067 1.867 2.28 0.133 0.040 0.307 0.053 0.467 0.053 1.28 0 2.333-1.053 2.333-2.333 0-0.16-0.013-0.333-0.053-0.48-0.213-1.067-1.173-1.853-2.28-1.853z"></path>
<path d="M26 10.333c-2.387 0-4.333-1.947-4.333-4.333 0-0.293 0.027-0.573 0.080-0.853 0.413-2.027 2.2-3.48 4.253-3.48 2.387 0 4.333 1.947 4.333 4.333 0 2.053-1.453 3.84-3.467 4.253-0.293 0.053-0.573 0.080-0.867 0.080zM26 3.667c-1.107 0-2.067 0.787-2.28 1.867-0.027 0.147-0.053 0.307-0.053 0.467 0 1.28 1.053 2.333 2.333 2.333 0.16 0 0.333-0.013 0.48-0.053 1.067-0.213 1.853-1.173 1.853-2.28 0-1.28-1.053-2.333-2.333-2.333z"></path>
<path d="M6 30.333c-2.387 0-4.333-1.947-4.333-4.333 0-2.053 1.453-3.84 3.467-4.253 0.28-0.053 0.573-0.080 0.867-0.080 2.387 0 4.333 1.947 4.333 4.333 0 0.293-0.027 0.573-0.080 0.853-0.413 2.027-2.2 3.48-4.253 3.48zM6 23.667c-0.16 0-0.333 0.013-0.48 0.053-1.067 0.213-1.853 1.173-1.853 2.28 0 1.28 1.053 2.333 2.333 2.333 1.107 0 2.067-0.787 2.28-1.867 0.027-0.147 0.053-0.307 0.053-0.467 0-1.28-1.053-2.333-2.333-2.333z"></path>
<path d="M26 30.333c-2.053 0-3.84-1.453-4.253-3.467-0.053-0.28-0.080-0.573-0.080-0.867 0-2.387 1.947-4.333 4.333-4.333 0.293 0 0.573 0.027 0.853 0.080 2.027 0.413 3.48 2.2 3.48 4.253 0 2.387-1.947 4.333-4.333 4.333zM26 23.667c-1.28 0-2.333 1.053-2.333 2.333 0 0.16 0.013 0.333 0.053 0.48 0.213 1.067 1.173 1.853 2.28 1.853 1.28 0 2.333-1.053 2.333-2.333 0-1.107-0.787-2.067-1.867-2.28-0.133-0.040-0.307-0.053-0.467-0.053z"></path>
</svg>
