<!-- Generated by IcoMoon.io -->
<svg version="1.1" xmlns="http://www.w3.org/2000/svg" width="32" height="32" viewBox="0 0 32 32">
<title>format-circle</title>
<path d="M24.868 11.933c-2.653 0-4.8-2.16-4.8-4.8 0-1.080 0.36-2.107 1.027-2.96 0.027-0.040 0.067-0.067 0.093-0.107 0.907-1.107 2.24-1.733 3.68-1.733 2.64 0 4.8 2.16 4.8 4.8 0 1.48-0.667 2.853-1.84 3.773-0.853 0.667-1.88 1.027-2.96 1.027zM22.601 5.493c-0.347 0.48-0.533 1.040-0.533 1.64 0 1.547 1.253 2.8 2.8 2.8 0.627 0 1.227-0.213 1.72-0.6 0.68-0.533 1.080-1.333 1.080-2.2 0-1.547-1.253-2.8-2.8-2.8-0.867 0-1.667 0.387-2.187 1.067-0.027 0.040-0.053 0.067-0.080 0.093z"></path>
<path d="M7.133 11.933c-1.080 0-2.107-0.36-2.96-1.027-1.173-0.92-1.84-2.293-1.84-3.773 0-2.64 2.16-4.8 4.8-4.8 1.48 0 2.853 0.667 3.773 1.84 0.667 0.853 1.027 1.88 1.027 2.96 0 2.64-2.16 4.8-4.8 4.8zM7.133 4.333c-1.547 0-2.8 1.253-2.8 2.8 0 0.867 0.387 1.667 1.080 2.2 0.493 0.387 1.093 0.6 1.72 0.6 1.547 0 2.8-1.253 2.8-2.8 0-0.627-0.213-1.227-0.6-1.72-0.533-0.693-1.333-1.080-2.2-1.080z"></path>
<path d="M24.868 29.666c-1.44 0-2.773-0.627-3.68-1.733-0.040-0.027-0.067-0.067-0.093-0.107-0.667-0.853-1.027-1.88-1.027-2.96 0-2.653 2.16-4.8 4.8-4.8 1.080 0 2.107 0.36 2.96 1.027 0.040 0.027 0.067 0.067 0.107 0.093 1.107 0.907 1.733 2.24 1.733 3.68 0 2.64-2.16 4.8-4.8 4.8zM22.601 26.506c0.027 0.027 0.053 0.053 0.080 0.093 0.52 0.68 1.32 1.067 2.187 1.067 1.547 0 2.8-1.253 2.8-2.8 0-0.867-0.387-1.667-1.067-2.187-0.040-0.027-0.067-0.053-0.093-0.080-0.48-0.347-1.040-0.533-1.64-0.533-1.547 0-2.8 1.253-2.8 2.8 0 0.6 0.187 1.16 0.533 1.64z"></path>
<path d="M7.133 29.666c-2.64 0-4.8-2.16-4.8-4.8 0-1.44 0.627-2.773 1.733-3.68 0.027-0.040 0.067-0.067 0.107-0.093 0.853-0.667 1.88-1.027 2.96-1.027 2.653 0 4.8 2.16 4.8 4.8 0 1.080-0.36 2.107-1.027 2.96-0.92 1.173-2.293 1.84-3.773 1.84zM5.493 22.6c-0.027 0.027-0.053 0.053-0.093 0.080-0.68 0.52-1.067 1.32-1.067 2.187 0 1.547 1.253 2.8 2.8 2.8 0.867 0 1.667-0.387 2.2-1.080 0.387-0.493 0.6-1.093 0.6-1.72 0-1.547-1.253-2.8-2.8-2.8-0.6 0-1.16 0.187-1.64 0.533z"></path>
<path d="M16 29.667c-2.213 0-4.413-0.547-6.347-1.573-0.267-0.133-0.44-0.387-0.507-0.68s0-0.587 0.187-0.827c0.387-0.493 0.6-1.093 0.6-1.72 0-1.547-1.253-2.8-2.8-2.8-0.627 0-1.227 0.213-1.72 0.6-0.227 0.187-0.533 0.253-0.827 0.187s-0.533-0.24-0.68-0.507c-1.040-1.96-1.573-4.093-1.573-6.347 0-2.213 0.547-4.413 1.573-6.347 0.133-0.267 0.387-0.44 0.68-0.507s0.587 0.013 0.827 0.187c0.493 0.387 1.093 0.6 1.72 0.6 1.547 0 2.8-1.253 2.8-2.8 0-0.627-0.213-1.227-0.6-1.72-0.187-0.227-0.253-0.533-0.187-0.827s0.24-0.533 0.507-0.68c1.933-1.027 4.133-1.573 6.347-1.573 2.253 0 4.387 0.533 6.347 1.573 0.267 0.133 0.44 0.387 0.507 0.68s-0.013 0.587-0.187 0.827c-0.387 0.493-0.6 1.093-0.6 1.72 0 1.547 1.253 2.8 2.8 2.8 0.627 0 1.227-0.213 1.72-0.6 0.227-0.187 0.533-0.253 0.827-0.187s0.533 0.24 0.68 0.507c1.027 1.933 1.573 4.133 1.573 6.347 0 2.253-0.533 4.387-1.573 6.347-0.133 0.267-0.387 0.44-0.68 0.507s-0.587-0.013-0.827-0.187c-0.493-0.387-1.093-0.6-1.72-0.6-1.547 0-2.8 1.253-2.8 2.8 0 0.627 0.213 1.227 0.6 1.72 0.187 0.227 0.253 0.533 0.187 0.827s-0.24 0.533-0.507 0.68c-1.96 1.040-4.093 1.573-6.347 1.573zM11.533 26.773c2.827 1.187 6.133 1.173 8.92 0-0.267-0.6-0.4-1.24-0.4-1.907 0-2.653 2.16-4.8 4.8-4.8 0.667 0 1.307 0.133 1.907 0.4 0.587-1.4 0.893-2.893 0.893-4.467 0-1.533-0.307-3.067-0.893-4.467-0.6 0.267-1.24 0.4-1.907 0.4-2.653 0-4.8-2.16-4.8-4.8 0-0.667 0.133-1.307 0.4-1.907-2.787-1.173-6.107-1.173-8.92 0 0.267 0.6 0.4 1.24 0.4 1.907 0 2.653-2.16 4.8-4.8 4.8-0.667 0-1.307-0.133-1.907-0.4-0.587 1.4-0.893 2.933-0.893 4.467 0 1.56 0.293 3.053 0.893 4.467 0.6-0.267 1.24-0.4 1.907-0.4 2.653 0 4.8 2.16 4.8 4.8 0 0.667-0.133 1.307-0.4 1.907z"></path>
</svg>
