<!-- Generated by IcoMoon.io -->
<svg version="1.1" xmlns="http://www.w3.org/2000/svg" width="32" height="32" viewBox="0 0 32 32">
<title>forward-square</title>
<path d="M20 30.333h-8c-7.24 0-10.333-3.093-10.333-10.333v-8c0-7.24 3.093-10.333 10.333-10.333h8c7.24 0 10.333 3.093 10.333 10.333v8c0 7.24-3.093 10.333-10.333 10.333zM12 3.667c-6.147 0-8.333 2.187-8.333 8.333v8c0 6.147 2.187 8.333 8.333 8.333h8c6.147 0 8.333-2.187 8.333-8.333v-8c0-6.147-2.187-8.333-8.333-8.333h-8z"></path>
<path d="M20 21.506h-6.56c-2.813 0-5.107-2.293-5.107-5.107s2.293-5.107 5.107-5.107h9.027c0.547 0 1 0.453 1 1s-0.453 1-1 1h-9.027c-1.707 0-3.107 1.387-3.107 3.107s1.387 3.107 3.107 3.107h6.56c0.547 0 1 0.453 1 1s-0.453 1-1 1z"></path>
<path d="M20.575 15.36c-0.253 0-0.507-0.093-0.707-0.293-0.387-0.387-0.387-1.027 0-1.413l1.387-1.387-1.387-1.387c-0.387-0.387-0.387-1.027 0-1.413s1.027-0.387 1.413 0l2.093 2.093c0.387 0.387 0.387 1.027 0 1.413l-2.093 2.093c-0.2 0.187-0.453 0.293-0.707 0.293z"></path>
</svg>
