<!-- Generated by IcoMoon.io -->
<svg version="1.1" xmlns="http://www.w3.org/2000/svg" width="32" height="32" viewBox="0 0 32 32">
<title>forward</title>
<path d="M5.267 24.48c-0.613 0-1.24-0.16-1.8-0.493-1.133-0.653-1.8-1.813-1.8-3.12v-9.76c0-1.307 0.667-2.467 1.8-3.12s2.48-0.653 3.6 0l8.453 4.88c0.387 0.227 0.693 0.493 0.933 0.787 0.147 0.173 0.227 0.4 0.227 0.627v3.413c0 0.227-0.080 0.453-0.227 0.627-0.24 0.293-0.547 0.56-0.907 0.773l-8.48 4.907c-0.56 0.32-1.173 0.48-1.8 0.48zM5.267 9.52c-0.28 0-0.547 0.067-0.8 0.213-0.507 0.293-0.8 0.813-0.8 1.387v9.76c0 0.573 0.293 1.093 0.8 1.387s1.093 0.293 1.6 0l8.453-4.88c0.053-0.027 0.107-0.067 0.147-0.107v-2.573c-0.053-0.040-0.107-0.080-0.16-0.107l-8.44-4.867c-0.253-0.147-0.52-0.213-0.8-0.213z"></path>
<path d="M18.28 24.48c-0.613 0-1.24-0.16-1.8-0.493-1.133-0.653-1.8-1.813-1.8-3.12v-9.76c0-1.307 0.667-2.467 1.8-3.12s2.48-0.653 3.6 0l8.453 4.88c1.12 0.653 1.8 1.813 1.8 3.12s-0.667 2.467-1.8 3.12l-8.453 4.88c-0.56 0.333-1.187 0.493-1.8 0.493zM18.28 9.52c-0.28 0-0.547 0.067-0.8 0.213-0.507 0.293-0.8 0.8-0.8 1.387v9.76c0 0.573 0.293 1.093 0.8 1.387s1.107 0.293 1.6 0l8.453-4.88c0.507-0.293 0.8-0.813 0.8-1.387s-0.293-1.093-0.8-1.387l-8.453-4.88c-0.253-0.147-0.52-0.213-0.8-0.213z"></path>
</svg>
