<!-- Generated by IcoMoon.io -->
<svg version="1.1" xmlns="http://www.w3.org/2000/svg" width="32" height="32" viewBox="0 0 32 32">
<title>forward-5-seconds</title>
<path d="M18.64 6.96c-0.293 0-0.587-0.133-0.773-0.373l-2.64-3.293c-0.347-0.427-0.28-1.067 0.16-1.4s1.053-0.28 1.4 0.16l2.64 3.293c0.347 0.427 0.28 1.067-0.16 1.4-0.187 0.133-0.413 0.213-0.627 0.213z"></path>
<path d="M15.999 30.333c-7.080 0-12.853-5.76-12.853-12.853s5.76-12.853 12.853-12.853c0.92 0 1.853 0.107 2.867 0.347 0.533 0.12 0.88 0.667 0.747 1.2-0.12 0.533-0.653 0.88-1.2 0.747-0.853-0.2-1.653-0.293-2.413-0.293-5.987 0-10.853 4.867-10.853 10.853s4.867 10.853 10.853 10.853 10.853-4.867 10.853-10.853c0-2.32-0.76-4.56-2.2-6.48-0.333-0.44-0.24-1.067 0.2-1.4s1.067-0.24 1.4 0.2c1.707 2.267 2.6 4.92 2.6 7.68 0 7.093-5.773 12.853-12.853 12.853z"></path>
<path d="M16.507 22.56h-3.053c-0.547 0-1-0.453-1-1s0.453-1 1-1h3.053c0.573 0 1.040-0.467 1.040-1.040s-0.467-1.040-1.040-1.040h-3.053c-0.32 0-0.627-0.16-0.813-0.413s-0.24-0.6-0.133-0.907l1.013-3.053c0.133-0.413 0.52-0.68 0.947-0.68h4.080c0.547 0 1 0.453 1 1s-0.453 1-1 1h-3.36l-0.347 1.053h1.667c1.68 0 3.040 1.36 3.040 3.040s-1.36 3.040-3.040 3.040z"></path>
</svg>
