<!-- Generated by IcoMoon.io -->
<svg version="1.1" xmlns="http://www.w3.org/2000/svg" width="32" height="32" viewBox="0 0 32 32">
<title>forward-item</title>
<path d="M18.161 24.173h-4.307c-4.173 0-6.027-1.853-6.027-6.027v-4.307c0-4.173 1.853-6.027 6.027-6.027h4.307c4.173 0 6.027 1.853 6.027 6.027v4.307c-0.013 4.173-1.867 6.027-6.027 6.027zM13.841 9.826c-3.053 0-4.027 0.973-4.027 4.027v4.307c0 3.053 0.973 4.027 4.027 4.027h4.307c3.053 0 4.027-0.973 4.027-4.027v-4.307c0-3.053-0.973-4.027-4.027-4.027h-4.307z"></path>
<path d="M24.307 18.027h-1.133c-0.547 0-1-0.453-1-1v-3.173c0-3.053-0.973-4.027-4.027-4.027h-3.173c-0.547 0-1-0.453-1-1v-1.133c0-4.173 1.853-6.027 6.027-6.027h4.307c4.173 0 6.027 1.853 6.027 6.027v4.307c0 4.173-1.853 6.027-6.027 6.027zM24.174 16.027h0.133c3.053 0 4.027-0.973 4.027-4.027v-4.307c0-3.053-0.973-4.027-4.027-4.027h-4.307c-3.053 0-4.027 0.973-4.027 4.027v0.133h2.173c4.173 0 6.027 1.853 6.027 6.027v2.173z"></path>
<path d="M12 30.333h-4.307c-4.173 0-6.027-1.853-6.027-6.027v-4.307c0-4.173 1.853-6.027 6.027-6.027h1.133c0.547 0 1 0.453 1 1v3.173c0 3.053 0.973 4.027 4.027 4.027h3.173c0.547 0 1 0.453 1 1v1.133c0 4.173-1.853 6.027-6.027 6.027zM7.693 15.973c-3.053 0-4.027 0.973-4.027 4.027v4.307c0 3.053 0.973 4.027 4.027 4.027h4.307c3.053 0 4.027-0.973 4.027-4.027v-0.133h-2.173c-4.173 0-6.027-1.853-6.027-6.027v-2.173h-0.133z"></path>
</svg>
