<!-- Generated by IcoMoon.io -->
<svg version="1.1" xmlns="http://www.w3.org/2000/svg" width="32" height="32" viewBox="0 0 32 32">
<title>forward-10-seconds</title>
<path d="M18.64 6.96c-0.293 0-0.587-0.133-0.773-0.373l-2.64-3.293c-0.347-0.427-0.28-1.067 0.16-1.4 0.427-0.347 1.053-0.28 1.4 0.16l2.64 3.293c0.347 0.427 0.28 1.067-0.16 1.4-0.187 0.133-0.413 0.213-0.627 0.213z"></path>
<path d="M15.999 30.333c-7.080 0-12.853-5.76-12.853-12.853s5.76-12.853 12.853-12.853c0.92 0 1.853 0.107 2.867 0.347 0.533 0.12 0.88 0.667 0.747 1.2-0.12 0.533-0.653 0.88-1.2 0.747-0.853-0.2-1.653-0.293-2.413-0.293-5.987 0-10.853 4.867-10.853 10.853s4.867 10.853 10.853 10.853 10.853-4.867 10.853-10.853c0-2.32-0.76-4.56-2.2-6.48-0.333-0.44-0.24-1.067 0.2-1.4s1.067-0.24 1.4 0.2c1.707 2.267 2.6 4.92 2.6 7.68 0 7.093-5.773 12.853-12.853 12.853z"></path>
<path d="M12.719 22.227c-0.547 0-1-0.453-1-1v-4.52l-0.253 0.28c-0.373 0.413-1 0.44-1.413 0.080-0.413-0.373-0.44-1-0.080-1.413l2-2.227c0.28-0.307 0.72-0.413 1.107-0.267s0.64 0.52 0.64 0.933v7.133c0 0.56-0.44 1-1 1z"></path>
<path d="M18.667 22.227c-2.027 0-3.667-1.64-3.667-3.667v-1.8c0-2.027 1.64-3.667 3.667-3.667s3.667 1.64 3.667 3.667v1.8c0 2.027-1.64 3.667-3.667 3.667zM18.667 15.107c-0.92 0-1.667 0.747-1.667 1.667v1.8c0 0.92 0.747 1.667 1.667 1.667s1.667-0.747 1.667-1.667v-1.8c0-0.92-0.747-1.667-1.667-1.667z"></path>
</svg>
