<!-- Generated by IcoMoon.io -->
<svg version="1.1" xmlns="http://www.w3.org/2000/svg" width="32" height="32" viewBox="0 0 32 32">
<title>frame-3</title>
<path d="M25.68 26.2c-0.547 0-1-0.453-1-1v-15.733c0-1.347-0.28-1.8-1.973-1.8h-1.387c-1.693 0-1.973 0.453-1.973 1.8v15.733c0 0.547-0.453 1-1 1s-1-0.453-1-1v-15.733c0-2.56 1.307-3.8 3.973-3.8h1.387c2.68 0 3.973 1.24 3.973 3.8v15.733c0 0.547-0.453 1-1 1z"></path>
<path d="M14.346 26.2c-0.547 0-1-0.453-1-1v-9.067c0-1.347-0.28-1.8-1.973-1.8h-1.387c-1.693 0-1.973 0.453-1.973 1.8v9.067c0 0.547-0.453 1-1 1s-1-0.453-1-1v-9.067c0-2.56 1.307-3.8 3.973-3.8h1.387c2.68 0 3.973 1.24 3.973 3.8v9.067c0 0.547-0.453 1-1 1z"></path>
<path d="M29.333 26.333h-26.667c-0.547 0-1-0.453-1-1s0.44-1 1-1h26.667c0.547 0 1 0.453 1 1s-0.44 1-1 1z"></path>
</svg>
