<!-- Generated by IcoMoon.io -->
<svg version="1.1" xmlns="http://www.w3.org/2000/svg" width="32" height="32" viewBox="0 0 32 32">
<title>frame-1</title>
<path d="M16.214 15.493c-0.040 0-0.067 0-0.107 0-0.067-0.013-0.16-0.013-0.24 0-3.867-0.12-6.787-3.16-6.787-6.907 0-3.813 3.107-6.92 6.92-6.92s6.92 3.107 6.92 6.92c-0.013 3.747-2.947 6.787-6.667 6.907-0.013 0-0.027 0-0.040 0zM16.001 3.667c-2.707 0-4.92 2.213-4.92 4.92 0 2.667 2.080 4.813 4.733 4.907 0.067-0.013 0.253-0.013 0.427 0 2.613-0.12 4.667-2.267 4.68-4.907 0-2.707-2.213-4.92-4.92-4.92z"></path>
<path d="M16.226 30.067c-2.613 0-5.24-0.667-7.227-2-1.853-1.227-2.867-2.907-2.867-4.733s1.013-3.52 2.867-4.76c4-2.653 10.48-2.653 14.453 0 1.84 1.227 2.867 2.907 2.867 4.733s-1.013 3.52-2.867 4.76c-2 1.333-4.613 2-7.227 2zM10.106 20.253c-1.28 0.853-1.973 1.947-1.973 3.093 0 1.133 0.707 2.227 1.973 3.067 3.32 2.227 8.92 2.227 12.24 0 1.28-0.853 1.973-1.947 1.973-3.093 0-1.133-0.707-2.227-1.973-3.067-3.32-2.213-8.92-2.213-12.24 0z"></path>
</svg>
