<!-- Generated by IcoMoon.io -->
<svg version="1.1" xmlns="http://www.w3.org/2000/svg" width="32" height="32" viewBox="0 0 32 32">
<title>frame-4</title>
<path d="M16.001 30.347c-1.453 0-2.893-0.427-4.027-1.267l-5.733-4.28c-1.52-1.133-2.707-3.493-2.707-5.387v-9.92c0-2.053 1.507-4.24 3.44-4.96l6.653-2.493c1.32-0.493 3.4-0.493 4.72 0l6.667 2.493c1.933 0.72 3.44 2.907 3.44 4.96v9.907c0 1.893-1.187 4.253-2.707 5.387l-5.733 4.28c-1.12 0.853-2.56 1.28-4.013 1.28zM14.334 3.92l-6.653 2.493c-1.147 0.427-2.147 1.867-2.147 3.093v9.907c0 1.267 0.893 3.040 1.893 3.787l5.733 4.28c1.533 1.147 4.133 1.147 5.667 0l5.733-4.28c1.013-0.76 1.893-2.533 1.893-3.787v-9.92c0-1.213-1-2.653-2.147-3.093l-6.653-2.493c-0.88-0.32-2.427-0.32-3.32 0.013z"></path>
<path d="M16 17.667c-2.027 0-3.667-1.64-3.667-3.667s1.64-3.667 3.667-3.667c2.027 0 3.667 1.64 3.667 3.667s-1.64 3.667-3.667 3.667zM16 12.333c-0.92 0-1.667 0.747-1.667 1.667s0.747 1.667 1.667 1.667c0.92 0 1.667-0.747 1.667-1.667s-0.747-1.667-1.667-1.667z"></path>
<path d="M16 21.667c-0.547 0-1-0.453-1-1v-4c0-0.547 0.453-1 1-1s1 0.453 1 1v4c0 0.547-0.453 1-1 1z"></path>
</svg>
