<!-- Generated by IcoMoon.io -->
<svg version="1.1" xmlns="http://www.w3.org/2000/svg" width="32" height="32" viewBox="0 0 32 32">
<title>frame-2</title>
<path d="M11.027 30.333h-5.387c-2.68 0-3.973-1.24-3.973-3.8v-21.067c0-2.56 1.307-3.8 3.973-3.8h5.387c2.68 0 3.973 1.24 3.973 3.8v21.067c0 2.56-1.307 3.8-3.973 3.8zM5.64 3.667c-1.693 0-1.973 0.453-1.973 1.8v21.067c0 1.347 0.28 1.8 1.973 1.8h5.387c1.693 0 1.973-0.453 1.973-1.8v-21.067c0-1.347-0.28-1.8-1.973-1.8h-5.387z"></path>
<path d="M26.36 15h-5.387c-2.68 0-3.973-1.187-3.973-3.64v-6.053c0-2.453 1.307-3.64 3.973-3.64h5.387c2.68 0 3.973 1.187 3.973 3.64v6.040c0 2.467-1.307 3.653-3.973 3.653zM20.973 3.667c-1.787 0-1.973 0.507-1.973 1.64v6.040c0 1.147 0.187 1.64 1.973 1.64h5.387c1.787 0 1.973-0.507 1.973-1.64v-6.040c0-1.147-0.187-1.64-1.973-1.64h-5.387z"></path>
<path d="M26.36 30.333h-5.387c-2.68 0-3.973-1.307-3.973-3.973v-5.387c0-2.68 1.307-3.973 3.973-3.973h5.387c2.68 0 3.973 1.307 3.973 3.973v5.387c0 2.667-1.307 3.973-3.973 3.973zM20.973 19c-1.573 0-1.973 0.4-1.973 1.973v5.387c0 1.573 0.4 1.973 1.973 1.973h5.387c1.573 0 1.973-0.4 1.973-1.973v-5.387c0-1.573-0.4-1.973-1.973-1.973h-5.387z"></path>
</svg>
