<!-- Generated by IcoMoon.io -->
<svg version="1.1" xmlns="http://www.w3.org/2000/svg" width="32" height="32" viewBox="0 0 32 32">
<title>gallery-import</title>
<path d="M12 14.333c-2.027 0-3.667-1.64-3.667-3.667s1.64-3.667 3.667-3.667c2.027 0 3.667 1.64 3.667 3.667s-1.64 3.667-3.667 3.667zM12 9c-0.92 0-1.667 0.747-1.667 1.667s0.747 1.667 1.667 1.667c0.92 0 1.667-0.747 1.667-1.667s-0.747-1.667-1.667-1.667z"></path>
<path d="M20 30.333h-8c-7.24 0-10.333-3.093-10.333-10.333v-8c0-7.24 3.093-10.333 10.333-10.333h5.333c0.547 0 1 0.453 1 1s-0.453 1-1 1h-5.333c-6.147 0-8.333 2.187-8.333 8.333v8c0 6.147 2.187 8.333 8.333 8.333h8c6.147 0 8.333-2.187 8.333-8.333v-6.667c0-0.547 0.453-1 1-1s1 0.453 1 1v6.667c0 7.24-3.093 10.333-10.333 10.333z"></path>
<path d="M24 11.667c-0.133 0-0.253-0.027-0.387-0.080-0.373-0.147-0.613-0.52-0.613-0.92v-8c0-0.547 0.453-1 1-1s1 0.453 1 1v5.587l0.96-0.96c0.387-0.387 1.027-0.387 1.413 0s0.387 1.027 0 1.413l-2.667 2.667c-0.187 0.187-0.44 0.293-0.707 0.293z"></path>
<path d="M23.999 11.667c-0.253 0-0.507-0.093-0.707-0.293l-2.667-2.667c-0.387-0.387-0.387-1.027 0-1.413s1.027-0.387 1.413 0l2.667 2.667c0.387 0.387 0.387 1.027 0 1.413-0.2 0.2-0.453 0.293-0.707 0.293z"></path>
<path d="M3.561 26.267c-0.32 0-0.64-0.16-0.827-0.44-0.307-0.453-0.187-1.080 0.28-1.387l6.573-4.413c1.44-0.973 3.427-0.853 4.733 0.253l0.44 0.387c0.667 0.573 1.8 0.573 2.453 0l5.547-4.76c1.413-1.213 3.64-1.213 5.067 0l2.173 1.867c0.413 0.36 0.467 0.987 0.107 1.413-0.36 0.413-0.987 0.467-1.413 0.107l-2.173-1.867c-0.667-0.573-1.8-0.573-2.467 0l-5.547 4.76c-1.413 1.213-3.64 1.213-5.067 0l-0.44-0.387c-0.613-0.52-1.627-0.573-2.307-0.107l-6.573 4.413c-0.173 0.107-0.373 0.16-0.56 0.16z"></path>
</svg>
