<!-- Generated by IcoMoon.io -->
<svg version="1.1" xmlns="http://www.w3.org/2000/svg" width="32" height="32" viewBox="0 0 32 32">
<title>gallery-edit</title>
<path d="M12 14.333c-2.027 0-3.667-1.64-3.667-3.667s1.64-3.667 3.667-3.667c2.027 0 3.667 1.64 3.667 3.667s-1.64 3.667-3.667 3.667zM12 9c-0.92 0-1.667 0.747-1.667 1.667s0.747 1.667 1.667 1.667c0.92 0 1.667-0.747 1.667-1.667s-0.747-1.667-1.667-1.667z"></path>
<path d="M20 30.333h-8c-7.24 0-10.333-3.093-10.333-10.333v-8c0-7.24 3.093-10.333 10.333-10.333h5.333c0.547 0 1 0.453 1 1s-0.453 1-1 1h-5.333c-6.147 0-8.333 2.187-8.333 8.333v8c0 6.147 2.187 8.333 8.333 8.333h8c6.147 0 8.333-2.187 8.333-8.333v-6.667c0-0.547 0.453-1 1-1s1 0.453 1 1v6.667c0 7.24-3.093 10.333-10.333 10.333z"></path>
<path d="M20.895 13c-0.52 0-1-0.187-1.347-0.547-0.413-0.413-0.613-1.027-0.52-1.653l0.267-1.853c0.067-0.467 0.347-1.040 0.693-1.373l4.84-4.84c1.933-1.933 3.613-0.827 4.44 0 0.787 0.787 1.147 1.613 1.067 2.467-0.067 0.68-0.413 1.333-1.067 1.973l-4.84 4.84c-0.333 0.333-0.907 0.613-1.373 0.693l-1.853 0.267c-0.107 0.027-0.213 0.027-0.307 0.027zM26.228 4.16l-4.84 4.84c-0.040 0.040-0.107 0.187-0.12 0.253l-0.253 1.733 1.747-0.24c0.053-0.013 0.2-0.080 0.253-0.133l4.84-4.84c0.293-0.293 0.467-0.56 0.48-0.76 0.027-0.28-0.253-0.627-0.48-0.853-0.693-0.693-1.013-0.613-1.627 0z"></path>
<path d="M27.867 8.173c-0.093 0-0.187-0.013-0.267-0.040-1.787-0.507-3.213-1.933-3.72-3.72-0.147-0.533 0.16-1.080 0.693-1.227s1.080 0.16 1.227 0.693c0.32 1.12 1.213 2.027 2.347 2.347 0.533 0.147 0.84 0.707 0.693 1.227-0.147 0.427-0.547 0.72-0.973 0.72z"></path>
<path d="M3.559 26.267c-0.32 0-0.64-0.16-0.827-0.44-0.307-0.453-0.187-1.080 0.267-1.387l6.573-4.413c1.44-0.96 3.427-0.853 4.733 0.253l0.44 0.387c0.667 0.573 1.8 0.573 2.453 0l5.547-4.76c1.413-1.213 3.64-1.213 5.067 0l2.173 1.867c0.413 0.36 0.467 0.987 0.107 1.413-0.36 0.413-0.987 0.467-1.413 0.107l-2.173-1.867c-0.667-0.573-1.8-0.573-2.453 0l-5.547 4.76c-1.413 1.213-3.64 1.213-5.067 0l-0.44-0.387c-0.613-0.52-1.627-0.573-2.307-0.107l-6.56 4.413c-0.187 0.107-0.387 0.16-0.573 0.16z"></path>
</svg>
