<!-- Generated by IcoMoon.io -->
<svg version="1.1" xmlns="http://www.w3.org/2000/svg" width="32" height="32" viewBox="0 0 32 32">
<title>gallery-slash</title>
<path d="M4.507 27.8c-0.28 0-0.573-0.12-0.76-0.36-1.427-1.667-2.080-4.040-2.080-7.44v-8c0-7.24 3.093-10.333 10.333-10.333h8c3.187 0 5.52 0.6 7.173 1.84 0.44 0.333 0.533 0.96 0.2 1.4s-0.96 0.533-1.4 0.2c-1.293-0.973-3.24-1.44-5.973-1.44h-8c-6.147 0-8.333 2.187-8.333 8.333v8c0 2.867 0.52 4.88 1.6 6.16 0.36 0.427 0.307 1.053-0.12 1.413-0.187 0.147-0.413 0.227-0.64 0.227z"></path>
<path d="M19.999 30.334h-8c-1.053 0-2-0.067-2.867-0.187-0.547-0.080-0.92-0.587-0.84-1.133s0.6-0.92 1.133-0.84c0.76 0.107 1.627 0.173 2.573 0.173h8c6.147 0 8.333-2.187 8.333-8.333v-8.013c0-0.44-0.013-0.88-0.040-1.28-0.040-0.547 0.387-1.027 0.933-1.067 0.573-0.027 1.027 0.387 1.067 0.933 0.027 0.453 0.040 0.92 0.040 1.413v8c0 7.24-3.093 10.333-10.333 10.333z"></path>
<path d="M10.667 14.333c-2.027 0-3.667-1.64-3.667-3.667s1.64-3.667 3.667-3.667c2.027 0 3.667 1.64 3.667 3.667s-1.64 3.667-3.667 3.667zM10.667 9c-0.92 0-1.667 0.747-1.667 1.667s0.747 1.667 1.667 1.667c0.92 0 1.667-0.747 1.667-1.667s-0.747-1.667-1.667-1.667z"></path>
<path d="M2.666 30.333c-0.253 0-0.507-0.093-0.707-0.293-0.387-0.387-0.387-1.027 0-1.413l26.667-26.667c0.387-0.387 1.027-0.387 1.413 0s0.387 1.027 0 1.413l-26.667 26.667c-0.2 0.2-0.453 0.293-0.707 0.293z"></path>
<path d="M15.975 23.24c-0.52 0-1.040-0.2-1.427-0.587s-0.387-1.027 0-1.413c0.387-0.387 1.027-0.387 1.413 0 0.013 0.013 0.027 0.013 0.040 0l6.707-6.72c1.387-1.387 3.8-1.387 5.173 0l2.173 2.173c0.387 0.387 0.387 1.027 0 1.413s-1.027 0.387-1.413 0l-2.173-2.173c-0.627-0.627-1.72-0.627-2.347 0l-6.707 6.72c-0.4 0.387-0.92 0.587-1.44 0.587z"></path>
</svg>
