<!-- Generated by IcoMoon.io -->
<svg version="1.1" xmlns="http://www.w3.org/2000/svg" width="32" height="32" viewBox="0 0 32 32">
<title>game</title>
<path d="M8.693 21.68c-0.253 0-0.507-0.093-0.707-0.293-0.387-0.387-0.387-1.027 0-1.413l4.067-4.067c0.387-0.387 1.027-0.387 1.413 0s0.387 1.027 0 1.413l-4.067 4.067c-0.2 0.187-0.453 0.293-0.707 0.293z"></path>
<path d="M12.8 21.72c-0.253 0-0.507-0.093-0.707-0.293l-4.067-4.067c-0.387-0.387-0.387-1.027 0-1.413s1.027-0.387 1.413 0l4.067 4.067c0.387 0.387 0.387 1.027 0 1.413-0.2 0.2-0.453 0.293-0.707 0.293z"></path>
<path d="M18.054 20c-0.733 0-1.347-0.6-1.347-1.333s0.587-1.333 1.32-1.333h0.027c0.733 0 1.333 0.6 1.333 1.333s-0.587 1.333-1.333 1.333z"></path>
<path d="M23.306 20c-0.733 0-1.347-0.6-1.347-1.333s0.587-1.333 1.32-1.333h0.027c0.733 0 1.333 0.6 1.333 1.333s-0.6 1.333-1.333 1.333z"></path>
<path d="M20.667 22.627c-0.733 0-1.333-0.587-1.333-1.32v-0.027c0-0.733 0.6-1.333 1.333-1.333s1.333 0.6 1.333 1.333c0 0.733-0.587 1.347-1.333 1.347z"></path>
<path d="M20.667 17.373c-0.733 0-1.333-0.587-1.333-1.32v-0.027c0-0.733 0.6-1.333 1.333-1.333s1.333 0.6 1.333 1.333c0 0.733-0.587 1.347-1.333 1.347z"></path>
<path d="M20 30.333h-8c-7.24 0-10.333-3.093-10.333-10.333v-2.667c0-7.24 3.093-10.333 10.333-10.333h8c7.24 0 10.333 3.093 10.333 10.333v2.667c0 7.24-3.093 10.333-10.333 10.333zM12 9c-6.147 0-8.333 2.187-8.333 8.333v2.667c0 6.147 2.187 8.333 8.333 8.333h8c6.147 0 8.333-2.187 8.333-8.333v-2.667c0-6.147-2.187-8.333-8.333-8.333h-8z"></path>
<path d="M17.32 9h-1.333c-1.28 0-2.333-1.053-2.333-2.333s1.040-2.333 2.32-2.333c0.213 0 0.36-0.147 0.373-0.333l0.013-1.347c0.013-0.547 0.453-0.987 1-0.987h0.013c0.547 0.013 1 0.467 0.987 1.013l-0.013 1.347c-0.013 1.267-1.067 2.307-2.333 2.307-0.213 0-0.347 0.147-0.347 0.333s0.147 0.333 0.333 0.333h1.333c0.547 0 1 0.453 1 1s-0.467 1-1.013 1z"></path>
</svg>
