<!-- Generated by IcoMoon.io -->
<svg version="1.1" xmlns="http://www.w3.org/2000/svg" width="32" height="32" viewBox="0 0 32 32">
<title>gameboy</title>
<path d="M21.333 30.333h-10.667c-4.867 0-7.667-2.8-7.667-7.667v-13.333c0-4.867 2.8-7.667 7.667-7.667h10.667c4.867 0 7.667 2.8 7.667 7.667v13.333c0 4.867-2.8 7.667-7.667 7.667zM10.667 3.667c-3.813 0-5.667 1.853-5.667 5.667v13.333c0 3.813 1.853 5.667 5.667 5.667h10.667c3.813 0 5.667-1.853 5.667-5.667v-13.333c0-3.813-1.853-5.667-5.667-5.667h-10.667z"></path>
<path d="M21.667 15.667h-11.333c-1.84 0-3.333-1.493-3.333-3.333v-3.333c0-1.84 1.493-3.333 3.333-3.333h11.333c1.84 0 3.333 1.493 3.333 3.333v3.333c0 1.84-1.493 3.333-3.333 3.333zM10.333 7.667c-0.733 0-1.333 0.6-1.333 1.333v3.333c0 0.733 0.6 1.333 1.333 1.333h11.333c0.733 0 1.333-0.6 1.333-1.333v-3.333c0-0.733-0.6-1.333-1.333-1.333h-11.333z"></path>
<path d="M10.666 24.44c-0.253 0-0.507-0.093-0.707-0.293-0.387-0.387-0.387-1.027 0-1.413l3.067-3.067c0.387-0.387 1.027-0.387 1.413 0s0.387 1.027 0 1.413l-3.067 3.067c-0.2 0.2-0.453 0.293-0.707 0.293z"></path>
<path d="M13.773 24.48c-0.253 0-0.507-0.093-0.707-0.293l-3.067-3.067c-0.387-0.387-0.387-1.027 0-1.413s1.027-0.387 1.413 0l3.067 3.067c0.387 0.387 0.387 1.027 0 1.413-0.2 0.2-0.453 0.293-0.707 0.293z"></path>
<path d="M22.013 21.773c-0.733 0-1.347-0.6-1.347-1.333s0.587-1.333 1.32-1.333h0.027c0.733 0 1.333 0.6 1.333 1.333s-0.6 1.333-1.333 1.333z"></path>
<path d="M19.32 24.653c-0.733 0-1.333-0.587-1.333-1.32v-0.027c0-0.733 0.6-1.333 1.333-1.333s1.333 0.6 1.333 1.333c0 0.733-0.6 1.347-1.333 1.347z"></path>
</svg>
