<!-- Generated by IcoMoon.io -->
<svg version="1.1" xmlns="http://www.w3.org/2000/svg" width="32" height="32" viewBox="0 0 32 32">
<title>gas-station</title>
<path d="M23.333 30.333h-18.667c-0.547 0-1-0.453-1-1v-22.667c0-2.987 2.013-5 5-5h10.667c2.987 0 5 2.013 5 5v22.667c0 0.547-0.453 1-1 1zM5.667 28.333h16.667v-21.667c0-1.88-1.12-3-3-3h-10.667c-1.88 0-3 1.12-3 3v21.667z"></path>
<path d="M25.333 30.333h-22.667c-0.547 0-1-0.453-1-1s0.453-1 1-1h22.667c0.547 0 1 0.453 1 1s-0.453 1-1 1z"></path>
<path d="M16.814 14.333h-5.64c-2.173 0-3.52-1.347-3.52-3.52v-1.64c0-2.173 1.347-3.52 3.52-3.52h5.64c2.173 0 3.52 1.347 3.52 3.52v1.64c0 2.173-1.347 3.52-3.52 3.52zM11.187 7.667c-1.080 0-1.52 0.44-1.52 1.52v1.64c0 1.080 0.44 1.52 1.52 1.52h5.64c1.080 0 1.52-0.44 1.52-1.52v-1.64c0-1.080-0.44-1.52-1.52-1.52h-5.64z"></path>
<path d="M12.667 18.333h-4c-0.547 0-1-0.453-1-1s0.453-1 1-1h4c0.547 0 1 0.453 1 1s-0.453 1-1 1z"></path>
<path d="M23.333 22.347c-0.547 0-1-0.44-1-1 0-0.547 0.44-1 1-1l5-0.013v-6.387l-2.12-1.053c-0.493-0.253-0.693-0.853-0.453-1.347 0.253-0.493 0.853-0.693 1.347-0.453l2.667 1.333c0.333 0.173 0.547 0.52 0.547 0.893v8c0 0.547-0.44 1-1 1l-5.987 0.027z"></path>
</svg>
