<!-- Generated by IcoMoon.io -->
<svg version="1.1" xmlns="http://www.w3.org/2000/svg" width="32" height="32" viewBox="0 0 32 32">
<title>ghost</title>
<path d="M20.44 30.333c-0.56 0-1.133-0.2-1.573-0.6l-2.667-2.44c-0.107-0.093-0.32-0.093-0.44 0l-2.653 2.44c-0.88 0.813-2.253 0.8-3.133 0l-2.667-2.44c-0.107-0.093-0.32-0.093-0.44 0l-1.32 1.213c-1.213 1.107-2.173 0.933-2.64 0.72s-1.253-0.8-1.253-2.467v-10.52c0-8.040 6.427-14.573 14.333-14.573s14.333 6.533 14.333 14.573v10.52c0 1.667-0.787 2.267-1.253 2.467s-1.427 0.387-2.64-0.72l-1.333-1.213c-0.107-0.093-0.32-0.093-0.427 0l-2.667 2.44c-0.427 0.4-0.987 0.6-1.56 0.6zM16 25.213c0.56 0 1.133 0.2 1.56 0.6l2.667 2.44c0.107 0.093 0.32 0.093 0.427 0l2.667-2.44c0.88-0.8 2.253-0.8 3.133 0l1.333 1.213c0.227 0.2 0.373 0.293 0.467 0.32 0.040-0.093 0.080-0.28 0.080-0.6v-10.52c0-6.933-5.533-12.573-12.333-12.573s-12.333 5.64-12.333 12.573v10.52c0 0.32 0.053 0.507 0.080 0.6 0.093-0.040 0.253-0.12 0.467-0.32l1.333-1.213c0.88-0.8 2.253-0.8 3.133 0l2.667 2.44c0.107 0.093 0.32 0.093 0.427 0l2.667-2.44c0.427-0.4 1-0.6 1.56-0.6z"></path>
<path d="M16 21.427c-2.093 0-4.187-0.653-5.933-1.96-0.44-0.333-0.533-0.96-0.2-1.4s0.96-0.533 1.4-0.2c2.787 2.093 6.68 2.093 9.467 0 0.44-0.333 1.067-0.24 1.4 0.2s0.24 1.067-0.2 1.4c-1.747 1.307-3.84 1.96-5.933 1.96z"></path>
<path d="M16 15.667c-2.027 0-3.667-1.64-3.667-3.667s1.64-3.667 3.667-3.667c2.027 0 3.667 1.64 3.667 3.667s-1.64 3.667-3.667 3.667zM16 10.333c-0.92 0-1.667 0.747-1.667 1.667s0.747 1.667 1.667 1.667c0.92 0 1.667-0.747 1.667-1.667s-0.747-1.667-1.667-1.667z"></path>
</svg>
