<!-- Generated by IcoMoon.io -->
<svg version="1.1" xmlns="http://www.w3.org/2000/svg" width="32" height="32" viewBox="0 0 32 32">
<title>gift</title>
<path d="M21.294 30.333h-10.667c-4.56 0-6.333-1.773-6.333-6.333v-10.667c0-0.547 0.453-1 1-1h21.333c0.547 0 1 0.453 1 1v10.667c0 4.56-1.773 6.333-6.333 6.333zM6.294 14.333v9.667c0 3.44 0.893 4.333 4.333 4.333h10.667c3.44 0 4.333-0.893 4.333-4.333v-9.667h-19.333z"></path>
<path d="M26 14.333h-20c-2.333 0-3.667-1.333-3.667-3.667v-1.333c0-2.333 1.333-3.667 3.667-3.667h20c2.267 0 3.667 1.4 3.667 3.667v1.333c0 2.267-1.4 3.667-3.667 3.667zM6 7.667c-1.213 0-1.667 0.453-1.667 1.667v1.333c0 1.213 0.453 1.667 1.667 1.667h20c1.173 0 1.667-0.493 1.667-1.667v-1.333c0-1.173-0.493-1.667-1.667-1.667h-20z"></path>
<path d="M15.519 7.667h-7.36c-0.28 0-0.547-0.12-0.733-0.32-0.813-0.893-0.787-2.267 0.067-3.12l1.893-1.893c0.88-0.88 2.333-0.88 3.213 0l3.627 3.627c0.28 0.28 0.373 0.72 0.213 1.093-0.147 0.373-0.507 0.613-0.92 0.613zM8.892 5.667h4.227l-1.933-1.92c-0.107-0.107-0.28-0.107-0.387 0l-1.893 1.893c0 0.013-0.013 0.013-0.013 0.027z"></path>
<path d="M23.827 7.667h-7.36c-0.4 0-0.773-0.24-0.92-0.613-0.16-0.373-0.067-0.8 0.213-1.093l3.627-3.627c0.88-0.88 2.333-0.88 3.213 0l1.893 1.893c0.853 0.853 0.893 2.227 0.067 3.12-0.187 0.2-0.453 0.32-0.733 0.32zM18.893 5.667h4.227c-0.013-0.013-0.013-0.013-0.027-0.027l-1.893-1.893c-0.107-0.107-0.28-0.107-0.387 0l-1.92 1.92z"></path>
<path d="M13.253 22.533c-0.373 0-0.76-0.093-1.107-0.28-0.76-0.413-1.227-1.2-1.227-2.053v-6.867c0-0.547 0.453-1 1-1h8.053c0.547 0 1 0.453 1 1v6.84c0 0.867-0.467 1.653-1.227 2.053-0.76 0.413-1.68 0.36-2.4-0.12l-1.187-0.8c-0.107-0.080-0.253-0.080-0.373 0l-1.253 0.827c-0.387 0.267-0.84 0.4-1.28 0.4zM12.919 14.333v5.853c0 0.173 0.107 0.253 0.173 0.293s0.2 0.080 0.347-0.013l1.253-0.827c0.787-0.52 1.8-0.52 2.573 0l1.187 0.8c0.147 0.093 0.28 0.053 0.347 0.013s0.173-0.12 0.173-0.293v-5.84h-6.053v0.013z"></path>
</svg>
