<!-- Generated by IcoMoon.io -->
<svg version="1.1" xmlns="http://www.w3.org/2000/svg" width="32" height="32" viewBox="0 0 32 32">
<title>glass</title>
<path d="M21.119 30.333h-10.24c-3.573 0-5.2-1.333-5.92-2.44-1.053-1.627-1.013-3.853 0.12-6.44l5.107-11.6c-0.707-0.187-1.36-0.56-1.88-1.080-0.76-0.773-1.213-1.84-1.213-2.947 0-2.293 1.867-4.16 4.16-4.16h9.48c1.107 0 2.16 0.44 2.947 1.227 1.040 1.040 1.453 2.52 1.107 3.947s-1.52 2.56-2.96 2.973l5.093 11.653c1.12 2.573 1.16 4.8 0.093 6.427-0.72 1.107-2.347 2.44-5.893 2.44zM11.252 3.667c-1.187 0-2.16 0.973-2.16 2.16 0 0.573 0.24 1.133 0.627 1.533 0.4 0.4 0.96 0.627 1.533 0.627h0.4c0.333 0 0.653 0.173 0.84 0.453s0.213 0.64 0.080 0.947l-5.667 12.867c-0.84 1.92-0.947 3.533-0.28 4.547 0.827 1.267 2.76 1.533 4.24 1.533h10.24c1.467 0 3.387-0.267 4.227-1.533 0.667-1.027 0.573-2.627-0.253-4.533l-5.613-12.88c-0.133-0.307-0.107-0.667 0.080-0.947s0.493-0.453 0.84-0.453h0.213c1.067 0 2.027-0.68 2.253-1.627 0.187-0.76-0.027-1.507-0.573-2.053-0.413-0.413-0.96-0.64-1.533-0.64h-9.493z"></path>
<path d="M18.454 20.053c-0.88 0-1.827-0.12-2.773-0.44-3.787-1.267-7.693-1.133-7.733-1.133-0.533 0.080-1.013-0.413-1.040-0.96s0.413-1.013 0.96-1.040c0.173-0.013 4.32-0.147 8.44 1.227 3.467 1.16 6.867-1.040 6.907-1.067 0.453-0.307 1.080-0.173 1.387 0.28s0.187 1.080-0.28 1.387c-0.12 0.093-2.653 1.747-5.867 1.747z"></path>
</svg>
