<!-- Generated by IcoMoon.io -->
<svg version="1.1" xmlns="http://www.w3.org/2000/svg" width="32" height="32" viewBox="0 0 32 32">
<title>glass-1</title>
<path d="M18.667 24.333h-5.333c-0.547 0-1-0.453-1-1s0.453-1 1-1h5.333c0.547 0 1 0.453 1 1s-0.453 1-1 1z"></path>
<path d="M2.667 24.333c-0.547 0-1-0.453-1-1v-13.333c0-5.88 1.787-7.667 7.667-7.667 0.547 0 1 0.453 1 1s-0.453 1-1 1c-4.76 0-5.667 0.893-5.667 5.667v13.333c0 0.547-0.453 1-1 1z"></path>
<path d="M29.333 24.333c-0.547 0-1-0.453-1-1v-13.333c0-4.773-0.907-5.667-5.667-5.667-0.547 0-1-0.453-1-1s0.453-1 1-1c5.88 0 7.667 1.787 7.667 7.667v13.333c0 0.547-0.453 1-1 1z"></path>
<path d="M9.6 30.333h-3.2c-3.227 0-4.733-1.507-4.733-4.733v-4.387c0-3.227 1.507-4.733 4.733-4.733h3.2c3.227 0 4.733 1.507 4.733 4.733v4.387c0 3.227-1.507 4.733-4.733 4.733zM6.4 18.48c-2.12 0-2.733 0.613-2.733 2.733v4.387c0 2.12 0.613 2.733 2.733 2.733h3.2c2.12 0 2.733-0.613 2.733-2.733v-4.387c0-2.12-0.613-2.733-2.733-2.733h-3.2z"></path>
<path d="M25.6 30.333h-3.2c-3.227 0-4.733-1.507-4.733-4.733v-4.387c0-3.227 1.507-4.733 4.733-4.733h3.2c3.227 0 4.733 1.507 4.733 4.733v4.387c0 3.227-1.507 4.733-4.733 4.733zM22.4 18.48c-2.12 0-2.733 0.613-2.733 2.733v4.387c0 2.12 0.613 2.733 2.733 2.733h3.2c2.12 0 2.733-0.613 2.733-2.733v-4.387c0-2.12-0.613-2.733-2.733-2.733h-3.2z"></path>
</svg>
