<!-- Generated by IcoMoon.io -->
<svg version="1.1" xmlns="http://www.w3.org/2000/svg" width="32" height="32" viewBox="0 0 32 32">
<title>global-refresh</title>
<path d="M16 30.333c-7.907 0-14.333-6.427-14.333-14.333s6.427-14.333 14.333-14.333c7.907 0 14.333 6.427 14.333 14.333 0 0.547-0.453 1-1 1s-1-0.453-1-1c0-6.8-5.533-12.333-12.333-12.333s-12.333 5.533-12.333 12.333c0 6.8 5.533 12.333 12.333 12.333 0.547 0 1 0.453 1 1s-0.453 1-1 1z"></path>
<path d="M12 29h-1.333c-0.547 0-1-0.453-1-1s0.427-0.987 0.973-1c-2.093-7.147-2.093-14.853 0-22-0.533-0.013-0.973-0.453-0.973-1s0.453-1 1-1h1.333c0.32 0 0.627 0.16 0.813 0.413 0.187 0.267 0.24 0.6 0.133 0.907-2.507 7.533-2.507 15.84 0 23.373 0.107 0.307 0.053 0.64-0.133 0.907s-0.493 0.4-0.813 0.4z"></path>
<path d="M21.947 17c-0.547 0-1-0.453-1-1 0-3.973-0.64-7.907-1.893-11.68-0.173-0.52 0.107-1.093 0.627-1.267s1.093 0.107 1.267 0.627c1.32 3.973 2 8.12 2 12.32 0 0.547-0.453 1-1 1z"></path>
<path d="M16 22.946c-3.733 0-7.427-0.533-11-1.587-0.013 0.533-0.453 0.973-1 0.973s-1-0.453-1-1v-1.333c0-0.32 0.16-0.627 0.413-0.813s0.6-0.24 0.907-0.133c3.773 1.253 7.707 1.893 11.68 1.893 0.547 0 1 0.453 1 1s-0.453 1-1 1z"></path>
<path d="M28.001 13c-0.107 0-0.213-0.013-0.32-0.053-7.533-2.507-15.84-2.507-23.373 0-0.52 0.173-1.093-0.107-1.267-0.627s0.107-1.093 0.627-1.267c7.947-2.653 16.693-2.653 24.627 0 0.52 0.173 0.8 0.747 0.627 1.267-0.107 0.413-0.507 0.68-0.92 0.68z"></path>
<path d="M24.346 30.333c-3.307 0-5.987-2.693-5.987-5.987s2.693-6 5.987-6c0.667 0 1.333 0.093 1.96 0.293 0.533 0.16 0.827 0.72 0.667 1.253s-0.72 0.827-1.253 0.667c-0.44-0.133-0.907-0.2-1.373-0.2-2.2 0-3.987 1.787-3.987 4s1.787 3.987 3.987 3.987c2.2 0 3.987-1.787 3.987-3.987 0-0.8-0.227-1.56-0.667-2.213-0.307-0.453-0.187-1.080 0.28-1.387 0.453-0.307 1.080-0.187 1.387 0.28 0.667 0.987 1.013 2.147 1.013 3.333-0.013 3.267-2.707 5.96-6 5.96z"></path>
<path d="M26.719 20.733c-0.28 0-0.56-0.12-0.76-0.347l-1.667-1.907c-0.36-0.413-0.32-1.053 0.093-1.413s1.040-0.32 1.413 0.093l1.667 1.907c0.36 0.413 0.32 1.053-0.093 1.413-0.187 0.173-0.413 0.253-0.653 0.253z"></path>
<path d="M24.774 22.147c-0.307 0-0.613-0.147-0.813-0.413-0.32-0.44-0.227-1.067 0.213-1.4l1.947-1.413c0.44-0.333 1.067-0.227 1.4 0.213 0.32 0.44 0.227 1.067-0.213 1.4l-1.947 1.413c-0.173 0.133-0.373 0.2-0.587 0.2z"></path>
</svg>
