<!-- Generated by IcoMoon.io -->
<svg version="1.1" xmlns="http://www.w3.org/2000/svg" width="32" height="32" viewBox="0 0 32 32">
<title>global</title>
<path d="M16 30.333c-7.907 0-14.333-6.427-14.333-14.333s6.427-14.333 14.333-14.333c7.907 0 14.333 6.427 14.333 14.333s-6.427 14.333-14.333 14.333zM16 3.667c-6.8 0-12.333 5.533-12.333 12.333s5.533 12.333 12.333 12.333c6.8 0 12.333-5.533 12.333-12.333s-5.533-12.333-12.333-12.333z"></path>
<path d="M12 29h-1.333c-0.547 0-1-0.453-1-1s0.427-0.987 0.973-1c-2.093-7.147-2.093-14.853 0-22-0.547-0.013-0.973-0.453-0.973-1s0.453-1 1-1h1.333c0.32 0 0.627 0.16 0.813 0.413 0.187 0.267 0.24 0.6 0.133 0.907-2.507 7.533-2.507 15.827 0 23.373 0.107 0.307 0.053 0.64-0.133 0.907-0.187 0.24-0.493 0.4-0.813 0.4z"></path>
<path d="M20.001 29c-0.107 0-0.213-0.013-0.32-0.053-0.52-0.173-0.813-0.747-0.627-1.267 2.507-7.533 2.507-15.827 0-23.373-0.173-0.52 0.107-1.093 0.627-1.267 0.533-0.173 1.093 0.107 1.267 0.627 2.653 7.947 2.653 16.693 0 24.627-0.133 0.44-0.533 0.707-0.947 0.707z"></path>
<path d="M16 22.933c-3.72 0-7.427-0.52-11-1.573-0.013 0.533-0.453 0.973-1 0.973s-1-0.453-1-1v-1.333c0-0.32 0.16-0.627 0.413-0.813 0.267-0.187 0.6-0.24 0.907-0.133 7.533 2.507 15.84 2.507 23.373 0 0.307-0.107 0.64-0.053 0.907 0.133s0.413 0.493 0.413 0.813v1.333c0 0.547-0.453 1-1 1s-0.987-0.427-1-0.973c-3.587 1.053-7.293 1.573-11.013 1.573z"></path>
<path d="M28 13c-0.107 0-0.213-0.013-0.32-0.053-7.533-2.507-15.84-2.507-23.373 0-0.533 0.173-1.093-0.107-1.267-0.627-0.16-0.533 0.12-1.093 0.64-1.267 7.947-2.653 16.693-2.653 24.627 0 0.52 0.173 0.813 0.747 0.627 1.267-0.12 0.413-0.52 0.68-0.933 0.68z"></path>
</svg>
