<!-- Generated by IcoMoon.io -->
<svg version="1.1" xmlns="http://www.w3.org/2000/svg" width="32" height="32" viewBox="0 0 32 32">
<title>global-edit</title>
<path d="M16 30.333c-7.907 0-14.333-6.427-14.333-14.333s6.427-14.333 14.333-14.333c7.907 0 14.333 6.427 14.333 14.333 0 0.547-0.453 1-1 1s-1-0.453-1-1c0-6.8-5.533-12.333-12.333-12.333s-12.333 5.533-12.333 12.333c0 6.8 5.533 12.333 12.333 12.333 0.547 0 1 0.453 1 1s-0.453 1-1 1z"></path>
<path d="M12 29h-1.333c-0.547 0-1-0.453-1-1s0.427-0.987 0.973-1c-2.093-7.147-2.093-14.853 0-22-0.533-0.013-0.973-0.453-0.973-1s0.453-1 1-1h1.333c0.32 0 0.627 0.16 0.813 0.413 0.187 0.267 0.24 0.6 0.133 0.907-2.507 7.533-2.507 15.84 0 23.373 0.107 0.307 0.053 0.64-0.133 0.907s-0.493 0.4-0.813 0.4z"></path>
<path d="M21.947 17c-0.547 0-1-0.453-1-1 0-3.973-0.64-7.907-1.893-11.68-0.173-0.52 0.107-1.093 0.627-1.267s1.093 0.107 1.267 0.627c1.32 3.973 2 8.12 2 12.32 0 0.547-0.453 1-1 1z"></path>
<path d="M16 22.946c-3.733 0-7.427-0.533-11-1.587-0.013 0.533-0.453 0.973-1 0.973s-1-0.453-1-1v-1.333c0-0.32 0.16-0.627 0.413-0.813s0.6-0.24 0.907-0.133c3.773 1.253 7.707 1.893 11.68 1.893 0.547 0 1 0.453 1 1s-0.453 1-1 1z"></path>
<path d="M28.001 13c-0.107 0-0.213-0.013-0.32-0.053-7.533-2.507-15.84-2.507-23.373 0-0.52 0.173-1.093-0.107-1.267-0.627s0.107-1.093 0.627-1.267c7.947-2.653 16.693-2.653 24.627 0 0.52 0.173 0.8 0.747 0.627 1.267-0.107 0.413-0.507 0.68-0.92 0.68z"></path>
<path d="M21.093 30.333c-0.507 0-0.987-0.187-1.333-0.533-0.413-0.413-0.6-1.013-0.507-1.64l0.253-1.8c0.067-0.467 0.347-1.027 0.68-1.36l4.72-4.72c0.64-0.64 1.267-0.973 1.947-1.040 0.84-0.080 1.653 0.267 2.427 1.040s1.12 1.587 1.040 2.427c-0.067 0.667-0.413 1.307-1.040 1.947l-4.72 4.72c-0.333 0.333-0.88 0.613-1.347 0.68l-1.8 0.253c-0.12 0.013-0.213 0.027-0.32 0.027zM27.079 21.226c-0.013 0-0.027 0-0.040 0-0.187 0.013-0.44 0.173-0.72 0.467l-4.72 4.72c-0.040 0.040-0.107 0.173-0.107 0.227l-0.24 1.667 1.667-0.24c0.053-0.013 0.187-0.080 0.227-0.12l4.72-4.72c0.28-0.28 0.453-0.533 0.467-0.72 0.027-0.267-0.24-0.587-0.467-0.813-0.213-0.213-0.52-0.467-0.787-0.467z"></path>
<path d="M27.894 25.626c-0.093 0-0.187-0.013-0.267-0.040-1.76-0.493-3.16-1.893-3.653-3.653-0.147-0.533 0.16-1.080 0.693-1.227s1.080 0.16 1.24 0.693c0.307 1.093 1.173 1.96 2.267 2.267 0.533 0.147 0.84 0.707 0.693 1.227-0.133 0.44-0.533 0.733-0.973 0.733z"></path>
</svg>
