<!-- Generated by IcoMoon.io -->
<svg version="1.1" xmlns="http://www.w3.org/2000/svg" width="32" height="32" viewBox="0 0 32 32">
<title>gps-slash</title>
<path d="M16 27c-1.533 0-3.013-0.307-4.4-0.92-0.507-0.227-0.733-0.813-0.52-1.32 0.227-0.507 0.813-0.733 1.32-0.52 1.133 0.493 2.347 0.747 3.6 0.747 4.96 0 9-4.040 9-9 0-1.253-0.253-2.467-0.747-3.6-0.227-0.507 0.013-1.093 0.52-1.32 0.507-0.213 1.093 0.013 1.32 0.52 0.613 1.387 0.92 2.867 0.92 4.4-0.013 6.080-4.947 11.013-11.013 11.013z"></path>
<path d="M8.773 23.92c-0.267 0-0.52-0.107-0.72-0.307-1.973-2.067-3.053-4.76-3.053-7.613 0-6.067 4.933-11 11-11 2.867 0 5.573 1.093 7.64 3.080 0.4 0.387 0.413 1.013 0.027 1.413s-1.013 0.413-1.413 0.027c-1.693-1.627-3.907-2.52-6.253-2.52-4.96 0-9 4.040-9 9 0 2.333 0.893 4.547 2.507 6.227 0.387 0.4 0.373 1.027-0.027 1.413-0.2 0.187-0.453 0.28-0.707 0.28z"></path>
<path d="M16 6.333c-0.547 0-1-0.453-1-1v-2.667c0-0.547 0.453-1 1-1s1 0.453 1 1v2.667c0 0.547-0.453 1-1 1z"></path>
<path d="M5.333 17h-2.667c-0.547 0-1-0.453-1-1s0.453-1 1-1h2.667c0.547 0 1 0.453 1 1s-0.453 1-1 1z"></path>
<path d="M16 30.333c-0.547 0-1-0.453-1-1v-2.667c0-0.547 0.453-1 1-1s1 0.453 1 1v2.667c0 0.547-0.453 1-1 1z"></path>
<path d="M29.333 17h-2.667c-0.547 0-1-0.453-1-1s0.453-1 1-1h2.667c0.547 0 1 0.453 1 1s-0.453 1-1 1z"></path>
<path d="M13.173 19.827c-0.253 0-0.507-0.093-0.707-0.293-0.947-0.947-1.467-2.2-1.467-3.533 0-2.76 2.24-5 5-5 1.333 0 2.587 0.52 3.533 1.467 0.387 0.387 0.387 1.027 0 1.413l-5.653 5.653c-0.2 0.2-0.453 0.293-0.707 0.293zM16 13c-1.653 0-3 1.347-3 3 0 0.453 0.107 0.893 0.293 1.293l4-4c-0.4-0.187-0.84-0.293-1.293-0.293z"></path>
<path d="M2.666 30.333c-0.253 0-0.507-0.093-0.707-0.293-0.387-0.387-0.387-1.027 0-1.413l26.667-26.667c0.387-0.387 1.027-0.387 1.413 0s0.387 1.027 0 1.413l-26.667 26.667c-0.2 0.2-0.453 0.293-0.707 0.293z"></path>
</svg>
