<!-- Generated by IcoMoon.io -->
<svg version="1.1" xmlns="http://www.w3.org/2000/svg" width="32" height="32" viewBox="0 0 32 32">
<title>gps</title>
<path d="M16 27c-6.067 0-11-4.933-11-11s4.933-11 11-11c6.067 0 11 4.933 11 11s-4.933 11-11 11zM16 7c-4.96 0-9 4.040-9 9s4.040 9 9 9c4.96 0 9-4.040 9-9s-4.040-9-9-9z"></path>
<path d="M16 21c-2.76 0-5-2.24-5-5s2.24-5 5-5c2.76 0 5 2.24 5 5s-2.24 5-5 5zM16 13c-1.653 0-3 1.347-3 3s1.347 3 3 3c1.653 0 3-1.347 3-3s-1.347-3-3-3z"></path>
<path d="M16 6.333c-0.547 0-1-0.453-1-1v-2.667c0-0.547 0.453-1 1-1s1 0.453 1 1v2.667c0 0.547-0.453 1-1 1z"></path>
<path d="M5.333 17h-2.667c-0.547 0-1-0.453-1-1s0.453-1 1-1h2.667c0.547 0 1 0.453 1 1s-0.453 1-1 1z"></path>
<path d="M16 30.333c-0.547 0-1-0.453-1-1v-2.667c0-0.547 0.453-1 1-1s1 0.453 1 1v2.667c0 0.547-0.453 1-1 1z"></path>
<path d="M29.333 17h-2.667c-0.547 0-1-0.453-1-1s0.453-1 1-1h2.667c0.547 0 1 0.453 1 1s-0.453 1-1 1z"></path>
</svg>
