<!-- Generated by IcoMoon.io -->
<svg version="1.1" xmlns="http://www.w3.org/2000/svg" width="32" height="32" viewBox="0 0 32 32">
<title>grammerly</title>
<path d="M16.001 30.293c-3.56 0-7.133-1.28-9.84-3.853-2.84-2.693-4.44-6.32-4.493-10.213-0.053-3.907 1.44-7.573 4.2-10.333 5.587-5.587 14.68-5.587 20.267 0 2.76 2.76 4.253 6.427 4.2 10.333s-1.653 7.533-4.493 10.213c-2.707 2.573-6.28 3.853-9.84 3.853zM16.001 3.707c-3.16 0-6.32 1.2-8.72 3.6-2.373 2.373-3.653 5.533-3.613 8.893s1.413 6.48 3.867 8.787c4.667 4.427 12.267 4.413 16.933 0 2.44-2.307 3.813-5.44 3.867-8.787s-1.24-6.52-3.613-8.893c-2.4-2.4-5.56-3.6-8.72-3.6z"></path>
<path d="M16.001 24.427c-2.107 0-4.2-0.76-5.8-2.267-0.4-0.387-0.413-1.013-0.040-1.413 0.387-0.4 1.013-0.413 1.413-0.040 2.44 2.307 6.413 2.307 8.853 0 0.4-0.373 1.040-0.36 1.413 0.040s0.36 1.040-0.040 1.413c-1.6 1.507-3.693 2.267-5.8 2.267z"></path>
</svg>
