<!-- Generated by IcoMoon.io -->
<svg version="1.1" xmlns="http://www.w3.org/2000/svg" width="32" height="32" viewBox="0 0 32 32">
<title>graph</title>
<path d="M24.427 17h-4.427c-3.32 0-5-1.88-5-5.6v-3.827c0-1.36 0.16-3.307 1.573-4.373 1.187-0.88 2.893-0.947 5.413-0.213 3.307 0.96 6.067 3.72 7.027 7.027 0.733 2.507 0.667 4.227-0.213 5.4-1.067 1.427-3.013 1.587-4.373 1.587zM19.040 4.48c-0.547 0-0.973 0.107-1.253 0.32-0.52 0.387-0.773 1.293-0.773 2.773v3.84c0 2.987 1.147 3.6 3 3.6h4.427c1.467 0 2.373-0.253 2.773-0.773 0.467-0.613 0.427-1.84-0.093-3.64-0.773-2.627-3.040-4.907-5.667-5.667-0.987-0.307-1.787-0.453-2.413-0.453z"></path>
<path d="M14.761 30.333c-0.707 0-1.427-0.053-2.147-0.173-5.453-0.88-9.893-5.307-10.773-10.76-1.133-7.013 3.387-13.627 10.307-15.040 0.547-0.107 1.067 0.24 1.187 0.773 0.107 0.547-0.24 1.067-0.773 1.187-5.853 1.2-9.693 6.8-8.72 12.76 0.747 4.613 4.493 8.36 9.107 9.107 5.987 0.96 11.573-2.893 12.76-8.773 0.107-0.547 0.64-0.893 1.173-0.787 0.547 0.107 0.893 0.64 0.787 1.173-1.267 6.227-6.707 10.533-12.907 10.533z"></path>
</svg>
