<!-- Generated by IcoMoon.io -->
<svg version="1.1" xmlns="http://www.w3.org/2000/svg" width="32" height="32" viewBox="0 0 32 32">
<title>grid-edit</title>
<path d="M13.333 30.333h-1.333c-7.24 0-10.333-3.093-10.333-10.333v-8c0-7.24 3.093-10.333 10.333-10.333h8c7.24 0 10.333 3.093 10.333 10.333v2.667c0 0.547-0.453 1-1 1s-1-0.453-1-1v-2.667c0-6.147-2.187-8.333-8.333-8.333h-8c-6.147 0-8.333 2.187-8.333 8.333v8c0 6.147 2.187 8.333 8.333 8.333h1.333c0.547 0 1 0.453 1 1s-0.453 1-1 1z"></path>
<path d="M29.335 12.333h-26.627c-0.547 0-1-0.453-1-1s0.453-1 1-1h26.627c0.547 0 1 0.453 1 1s-0.453 1-1 1z"></path>
<path d="M16.002 21.667h-13.293c-0.547 0-1-0.453-1-1s0.453-1 1-1h13.293c0.547 0 1 0.453 1 1s-0.453 1-1 1z"></path>
<path d="M11.346 30.32c-0.547 0-1-0.453-1-1v-26.627c0-0.547 0.453-1 1-1s1 0.453 1 1v26.627c0 0.547-0.44 1-1 1z"></path>
<path d="M20.68 16.987c-0.547 0-1-0.453-1-1v-13.293c0-0.547 0.453-1 1-1s1 0.453 1 1v13.293c0 0.547-0.44 1-1 1z"></path>
<path d="M19.681 30.334c-0.56 0-1.067-0.2-1.44-0.573-0.453-0.44-0.653-1.093-0.547-1.773l0.307-2.12c0.067-0.507 0.373-1.12 0.747-1.493l5.533-5.533c0.72-0.72 1.427-1.093 2.173-1.173 0.92-0.093 1.84 0.307 2.707 1.173s1.267 1.773 1.173 2.707c-0.067 0.747-0.453 1.453-1.173 2.173l-5.533 5.533c-0.36 0.36-0.973 0.667-1.493 0.747l-2.107 0.307c-0.12 0.013-0.24 0.027-0.347 0.027zM26.695 19.667c-0.013 0-0.040 0-0.053 0-0.267 0.027-0.587 0.227-0.96 0.6l-5.533 5.533c-0.067 0.067-0.16 0.267-0.173 0.36l-0.307 2.12 2.173-0.24c0.093-0.013 0.293-0.12 0.36-0.173l5.533-5.533c0.373-0.373 0.573-0.693 0.6-0.96 0.027-0.307-0.173-0.667-0.6-1.093-0.4-0.413-0.747-0.613-1.040-0.613z"></path>
<path d="M27.653 24.813c-0.093 0-0.173-0.013-0.267-0.040-2-0.56-3.6-2.16-4.16-4.16-0.147-0.533 0.16-1.080 0.693-1.227 0.547-0.147 1.080 0.16 1.227 0.693 0.373 1.333 1.44 2.4 2.773 2.773 0.533 0.147 0.84 0.707 0.693 1.227-0.12 0.453-0.533 0.733-0.96 0.733z"></path>
</svg>
