<!-- Generated by IcoMoon.io -->
<svg version="1.1" xmlns="http://www.w3.org/2000/svg" width="32" height="32" viewBox="0 0 32 32">
<title>grid-lock</title>
<path d="M13.333 30.333h-1.333c-7.24 0-10.333-3.093-10.333-10.333v-8c0-7.24 3.093-10.333 10.333-10.333h8c7.24 0 10.333 3.093 10.333 10.333v2.667c0 0.547-0.453 1-1 1s-1-0.453-1-1v-2.667c0-6.147-2.187-8.333-8.333-8.333h-8c-6.147 0-8.333 2.187-8.333 8.333v8c0 6.147 2.187 8.333 8.333 8.333h1.333c0.547 0 1 0.453 1 1s-0.453 1-1 1z"></path>
<path d="M29.335 12.333h-26.627c-0.547 0-1-0.453-1-1s0.453-1 1-1h26.627c0.547 0 1 0.453 1 1s-0.453 1-1 1z"></path>
<path d="M16.002 21.667h-13.293c-0.547 0-1-0.453-1-1s0.453-1 1-1h13.293c0.547 0 1 0.453 1 1s-0.453 1-1 1z"></path>
<path d="M11.346 30.32c-0.547 0-1-0.453-1-1v-26.627c0-0.547 0.453-1 1-1s1 0.453 1 1v26.627c0 0.547-0.44 1-1 1z"></path>
<path d="M20.68 16.987c-0.547 0-1-0.453-1-1v-13.293c0-0.547 0.453-1 1-1s1 0.453 1 1v13.293c0 0.547-0.44 1-1 1z"></path>
<path d="M27.199 23.933c-0.547 0-1-0.453-1-1v-1.067c0-1.493-0.333-2.2-2.2-2.2s-2.2 0.707-2.2 2.2v1.067c0 0.547-0.453 1-1 1s-1-0.453-1-1v-1.067c0-2.787 1.413-4.2 4.2-4.2s4.2 1.413 4.2 4.2v1.067c0 0.547-0.453 1-1 1z"></path>
<path d="M26.667 30.334h-5.333c-2.667 0-3.667-1-3.667-3.667v-1.067c0-2.667 1-3.667 3.667-3.667h5.333c2.667 0 3.667 1 3.667 3.667v1.067c0 2.667-1 3.667-3.667 3.667zM21.333 23.934c-1.587 0-1.667 0.080-1.667 1.667v1.067c0 1.573 0.093 1.667 1.667 1.667h5.333c1.573 0 1.667-0.093 1.667-1.667v-1.067c0-1.587-0.080-1.667-1.667-1.667h-5.333z"></path>
</svg>
