<!-- Generated by IcoMoon.io -->
<svg version="1.1" xmlns="http://www.w3.org/2000/svg" width="32" height="32" viewBox="0 0 32 32">
<title>grid-eraser</title>
<path d="M13.333 30.333h-1.333c-7.24 0-10.333-3.093-10.333-10.333v-8c0-7.24 3.093-10.333 10.333-10.333h8c7.24 0 10.333 3.093 10.333 10.333v2.667c0 0.547-0.453 1-1 1s-1-0.453-1-1v-2.667c0-6.147-2.187-8.333-8.333-8.333h-8c-6.147 0-8.333 2.187-8.333 8.333v8c0 6.147 2.187 8.333 8.333 8.333h1.333c0.547 0 1 0.453 1 1s-0.453 1-1 1z"></path>
<path d="M29.335 12.333h-26.627c-0.547 0-1-0.453-1-1s0.453-1 1-1h26.627c0.547 0 1 0.453 1 1s-0.453 1-1 1z"></path>
<path d="M16.002 21.667h-13.293c-0.547 0-1-0.453-1-1s0.453-1 1-1h13.293c0.547 0 1 0.453 1 1s-0.453 1-1 1z"></path>
<path d="M11.346 30.32c-0.547 0-1-0.453-1-1v-26.627c0-0.547 0.453-1 1-1s1 0.453 1 1v26.627c0 0.547-0.44 1-1 1z"></path>
<path d="M20.68 16.987c-0.547 0-1-0.453-1-1v-13.293c0-0.547 0.453-1 1-1s1 0.453 1 1v13.293c0 0.547-0.44 1-1 1z"></path>
<path d="M21.266 30.333c-0.72 0-1.427-0.267-1.987-0.813l-2.12-2.133c-1.080-1.080-1.080-2.853 0-3.96l2.547-2.533c0.387-0.387 1.027-0.387 1.413 0l4.667 4.667c0.187 0.187 0.293 0.44 0.293 0.707s-0.107 0.52-0.293 0.707l-2.533 2.533c-0.56 0.547-1.267 0.827-1.987 0.827zM20.399 23.027l-1.827 1.827c-0.307 0.307-0.307 0.827 0 1.133l2.107 2.12c0.307 0.307 0.827 0.307 1.133 0l1.84-1.827-3.253-3.253z"></path>
<path d="M25.067 27.266c-0.267 0-0.52-0.107-0.707-0.293l-4.667-4.667c-0.387-0.387-0.387-1.027 0-1.413l3.747-3.76c1.093-1.093 2.88-1.093 3.973 0l2.107 2.12c0.52 0.52 0.813 1.227 0.813 1.987s-0.293 1.453-0.813 1.987l-3.733 3.747c-0.2 0.2-0.453 0.293-0.72 0.293zM21.827 21.613l3.253 3.253 3.027-3.040c0.147-0.147 0.227-0.347 0.227-0.573 0-0.213-0.080-0.427-0.227-0.573l-2.107-2.12c-0.307-0.307-0.827-0.307-1.133 0l-3.040 3.053z"></path>
</svg>
