<!-- Generated by IcoMoon.io -->
<svg version="1.1" xmlns="http://www.w3.org/2000/svg" width="32" height="32" viewBox="0 0 32 32">
<title>happyemoji</title>
<path d="M15.961 30.333c-7.893 0-14.333-6.427-14.333-14.333s6.44-14.333 14.333-14.333c7.893 0 14.333 6.427 14.333 14.333s-6.427 14.333-14.333 14.333zM15.961 3.667c-6.8 0-12.333 5.533-12.333 12.333s5.533 12.333 12.333 12.333c6.8 0 12.333-5.533 12.333-12.333s-5.533-12.333-12.333-12.333z"></path>
<path d="M16 25.667c-2.867 0-5.56-1.4-7.2-3.76-0.32-0.453-0.2-1.080 0.253-1.387 0.453-0.32 1.080-0.2 1.387 0.253 1.267 1.813 3.347 2.907 5.56 2.907s4.293-1.080 5.56-2.907c0.32-0.453 0.933-0.56 1.387-0.253 0.453 0.32 0.56 0.933 0.253 1.387-1.64 2.36-4.333 3.76-7.2 3.76z"></path>
</svg>
