<!-- Generated by IcoMoon.io -->
<svg version="1.1" xmlns="http://www.w3.org/2000/svg" width="32" height="32" viewBox="0 0 32 32">
<title>hashtag</title>
<path d="M10.666 29c-0.040 0-0.080 0-0.107 0-0.547-0.067-0.947-0.56-0.88-1.107l2.667-24c0.067-0.547 0.56-0.933 1.107-0.88 0.547 0.067 0.947 0.56 0.88 1.107l-2.667 24c-0.067 0.507-0.493 0.88-1 0.88z"></path>
<path d="M18.666 29c-0.040 0-0.080 0-0.107 0-0.547-0.067-0.947-0.56-0.88-1.107l2.667-24c0.067-0.547 0.547-0.933 1.107-0.88 0.547 0.067 0.947 0.56 0.88 1.107l-2.667 24c-0.067 0.507-0.493 0.88-1 0.88z"></path>
<path d="M28.667 13h-24c-0.547 0-1-0.453-1-1s0.453-1 1-1h24c0.547 0 1 0.453 1 1s-0.453 1-1 1z"></path>
<path d="M27.333 21h-24c-0.547 0-1-0.453-1-1s0.453-1 1-1h24c0.547 0 1 0.453 1 1s-0.453 1-1 1z"></path>
</svg>
