<!-- Generated by IcoMoon.io -->
<svg version="1.1" xmlns="http://www.w3.org/2000/svg" width="32" height="32" viewBox="0 0 32 32">
<title>hashtag-1</title>
<path d="M20 30.333h-8c-7.24 0-10.333-3.093-10.333-10.333v-8c0-7.24 3.093-10.333 10.333-10.333h8c7.24 0 10.333 3.093 10.333 10.333v8c0 7.24-3.093 10.333-10.333 10.333zM12 3.667c-6.147 0-8.333 2.187-8.333 8.333v8c0 6.147 2.187 8.333 8.333 8.333h8c6.147 0 8.333-2.187 8.333-8.333v-8c0-6.147-2.187-8.333-8.333-8.333h-8z"></path>
<path d="M18.667 23.667h-5.333c-2.76 0-5-2.24-5-5v-5.333c0-2.76 2.24-5 5-5h5.333c2.76 0 5 2.24 5 5v5.333c0 2.76-2.24 5-5 5zM13.333 10.333c-1.653 0-3 1.347-3 3v5.333c0 1.653 1.347 3 3 3h5.333c1.653 0 3-1.347 3-3v-5.333c0-1.653-1.347-3-3-3h-5.333z"></path>
<path d="M16 23.667c-0.547 0-1-0.453-1-1v-13.333c0-0.547 0.453-1 1-1s1 0.453 1 1v13.333c0 0.547-0.453 1-1 1z"></path>
<path d="M22.667 17h-13.333c-0.547 0-1-0.453-1-1s0.453-1 1-1h13.333c0.547 0 1 0.453 1 1s-0.453 1-1 1z"></path>
</svg>
