<!-- Generated by IcoMoon.io -->
<svg version="1.1" xmlns="http://www.w3.org/2000/svg" width="32" height="32" viewBox="0 0 32 32">
<title>hashtag-up</title>
<path d="M20 30.333h-8c-7.24 0-10.333-3.093-10.333-10.333v-8c0-7.24 3.093-10.333 10.333-10.333h8c7.24 0 10.333 3.093 10.333 10.333v5.333c0 0.547-0.453 1-1 1s-1-0.453-1-1v-5.333c0-6.147-2.187-8.333-8.333-8.333h-8c-6.147 0-8.333 2.187-8.333 8.333v8c0 6.147 2.187 8.333 8.333 8.333h8c0.547 0 1 0.453 1 1s-0.453 1-1 1z"></path>
<path d="M25.333 30.333c-0.547 0-1-0.453-1-1v-5.587l-0.96 0.96c-0.387 0.387-1.027 0.387-1.413 0s-0.387-1.027 0-1.413l2.667-2.667c0.28-0.28 0.72-0.373 1.093-0.213s0.613 0.52 0.613 0.92v8c0 0.547-0.453 1-1 1z"></path>
<path d="M27.999 25c-0.253 0-0.507-0.093-0.707-0.293l-2.667-2.667c-0.387-0.387-0.387-1.027 0-1.413s1.027-0.387 1.413 0l2.667 2.667c0.387 0.387 0.387 1.027 0 1.413-0.2 0.2-0.453 0.293-0.707 0.293z"></path>
<path d="M11.866 21.987c-0.040 0-0.080 0-0.107 0-0.547-0.067-0.947-0.56-0.88-1.107l1.387-12.64c0.067-0.547 0.56-0.947 1.107-0.88s0.947 0.56 0.88 1.107l-1.4 12.627c-0.053 0.507-0.493 0.893-0.987 0.893z"></path>
<path d="M16.067 21.987c-0.040 0-0.080 0-0.107 0-0.547-0.067-0.947-0.56-0.88-1.107l1.4-12.627c0.067-0.547 0.56-0.947 1.107-0.88s0.947 0.56 0.88 1.107l-1.4 12.627c-0.053 0.493-0.493 0.88-1 0.88z"></path>
<path d="M21.332 13.56h-12.627c-0.547 0-1-0.453-1-1s0.453-1 1-1h12.627c0.547 0 1 0.453 1 1s-0.453 1-1 1z"></path>
<path d="M20.627 17.773h-12.627c-0.547 0-1-0.453-1-1s0.453-1 1-1h12.627c0.547 0 1 0.453 1 1s-0.44 1-1 1z"></path>
</svg>
