<!-- Generated by IcoMoon.io -->
<svg version="1.1" xmlns="http://www.w3.org/2000/svg" width="32" height="32" viewBox="0 0 32 32">
<title>headphones</title>
<path d="M11.333 17c-0.547 0-1-0.453-1-1v-6.373c0-0.547 0.453-1 1-1s1 0.453 1 1v6.373c0 0.547-0.453 1-1 1z"></path>
<path d="M11.333 30.333c-0.547 0-1-0.453-1-1v-4c0-0.547 0.453-1 1-1s1 0.453 1 1v4c0 0.547-0.453 1-1 1z"></path>
<path d="M20.667 30.333c-0.547 0-1-0.453-1-1v-19.707c0-0.547 0.453-1 1-1s1 0.453 1 1v19.707c0 0.547-0.453 1-1 1z"></path>
<path d="M11.066 10.467h-3c-0.387 0-0.72-0.213-0.893-0.56s-0.133-0.747 0.093-1.053c0.253-0.333 0.4-0.76 0.4-1.2v-1.2c0-0.427-0.147-0.853-0.4-1.2-0.227-0.307-0.267-0.707-0.093-1.053 0.173-0.333 0.52-0.56 0.893-0.56h3c1.88 0 3.4 1.52 3.4 3.4 0 0.92-0.36 1.773-1.013 2.413-0.613 0.653-1.467 1.013-2.387 1.013zM9.586 8.467h1.48c0.373 0 0.72-0.147 0.973-0.4 0.28-0.267 0.427-0.613 0.427-1 0-0.773-0.627-1.4-1.4-1.4h-1.48c0.053 0.267 0.080 0.533 0.080 0.8v1.2c0 0.267-0.027 0.533-0.080 0.8z"></path>
<path d="M5.666 11.667c-0.88 0-2.053-0.28-3.28-1.373-0.413-0.373-0.707-1.040-0.707-1.627v-3.12c0-0.52 0.24-1.133 0.587-1.493 1.24-1.293 2.52-1.573 3.373-1.587 0.013 0 0.027 0 0.040 0 1.053 0 2.093 0.427 2.827 1.173 0.133 0.133 0.267 0.293 0.387 0.453 0.493 0.653 0.773 1.507 0.773 2.373v1.2c0 0.867-0.28 1.72-0.8 2.4-0.667 0.893-1.693 1.467-2.8 1.573-0.12 0.013-0.267 0.027-0.4 0.027zM5.666 4.467c-0.013 0-0.013 0-0.027 0-0.68 0.013-1.347 0.347-1.947 0.973 0 0-0.027 0.093-0.027 0.133v3.107c0 0.027 0.040 0.12 0.067 0.16 0.68 0.6 1.427 0.907 2.133 0.827 0.56-0.053 1.053-0.333 1.4-0.787 0.253-0.333 0.4-0.76 0.4-1.2v-1.2c0-0.427-0.147-0.853-0.4-1.2-0.067-0.107-0.133-0.16-0.187-0.227-0.373-0.373-0.88-0.587-1.413-0.587z"></path>
<path d="M23.934 10.467h-3c-0.92 0-1.773-0.36-2.413-1.013-0.627-0.613-0.987-1.467-0.987-2.387 0-1.88 1.52-3.4 3.4-3.4h3c0.373 0 0.72 0.213 0.893 0.56 0.173 0.333 0.133 0.747-0.093 1.053-0.253 0.333-0.4 0.76-0.4 1.2v1.2c0 0.44 0.147 0.853 0.4 1.2 0.227 0.307 0.267 0.707 0.093 1.053-0.16 0.32-0.507 0.533-0.893 0.533zM20.934 5.667c-0.773 0-1.4 0.627-1.4 1.4 0 0.373 0.147 0.72 0.4 0.973 0.267 0.28 0.613 0.427 1 0.427h1.48c-0.053-0.267-0.080-0.533-0.080-0.8v-1.2c0-0.267 0.027-0.533 0.080-0.8h-1.48z"></path>
<path d="M26.334 11.666c-0.147 0-0.28-0.013-0.413-0.013-1.107-0.107-2.12-0.68-2.8-1.573-0.52-0.68-0.8-1.533-0.8-2.4v-1.2c0-0.867 0.28-1.72 0.8-2.4 0.093-0.133 0.227-0.293 0.36-0.427 0.747-0.747 1.773-1.173 2.827-1.173 0.013 0 0.027 0 0.040 0 0.853 0.013 2.133 0.293 3.373 1.587 0.347 0.36 0.587 0.973 0.587 1.493v3.12c0 0.587-0.293 1.253-0.707 1.613-1.213 1.093-2.387 1.373-3.267 1.373zM26.334 4.466c-0.533 0-1.053 0.213-1.413 0.587-0.053 0.053-0.107 0.12-0.16 0.187-0.28 0.373-0.427 0.8-0.427 1.227v1.2c0 0.44 0.147 0.853 0.4 1.2 0.347 0.453 0.84 0.733 1.4 0.8 0.707 0.080 1.453-0.227 2.173-0.853 0 0 0.027-0.093 0.040-0.133v-3.107c0-0.027-0.040-0.12-0.053-0.147-0.573-0.6-1.24-0.933-1.92-0.933-0.027-0.027-0.027-0.027-0.040-0.027z"></path>
<path d="M11.333 26.333c-1.653 0-3-1.347-3-3v-5.333c0-1.653 1.347-3 3-3s3 1.347 3 3v5.333c0 1.653-1.347 3-3 3zM11.333 17c-0.547 0-1 0.453-1 1v5.333c0 0.547 0.453 1 1 1s1-0.453 1-1v-5.333c0-0.547-0.453-1-1-1z"></path>
</svg>
