<!-- Generated by IcoMoon.io -->
<svg version="1.1" xmlns="http://www.w3.org/2000/svg" width="32" height="32" viewBox="0 0 32 32">
<title>headphone</title>
<path d="M7.426 30.267c-3.12 0-5.76-2.64-5.76-5.76v-8.213c-0.067-3.893 1.373-7.56 4.067-10.307 2.693-2.733 6.307-4.253 10.2-4.253 7.947 0 14.4 6.467 14.4 14.4v8.213c0 3.173-2.587 5.76-5.76 5.76-3.12 0-5.76-2.64-5.76-5.76v-3.747c0-1.933 1.52-3.453 3.453-3.453s3.453 1.52 3.453 3.453v4.040c0 0.547-0.453 1-1 1s-1-0.453-1-1v-4.040c0-0.907-0.733-1.453-1.453-1.453-0.907 0-1.453 0.733-1.453 1.453v3.747c0 2.040 1.72 3.76 3.76 3.76s3.76-1.72 3.76-3.76v-8.213c0-6.84-5.56-12.4-12.4-12.4-3.347 0-6.453 1.293-8.773 3.653s-3.56 5.52-3.493 8.88v8.24c0 2.040 1.72 3.76 3.76 3.76s3.76-1.72 3.76-3.76v-3.747c0-0.907-0.733-1.453-1.453-1.453-0.907 0-1.453 0.733-1.453 1.453v3.893c0 0.547-0.453 1-1 1s-1-0.453-1-1v-3.893c0-1.933 1.52-3.453 3.453-3.453s3.453 1.52 3.453 3.453v3.747c0 3.12-2.64 5.76-5.76 5.76z"></path>
</svg>
