<!-- Generated by IcoMoon.io -->
<svg version="1.1" xmlns="http://www.w3.org/2000/svg" width="32" height="32" viewBox="0 0 32 32">
<title>health</title>
<path d="M19.96 30.333h-8c-7.24 0-10.333-3.093-10.333-10.333v-8c0-7.24 3.093-10.333 10.333-10.333h8c7.24 0 10.333 3.093 10.333 10.333v8c0 7.24-3.080 10.333-10.333 10.333zM11.96 3.667c-6.147 0-8.333 2.187-8.333 8.333v8c0 6.147 2.187 8.333 8.333 8.333h8c6.147 0 8.333-2.187 8.333-8.333v-8c0-6.147-2.187-8.333-8.333-8.333h-8z"></path>
<path d="M15.267 24.080c-0.32 0-1.093-0.12-1.547-1.28l-1.52-3.84c-0.213-0.547-0.973-1.053-1.547-1.053l-8 0.027c-0.547 0-1-0.44-1-1 0-0.547 0.44-1 1-1l8.013-0.027c1.4 0 2.893 1.013 3.413 2.32l1.213 3.067 2.747-6.96c0.413-1.040 1.147-1.187 1.453-1.213 0.307-0.013 1.053 0.053 1.573 1.040l1.387 2.627c0.24 0.453 0.96 0.893 1.48 0.893h5.413c0.547 0 1 0.453 1 1s-0.453 1-1 1h-5.413c-1.267 0-2.653-0.84-3.24-1.96l-1.040-1.973-2.8 7.053c-0.493 1.147-1.28 1.28-1.587 1.28z"></path>
</svg>
