<!-- Generated by IcoMoon.io -->
<svg version="1.1" xmlns="http://www.w3.org/2000/svg" width="32" height="32" viewBox="0 0 32 32">
<title>heart-circle</title>
<path d="M16 30.333c-7.907 0-14.333-6.427-14.333-14.333s6.427-14.333 14.333-14.333c7.907 0 14.333 6.427 14.333 14.333s-6.427 14.333-14.333 14.333zM16 3.667c-6.8 0-12.333 5.533-12.333 12.333s5.533 12.333 12.333 12.333c6.8 0 12.333-5.533 12.333-12.333s-5.533-12.333-12.333-12.333z"></path>
<path d="M15.999 24.333c-0.28 0-0.547-0.040-0.773-0.12-2.867-0.973-7.413-4.467-7.413-9.667 0-2.773 2.24-5.027 5-5.027 1.2 0 2.307 0.413 3.2 1.16 0.893-0.747 2.013-1.16 3.187-1.16 2.76 0 5 2.253 5 5.027 0 5.187-4.547 8.68-7.427 9.667-0.227 0.080-0.507 0.12-0.773 0.12zM12.799 11.534c-1.653 0-3 1.36-3 3.027 0 4.653 4.493 7.24 6.067 7.773 0.053 0.013 0.187 0.013 0.24 0 1.573-0.533 6.067-3.12 6.067-7.773 0-1.667-1.347-3.027-3-3.027-0.933 0-1.827 0.453-2.387 1.213-0.373 0.507-1.227 0.507-1.6 0-0.56-0.773-1.427-1.213-2.387-1.213z"></path>
</svg>
