<!-- Generated by IcoMoon.io -->
<svg version="1.1" xmlns="http://www.w3.org/2000/svg" width="32" height="32" viewBox="0 0 32 32">
<title>heart-edit</title>
<path d="M16 28.867c-0.293 0-0.733-0.027-1.147-0.173-5.093-1.747-13.187-7.933-13.187-17.107 0-4.667 3.773-8.453 8.413-8.453 2.253 0 4.36 0.88 5.92 2.453 1.56-1.573 3.667-2.453 5.92-2.453 4.64 0 8.413 3.787 8.413 8.453 0 1.613-0.24 3.2-0.72 4.72-0.16 0.52-0.733 0.827-1.253 0.653-0.533-0.16-0.813-0.733-0.653-1.253 0.413-1.32 0.627-2.707 0.627-4.107 0-3.56-2.88-6.453-6.413-6.453-2.027 0-3.907 0.947-5.12 2.573-0.373 0.507-1.227 0.507-1.6 0-1.227-1.64-3.093-2.573-5.12-2.573-3.533 0-6.413 2.893-6.413 6.453 0 9.12 8.76 14.173 11.84 15.227 0.080 0.027 0.267 0.067 0.493 0.067 0.547 0 1 0.453 1 1s-0.453 0.973-1 0.973z"></path>
<path d="M21.093 30.333c-0.507 0-0.987-0.187-1.333-0.533-0.413-0.413-0.6-1.013-0.507-1.64l0.253-1.8c0.067-0.467 0.347-1.027 0.68-1.36l4.72-4.72c0.64-0.64 1.267-0.973 1.947-1.040 0.84-0.080 1.653 0.267 2.427 1.040s1.12 1.587 1.040 2.427c-0.067 0.667-0.413 1.307-1.040 1.947l-4.72 4.72c-0.333 0.333-0.88 0.613-1.347 0.68l-1.8 0.253c-0.12 0.013-0.213 0.027-0.32 0.027zM27.079 21.227c-0.013 0-0.027 0-0.040 0-0.187 0.013-0.44 0.173-0.72 0.467l-4.72 4.72c-0.040 0.040-0.107 0.173-0.107 0.227l-0.24 1.667 1.667-0.24c0.053-0.013 0.187-0.080 0.227-0.12l4.72-4.72c0.28-0.28 0.453-0.533 0.467-0.72 0.027-0.267-0.24-0.587-0.467-0.813-0.213-0.213-0.52-0.467-0.787-0.467z"></path>
<path d="M27.894 25.627c-0.093 0-0.187-0.013-0.267-0.040-1.76-0.493-3.16-1.893-3.653-3.653-0.147-0.533 0.16-1.080 0.693-1.227s1.080 0.16 1.24 0.693c0.307 1.093 1.173 1.96 2.267 2.267 0.533 0.147 0.84 0.707 0.693 1.227-0.133 0.44-0.533 0.733-0.973 0.733z"></path>
</svg>
