<!-- Generated by IcoMoon.io -->
<svg version="1.1" xmlns="http://www.w3.org/2000/svg" width="32" height="32" viewBox="0 0 32 32">
<title>heart</title>
<path d="M16 28.867c-0.413 0-0.813-0.053-1.147-0.173-5.093-1.747-13.187-7.947-13.187-17.107 0-4.667 3.773-8.453 8.413-8.453 2.253 0 4.36 0.88 5.92 2.453 1.56-1.573 3.667-2.453 5.92-2.453 4.64 0 8.413 3.8 8.413 8.453 0 9.173-8.093 15.36-13.187 17.107-0.333 0.12-0.733 0.173-1.147 0.173zM10.080 5.133c-3.533 0-6.413 2.893-6.413 6.453 0 9.107 8.76 14.173 11.84 15.227 0.24 0.080 0.76 0.080 1 0 3.067-1.053 11.84-6.107 11.84-15.227 0-3.56-2.88-6.453-6.413-6.453-2.027 0-3.907 0.947-5.12 2.587-0.373 0.507-1.227 0.507-1.6 0-1.24-1.653-3.107-2.587-5.133-2.587z"></path>
</svg>
