<!-- Generated by IcoMoon.io -->
<svg version="1.1" xmlns="http://www.w3.org/2000/svg" width="32" height="32" viewBox="0 0 32 32">
<title>heart-slash</title>
<path d="M8.147 24.333c-0.24 0-0.493-0.093-0.68-0.267-2.64-2.48-5.8-6.653-5.8-12.48 0-4.667 3.773-8.453 8.413-8.453 2.253 0 4.36 0.88 5.92 2.453 1.56-1.573 3.667-2.453 5.92-2.453 1.68 0 3.307 0.507 4.707 1.44 0.453 0.307 0.573 0.933 0.267 1.387s-0.933 0.573-1.387 0.267c-1.053-0.72-2.293-1.107-3.573-1.107-2.027 0-3.907 0.947-5.12 2.587-0.373 0.507-1.227 0.507-1.6 0-1.227-1.64-3.093-2.587-5.12-2.587-3.533 0-6.413 2.893-6.413 6.453 0 5.12 2.813 8.813 5.173 11.027 0.4 0.373 0.427 1.013 0.053 1.413-0.227 0.213-0.493 0.32-0.76 0.32z"></path>
<path d="M15.999 28.867c-0.413 0-0.813-0.053-1.147-0.173-1-0.347-2.187-0.907-3.333-1.587-0.48-0.28-0.627-0.893-0.347-1.373 0.28-0.467 0.893-0.627 1.373-0.347 1.040 0.613 2.093 1.12 2.96 1.413 0.24 0.080 0.76 0.080 1 0 3.067-1.053 11.84-6.107 11.84-15.227 0-0.667-0.107-1.32-0.293-1.947-0.16-0.533 0.12-1.093 0.653-1.253s1.093 0.133 1.253 0.653c0.253 0.827 0.387 1.68 0.387 2.547 0 9.173-8.093 15.36-13.187 17.107-0.347 0.133-0.747 0.187-1.16 0.187z"></path>
<path d="M2.666 30.333c-0.253 0-0.507-0.093-0.707-0.293-0.387-0.387-0.387-1.027 0-1.413l26.667-26.667c0.387-0.387 1.027-0.387 1.413 0s0.387 1.027 0 1.413l-26.667 26.667c-0.2 0.2-0.453 0.293-0.707 0.293z"></path>
</svg>
