<!-- Generated by IcoMoon.io -->
<svg version="1.1" xmlns="http://www.w3.org/2000/svg" width="32" height="32" viewBox="0 0 32 32">
<title>heart-add</title>
<path d="M22.934 30.333c-4.080 0-7.4-3.32-7.4-7.4s3.32-7.4 7.4-7.4c4.080 0 7.4 3.32 7.4 7.4s-3.32 7.4-7.4 7.4zM22.934 17.533c-2.973 0-5.4 2.427-5.4 5.4s2.427 5.4 5.4 5.4c2.973 0 5.4-2.427 5.4-5.4s-2.427-5.4-5.4-5.4z"></path>
<path d="M25.321 24.013h-4.787c-0.547 0-1-0.453-1-1s0.453-1 1-1h4.787c0.547 0 1 0.453 1 1s-0.44 1-1 1z"></path>
<path d="M22.932 26.467c-0.547 0-1-0.453-1-1v-4.787c0-0.547 0.453-1 1-1s1 0.453 1 1v4.787c0 0.547-0.453 1-1 1z"></path>
<path d="M16 28.867c-0.413 0-0.827-0.053-1.16-0.173-3.413-1.16-13.173-6.813-13.173-17.107 0-4.667 3.773-8.453 8.413-8.453 2.227 0 4.36 0.893 5.92 2.453 1.56-1.56 3.707-2.453 5.92-2.453 4.64 0 8.413 3.787 8.413 8.453 0 2.6-0.627 5.093-1.867 7.427-0.147 0.28-0.427 0.48-0.747 0.52-0.333 0.040-0.64-0.067-0.867-0.307-1.040-1.093-2.44-1.707-3.933-1.707-2.973 0-5.4 2.427-5.4 5.4 0 1.32 0.493 2.6 1.387 3.6 0.213 0.24 0.293 0.56 0.227 0.867s-0.28 0.573-0.56 0.707c-0.533 0.24-1.013 0.44-1.453 0.587-0.307 0.133-0.707 0.187-1.12 0.187zM10.080 5.133c-3.533 0-6.413 2.893-6.413 6.453 0 9.12 8.76 14.16 11.827 15.213 0.24 0.093 0.76 0.080 1 0 0.040-0.013 0.080-0.027 0.12-0.040-0.693-1.147-1.080-2.467-1.080-3.827 0-4.080 3.32-7.4 7.4-7.4 1.573 0 3.067 0.493 4.32 1.387 0.72-1.707 1.080-3.493 1.080-5.333 0-3.56-2.88-6.453-6.413-6.453-2 0-3.92 0.96-5.12 2.573-0.373 0.507-1.227 0.507-1.6 0-1.2-1.613-3.12-2.573-5.12-2.573z"></path>
</svg>
