<!-- Generated by IcoMoon.io -->
<svg version="1.1" xmlns="http://www.w3.org/2000/svg" width="32" height="32" viewBox="0 0 32 32">
<title>heart-search</title>
<path d="M16 28.867c-0.293 0-0.733-0.027-1.147-0.173-5.093-1.747-13.187-7.933-13.187-17.107 0-4.667 3.773-8.453 8.413-8.453 2.253 0 4.36 0.88 5.92 2.453 1.56-1.573 3.667-2.453 5.92-2.453 4.64 0 8.413 3.787 8.413 8.453 0 1.613-0.24 3.2-0.72 4.72-0.16 0.52-0.733 0.827-1.253 0.653-0.533-0.16-0.813-0.733-0.653-1.253 0.413-1.32 0.627-2.707 0.627-4.107 0-3.56-2.88-6.453-6.413-6.453-2.027 0-3.907 0.947-5.12 2.573-0.373 0.507-1.227 0.507-1.6 0-1.227-1.64-3.093-2.573-5.12-2.573-3.533 0-6.413 2.893-6.413 6.453 0 9.12 8.76 14.173 11.84 15.227 0.080 0.027 0.267 0.067 0.493 0.067 0.547 0 1 0.453 1 1s-0.453 0.973-1 0.973z"></path>
<path d="M23.652 29c-2.907 0-5.267-2.36-5.267-5.267s2.36-5.267 5.267-5.267c2.907 0 5.267 2.36 5.267 5.267s-2.36 5.267-5.267 5.267zM23.652 20.467c-1.8 0-3.267 1.467-3.267 3.267s1.467 3.267 3.267 3.267c1.8 0 3.267-1.467 3.267-3.267s-1.467-3.267-3.267-3.267z"></path>
<path d="M28.721 29.8c-0.253 0-0.507-0.093-0.707-0.293l-1.333-1.333c-0.387-0.387-0.387-1.027 0-1.413s1.027-0.387 1.413 0l1.333 1.333c0.387 0.387 0.387 1.027 0 1.413-0.2 0.187-0.453 0.293-0.707 0.293z"></path>
</svg>
