<!-- Generated by IcoMoon.io -->
<svg version="1.1" xmlns="http://www.w3.org/2000/svg" width="32" height="32" viewBox="0 0 32 32">
<title>hierarchy-square-2</title>
<path d="M10.401 20.2c-0.547 0-1-0.453-1-1v-5.6c0-0.547 0.453-1 1-1s1 0.453 1 1v5.6c0 0.547-0.453 1-1 1z"></path>
<path d="M10.6 14.2c-1.987 0-3.6-1.613-3.6-3.6s1.613-3.6 3.6-3.6c1.987 0 3.6 1.613 3.6 3.6s-1.613 3.6-3.6 3.6zM10.6 9c-0.88 0-1.6 0.72-1.6 1.6s0.72 1.6 1.6 1.6c0.88 0 1.6-0.72 1.6-1.6s-0.72-1.6-1.6-1.6z"></path>
<path d="M10.4 25c-1.88 0-3.4-1.52-3.4-3.4s1.52-3.4 3.4-3.4c1.88 0 3.4 1.52 3.4 3.4s-1.52 3.4-3.4 3.4zM10.4 20.2c-0.773 0-1.4 0.627-1.4 1.4s0.627 1.4 1.4 1.4c0.773 0 1.4-0.627 1.4-1.4s-0.627-1.4-1.4-1.4z"></path>
<path d="M21.601 25c-1.88 0-3.4-1.52-3.4-3.4s1.52-3.4 3.4-3.4c1.88 0 3.4 1.52 3.4 3.4s-1.52 3.4-3.4 3.4zM21.601 20.2c-0.773 0-1.4 0.627-1.4 1.4s0.627 1.4 1.4 1.4c0.773 0 1.4-0.627 1.4-1.4s-0.627-1.4-1.4-1.4z"></path>
<path d="M20.933 20.227c-0.413 0-0.8-0.253-0.947-0.667-0.533-1.52-1.96-2.533-3.573-2.533h-0.013l-2.76 0.013c-1.933 0-3.627-1.307-4.107-3.173-0.133-0.533 0.187-1.080 0.72-1.213 0.52-0.133 1.080 0.187 1.213 0.72 0.253 0.987 1.147 1.68 2.173 1.68 0 0 0 0 0.013 0l2.747-0.013c0.013 0 0.013 0 0.027 0 2.453 0 4.653 1.56 5.467 3.88 0.187 0.52-0.093 1.093-0.613 1.28-0.12 0.013-0.24 0.027-0.347 0.027z"></path>
<path d="M20 30.333h-8c-7.24 0-10.333-3.093-10.333-10.333v-8c0-7.24 3.093-10.333 10.333-10.333h8c7.24 0 10.333 3.093 10.333 10.333v8c0 7.24-3.093 10.333-10.333 10.333zM12 3.667c-6.147 0-8.333 2.187-8.333 8.333v8c0 6.147 2.187 8.333 8.333 8.333h8c6.147 0 8.333-2.187 8.333-8.333v-8c0-6.147-2.187-8.333-8.333-8.333h-8z"></path>
</svg>
