<!-- Generated by IcoMoon.io -->
<svg version="1.1" xmlns="http://www.w3.org/2000/svg" width="32" height="32" viewBox="0 0 32 32">
<title>hierarchy-square</title>
<path d="M21.934 20.2c-0.547 0-1-0.453-1-1v-7.867c0-0.187-0.147-0.333-0.333-0.333h-3.867c-0.547 0-1-0.453-1-1s0.453-1 1-1h3.867c1.28 0 2.333 1.053 2.333 2.333v7.867c0 0.547-0.453 1-1 1z"></path>
<path d="M18.733 13c-0.227 0-0.453-0.080-0.64-0.227l-2.4-2c-0.227-0.187-0.36-0.467-0.36-0.773s0.133-0.573 0.36-0.773l2.4-2c0.427-0.347 1.053-0.293 1.413 0.133s0.293 1.053-0.133 1.413l-1.48 1.227 1.48 1.227c0.427 0.36 0.48 0.987 0.133 1.413-0.2 0.24-0.493 0.36-0.773 0.36z"></path>
<path d="M10.068 20.2c-0.547 0-1-0.453-1-1v-5.6c0-0.547 0.453-1 1-1s1 0.453 1 1v5.6c0 0.547-0.453 1-1 1z"></path>
<path d="M10.267 14.2c-1.987 0-3.6-1.613-3.6-3.6s1.613-3.6 3.6-3.6c1.987 0 3.6 1.613 3.6 3.6s-1.613 3.6-3.6 3.6zM10.267 9c-0.88 0-1.6 0.72-1.6 1.6s0.72 1.6 1.6 1.6c0.88 0 1.6-0.72 1.6-1.6s-0.72-1.6-1.6-1.6z"></path>
<path d="M10.067 25c-1.88 0-3.4-1.52-3.4-3.4s1.52-3.4 3.4-3.4c1.88 0 3.4 1.52 3.4 3.4s-1.52 3.4-3.4 3.4zM10.067 20.2c-0.773 0-1.4 0.627-1.4 1.4s0.627 1.4 1.4 1.4c0.773 0 1.4-0.627 1.4-1.4s-0.627-1.4-1.4-1.4z"></path>
<path d="M21.934 25c-1.88 0-3.4-1.52-3.4-3.4s1.52-3.4 3.4-3.4c1.88 0 3.4 1.52 3.4 3.4s-1.52 3.4-3.4 3.4zM21.934 20.2c-0.773 0-1.4 0.627-1.4 1.4s0.627 1.4 1.4 1.4c0.773 0 1.4-0.627 1.4-1.4s-0.627-1.4-1.4-1.4z"></path>
<path d="M20 30.333h-8c-7.24 0-10.333-3.093-10.333-10.333v-8c0-7.24 3.093-10.333 10.333-10.333h8c7.24 0 10.333 3.093 10.333 10.333v8c0 7.24-3.093 10.333-10.333 10.333zM12 3.667c-6.147 0-8.333 2.187-8.333 8.333v8c0 6.147 2.187 8.333 8.333 8.333h8c6.147 0 8.333-2.187 8.333-8.333v-8c0-6.147-2.187-8.333-8.333-8.333h-8z"></path>
</svg>
