<!-- Generated by IcoMoon.io -->
<svg version="1.1" xmlns="http://www.w3.org/2000/svg" width="32" height="32" viewBox="0 0 32 32">
<title>hierarchy-2</title>
<path d="M6.667 21c-0.547 0-1-0.453-1-1v-9.333c0-0.547 0.453-1 1-1s1 0.453 1 1v9.333c0 0.547-0.453 1-1 1z"></path>
<path d="M7 30.333c-2.947 0-5.333-2.387-5.333-5.333s2.387-5.333 5.333-5.333c2.947 0 5.333 2.387 5.333 5.333s-2.387 5.333-5.333 5.333zM7 21.667c-1.84 0-3.333 1.493-3.333 3.333s1.493 3.333 3.333 3.333c1.84 0 3.333-1.493 3.333-3.333s-1.493-3.333-3.333-3.333z"></path>
<path d="M6.667 11.667c-2.76 0-5-2.24-5-5s2.24-5 5-5c2.76 0 5 2.24 5 5s-2.24 5-5 5zM6.667 3.667c-1.653 0-3 1.347-3 3s1.347 3 3 3c1.653 0 3-1.347 3-3s-1.347-3-3-3z"></path>
<path d="M25.333 11.667c-2.76 0-5-2.24-5-5s2.24-5 5-5c2.76 0 5 2.24 5 5s-2.24 5-5 5zM25.333 3.667c-1.653 0-3 1.347-3 3s1.347 3 3 3c1.653 0 3-1.347 3-3s-1.347-3-3-3z"></path>
<path d="M6.84 21c-0.080 0-0.16-0.013-0.253-0.027-0.533-0.133-0.853-0.68-0.72-1.213 0.733-2.827 3.28-4.8 6.2-4.8 0.013 0 0.013 0 0.027 0l4.573 0.013c0.013 0 0.013 0 0.027 0 2.96 0 5.613-1.88 6.587-4.68 0.187-0.52 0.747-0.8 1.267-0.613s0.8 0.747 0.613 1.267c-1.253 3.613-4.707 5.987-8.507 6.027l-4.587-0.013c-2.013 0-3.76 1.36-4.267 3.307-0.107 0.44-0.52 0.733-0.96 0.733z"></path>
</svg>
