<!-- Generated by IcoMoon.io -->
<svg version="1.1" xmlns="http://www.w3.org/2000/svg" width="32" height="32" viewBox="0 0 32 32">
<title>hierarchy</title>
<path d="M6.667 22.333c-0.547 0-1-0.453-1-1v-9.333c0-0.547 0.453-1 1-1s1 0.453 1 1v9.333c0 0.547-0.453 1-1 1z"></path>
<path d="M7 12.333c-2.947 0-5.333-2.387-5.333-5.333s2.387-5.333 5.333-5.333c2.947 0 5.333 2.387 5.333 5.333s-2.387 5.333-5.333 5.333zM7 3.667c-1.84 0-3.333 1.493-3.333 3.333s1.493 3.333 3.333 3.333c1.84 0 3.333-1.493 3.333-3.333s-1.493-3.333-3.333-3.333z"></path>
<path d="M6.667 30.333c-2.76 0-5-2.24-5-5s2.24-5 5-5c2.76 0 5 2.24 5 5s-2.24 5-5 5zM6.667 22.333c-1.653 0-3 1.347-3 3s1.347 3 3 3c1.653 0 3-1.347 3-3s-1.347-3-3-3z"></path>
<path d="M25.333 30.333c-2.76 0-5-2.24-5-5s2.24-5 5-5c2.76 0 5 2.24 5 5s-2.24 5-5 5zM25.333 22.333c-1.653 0-3 1.347-3 3s1.347 3 3 3c1.653 0 3-1.347 3-3s-1.347-3-3-3z"></path>
<path d="M24.226 22.387c-0.413 0-0.8-0.253-0.947-0.667-0.973-2.8-3.613-4.68-6.587-4.68-0.013 0-0.013 0-0.027 0l-4.573 0.013c-0.013 0-0.013 0-0.027 0-2.92 0-5.467-1.973-6.2-4.8-0.133-0.533 0.187-1.080 0.72-1.213s1.080 0.187 1.213 0.72c0.507 1.947 2.253 3.307 4.267 3.307h0.013l4.573-0.013c0.013 0 0.027 0 0.040 0 3.813 0 7.213 2.413 8.467 6.027 0.187 0.52-0.093 1.093-0.613 1.267-0.107 0.013-0.213 0.040-0.32 0.040z"></path>
</svg>
