<!-- Generated by IcoMoon.io -->
<svg version="1.1" xmlns="http://www.w3.org/2000/svg" width="32" height="32" viewBox="0 0 32 32">
<title>home-1</title>
<path d="M23.467 30.080h-14.933c-2.427 0-4.64-1.867-5.040-4.267l-1.773-10.613c-0.28-1.653 0.52-3.773 1.84-4.827l9.24-7.4c1.787-1.44 4.6-1.427 6.4 0.013l9.24 7.387c1.307 1.053 2.107 3.173 1.84 4.827l-1.773 10.613c-0.4 2.36-2.653 4.267-5.040 4.267zM15.987 3.92c-0.707 0-1.413 0.213-1.933 0.627l-9.24 7.4c-0.76 0.613-1.28 1.973-1.12 2.933l1.773 10.613c0.24 1.4 1.64 2.587 3.067 2.587h14.933c1.427 0 2.827-1.187 3.067-2.6l1.773-10.613c0.16-0.96-0.373-2.333-1.12-2.933l-9.24-7.387c-0.533-0.413-1.24-0.627-1.96-0.627z"></path>
<path d="M16 21.667c-2.387 0-4.333-1.947-4.333-4.333s1.947-4.333 4.333-4.333c2.387 0 4.333 1.947 4.333 4.333s-1.947 4.333-4.333 4.333zM16 15c-1.28 0-2.333 1.053-2.333 2.333s1.053 2.333 2.333 2.333c1.28 0 2.333-1.053 2.333-2.333s-1.053-2.333-2.333-2.333z"></path>
</svg>
