<!-- Generated by IcoMoon.io -->
<svg version="1.1" xmlns="http://www.w3.org/2000/svg" width="32" height="32" viewBox="0 0 32 32">
<title>home-wifi</title>
<path d="M23.466 30.080h-14.933c-2.427 0-4.64-1.867-5.040-4.267l-1.773-10.613c-0.28-1.653 0.52-3.773 1.84-4.827l9.24-7.4c1.787-1.44 4.6-1.427 6.4 0.013l9.24 7.387c1.307 1.053 2.107 3.173 1.84 4.827l-1.773 10.613c-0.4 2.36-2.653 4.267-5.040 4.267zM15.986 3.92c-0.707 0-1.413 0.213-1.933 0.627l-9.24 7.4c-0.76 0.613-1.28 1.973-1.12 2.933l1.773 10.613c0.24 1.4 1.64 2.587 3.067 2.587h14.933c1.427 0 2.827-1.187 3.067-2.6l1.773-10.613c0.16-0.96-0.373-2.333-1.12-2.933l-9.24-7.387c-0.533-0.413-1.24-0.627-1.96-0.627z"></path>
<path d="M18.827 20.173c-0.253 0-0.493-0.093-0.693-0.28-1.293-1.24-2.973-1.24-4.28 0-0.4 0.387-1.027 0.373-1.413-0.027s-0.373-1.027 0.027-1.413c2.067-1.987 4.96-1.987 7.040 0 0.4 0.387 0.413 1.013 0.027 1.413-0.173 0.2-0.44 0.307-0.707 0.307z"></path>
<path d="M21.654 17.347c-0.253 0-0.507-0.093-0.693-0.28-0.627-0.613-1.333-1.107-2.080-1.467-1.867-0.893-3.907-0.893-5.76 0-0.747 0.36-1.44 0.853-2.080 1.467-0.387 0.387-1.027 0.387-1.413-0.013s-0.373-1.027 0.013-1.413c0.787-0.773 1.667-1.387 2.613-1.84 2.413-1.16 5.080-1.16 7.48 0 0.947 0.453 1.827 1.067 2.613 1.84 0.4 0.387 0.4 1.013 0.013 1.413-0.187 0.187-0.44 0.293-0.707 0.293z"></path>
<path d="M16.001 23.333c-0.347 0-0.68-0.133-0.947-0.387-0.52-0.52-0.52-1.36 0-1.88s1.373-0.52 1.893 0c0.52 0.52 0.52 1.36 0 1.88-0.267 0.253-0.6 0.387-0.947 0.387z"></path>
</svg>
