<!-- Generated by IcoMoon.io -->
<svg version="1.1" xmlns="http://www.w3.org/2000/svg" width="32" height="32" viewBox="0 0 32 32">
<title>home-hashtag</title>
<path d="M23.72 30.32h-15.44c-3.653 0-6.613-2.973-6.613-6.627v-9.88c0-1.813 1.12-4.093 2.56-5.213l7.187-5.6c2.16-1.68 5.613-1.76 7.853-0.187l8.24 5.773c1.587 1.107 2.827 3.48 2.827 5.413v9.707c0 3.64-2.96 6.613-6.613 6.613zM12.64 4.574l-7.187 5.6c-0.947 0.747-1.787 2.44-1.787 3.64v9.88c0 2.547 2.067 4.627 4.613 4.627h15.44c2.547 0 4.613-2.067 4.613-4.613v-9.707c0-1.28-0.92-3.053-1.973-3.773l-8.24-5.773c-1.52-1.067-4.027-1.013-5.48 0.12z"></path>
<path d="M18 25h-4c-2.76 0-5-2.24-5-5v-4c0-2.76 2.24-5 5-5h4c2.76 0 5 2.24 5 5v4c0 2.76-2.24 5-5 5zM14 13c-1.653 0-3 1.347-3 3v4c0 1.653 1.347 3 3 3h4c1.653 0 3-1.347 3-3v-4c0-1.653-1.347-3-3-3h-4z"></path>
<path d="M16 25c-0.547 0-1-0.453-1-1v-12c0-0.547 0.453-1 1-1s1 0.453 1 1v12c0 0.547-0.453 1-1 1z"></path>
<path d="M22 19h-12c-0.547 0-1-0.453-1-1s0.453-1 1-1h12c0.547 0 1 0.453 1 1s-0.453 1-1 1z"></path>
</svg>
