<!-- Generated by IcoMoon.io -->
<svg version="1.1" xmlns="http://www.w3.org/2000/svg" width="32" height="32" viewBox="0 0 32 32">
<title>home</title>
<path d="M16 25c-0.547 0-1-0.453-1-1v-4c0-0.547 0.453-1 1-1s1 0.453 1 1v4c0 0.547-0.453 1-1 1z"></path>
<path d="M23.468 30.080h-14.933c-2.427 0-4.64-1.867-5.040-4.253l-1.773-10.627c-0.293-1.653 0.52-3.773 1.84-4.827l9.24-7.4c1.787-1.44 4.6-1.427 6.4 0.013l9.24 7.387c1.307 1.053 2.107 3.173 1.84 4.827l-1.773 10.613c-0.4 2.36-2.667 4.267-5.040 4.267zM15.988 3.907c-0.707 0-1.413 0.213-1.933 0.627l-9.24 7.413c-0.747 0.6-1.28 1.987-1.12 2.933l1.773 10.613c0.24 1.4 1.64 2.587 3.067 2.587h14.933c1.427 0 2.827-1.187 3.067-2.6l1.773-10.613c0.147-0.933-0.387-2.347-1.12-2.933l-9.24-7.387c-0.533-0.427-1.253-0.64-1.96-0.64z"></path>
</svg>
