<!-- Generated by IcoMoon.io -->
<svg version="1.1" xmlns="http://www.w3.org/2000/svg" width="32" height="32" viewBox="0 0 32 32">
<title>house</title>
<path d="M29.333 30.333h-26.667c-0.547 0-1-0.453-1-1s0.453-1 1-1h26.667c0.547 0 1 0.453 1 1s-0.453 1-1 1z"></path>
<path d="M4.934 29.333h-2l0.067-16.040c0-1.133 0.52-2.187 1.413-2.88l9.333-7.267c1.32-1.027 3.173-1.027 4.507 0l9.333 7.253c0.88 0.693 1.413 1.773 1.413 2.893v16.040h-2v-16.027c0-0.507-0.24-1-0.64-1.32l-9.333-7.253c-0.6-0.467-1.44-0.467-2.053 0l-9.333 7.267c-0.4 0.307-0.64 0.8-0.64 1.307l-0.067 16.027z"></path>
<path d="M19.333 30.333h-6.667c-0.547 0-1-0.453-1-1v-4.667c0-1.653 1.347-3 3-3h2.667c1.653 0 3 1.347 3 3v4.667c0 0.547-0.453 1-1 1zM13.667 28.333h4.667v-3.667c0-0.547-0.453-1-1-1h-2.667c-0.547 0-1 0.453-1 1v3.667z"></path>
<path d="M12.667 19.333h-2.667c-1.28 0-2.333-1.053-2.333-2.333v-2c0-1.28 1.053-2.333 2.333-2.333h2.667c1.28 0 2.333 1.053 2.333 2.333v2c0 1.28-1.053 2.333-2.333 2.333zM10 14.667c-0.187 0-0.333 0.147-0.333 0.333v2c0 0.187 0.147 0.333 0.333 0.333h2.667c0.187 0 0.333-0.147 0.333-0.333v-2c0-0.187-0.147-0.333-0.333-0.333h-2.667z"></path>
<path d="M22 19.333h-2.667c-1.28 0-2.333-1.053-2.333-2.333v-2c0-1.28 1.053-2.333 2.333-2.333h2.667c1.28 0 2.333 1.053 2.333 2.333v2c0 1.28-1.053 2.333-2.333 2.333zM19.333 14.667c-0.187 0-0.333 0.147-0.333 0.333v2c0 0.187 0.147 0.333 0.333 0.333h2.667c0.187 0 0.333-0.147 0.333-0.333v-2c0-0.187-0.147-0.333-0.333-0.333h-2.667z"></path>
<path d="M25.333 10.333c-0.547 0-1-0.44-1-0.987l-0.027-3.013h-4.867c-0.547 0-1-0.453-1-1s0.453-1 1-1h5.867c0.547 0 1 0.44 1 0.987l0.040 4c-0.013 0.56-0.453 1.013-1.013 1.013 0.013 0 0 0 0 0z"></path>
</svg>
