<!-- Generated by IcoMoon.io -->
<svg version="1.1" xmlns="http://www.w3.org/2000/svg" width="32" height="32" viewBox="0 0 32 32">
<title>icon</title>
<path d="M16.001 30.333c-6.507 0-11.8-5.293-11.8-11.8-0.040-7.64 7.24-14 10.373-16.387 0.84-0.64 2.013-0.64 2.853 0 3.133 2.427 10.413 8.867 10.373 16.4 0 6.493-5.293 11.787-11.8 11.787zM16.001 3.667c-0.067 0-0.147 0.027-0.213 0.080-2.253 1.72-9.613 7.867-9.573 14.787 0 5.413 4.4 9.8 9.8 9.8s9.8-4.387 9.8-9.787c0.040-6.827-7.333-13.053-9.6-14.8-0.080-0.053-0.147-0.080-0.213-0.080z"></path>
</svg>
