<!-- Generated by IcoMoon.io -->
<svg version="1.1" xmlns="http://www.w3.org/2000/svg" width="32" height="32" viewBox="0 0 32 32">
<title>image</title>
<path d="M24.481 30.333h-17.027c-2.027 0-3.88-1.027-4.947-2.76s-1.16-3.84-0.253-5.667l2.293-4.6c0.747-1.493 1.947-2.427 3.293-2.573s2.72 0.52 3.76 1.813l0.293 0.373c0.587 0.72 1.267 1.107 1.933 1.040 0.667-0.053 1.28-0.533 1.733-1.347l2.52-4.547c1.040-1.88 2.427-2.853 3.933-2.787 1.493 0.080 2.773 1.2 3.627 3.173l4.173 9.747c0.773 1.8 0.587 3.853-0.493 5.493-1.067 1.667-2.88 2.64-4.84 2.64zM8.214 16.733c-0.053 0-0.107 0-0.16 0.013-0.667 0.067-1.28 0.6-1.72 1.467l-2.293 4.6c-0.6 1.187-0.533 2.587 0.16 3.72s1.92 1.813 3.253 1.813h17.013c1.307 0 2.467-0.627 3.187-1.72s0.84-2.4 0.32-3.6l-4.173-9.747c-0.507-1.2-1.213-1.933-1.893-1.96-0.627-0.040-1.44 0.627-2.080 1.76l-2.52 4.547c-0.773 1.387-1.987 2.253-3.307 2.373-1.32 0.107-2.667-0.533-3.667-1.787l-0.293-0.373c-0.56-0.733-1.2-1.107-1.827-1.107z"></path>
<path d="M9.294 11.667c-2.747 0-5-2.24-5-5s2.24-5 5-5c2.76 0 5 2.24 5 5s-2.24 5-5 5zM9.294 3.667c-1.653 0-3 1.347-3 3s1.347 3 3 3c1.653 0 3-1.347 3-3s-1.347-3-3-3z"></path>
</svg>
