<!-- Generated by IcoMoon.io -->
<svg version="1.1" xmlns="http://www.w3.org/2000/svg" width="32" height="32" viewBox="0 0 32 32">
<title>import-1</title>
<path d="M20.347 29.667h-8.693c-6.547 0-9.347-2.8-9.347-9.347v-0.173c0-5.92 2.333-8.773 7.56-9.267 0.533-0.040 1.040 0.36 1.093 0.907s-0.347 1.040-0.907 1.093c-4.187 0.387-5.747 2.36-5.747 7.28v0.173c0 5.427 1.92 7.347 7.347 7.347h8.693c5.427 0 7.347-1.92 7.347-7.347v-0.173c0-4.947-1.587-6.92-5.853-7.28-0.547-0.053-0.96-0.533-0.907-1.080s0.52-0.96 1.080-0.907c5.307 0.453 7.68 3.32 7.68 9.28v0.173c0 6.52-2.8 9.32-9.347 9.32z"></path>
<path d="M16 20.84c-0.547 0-1-0.453-1-1v-17.173c0-0.547 0.453-1 1-1s1 0.453 1 1v17.173c0 0.56-0.453 1-1 1z"></path>
<path d="M16 22.333c-0.253 0-0.507-0.093-0.707-0.293l-4.467-4.467c-0.387-0.387-0.387-1.027 0-1.413s1.027-0.387 1.413 0l3.76 3.76 3.76-3.76c0.387-0.387 1.027-0.387 1.413 0s0.387 1.027 0 1.413l-4.467 4.467c-0.2 0.2-0.453 0.293-0.707 0.293z"></path>
</svg>
