<!-- Generated by IcoMoon.io -->
<svg version="1.1" xmlns="http://www.w3.org/2000/svg" width="32" height="32" viewBox="0 0 32 32">
<title>import</title>
<path d="M15.84 19.987c-0.253 0-0.507-0.093-0.707-0.293l-3.413-3.413c-0.387-0.387-0.387-1.027 0-1.413s1.027-0.387 1.413 0l2.707 2.707 2.707-2.707c0.387-0.387 1.027-0.387 1.413 0s0.387 1.027 0 1.413l-3.413 3.413c-0.2 0.2-0.453 0.293-0.707 0.293z"></path>
<path d="M15.841 19.893c-0.547 0-1-0.453-1-1v-13.56c0-0.547 0.453-1 1-1s1 0.453 1 1v13.56c0 0.547-0.453 1-1 1z"></path>
<path d="M16 27.907c-6.867 0-11.667-4.8-11.667-11.667 0-0.547 0.453-1 1-1s1 0.453 1 1c0 5.693 3.973 9.667 9.667 9.667s9.667-3.973 9.667-9.667c0-0.547 0.453-1 1-1s1 0.453 1 1c0 6.867-4.8 11.667-11.667 11.667z"></path>
</svg>
