<!-- Generated by IcoMoon.io -->
<svg version="1.1" xmlns="http://www.w3.org/2000/svg" width="32" height="32" viewBox="0 0 32 32">
<title>information</title>
<path d="M16.012 30.32c-0.84 0-1.667-0.28-2.32-0.84l-2.107-1.8c-0.213-0.187-0.747-0.373-1.027-0.373h-2.333c-1.973 0-3.573-1.6-3.573-3.573v-2.28c0-0.28-0.187-0.813-0.36-1.013l-1.813-2.133c-1.093-1.293-1.093-3.32 0-4.627l1.813-2.133c0.173-0.2 0.36-0.733 0.36-1.013v-2.267c0-1.973 1.6-3.573 3.573-3.573h2.307c0.28 0 0.8-0.2 1.027-0.387l2.107-1.8c1.307-1.107 3.347-1.107 4.653 0l2.107 1.8c0.213 0.187 0.76 0.373 1.040 0.373h2.267c1.973 0 3.573 1.6 3.573 3.573v2.267c0 0.28 0.2 0.8 0.387 1.027l1.8 2.107c1.12 1.32 1.107 3.36 0 4.653l-1.8 2.107c-0.187 0.227-0.373 0.747-0.373 1.027v2.267c0 1.973-1.6 3.573-3.573 3.573h-2.267c-0.28 0-0.8 0.2-1.040 0.387l-2.107 1.8c-0.653 0.573-1.493 0.853-2.32 0.853zM8.226 6.693c-0.867 0-1.573 0.707-1.573 1.573v2.267c0 0.76-0.347 1.72-0.84 2.307l-1.813 2.133c-0.453 0.547-0.453 1.507 0 2.040l1.8 2.12c0.48 0.547 0.84 1.547 0.84 2.307v2.28c0 0.867 0.707 1.573 1.573 1.573h2.32c0.747 0 1.733 0.36 2.32 0.853l2.12 1.813c0.547 0.467 1.507 0.467 2.053 0l2.107-1.8c0.6-0.507 1.573-0.853 2.32-0.853h2.267c0.867 0 1.573-0.707 1.573-1.573v-2.267c0-0.747 0.36-1.72 0.853-2.32l1.813-2.12c0.467-0.547 0.467-1.507 0-2.053l-1.8-2.107c-0.507-0.6-0.853-1.573-0.853-2.32v-2.28c0-0.867-0.707-1.573-1.573-1.573h-2.267c-0.76 0-1.747-0.36-2.333-0.853l-2.12-1.813c-0.547-0.467-1.493-0.467-2.053 0l-2.093 1.813c-0.6 0.493-1.573 0.853-2.333 0.853h-2.307z"></path>
<path d="M16 22.493c-0.733 0-1.333-0.6-1.333-1.333s0.587-1.333 1.333-1.333c0.733 0 1.333 0.6 1.333 1.333s-0.587 1.333-1.333 1.333z"></path>
<path d="M16 18.293c-0.547 0-1-0.453-1-1v-6.453c0-0.547 0.453-1 1-1s1 0.453 1 1v6.44c0 0.56-0.44 1.013-1 1.013z"></path>
</svg>
