<!-- Generated by IcoMoon.io -->
<svg version="1.1" xmlns="http://www.w3.org/2000/svg" width="32" height="32" viewBox="0 0 32 32">
<title>instagram</title>
<path d="M20 30.333h-8c-7.24 0-10.333-3.093-10.333-10.333v-8c0-7.24 3.093-10.333 10.333-10.333h8c7.24 0 10.333 3.093 10.333 10.333v8c0 7.24-3.093 10.333-10.333 10.333zM12 3.667c-6.147 0-8.333 2.187-8.333 8.333v8c0 6.147 2.187 8.333 8.333 8.333h8c6.147 0 8.333-2.187 8.333-8.333v-8c0-6.147-2.187-8.333-8.333-8.333h-8z"></path>
<path d="M16 21.667c-3.12 0-5.667-2.547-5.667-5.667s2.547-5.667 5.667-5.667c3.12 0 5.667 2.547 5.667 5.667s-2.547 5.667-5.667 5.667zM16 12.333c-2.027 0-3.667 1.64-3.667 3.667s1.64 3.667 3.667 3.667c2.027 0 3.667-1.64 3.667-3.667s-1.64-3.667-3.667-3.667z"></path>
<path d="M22.667 10c-0.173 0-0.347-0.040-0.507-0.107s-0.307-0.16-0.44-0.28c-0.12-0.133-0.227-0.28-0.293-0.44s-0.093-0.333-0.093-0.507c0-0.173 0.027-0.347 0.093-0.507 0.080-0.173 0.173-0.307 0.293-0.44 0.067-0.053 0.133-0.12 0.2-0.16 0.080-0.053 0.16-0.093 0.24-0.12 0.080-0.040 0.16-0.067 0.253-0.080 0.427-0.093 0.88 0.053 1.2 0.36 0.12 0.133 0.213 0.267 0.28 0.44 0.067 0.16 0.107 0.333 0.107 0.507s-0.040 0.347-0.107 0.507c-0.067 0.16-0.16 0.307-0.28 0.44-0.133 0.12-0.28 0.213-0.44 0.28s-0.333 0.107-0.507 0.107z"></path>
</svg>
