<!-- Generated by IcoMoon.io -->
<svg version="1.1" xmlns="http://www.w3.org/2000/svg" width="32" height="32" viewBox="0 0 32 32">
<title>judge</title>
<path d="M26.68 25.68c-0.253 0-0.507-0.093-0.707-0.293l-6.6-6.6c-0.387-0.387-0.387-1.027 0-1.413s1.027-0.387 1.413 0l6.6 6.6c0.387 0.387 0.387 1.027 0 1.413-0.2 0.2-0.453 0.293-0.707 0.293z"></path>
<path d="M13.479 24.574c-0.973 0-1.907-0.387-2.587-1.080l-5.653-5.653c-1.427-1.427-1.427-3.76 0-5.187l9.427-9.427c1.427-1.427 3.76-1.427 5.187 0l5.653 5.653c0.693 0.693 1.080 1.613 1.080 2.587s-0.387 1.907-1.080 2.587l-9.427 9.427c-0.693 0.72-1.613 1.093-2.6 1.093zM17.253 4.16c-0.427 0-0.853 0.16-1.173 0.493l-9.427 9.427c-0.653 0.653-0.653 1.707 0 2.36l5.653 5.653c0.627 0.627 1.72 0.627 2.36 0l9.427-9.427c0.32-0.32 0.493-0.733 0.493-1.173s-0.173-0.867-0.493-1.173l-5.653-5.653c-0.333-0.347-0.76-0.507-1.187-0.507z"></path>
<path d="M10.667 29h-8c-0.547 0-1-0.453-1-1s0.453-1 1-1h8c0.547 0 1 0.453 1 1s-0.453 1-1 1z"></path>
<path d="M18.173 20.986c-0.253 0-0.507-0.093-0.707-0.293l-9.427-9.427c-0.387-0.387-0.387-1.027 0-1.413s1.027-0.387 1.413 0l9.427 9.427c0.387 0.387 0.387 1.027 0 1.413-0.187 0.2-0.453 0.293-0.707 0.293z"></path>
</svg>
