<!-- Generated by IcoMoon.io -->
<svg version="1.1" xmlns="http://www.w3.org/2000/svg" width="32" height="32" viewBox="0 0 32 32">
<title>kanban</title>
<path d="M11.027 30.333h-5.387c-2.68 0-3.973-1.24-3.973-3.8v-21.067c0-2.56 1.307-3.8 3.973-3.8h5.387c2.68 0 3.973 1.24 3.973 3.8v21.067c0 2.56-1.307 3.8-3.973 3.8zM5.64 3.667c-1.693 0-1.973 0.453-1.973 1.8v21.067c0 1.347 0.28 1.8 1.973 1.8h5.387c1.693 0 1.973-0.453 1.973-1.8v-21.067c0-1.347-0.28-1.8-1.973-1.8h-5.387z"></path>
<path d="M26.36 21h-5.387c-2.68 0-3.973-1.24-3.973-3.8v-11.733c0-2.56 1.307-3.8 3.973-3.8h5.387c2.68 0 3.973 1.24 3.973 3.8v11.733c0 2.56-1.307 3.8-3.973 3.8zM20.973 3.667c-1.693 0-1.973 0.453-1.973 1.8v11.733c0 1.347 0.28 1.8 1.973 1.8h5.387c1.693 0 1.973-0.453 1.973-1.8v-11.733c0-1.347-0.28-1.8-1.973-1.8h-5.387z"></path>
</svg>
