<!-- Generated by IcoMoon.io -->
<svg version="1.1" xmlns="http://www.w3.org/2000/svg" width="32" height="32" viewBox="0 0 32 32">
<title>key-square</title>
<path d="M20 30.333h-8c-7.24 0-10.333-3.093-10.333-10.333v-8c0-7.24 3.093-10.333 10.333-10.333h8c7.24 0 10.333 3.093 10.333 10.333v8c0 7.24-3.093 10.333-10.333 10.333zM12 3.667c-6.147 0-8.333 2.187-8.333 8.333v8c0 6.147 2.187 8.333 8.333 8.333h8c6.147 0 8.333-2.187 8.333-8.333v-8c0-6.147-2.187-8.333-8.333-8.333h-8z"></path>
<path d="M11.746 24.333c-0.093 0-0.2 0-0.293-0.027l-1.587-0.213c-0.96-0.133-1.8-0.96-1.947-1.947l-0.227-1.613c-0.093-0.64 0.173-1.453 0.64-1.933l3.040-3.040c-0.453-2.16 0.2-4.4 1.787-5.973 2.547-2.547 6.707-2.547 9.253 0 1.24 1.24 1.92 2.88 1.92 4.627s-0.68 3.4-1.92 4.627c-1.587 1.573-3.827 2.227-5.973 1.773l-3.053 3.040c-0.387 0.413-1.040 0.68-1.64 0.68zM17.786 9.667c-1.16 0-2.333 0.44-3.213 1.333-1.2 1.2-1.627 2.947-1.133 4.573 0.107 0.36 0.013 0.733-0.253 1l-3.44 3.44c-0.027 0.040-0.080 0.187-0.080 0.24l0.227 1.6c0.013 0.080 0.16 0.227 0.24 0.24l1.6 0.227c0.067-0.013 0.2-0.040 0.24-0.080l3.453-3.453c0.267-0.267 0.653-0.347 1-0.24 1.613 0.507 3.36 0.080 4.56-1.12 0.853-0.853 1.333-2 1.333-3.213s-0.467-2.36-1.333-3.213c-0.867-0.88-2.040-1.333-3.2-1.333z"></path>
<path d="M13.932 22.707c-0.253 0-0.507-0.093-0.707-0.293l-1.147-1.147c-0.387-0.387-0.387-1.027 0-1.413s1.027-0.387 1.413 0l1.147 1.147c0.387 0.387 0.387 1.027 0 1.413-0.187 0.2-0.44 0.293-0.707 0.293z"></path>
<path d="M17.839 15.733c-0.187 0-0.36-0.027-0.52-0.093s-0.307-0.173-0.427-0.293c-0.253-0.253-0.4-0.587-0.4-0.947 0-0.347 0.147-0.693 0.4-0.933 0.307-0.32 0.773-0.467 1.2-0.373 0.080 0.027 0.173 0.040 0.253 0.080s0.16 0.080 0.227 0.12c0.067 0.053 0.147 0.107 0.2 0.173 0.253 0.24 0.4 0.587 0.4 0.933 0 0.187-0.040 0.347-0.107 0.52-0.067 0.16-0.16 0.307-0.293 0.427-0.253 0.253-0.587 0.387-0.933 0.387z"></path>
</svg>
