<!-- Generated by IcoMoon.io -->
<svg version="1.1" xmlns="http://www.w3.org/2000/svg" width="32" height="32" viewBox="0 0 32 32">
<title>key</title>
<path d="M8.239 30.333c-0.133 0-0.28-0.013-0.4-0.027l-2.893-0.4c-1.387-0.187-2.64-1.427-2.853-2.84l-0.4-2.92c-0.133-0.933 0.267-2.147 0.933-2.827l5.853-5.853c-0.947-3.787 0.147-7.787 2.933-10.547 4.32-4.307 11.347-4.32 15.68 0 2.093 2.093 3.24 4.88 3.24 7.84s-1.147 5.747-3.24 7.84c-2.8 2.773-6.787 3.867-10.547 2.907l-5.867 5.853c-0.56 0.587-1.56 0.973-2.44 0.973zM19.239 3.68c-2.333 0-4.653 0.88-6.427 2.653-2.4 2.387-3.267 5.88-2.267 9.133 0.107 0.36 0.013 0.733-0.253 1l-6.267 6.267c-0.227 0.227-0.413 0.813-0.373 1.12l0.4 2.92c0.080 0.507 0.627 1.080 1.133 1.147l2.907 0.4c0.32 0.053 0.907-0.133 1.133-0.36l6.293-6.28c0.267-0.267 0.653-0.347 1-0.24 3.213 1.013 6.72 0.147 9.12-2.253 1.707-1.707 2.653-4 2.653-6.427 0-2.44-0.947-4.72-2.653-6.427-1.733-1.76-4.067-2.653-6.4-2.653z"></path>
<path d="M12.253 27.387c-0.253 0-0.507-0.093-0.707-0.293l-3.067-3.067c-0.387-0.387-0.387-1.027 0-1.413s1.027-0.387 1.413 0l3.067 3.067c0.387 0.387 0.387 1.027 0 1.413-0.2 0.2-0.453 0.293-0.707 0.293z"></path>
<path d="M19.333 15.667c-1.653 0-3-1.347-3-3s1.347-3 3-3c1.653 0 3 1.347 3 3s-1.347 3-3 3zM19.333 11.667c-0.547 0-1 0.453-1 1s0.453 1 1 1c0.547 0 1-0.453 1-1s-0.453-1-1-1z"></path>
</svg>
