<!-- Generated by IcoMoon.io -->
<svg version="1.1" xmlns="http://www.w3.org/2000/svg" width="32" height="32" viewBox="0 0 32 32">
<title>keyboard</title>
<path d="M22 27.667h-12c-1 0-1.733-0.040-2.36-0.133-4.427-0.48-5.307-3.133-5.307-7.533v-8c0-4.4 0.88-7.053 5.347-7.547 0.587-0.080 1.32-0.12 2.32-0.12h12c1 0 1.733 0.040 2.36 0.133 4.427 0.48 5.307 3.133 5.307 7.533v8c0 4.4-0.88 7.053-5.347 7.547-0.587 0.080-1.32 0.12-2.32 0.12zM10 6.333c-0.907 0-1.547 0.040-2.067 0.107-2.707 0.307-3.6 1.147-3.6 5.56v8c0 4.413 0.893 5.253 3.56 5.56 0.56 0.080 1.2 0.107 2.107 0.107h12c0.907 0 1.547-0.040 2.067-0.107 2.707-0.293 3.6-1.147 3.6-5.56v-8c0-4.413-0.893-5.253-3.56-5.56-0.56-0.080-1.2-0.107-2.107-0.107h-12z"></path>
<path d="M22.667 14.333h-4.667c-0.547 0-1-0.453-1-1s0.453-1 1-1h4.667c0.547 0 1 0.453 1 1s-0.453 1-1 1z"></path>
<path d="M13.466 14.667c-0.733 0-1.333-0.6-1.333-1.333s0.587-1.333 1.333-1.333h0.013c0.733 0 1.333 0.6 1.333 1.333s-0.6 1.333-1.347 1.333z"></path>
<path d="M9.466 14.667c-0.733 0-1.333-0.6-1.333-1.333s0.587-1.333 1.333-1.333c0.733 0 1.333 0.6 1.333 1.333s-0.587 1.333-1.333 1.333z"></path>
<path d="M22.666 21.667h-13.307c-0.547 0-1.013-0.453-1.013-1s0.44-1 0.987-1h13.333c0.547 0 1 0.453 1 1s-0.453 1-1 1z"></path>
</svg>
