<!-- Generated by IcoMoon.io -->
<svg version="1.1" xmlns="http://www.w3.org/2000/svg" width="32" height="32" viewBox="0 0 32 32">
<title>keyboard-open</title>
<path d="M22.32 26.12h-12.627c-1.053 0-1.813-0.040-2.467-0.133-4.627-0.507-5.547-3.28-5.547-7.88v-8.427c0-4.6 0.907-7.373 5.573-7.88 0.64-0.093 1.4-0.133 2.44-0.133h12.627c1.040 0 1.8 0.040 2.467 0.133 4.64 0.507 5.547 3.28 5.547 7.88v8.427c0 4.6-0.907 7.373-5.573 7.88-0.627 0.093-1.387 0.133-2.44 0.133zM9.68 3.667c-0.947 0-1.627 0.040-2.187 0.12-2.88 0.32-3.827 1.213-3.827 5.907v8.427c0 4.68 0.947 5.587 3.8 5.893 0.587 0.080 1.267 0.12 2.227 0.12h12.627c0.96 0 1.627-0.040 2.187-0.12 2.88-0.32 3.827-1.213 3.827-5.907v-8.427c0-4.68-0.947-5.587-3.8-5.893-0.6-0.080-1.267-0.12-2.227-0.12h-12.627z"></path>
<path d="M23.013 12.093h-4.907c-0.547 0-1-0.453-1-1s0.453-1 1-1h4.907c0.547 0 1 0.453 1 1s-0.44 1-1 1z"></path>
<path d="M13.333 12.427c-0.733 0-1.333-0.6-1.333-1.333s0.587-1.333 1.333-1.333c0.733 0 1.333 0.6 1.333 1.333s-0.587 1.333-1.333 1.333z"></path>
<path d="M9.133 12.427c-0.733 0-1.333-0.6-1.333-1.333s0.587-1.333 1.333-1.333h0.013c0.733 0 1.333 0.6 1.333 1.333s-0.613 1.333-1.347 1.333z"></path>
<path d="M23.014 19.813h-14.013c-0.547 0-1.013-0.453-1.013-1s0.44-1 0.987-1h14.040c0.547 0 1 0.453 1 1s-0.44 1-1 1z"></path>
<path d="M22.667 30.333h-13.333c-0.547 0-1-0.453-1-1s0.453-1 1-1h13.333c0.547 0 1 0.453 1 1s-0.453 1-1 1z"></path>
</svg>
