<!-- Generated by IcoMoon.io -->
<svg version="1.1" xmlns="http://www.w3.org/2000/svg" width="32" height="32" viewBox="0 0 32 32">
<title>lamp-1</title>
<path d="M27.705 25.787h-23.413c-0.547 0-1-0.453-1-1v-6.587c0-6.96 5.667-12.627 12.627-12.627h0.16c6.96 0 12.627 5.667 12.627 12.627v6.587c0 0.547-0.453 1-1 1zM5.292 23.787h21.413v-5.587c0-5.867-4.773-10.627-10.627-10.627h-0.16c-5.867 0-10.627 4.773-10.627 10.627v5.587z"></path>
<path d="M16 7.573c-0.547 0-1-0.453-1-1v-3.907c0-0.547 0.453-1 1-1s1 0.453 1 1v3.907c0 0.547-0.453 1-1 1z"></path>
<path d="M16.001 30.333c-3.080 0-5.653-2.413-5.867-5.48-0.013-0.28 0.080-0.547 0.267-0.747s0.453-0.32 0.733-0.32h9.733c0.28 0 0.547 0.12 0.733 0.32s0.28 0.48 0.267 0.747c-0.213 3.067-2.787 5.48-5.867 5.48zM12.361 25.786c0.547 1.493 1.987 2.547 3.64 2.547s3.093-1.053 3.64-2.547h-7.28z"></path>
</svg>
