<!-- Generated by IcoMoon.io -->
<svg version="1.1" xmlns="http://www.w3.org/2000/svg" width="32" height="32" viewBox="0 0 32 32">
<title>lamp-slash</title>
<path d="M5.574 25.44c-0.253 0-0.507-0.093-0.707-0.293-0.387-0.387-0.387-1.027 0-1.413l21.133-21.133c0.387-0.387 1.027-0.387 1.413 0s0.387 1.027 0 1.413l-21.133 21.133c-0.2 0.2-0.453 0.293-0.707 0.293z"></path>
<path d="M7 18.333c-0.387 0-0.747-0.227-0.92-0.6-0.653-1.493-0.987-3.013-0.987-4.533 0-3.627 1.573-6.973 4.307-9.187 2.56-2.053 5.733-2.8 8.933-2.093 2.107 0.467 4.027 1.573 5.533 3.2 0.373 0.4 0.347 1.040-0.053 1.413s-1.040 0.347-1.413-0.053c-1.24-1.333-2.787-2.24-4.493-2.613-2.6-0.56-5.173 0.040-7.24 1.707-2.267 1.827-3.56 4.6-3.56 7.627 0 1.24 0.28 2.493 0.813 3.733 0.227 0.507-0.013 1.093-0.52 1.32-0.133 0.053-0.267 0.080-0.4 0.080z"></path>
<path d="M19.479 26.334h-6.92c-0.52 0-1.253-0.053-1.747-0.56-0.48-0.493-0.467-1.12-0.453-1.533v-1.213c-0.533-0.373-1.040-0.8-1.52-1.28-0.387-0.387-0.387-1.027 0-1.413s1.027-0.387 1.413 0c0.52 0.507 1.067 0.96 1.64 1.333 0.28 0.187 0.467 0.507 0.467 0.84v1.787c0 0.013 0 0.027 0 0.040 0.053 0 0.12 0 0.213 0h6.92c0.093 0 0.16 0 0.213-0.013 0-0.053 0-0.107 0-0.147v-1.68c0-0.347 0.173-0.653 0.467-0.84 3.293-2.107 5.827-6.773 4.307-11.613-0.16-0.533 0.133-1.093 0.653-1.253 0.52-0.173 1.093 0.133 1.253 0.653 1.747 5.573-0.973 10.947-4.68 13.587v1.027c0.013 0.413 0.027 1.12-0.52 1.68-0.413 0.4-0.973 0.6-1.707 0.6z"></path>
<path d="M20.667 30.333c-0.093 0-0.187-0.013-0.28-0.040-2.88-0.827-5.907-0.827-8.787 0-0.533 0.147-1.080-0.16-1.24-0.693s0.16-1.080 0.693-1.24c3.227-0.92 6.653-0.92 9.88 0 0.533 0.147 0.84 0.707 0.693 1.24-0.12 0.453-0.52 0.733-0.96 0.733z"></path>
</svg>
