<!-- Generated by IcoMoon.io -->
<svg version="1.1" xmlns="http://www.w3.org/2000/svg" width="32" height="32" viewBox="0 0 32 32">
<title>lamp</title>
<path d="M24.28 20.587h-16.56c-1.373 0-2.587-0.56-3.333-1.533s-0.96-2.293-0.6-3.613l2.933-10.773c0.453-1.68 2.187-3 3.933-3h10.68c1.747 0 3.467 1.32 3.933 3l2.933 10.773c0.36 1.32 0.147 2.64-0.6 3.613s-1.947 1.533-3.32 1.533zM10.653 3.667c-0.84 0-1.787 0.72-2 1.533l-2.933 10.773c-0.2 0.72-0.107 1.387 0.267 1.88s0.987 0.747 1.733 0.747h16.56c0.747 0 1.373-0.267 1.733-0.747s0.467-1.147 0.267-1.88l-2.933-10.773c-0.227-0.813-1.16-1.533-2-1.533h-10.693z"></path>
<path d="M16 30.333c-0.547 0-1-0.453-1-1v-9.333c0-0.547 0.453-1 1-1s1 0.453 1 1v9.333c0 0.547-0.453 1-1 1z"></path>
<path d="M21.333 30.333h-10.667c-0.547 0-1-0.453-1-1s0.453-1 1-1h10.667c0.547 0 1 0.453 1 1s-0.453 1-1 1z"></path>
</svg>
