<!-- Generated by IcoMoon.io -->
<svg version="1.1" xmlns="http://www.w3.org/2000/svg" width="32" height="32" viewBox="0 0 32 32">
<title>lamp-on</title>
<path d="M19.693 26.333h-7.347c-0.587 0-1.333-0.067-1.827-0.573-0.48-0.493-0.467-1.107-0.453-1.52v-1.187c-3.36-2.24-5.573-6.133-5.573-9.84 0-3.507 1.573-6.787 4.307-8.987s6.32-3.027 9.827-2.253c3.333 0.733 6.213 2.96 7.707 5.96 2.893 5.827 0.107 12.133-4.347 15.133v1c0.013 0.387 0.027 1.093-0.52 1.653-0.413 0.4-1 0.613-1.773 0.613zM12.053 24.32c0.067 0 0.16 0.013 0.28 0.013h7.36c0.133 0 0.227-0.013 0.28-0.027 0-0.040 0-0.093 0-0.133v-1.68c0-0.347 0.187-0.68 0.48-0.853 3.947-2.387 6.56-7.84 4.067-12.84-1.227-2.467-3.6-4.293-6.347-4.893-2.907-0.64-5.88 0.040-8.147 1.867s-3.56 4.533-3.56 7.44c0 3.707 2.56 6.907 5.093 8.44 0.307 0.187 0.48 0.507 0.48 0.853v1.8c0.013 0 0.013 0 0.013 0.013z"></path>
<path d="M20.667 30.333c-0.093 0-0.187-0.013-0.28-0.040-2.88-0.827-5.907-0.827-8.787 0-0.533 0.147-1.080-0.16-1.24-0.693s0.16-1.080 0.693-1.24c3.227-0.92 6.653-0.92 9.88 0 0.533 0.147 0.84 0.707 0.693 1.24-0.12 0.453-0.52 0.733-0.96 0.733z"></path>
</svg>
