<!-- Generated by IcoMoon.io -->
<svg version="1.1" xmlns="http://www.w3.org/2000/svg" width="32" height="32" viewBox="0 0 32 32">
<title>language-circle</title>
<path d="M22.653 12.947h-13.307c-0.547 0-1-0.453-1-1s0.453-1 1-1h13.307c0.547 0 1 0.453 1 1s-0.453 1-1 1z"></path>
<path d="M16 12.947c-0.547 0-1-0.453-1-1v-2.24c0-0.547 0.453-1 1-1s1 0.453 1 1v2.24c0 0.547-0.453 1-1 1z"></path>
<path d="M9.333 23.293c-0.547 0-1-0.453-1-1s0.453-1 1-1c4.96 0 9-4.2 9-9.373 0-0.547 0.453-1 1-1s1 0.453 1 1c0 6.28-4.933 11.373-11 11.373z"></path>
<path d="M22.668 23.293c-2.627 0-5.067-1.307-6.853-3.693-0.333-0.44-0.24-1.067 0.2-1.4s1.067-0.24 1.4 0.2c1.413 1.867 3.28 2.893 5.267 2.893 0.547 0 1 0.453 1 1s-0.467 1-1.013 1z"></path>
<path d="M16 30.333c-7.907 0-14.333-6.427-14.333-14.333s6.427-14.333 14.333-14.333c7.907 0 14.333 6.427 14.333 14.333s-6.427 14.333-14.333 14.333zM16 3.667c-6.8 0-12.333 5.533-12.333 12.333s5.533 12.333 12.333 12.333c6.8 0 12.333-5.533 12.333-12.333s-5.533-12.333-12.333-12.333z"></path>
</svg>
