<!-- Generated by IcoMoon.io -->
<svg version="1.1" xmlns="http://www.w3.org/2000/svg" width="32" height="32" viewBox="0 0 32 32">
<title>language-square</title>
<path d="M22.653 12.947h-13.307c-0.547 0-1-0.453-1-1s0.453-1 1-1h13.307c0.547 0 1 0.453 1 1s-0.453 1-1 1z"></path>
<path d="M16 12.947c-0.547 0-1-0.453-1-1v-2.24c0-0.547 0.453-1 1-1s1 0.453 1 1v2.24c0 0.547-0.453 1-1 1z"></path>
<path d="M9.333 23.293c-0.547 0-1-0.453-1-1s0.453-1 1-1c4.96 0 9-4.2 9-9.373 0-0.547 0.453-1 1-1s1 0.453 1 1c0 6.28-4.933 11.373-11 11.373z"></path>
<path d="M22.668 23.293c-2.627 0-5.067-1.307-6.853-3.693-0.333-0.44-0.24-1.067 0.2-1.4s1.067-0.24 1.4 0.2c1.413 1.867 3.28 2.893 5.267 2.893 0.547 0 1 0.453 1 1s-0.467 1-1.013 1z"></path>
<path d="M20 30.333h-8c-7.24 0-10.333-3.093-10.333-10.333v-8c0-7.24 3.093-10.333 10.333-10.333h8c7.24 0 10.333 3.093 10.333 10.333v8c0 7.24-3.093 10.333-10.333 10.333zM12 3.667c-6.147 0-8.333 2.187-8.333 8.333v8c0 6.147 2.187 8.333 8.333 8.333h8c6.147 0 8.333-2.187 8.333-8.333v-8c0-6.147-2.187-8.333-8.333-8.333h-8z"></path>
</svg>
