<!-- Generated by IcoMoon.io -->
<svg version="1.1" xmlns="http://www.w3.org/2000/svg" width="32" height="32" viewBox="0 0 32 32">
<title>layer</title>
<path d="M15.721 15.84c-0.72 0-1.453-0.133-2.027-0.387l-7.867-3.493c-2-0.893-2.293-2.093-2.293-2.747s0.293-1.853 2.293-2.747l7.867-3.493c1.16-0.52 2.907-0.52 4.067 0l7.88 3.493c1.987 0.88 2.293 2.093 2.293 2.747s-0.293 1.853-2.293 2.747l-7.88 3.493c-0.587 0.267-1.307 0.387-2.040 0.387zM15.721 4.587c-0.453 0-0.893 0.067-1.213 0.213l-7.867 3.493c-0.813 0.373-1.107 0.747-1.107 0.92s0.293 0.56 1.093 0.92l7.867 3.493c0.64 0.28 1.8 0.28 2.44 0l7.88-3.493c0.813-0.36 1.107-0.747 1.107-0.92s-0.293-0.56-1.107-0.92l-7.867-3.493c-0.32-0.133-0.773-0.213-1.227-0.213z"></path>
<path d="M16 22.787c-0.507 0-1.013-0.107-1.493-0.32l-9.053-4.027c-1.373-0.6-2.453-2.267-2.453-3.773 0-0.547 0.453-1 1-1s1 0.453 1 1c0 0.733 0.6 1.653 1.267 1.96l9.053 4.027c0.427 0.187 0.92 0.187 1.36 0l9.053-4.027c0.667-0.293 1.267-1.227 1.267-1.96 0-0.547 0.453-1 1-1s1 0.453 1 1c0 1.507-1.080 3.173-2.453 3.787l-9.053 4.027c-0.48 0.2-0.987 0.307-1.493 0.307z"></path>
<path d="M16 29.454c-0.507 0-1.013-0.107-1.493-0.32l-9.053-4.027c-1.493-0.667-2.453-2.147-2.453-3.787 0-0.547 0.453-1 1-1s1 0.467 1 1.013c0 0.84 0.493 1.613 1.267 1.96l9.053 4.027c0.427 0.187 0.92 0.187 1.36 0l9.053-4.027c0.773-0.347 1.267-1.107 1.267-1.96 0-0.547 0.453-1 1-1s1 0.453 1 1c0 1.64-0.96 3.12-2.453 3.787l-9.053 4.027c-0.48 0.2-0.987 0.307-1.493 0.307z"></path>
</svg>
