<!-- Generated by IcoMoon.io -->
<svg version="1.1" xmlns="http://www.w3.org/2000/svg" width="32" height="32" viewBox="0 0 32 32">
<title>level</title>
<path d="M15.999 30.333c-6.773 0-12.68-4.813-14.040-11.44-0.107-0.547 0.24-1.067 0.773-1.187 0.547-0.107 1.067 0.24 1.187 0.773 1.173 5.707 6.253 9.853 12.080 9.853 5.813 0 10.893-4.12 12.080-9.8 0.107-0.547 0.64-0.893 1.187-0.773 0.547 0.107 0.893 0.64 0.773 1.187-1.387 6.587-7.28 11.387-14.040 11.387z"></path>
<path d="M29.081 14.413c-0.467 0-0.88-0.333-0.973-0.813-1.133-5.76-6.227-9.947-12.107-9.947-5.84 0-10.92 4.147-12.080 9.853-0.107 0.547-0.64 0.88-1.187 0.773s-0.893-0.64-0.773-1.187c1.36-6.627 7.267-11.44 14.040-11.44 6.84 0 12.747 4.867 14.067 11.56 0.107 0.547-0.253 1.067-0.787 1.173-0.067 0.027-0.133 0.027-0.2 0.027z"></path>
<path d="M16 19c-1.653 0-3-1.347-3-3s1.347-3 3-3c1.653 0 3 1.347 3 3s-1.347 3-3 3zM16 15c-0.547 0-1 0.453-1 1s0.453 1 1 1c0.547 0 1-0.453 1-1s-0.453-1-1-1z"></path>
</svg>
