<!-- Generated by IcoMoon.io -->
<svg version="1.1" xmlns="http://www.w3.org/2000/svg" width="32" height="32" viewBox="0 0 32 32">
<title>like-shapes</title>
<path d="M16.012 30.333c-0.84 0-1.68-0.28-2.333-0.84l-2.107-1.813c-0.213-0.187-0.747-0.373-1.027-0.373h-2.307c-1.973 0-3.573-1.6-3.573-3.573v-2.28c0-0.28-0.187-0.8-0.373-1.013l-1.8-2.12c-1.093-1.293-1.093-3.333 0-4.627l1.8-2.12c0.187-0.213 0.373-0.733 0.373-1.013v-2.28c0-1.973 1.6-3.573 3.573-3.573h2.307c0.28 0 0.813-0.2 1.027-0.373l2.107-1.813c1.307-1.12 3.347-1.12 4.653 0l2.107 1.813c0.213 0.187 0.747 0.373 1.027 0.373h2.267c1.973 0 3.573 1.6 3.573 3.573v2.267c0 0.28 0.2 0.813 0.387 1.027l1.8 2.107c1.12 1.307 1.12 3.347 0 4.653l-1.8 2.107c-0.187 0.213-0.373 0.747-0.373 1.027v2.267c0 1.973-1.6 3.573-3.573 3.573h-2.267c-0.28 0-0.813 0.2-1.027 0.373l-2.107 1.813c-0.667 0.56-1.507 0.84-2.333 0.84zM8.239 6.693c-0.867 0-1.573 0.707-1.573 1.573v2.28c0 0.76-0.36 1.733-0.84 2.307l-1.8 2.12c-0.467 0.547-0.467 1.493 0 2.040l1.8 2.12c0.493 0.587 0.853 1.56 0.853 2.307v2.28c0 0.867 0.707 1.573 1.573 1.573h2.307c0.773 0 1.747 0.36 2.333 0.867l2.107 1.813c0.547 0.467 1.507 0.467 2.053 0l2.107-1.813c0.587-0.493 1.56-0.867 2.333-0.867h2.267c0.867 0 1.573-0.707 1.573-1.573v-2.267c0-0.773 0.36-1.747 0.867-2.333l1.8-2.107c0.467-0.547 0.467-1.507 0-2.053l-1.8-2.107c-0.493-0.587-0.867-1.56-0.867-2.333v-2.267c0-0.867-0.707-1.573-1.573-1.573h-2.267c-0.76 0-1.747-0.36-2.333-0.867l-2.107-1.813c-0.547-0.467-1.507-0.467-2.053 0l-2.107 1.813c-0.587 0.493-1.56 0.867-2.333 0.867h-2.32v0.013z"></path>
<path d="M18.666 22.626h-2.373c-0.56 0-1.4-0.173-1.893-0.667l-1.84-1.413 1.227-1.587 1.933 1.493c0.133 0.093 0.373 0.16 0.573 0.16h2.373c0.32 0 0.707-0.28 0.773-0.56l1.52-4.627c0.040-0.12 0.040-0.2 0.027-0.227-0.027-0.040-0.12-0.080-0.253-0.080h-2.493c-0.48 0-0.92-0.2-1.24-0.56-0.307-0.36-0.453-0.84-0.387-1.333l0.32-2.013c0.027-0.107-0.053-0.24-0.133-0.267-0.080-0.013-0.2 0.013-0.24 0.053l-2.547 3.787-1.667-1.12 2.56-3.8c0.533-0.8 1.653-1.147 2.56-0.813 1.013 0.333 1.667 1.48 1.44 2.52l-0.24 1.52h2.067c0.787 0 1.48 0.333 1.893 0.92 0.4 0.573 0.493 1.32 0.24 2.027l-1.493 4.533c-0.28 1.147-1.467 2.053-2.707 2.053z"></path>
<path d="M11.867 21.947h-0.627c-1.96 0-2.253-1.373-2.253-2.187v-6.107c0-0.813 0.293-2.187 2.253-2.187h0.627c1.96 0 2.253 1.373 2.253 2.187v6.107c0 0.813-0.293 2.187-2.253 2.187zM11.014 19.933c0.053 0.013 0.133 0.013 0.24 0.013h0.627c0.107 0 0.187 0 0.24-0.013 0-0.040 0.013-0.093 0.013-0.173v-6.107c0-0.080 0-0.133-0.013-0.173-0.053-0.013-0.133-0.013-0.24-0.013h-0.627c-0.107 0-0.187 0-0.24 0.013 0 0.040-0.013 0.093-0.013 0.173v6.107c0 0.080 0 0.133 0.013 0.173z"></path>
</svg>
