<!-- Generated by IcoMoon.io -->
<svg version="1.1" xmlns="http://www.w3.org/2000/svg" width="32" height="32" viewBox="0 0 32 32">
<title>like</title>
<path d="M16 30.333c-0.933 0-1.88-0.36-2.587-1.067l-2.28-2.253c-0.56-0.56-1.333-0.867-2.12-0.867h-1.013c-2.76 0-5-2.227-5-4.96v-14.547c0-2.733 2.24-4.96 5-4.96h16c2.76 0 5 2.227 5 4.96v14.547c0 2.733-2.24 4.96-5 4.96h-1.013c-0.787 0-1.56 0.32-2.12 0.867l-2.28 2.253c-0.707 0.707-1.653 1.067-2.587 1.067zM8 3.667c-1.653 0-3 1.333-3 2.96v14.547c0 1.64 1.347 2.96 3 2.96h1.013c1.32 0 2.6 0.533 3.533 1.453l2.28 2.253c0.653 0.64 1.707 0.64 2.36 0l2.28-2.253c0.933-0.92 2.213-1.453 3.533-1.453h1c1.653 0 3-1.333 3-2.96v-14.547c0-1.64-1.347-2.96-3-2.96h-16z"></path>
<path d="M16 21c-0.24 0-0.48-0.040-0.693-0.107-1.76-0.6-6.293-3.253-6.293-8.213 0-2.4 1.947-4.347 4.333-4.347 0.973 0 1.907 0.333 2.667 0.92 0.76-0.587 1.693-0.92 2.667-0.92 2.387 0 4.333 1.947 4.333 4.347 0 4.96-4.547 7.613-6.293 8.213-0.24 0.067-0.48 0.107-0.72 0.107zM13.333 10.333c-1.28 0-2.333 1.053-2.333 2.347 0 3.773 3.667 5.88 4.947 6.32 0.013 0 0.067 0 0.107 0 1.293-0.453 4.933-2.56 4.933-6.307 0-1.293-1.040-2.347-2.333-2.347-0.733 0-1.413 0.347-1.867 0.933-0.373 0.507-1.227 0.507-1.6 0-0.427-0.6-1.107-0.947-1.853-0.947z"></path>
</svg>
