<!-- Generated by IcoMoon.io -->
<svg version="1.1" xmlns="http://www.w3.org/2000/svg" width="32" height="32" viewBox="0 0 32 32">
<title>like-dislike</title>
<path d="M13.266 30.333h-2.893c-0.52 0-1.56-0.16-2.16-0.747l-2.267-1.747 1.227-1.587 2.36 1.827c0.173 0.147 0.533 0.253 0.84 0.253h2.893c0.493 0 1.053-0.413 1.16-0.84l1.853-5.64c0.053-0.133 0.093-0.333 0-0.48-0.080-0.12-0.267-0.187-0.493-0.187h-3.053c-0.52 0-1-0.227-1.347-0.613-0.347-0.4-0.493-0.907-0.413-1.453l0.387-2.453c0.053-0.227-0.107-0.507-0.32-0.573-0.173-0.067-0.467 0.053-0.533 0.147l-3.133 4.653-1.667-1.12 3.12-4.653c0.587-0.88 1.867-1.28 2.853-0.907 1.133 0.373 1.88 1.653 1.613 2.827l-0.333 2.133h2.787c0.893 0 1.667 0.373 2.133 1.040 0.453 0.64 0.547 1.48 0.253 2.28l-1.827 5.547c-0.267 1.253-1.627 2.293-3.040 2.293z"></path>
<path d="M4.96 29.493h-0.76c-2.080 0-2.52-1.333-2.52-2.453v-7.467c0-1.12 0.44-2.453 2.52-2.453h0.76c2.080 0 2.52 1.333 2.52 2.453v7.467c0 1.12-0.44 2.453-2.52 2.453zM3.72 27.44c0.013 0 0.147 0.053 0.467 0.053h0.76c0.347 0 0.467-0.053 0.493-0.067 0-0.013 0.040-0.107 0.040-0.387v-7.467c0-0.28-0.040-0.387-0.053-0.4 0 0.027-0.133-0.053-0.467-0.053h-0.76c-0.347 0-0.467 0.053-0.493 0.067 0 0.013-0.040 0.107-0.040 0.387v7.467c0 0.28 0.040 0.387 0.053 0.4z"></path>
<path d="M21.080 17.92c-0.267 0-0.533-0.040-0.787-0.133-1.133-0.373-1.88-1.653-1.613-2.827l0.333-2.133h-2.787c-0.893 0-1.667-0.373-2.133-1.040-0.453-0.64-0.547-1.48-0.253-2.28l1.827-5.547c0.307-1.253 1.68-2.293 3.080-2.293h2.893c0.52 0 1.56 0.16 2.16 0.747l2.267 1.747-1.227 1.587-2.36-1.827c-0.173-0.147-0.533-0.253-0.84-0.253h-2.893c-0.493 0-1.053 0.413-1.16 0.84l-1.853 5.64c-0.053 0.133-0.093 0.333 0 0.48 0.080 0.12 0.267 0.187 0.493 0.187h3.053c0.52 0 1 0.227 1.347 0.613 0.347 0.4 0.493 0.907 0.413 1.453l-0.387 2.453c-0.053 0.227 0.107 0.507 0.32 0.573 0.187 0.067 0.467-0.040 0.533-0.147l3.133-4.653 1.667 1.12-3.12 4.653c-0.48 0.64-1.307 1.040-2.107 1.040z"></path>
<path d="M27.814 14.88h-0.76c-2.080 0-2.52-1.333-2.52-2.453v-7.467c0-1.12 0.44-2.453 2.52-2.453h0.76c2.080 0 2.52 1.333 2.52 2.453v7.467c0 1.12-0.44 2.453-2.52 2.453zM26.574 12.826c0.013 0 0.147 0.053 0.467 0.053h0.76c0.347 0 0.467-0.053 0.493-0.067 0-0.013 0.040-0.107 0.040-0.387v-7.467c0-0.28-0.040-0.373-0.053-0.4 0.013 0.053-0.133-0.053-0.467-0.053h-0.76c-0.347 0-0.467 0.053-0.493 0.067 0 0.013-0.040 0.107-0.040 0.387v7.467c0 0.28 0.040 0.373 0.053 0.4z"></path>
</svg>
