<!-- Generated by IcoMoon.io -->
<svg version="1.1" xmlns="http://www.w3.org/2000/svg" width="32" height="32" viewBox="0 0 32 32">
<title>like-1</title>
<path d="M21.706 29.467h-5.067c-0.747 0-2.373-0.227-3.24-1.093l-4.040-3.12 1.227-1.587 4.133 3.2c0.333 0.32 1.173 0.587 1.92 0.587h5.067c1.2 0 2.493-0.96 2.76-2.040l3.227-9.8c0.213-0.587 0.173-1.12-0.107-1.507-0.293-0.413-0.827-0.653-1.48-0.653h-5.333c-0.693 0-1.333-0.293-1.773-0.8-0.453-0.52-0.653-1.213-0.547-1.933l0.667-4.28c0.16-0.747-0.347-1.587-1.067-1.827-0.653-0.24-1.493 0.107-1.787 0.533l-5.467 8.133-1.653-1.107 5.467-8.133c0.84-1.253 2.68-1.853 4.12-1.307 1.667 0.547 2.733 2.387 2.36 4.093l-0.653 4.2c-0.013 0.093-0.013 0.227 0.080 0.333 0.067 0.067 0.16 0.107 0.267 0.107h5.333c1.307 0 2.44 0.547 3.107 1.493 0.653 0.92 0.787 2.133 0.36 3.307l-3.187 9.707c-0.493 1.933-2.547 3.493-4.693 3.493z"></path>
<path d="M7.174 28h-1.333c-2.467 0-3.667-1.16-3.667-3.533v-13.067c0-2.373 1.2-3.533 3.667-3.533h1.333c2.467 0 3.667 1.16 3.667 3.533v13.067c0 2.373-1.2 3.533-3.667 3.533zM5.841 9.867c-1.453 0-1.667 0.347-1.667 1.533v13.067c0 1.187 0.213 1.533 1.667 1.533h1.333c1.453 0 1.667-0.347 1.667-1.533v-13.067c0-1.187-0.213-1.533-1.667-1.533h-1.333z"></path>
</svg>
