<!-- Generated by IcoMoon.io -->
<svg version="1.1" xmlns="http://www.w3.org/2000/svg" width="32" height="32" viewBox="0 0 32 32">
<title>like-tag</title>
<path d="M18.972 21.48h-2.64c-0.613 0-1.507-0.187-2.027-0.707l-2.053-1.587 1.227-1.587 2.147 1.667c0.16 0.12 0.453 0.2 0.707 0.2h2.64c0.4 0 0.88-0.347 0.973-0.693l1.68-5.133c0.040-0.107 0.080-0.253 0.013-0.36-0.053-0.080-0.2-0.133-0.373-0.133h-2.773c-0.493 0-0.96-0.213-1.293-0.587-0.32-0.373-0.467-0.88-0.4-1.387l0.347-2.227c0.040-0.173-0.080-0.373-0.227-0.427-0.12-0.040-0.32 0.027-0.373 0.093l-2.84 4.227-1.667-1.12 2.84-4.227c0.56-0.84 1.747-1.227 2.707-0.867 1.080 0.36 1.773 1.56 1.533 2.68l-0.28 1.827h2.427c0.84 0 1.573 0.36 2.013 0.987 0.427 0.613 0.52 1.4 0.253 2.16l-1.653 5.040c-0.307 1.187-1.587 2.16-2.907 2.16z"></path>
<path d="M11.413 20.72h-0.693c-2.080 0-2.387-1.453-2.387-2.32v-6.787c0-0.867 0.307-2.32 2.387-2.32h0.693c2.080 0 2.387 1.453 2.387 2.32v6.787c0 0.867-0.307 2.32-2.387 2.32zM10.373 18.707c0.040 0 0.147 0.013 0.347 0.013h0.693c0.213 0 0.333-0.027 0.373-0.040 0-0.027 0.013-0.107 0.013-0.28v-6.787c0-0.173-0.013-0.267-0.027-0.293-0.027 0-0.133-0.013-0.36-0.013h-0.693c-0.213 0-0.333 0.027-0.373 0.040 0 0.027-0.013 0.107-0.013 0.28v6.787c0 0.173 0.013 0.267 0.027 0.307 0-0.013 0.013-0.013 0.013-0.013z"></path>
<path d="M16 30.333c-0.933 0-1.88-0.36-2.587-1.067l-2.28-2.253c-0.573-0.56-1.32-0.867-2.12-0.867h-1.013c-2.76 0-5-2.227-5-4.96v-14.547c0-2.733 2.24-4.96 5-4.96h16c2.76 0 5 2.227 5 4.96v14.547c0 2.733-2.24 4.96-5 4.96h-1.013c-0.8 0-1.56 0.307-2.12 0.867l-2.28 2.253c-0.707 0.707-1.653 1.067-2.587 1.067zM8 3.667c-1.653 0-3 1.333-3 2.96v14.547c0 1.64 1.347 2.96 3 2.96h1.013c1.333 0 2.587 0.52 3.533 1.453l2.28 2.253c0.653 0.64 1.707 0.64 2.36 0l2.28-2.253c0.947-0.933 2.2-1.453 3.533-1.453h1c1.653 0 3-1.333 3-2.96v-14.547c0-1.64-1.347-2.96-3-2.96h-16z"></path>
</svg>
