<!-- Generated by IcoMoon.io -->
<svg version="1.1" xmlns="http://www.w3.org/2000/svg" width="32" height="32" viewBox="0 0 32 32">
<title>link-circle</title>
<path d="M10.586 20.347c-0.12 0-0.227-0.013-0.347-0.067-1.080-0.4-1.987-1.187-2.56-2.213-1.333-2.4-0.507-5.533 1.827-6.987l3.12-1.933c1.147-0.707 2.493-0.92 3.773-0.587s2.36 1.173 3.013 2.347c1.333 2.4 0.507 5.533-1.827 6.987l-0.347 0.253c-0.453 0.32-1.080 0.213-1.4-0.227-0.32-0.453-0.213-1.080 0.227-1.4l0.413-0.293c1.493-0.933 2-2.867 1.187-4.347-0.387-0.693-1.013-1.187-1.76-1.387s-1.533-0.067-2.213 0.347l-3.12 1.933c-1.44 0.893-1.947 2.827-1.133 4.32 0.333 0.6 0.867 1.067 1.507 1.307 0.52 0.187 0.787 0.76 0.587 1.28-0.147 0.413-0.533 0.667-0.947 0.667z"></path>
<path d="M16.88 23.533c-0.4 0-0.813-0.053-1.213-0.16-1.28-0.333-2.36-1.173-3-2.347-1.333-2.4-0.507-5.533 1.827-6.987l0.347-0.253c0.453-0.32 1.080-0.213 1.4 0.227 0.32 0.453 0.213 1.080-0.227 1.4l-0.413 0.293c-1.493 0.933-2 2.867-1.187 4.347 0.387 0.693 1.013 1.187 1.76 1.387s1.533 0.067 2.213-0.347l3.12-1.933c1.44-0.893 1.947-2.827 1.133-4.32-0.333-0.6-0.867-1.067-1.507-1.307-0.52-0.187-0.787-0.76-0.587-1.28 0.187-0.52 0.76-0.787 1.28-0.587 1.080 0.4 1.987 1.187 2.56 2.213 1.333 2.4 0.507 5.533-1.827 6.987l-3.12 1.933c-0.787 0.48-1.667 0.733-2.56 0.733z"></path>
<path d="M16 30.333c-7.907 0-14.333-6.427-14.333-14.333s6.427-14.333 14.333-14.333c7.907 0 14.333 6.427 14.333 14.333s-6.427 14.333-14.333 14.333zM16 3.667c-6.8 0-12.333 5.533-12.333 12.333s5.533 12.333 12.333 12.333c6.8 0 12.333-5.533 12.333-12.333s-5.533-12.333-12.333-12.333z"></path>
</svg>
