<!-- Generated by IcoMoon.io -->
<svg version="1.1" xmlns="http://www.w3.org/2000/svg" width="32" height="32" viewBox="0 0 32 32">
<title>link-square</title>
<path d="M10.906 22.36c-0.027 0-0.067 0-0.093 0-1.293-0.12-2.507-0.72-3.413-1.68-2.133-2.24-2.133-5.88 0-8.12l2.92-3.067c1.040-1.093 2.44-1.707 3.933-1.707s2.893 0.6 3.933 1.707c2.133 2.24 2.133 5.88 0 8.12l-1.453 1.533c-0.387 0.4-1.013 0.413-1.413 0.040-0.4-0.387-0.413-1.013-0.040-1.413l1.453-1.533c1.413-1.48 1.413-3.893 0-5.36-1.32-1.387-3.64-1.387-4.973 0l-2.92 3.067c-1.413 1.48-1.413 3.893 0 5.36 0.573 0.613 1.347 0.987 2.16 1.067 0.547 0.053 0.947 0.547 0.893 1.093-0.040 0.507-0.48 0.893-0.987 0.893z"></path>
<path d="M17.747 24.213c-1.493 0-2.893-0.6-3.933-1.707-2.133-2.24-2.133-5.88 0-8.12l1.453-1.533c0.387-0.4 1.013-0.413 1.413-0.040 0.4 0.387 0.413 1.013 0.040 1.413l-1.453 1.533c-1.413 1.48-1.413 3.893 0 5.36 1.32 1.387 3.64 1.4 4.973 0l2.92-3.067c1.413-1.48 1.413-3.893 0-5.36-0.573-0.613-1.347-0.987-2.16-1.067-0.547-0.053-0.947-0.547-0.893-1.093s0.533-0.96 1.093-0.893c1.293 0.133 2.507 0.72 3.413 1.68 2.133 2.24 2.133 5.88 0 8.12l-2.92 3.067c-1.053 1.107-2.453 1.707-3.947 1.707z"></path>
<path d="M20 30.333h-8c-7.24 0-10.333-3.093-10.333-10.333v-8c0-7.24 3.093-10.333 10.333-10.333h8c7.24 0 10.333 3.093 10.333 10.333v8c0 7.24-3.093 10.333-10.333 10.333zM12 3.667c-6.147 0-8.333 2.187-8.333 8.333v8c0 6.147 2.187 8.333 8.333 8.333h8c6.147 0 8.333-2.187 8.333-8.333v-8c0-6.147-2.187-8.333-8.333-8.333h-8z"></path>
</svg>
