<!-- Generated by IcoMoon.io -->
<svg version="1.1" xmlns="http://www.w3.org/2000/svg" width="32" height="32" viewBox="0 0 32 32">
<title>link-2</title>
<path d="M11.986 28.667c-2.213 0-4.44-0.84-6.133-2.533-3.373-3.387-3.373-8.88 0-12.253 0.387-0.387 1.027-0.387 1.413 0s0.387 1.027 0 1.413c-2.6 2.6-2.6 6.827 0 9.427s6.827 2.6 9.427 0c1.253-1.253 1.947-2.933 1.947-4.72 0-1.773-0.693-3.453-1.947-4.72-0.387-0.387-0.387-1.027 0-1.413s1.027-0.387 1.413 0c1.64 1.64 2.533 3.813 2.533 6.133s-0.907 4.493-2.533 6.133c-1.68 1.693-3.893 2.533-6.12 2.533z"></path>
<path d="M25.427 18.88c-0.253 0-0.507-0.093-0.707-0.293-0.387-0.387-0.387-1.027 0-1.413 2.733-2.733 2.733-7.173 0-9.893-2.733-2.733-7.173-2.733-9.893 0-1.32 1.32-2.053 3.080-2.053 4.947s0.733 3.627 2.053 4.947c0.387 0.387 0.387 1.027 0 1.413s-1.027 0.387-1.413 0c-1.693-1.693-2.64-3.96-2.64-6.36s0.933-4.667 2.64-6.36c3.507-3.507 9.213-3.507 12.733 0 3.507 3.507 3.507 9.227 0 12.733-0.2 0.187-0.467 0.28-0.72 0.28z"></path>
</svg>
