<!-- Generated by IcoMoon.io -->
<svg version="1.1" xmlns="http://www.w3.org/2000/svg" width="32" height="32" viewBox="0 0 32 32">
<title>link-1</title>
<path d="M16.667 19.667h-3.333c-0.547 0-1-0.453-1-1s0.453-1 1-1h3.333c3.493 0 6.333-2.84 6.333-6.333s-2.84-6.333-6.333-6.333h-6.667c-3.493 0-6.333 2.84-6.333 6.333 0 1.467 0.52 2.893 1.453 4.027 0.347 0.427 0.293 1.053-0.133 1.413-0.427 0.347-1.053 0.293-1.413-0.133-1.24-1.493-1.92-3.373-1.92-5.307 0-4.6 3.733-8.333 8.333-8.333h6.667c4.6 0 8.333 3.733 8.333 8.333s-3.72 8.333-8.32 8.333z"></path>
<path d="M22 29h-6.667c-4.6 0-8.333-3.733-8.333-8.333s3.733-8.333 8.333-8.333h3.333c0.547 0 1 0.453 1 1s-0.453 1-1 1h-3.333c-3.493 0-6.333 2.84-6.333 6.333s2.84 6.333 6.333 6.333h6.667c3.493 0 6.333-2.84 6.333-6.333 0-1.467-0.52-2.893-1.453-4.027-0.347-0.427-0.293-1.053 0.133-1.413s1.053-0.293 1.413 0.133c1.24 1.493 1.92 3.373 1.92 5.307-0.013 4.6-3.747 8.333-8.347 8.333z"></path>
</svg>
