<!-- Generated by IcoMoon.io -->
<svg version="1.1" xmlns="http://www.w3.org/2000/svg" width="32" height="32" viewBox="0 0 32 32">
<title>link</title>
<path d="M10.333 24.667c-4.773 0-8.667-3.893-8.667-8.667s3.893-8.667 8.667-8.667c0.547 0 1 0.453 1 1s-0.453 1-1 1c-3.68 0-6.667 2.987-6.667 6.667s2.987 6.667 6.667 6.667c3.68 0 6.667-2.987 6.667-6.667 0-0.547 0.453-1 1-1s1 0.453 1 1c0 4.773-3.893 8.667-8.667 8.667z"></path>
<path d="M21.333 25c-0.547 0-1-0.453-1-1s0.453-1 1-1c3.853 0 7-3.147 7-7s-3.147-7-7-7c-3.853 0-7 3.147-7 7 0 0.547-0.453 1-1 1s-1-0.453-1-1c0-4.96 4.040-9 9-9s9 4.040 9 9c0 4.96-4.040 9-9 9z"></path>
</svg>
