<!-- Generated by IcoMoon.io -->
<svg version="1.1" xmlns="http://www.w3.org/2000/svg" width="32" height="32" viewBox="0 0 32 32">
<title>link-21</title>
<path d="M22 24.333h-2.013c-0.547 0-1-0.453-1-1s0.453-1 1-1h2.013c3.493 0 6.333-2.84 6.333-6.333s-2.84-6.333-6.333-6.333h-2c-0.547 0-1-0.453-1-1s0.44-1 1-1h2c4.6 0 8.333 3.733 8.333 8.333s-3.733 8.333-8.333 8.333z"></path>
<path d="M12 24.333h-2c-4.6 0-8.333-3.733-8.333-8.333s3.733-8.333 8.333-8.333h2c0.547 0 1 0.453 1 1s-0.453 1-1 1h-2c-3.493 0-6.333 2.84-6.333 6.333s2.84 6.333 6.333 6.333h2c0.547 0 1 0.453 1 1s-0.453 1-1 1z"></path>
<path d="M21.333 17h-10.667c-0.547 0-1-0.453-1-1s0.453-1 1-1h10.667c0.547 0 1 0.453 1 1s-0.453 1-1 1z"></path>
</svg>
