<!-- Generated by IcoMoon.io -->
<svg version="1.1" xmlns="http://www.w3.org/2000/svg" width="32" height="32" viewBox="0 0 32 32">
<title>location-slash</title>
<path d="M13.895 18.334c-0.173 0-0.347-0.040-0.507-0.133-1.573-0.92-2.547-2.627-2.547-4.44 0-2.84 2.307-5.16 5.16-5.16 1.827 0 3.533 0.973 4.453 2.56 0.28 0.48 0.12 1.093-0.36 1.373s-1.093 0.12-1.373-0.36c-0.56-0.987-1.6-1.587-2.72-1.587-1.733 0-3.16 1.413-3.16 3.16 0 1.12 0.6 2.16 1.56 2.72 0.48 0.28 0.64 0.893 0.36 1.373-0.187 0.307-0.52 0.493-0.867 0.493z"></path>
<path d="M7.988 24.747c-0.307 0-0.613-0.147-0.813-0.413-3.2-4.387-4.32-8.84-3.32-13.24 1.040-4.573 4.4-7.96 8.987-9.067 4.8-1.16 9.84 0.4 12.813 3.96 0.36 0.427 0.293 1.053-0.12 1.413-0.427 0.36-1.053 0.293-1.413-0.133-2.493-2.987-6.733-4.28-10.813-3.307-3.893 0.933-6.627 3.693-7.507 7.56-0.867 3.813 0.133 7.72 2.987 11.613 0.32 0.44 0.227 1.067-0.213 1.4-0.173 0.147-0.387 0.213-0.587 0.213z"></path>
<path d="M16 30.346c-1.973 0-3.96-0.747-5.507-2.227-0.4-0.387-0.413-1.013-0.027-1.413s1.013-0.413 1.413-0.027c2.307 2.227 5.92 2.227 8.227 0 3.56-3.427 7.507-8.84 6.093-15.12-0.12-0.533 0.213-1.080 0.76-1.2 0.533-0.12 1.080 0.213 1.2 0.76 1.627 7.187-2.72 13.213-6.653 17-1.547 1.48-3.533 2.227-5.507 2.227z"></path>
<path d="M2.666 30.333c-0.253 0-0.507-0.093-0.707-0.293-0.387-0.387-0.387-1.027 0-1.413l26.667-26.667c0.387-0.387 1.027-0.387 1.413 0s0.387 1.027 0 1.413l-26.667 26.667c-0.2 0.2-0.453 0.293-0.707 0.293z"></path>
</svg>
