<!-- Generated by IcoMoon.io -->
<svg version="1.1" xmlns="http://www.w3.org/2000/svg" width="32" height="32" viewBox="0 0 32 32">
<title>location-minus</title>
<path d="M19.667 15.667h-7.333c-0.547 0-1-0.453-1-1s0.453-1 1-1h7.333c0.547 0 1 0.453 1 1s-0.453 1-1 1z"></path>
<path d="M16 30.347c-1.973 0-3.96-0.747-5.507-2.227-3.933-3.787-8.28-9.827-6.64-17.013 1.48-6.52 7.173-9.44 12.147-9.44 0 0 0 0 0.013 0 4.973 0 10.667 2.92 12.147 9.453 1.627 7.187-2.72 13.213-6.653 17-1.547 1.48-3.533 2.227-5.507 2.227zM16 3.667c-3.88 0-8.867 2.067-10.187 7.88-1.44 6.28 2.507 11.693 6.080 15.12 2.307 2.227 5.92 2.227 8.227 0 3.56-3.427 7.507-8.84 6.093-15.12-1.333-5.813-6.333-7.88-10.213-7.88z"></path>
</svg>
