<!-- Generated by IcoMoon.io -->
<svg version="1.1" xmlns="http://www.w3.org/2000/svg" width="32" height="32" viewBox="0 0 32 32">
<title>location-cross</title>
<path d="M16 30.347c-1.973 0-3.96-0.747-5.507-2.227-3.933-3.787-8.28-9.827-6.64-17.013 1.48-6.52 7.173-9.44 12.147-9.44 0 0 0 0 0.013 0 4.973 0 10.667 2.92 12.147 9.453 1.627 7.187-2.72 13.213-6.653 17-1.547 1.48-3.533 2.227-5.507 2.227zM16 3.667c-3.88 0-8.867 2.067-10.187 7.88-1.44 6.28 2.507 11.693 6.080 15.12 2.307 2.227 5.92 2.227 8.227 0 3.56-3.427 7.507-8.84 6.093-15.12-1.333-5.813-6.333-7.88-10.213-7.88z"></path>
<path d="M18.667 18.28c-0.253 0-0.507-0.093-0.707-0.293l-5.28-5.28c-0.387-0.387-0.387-1.027 0-1.413s1.027-0.387 1.413 0l5.28 5.28c0.387 0.387 0.387 1.027 0 1.413-0.2 0.187-0.453 0.293-0.707 0.293z"></path>
<path d="M13.333 18.333c-0.253 0-0.507-0.093-0.707-0.293-0.387-0.387-0.387-1.027 0-1.413l5.28-5.28c0.387-0.387 1.027-0.387 1.413 0s0.387 1.027 0 1.413l-5.28 5.28c-0.2 0.2-0.453 0.293-0.707 0.293z"></path>
</svg>
