<!-- Generated by IcoMoon.io -->
<svg version="1.1" xmlns="http://www.w3.org/2000/svg" width="32" height="32" viewBox="0 0 32 32">
<title>lock-circle</title>
<path d="M20 15.667c-0.547 0-1-0.453-1-1v-1.333c0-1.947-0.48-3-3-3s-3 1.053-3 3v1.333c0 0.547-0.453 1-1 1s-1-0.453-1-1v-1.333c0-1.24 0-5 5-5s5 3.76 5 5v1.333c0 0.547-0.453 1-1 1z"></path>
<path d="M16.001 20.467c-0.987 0-1.8-0.813-1.8-1.8s0.813-1.8 1.8-1.8c0.987 0 1.8 0.813 1.8 1.8s-0.813 1.8-1.8 1.8zM16.001 18.467c-0.107 0-0.2 0.093-0.2 0.2 0 0.227 0.4 0.227 0.4 0 0-0.107-0.093-0.2-0.2-0.2z"></path>
<path d="M19.333 23.667h-6.667c-3.2 0-4.333-1.133-4.333-4.333v-1.333c0-3.2 1.133-4.333 4.333-4.333h6.667c3.2 0 4.333 1.133 4.333 4.333v1.333c0 3.2-1.133 4.333-4.333 4.333zM12.667 15.667c-2.12 0-2.333 0.213-2.333 2.333v1.333c0 2.12 0.213 2.333 2.333 2.333h6.667c2.12 0 2.333-0.213 2.333-2.333v-1.333c0-2.12-0.213-2.333-2.333-2.333h-6.667z"></path>
<path d="M16 30.333c-7.907 0-14.333-6.427-14.333-14.333s6.427-14.333 14.333-14.333c7.907 0 14.333 6.427 14.333 14.333s-6.427 14.333-14.333 14.333zM16 3.667c-6.8 0-12.333 5.533-12.333 12.333s5.533 12.333 12.333 12.333c6.8 0 12.333-5.533 12.333-12.333s-5.533-12.333-12.333-12.333z"></path>
</svg>
