<!-- Generated by IcoMoon.io -->
<svg version="1.1" xmlns="http://www.w3.org/2000/svg" width="32" height="32" viewBox="0 0 32 32">
<title>lock-slash</title>
<path d="M15.999 25.667c-1.36 0-2.613-0.613-3.44-1.693-0.333-0.44-0.253-1.067 0.187-1.4s1.067-0.253 1.4 0.187c0.44 0.587 1.12 0.907 1.853 0.907 1.28 0 2.333-1.053 2.333-2.333 0-0.52-0.16-1.013-0.48-1.413-0.333-0.44-0.253-1.067 0.187-1.4s1.067-0.253 1.4 0.187c0.587 0.76 0.893 1.667 0.893 2.627 0 2.387-1.947 4.333-4.333 4.333z"></path>
<path d="M22.667 30.333h-13.333c-0.493 0-0.96-0.013-1.4-0.040-0.547-0.027-0.973-0.507-0.947-1.053s0.493-0.947 1.053-0.947c0.4 0.027 0.827 0.027 1.28 0.027h13.333c4.76 0 5.667-0.907 5.667-5.667v-2.667c0-4.68-0.987-5.44-4.387-5.64-0.4-0.027-0.827-0.027-1.28-0.027h-13.32c-4.76 0-5.667 0.907-5.667 5.667v2.667c0 2.32 0.267 3.693 0.88 4.44 0.347 0.427 0.28 1.067-0.16 1.4-0.427 0.347-1.053 0.28-1.4-0.16-0.933-1.133-1.32-2.787-1.32-5.667v-2.667c0-5.88 1.787-7.667 7.667-7.667h13.333c0.493 0 0.96 0.013 1.387 0.040 5.28 0.293 6.28 2.907 6.28 7.627v2.667c0 5.88-1.787 7.667-7.667 7.667z"></path>
<path d="M8 14.333c-0.547 0-1-0.453-1-1v-2.667c0-3.867 0.933-9 9-9 5.427 0 8.24 1.773 8.853 5.587 0.093 0.547-0.28 1.053-0.827 1.147s-1.053-0.28-1.147-0.827c-0.333-2.027-1.387-3.907-6.88-3.907-5.813 0-7 2.8-7 7v2.667c0 0.547-0.453 1-1 1z"></path>
<path d="M2.666 30.333c-0.253 0-0.507-0.093-0.707-0.293-0.387-0.387-0.387-1.027 0-1.413l26.667-26.667c0.387-0.387 1.027-0.387 1.413 0s0.387 1.027 0 1.413l-26.667 26.667c-0.2 0.2-0.453 0.293-0.707 0.293z"></path>
</svg>
