<!-- Generated by IcoMoon.io -->
<svg version="1.1" xmlns="http://www.w3.org/2000/svg" width="32" height="32" viewBox="0 0 32 32">
<title>lock-1</title>
<path d="M24 14.333c-0.547 0-1-0.453-1-1v-2.667c0-4.2-1.187-7-7-7s-7 2.8-7 7v2.667c0 0.547-0.453 1-1 1s-1-0.453-1-1v-2.667c0-3.867 0.933-9 9-9s9 5.133 9 9v2.667c0 0.547-0.453 1-1 1z"></path>
<path d="M22.667 30.333h-13.333c-5.88 0-7.667-1.787-7.667-7.667v-2.667c0-5.88 1.787-7.667 7.667-7.667h13.333c5.88 0 7.667 1.787 7.667 7.667v2.667c0 5.88-1.787 7.667-7.667 7.667zM9.333 14.333c-4.773 0-5.667 0.907-5.667 5.667v2.667c0 4.76 0.893 5.667 5.667 5.667h13.333c4.773 0 5.667-0.907 5.667-5.667v-2.667c0-4.76-0.893-5.667-5.667-5.667h-13.333z"></path>
<path d="M10.667 22.667c-0.173 0-0.347-0.040-0.507-0.107-0.173-0.067-0.307-0.16-0.44-0.28-0.24-0.253-0.387-0.587-0.387-0.947 0-0.173 0.040-0.347 0.107-0.507 0.067-0.173 0.16-0.307 0.28-0.44 0.133-0.12 0.267-0.213 0.44-0.28 0.48-0.213 1.080-0.093 1.453 0.28 0.12 0.133 0.213 0.28 0.28 0.44s0.107 0.333 0.107 0.507c0 0.347-0.147 0.693-0.387 0.947-0.253 0.24-0.6 0.387-0.947 0.387z"></path>
<path d="M16 22.667c-0.347 0-0.693-0.147-0.947-0.387-0.24-0.253-0.387-0.587-0.387-0.947 0-0.173 0.027-0.347 0.107-0.507 0.067-0.16 0.16-0.307 0.28-0.44 0.307-0.307 0.773-0.453 1.2-0.36 0.093 0.013 0.173 0.040 0.253 0.080 0.080 0.027 0.16 0.067 0.24 0.12 0.067 0.040 0.133 0.107 0.2 0.16 0.12 0.133 0.213 0.28 0.28 0.44s0.107 0.333 0.107 0.507c0 0.36-0.147 0.693-0.387 0.947-0.067 0.053-0.133 0.107-0.2 0.16-0.080 0.053-0.16 0.093-0.24 0.12-0.080 0.040-0.16 0.067-0.253 0.080-0.080 0.013-0.173 0.027-0.253 0.027z"></path>
<path d="M21.333 22.667c-0.36 0-0.693-0.147-0.947-0.387-0.12-0.133-0.213-0.28-0.28-0.44s-0.107-0.333-0.107-0.507c0-0.347 0.147-0.693 0.387-0.947 0.067-0.053 0.133-0.107 0.2-0.16 0.080-0.053 0.16-0.093 0.24-0.12 0.080-0.040 0.16-0.067 0.24-0.080 0.44-0.093 0.893 0.053 1.213 0.36 0.24 0.253 0.387 0.587 0.387 0.947 0 0.173-0.040 0.347-0.107 0.507-0.067 0.173-0.16 0.307-0.28 0.44-0.253 0.24-0.6 0.387-0.947 0.387z"></path>
</svg>
