<!-- Generated by IcoMoon.io -->
<svg version="1.1" xmlns="http://www.w3.org/2000/svg" width="32" height="32" viewBox="0 0 32 32">
<title>login</title>
<path d="M20.321 29.693h-0.173c-5.92 0-8.773-2.333-9.267-7.56-0.053-0.547 0.347-1.040 0.907-1.093 0.547-0.053 1.040 0.36 1.093 0.907 0.387 4.187 2.36 5.747 7.28 5.747h0.173c5.427 0 7.347-1.92 7.347-7.347v-8.693c0-5.427-1.92-7.347-7.347-7.347h-0.173c-4.947 0-6.92 1.587-7.28 5.853-0.067 0.547-0.52 0.96-1.093 0.907-0.56-0.040-0.96-0.533-0.92-1.080 0.453-5.307 3.32-7.68 9.28-7.68h0.173c6.547 0 9.347 2.8 9.347 9.347v8.693c0 6.547-2.8 9.347-9.347 9.347z"></path>
<path d="M19.84 17h-17.173c-0.547 0-1-0.453-1-1s0.453-1 1-1h17.173c0.547 0 1 0.453 1 1s-0.44 1-1 1z"></path>
<path d="M16.866 21.467c-0.253 0-0.507-0.093-0.707-0.293-0.387-0.387-0.387-1.027 0-1.413l3.76-3.76-3.76-3.76c-0.387-0.387-0.387-1.027 0-1.413s1.027-0.387 1.413 0l4.467 4.467c0.387 0.387 0.387 1.027 0 1.413l-4.467 4.467c-0.2 0.2-0.453 0.293-0.707 0.293z"></path>
</svg>
