<!-- Generated by IcoMoon.io -->
<svg version="1.1" xmlns="http://www.w3.org/2000/svg" width="32" height="32" viewBox="0 0 32 32">
<title>logout-1</title>
<path d="M23.255 20.493c-0.253 0-0.507-0.093-0.707-0.293-0.387-0.387-0.387-1.027 0-1.413l2.707-2.707-2.707-2.707c-0.387-0.387-0.387-1.027 0-1.413s1.027-0.387 1.413 0l3.413 3.413c0.387 0.387 0.387 1.027 0 1.413l-3.413 3.413c-0.2 0.2-0.453 0.293-0.707 0.293z"></path>
<path d="M26.573 17.080h-13.56c-0.547 0-1-0.453-1-1s0.453-1 1-1h13.56c0.547 0 1 0.453 1 1s-0.453 1-1 1z"></path>
<path d="M15.68 27.667c-6.867 0-11.667-4.8-11.667-11.667s4.8-11.667 11.667-11.667c0.547 0 1 0.453 1 1s-0.453 1-1 1c-5.693 0-9.667 3.973-9.667 9.667s3.973 9.667 9.667 9.667c0.547 0 1 0.453 1 1s-0.453 1-1 1z"></path>
</svg>
