<!-- Generated by IcoMoon.io -->
<svg version="1.1" xmlns="http://www.w3.org/2000/svg" width="32" height="32" viewBox="0 0 32 32">
<title>lovely</title>
<path d="M14.56 26.333c-0.387 0-0.76-0.053-1.067-0.173-4.56-1.56-11.827-7.133-11.827-15.373 0-4.227 3.413-7.653 7.613-7.653 2.013 0 3.893 0.773 5.293 2.147 1.413-1.373 3.28-2.147 5.293-2.147 4.2 0 7.613 3.427 7.613 7.653 0 0.573-0.040 1.16-0.12 1.76-0.040 0.307-0.227 0.587-0.493 0.747s-0.6 0.173-0.893 0.053c-1.64-0.707-3.68-0.173-4.747 1.253-0.187 0.253-0.547 0.387-0.8 0.4-0.32 0-0.613-0.147-0.8-0.4-0.76-1.013-1.92-1.587-3.173-1.587-2.173 0-3.947 1.787-3.947 3.987 0 3.467 1.987 5.933 3.667 7.413 0.24 0.213 0.36 0.52 0.333 0.84s-0.2 0.6-0.48 0.773c-0.147 0.080-0.267 0.133-0.333 0.147-0.347 0.107-0.733 0.16-1.133 0.16zM9.28 5.133c-3.093 0-5.613 2.533-5.613 5.653 0 6.973 5.8 11.267 9.133 12.92-1.267-1.693-2.307-3.933-2.307-6.72 0-3.307 2.667-5.987 5.947-5.987 1.493 0 2.893 0.547 3.973 1.52 1.347-1.2 3.267-1.747 5.053-1.413 0-0.107 0-0.213 0-0.307 0-3.12-2.52-5.653-5.613-5.653-1.773 0-3.413 0.827-4.493 2.253-0.187 0.253-0.48 0.4-0.8 0.4s-0.613-0.147-0.8-0.4c-1.053-1.44-2.693-2.267-4.48-2.267z"></path>
<path d="M20.427 28.867c-0.307 0-0.627-0.040-0.88-0.133-1.147-0.387-3-1.333-4.693-2.84-1.973-1.747-4.333-4.707-4.333-8.907 0-3.307 2.667-5.987 5.947-5.987 1.493 0 2.893 0.547 3.973 1.52 1.68-1.507 4.24-1.933 6.347-1.013 2.16 0.96 3.56 3.12 3.56 5.493 0 6.32-5.547 10.56-9.040 11.747-0.267 0.080-0.573 0.12-0.88 0.12zM16.454 13c-2.173 0-3.947 1.787-3.947 3.987 0 3.467 1.987 5.933 3.667 7.413 1.48 1.307 3.040 2.12 4.013 2.44 0.107 0.040 0.36 0.040 0.453 0 2-0.68 7.693-3.947 7.693-9.853 0-1.587-0.933-3.027-2.36-3.653-1.613-0.707-3.68-0.173-4.747 1.253-0.187 0.253-0.547 0.387-0.8 0.4-0.32 0-0.613-0.147-0.8-0.4-0.76-1.013-1.92-1.587-3.173-1.587z"></path>
</svg>
