<!-- Generated by IcoMoon.io -->
<svg version="1.1" xmlns="http://www.w3.org/2000/svg" width="32" height="32" viewBox="0 0 32 32">
<title>magicpen</title>
<path d="M6.668 29.16c-0.987 0-1.96-0.373-2.707-1.12-0.72-0.72-1.12-1.68-1.12-2.707s0.4-1.987 1.12-2.707l17.333-17.333c1.493-1.493 3.92-1.493 5.413 0 0.72 0.72 1.12 1.68 1.12 2.707s-0.4 1.987-1.12 2.707l-17.333 17.333c-0.747 0.747-1.72 1.12-2.707 1.12zM24.001 6.173c-0.467 0-0.933 0.173-1.293 0.533l-17.333 17.333c-0.347 0.347-0.533 0.8-0.533 1.293s0.187 0.947 0.533 1.293c0.707 0.707 1.88 0.707 2.587 0l17.333-17.333c0.347-0.347 0.533-0.8 0.533-1.293s-0.187-0.947-0.533-1.293c-0.36-0.36-0.827-0.533-1.293-0.533z"></path>
<path d="M24.012 12.987c-0.253 0-0.507-0.093-0.707-0.293l-4-4c-0.387-0.387-0.387-1.027 0-1.413s1.027-0.387 1.413 0l4 4c0.387 0.387 0.387 1.027 0 1.413-0.2 0.2-0.453 0.293-0.707 0.293z"></path>
<path d="M13.332 7.333c-0.067 0-0.12-0.013-0.187-0.027l-1.813-0.533-1.813 0.533c-0.24 0.067-0.493 0-0.653-0.173-0.173-0.173-0.24-0.413-0.173-0.653l0.533-1.813-0.533-1.813c-0.067-0.24 0-0.493 0.173-0.653 0.173-0.173 0.427-0.24 0.653-0.173l1.813 0.533 1.813-0.533c0.24-0.067 0.48 0 0.653 0.173s0.24 0.427 0.173 0.653l-0.533 1.813 0.533 1.813c0.067 0.24 0 0.493-0.173 0.653-0.12 0.133-0.293 0.2-0.467 0.2zM11.332 5.413c0.067 0 0.12 0.013 0.187 0.027l0.827 0.24-0.24-0.827c-0.040-0.12-0.040-0.253 0-0.373l0.24-0.827-0.827 0.24c-0.12 0.040-0.253 0.040-0.373 0l-0.827-0.24 0.24 0.827c0.040 0.12 0.040 0.253 0 0.373l-0.24 0.827 0.827-0.24c0.067-0.013 0.12-0.027 0.187-0.027z"></path>
<path d="M7.999 15.333c-0.067 0-0.12-0.013-0.187-0.027l-1.813-0.533-1.813 0.533c-0.24 0.067-0.48 0-0.653-0.173s-0.24-0.427-0.173-0.653l0.533-1.813-0.533-1.813c-0.067-0.24 0-0.493 0.173-0.653s0.427-0.24 0.653-0.173l1.813 0.533 1.813-0.533c0.227-0.067 0.48 0 0.653 0.173s0.24 0.427 0.173 0.653l-0.533 1.813 0.533 1.813c0.067 0.24 0 0.493-0.173 0.653-0.12 0.133-0.293 0.2-0.467 0.2zM5.999 13.413c0.067 0 0.12 0.013 0.187 0.027l0.827 0.24-0.24-0.827c-0.040-0.12-0.040-0.253 0-0.373l0.24-0.827-0.827 0.24c-0.12 0.040-0.253 0.040-0.373 0l-0.827-0.24 0.24 0.827c0.040 0.12 0.040 0.253 0 0.373l-0.24 0.827 0.827-0.24c0.067-0.013 0.12-0.027 0.187-0.027z"></path>
<path d="M27.999 22c-0.067 0-0.12-0.013-0.187-0.027l-1.813-0.533-1.813 0.533c-0.24 0.067-0.48 0-0.653-0.173s-0.24-0.427-0.173-0.653l0.533-1.813-0.533-1.813c-0.067-0.24 0-0.493 0.173-0.653s0.427-0.24 0.653-0.173l1.813 0.533 1.813-0.533c0.227-0.067 0.48 0 0.653 0.173s0.24 0.427 0.173 0.653l-0.533 1.813 0.533 1.813c0.067 0.24 0 0.493-0.173 0.653-0.12 0.133-0.293 0.2-0.467 0.2zM25.999 20.080c0.067 0 0.12 0.013 0.187 0.027l0.827 0.24-0.24-0.827c-0.040-0.12-0.040-0.253 0-0.373l0.24-0.827-0.827 0.24c-0.12 0.040-0.253 0.040-0.373 0l-0.827-0.24 0.24 0.827c0.040 0.12 0.040 0.253 0 0.373l-0.24 0.827 0.827-0.24c0.067-0.013 0.12-0.027 0.187-0.027z"></path>
</svg>
