<!-- Generated by IcoMoon.io -->
<svg version="1.1" xmlns="http://www.w3.org/2000/svg" width="32" height="32" viewBox="0 0 32 32">
<title>magic-star</title>
<path d="M17.347 30c-0.8 0-2.040-0.387-3.227-2.333l-2.347-3.8c-0.227-0.373-0.92-0.733-1.347-0.707l-4.453 0.227c-2.667 0.133-3.6-0.973-3.933-1.64s-0.627-2.093 1.107-4.12l2.64-3.067c0.267-0.32 0.413-1.013 0.293-1.413l-1.347-4.307c-0.68-2.16 0.080-3.32 0.587-3.827s1.68-1.24 3.84-0.52l3.933 1.293c0.36 0.12 1.027 0.013 1.333-0.2l4.107-2.96c1.88-1.36 3.24-1 3.867-0.667s1.693 1.24 1.653 3.56l-0.093 5.053c-0.013 0.373 0.293 0.987 0.587 1.213l3.307 2.507c1.8 1.373 1.867 2.747 1.747 3.453s-0.653 1.987-2.813 2.653l-4.307 1.347c-0.4 0.12-0.893 0.64-1 1.040l-1.027 3.92c-0.68 2.573-2.013 3.147-2.76 3.253-0.093 0.027-0.213 0.040-0.347 0.040zM10.467 21.16c1.147 0 2.413 0.693 3 1.653l2.347 3.8c0.667 1.093 1.267 1.427 1.587 1.373 0.307-0.040 0.787-0.547 1.12-1.773l1.027-3.92c0.28-1.067 1.28-2.12 2.333-2.44l4.307-1.347c0.827-0.253 1.36-0.667 1.44-1.093s-0.293-0.987-0.987-1.52l-3.307-2.507c-0.813-0.613-1.4-1.84-1.387-2.853l0.093-5.053c0.013-0.893-0.2-1.56-0.587-1.76s-1.040-0-1.773 0.52l-4.107 2.96c-0.813 0.587-2.16 0.8-3.133 0.48l-3.933-1.293c-0.827-0.267-1.493-0.253-1.8 0.053s-0.333 0.973-0.080 1.8l1.347 4.307c0.333 1.053 0.040 2.48-0.68 3.307l-2.64 3.067c-0.84 0.973-0.973 1.653-0.827 1.933 0.133 0.28 0.773 0.587 2.040 0.52l4.453-0.227c0.053 0.013 0.107 0.013 0.147 0.013z"></path>
<path d="M29.214 30.334c-0.253 0-0.507-0.093-0.707-0.293l-4.040-4.040c-0.387-0.387-0.387-1.027 0-1.413s1.027-0.387 1.413 0l4.040 4.040c0.387 0.387 0.387 1.027 0 1.413-0.2 0.2-0.453 0.293-0.707 0.293z"></path>
</svg>
