<!-- Generated by IcoMoon.io -->
<svg version="1.1" xmlns="http://www.w3.org/2000/svg" width="32" height="32" viewBox="0 0 32 32">
<title>main-component</title>
<path d="M16 30.333c-1.56 0-3.013-0.6-4.107-1.693l-8.52-8.52c-1.093-1.093-1.693-2.56-1.693-4.107s0.6-3.013 1.693-4.107l8.52-8.52c1.093-1.093 2.56-1.693 4.107-1.693s3.013 0.6 4.107 1.693l8.52 8.52c1.093 1.093 1.693 2.56 1.693 4.107s-0.6 3.013-1.693 4.107l-8.52 8.52c-1.093 1.093-2.547 1.693-4.107 1.693zM16 3.667c-1.027 0-1.987 0.4-2.693 1.107l-8.52 8.52c-0.72 0.72-1.107 1.68-1.107 2.693s0.4 1.987 1.107 2.693l8.52 8.52c1.427 1.427 3.96 1.427 5.387 0l8.52-8.52c0.72-0.72 1.107-1.667 1.107-2.693s-0.4-1.987-1.107-2.693l-8.52-8.52c-0.707-0.707-1.667-1.107-2.693-1.107z"></path>
<path d="M23.666 24.667c-0.253 0-0.507-0.093-0.707-0.293l-15.333-15.333c-0.387-0.387-0.387-1.027 0-1.413s1.027-0.387 1.413 0l15.333 15.333c0.387 0.387 0.387 1.027 0 1.413-0.2 0.2-0.453 0.293-0.707 0.293z"></path>
<path d="M8.333 24.667c-0.253 0-0.507-0.093-0.707-0.293-0.387-0.387-0.387-1.027 0-1.413l15.333-15.333c0.387-0.387 1.027-0.387 1.413 0s0.387 1.027 0 1.413l-15.333 15.333c-0.2 0.2-0.453 0.293-0.707 0.293z"></path>
</svg>
