<!-- Generated by IcoMoon.io -->
<svg version="1.1" xmlns="http://www.w3.org/2000/svg" width="32" height="32" viewBox="0 0 32 32">
<title>man</title>
<path d="M13.667 29.667c-6.253 0-11.333-5.080-11.333-11.333s5.080-11.333 11.333-11.333c6.253 0 11.333 5.080 11.333 11.333s-5.080 11.333-11.333 11.333zM13.667 9c-5.147 0-9.333 4.187-9.333 9.333s4.187 9.333 9.333 9.333c5.147 0 9.333-4.187 9.333-9.333s-4.187-9.333-9.333-9.333z"></path>
<path d="M21.334 11.667c-0.253 0-0.507-0.093-0.707-0.293-0.387-0.387-0.387-1.027 0-1.413l7.333-7.333c0.387-0.387 1.027-0.387 1.413 0s0.387 1.027 0 1.413l-7.333 7.333c-0.2 0.2-0.453 0.293-0.707 0.293z"></path>
<path d="M28.667 13c-0.547 0-1-0.453-1-1v-7.667h-7.667c-0.547 0-1-0.453-1-1s0.453-1 1-1h8.667c0.547 0 1 0.453 1 1v8.667c0 0.547-0.453 1-1 1z"></path>
</svg>
