<!-- Generated by IcoMoon.io -->
<svg version="1.1" xmlns="http://www.w3.org/2000/svg" width="32" height="32" viewBox="0 0 32 32">
<title>map-1</title>
<path d="M27.173 28.173c-0.267 0-0.52-0.107-0.707-0.293l-8.507-8.507c-0.387-0.387-0.387-1.027 0-1.413l10.307-10.307c0.253-0.253 0.64-0.347 0.987-0.253 0.347 0.107 0.613 0.387 0.693 0.733 0.253 1.133 0.387 2.4 0.387 3.867v8c0 3.693-0.773 6.187-2.453 7.88-0.187 0.187-0.467 0.227-0.707 0.293zM20.079 18.667l7.013 7.013c0.84-1.293 1.24-3.133 1.24-5.68v-8c0-0.547-0.013-1.053-0.053-1.533l-8.2 8.2z"></path>
<path d="M8.36 29.973c-0.080 0-0.147-0.013-0.227-0.027-4.413-1.013-6.467-4.173-6.467-9.947v-8c0-7.24 3.093-10.333 10.333-10.333h8c5.773 0 8.933 2.053 9.947 6.467 0.080 0.333-0.027 0.693-0.267 0.933l-20.613 20.613c-0.187 0.187-0.44 0.293-0.707 0.293zM12 3.667c-6.147 0-8.333 2.187-8.333 8.333v8c0 4.627 1.28 6.947 4.387 7.867l19.8-19.8c-0.907-3.107-3.24-4.387-7.867-4.387h-7.987v-0.013z"></path>
<path d="M20.001 30.333h-8c-1.467 0-2.72-0.12-3.867-0.387-0.36-0.080-0.64-0.347-0.733-0.693-0.107-0.347 0-0.72 0.253-0.987l10.307-10.307c0.387-0.387 1.027-0.387 1.413 0l8.507 8.507c0.187 0.187 0.293 0.44 0.293 0.707s-0.107 0.52-0.293 0.707c-1.693 1.68-4.187 2.453-7.88 2.453zM10.467 28.28c0.48 0.040 0.987 0.053 1.533 0.053h8c2.56 0 4.387-0.4 5.68-1.24l-7.013-7.013-8.2 8.2z"></path>
<path d="M12.159 17.747c-0.84 0-1.68-0.307-2.347-0.933-2.12-2.013-2.973-4.227-2.467-6.387 0.507-2.213 2.44-3.707 4.813-3.707s4.307 1.493 4.813 3.707c0.493 2.173-0.36 4.373-2.48 6.387-0.653 0.613-1.493 0.933-2.333 0.933zM9.292 10.867c-0.427 1.813 0.8 3.44 1.907 4.493 0.547 0.52 1.387 0.52 1.92 0 1.093-1.040 2.32-2.667 1.907-4.493-0.36-1.587-1.773-2.16-2.867-2.16s-2.493 0.573-2.867 2.16z"></path>
<path d="M12.201 12.654c-0.733 0-1.333-0.6-1.333-1.333s0.587-1.333 1.333-1.333h0.013c0.733 0 1.333 0.6 1.333 1.333s-0.613 1.333-1.347 1.333z"></path>
</svg>
