<!-- Generated by IcoMoon.io -->
<svg version="1.1" xmlns="http://www.w3.org/2000/svg" width="32" height="32" viewBox="0 0 32 32">
<title>map</title>
<path d="M20.865 28.547c-0.573 0-1.147-0.12-1.613-0.347l-7-3.507c-0.4-0.2-1.187-0.187-1.573 0.040l-3.147 1.8c-1.36 0.773-2.76 0.88-3.813 0.253-1.067-0.613-1.667-1.867-1.667-3.44v-12.96c0-1.213 0.8-2.587 1.853-3.187l5.773-3.307c0.973-0.56 2.453-0.6 3.453-0.093l7 3.507c0.4 0.2 1.173 0.173 1.573-0.040l3.133-1.787c1.36-0.773 2.76-0.88 3.813-0.253 1.067 0.613 1.667 1.867 1.667 3.44v12.973c0 1.213-0.8 2.587-1.853 3.187l-5.773 3.307c-0.507 0.267-1.173 0.413-1.827 0.413zM11.519 22.56c0.573 0 1.147 0.12 1.613 0.347l7 3.507c0.4 0.2 1.173 0.173 1.573-0.040l5.773-3.307c0.427-0.24 0.84-0.96 0.84-1.44v-12.973c0-0.84-0.24-1.467-0.68-1.707-0.427-0.24-1.093-0.147-1.813 0.267l-3.133 1.787c-0.973 0.56-2.453 0.6-3.453 0.093l-7-3.507c-0.4-0.2-1.173-0.173-1.573 0.040l-5.773 3.307c-0.427 0.24-0.84 0.96-0.84 1.453v12.973c0 0.84 0.24 1.467 0.667 1.707 0.427 0.253 1.093 0.147 1.827-0.267l3.133-1.787c0.52-0.307 1.187-0.453 1.84-0.453z"></path>
<path d="M11.414 23.667c-0.547 0-1-0.453-1-1v-17.333c0-0.547 0.453-1 1-1s1 0.453 1 1v17.333c0 0.547-0.453 1-1 1z"></path>
<path d="M20.974 27.667c-0.547 0-1-0.453-1-1v-17.84c0-0.547 0.453-1 1-1s1 0.453 1 1v17.84c0 0.547-0.453 1-1 1z"></path>
</svg>
