<!-- Generated by IcoMoon.io -->
<svg version="1.1" xmlns="http://www.w3.org/2000/svg" width="32" height="32" viewBox="0 0 32 32">
<title>mask-1</title>
<path d="M6.573 26.427c-0.267 0-0.52-0.107-0.707-0.293-2.707-2.707-4.2-6.307-4.2-10.133 0-7.907 6.427-14.333 14.333-14.333 3.827 0 7.427 1.493 10.133 4.2 0.187 0.187 0.293 0.44 0.293 0.707s-0.107 0.52-0.293 0.707l-18.853 18.853c-0.187 0.187-0.44 0.293-0.707 0.293zM16 3.667c-6.8 0-12.333 5.533-12.333 12.333 0 2.96 1.040 5.76 2.933 7.987l17.387-17.387c-2.227-1.893-5.027-2.933-7.987-2.933z"></path>
<path d="M16 30.333c-3.827 0-7.427-1.493-10.133-4.2-0.187-0.187-0.293-0.44-0.293-0.707s0.107-0.52 0.293-0.707l18.853-18.853c0.387-0.387 1.027-0.387 1.413 0 2.707 2.707 4.2 6.307 4.2 10.133 0 7.907-6.427 14.333-14.333 14.333zM8.013 25.4c2.227 1.893 5.027 2.933 7.987 2.933 6.8 0 12.333-5.533 12.333-12.333 0-2.96-1.040-5.76-2.933-7.987l-17.387 17.387z"></path>
<path d="M17.879 30.2c-0.253 0-0.507-0.093-0.707-0.293l-7.547-7.547c-0.387-0.387-0.387-1.027 0-1.413s1.027-0.387 1.413 0l7.547 7.547c0.387 0.387 0.387 1.027 0 1.413-0.187 0.2-0.44 0.293-0.707 0.293z"></path>
<path d="M23.827 26.707c-0.253 0-0.507-0.093-0.707-0.293l-8.773-8.773c-0.387-0.387-0.387-1.027 0-1.413s1.027-0.387 1.413 0l8.773 8.773c0.387 0.387 0.387 1.027 0 1.413-0.2 0.2-0.453 0.293-0.707 0.293z"></path>
<path d="M28.159 21.627c-0.253 0-0.507-0.093-0.707-0.293l-8.387-8.387c-0.387-0.387-0.387-1.027 0-1.413s1.027-0.387 1.413 0l8.387 8.387c0.387 0.387 0.387 1.027 0 1.413-0.187 0.187-0.44 0.293-0.707 0.293z"></path>
</svg>
