<!-- Generated by IcoMoon.io -->
<svg version="1.1" xmlns="http://www.w3.org/2000/svg" width="32" height="32" viewBox="0 0 32 32">
<title>mask-2</title>
<path d="M16 30.333c-7.907 0-14.333-6.427-14.333-14.333s6.427-14.333 14.333-14.333c7.907 0 14.333 6.427 14.333 14.333s-6.427 14.333-14.333 14.333zM16 3.667c-6.8 0-12.333 5.533-12.333 12.333s5.533 12.333 12.333 12.333c6.8 0 12.333-5.533 12.333-12.333s-5.533-12.333-12.333-12.333z"></path>
<path d="M16 23.667c-0.547 0-1-0.453-1-1v-13.333c0-0.547 0.453-1 1-1 4.227 0 7.667 3.44 7.667 7.667s-3.44 7.667-7.667 7.667zM17 10.427v11.16c2.653-0.467 4.667-2.8 4.667-5.573s-2.013-5.12-4.667-5.587z"></path>
<path d="M16 23.667c-4.227 0-7.667-3.44-7.667-7.667s3.44-7.667 7.667-7.667c0.547 0 1 0.453 1 1v13.333c0 0.547-0.453 1-1 1zM15 10.427c-2.653 0.467-4.667 2.8-4.667 5.573s2.013 5.107 4.667 5.573v-11.147z"></path>
<path d="M16 30.333c-0.547 0-1-0.453-1-1v-6.667c0-0.547 0.453-1 1-1s1 0.453 1 1v6.667c0 0.547-0.453 1-1 1z"></path>
<path d="M16 10.333c-0.547 0-1-0.453-1-1v-6.667c0-0.547 0.453-1 1-1s1 0.453 1 1v6.667c0 0.547-0.453 1-1 1z"></path>
</svg>
