<!-- Generated by IcoMoon.io -->
<svg version="1.1" xmlns="http://www.w3.org/2000/svg" width="32" height="32" viewBox="0 0 32 32">
<title>mask</title>
<path d="M15.999 30.293c-7.88 0-14.293-6.413-14.293-14.293s6.413-14.293 14.293-14.293c3.533 0 6.92 1.307 9.533 3.667 3.027 2.68 4.76 6.56 4.76 10.627s-1.733 7.947-4.773 10.64c-2.6 2.36-5.987 3.653-9.52 3.653zM15.999 3.706c-6.787 0-12.293 5.52-12.293 12.293s5.52 12.293 12.293 12.293c3.040 0 5.947-1.12 8.2-3.16 2.613-2.32 4.107-5.64 4.107-9.147s-1.493-6.827-4.093-9.133c-2.267-2.027-5.173-3.147-8.213-3.147z"></path>
<path d="M13.919 25.213c-0.493 0-1.013-0.107-1.52-0.307-3.653-1.467-6.027-4.973-6.027-8.907s2.36-7.44 6.027-8.907c1.16-0.467 2.333-0.4 3.213 0.187 0.853 0.573 1.333 1.587 1.36 2.853v11.733c-0.013 1.267-0.493 2.293-1.36 2.853-0.493 0.333-1.080 0.493-1.693 0.493zM13.919 8.787c-0.24 0-0.507 0.053-0.773 0.16-2.907 1.16-4.773 3.933-4.773 7.053s1.867 5.893 4.773 7.053c0.533 0.213 1.040 0.213 1.36 0.013 0.373-0.253 0.453-0.8 0.467-1.213v-11.707c0-0.4-0.093-0.96-0.467-1.213-0.16-0.093-0.36-0.147-0.587-0.147z"></path>
</svg>
