<!-- Generated by IcoMoon.io -->
<svg version="1.1" xmlns="http://www.w3.org/2000/svg" width="32" height="32" viewBox="0 0 32 32">
<title>math</title>
<path d="M28.933 8.52h-9.693c-0.547 0-1-0.453-1-1s0.453-1 1-1h9.693c0.547 0 1 0.453 1 1s-0.453 1-1 1z"></path>
<path d="M12.774 8.52h-9.707c-0.547 0-1-0.453-1-1s0.453-1 1-1h9.693c0.547 0 1 0.453 1 1s-0.44 1-0.987 1z"></path>
<path d="M28.933 21.44h-9.693c-0.547 0-1-0.453-1-1s0.453-1 1-1h9.693c0.547 0 1 0.453 1 1s-0.453 1-1 1z"></path>
<path d="M28.933 29.52h-9.693c-0.547 0-1-0.453-1-1s0.453-1 1-1h9.693c0.547 0 1 0.453 1 1s-0.453 1-1 1z"></path>
<path d="M24.12 13.36c-0.547 0-1-0.453-1-1v-9.693c0-0.547 0.453-1 1-1s1 0.453 1 1v9.693c0 0.56-0.44 1-1 1z"></path>
<path d="M3.067 30.333c-0.253 0-0.507-0.093-0.707-0.293-0.387-0.387-0.387-1.027 0-1.413l9.693-9.693c0.387-0.387 1.027-0.387 1.413 0s0.387 1.027 0 1.413l-9.693 9.693c-0.187 0.2-0.44 0.293-0.707 0.293z"></path>
<path d="M12.773 30.333c-0.253 0-0.507-0.093-0.707-0.293l-9.693-9.693c-0.387-0.387-0.387-1.027 0-1.413s1.027-0.387 1.413 0l9.693 9.693c0.387 0.387 0.387 1.027 0 1.413-0.2 0.2-0.453 0.293-0.707 0.293z"></path>
</svg>
