<!-- Generated by IcoMoon.io -->
<svg version="1.1" xmlns="http://www.w3.org/2000/svg" width="32" height="32" viewBox="0 0 32 32">
<title>maximize-1</title>
<path d="M2.667 13c-0.547 0-1-0.453-1-1v-3.333c0-3.853 3.147-7 7-7h3.333c0.547 0 1 0.453 1 1s-0.453 1-1 1h-3.333c-2.76 0-5 2.24-5 5v3.333c0 0.547-0.453 1-1 1z"></path>
<path d="M29.333 13c-0.547 0-1-0.453-1-1v-3.333c0-2.76-2.24-5-5-5h-3.333c-0.547 0-1-0.453-1-1s0.453-1 1-1h3.333c3.853 0 7 3.147 7 7v3.333c0 0.547-0.453 1-1 1z"></path>
<path d="M23.333 30.333h-2c-0.547 0-1-0.453-1-1s0.453-1 1-1h2c2.76 0 5-2.24 5-5v-2c0-0.547 0.453-1 1-1s1 0.453 1 1v2c0 3.853-3.147 7-7 7z"></path>
<path d="M12 30.333h-3.333c-3.853 0-7-3.147-7-7v-3.333c0-0.547 0.453-1 1-1s1 0.453 1 1v3.333c0 2.76 2.24 5 5 5h3.333c0.547 0 1 0.453 1 1s-0.453 1-1 1z"></path>
<path d="M24 19.667c-0.547 0-1-0.453-1-1v-1.667h-14v1.667c0 0.547-0.453 1-1 1s-1-0.453-1-1v-5.333c0-0.547 0.453-1 1-1s1 0.453 1 1v1.667h14v-1.667c0-0.547 0.453-1 1-1s1 0.453 1 1v5.333c0 0.547-0.453 1-1 1z"></path>
<path d="M18.667 25h-5.333c-0.547 0-1-0.453-1-1s0.453-1 1-1h1.667v-14h-1.667c-0.547 0-1-0.453-1-1s0.453-1 1-1h5.333c0.547 0 1 0.453 1 1s-0.453 1-1 1h-1.667v14h1.667c0.547 0 1 0.453 1 1s-0.453 1-1 1z"></path>
</svg>
