<!-- Generated by IcoMoon.io -->
<svg version="1.1" xmlns="http://www.w3.org/2000/svg" width="32" height="32" viewBox="0 0 32 32">
<title>maximize-2</title>
<path d="M20 30.333h-1.333c-0.547 0-1-0.453-1-1s0.453-1 1-1h1.333c6.147 0 8.333-2.187 8.333-8.333v-8c0-6.147-2.187-8.333-8.333-8.333h-8c-6.147 0-8.333 2.187-8.333 8.333v1.307c0 0.547-0.453 1-1 1s-1-0.453-1-1v-1.307c0-7.24 3.093-10.333 10.333-10.333h8c7.24 0 10.333 3.093 10.333 10.333v8c0 7.24-3.093 10.333-10.333 10.333z"></path>
<path d="M17.333 15.667c-0.253 0-0.507-0.093-0.707-0.293-0.387-0.387-0.387-1.027 0-1.413l4.987-5h-2.947c-0.547 0-1-0.453-1-1s0.44-1 1-1h5.347c0.4 0 0.773 0.24 0.92 0.613 0.16 0.373 0.067 0.8-0.213 1.093l-6.68 6.707c-0.2 0.2-0.453 0.293-0.707 0.293z"></path>
<path d="M24.013 14.32c-0.547 0-1-0.453-1-1v-5.36c0-0.547 0.453-1 1-1s1 0.453 1 1v5.347c0 0.56-0.453 1.013-1 1.013z"></path>
<path d="M10.467 30.333h-3.6c-3.547 0-5.2-1.653-5.2-5.2v-3.6c0-3.547 1.653-5.2 5.2-5.2h3.6c3.547 0 5.2 1.653 5.2 5.2v3.6c0 3.547-1.653 5.2-5.2 5.2zM6.867 18.333c-2.453 0-3.2 0.747-3.2 3.2v3.6c0 2.453 0.747 3.2 3.2 3.2h3.6c2.453 0 3.2-0.747 3.2-3.2v-3.6c0-2.453-0.747-3.2-3.2-3.2h-3.6z"></path>
</svg>
