<!-- Generated by IcoMoon.io -->
<svg version="1.1" xmlns="http://www.w3.org/2000/svg" width="32" height="32" viewBox="0 0 32 32">
<title>maximize</title>
<path d="M20 30.333h-8c-7.24 0-10.333-3.093-10.333-10.333v-8c0-7.24 3.093-10.333 10.333-10.333h8c7.24 0 10.333 3.093 10.333 10.333v8c0 7.24-3.093 10.333-10.333 10.333zM12 3.667c-6.147 0-8.333 2.187-8.333 8.333v8c0 6.147 2.187 8.333 8.333 8.333h8c6.147 0 8.333-2.187 8.333-8.333v-8c0-6.147-2.187-8.333-8.333-8.333h-8z"></path>
<path d="M7.999 25c-0.253 0-0.507-0.093-0.707-0.293-0.387-0.387-0.387-1.027 0-1.413l16-16c0.387-0.387 1.027-0.387 1.413 0s0.387 1.027 0 1.413l-16 16c-0.2 0.2-0.453 0.293-0.707 0.293z"></path>
<path d="M24 14.333c-0.547 0-1-0.453-1-1v-4.333h-4.333c-0.547 0-1-0.453-1-1s0.453-1 1-1h5.333c0.547 0 1 0.453 1 1v5.333c0 0.547-0.453 1-1 1z"></path>
<path d="M13.333 25h-5.333c-0.547 0-1-0.453-1-1v-5.333c0-0.547 0.453-1 1-1s1 0.453 1 1v4.333h4.333c0.547 0 1 0.453 1 1s-0.453 1-1 1z"></path>
<path d="M23.999 25c-0.253 0-0.507-0.093-0.707-0.293l-16-16c-0.387-0.387-0.387-1.027 0-1.413s1.027-0.387 1.413 0l16 16c0.387 0.387 0.387 1.027 0 1.413-0.2 0.2-0.453 0.293-0.707 0.293z"></path>
<path d="M8 14.333c-0.547 0-1-0.453-1-1v-5.333c0-0.547 0.453-1 1-1h5.333c0.547 0 1 0.453 1 1s-0.453 1-1 1h-4.333v4.333c0 0.547-0.453 1-1 1z"></path>
<path d="M24 25h-5.333c-0.547 0-1-0.453-1-1s0.453-1 1-1h4.333v-4.333c0-0.547 0.453-1 1-1s1 0.453 1 1v5.333c0 0.547-0.453 1-1 1z"></path>
</svg>
