<!-- Generated by IcoMoon.io -->
<svg version="1.1" xmlns="http://www.w3.org/2000/svg" width="32" height="32" viewBox="0 0 32 32">
<title>maximize-4</title>
<path d="M28 13c-0.547 0-1-0.453-1-1v-7h-7c-0.547 0-1-0.453-1-1s0.453-1 1-1h8c0.547 0 1 0.453 1 1v8c0 0.547-0.453 1-1 1z"></path>
<path d="M12 29h-8c-0.547 0-1-0.453-1-1v-8c0-0.547 0.453-1 1-1s1 0.453 1 1v7h7c0.547 0 1 0.453 1 1s-0.453 1-1 1z"></path>
<path d="M17.999 15c-0.253 0-0.507-0.093-0.707-0.293-0.387-0.387-0.387-1.027 0-1.413l10-10c0.387-0.387 1.027-0.387 1.413 0s0.387 1.027 0 1.413l-10 10c-0.2 0.2-0.453 0.293-0.707 0.293z"></path>
<path d="M3.999 29c-0.253 0-0.507-0.093-0.707-0.293-0.387-0.387-0.387-1.027 0-1.413l10-10c0.387-0.387 1.027-0.387 1.413 0s0.387 1.027 0 1.413l-10 10c-0.2 0.2-0.453 0.293-0.707 0.293z"></path>
</svg>
