<!-- Generated by IcoMoon.io -->
<svg version="1.1" xmlns="http://www.w3.org/2000/svg" width="32" height="32" viewBox="0 0 32 32">
<title>medal</title>
<path d="M16 21c-5.52 0-10-4.333-10-9.667s4.48-9.667 10-9.667c5.52 0 10 4.333 10 9.667s-4.48 9.667-10 9.667zM16 3.667c-4.413 0-8 3.44-8 7.667s3.587 7.667 8 7.667c4.413 0 8-3.44 8-7.667s-3.587-7.667-8-7.667z"></path>
<path d="M20.827 30.333c-0.373 0-0.747-0.093-1.133-0.267l-3.587-1.693c-0.040-0.013-0.187-0.013-0.24 0l-3.56 1.68c-0.787 0.373-1.613 0.36-2.253-0.053-0.667-0.427-1.053-1.213-1.040-2.147l0.013-9.84c0-0.547 0.427-1.027 1-1 0.547 0 1 0.453 1 1l-0.013 9.84c0 0.293 0.080 0.44 0.12 0.453 0.027 0.013 0.147 0.027 0.333-0.067l3.573-1.693c0.573-0.267 1.36-0.267 1.933 0l3.587 1.693c0.187 0.093 0.307 0.080 0.333 0.067 0.040-0.027 0.12-0.173 0.12-0.453v-10.080c0-0.547 0.453-1 1-1s1 0.453 1 1v10.080c0 0.947-0.387 1.72-1.053 2.147-0.347 0.227-0.733 0.333-1.133 0.333z"></path>
</svg>
