<!-- Generated by IcoMoon.io -->
<svg version="1.1" xmlns="http://www.w3.org/2000/svg" width="32" height="32" viewBox="0 0 32 32">
<title>medal-star</title>
<path d="M16 22.333c-0.533 0-1.067-0.040-1.573-0.133-2.827-0.413-5.4-2.040-7.027-4.453-1.133-1.707-1.733-3.693-1.733-5.747 0-5.693 4.64-10.333 10.333-10.333s10.333 4.64 10.333 10.333c0 2.053-0.6 4.040-1.733 5.747-1.64 2.427-4.213 4.040-7.067 4.467-0.467 0.080-1 0.12-1.533 0.12zM16 3.667c-4.6 0-8.333 3.733-8.333 8.333 0 1.667 0.48 3.267 1.387 4.627 1.32 1.947 3.387 3.253 5.68 3.587 0.853 0.147 1.693 0.147 2.48 0 2.333-0.333 4.4-1.653 5.72-3.6 0.907-1.36 1.387-2.96 1.387-4.627 0.013-4.587-3.72-8.32-8.32-8.32z"></path>
<path d="M8.626 30.12c-0.187 0-0.36-0.027-0.547-0.067-0.867-0.2-1.533-0.867-1.733-1.733l-0.467-1.96c-0.027-0.12-0.12-0.213-0.253-0.253l-2.2-0.52c-0.827-0.2-1.48-0.813-1.707-1.627s0-1.693 0.6-2.293l5.2-5.2c0.213-0.213 0.507-0.32 0.8-0.293s0.56 0.187 0.733 0.44c1.32 1.947 3.387 3.267 5.693 3.6 0.853 0.147 1.693 0.147 2.48 0 2.333-0.333 4.4-1.653 5.72-3.6 0.16-0.253 0.44-0.413 0.733-0.44s0.587 0.080 0.8 0.293l5.2 5.2c0.6 0.6 0.827 1.48 0.6 2.293s-0.893 1.44-1.707 1.627l-2.2 0.52c-0.12 0.027-0.213 0.12-0.253 0.253l-0.467 1.96c-0.2 0.867-0.867 1.533-1.733 1.733-0.867 0.213-1.76-0.093-2.32-0.773l-5.6-6.44-5.6 6.453c-0.453 0.533-1.093 0.827-1.773 0.827zM8.119 18.707l-4.387 4.387c-0.12 0.12-0.107 0.253-0.080 0.333 0.013 0.067 0.080 0.2 0.24 0.227l2.2 0.52c0.867 0.2 1.533 0.867 1.733 1.733l0.467 1.96c0.040 0.173 0.173 0.227 0.253 0.253 0.080 0.013 0.213 0.027 0.333-0.107l5.107-5.88c-2.267-0.44-4.347-1.653-5.867-3.427zM18.012 22.12l5.107 5.867c0.12 0.147 0.267 0.147 0.347 0.12 0.080-0.013 0.2-0.080 0.253-0.253l0.467-1.96c0.2-0.867 0.867-1.533 1.733-1.733l2.2-0.52c0.16-0.040 0.227-0.16 0.24-0.227 0.027-0.067 0.040-0.213-0.080-0.333l-4.387-4.387c-1.533 1.773-3.6 2.987-5.88 3.427z"></path>
<path d="M18.521 17.187c-0.347 0-0.76-0.093-1.253-0.387l-1.267-0.76-1.267 0.747c-1.16 0.693-1.92 0.293-2.2 0.093s-0.88-0.8-0.573-2.12l0.32-1.373-1.067-0.987c-0.587-0.587-0.8-1.293-0.6-1.933s0.787-1.093 1.613-1.227l1.427-0.24 0.68-1.493c0.387-0.76 0.987-1.187 1.667-1.187s1.293 0.44 1.667 1.2l0.787 1.573 1.32 0.16c0.813 0.133 1.4 0.587 1.613 1.227 0.2 0.64-0.013 1.347-0.6 1.933l-1.107 1.107 0.347 1.24c0.307 1.32-0.293 1.92-0.573 2.12-0.147 0.12-0.467 0.307-0.933 0.307zM12.815 11.187l0.92 0.92c0.427 0.427 0.64 1.147 0.507 1.733l-0.253 1.067 1.067-0.627c0.573-0.333 1.347-0.333 1.907 0l1.067 0.627-0.24-1.067c-0.133-0.6 0.067-1.307 0.493-1.733l0.92-0.92-1.16-0.2c-0.56-0.093-1.12-0.507-1.373-1.013l-0.667-1.307-0.667 1.333c-0.24 0.493-0.8 0.92-1.36 1.013l-1.16 0.173z"></path>
</svg>
