<!-- Generated by IcoMoon.io -->
<svg version="1.1" xmlns="http://www.w3.org/2000/svg" width="32" height="32" viewBox="0 0 32 32">
<title>menu-board</title>
<path d="M21.841 30.334h-17.52c-1.267 0-2.44-0.587-3.2-1.613-0.773-1.040-1-2.347-0.613-3.587l5.613-18.040c0.507-1.68 2.053-2.827 3.813-2.827h16.4c1.613 0 3.067 0.96 3.68 2.453 0.333 0.773 0.4 1.653 0.2 2.52l-4.493 18.040c-0.427 1.8-2.027 3.053-3.88 3.053zM9.948 6.28c-0.867 0-1.653 0.573-1.907 1.413l-5.613 18.040c-0.187 0.627-0.080 1.28 0.32 1.813 0.373 0.507 0.96 0.8 1.587 0.8h17.52c0.92 0 1.72-0.627 1.933-1.52l4.493-18.053c0.107-0.44 0.080-0.88-0.093-1.267-0.32-0.76-1.027-1.24-1.84-1.24l-16.4 0.013z"></path>
<path d="M27.707 30.333h-6.373c-0.547 0-1-0.453-1-1s0.453-1 1-1h6.373c0.547 0 1.053-0.227 1.427-0.627s0.56-0.933 0.52-1.48l-1.32-18.16c-0.040-0.547 0.373-1.027 0.92-1.067 0.547-0.027 1.027 0.373 1.067 0.92l1.32 18.16c0.080 1.093-0.307 2.187-1.053 2.987-0.733 0.813-1.787 1.267-2.88 1.267z"></path>
<path d="M12.906 9.506c-0.080 0-0.16-0.013-0.24-0.027-0.533-0.133-0.867-0.667-0.733-1.213l1.387-5.76c0.133-0.533 0.667-0.867 1.213-0.733 0.533 0.133 0.867 0.667 0.733 1.213l-1.387 5.76c-0.107 0.453-0.52 0.76-0.973 0.76z"></path>
<path d="M21.839 9.52c-0.067 0-0.147-0-0.213-0.027-0.533-0.12-0.88-0.653-0.773-1.187l1.253-5.787c0.12-0.547 0.653-0.88 1.187-0.773s0.88 0.653 0.773 1.187l-1.253 5.787c-0.093 0.48-0.507 0.8-0.973 0.8z"></path>
<path d="M20.932 17h-10.667c-0.547 0-1-0.453-1-1s0.453-1 1-1h10.667c0.547 0 1 0.453 1 1s-0.453 1-1 1z"></path>
<path d="M19.599 22.333h-10.667c-0.547 0-1-0.453-1-1s0.453-1 1-1h10.667c0.547 0 1 0.453 1 1s-0.453 1-1 1z"></path>
</svg>
