<!-- Generated by IcoMoon.io -->
<svg version="1.1" xmlns="http://www.w3.org/2000/svg" width="32" height="32" viewBox="0 0 32 32">
<title>menu</title>
<path d="M23.387 12.080c-2.36 0-4.28-1.92-4.28-4.28s1.92-4.28 4.28-4.28c2.36 0 4.28 1.92 4.28 4.28s-1.92 4.28-4.28 4.28zM23.387 5.507c-1.253 0-2.28 1.027-2.28 2.28s1.027 2.28 2.28 2.28c1.253 0 2.28-1.027 2.28-2.28s-1.027-2.28-2.28-2.28z"></path>
<path d="M8.613 12.080c-2.36 0-4.28-1.92-4.28-4.28s1.92-4.28 4.28-4.28c2.36 0 4.28 1.92 4.28 4.28s-1.92 4.28-4.28 4.28zM8.613 5.507c-1.253 0-2.28 1.027-2.28 2.28s1.027 2.28 2.28 2.28c1.253 0 2.28-1.027 2.28-2.28s-1.013-2.28-2.28-2.28z"></path>
<path d="M23.387 28.494c-2.36 0-4.28-1.92-4.28-4.28s1.92-4.28 4.28-4.28c2.36 0 4.28 1.92 4.28 4.28s-1.92 4.28-4.28 4.28zM23.387 21.92c-1.253 0-2.28 1.027-2.28 2.28s1.027 2.28 2.28 2.28c1.253 0 2.28-1.027 2.28-2.28s-1.027-2.28-2.28-2.28z"></path>
<path d="M8.613 28.494c-2.36 0-4.28-1.92-4.28-4.28s1.92-4.28 4.28-4.28c2.36 0 4.28 1.92 4.28 4.28s-1.92 4.28-4.28 4.28zM8.613 21.92c-1.253 0-2.28 1.027-2.28 2.28s1.027 2.28 2.28 2.28c1.253 0 2.28-1.027 2.28-2.28s-1.013-2.28-2.28-2.28z"></path>
</svg>
