<!-- Generated by IcoMoon.io -->
<svg version="1.1" xmlns="http://www.w3.org/2000/svg" width="32" height="32" viewBox="0 0 32 32">
<title>message-programming</title>
<path d="M16 30.373c-0.92 0-1.787-0.467-2.4-1.28l-2-2.667c-0.040-0.053-0.2-0.12-0.267-0.133h-0.667c-5.56 0-9-1.507-9-9v-6.667c0-5.893 3.107-9 9-9h10.667c5.893 0 9 3.107 9 9v6.667c0 5.893-3.107 9-9 9h-0.667c-0.107 0-0.2 0.053-0.267 0.133l-2 2.667c-0.613 0.813-1.48 1.28-2.4 1.28zM10.667 3.626c-4.773 0-7 2.227-7 7v6.667c0 6.027 2.067 7 7 7h0.667c0.68 0 1.453 0.387 1.867 0.933l2 2.667c0.467 0.613 1.133 0.613 1.6 0l2-2.667c0.44-0.587 1.133-0.933 1.867-0.933h0.667c4.773 0 7-2.227 7-7v-6.667c0-4.773-2.227-7-7-7h-10.667z"></path>
<path d="M10.666 17.933c-0.253 0-0.507-0.093-0.707-0.293l-2.667-2.667c-0.387-0.387-0.387-1.027 0-1.413l2.667-2.667c0.387-0.387 1.027-0.387 1.413 0s0.387 1.027 0 1.413l-1.96 1.96 1.96 1.96c0.387 0.387 0.387 1.027 0 1.413-0.2 0.2-0.453 0.293-0.707 0.293z"></path>
<path d="M21.333 17.933c-0.253 0-0.507-0.093-0.707-0.293-0.387-0.387-0.387-1.027 0-1.413l1.96-1.96-1.96-1.96c-0.387-0.387-0.387-1.027 0-1.413s1.027-0.387 1.413 0l2.667 2.667c0.387 0.387 0.387 1.027 0 1.413l-2.667 2.667c-0.2 0.2-0.453 0.293-0.707 0.293z"></path>
<path d="M14.667 18.373c-0.133 0-0.267-0.027-0.4-0.080-0.507-0.213-0.747-0.8-0.52-1.32l2.667-6.227c0.213-0.507 0.8-0.747 1.32-0.52 0.507 0.213 0.747 0.8 0.52 1.32l-2.667 6.227c-0.16 0.373-0.533 0.6-0.92 0.6z"></path>
</svg>
