<!-- Generated by IcoMoon.io -->
<svg version="1.1" xmlns="http://www.w3.org/2000/svg" width="32" height="32" viewBox="0 0 32 32">
<title>message-tick</title>
<path d="M21.333 29.76c-0.453 0-0.893-0.133-1.28-0.387l-5.68-3.787h-2.52c-0.307 0-0.6-0.147-0.787-0.387-0.187-0.253-0.253-0.573-0.173-0.867 0.080-0.32 0.12-0.64 0.12-0.987 0-1.067-0.4-2.093-1.12-2.893-0.813-0.92-1.973-1.44-3.213-1.44-1.187 0-2.28 0.467-3.107 1.307-0.253 0.267-0.64 0.36-0.987 0.267-0.347-0.107-0.627-0.387-0.707-0.747-0.133-0.587-0.2-1.227-0.2-1.92v-8c0-4.587 3.080-7.667 7.667-7.667h13.333c4.587 0 7.667 3.080 7.667 7.667v8c0 2.227-0.733 4.147-2.133 5.547-1.173 1.173-2.733 1.88-4.533 2.067v1.893c0 0.867-0.48 1.653-1.24 2.067-0.36 0.173-0.733 0.267-1.107 0.267zM13 23.573h1.667c0.2 0 0.387 0.053 0.56 0.173l5.933 3.96c0.147 0.093 0.267 0.053 0.333 0.013s0.187-0.12 0.187-0.307v-2.84c0-0.547 0.453-1 1-1 1.693 0 3.12-0.533 4.12-1.533 1.013-1.013 1.547-2.44 1.547-4.133v-8c0-3.44-2.227-5.667-5.667-5.667h-13.333c-3.44 0-5.667 2.227-5.667 5.667v7.84c0.907-0.493 1.933-0.747 3-0.747 1.813 0 3.533 0.773 4.707 2.107 1.040 1.16 1.627 2.653 1.627 4.227-0.013 0.080-0.013 0.16-0.013 0.24z"></path>
<path d="M6.667 29.667c-2.213 0-4.293-1.173-5.413-3.080-0.6-0.96-0.92-2.093-0.92-3.253 0-1.947 0.867-3.747 2.373-4.947 1.12-0.893 2.533-1.387 3.96-1.387 3.493 0 6.333 2.84 6.333 6.333 0 1.16-0.32 2.293-0.92 3.267-0.333 0.56-0.76 1.067-1.267 1.493-1.107 1.013-2.587 1.573-4.147 1.573zM6.667 19c-0.987 0-1.92 0.333-2.707 0.96-1.027 0.813-1.627 2.053-1.627 3.373 0 0.787 0.213 1.56 0.627 2.227 0.773 1.307 2.2 2.107 3.707 2.107 1.053 0 2.067-0.387 2.84-1.080 0.347-0.293 0.64-0.64 0.853-1.013 0.427-0.68 0.64-1.453 0.64-2.24 0-2.387-1.947-4.333-4.333-4.333z"></path>
<path d="M5.905 25.653c-0.253 0-0.507-0.093-0.707-0.293l-1.32-1.32c-0.387-0.387-0.387-1.027 0-1.413s1.027-0.387 1.413 0l0.64 0.64 2.133-1.973c0.4-0.373 1.040-0.347 1.413 0.053s0.347 1.040-0.053 1.413l-2.84 2.627c-0.2 0.173-0.44 0.267-0.68 0.267z"></path>
<path d="M20.667 15h-9.333c-0.547 0-1-0.453-1-1s0.453-1 1-1h9.333c0.547 0 1 0.453 1 1s-0.453 1-1 1z"></path>
</svg>
