<!-- Generated by IcoMoon.io -->
<svg version="1.1" xmlns="http://www.w3.org/2000/svg" width="32" height="32" viewBox="0 0 32 32">
<title>message-search</title>
<path d="M16 30.373c-0.92 0-1.787-0.467-2.4-1.28l-2-2.667c-0.040-0.053-0.2-0.133-0.28-0.133h-0.653c-5.56 0-9-1.507-9-9v-6.667c0-5.893 3.107-9 9-9h10.667c5.893 0 9 3.107 9 9v6.667c0 0.547-0.453 1-1 1s-1-0.453-1-1v-6.667c0-4.773-2.227-7-7-7h-10.667c-4.773 0-7 2.227-7 7v6.667c0 6.027 2.067 7 7 7h0.667c0.68 0 1.467 0.387 1.867 0.933l2 2.667c0.467 0.613 1.133 0.613 1.6 0 0.333-0.44 0.96-0.533 1.4-0.2s0.533 0.96 0.2 1.4c-0.613 0.813-1.48 1.28-2.4 1.28z"></path>
<path d="M16 15.96c-0.747 0-1.333-0.6-1.333-1.333s0.6-1.333 1.333-1.333c0.733 0 1.333 0.6 1.333 1.333s-0.587 1.333-1.333 1.333z"></path>
<path d="M21.333 15.96c-0.747 0-1.333-0.6-1.333-1.333s0.6-1.333 1.333-1.333c0.733 0 1.333 0.6 1.333 1.333s-0.587 1.333-1.333 1.333z"></path>
<path d="M10.667 15.96c-0.747 0-1.333-0.6-1.333-1.333s0.6-1.333 1.333-1.333c0.733 0 1.333 0.6 1.333 1.333s-0.587 1.333-1.333 1.333z"></path>
<path d="M24.267 29.533c-2.907 0-5.267-2.36-5.267-5.267s2.36-5.267 5.267-5.267c2.907 0 5.267 2.36 5.267 5.267s-2.36 5.267-5.267 5.267zM24.267 21c-1.8 0-3.267 1.467-3.267 3.267s1.467 3.267 3.267 3.267c1.8 0 3.267-1.467 3.267-3.267s-1.467-3.267-3.267-3.267z"></path>
<path d="M29.333 30.333c-0.253 0-0.507-0.093-0.707-0.293l-1.333-1.333c-0.387-0.387-0.387-1.027 0-1.413s1.027-0.387 1.413 0l1.333 1.333c0.387 0.387 0.387 1.027 0 1.413-0.2 0.2-0.453 0.293-0.707 0.293z"></path>
</svg>
