<!-- Generated by IcoMoon.io -->
<svg version="1.1" xmlns="http://www.w3.org/2000/svg" width="32" height="32" viewBox="0 0 32 32">
<title>messages-3</title>
<path d="M22.533 25.346c-0.413 0-0.827-0.12-1.187-0.36l-1.28-0.84c-0.36-0.24-0.533-0.693-0.413-1.107 0.093-0.307 0.133-0.667 0.133-1.067v-5.427c0-2.173-1.36-3.533-3.533-3.533h-9.053c-0.16 0-0.307 0.013-0.453 0.027-0.28 0.013-0.547-0.080-0.76-0.267s-0.32-0.453-0.32-0.733v-3.693c0-3.92 2.747-6.667 6.667-6.667h11.333c3.92 0 6.667 2.747 6.667 6.667v6.8c0 1.933-0.653 3.64-1.853 4.813-0.96 0.973-2.293 1.6-3.813 1.787v1.48c0 0.8-0.44 1.52-1.133 1.893-0.32 0.147-0.667 0.227-1 0.227zM21.733 22.84l0.867 0.493c0.080-0.040 0.080-0.107 0.080-0.12v-2.413c0-0.547 0.453-1 1-1 1.4 0 2.587-0.44 3.4-1.267 0.84-0.827 1.267-2 1.267-3.4v-6.8c0-2.84-1.827-4.667-4.667-4.667h-11.333c-2.84 0-4.667 1.827-4.667 4.667v2.667h8.587c3.253 0 5.533 2.28 5.533 5.533v5.427c-0.013 0.307-0.027 0.6-0.067 0.88z"></path>
<path d="M8.093 30.333c-0.293 0-0.6-0.067-0.88-0.213-0.627-0.333-1.013-0.973-1.013-1.693v-1.013c-1.173-0.187-2.213-0.68-2.987-1.453-1.013-1.013-1.547-2.4-1.547-4v-5.427c0-3.013 1.973-5.227 4.907-5.507 0.213-0.013 0.413-0.027 0.627-0.027h9.053c3.253 0 5.533 2.28 5.533 5.533v5.427c0 0.587-0.067 1.133-0.213 1.627-0.6 2.4-2.64 3.907-5.32 3.907h-3.32l-3.773 2.507c-0.32 0.227-0.693 0.333-1.067 0.333zM7.2 13c-0.16 0-0.307 0.013-0.453 0.027-1.92 0.173-3.080 1.493-3.080 3.507v5.427c0 1.067 0.333 1.96 0.96 2.587 0.613 0.613 1.507 0.947 2.573 0.947 0.547 0 1 0.453 1 1v1.747l3.867-2.573c0.16-0.107 0.36-0.173 0.56-0.173h3.627c1.76 0 3-0.88 3.387-2.427 0.093-0.333 0.147-0.707 0.147-1.107v-5.427c0-2.173-1.36-3.533-3.533-3.533h-9.053z"></path>
</svg>
