<!-- Generated by IcoMoon.io -->
<svg version="1.1" xmlns="http://www.w3.org/2000/svg" width="32" height="32" viewBox="0 0 32 32">
<title>message-edit</title>
<path d="M21.333 30.333h-17.333c-1.28 0-2.333-1.053-2.333-2.333v-17.333c0-5.893 3.107-9 9-9h10.667c5.893 0 9 3.107 9 9v10.667c0 5.893-3.107 9-9 9zM10.667 3.667c-4.773 0-7 2.227-7 7v17.333c0 0.187 0.147 0.333 0.333 0.333h17.333c4.773 0 7-2.227 7-7v-10.667c0-4.773-2.227-7-7-7h-10.667z"></path>
<path d="M10.6 23.666c-0.627 0-1.2-0.227-1.627-0.64-0.507-0.507-0.733-1.227-0.613-2l0.373-2.64c0.080-0.573 0.44-1.307 0.853-1.72l6.92-6.92c2.373-2.373 4.44-1.307 5.747 0 1.027 1.027 1.493 2.107 1.387 3.187-0.080 0.88-0.547 1.707-1.387 2.56l-6.92 6.92c-0.413 0.413-1.133 0.773-1.72 0.867l-2.64 0.373c-0.12 0-0.253 0.013-0.373 0.013zM19.373 10.333c-0.493 0-0.933 0.32-1.44 0.813l-6.92 6.92c-0.107 0.107-0.267 0.44-0.293 0.587l-0.373 2.64c-0.013 0.133-0 0.253 0.053 0.307s0.173 0.067 0.307 0.053l2.64-0.373c0.16-0.027 0.48-0.187 0.587-0.293l6.92-6.92c0.507-0.507 0.773-0.947 0.813-1.347 0.040-0.453-0.227-0.987-0.813-1.573-0.587-0.56-1.053-0.813-1.48-0.813z"></path>
<path d="M20.559 16.773c-0.093 0-0.187-0.013-0.267-0.040-2.413-0.68-4.347-2.6-5.027-5.027-0.147-0.533 0.16-1.080 0.693-1.24 0.533-0.147 1.080 0.16 1.227 0.693 0.493 1.747 1.893 3.147 3.64 3.64 0.533 0.147 0.84 0.707 0.693 1.24-0.12 0.44-0.52 0.733-0.96 0.733z"></path>
</svg>
