<!-- Generated by IcoMoon.io -->
<svg version="1.1" xmlns="http://www.w3.org/2000/svg" width="32" height="32" viewBox="0 0 32 32">
<title>message-favorite</title>
<path d="M16 30.413c-0.92 0-1.787-0.467-2.4-1.28l-2-2.667c-0.040-0.053-0.2-0.133-0.28-0.133h-0.653c-5.56 0-9-1.507-9-9v-6.667c0-5.893 3.107-9 9-9h5.333c0.547 0 1 0.453 1 1s-0.453 1-1 1h-5.333c-4.773 0-7 2.227-7 7v6.667c0 6.027 2.067 7 7 7h0.667c0.68 0 1.453 0.387 1.867 0.933l2 2.667c0.467 0.613 1.133 0.613 1.6 0l2-2.667c0.44-0.587 1.133-0.933 1.867-0.933h0.667c4.773 0 7-2.227 7-7v-6.667c0-0.547 0.453-1 1-1s1 0.453 1 1v6.667c0 5.893-3.107 9-9 9h-0.667c-0.107 0-0.2 0.053-0.267 0.133l-2 2.667c-0.613 0.813-1.48 1.28-2.4 1.28z"></path>
<path d="M16 16c-0.747 0-1.333-0.6-1.333-1.333s0.6-1.333 1.333-1.333c0.733 0 1.333 0.6 1.333 1.333s-0.587 1.333-1.333 1.333z"></path>
<path d="M21.333 16c-0.747 0-1.333-0.6-1.333-1.333s0.6-1.333 1.333-1.333c0.733 0 1.333 0.6 1.333 1.333s-0.587 1.333-1.333 1.333z"></path>
<path d="M10.667 16c-0.747 0-1.333-0.6-1.333-1.333s0.6-1.333 1.333-1.333c0.733 0 1.333 0.6 1.333 1.333s-0.587 1.333-1.333 1.333z"></path>
<path d="M24.001 10.333c-1.147 0-3.853-1.36-4.68-3.853-0.333-0.987-0.253-2.12 0.213-3.013 0.413-0.8 1.107-1.387 1.96-1.653 0.867-0.267 1.787-0.147 2.507 0.293 0.72-0.44 1.64-0.56 2.52-0.293 0.853 0.267 1.547 0.853 1.96 1.653 0.467 0.893 0.547 2.027 0.213 3.013-0.84 2.533-3.667 3.853-4.693 3.853zM21.214 5.84c0.56 1.68 2.467 2.453 2.813 2.493 0.387-0.040 2.253-0.907 2.773-2.48 0.16-0.48 0.12-1.053-0.093-1.467-0.173-0.333-0.427-0.547-0.773-0.653-0.373-0.133-0.88-0.067-1.107 0.267-0.187 0.267-0.48 0.427-0.8 0.44-0.32 0-0.627-0.147-0.827-0.4-0.28-0.36-0.773-0.413-1.133-0.307-0.347 0.107-0.6 0.32-0.773 0.653-0.2 0.413-0.24 0.973-0.080 1.453z"></path>
</svg>
