<!-- Generated by IcoMoon.io -->
<svg version="1.1" xmlns="http://www.w3.org/2000/svg" width="32" height="32" viewBox="0 0 32 32">
<title>message-remove</title>
<path d="M21.333 29.76c-0.453 0-0.893-0.133-1.28-0.387l-5.68-3.787h-2.52c-0.307 0-0.6-0.147-0.787-0.387-0.187-0.253-0.253-0.573-0.173-0.867 0.080-0.32 0.12-0.64 0.12-0.987 0-1.067-0.4-2.093-1.12-2.893-0.813-0.92-1.973-1.44-3.213-1.44-1.187 0-2.293 0.467-3.107 1.307-0.253 0.267-0.64 0.373-0.987 0.267s-0.627-0.387-0.707-0.747c-0.133-0.587-0.2-1.227-0.2-1.92v-8c0-4.587 3.080-7.667 7.667-7.667h13.333c4.587 0 7.667 3.080 7.667 7.667v8c0 2.227-0.733 4.147-2.133 5.547-1.173 1.173-2.733 1.88-4.533 2.067v1.893c0 0.867-0.48 1.653-1.24 2.067-0.36 0.173-0.733 0.267-1.107 0.267zM13 23.573h1.667c0.2 0 0.387 0.053 0.56 0.173l5.933 3.96c0.133 0.093 0.267 0.053 0.333 0.013s0.187-0.12 0.187-0.307v-2.84c0-0.547 0.453-1 1-1 1.693 0 3.12-0.533 4.12-1.533 1.013-1.013 1.547-2.44 1.547-4.133v-8c0-3.44-2.227-5.667-5.667-5.667h-13.333c-3.44 0-5.667 2.227-5.667 5.667v7.84c0.907-0.493 1.933-0.747 3-0.747 1.813 0 3.533 0.773 4.707 2.107 1.040 1.16 1.627 2.667 1.627 4.227-0.013 0.080-0.013 0.16-0.013 0.24z"></path>
<path d="M6.667 29.667c-1.573 0-3.067-0.587-4.227-1.64-0.467-0.4-0.88-0.893-1.2-1.44-0.587-0.96-0.907-2.093-0.907-3.253 0-1.667 0.64-3.227 1.787-4.413 1.2-1.24 2.813-1.92 4.547-1.92 1.813 0 3.533 0.773 4.707 2.107 1.040 1.16 1.627 2.667 1.627 4.227 0 0.507-0.067 1.013-0.2 1.493-0.133 0.6-0.387 1.227-0.733 1.773-1.107 1.893-3.187 3.067-5.4 3.067zM6.667 19c-1.187 0-2.293 0.467-3.107 1.307-0.787 0.813-1.227 1.88-1.227 3.027 0 0.787 0.213 1.56 0.627 2.227 0.213 0.373 0.493 0.707 0.813 0.987 0.8 0.733 1.827 1.133 2.893 1.133 1.533 0 2.92-0.787 3.707-2.093 0.24-0.373 0.4-0.787 0.493-1.213 0.093-0.347 0.133-0.68 0.133-1.027 0-1.067-0.4-2.093-1.12-2.893-0.8-0.933-1.973-1.453-3.213-1.453z"></path>
<path d="M8.094 25.72c-0.253 0-0.507-0.093-0.707-0.293l-2.813-2.813c-0.387-0.387-0.387-1.027 0-1.413s1.027-0.387 1.413 0l2.813 2.813c0.387 0.387 0.387 1.027 0 1.413-0.2 0.2-0.453 0.293-0.707 0.293z"></path>
<path d="M5.241 25.76c-0.253 0-0.507-0.093-0.707-0.293-0.387-0.387-0.387-1.027 0-1.413l2.813-2.813c0.387-0.387 1.027-0.387 1.413 0s0.387 1.027 0 1.413l-2.813 2.813c-0.2 0.2-0.453 0.293-0.707 0.293z"></path>
<path d="M20.667 15h-9.333c-0.547 0-1-0.453-1-1s0.453-1 1-1h9.333c0.547 0 1 0.453 1 1s-0.453 1-1 1z"></path>
</svg>
