<!-- Generated by IcoMoon.io -->
<svg version="1.1" xmlns="http://www.w3.org/2000/svg" width="32" height="32" viewBox="0 0 32 32">
<title>message-circle</title>
<path d="M16 24.413c-0.627 0-1.227-0.32-1.64-0.867l-0.96-1.28h-0.2c-2.693 0-5.2-0.627-5.2-5.2v-3.507c0-3.080 1.587-4.907 4.453-5.16 0.213-0.027 0.467-0.040 0.747-0.040h5.6c3.347 0 5.2 1.84 5.2 5.2v3.507c0 0.267-0.013 0.533-0.040 0.773-0.24 2.827-2.067 4.413-5.147 4.413h-0.2l-0.96 1.28c-0.427 0.573-1.027 0.88-1.653 0.88zM13.2 10.387c-0.187 0-0.36 0-0.533 0.027-1.88 0.16-2.667 1.107-2.667 3.173v3.507c0 2.76 0.76 3.2 3.2 3.2h0.347c0.507 0 1.053 0.267 1.36 0.667l1.053 1.413 1.133-1.4c0.32-0.427 0.827-0.68 1.36-0.68h0.347c2.067 0 3-0.787 3.16-2.627 0.027-0.213 0.027-0.387 0.027-0.573v-3.507c0-2.24-0.96-3.2-3.2-3.2h-5.587z"></path>
<path d="M16 30.333c-7.907 0-14.333-6.427-14.333-14.333s6.427-14.333 14.333-14.333c7.907 0 14.333 6.427 14.333 14.333s-6.427 14.333-14.333 14.333zM16 3.667c-6.8 0-12.333 5.533-12.333 12.333s5.533 12.333 12.333 12.333c6.8 0 12.333-5.533 12.333-12.333s-5.533-12.333-12.333-12.333z"></path>
</svg>
