<!-- Generated by IcoMoon.io -->
<svg version="1.1" xmlns="http://www.w3.org/2000/svg" width="32" height="32" viewBox="0 0 32 32">
<title>message-text</title>
<path d="M16 30.413c-0.92 0-1.787-0.467-2.4-1.28l-2-2.667c-0.040-0.053-0.2-0.12-0.267-0.133h-0.667c-5.56 0-9-1.507-9-9v-6.667c0-5.893 3.107-9 9-9h10.667c5.893 0 9 3.107 9 9v6.667c0 5.893-3.107 9-9 9h-0.667c-0.107 0-0.2 0.053-0.267 0.133l-2 2.667c-0.613 0.813-1.48 1.28-2.4 1.28zM10.667 3.667c-4.773 0-7 2.227-7 7v6.667c0 6.027 2.067 7 7 7h0.667c0.68 0 1.453 0.387 1.867 0.933l2 2.667c0.467 0.613 1.133 0.613 1.6 0l2-2.667c0.44-0.587 1.133-0.933 1.867-0.933h0.667c4.773 0 7-2.227 7-7v-6.667c0-4.773-2.227-7-7-7h-10.667z"></path>
<path d="M22.667 11.667h-13.333c-0.547 0-1-0.453-1-1s0.453-1 1-1h13.333c0.547 0 1 0.453 1 1s-0.453 1-1 1z"></path>
<path d="M17.333 18.333h-8c-0.547 0-1-0.453-1-1s0.453-1 1-1h8c0.547 0 1 0.453 1 1s-0.453 1-1 1z"></path>
</svg>
