<!-- Generated by IcoMoon.io -->
<svg version="1.1" xmlns="http://www.w3.org/2000/svg" width="32" height="32" viewBox="0 0 32 32">
<title>message-square</title>
<path d="M15.998 25.8c-0.693 0-1.347-0.347-1.813-0.96l-1.213-1.613h-0.333c-3.613 0-6.013-1.027-6.013-6.013v-4.187c0-3.573 1.827-5.693 5.147-5.973 0.253-0.027 0.56-0.040 0.867-0.040h6.707c3.88 0 6.013 2.133 6.013 6.013v4.187c0 0.32-0.013 0.613-0.053 0.907-0.28 3.28-2.4 5.107-5.973 5.107h-0.333l-1.213 1.613c-0.44 0.613-1.093 0.96-1.787 0.96zM12.652 9c-0.227 0-0.453 0.013-0.667 0.040-2.333 0.2-3.36 1.427-3.36 3.987v4.187c0 3.44 1 4.013 4.013 4.013h0.413c0.533 0 1.133 0.293 1.467 0.72l1.267 1.693c0.080 0.107 0.16 0.16 0.2 0.16s0.12-0.053 0.2-0.16l1.253-1.68c0.347-0.467 0.893-0.733 1.467-0.733h0.413c2.56 0 3.787-1.027 3.987-3.32 0.027-0.253 0.040-0.467 0.040-0.707v-4.187c0-2.773-1.24-4.013-4.013-4.013h-6.68z"></path>
<path d="M20 30.333h-8c-7.24 0-10.333-3.093-10.333-10.333v-8c0-7.24 3.093-10.333 10.333-10.333h8c7.24 0 10.333 3.093 10.333 10.333v8c0 7.24-3.093 10.333-10.333 10.333zM12 3.667c-6.147 0-8.333 2.187-8.333 8.333v8c0 6.147 2.187 8.333 8.333 8.333h8c6.147 0 8.333-2.187 8.333-8.333v-8c0-6.147-2.187-8.333-8.333-8.333h-8z"></path>
</svg>
