<!-- Generated by IcoMoon.io -->
<svg version="1.1" xmlns="http://www.w3.org/2000/svg" width="32" height="32" viewBox="0 0 32 32">
<title>messages-2</title>
<path d="M23.827 29.16c-0.413 0-0.827-0.107-1.2-0.333l-5.347-3.173c-0.56-0.013-1.12-0.053-1.653-0.133-0.36-0.053-0.667-0.293-0.8-0.64s-0.067-0.72 0.173-1c0.88-1.027 1.333-2.253 1.333-3.56 0-3.227-2.84-5.853-6.333-5.853-1.307 0-2.56 0.36-3.613 1.053-0.293 0.187-0.653 0.213-0.973 0.067-0.307-0.147-0.533-0.44-0.573-0.787-0.040-0.373-0.067-0.747-0.067-1.133 0-6.613 5.733-11.987 12.773-11.987s12.773 5.373 12.773 11.987c0 3.627-1.68 6.96-4.64 9.24l0.453 3.627c0.107 0.907-0.293 1.76-1.053 2.253-0.373 0.24-0.813 0.373-1.253 0.373zM17.533 23.64c0.187-0.013 0.373 0.040 0.533 0.147l5.587 3.32c0.147 0.093 0.267 0.053 0.347 0 0.067-0.040 0.173-0.147 0.147-0.333l-0.52-4.213c-0.040-0.373 0.12-0.733 0.413-0.947 2.72-1.907 4.28-4.813 4.28-7.973 0-5.507-4.827-9.987-10.773-9.987-5.72 0-10.413 4.16-10.76 9.387 1-0.387 2.080-0.6 3.2-0.6 4.6 0 8.333 3.52 8.333 7.853 0.013 1.173-0.267 2.307-0.787 3.347z"></path>
<path d="M6.106 30.333c-0.347 0-0.68-0.093-0.987-0.293-0.6-0.387-0.92-1.053-0.84-1.76l0.267-2.053c-1.8-1.467-2.867-3.64-2.867-5.92 0-2.6 1.36-5.027 3.64-6.48 1.373-0.893 3-1.373 4.693-1.373 4.6 0 8.333 3.52 8.333 7.853 0 1.76-0.64 3.493-1.813 4.867-1.507 1.827-3.76 2.893-6.24 2.973l-3.253 1.933c-0.293 0.173-0.613 0.253-0.933 0.253zM10 14.453c-1.307 0-2.56 0.36-3.613 1.053-1.707 1.093-2.72 2.88-2.72 4.8 0 1.853 0.907 3.547 2.507 4.64 0.307 0.213 0.467 0.573 0.427 0.947l-0.293 2.28 3.187-1.893c0.16-0.093 0.333-0.147 0.507-0.147 1.96 0 3.813-0.84 4.987-2.267 0.88-1.040 1.347-2.267 1.347-3.573 0-3.213-2.84-5.84-6.333-5.84z"></path>
</svg>
