<!-- Generated by IcoMoon.io -->
<svg version="1.1" xmlns="http://www.w3.org/2000/svg" width="32" height="32" viewBox="0 0 32 32">
<title>messages</title>
<path d="M13.32 30.373c-0.8 0-1.56-0.4-2.080-1.107l-1.6-2.133c0 0.013-0.067-0.027-0.093-0.027h-0.493c-4.56 0-7.387-1.24-7.387-7.387v-5.333c0-5.613 3.427-7.080 6.307-7.333 0.32-0.040 0.693-0.053 1.080-0.053h8.533c4.827 0 7.387 2.56 7.387 7.387v5.333c0 0.387-0.013 0.76-0.067 1.12-0.24 2.84-1.707 6.267-7.32 6.267h-0.533l-1.653 2.16c-0.52 0.707-1.28 1.107-2.080 1.107zM9.053 9c-0.307 0-0.6 0.013-0.88 0.040-3.093 0.267-4.507 1.96-4.507 5.347v5.333c0 4.573 1.413 5.387 5.387 5.387h0.533c0.6 0 1.28 0.333 1.653 0.813l1.6 2.147c0.293 0.4 0.667 0.4 0.96 0l1.6-2.133c0.387-0.52 1-0.827 1.653-0.827h0.533c3.387 0 5.080-1.427 5.333-4.467 0.040-0.32 0.053-0.613 0.053-0.92v-5.333c0-3.72-1.667-5.387-5.387-5.387h-8.533z"></path>
<path d="M13.32 18.92c-0.747 0-1.333-0.6-1.333-1.333s0.6-1.333 1.333-1.333c0.733 0 1.333 0.6 1.333 1.333s-0.587 1.333-1.333 1.333z"></path>
<path d="M17.586 18.92c-0.747 0-1.333-0.6-1.333-1.333s0.6-1.333 1.333-1.333c0.733 0 1.333 0.6 1.333 1.333s-0.6 1.333-1.333 1.333z"></path>
<path d="M9.068 18.92c-0.747 0-1.333-0.6-1.333-1.333s0.6-1.333 1.333-1.333c0.733 0 1.333 0.6 1.333 1.333s-0.6 1.333-1.333 1.333z"></path>
<path d="M23.919 21.72c-0.267 0-0.533-0.107-0.72-0.307-0.213-0.213-0.307-0.52-0.267-0.813 0.040-0.28 0.053-0.573 0.053-0.88v-5.333c0-3.72-1.667-5.387-5.387-5.387h-8.533c-0.307 0-0.6 0.013-0.88 0.040-0.293 0.040-0.6-0.067-0.813-0.267-0.213-0.213-0.333-0.507-0.307-0.8 0.24-2.88 1.72-6.307 7.333-6.307h8.533c4.827 0 7.387 2.56 7.387 7.387v5.333c0 5.613-3.427 7.080-6.307 7.333-0.040 0-0.067 0-0.093 0zM9.226 7h8.36c4.827 0 7.387 2.56 7.387 7.387v5.16c2.267-0.56 3.333-2.227 3.333-5.16v-5.333c0-3.72-1.667-5.387-5.387-5.387h-8.533c-2.933 0-4.587 1.067-5.16 3.333z"></path>
</svg>
