<!-- Generated by IcoMoon.io -->
<svg version="1.1" xmlns="http://www.w3.org/2000/svg" width="32" height="32" viewBox="0 0 32 32">
<title>messages-1</title>
<path d="M9.68 25.186c-0.107 0-0.213-0.013-0.32-0.027-0.8-0.107-1.48-0.613-1.813-1.333l-1.68-3.693c-2.667-1.973-4.2-4.92-4.2-8.12 0-5.693 4.933-10.333 11-10.333 4.28 0 8.187 2.347 9.96 5.987 0.68 1.347 1.040 2.813 1.040 4.347 0 5.547-4.68 10.093-10.52 10.32l-1.68 2.027c-0.453 0.52-1.107 0.827-1.787 0.827zM12.667 3.666c-4.96 0-9 3.733-9 8.333 0 2.627 1.307 5.053 3.573 6.653 0.147 0.107 0.267 0.24 0.333 0.4l1.787 3.933c0.067 0.147 0.2 0.187 0.267 0.187 0.067 0.013 0.2-0 0.293-0.107l1.973-2.373c0.187-0.227 0.467-0.36 0.773-0.36 4.96 0 9-3.733 9-8.333 0-1.213-0.28-2.373-0.827-3.453-1.44-2.973-4.653-4.88-8.173-4.88z"></path>
<path d="M22.32 30.333c-0.693 0-1.333-0.307-1.787-0.84l-1.68-2.013c-3.227-0.133-6.267-1.613-8.213-4.013-0.307-0.373-0.293-0.907 0.013-1.267l1.24-1.493c0.187-0.227 0.467-0.36 0.773-0.36 4.96 0 9-3.733 9-8.333 0-1.213-0.28-2.373-0.827-3.453-0.173-0.347-0.133-0.76 0.107-1.067s0.64-0.44 1.013-0.36c4.933 1.133 8.373 5.253 8.373 10.027 0 3.2-1.533 6.147-4.2 8.12l-1.68 3.693c-0.347 0.747-1.027 1.253-1.84 1.347-0.093 0.013-0.2 0.013-0.293 0.013zM12.747 22.8c1.667 1.693 4.067 2.68 6.587 2.68 0.293 0 0.573 0.133 0.773 0.36l1.973 2.373c0.093 0.12 0.213 0.133 0.293 0.12 0.053 0 0.2-0.040 0.28-0.2l1.787-3.933c0.080-0.16 0.187-0.307 0.333-0.4 2.267-1.6 3.573-4.027 3.573-6.653 0-3.2-1.96-6.040-4.947-7.44 0.187 0.747 0.28 1.507 0.28 2.293 0 5.547-4.68 10.093-10.52 10.32l-0.413 0.48z"></path>
<path d="M16 13h-6.667c-0.547 0-1-0.453-1-1s0.453-1 1-1h6.667c0.547 0 1 0.453 1 1s-0.453 1-1 1z"></path>
</svg>
