<!-- Generated by IcoMoon.io -->
<svg version="1.1" xmlns="http://www.w3.org/2000/svg" width="32" height="32" viewBox="0 0 32 32">
<title>message-2</title>
<path d="M20.667 15h-9.333c-0.547 0-1-0.453-1-1s0.453-1 1-1h9.333c0.547 0 1 0.453 1 1s-0.453 1-1 1z"></path>
<path d="M21.333 29.76c-0.453 0-0.907-0.133-1.293-0.387l-5.68-3.787h-5.027c-4.587 0-7.667-3.080-7.667-7.667v-8c0-4.587 3.080-7.667 7.667-7.667h13.333c4.587 0 7.667 3.080 7.667 7.667v8c0 4.24-2.64 7.2-6.667 7.613v1.893c0 0.867-0.467 1.653-1.227 2.053-0.347 0.187-0.733 0.28-1.107 0.28zM9.333 4.24c-3.44 0-5.667 2.227-5.667 5.667v8c0 3.44 2.227 5.667 5.667 5.667h5.333c0.2 0 0.387 0.053 0.56 0.173l5.933 3.947c0.147 0.093 0.28 0.053 0.347 0.013s0.173-0.12 0.173-0.293v-2.84c0-0.547 0.453-1 1-1 3.44 0 5.667-2.227 5.667-5.667v-8c0-3.44-2.227-5.667-5.667-5.667h-13.347z"></path>
</svg>
