<!-- Generated by IcoMoon.io -->
<svg version="1.1" xmlns="http://www.w3.org/2000/svg" width="32" height="32" viewBox="0 0 32 32">
<title>message-add-1</title>
<path d="M21.333 30.333h-17.333c-1.28 0-2.333-1.053-2.333-2.333v-17.333c0-5.893 3.107-9 9-9h10.667c5.893 0 9 3.107 9 9v10.667c0 5.893-3.107 9-9 9zM10.667 3.667c-4.773 0-7 2.227-7 7v17.333c0 0.187 0.147 0.333 0.333 0.333h17.333c4.773 0 7-2.227 7-7v-10.667c0-4.773-2.227-7-7-7h-10.667z"></path>
<path d="M20.667 17h-9.333c-0.547 0-1-0.453-1-1s0.453-1 1-1h9.333c0.547 0 1 0.453 1 1s-0.453 1-1 1z"></path>
<path d="M16 21.667c-0.547 0-1-0.453-1-1v-9.333c0-0.547 0.453-1 1-1s1 0.453 1 1v9.333c0 0.547-0.453 1-1 1z"></path>
</svg>
