<!-- Generated by IcoMoon.io -->
<svg version="1.1" xmlns="http://www.w3.org/2000/svg" width="32" height="32" viewBox="0 0 32 32">
<title>microphone-slash-1</title>
<path d="M10.667 15.667c-0.547 0-1-0.453-1-1v-6.667c0-3.493 2.84-6.333 6.333-6.333s6.333 2.84 6.333 6.333v0.4c0 0.547-0.453 1-1 1s-1-0.453-1-1v-0.4c0-2.387-1.947-4.333-4.333-4.333s-4.333 1.947-4.333 4.333v6.667c0 0.547-0.453 1-1 1z"></path>
<path d="M16.001 21.667c-1.787 0-3.493-0.76-4.693-2.080-0.373-0.413-0.333-1.040 0.067-1.413 0.413-0.373 1.040-0.333 1.413 0.067 0.813 0.907 1.987 1.427 3.213 1.427 2.387 0 4.333-1.947 4.333-4.333v-0.667c0-0.547 0.453-1 1-1s1 0.453 1 1v0.667c0 3.493-2.84 6.333-6.333 6.333z"></path>
<path d="M15.999 26.333c-2.84 0-5.56-1.067-7.64-3-0.4-0.373-0.427-1.013-0.053-1.413 0.387-0.413 1.027-0.427 1.427-0.053 1.707 1.587 3.933 2.467 6.267 2.467 5.067 0 9.2-4.133 9.2-9.2v-2.267c0-0.547 0.453-1 1-1s1 0.453 1 1v2.267c0 6.173-5.027 11.2-11.2 11.2z"></path>
<path d="M6.599 20.107c-0.387 0-0.76-0.227-0.92-0.613-0.587-1.387-0.88-2.84-0.88-4.36v-2.267c0-0.547 0.453-1 1-1s1 0.453 1 1v2.267c0 1.24 0.24 2.44 0.72 3.573 0.213 0.507-0.027 1.093-0.533 1.307-0.12 0.067-0.253 0.093-0.387 0.093z"></path>
<path d="M5.226 26.32c-0.253 0-0.507-0.093-0.707-0.293-0.387-0.387-0.387-1.027 0-1.413l21.533-21.533c0.387-0.387 1.027-0.387 1.413 0s0.387 1.027 0 1.413l-21.52 21.533c-0.2 0.2-0.453 0.293-0.72 0.293z"></path>
<path d="M14.667 9c-0.547 0-1-0.453-1-1v-4c0-0.547 0.453-1 1-1s1 0.453 1 1v4c0 0.547-0.453 1-1 1z"></path>
<path d="M16 30.333c-0.547 0-1-0.453-1-1v-4c0-0.547 0.453-1 1-1s1 0.453 1 1v4c0 0.547-0.453 1-1 1z"></path>
</svg>
