<!-- Generated by IcoMoon.io -->
<svg version="1.1" xmlns="http://www.w3.org/2000/svg" width="32" height="32" viewBox="0 0 32 32">
<title>microphone-slash</title>
<path d="M9.853 23.453c-0.28 0-0.573-0.12-0.773-0.36-1.347-1.613-2.080-3.653-2.080-5.76v-6.667c0-4.96 4.040-9 9-9 4.133 0 7.72 2.8 8.733 6.8 0.133 0.533-0.187 1.080-0.72 1.213-0.52 0.133-1.080-0.187-1.213-0.72-0.8-3.12-3.587-5.293-6.8-5.293-3.853 0-7 3.133-7 7v6.667c0 1.64 0.573 3.227 1.613 4.48 0.36 0.427 0.293 1.053-0.133 1.413-0.173 0.147-0.4 0.227-0.627 0.227z"></path>
<path d="M16 26.333c-1.080 0-2.133-0.187-3.12-0.56-0.52-0.187-0.787-0.773-0.587-1.28 0.187-0.52 0.773-0.787 1.28-0.587 0.773 0.293 1.6 0.44 2.427 0.44 3.853 0 7-3.133 7-7v-4.040c0-0.547 0.453-1 1-1s1 0.453 1 1v4.027c0 4.96-4.040 9-9 9z"></path>
<path d="M15.999 30.334c-3.307 0-6.453-1.24-8.867-3.493-0.4-0.373-0.427-1.013-0.053-1.413s1.013-0.427 1.413-0.053c2.040 1.907 4.707 2.947 7.493 2.947 6.067 0 11-4.933 11-11v-2.667c0-0.547 0.453-1 1-1s1 0.453 1 1v2.667c0.013 7.187-5.813 13.013-12.987 13.013z"></path>
<path d="M3.333 30.32c-0.253 0-0.507-0.093-0.707-0.293-0.387-0.387-0.387-1.027 0-1.413l25.333-25.333c0.387-0.387 1.027-0.387 1.413 0s0.387 1.027 0 1.413l-25.333 25.333c-0.2 0.2-0.453 0.293-0.707 0.293z"></path>
<path d="M15.401 8.333c-0.547 0-1-0.453-1-1v-4.32c0-0.547 0.453-1 1-1s1 0.453 1 1v4.32c0 0.56-0.453 1-1 1z"></path>
<path d="M11.333 11c-0.547 0-1-0.453-1-1v-5.333c0-0.547 0.453-1 1-1s1 0.453 1 1v5.333c0 0.547-0.453 1-1 1z"></path>
</svg>
