<!-- Generated by IcoMoon.io -->
<svg version="1.1" xmlns="http://www.w3.org/2000/svg" width="32" height="32" viewBox="0 0 32 32">
<title>microphone</title>
<path d="M16 26.333c-4.96 0-9-4.040-9-9v-6.667c0-4.96 4.040-9 9-9s9 4.040 9 9v6.667c0 4.96-4.040 9-9 9zM16 3.667c-3.853 0-7 3.133-7 7v6.667c0 3.867 3.147 7 7 7s7-3.133 7-7v-6.667c0-3.867-3.147-7-7-7z"></path>
<path d="M16 30.333c-7.173 0-13-5.827-13-13v-2.667c0-0.547 0.453-1 1-1s1 0.453 1 1v2.667c0 6.067 4.933 11 11 11s11-4.933 11-11v-2.667c0-0.547 0.453-1 1-1s1 0.453 1 1v2.667c0 7.173-5.827 13-13 13z"></path>
<path d="M19.48 10.973c-0.107 0-0.227-0.013-0.347-0.053-2.147-0.773-4.507-0.773-6.653 0-0.507 0.187-1.080-0.080-1.267-0.6s0.080-1.093 0.6-1.28c2.587-0.933 5.427-0.933 8.013 0 0.52 0.187 0.787 0.76 0.6 1.28-0.147 0.413-0.533 0.653-0.947 0.653z"></path>
<path d="M18.267 14.973c-0.080 0-0.173-0.013-0.267-0.040-1.427-0.387-2.933-0.387-4.36 0-0.547 0.147-1.080-0.173-1.227-0.707s0.173-1.080 0.707-1.227c1.773-0.48 3.64-0.48 5.413 0 0.533 0.147 0.853 0.693 0.707 1.227-0.133 0.467-0.533 0.747-0.973 0.747z"></path>
</svg>
