<!-- Generated by IcoMoon.io -->
<svg version="1.1" xmlns="http://www.w3.org/2000/svg" width="32" height="32" viewBox="0 0 32 32">
<title>microscope</title>
<path d="M20.040 15.36c-0.32 0-0.64-0.16-0.827-0.44l-4.267-6.373c-0.147-0.227-0.2-0.493-0.147-0.747s0.2-0.493 0.427-0.64l7.547-5.053c0.587-0.4 1.293-0.533 1.987-0.4s1.293 0.533 1.693 1.12l2.427 3.613c0.813 1.213 0.493 2.867-0.733 3.68l-7.533 5.053c-0.187 0.133-0.373 0.187-0.573 0.187zM17.173 8.267l3.147 4.707 6.707-4.493c0.307-0.2 0.387-0.613 0.173-0.907l-2.427-3.613c-0.093-0.147-0.24-0.24-0.413-0.28s-0.347-0-0.493 0.093l-6.693 4.493z"></path>
<path d="M13.253 18.987c-0.32 0-0.64-0.16-0.827-0.44l-3.413-5.093c-0.307-0.453-0.187-1.080 0.28-1.387l6.373-4.267c0.227-0.147 0.493-0.2 0.747-0.147 0.267 0.053 0.493 0.2 0.64 0.427l3.413 5.093c0.307 0.453 0.187 1.080-0.28 1.387l-6.373 4.267c-0.173 0.107-0.373 0.16-0.56 0.16zM11.226 13.173l2.293 3.427 4.707-3.147-2.293-3.44-4.707 3.16z"></path>
<path d="M7.041 22.427c-0.747 0-1.493-0.36-1.947-1.040l-1.507-2.24c-0.347-0.52-0.467-1.133-0.347-1.747s0.467-1.133 0.987-1.48l5.267-3.52c0.453-0.307 1.080-0.187 1.387 0.28l2.987 4.453c0.307 0.453 0.187 1.080-0.28 1.387l-5.267 3.52c-0.387 0.253-0.84 0.387-1.28 0.387zM9.774 14.6l-4.427 2.96c-0.147 0.107-0.2 0.307-0.093 0.467l1.507 2.24c0.107 0.147 0.307 0.2 0.467 0.093l4.427-2.96-1.88-2.8z"></path>
<path d="M10.080 30.333c-0.133 0-0.28-0.027-0.413-0.093-0.507-0.227-0.72-0.827-0.493-1.32l5.987-13.067c0.227-0.507 0.827-0.72 1.32-0.493 0.507 0.227 0.72 0.827 0.493 1.32l-5.987 13.067c-0.173 0.373-0.533 0.587-0.907 0.587z"></path>
<path d="M21.92 30.333c-0.387 0-0.747-0.213-0.907-0.587l-5.92-13.067c-0.227-0.507 0-1.093 0.493-1.32s1.093 0 1.32 0.493l5.92 13.067c0.227 0.507 0 1.093-0.493 1.32-0.133 0.067-0.267 0.093-0.413 0.093z"></path>
</svg>
