<!-- Generated by IcoMoon.io -->
<svg version="1.1" xmlns="http://www.w3.org/2000/svg" width="32" height="32" viewBox="0 0 32 32">
<title>microphone-2</title>
<path d="M16 21.667c-3.493 0-6.333-2.84-6.333-6.333v-7.333c0-3.493 2.84-6.333 6.333-6.333s6.333 2.84 6.333 6.333v7.333c0 3.493-2.84 6.333-6.333 6.333zM16 3.667c-2.387 0-4.333 1.947-4.333 4.333v7.333c0 2.387 1.947 4.333 4.333 4.333s4.333-1.947 4.333-4.333v-7.333c0-2.387-1.947-4.333-4.333-4.333z"></path>
<path d="M15.999 26.333c-6.173 0-11.2-5.027-11.2-11.2v-2.267c0-0.547 0.453-1 1-1s1 0.453 1 1v2.267c0 5.067 4.133 9.2 9.2 9.2s9.2-4.133 9.2-9.2v-2.267c0-0.547 0.453-1 1-1s1 0.453 1 1v2.267c0 6.173-5.027 11.2-11.2 11.2z"></path>
<path d="M17.853 9.573c-0.107 0-0.227-0.013-0.347-0.053-0.973-0.36-2.040-0.36-3.013 0-0.52 0.187-1.093-0.080-1.28-0.6s0.080-1.093 0.6-1.28c1.413-0.507 2.973-0.507 4.387 0 0.52 0.187 0.787 0.76 0.6 1.28-0.16 0.4-0.547 0.653-0.947 0.653z"></path>
<path d="M17.067 12.4c-0.093 0-0.173-0.013-0.267-0.040-0.533-0.147-1.080-0.147-1.613 0s-1.080-0.173-1.227-0.707c-0.147-0.52 0.173-1.067 0.707-1.213 0.867-0.24 1.8-0.24 2.667 0 0.533 0.147 0.853 0.693 0.707 1.227-0.12 0.44-0.533 0.733-0.973 0.733z"></path>
<path d="M16 30.333c-0.547 0-1-0.453-1-1v-4c0-0.547 0.453-1 1-1s1 0.453 1 1v4c0 0.547-0.453 1-1 1z"></path>
</svg>
