<!-- Generated by IcoMoon.io -->
<svg version="1.1" xmlns="http://www.w3.org/2000/svg" width="32" height="32" viewBox="0 0 32 32">
<title>milk</title>
<path d="M20 30.333h-8c-2.76 0-5-2.24-5-5v-6.693c0-0.267 0.107-0.52 0.293-0.707s0.44-0.293 0.707-0.293l5.187 0.027c1.12 0 2.24 0.267 3.253 0.773 0.747 0.373 1.547 0.56 2.387 0.56h5.173c0.547 0 1 0.453 1 1v5.333c0 2.76-2.24 5-5 5zM9 19.64v5.693c0 1.653 1.347 3 3 3h8c1.653 0 3-1.347 3-3v-4.333h-4.173c-1.147 0-2.253-0.253-3.28-0.773-0.747-0.373-1.547-0.56-2.36-0.56l-4.187-0.027z"></path>
<path d="M24 21h-5.173c-1.147 0-2.253-0.253-3.28-0.773-0.747-0.373-1.547-0.56-2.36-0.56l-5.187-0.027c-0.547 0-1-0.453-1-1v-4.2c0-0.88 0.453-1.973 1.080-2.6l2.827-2.827c0.053-0.053 0.093-0.147 0.093-0.227v-2.12c0-0.547 0.453-1 1-1h8c0.547 0 1 0.453 1 1v2.12c0 0.080 0.040 0.173 0.093 0.227l2.827 2.827c0.627 0.627 1.080 1.72 1.080 2.6v5.56c0 0.547-0.453 1-1 1zM9 17.64l4.187 0.027c1.12 0 2.24 0.267 3.253 0.773 0.747 0.373 1.547 0.56 2.387 0.56h4.173v-4.56c0-0.347-0.24-0.933-0.493-1.187l-2.827-2.827c-0.427-0.427-0.68-1.027-0.68-1.64v-1.12h-6v1.12c0 0.613-0.253 1.213-0.68 1.64l-2.827 2.827c-0.253 0.253-0.493 0.84-0.493 1.187v3.2z"></path>
<path d="M24 22.333c-0.547 0-1-0.453-1-1v-1.333c0-0.547 0.453-1 1-1s1 0.453 1 1v1.333c0 0.547-0.453 1-1 1z"></path>
<path d="M8 20.973c-0.547 0-1-0.453-1-1v-1.333c0-0.547 0.453-1 1-1s1 0.453 1 1v1.333c0 0.547-0.453 1-1 1z"></path>
<path d="M19.333 7.667h-6.667c-1.653 0-3-1.347-3-3s1.347-3 3-3h6.667c1.653 0 3 1.347 3 3s-1.347 3-3 3zM12.667 3.667c-0.547 0-1 0.453-1 1s0.453 1 1 1h6.667c0.547 0 1-0.453 1-1s-0.453-1-1-1h-6.667z"></path>
</svg>
