<!-- Generated by IcoMoon.io -->
<svg version="1.1" xmlns="http://www.w3.org/2000/svg" width="32" height="32" viewBox="0 0 32 32">
<title>mini-music-sqaure</title>
<path d="M14.667 30.333h-2.667c-7.24 0-10.333-3.093-10.333-10.333v-8c0-7.24 3.093-10.333 10.333-10.333h8c7.24 0 10.333 3.093 10.333 10.333v1.333c0 0.547-0.453 1-1 1s-1-0.453-1-1v-1.333c0-6.147-2.187-8.333-8.333-8.333h-8c-6.147 0-8.333 2.187-8.333 8.333v8c0 6.147 2.187 8.333 8.333 8.333h2.667c0.547 0 1 0.453 1 1s-0.453 1-1 1z"></path>
<path d="M20.36 30.333c-1.613 0-2.92-1.307-2.92-2.92s1.307-2.92 2.92-2.92c1.613 0 2.92 1.307 2.92 2.92s-1.307 2.92-2.92 2.92zM20.36 26.48c-0.507 0-0.92 0.413-0.92 0.92s0.413 0.92 0.92 0.92c0.507 0 0.92-0.413 0.92-0.92s-0.413-0.92-0.92-0.92z"></path>
<path d="M22.281 28.413c-0.547 0-1-0.453-1-1v-7.76c0-1.213 0.747-2.2 1.92-2.507l3.853-1.053c1.2-0.333 1.947-0.013 2.373 0.307 0.413 0.32 0.907 0.96 0.907 2.2v7.52c0 0.547-0.453 1-1 1s-1-0.453-1-1v-7.52c0-0.427-0.093-0.587-0.133-0.613s-0.227-0.080-0.64 0.027l-3.853 1.053c-0.4 0.107-0.44 0.387-0.44 0.587v7.76c0.013 0.547-0.44 1-0.987 1z"></path>
<path d="M27.415 29.054c-1.613 0-2.92-1.307-2.92-2.92s1.307-2.92 2.92-2.92c1.613 0 2.92 1.307 2.92 2.92s-1.307 2.92-2.92 2.92zM27.415 25.2c-0.507 0-0.92 0.413-0.92 0.92s0.413 0.92 0.92 0.92c0.507 0 0.92-0.413 0.92-0.92s-0.413-0.92-0.92-0.92z"></path>
<path d="M22.279 22.907c-0.44 0-0.84-0.293-0.96-0.733-0.147-0.533 0.173-1.080 0.707-1.227l7.053-1.92c0.533-0.147 1.080 0.173 1.227 0.707s-0.173 1.080-0.707 1.227l-7.053 1.92c-0.093 0.013-0.187 0.027-0.267 0.027z"></path>
</svg>
