<!-- Generated by IcoMoon.io -->
<svg version="1.1" xmlns="http://www.w3.org/2000/svg" width="32" height="32" viewBox="0 0 32 32">
<title>minus-cirlce</title>
<path d="M15.893 30.333c-7.893 0-14.333-6.427-14.333-14.333s6.44-14.333 14.333-14.333c7.893 0 14.333 6.427 14.333 14.333s-6.427 14.333-14.333 14.333zM15.893 3.667c-6.8 0-12.333 5.533-12.333 12.333s5.533 12.333 12.333 12.333c6.8 0 12.333-5.533 12.333-12.333s-5.533-12.333-12.333-12.333z"></path>
<path d="M21.227 17h-10.667c-0.547 0-1-0.453-1-1s0.453-1 1-1h10.667c0.547 0 1 0.453 1 1s-0.44 1-1 1z"></path>
</svg>
