<!-- Generated by IcoMoon.io -->
<svg version="1.1" xmlns="http://www.w3.org/2000/svg" width="32" height="32" viewBox="0 0 32 32">
<title>mirror</title>
<path d="M16 25c-6.44 0-11.667-5.24-11.667-11.667s5.227-11.667 11.667-11.667c6.44 0 11.667 5.24 11.667 11.667s-5.227 11.667-11.667 11.667zM16 3.667c-5.333 0-9.667 4.333-9.667 9.667s4.333 9.667 9.667 9.667c5.333 0 9.667-4.333 9.667-9.667s-4.333-9.667-9.667-9.667z"></path>
<path d="M24 30.333h-16c-0.547 0-1-0.453-1-1s0.453-1 1-1h16c0.547 0 1 0.453 1 1s-0.453 1-1 1z"></path>
</svg>
