<!-- Generated by IcoMoon.io -->
<svg version="1.1" xmlns="http://www.w3.org/2000/svg" width="32" height="32" viewBox="0 0 32 32">
<title>mirroring-screen</title>
<path d="M22.667 29h-1.333c-0.547 0-1-0.453-1-1s0.453-1 1-1h1.333c3.44 0 5.667-2.227 5.667-5.667v-10.667c0-3.44-2.227-5.667-5.667-5.667h-13.333c-3.44 0-5.667 2.227-5.667 5.667v1.333c0 0.547-0.453 1-1 1s-1-0.453-1-1v-1.333c0-4.587 3.080-7.667 7.667-7.667h13.333c4.587 0 7.667 3.080 7.667 7.667v10.667c0 4.587-3.080 7.667-7.667 7.667z"></path>
<path d="M16.387 28.080c-0.493 0-0.92-0.373-0.987-0.867-0.733-5.707-4.893-9.88-10.613-10.613-0.547-0.067-0.933-0.573-0.867-1.12s0.573-0.933 1.12-0.867c6.64 0.853 11.493 5.693 12.333 12.333 0.067 0.547-0.32 1.053-0.867 1.12-0.027 0.013-0.080 0.013-0.12 0.013z"></path>
<path d="M11.906 29.507c-0.493 0-0.92-0.373-0.987-0.867-0.52-4.067-3.493-7.040-7.56-7.56-0.547-0.067-0.933-0.573-0.867-1.12s0.573-0.933 1.12-0.867c5 0.64 8.64 4.293 9.28 9.28 0.067 0.547-0.32 1.053-0.867 1.12-0.040 0.013-0.080 0.013-0.12 0.013z"></path>
<path d="M6.84 30.36c-0.493 0-0.92-0.373-0.987-0.867-0.227-1.8-1.547-3.12-3.347-3.347-0.547-0.067-0.933-0.573-0.867-1.12s0.573-0.933 1.12-0.867c2.693 0.347 4.733 2.387 5.080 5.080 0.067 0.547-0.32 1.053-0.867 1.12-0.040 0-0.080 0-0.133 0z"></path>
</svg>
