<!-- Generated by IcoMoon.io -->
<svg version="1.1" xmlns="http://www.w3.org/2000/svg" width="32" height="32" viewBox="0 0 32 32">
<title>mobile-programming</title>
<path d="M17.999 7.667h-4.027c-1.627 0-2.973-1.32-3-2.947l-0.040-2.040c-0.013-0.547 0.427-1.013 0.973-1.027 0.013 0 0.013 0 0.027 0 0.547 0 0.987 0.44 1 0.973l0.040 2.040c0.013 0.533 0.467 0.987 1 0.987h4.027c0.56 0 1-0.453 1-1v-1.987c0-0.547 0.453-1 1-1s1 0.453 1 1v2c0 1.653-1.347 3-3 3z"></path>
<path d="M22.666 29c-0.253 0-0.507-0.093-0.707-0.293l-2.667-2.667c-0.387-0.387-0.387-1.027 0-1.413l2.667-2.667c0.387-0.387 1.027-0.387 1.413 0s0.387 1.027 0 1.413l-1.96 1.96 1.96 1.96c0.387 0.387 0.387 1.027 0 1.413-0.2 0.2-0.453 0.293-0.707 0.293z"></path>
<path d="M26.666 29c-0.253 0-0.507-0.093-0.707-0.293-0.387-0.387-0.387-1.027 0-1.413l1.96-1.96-1.96-1.96c-0.387-0.387-0.387-1.027 0-1.413s1.027-0.387 1.413 0l2.667 2.667c0.387 0.387 0.387 1.027 0 1.413l-2.667 2.667c-0.2 0.2-0.453 0.293-0.707 0.293z"></path>
<path d="M17.333 30.333h-6.667c-4.867 0-7.667-2.8-7.667-7.667v-13.333c0-4.867 2.8-7.667 7.667-7.667h10.667c4.867 0 7.667 2.8 7.667 7.667v9.333c0 0.547-0.453 1-1 1s-1-0.453-1-1v-9.333c0-3.813-1.853-5.667-5.667-5.667h-10.667c-3.813 0-5.667 1.853-5.667 5.667v13.333c0 3.813 1.853 5.667 5.667 5.667h6.667c0.547 0 1 0.453 1 1s-0.453 1-1 1z"></path>
</svg>
