<!-- Generated by IcoMoon.io -->
<svg version="1.1" xmlns="http://www.w3.org/2000/svg" width="32" height="32" viewBox="0 0 32 32">
<title>mobile</title>
<path d="M20 30.333h-8c-5.88 0-7.667-1.787-7.667-7.667v-13.333c0-5.88 1.787-7.667 7.667-7.667h8c5.88 0 7.667 1.787 7.667 7.667v13.333c0 5.88-1.787 7.667-7.667 7.667zM12 3.667c-4.773 0-5.667 0.907-5.667 5.667v13.333c0 4.76 0.893 5.667 5.667 5.667h8c4.773 0 5.667-0.907 5.667-5.667v-13.333c0-4.76-0.893-5.667-5.667-5.667h-8z"></path>
<path d="M18.667 8.333h-5.333c-0.547 0-1-0.453-1-1s0.453-1 1-1h5.333c0.547 0 1 0.453 1 1s-0.453 1-1 1z"></path>
<path d="M16 26.48c-1.693 0-3.067-1.373-3.067-3.067s1.373-3.067 3.067-3.067c1.693 0 3.067 1.373 3.067 3.067s-1.373 3.067-3.067 3.067zM16 22.333c-0.587 0-1.067 0.48-1.067 1.067s0.48 1.067 1.067 1.067c0.587 0 1.067-0.48 1.067-1.067s-0.48-1.067-1.067-1.067z"></path>
</svg>
