<!-- Generated by IcoMoon.io -->
<svg version="1.1" xmlns="http://www.w3.org/2000/svg" width="32" height="32" viewBox="0 0 32 32">
<title>money-change</title>
<path d="M22.667 27.667h-6.667c-0.547 0-1-0.453-1-1s0.453-1 1-1h6.667c3.813 0 5.667-1.853 5.667-5.667v-8c0-3.813-1.853-5.667-5.667-5.667h-13.333c-3.813 0-5.667 1.853-5.667 5.667v2.667c0 0.547-0.453 1-1 1s-1-0.453-1-1v-2.667c0-4.867 2.8-7.667 7.667-7.667h13.333c4.867 0 7.667 2.8 7.667 7.667v8c0 4.867-2.8 7.667-7.667 7.667z"></path>
<path d="M16 20.333c-2.387 0-4.333-1.947-4.333-4.333s1.947-4.333 4.333-4.333c2.387 0 4.333 1.947 4.333 4.333s-1.947 4.333-4.333 4.333zM16 13.667c-1.28 0-2.333 1.053-2.333 2.333s1.053 2.333 2.333 2.333c1.28 0 2.333-1.053 2.333-2.333s-1.053-2.333-2.333-2.333z"></path>
<path d="M24.667 20.333c-0.547 0-1-0.453-1-1v-6.667c0-0.547 0.453-1 1-1s1 0.453 1 1v6.667c0 0.547-0.453 1-1 1z"></path>
<path d="M11.333 24.92c-0.547 0-1-0.453-1-1v-1.707c0-0.293-0.24-0.547-0.547-0.547h-7.12c-0.547 0-1-0.453-1-1s0.453-1 1-1h7.12c1.4 0 2.547 1.147 2.547 2.547v1.707c0 0.547-0.453 1-1 1z"></path>
<path d="M4.293 23.293c-0.253 0-0.507-0.093-0.707-0.293l-1.627-1.627c-0.387-0.387-0.387-1.027 0-1.413l1.627-1.627c0.387-0.387 1.027-0.387 1.413 0s0.387 1.027 0 1.413l-0.92 0.92 0.92 0.92c0.387 0.387 0.387 1.027 0 1.413-0.2 0.2-0.453 0.293-0.707 0.293z"></path>
<path d="M11.333 28.706h-7.12c-1.4 0-2.547-1.147-2.547-2.547v-1.707c0-0.547 0.453-1 1-1s1 0.453 1 1v1.707c0 0.293 0.24 0.547 0.547 0.547h7.12c0.547 0 1 0.453 1 1s-0.453 1-1 1z"></path>
<path d="M9.705 30.333c-0.253 0-0.507-0.093-0.707-0.293-0.387-0.387-0.387-1.027 0-1.413l0.92-0.92-0.92-0.92c-0.387-0.387-0.387-1.027 0-1.413s1.027-0.387 1.413 0l1.627 1.627c0.387 0.387 0.387 1.027 0 1.413l-1.627 1.627c-0.187 0.2-0.453 0.293-0.707 0.293z"></path>
</svg>
