<!-- Generated by IcoMoon.io -->
<svg version="1.1" xmlns="http://www.w3.org/2000/svg" width="32" height="32" viewBox="0 0 32 32">
<title>money-2</title>
<path d="M22.667 28.333h-13.333c-4.867 0-7.667-2.8-7.667-7.667v-9.333c0-4.867 2.8-7.667 7.667-7.667h13.333c4.867 0 7.667 2.8 7.667 7.667v9.333c0 4.867-2.8 7.667-7.667 7.667zM9.333 5.667c-3.813 0-5.667 1.853-5.667 5.667v9.333c0 3.813 1.853 5.667 5.667 5.667h13.333c3.813 0 5.667-1.853 5.667-5.667v-9.333c0-3.813-1.853-5.667-5.667-5.667h-13.333z"></path>
<path d="M16 21c-2.76 0-5-2.24-5-5s2.24-5 5-5c2.76 0 5 2.24 5 5s-2.24 5-5 5zM16 13c-1.653 0-3 1.347-3 3s1.347 3 3 3c1.653 0 3-1.347 3-3s-1.347-3-3-3z"></path>
<path d="M4 13h-1.333c-0.547 0-1-0.453-1-1s0.453-1 1-1h1.333c3.44 0 4.333-0.893 4.333-4.333v-1.333c0-0.547 0.453-1 1-1s1 0.453 1 1v1.333c0 4.56-1.773 6.333-6.333 6.333z"></path>
<path d="M29.333 13h-1.333c-4.56 0-6.333-1.773-6.333-6.333v-1.333c0-0.547 0.453-1 1-1s1 0.453 1 1v1.333c0 3.44 0.893 4.333 4.333 4.333h1.333c0.547 0 1 0.453 1 1s-0.453 1-1 1z"></path>
<path d="M9.333 27.667c-0.547 0-1-0.453-1-1v-1.333c0-3.44-0.893-4.333-4.333-4.333h-1.333c-0.547 0-1-0.453-1-1s0.453-1 1-1h1.333c4.56 0 6.333 1.773 6.333 6.333v1.333c0 0.547-0.453 1-1 1z"></path>
<path d="M22.667 27.667c-0.547 0-1-0.453-1-1v-1.333c0-4.56 1.773-6.333 6.333-6.333h1.333c0.547 0 1 0.453 1 1s-0.453 1-1 1h-1.333c-3.44 0-4.333 0.893-4.333 4.333v1.333c0 0.547-0.453 1-1 1z"></path>
</svg>
