<!-- Generated by IcoMoon.io -->
<svg version="1.1" xmlns="http://www.w3.org/2000/svg" width="32" height="32" viewBox="0 0 32 32">
<title>money-4</title>
<path d="M22.667 28.333h-13.333c-4.867 0-7.667-2.8-7.667-7.667v-9.333c0-4.867 2.8-7.667 7.667-7.667h13.333c4.867 0 7.667 2.8 7.667 7.667v9.333c0 4.867-2.8 7.667-7.667 7.667zM9.333 5.667c-3.813 0-5.667 1.853-5.667 5.667v9.333c0 3.813 1.853 5.667 5.667 5.667h13.333c3.813 0 5.667-1.853 5.667-5.667v-9.333c0-3.813-1.853-5.667-5.667-5.667h-13.333z"></path>
<path d="M16 21c-2.76 0-5-2.24-5-5s2.24-5 5-5c2.76 0 5 2.24 5 5s-2.24 5-5 5zM16 13c-1.653 0-3 1.347-3 3s1.347 3 3 3c1.653 0 3-1.347 3-3s-1.347-3-3-3z"></path>
<path d="M6 14.333c-0.547 0-1-0.453-1-1v-2c0-2.387 1.947-4.333 4.333-4.333h2c0.547 0 1 0.453 1 1s-0.453 1-1 1h-2c-1.28 0-2.333 1.053-2.333 2.333v2c0 0.547-0.453 1-1 1z"></path>
<path d="M26 14.333c-0.547 0-1-0.453-1-1v-2c0-1.28-1.053-2.333-2.333-2.333h-2c-0.547 0-1-0.453-1-1s0.453-1 1-1h2c2.387 0 4.333 1.947 4.333 4.333v2c0 0.547-0.453 1-1 1z"></path>
<path d="M11.333 25h-2c-2.387 0-4.333-1.947-4.333-4.333v-2c0-0.547 0.453-1 1-1s1 0.453 1 1v2c0 1.28 1.053 2.333 2.333 2.333h2c0.547 0 1 0.453 1 1s-0.453 1-1 1z"></path>
<path d="M22.667 25h-2c-0.547 0-1-0.453-1-1s0.453-1 1-1h2c1.28 0 2.333-1.053 2.333-2.333v-2c0-0.547 0.453-1 1-1s1 0.453 1 1v2c0 2.387-1.947 4.333-4.333 4.333z"></path>
</svg>
