<!-- Generated by IcoMoon.io -->
<svg version="1.1" xmlns="http://www.w3.org/2000/svg" width="32" height="32" viewBox="0 0 32 32">
<title>money-send</title>
<path d="M17.4 21.667h-2.507c-1.773 0-3.227-1.493-3.227-3.333 0-0.547 0.453-1 1-1s1 0.453 1 1c0 0.733 0.547 1.333 1.227 1.333h2.507c0.52 0 0.933-0.467 0.933-1.040 0-0.72-0.2-0.827-0.653-0.987l-4.013-1.4c-0.853-0.307-2-0.92-2-2.88 0-1.667 1.32-3.040 2.933-3.040h2.507c1.773 0 3.227 1.493 3.227 3.333 0 0.547-0.453 1-1 1s-1-0.453-1-1c0-0.733-0.547-1.333-1.227-1.333h-2.507c-0.52 0-0.933 0.467-0.933 1.040 0 0.72 0.2 0.827 0.653 0.987l4.013 1.4c0.853 0.307 2 0.92 2 2.88 0 1.68-1.32 3.040-2.933 3.040z"></path>
<path d="M16 23c-0.547 0-1-0.453-1-1v-12c0-0.547 0.453-1 1-1s1 0.453 1 1v12c0 0.547-0.453 1-1 1z"></path>
<path d="M16 30.333c-7.907 0-14.333-6.427-14.333-14.333s6.427-14.333 14.333-14.333c0.547 0 1 0.453 1 1s-0.453 1-1 1c-6.8 0-12.333 5.533-12.333 12.333s5.533 12.333 12.333 12.333c6.8 0 12.333-5.533 12.333-12.333 0-0.547 0.453-1 1-1s1 0.453 1 1c0 7.907-6.427 14.333-14.333 14.333z"></path>
<path d="M29.333 9c-0.547 0-1-0.453-1-1v-4.333h-4.333c-0.547 0-1-0.453-1-1s0.453-1 1-1h5.333c0.547 0 1 0.453 1 1v5.333c0 0.547-0.453 1-1 1z"></path>
<path d="M22.666 10.333c-0.253 0-0.507-0.093-0.707-0.293-0.387-0.387-0.387-1.027 0-1.413l6.667-6.667c0.387-0.387 1.027-0.387 1.413 0s0.387 1.027 0 1.413l-6.667 6.667c-0.2 0.2-0.453 0.293-0.707 0.293z"></path>
</svg>
