<!-- Generated by IcoMoon.io -->
<svg version="1.1" xmlns="http://www.w3.org/2000/svg" width="32" height="32" viewBox="0 0 32 32">
<title>money-time</title>
<path d="M16 20.333c-2.387 0-4.333-1.947-4.333-4.333s1.947-4.333 4.333-4.333c2.387 0 4.333 1.947 4.333 4.333s-1.947 4.333-4.333 4.333zM16 13.667c-1.28 0-2.333 1.053-2.333 2.333s1.053 2.333 2.333 2.333c1.28 0 2.333-1.053 2.333-2.333s-1.053-2.333-2.333-2.333z"></path>
<path d="M24.667 20.333c-0.547 0-1-0.453-1-1v-6.667c0-0.547 0.453-1 1-1s1 0.453 1 1v6.667c0 0.547-0.453 1-1 1z"></path>
<path d="M6.667 30.333c-3.493 0-6.333-2.84-6.333-6.333s2.84-6.333 6.333-6.333c3.493 0 6.333 2.84 6.333 6.333s-2.84 6.333-6.333 6.333zM6.667 19.667c-2.387 0-4.333 1.947-4.333 4.333s1.947 4.333 4.333 4.333c2.387 0 4.333-1.947 4.333-4.333s-1.947-4.333-4.333-4.333z"></path>
<path d="M5.333 26.333c-0.333 0-0.667-0.173-0.853-0.48-0.28-0.467-0.133-1.093 0.347-1.373l1.013-0.613c0.093-0.053 0.16-0.173 0.16-0.28v-1.24c0-0.547 0.453-1 1-1s1 0.453 1 1v1.24c0 0.813-0.44 1.587-1.133 2l-1.013 0.613c-0.16 0.093-0.347 0.133-0.52 0.133z"></path>
<path d="M22.667 27.667h-11.333c-0.547 0-1-0.453-1-1s0.453-1 1-1h11.333c3.813 0 5.667-1.853 5.667-5.667v-8c0-3.813-1.853-5.667-5.667-5.667h-13.333c-3.813 0-5.667 1.853-5.667 5.667v8.267c0 0.547-0.453 1-1 1s-1-0.453-1-1v-8.267c0-4.867 2.8-7.667 7.667-7.667h13.333c4.867 0 7.667 2.8 7.667 7.667v8c0 4.867-2.8 7.667-7.667 7.667z"></path>
</svg>
