<!-- Generated by IcoMoon.io -->
<svg version="1.1" xmlns="http://www.w3.org/2000/svg" width="32" height="32" viewBox="0 0 32 32">
<title>moneys</title>
<path d="M19.852 24.293h-11.72c-0.693 0-1.347-0.067-1.933-0.2-0.307-0.040-0.68-0.147-1.067-0.293-1.773-0.667-3.867-2.307-3.867-6.387v-6.867c0-4.36 2.507-6.867 6.867-6.867h11.72c3.68 0 6.053 1.76 6.693 4.96 0.12 0.587 0.173 1.213 0.173 1.907v6.867c0 4.387-2.493 6.88-6.867 6.88zM8.146 5.706c-3.28 0-4.867 1.587-4.867 4.867v6.867c0 2.387 0.84 3.853 2.56 4.507 0.267 0.093 0.52 0.16 0.76 0.2 0.507 0.107 1 0.16 1.547 0.16h11.72c3.28 0 4.867-1.587 4.867-4.867v-6.867c0-0.56-0.040-1.053-0.133-1.507-0.453-2.267-2-3.36-4.733-3.36h-11.72z"></path>
<path d="M23.855 28.293h-11.72c-1.133 0-2.147-0.16-3.013-0.493-1.96-0.733-3.24-2.28-3.68-4.493-0.067-0.333 0.040-0.68 0.28-0.907 0.24-0.24 0.587-0.333 0.92-0.253 0.44 0.093 0.933 0.147 1.493 0.147h11.72c3.28 0 4.867-1.587 4.867-4.867v-6.867c0-0.56-0.040-1.053-0.133-1.507-0.067-0.333 0.040-0.667 0.267-0.907 0.24-0.24 0.573-0.347 0.907-0.267 3.2 0.653 4.96 3.027 4.96 6.68v6.867c0 4.373-2.493 6.867-6.867 6.867zM7.895 24.293c0.427 0.773 1.067 1.32 1.947 1.64 0.64 0.24 1.413 0.36 2.307 0.36h11.72c3.28 0 4.867-1.587 4.867-4.867v-6.867c0-2.107-0.653-3.507-2-4.24 0 0.080 0 0.16 0 0.24v6.867c0 4.36-2.507 6.867-6.867 6.867h-11.72c-0.093 0-0.173 0-0.253 0z"></path>
<path d="M13.999 18.52c-2.493 0-4.52-2.027-4.52-4.52s2.027-4.52 4.52-4.52c2.493 0 4.52 2.027 4.52 4.52s-2.027 4.52-4.52 4.52zM13.999 11.48c-1.387 0-2.52 1.133-2.52 2.52s1.133 2.52 2.52 2.52c1.387 0 2.52-1.133 2.52-2.52s-1.133-2.52-2.52-2.52z"></path>
<path d="M6.375 17.933c-0.547 0-1-0.453-1-1v-5.867c0-0.547 0.453-1 1-1s1 0.453 1 1v5.867c0 0.547-0.44 1-1 1z"></path>
<path d="M21.615 17.933c-0.547 0-1-0.453-1-1v-5.867c0-0.547 0.453-1 1-1s1 0.453 1 1v5.867c0 0.547-0.44 1-1 1z"></path>
</svg>
