<!-- Generated by IcoMoon.io -->
<svg version="1.1" xmlns="http://www.w3.org/2000/svg" width="32" height="32" viewBox="0 0 32 32">
<title>money-forbidden</title>
<path d="M22.667 27.667h-11.333c-0.547 0-1-0.453-1-1s0.453-1 1-1h11.333c3.813 0 5.667-1.853 5.667-5.667v-8c0-3.813-1.853-5.667-5.667-5.667h-13.333c-3.813 0-5.667 1.853-5.667 5.667v8.267c0 0.547-0.453 1-1 1s-1-0.453-1-1v-8.267c0-4.867 2.8-7.667 7.667-7.667h13.333c4.867 0 7.667 2.8 7.667 7.667v8c0 4.867-2.8 7.667-7.667 7.667z"></path>
<path d="M16 20.333c-2.387 0-4.333-1.947-4.333-4.333s1.947-4.333 4.333-4.333c2.387 0 4.333 1.947 4.333 4.333s-1.947 4.333-4.333 4.333zM16 13.667c-1.28 0-2.333 1.053-2.333 2.333s1.053 2.333 2.333 2.333c1.28 0 2.333-1.053 2.333-2.333s-1.053-2.333-2.333-2.333z"></path>
<path d="M24.667 20.333c-0.547 0-1-0.453-1-1v-6.667c0-0.547 0.453-1 1-1s1 0.453 1 1v6.667c0 0.547-0.453 1-1 1z"></path>
<path d="M6.667 30.333c-2.213 0-4.293-1.173-5.413-3.080-0.6-0.96-0.92-2.093-0.92-3.253 0-3.493 2.84-6.333 6.333-6.333s6.333 2.84 6.333 6.333c0 1.16-0.32 2.293-0.92 3.267-1.12 1.893-3.2 3.067-5.413 3.067zM6.667 19.667c-2.387 0-4.333 1.947-4.333 4.333 0 0.787 0.213 1.56 0.627 2.227 0.773 1.307 2.2 2.107 3.707 2.107s2.933-0.8 3.707-2.093c0.413-0.68 0.627-1.44 0.627-2.24 0-2.387-1.947-4.333-4.333-4.333z"></path>
<path d="M2.999 28.667c-0.253 0-0.507-0.093-0.707-0.293-0.387-0.387-0.387-1.027 0-1.413l7.333-7.333c0.387-0.387 1.027-0.387 1.413 0s0.387 1.027 0 1.413l-7.333 7.333c-0.2 0.2-0.453 0.293-0.707 0.293z"></path>
</svg>
