<!-- Generated by IcoMoon.io -->
<svg version="1.1" xmlns="http://www.w3.org/2000/svg" width="32" height="32" viewBox="0 0 32 32">
<title>monitor-recorder</title>
<path d="M23.413 23.96h-14.827c-5.307 0-6.92-1.613-6.92-6.92v-8.453c0-5.307 1.613-6.92 6.92-6.92h2.080c0.547 0 1 0.453 1 1s-0.453 1-1 1h-2.080c-4.187 0-4.92 0.733-4.92 4.92v8.44c0 4.187 0.733 4.92 4.92 4.92h14.813c4.187 0 4.92-0.733 4.92-4.92v-1.187c0-0.547 0.453-1 1-1s1 0.453 1 1v1.187c0.013 5.32-1.6 6.933-6.907 6.933z"></path>
<path d="M16 30.333c-0.547 0-1-0.453-1-1v-6.373c0-0.547 0.453-1 1-1s1 0.453 1 1v6.373c0 0.547-0.453 1-1 1z"></path>
<path d="M29.333 18.333h-26.667c-0.547 0-1-0.453-1-1s0.453-1 1-1h26.667c0.547 0 1 0.453 1 1s-0.453 1-1 1z"></path>
<path d="M22 30.333h-12c-0.547 0-1-0.453-1-1s0.453-1 1-1h12c0.547 0 1 0.453 1 1s-0.453 1-1 1z"></path>
<path d="M23.813 13.493h-6.347c-2.093 0-3.453-1.36-3.453-3.453v-4.693c0-2.027 1.64-3.667 3.667-3.667h6.133c1.907 0 3.453 1.547 3.453 3.453v4.907c0 1.907-1.547 3.453-3.453 3.453zM17.68 3.68c-0.92 0-1.667 0.747-1.667 1.667v4.693c0 1.307 0.827 1.453 1.453 1.453h6.347c0.8 0 1.453-0.653 1.453-1.453v-4.907c0-0.8-0.653-1.453-1.453-1.453h-6.133z"></path>
<path d="M28.6 11.827c-0.427 0-0.867-0.147-1.293-0.453l-1.613-1.133c-0.267-0.187-0.427-0.493-0.427-0.813v-3.68c0-0.32 0.16-0.627 0.427-0.813l1.613-1.133c0.693-0.493 1.44-0.587 2.053-0.267s0.96 0.987 0.96 1.84v4.44c0 0.853-0.347 1.52-0.96 1.84-0.227 0.12-0.48 0.173-0.76 0.173zM27.267 8.907l1.067 0.747v-4.133l-1.067 0.747v2.64z"></path>
</svg>
