<!-- Generated by IcoMoon.io -->
<svg version="1.1" xmlns="http://www.w3.org/2000/svg" width="32" height="32" viewBox="0 0 32 32">
<title>monitor-mobbile</title>
<path d="M13.333 23.6h-5.053c-5.067 0-6.613-1.547-6.613-6.613v-8c0-5.067 1.547-6.613 6.613-6.613h14.040c5.067 0 6.613 1.547 6.613 6.613 0 0.547-0.453 1-1 1s-1-0.453-1-1c0-3.92-0.693-4.613-4.613-4.613h-14.040c-3.92 0-4.613 0.693-4.613 4.613v8c0 3.92 0.693 4.613 4.613 4.613h5.053c0.547 0 1 0.453 1 1s-0.453 1-1 1z"></path>
<path d="M13.333 29.627c-0.547 0-1-0.453-1-1v-6.040c0-0.547 0.453-1 1-1s1 0.453 1 1v6.040c0 0.56-0.453 1-1 1z"></path>
<path d="M13.333 18.267h-10.667c-0.547 0-1-0.453-1-1s0.453-1 1-1h10.667c0.547 0 1 0.453 1 1s-0.453 1-1 1z"></path>
<path d="M13.334 29.627h-4.347c-0.547 0-1-0.453-1-1s0.453-1 1-1h4.347c0.547 0 1 0.453 1 1s-0.453 1-1 1z"></path>
<path d="M25.387 29.627h-4.733c-3.693 0-4.947-1.253-4.947-4.947v-7.613c0-3.693 1.253-4.947 4.947-4.947h4.733c3.693 0 4.947 1.253 4.947 4.947v7.613c0 3.707-1.253 4.947-4.947 4.947zM20.654 14.12c-2.613 0-2.947 0.333-2.947 2.947v7.613c0 2.613 0.333 2.947 2.947 2.947h4.733c2.613 0 2.947-0.333 2.947-2.947v-7.613c0-2.613-0.333-2.947-2.947-2.947h-4.733z"></path>
<path d="M23.066 25.293c-0.347 0-0.693-0.133-0.947-0.387-0.12-0.12-0.213-0.267-0.28-0.427-0.067-0.173-0.107-0.347-0.107-0.52 0-0.347 0.147-0.693 0.387-0.933 0.307-0.307 0.773-0.453 1.213-0.373 0.080 0.027 0.16 0.053 0.24 0.080 0.080 0.040 0.16 0.080 0.227 0.12 0.080 0.053 0.147 0.107 0.213 0.173 0.24 0.24 0.387 0.587 0.387 0.933 0 0.173-0.040 0.347-0.107 0.52-0.067 0.16-0.16 0.307-0.28 0.427-0.067 0.067-0.133 0.12-0.213 0.16-0.067 0.053-0.147 0.093-0.227 0.133-0.080 0.027-0.16 0.053-0.24 0.067-0.093 0.027-0.173 0.027-0.267 0.027z"></path>
</svg>
