<!-- Generated by IcoMoon.io -->
<svg version="1.1" xmlns="http://www.w3.org/2000/svg" width="32" height="32" viewBox="0 0 32 32">
<title>monitor</title>
<path d="M23.413 23.96h-14.827c-5.307 0-6.92-1.613-6.92-6.92v-8.453c0-5.307 1.613-6.92 6.92-6.92h14.813c5.307 0 6.92 1.613 6.92 6.92v8.44c0.013 5.32-1.6 6.933-6.907 6.933zM8.587 3.667c-4.187 0-4.92 0.733-4.92 4.92v8.44c0 4.187 0.733 4.92 4.92 4.92h14.813c4.187 0 4.92-0.733 4.92-4.92v-8.44c0-4.187-0.733-4.92-4.92-4.92h-14.813z"></path>
<path d="M16 30.333c-0.547 0-1-0.453-1-1v-6.373c0-0.547 0.453-1 1-1s1 0.453 1 1v6.373c0 0.547-0.453 1-1 1z"></path>
<path d="M29.333 18.333h-26.667c-0.547 0-1-0.453-1-1s0.453-1 1-1h26.667c0.547 0 1 0.453 1 1s-0.453 1-1 1z"></path>
<path d="M22 30.333h-12c-0.547 0-1-0.453-1-1s0.453-1 1-1h12c0.547 0 1 0.453 1 1s-0.453 1-1 1z"></path>
</svg>
