<!-- Generated by IcoMoon.io -->
<svg version="1.1" xmlns="http://www.w3.org/2000/svg" width="32" height="32" viewBox="0 0 32 32">
<title>moon</title>
<path d="M16.614 30.333c-0.227 0-0.453 0-0.68-0.013-7.467-0.333-13.707-6.347-14.227-13.68-0.453-6.293 3.187-12.173 9.053-14.64 1.667-0.693 2.547-0.16 2.92 0.227 0.373 0.373 0.893 1.24 0.2 2.827-0.613 1.413-0.92 2.92-0.907 4.467 0.027 5.907 4.933 10.92 10.92 11.16 0.867 0.040 1.72-0.027 2.547-0.173 1.76-0.32 2.493 0.387 2.773 0.84s0.6 1.427-0.467 2.867c-2.827 3.867-7.32 6.12-12.133 6.12zM3.694 16.493c0.453 6.347 5.867 11.547 12.32 11.827 4.387 0.213 8.547-1.787 11.107-5.28 0.2-0.28 0.293-0.48 0.333-0.587-0.12-0.013-0.333-0.027-0.667 0.040-0.973 0.173-1.987 0.24-2.987 0.2-7.040-0.28-12.8-6.187-12.84-13.147 0-1.84 0.36-3.613 1.093-5.28 0.133-0.293 0.16-0.493 0.173-0.6-0.12 0-0.333 0.027-0.68 0.173-5.080 2.133-8.227 7.227-7.853 12.653z"></path>
</svg>
