<!-- Generated by IcoMoon.io -->
<svg version="1.1" xmlns="http://www.w3.org/2000/svg" width="32" height="32" viewBox="0 0 32 32">
<title>more</title>
<path d="M6.667 19.667c-2.027 0-3.667-1.64-3.667-3.667s1.64-3.667 3.667-3.667c2.027 0 3.667 1.64 3.667 3.667s-1.64 3.667-3.667 3.667zM6.667 14.333c-0.92 0-1.667 0.747-1.667 1.667s0.747 1.667 1.667 1.667c0.92 0 1.667-0.747 1.667-1.667s-0.747-1.667-1.667-1.667z"></path>
<path d="M25.333 19.667c-2.027 0-3.667-1.64-3.667-3.667s1.64-3.667 3.667-3.667c2.027 0 3.667 1.64 3.667 3.667s-1.64 3.667-3.667 3.667zM25.333 14.333c-0.92 0-1.667 0.747-1.667 1.667s0.747 1.667 1.667 1.667c0.92 0 1.667-0.747 1.667-1.667s-0.747-1.667-1.667-1.667z"></path>
<path d="M16 19.667c-2.027 0-3.667-1.64-3.667-3.667s1.64-3.667 3.667-3.667c2.027 0 3.667 1.64 3.667 3.667s-1.64 3.667-3.667 3.667zM16 14.333c-0.92 0-1.667 0.747-1.667 1.667s0.747 1.667 1.667 1.667c0.92 0 1.667-0.747 1.667-1.667s-0.747-1.667-1.667-1.667z"></path>
</svg>
