<!-- Generated by IcoMoon.io -->
<svg version="1.1" xmlns="http://www.w3.org/2000/svg" width="32" height="32" viewBox="0 0 32 32">
<title>mouse-circle</title>
<path d="M21.826 30.36c-0.013 0-0.013 0-0.027 0-1.347-0.013-2.467-0.84-2.867-2.133l-2.467-7.933c-0.333-1.093-0.053-2.267 0.76-3.053 0.8-0.787 1.96-1.080 3.027-0.747l7.947 2.467c1.28 0.4 2.12 1.52 2.133 2.867 0.013 1.333-0.8 2.467-2.080 2.893l-2.173 0.733c-0.307 0.107-0.547 0.333-0.64 0.64l-0.747 2.187c-0.413 1.267-1.533 2.080-2.867 2.080zM19.346 18.36c-0.36 0-0.6 0.2-0.707 0.293-0.28 0.28-0.373 0.667-0.253 1.053l2.467 7.933c0.213 0.68 0.8 0.707 0.987 0.72 0.187 0 0.76-0.053 0.973-0.707l0.747-2.187c0.293-0.893 1.013-1.6 1.907-1.907l2.173-0.733c0.667-0.213 0.707-0.8 0.707-0.973s-0.053-0.76-0.72-0.973l-7.947-2.467c-0.133-0.040-0.24-0.053-0.333-0.053z"></path>
<path d="M16 30.333c-7.907 0-14.333-6.427-14.333-14.333s6.427-14.333 14.333-14.333c7.907 0 14.333 6.427 14.333 14.333 0 0.547-0.453 1-1 1s-1-0.453-1-1c0-6.8-5.533-12.333-12.333-12.333s-12.333 5.533-12.333 12.333c0 6.8 5.533 12.333 12.333 12.333 0.547 0 1 0.453 1 1s-0.453 1-1 1z"></path>
</svg>
