<!-- Generated by IcoMoon.io -->
<svg version="1.1" xmlns="http://www.w3.org/2000/svg" width="32" height="32" viewBox="0 0 32 32">
<title>mouse-1</title>
<path d="M15.081 24c-0.013 0-0.013 0-0.027 0-1.387-0.013-2.56-0.88-2.973-2.2l-2.6-8.373c-0.347-1.133-0.053-2.347 0.787-3.173 0.827-0.827 2.027-1.12 3.147-0.773l8.387 2.6c1.333 0.413 2.2 1.587 2.213 2.973s-0.827 2.56-2.147 3l-2.293 0.773c-0.347 0.12-0.6 0.373-0.72 0.707l-0.787 2.307c-0.44 1.32-1.613 2.16-2.987 2.16zM12.455 11.333c-0.4 0-0.667 0.213-0.787 0.333-0.307 0.307-0.413 0.747-0.28 1.16l2.6 8.373c0.227 0.733 0.88 0.8 1.080 0.8 0.16-0.013 0.84-0.053 1.080-0.787l0.787-2.307c0.307-0.92 1.053-1.667 1.973-1.973l2.293-0.773c0 0 0 0 0.013 0 0.733-0.24 0.787-0.893 0.787-1.080 0-0.2-0.067-0.853-0.8-1.080l-8.387-2.6c-0.133-0.053-0.253-0.067-0.36-0.067z"></path>
<path d="M16 30.333c-7.907 0-14.333-6.427-14.333-14.333s6.427-14.333 14.333-14.333c7.907 0 14.333 6.427 14.333 14.333s-6.427 14.333-14.333 14.333zM16 3.667c-6.8 0-12.333 5.533-12.333 12.333s5.533 12.333 12.333 12.333c6.8 0 12.333-5.533 12.333-12.333s-5.533-12.333-12.333-12.333z"></path>
</svg>
