<!-- Generated by IcoMoon.io -->
<svg version="1.1" xmlns="http://www.w3.org/2000/svg" width="32" height="32" viewBox="0 0 32 32">
<title>mouse-square</title>
<path d="M16 30.333h-4c-7.24 0-10.333-3.093-10.333-10.333v-8c0-7.24 3.093-10.333 10.333-10.333h8c7.24 0 10.333 3.093 10.333 10.333v4c0 0.547-0.453 1-1 1s-1-0.453-1-1v-4c0-6.147-2.187-8.333-8.333-8.333h-8c-6.147 0-8.333 2.187-8.333 8.333v8c0 6.147 2.187 8.333 8.333 8.333h4c0.547 0 1 0.453 1 1s-0.453 1-1 1z"></path>
<path d="M21.826 30.36c-0.013 0-0.013 0-0.027 0-1.347-0.013-2.467-0.84-2.867-2.133l-2.467-7.933c-0.333-1.093-0.053-2.267 0.76-3.053 0.8-0.787 1.96-1.080 3.027-0.747l7.947 2.467c1.28 0.4 2.12 1.52 2.133 2.867 0.013 1.333-0.8 2.467-2.080 2.893l-2.173 0.733c-0.307 0.107-0.547 0.333-0.64 0.64l-0.747 2.187c-0.413 1.267-1.533 2.080-2.867 2.080zM19.346 18.36c-0.36 0-0.6 0.2-0.707 0.293-0.28 0.28-0.373 0.667-0.253 1.053l2.467 7.933c0.213 0.68 0.773 0.707 0.987 0.72 0.187 0 0.76-0.053 0.973-0.707l0.747-2.187c0.293-0.893 1.013-1.6 1.907-1.907l2.173-0.733c0.667-0.213 0.707-0.8 0.707-0.973s-0.053-0.76-0.72-0.973l-7.947-2.467c-0.133-0.040-0.24-0.053-0.333-0.053z"></path>
</svg>
