<!-- Generated by IcoMoon.io -->
<svg version="1.1" xmlns="http://www.w3.org/2000/svg" width="32" height="32" viewBox="0 0 32 32">
<title>mouse</title>
<path d="M16 30.333c-6.067 0-11-4.933-11-11v-6.667c0-6.067 4.933-11 11-11s11 4.933 11 11v6.667c0 6.067-4.933 11-11 11zM16 3.667c-4.96 0-9 4.040-9 9v6.667c0 4.96 4.040 9 9 9s9-4.040 9-9v-6.667c0-4.96-4.040-9-9-9z"></path>
<path d="M16 15.667c-1.653 0-3-1.347-3-3v-2.667c0-1.653 1.347-3 3-3s3 1.347 3 3v2.667c0 1.653-1.347 3-3 3zM16 9c-0.547 0-1 0.453-1 1v2.667c0 0.547 0.453 1 1 1s1-0.453 1-1v-2.667c0-0.547-0.453-1-1-1z"></path>
<path d="M16 9c-0.547 0-1-0.453-1-1v-5.333c0-0.547 0.453-1 1-1s1 0.453 1 1v5.333c0 0.547-0.453 1-1 1z"></path>
</svg>
