<!-- Generated by IcoMoon.io -->
<svg version="1.1" xmlns="http://www.w3.org/2000/svg" width="32" height="32" viewBox="0 0 32 32">
<title>music-library-2</title>
<path d="M22.667 30.333h-13.333c-4.867 0-7.667-2.8-7.667-7.667v-5.333c0-4.8 2.56-6.587 4.707-7.253 0.867-0.28 1.867-0.413 2.96-0.413h13.333c1.093 0 2.093 0.147 2.973 0.427 2.133 0.653 4.693 2.453 4.693 7.24v5.333c0 4.867-2.8 7.667-7.667 7.667zM9.333 11.667c-0.88 0-1.68 0.107-2.36 0.333-2.227 0.68-3.307 2.427-3.307 5.333v5.333c0 3.813 1.853 5.667 5.667 5.667h13.333c3.813 0 5.667-1.853 5.667-5.667v-5.333c0-2.907-1.080-4.653-3.293-5.333-0.693-0.227-1.493-0.333-2.373-0.333h-13.333z"></path>
<path d="M25.333 12.040c-0.107 0-0.2-0.013-0.307-0.053-0.68-0.213-1.48-0.333-2.36-0.333h-13.333c-0.88 0-1.68 0.107-2.36 0.333-0.307 0.093-0.64 0.040-0.893-0.147s-0.413-0.493-0.413-0.813v-1.693c0-2.027 1.64-3.667 3.667-3.667h13.333c2.027 0 3.667 1.64 3.667 3.667v1.707c0 0.32-0.147 0.613-0.413 0.813-0.173 0.12-0.373 0.187-0.587 0.187zM9.333 7.667c-0.92 0-1.667 0.747-1.667 1.667v0.453c0.52-0.080 1.080-0.12 1.667-0.12h13.333c0.587 0 1.147 0.040 1.667 0.12v-0.453c0-0.92-0.747-1.667-1.667-1.667h-13.333z"></path>
<path d="M21.333 7.667h-10.667c-0.547 0-1-0.453-1-1v-1.987c0-1.667 1.347-3.013 3.013-3.013h6.64c1.667 0 3.013 1.347 3.013 3.013v1.987c0 0.547-0.453 1-1 1zM11.667 5.667h8.667v-0.987c0-0.56-0.453-1.013-1.013-1.013h-6.64c-0.56 0-1.013 0.453-1.013 1.013v0.987z"></path>
<path d="M12.093 26.947c-1.52 0-2.76-1.24-2.76-2.76s1.24-2.76 2.76-2.76c1.52 0 2.76 1.24 2.76 2.76s-1.227 2.76-2.76 2.76zM12.093 23.414c-0.427 0-0.76 0.347-0.76 0.76s0.347 0.76 0.76 0.76c0.413 0 0.76-0.347 0.76-0.76s-0.333-0.76-0.76-0.76z"></path>
<path d="M13.867 25.173c-0.547 0-1-0.453-1-1v-7.107c0-1.147 0.72-2.080 1.827-2.387l3.533-0.96c1.133-0.307 1.853-0.013 2.253 0.293s0.867 0.907 0.867 2.080v6.893c0 0.547-0.453 1-1 1s-1-0.453-1-1v-6.893c0-0.333-0.067-0.467-0.093-0.493-0.027-0.013-0.187-0.040-0.507 0.040l-3.533 0.96c-0.307 0.080-0.347 0.28-0.347 0.453v7.107c0 0.573-0.453 1.013-1 1.013z"></path>
<path d="M18.573 25.76c-1.52 0-2.76-1.24-2.76-2.76s1.24-2.76 2.76-2.76c1.52 0 2.76 1.24 2.76 2.76s-1.24 2.76-2.76 2.76zM18.573 22.24c-0.427 0-0.76 0.347-0.76 0.76s0.347 0.76 0.76 0.76c0.413 0 0.76-0.347 0.76-0.76s-0.347-0.76-0.76-0.76z"></path>
<path d="M13.865 20.133c-0.44 0-0.84-0.293-0.96-0.733-0.147-0.533 0.173-1.080 0.707-1.227l6.467-1.76c0.533-0.147 1.080 0.173 1.227 0.707s-0.173 1.080-0.707 1.227l-6.467 1.76c-0.093 0.013-0.187 0.027-0.267 0.027z"></path>
</svg>
