<!-- Generated by IcoMoon.io -->
<svg version="1.1" xmlns="http://www.w3.org/2000/svg" width="32" height="32" viewBox="0 0 32 32">
<title>musicnote</title>
<path d="M10.628 30.333c-3.493 0-6.333-2.84-6.333-6.333s2.84-6.333 6.333-6.333c3.493 0 6.333 2.84 6.333 6.333s-2.84 6.333-6.333 6.333zM10.628 19.667c-2.387 0-4.333 1.947-4.333 4.333s1.947 4.333 4.333 4.333c2.387 0 4.333-1.947 4.333-4.333s-1.933-4.333-4.333-4.333z"></path>
<path d="M15.961 25c-0.547 0-1-0.453-1-1v-18.667c0-0.547 0.453-1 1-1s1 0.453 1 1v18.667c0 0.547-0.44 1-1 1z"></path>
<path d="M25.507 13.64c-0.44 0-0.907-0.080-1.36-0.227l-5.893-1.96c-1.84-0.613-3.28-2.613-3.28-4.547v-1.573c0-1.293 0.533-2.413 1.44-3.080 0.92-0.667 2.147-0.8 3.373-0.4l5.893 1.96c1.84 0.613 3.28 2.613 3.28 4.547v1.56c0 1.293-0.533 2.413-1.44 3.080-0.573 0.44-1.28 0.64-2.013 0.64zM18.427 3.627c-0.32 0-0.613 0.080-0.84 0.253-0.4 0.28-0.613 0.8-0.613 1.453v1.56c0 1.067 0.893 2.307 1.907 2.653l5.893 1.96c0.613 0.213 1.187 0.16 1.573-0.12 0.4-0.28 0.613-0.8 0.613-1.453v-1.56c0-1.067-0.893-2.307-1.907-2.653l-5.893-1.96c-0.253-0.093-0.507-0.133-0.733-0.133z"></path>
</svg>
