<!-- Generated by IcoMoon.io -->
<svg version="1.1" xmlns="http://www.w3.org/2000/svg" width="32" height="32" viewBox="0 0 32 32">
<title>music-playlist</title>
<path d="M22.667 30.333h-13.333c-4.867 0-7.667-2.8-7.667-7.667v-6.667c0-4.867 2.8-7.667 7.667-7.667h13.333c4.867 0 7.667 2.8 7.667 7.667v6.667c0 4.867-2.8 7.667-7.667 7.667zM9.333 10.333c-3.813 0-5.667 1.853-5.667 5.667v6.667c0 3.813 1.853 5.667 5.667 5.667h13.333c3.813 0 5.667-1.853 5.667-5.667v-6.667c0-3.813-1.853-5.667-5.667-5.667h-13.333z"></path>
<path d="M24 7h-16c-0.547 0-1-0.453-1-1s0.453-1 1-1h16c0.547 0 1 0.453 1 1s-0.453 1-1 1z"></path>
<path d="M20 3.667h-8c-0.547 0-1-0.453-1-1s0.453-1 1-1h8c0.547 0 1 0.453 1 1s-0.453 1-1 1z"></path>
<path d="M11.853 26.48c-1.56 0-2.827-1.267-2.827-2.827s1.267-2.827 2.827-2.827c1.56 0 2.827 1.267 2.827 2.827s-1.267 2.827-2.827 2.827zM11.853 22.827c-0.453 0-0.827 0.373-0.827 0.827s0.373 0.827 0.827 0.827c0.453 0 0.827-0.373 0.827-0.827s-0.373-0.827-0.827-0.827z"></path>
<path d="M13.68 24.653c-0.547 0-1-0.453-1-1v-7.347c0-1.173 0.733-2.12 1.853-2.427l3.653-1c1.16-0.32 1.893-0.013 2.293 0.307 0.4 0.307 0.88 0.933 0.88 2.12v7.133c0 0.547-0.453 1-1 1s-1-0.453-1-1v-7.133c0-0.373-0.080-0.52-0.107-0.533s-0.187-0.067-0.56 0.040l-3.64 1c-0.333 0.093-0.387 0.32-0.387 0.507v7.347c0.013 0.533-0.44 0.987-0.987 0.987z"></path>
<path d="M18.545 25.267c-1.56 0-2.827-1.267-2.827-2.827s1.267-2.827 2.827-2.827c1.56 0 2.827 1.267 2.827 2.827s-1.267 2.827-2.827 2.827zM18.545 21.613c-0.453 0-0.827 0.373-0.827 0.827s0.373 0.827 0.827 0.827c0.453 0 0.827-0.373 0.827-0.827s-0.373-0.827-0.827-0.827z"></path>
<path d="M13.681 19.44c-0.44 0-0.84-0.293-0.96-0.733-0.147-0.533 0.173-1.080 0.707-1.227l6.68-1.827c0.547-0.147 1.080 0.173 1.227 0.707s-0.173 1.080-0.707 1.227l-6.68 1.827c-0.093 0.013-0.173 0.027-0.267 0.027z"></path>
</svg>
