<!-- Generated by IcoMoon.io -->
<svg version="1.1" xmlns="http://www.w3.org/2000/svg" width="32" height="32" viewBox="0 0 32 32">
<title>music-square-remove</title>
<path d="M19.133 29h-7.6c-6.92 0-9.867-2.947-9.867-9.867v-7.6c0-6.92 2.947-9.867 9.867-9.867h7.6c6.92 0 9.867 2.947 9.867 9.867v7.6c0 0.48-0.013 0.933-0.040 1.373-0.027 0.4-0.293 0.747-0.68 0.88s-0.8 0.013-1.080-0.28c-0.8-0.907-1.973-1.44-3.213-1.44-2.387 0-4.333 1.947-4.333 4.333 0 0.787 0.213 1.56 0.627 2.227 0.213 0.373 0.493 0.707 0.813 0.987 0.307 0.267 0.427 0.693 0.293 1.067-0.133 0.387-0.48 0.653-0.88 0.68-0.427 0.027-0.88 0.040-1.373 0.040zM11.533 3.667c-5.813 0-7.867 2.053-7.867 7.867v7.6c0 5.813 2.053 7.867 7.867 7.867h6.893c-0.493-0.907-0.76-1.933-0.76-3 0-3.493 2.84-6.333 6.333-6.333 1.067 0 2.093 0.267 3 0.747v-6.88c0-5.813-2.053-7.867-7.867-7.867h-7.6z"></path>
<path d="M8.959 20.227c-1.613 0-2.933-1.32-2.933-2.933s1.32-2.933 2.933-2.933c1.613 0 2.933 1.32 2.933 2.933s-1.32 2.933-2.933 2.933zM8.959 16.36c-0.507 0-0.933 0.413-0.933 0.933 0 0.507 0.413 0.933 0.933 0.933s0.933-0.413 0.933-0.933c0-0.52-0.413-0.933-0.933-0.933z"></path>
<path d="M10.893 18.293c-0.547 0-1-0.453-1-1v-7.773c0-1.213 0.76-2.2 1.92-2.52l3.867-1.053c1.2-0.333 1.96-0.013 2.373 0.307s0.92 0.96 0.92 2.2v7.547c0 0.547-0.453 1-1 1s-1-0.453-1-1v-7.547c0-0.427-0.093-0.587-0.133-0.613s-0.24-0.080-0.64 0.027l-3.853 1.053c-0.4 0.107-0.453 0.387-0.453 0.587v7.773c0 0.56-0.453 1.013-1 1.013z"></path>
<path d="M16.040 18.933c-1.613 0-2.933-1.32-2.933-2.933s1.32-2.933 2.933-2.933c1.613 0 2.933 1.32 2.933 2.933 0 1.627-1.32 2.933-2.933 2.933zM16.040 15.080c-0.507 0-0.933 0.413-0.933 0.933 0 0.507 0.413 0.933 0.933 0.933s0.933-0.413 0.933-0.933c0-0.52-0.427-0.933-0.933-0.933z"></path>
<path d="M10.894 12.773c-0.44 0-0.84-0.293-0.96-0.733-0.147-0.533 0.173-1.080 0.707-1.227l7.080-1.933c0.533-0.133 1.080 0.173 1.227 0.707s-0.173 1.080-0.707 1.227l-7.080 1.933c-0.093 0.013-0.187 0.027-0.267 0.027z"></path>
<path d="M24 30.333c-1.573 0-3.067-0.587-4.227-1.64-0.467-0.4-0.88-0.893-1.2-1.44-0.587-0.96-0.907-2.093-0.907-3.253 0-3.493 2.84-6.333 6.333-6.333 1.813 0 3.533 0.773 4.707 2.107 1.040 1.16 1.627 2.653 1.627 4.227 0 1.16-0.32 2.293-0.92 3.267-1.12 1.893-3.2 3.067-5.413 3.067zM24 19.667c-2.387 0-4.333 1.947-4.333 4.333 0 0.787 0.213 1.56 0.627 2.227 0.213 0.373 0.493 0.707 0.813 0.987 0.8 0.733 1.827 1.133 2.893 1.133 1.533 0 2.92-0.787 3.707-2.093 0.413-0.68 0.627-1.44 0.627-2.24 0-1.067-0.4-2.093-1.12-2.893-0.8-0.933-1.973-1.453-3.213-1.453z"></path>
<path d="M25.427 26.387c-0.253 0-0.507-0.093-0.707-0.293l-2.813-2.813c-0.387-0.387-0.387-1.027 0-1.413s1.027-0.387 1.413 0l2.813 2.813c0.387 0.387 0.387 1.027 0 1.413-0.2 0.2-0.453 0.293-0.707 0.293z"></path>
<path d="M22.575 26.427c-0.253 0-0.507-0.093-0.707-0.293-0.387-0.387-0.387-1.027 0-1.413l2.813-2.813c0.387-0.387 1.027-0.387 1.413 0s0.387 1.027 0 1.413l-2.813 2.813c-0.2 0.2-0.453 0.293-0.707 0.293z"></path>
</svg>
