<!-- Generated by IcoMoon.io -->
<svg version="1.1" xmlns="http://www.w3.org/2000/svg" width="32" height="32" viewBox="0 0 32 32">
<title>music-filter</title>
<path d="M29.333 5h-26.667c-0.547 0-1-0.453-1-1s0.453-1 1-1h26.667c0.547 0 1 0.453 1 1s-0.453 1-1 1z"></path>
<path d="M14.667 13h-12c-0.547 0-1-0.453-1-1s0.453-1 1-1h12c0.547 0 1 0.453 1 1s-0.453 1-1 1z"></path>
<path d="M10.667 21h-8c-0.547 0-1-0.453-1-1s0.453-1 1-1h8c0.547 0 1 0.453 1 1s-0.453 1-1 1z"></path>
<path d="M8 29h-5.333c-0.547 0-1-0.453-1-1s0.453-1 1-1h5.333c0.547 0 1 0.453 1 1s-0.453 1-1 1z"></path>
<path d="M15.787 30.333c-2.147 0-3.907-1.747-3.907-3.907 0-2.147 1.747-3.907 3.907-3.907s3.907 1.747 3.907 3.907c0 2.16-1.747 3.907-3.907 3.907zM15.787 24.533c-1.053 0-1.907 0.853-1.907 1.907s0.853 1.907 1.907 1.907c1.053 0 1.907-0.853 1.907-1.907s-0.853-1.907-1.907-1.907z"></path>
<path d="M18.693 27.427c-0.547 0-1-0.453-1-1v-11.693c0-1.613 0.96-2.88 2.52-3.293l5.8-1.587c1.267-0.347 2.36-0.213 3.133 0.387s1.173 1.573 1.173 2.92v11.347c0 0.547-0.453 1-1 1s-1-0.453-1-1v-11.347c0-0.667-0.133-1.133-0.387-1.32-0.253-0.2-0.773-0.213-1.4-0.040l-5.8 1.587c-0.387 0.107-1.040 0.427-1.040 1.373v11.693c0 0.533-0.453 0.973-1 0.973z"></path>
<path d="M26.427 28.4c-2.147 0-3.907-1.747-3.907-3.907 0-2.147 1.747-3.907 3.907-3.907s3.907 1.747 3.907 3.907c0 2.16-1.747 3.907-3.907 3.907zM26.427 22.6c-1.053 0-1.907 0.853-1.907 1.907s0.853 1.907 1.907 1.907c1.053 0 1.907-0.853 1.907-1.907s-0.853-1.907-1.907-1.907z"></path>
<path d="M18.694 19.133c-0.44 0-0.84-0.293-0.96-0.733-0.147-0.533 0.173-1.080 0.707-1.227l10.64-2.907c0.533-0.147 1.080 0.173 1.227 0.707s-0.173 1.080-0.707 1.227l-10.64 2.907c-0.093 0.013-0.187 0.027-0.267 0.027z"></path>
</svg>
