<!-- Generated by IcoMoon.io -->
<svg version="1.1" xmlns="http://www.w3.org/2000/svg" width="32" height="32" viewBox="0 0 32 32">
<title>music-circle</title>
<path d="M3.439 12.56c-0.107 0-0.227-0.013-0.333-0.053-0.52-0.187-0.787-0.76-0.613-1.28 0.893-2.507 2.44-4.707 4.507-6.373 0.427-0.347 1.053-0.28 1.4 0.147s0.28 1.053-0.147 1.413c-1.773 1.427-3.107 3.32-3.867 5.48-0.147 0.413-0.533 0.667-0.947 0.667z"></path>
<path d="M3.44 21.44c-0.413 0-0.8-0.253-0.947-0.667-0.547-1.56-0.827-3.16-0.827-4.773 0-0.547 0.453-1 1-1s1 0.453 1 1c0 1.387 0.24 2.773 0.72 4.107 0.187 0.52-0.093 1.093-0.613 1.28-0.107 0.040-0.227 0.053-0.333 0.053z"></path>
<path d="M16.001 30.333c-1.413 0-2.813-0.213-4.173-0.627-0.533-0.16-0.827-0.72-0.667-1.253s0.72-0.827 1.253-0.667c1.16 0.36 2.373 0.533 3.587 0.533 6.8 0 12.333-5.533 12.333-12.333 0-0.693-0.067-1.413-0.2-2.173-0.093-0.547 0.267-1.067 0.813-1.16s1.067 0.267 1.16 0.813c0.16 0.88 0.24 1.707 0.24 2.533-0.013 7.907-6.44 14.333-14.347 14.333z"></path>
<path d="M7.627 27.333c-0.227 0-0.44-0.067-0.627-0.227-0.76-0.613-1.373-1.2-1.893-1.8-0.36-0.413-0.307-1.053 0.107-1.413s1.053-0.307 1.413 0.107c0.44 0.507 0.973 1.013 1.627 1.547 0.427 0.347 0.493 0.973 0.147 1.4-0.187 0.253-0.48 0.387-0.773 0.387z"></path>
<path d="M26.987 9.453c-0.32 0-0.627-0.147-0.827-0.44-2.307-3.36-6.107-5.36-10.16-5.36-1.213 0-2.427 0.173-3.587 0.533-0.52 0.16-1.080-0.133-1.253-0.667s0.133-1.093 0.667-1.253c1.36-0.413 2.76-0.627 4.173-0.627 4.72 0 9.133 2.333 11.813 6.227 0.307 0.453 0.2 1.080-0.253 1.387-0.173 0.147-0.373 0.2-0.573 0.2z"></path>
<path d="M11.453 23.813c-1.72 0-3.12-1.4-3.12-3.12s1.4-3.12 3.12-3.12c1.72 0 3.12 1.4 3.12 3.12s-1.4 3.12-3.12 3.12zM11.453 19.573c-0.613 0-1.12 0.507-1.12 1.12s0.507 1.12 1.12 1.12c0.613 0 1.12-0.507 1.12-1.12s-0.507-1.12-1.12-1.12z"></path>
<path d="M13.573 21.693c-0.547 0-1-0.453-1-1v-8.533c0-1.28 0.8-2.333 2.040-2.667l4.24-1.16c1.28-0.347 2.080-0.013 2.52 0.32 0.64 0.493 0.96 1.28 0.96 2.347v8.28c0 0.547-0.453 1-1 1s-1-0.453-1-1v-8.28c0-0.453-0.093-0.693-0.187-0.747-0.093-0.067-0.373-0.093-0.787 0.013l-4.24 1.16c-0.373 0.107-0.56 0.347-0.56 0.733v8.533c0.013 0.547-0.44 1-0.987 1z"></path>
<path d="M19.214 22.4c-1.72 0-3.12-1.4-3.12-3.12s1.4-3.12 3.12-3.12c1.72 0 3.12 1.4 3.12 3.12s-1.4 3.12-3.12 3.12zM19.214 18.16c-0.613 0-1.12 0.507-1.12 1.12s0.507 1.12 1.12 1.12c0.613 0 1.12-0.507 1.12-1.12s-0.507-1.12-1.12-1.12z"></path>
<path d="M13.574 15.333c-0.44 0-0.84-0.293-0.96-0.733-0.147-0.533 0.173-1.080 0.707-1.227l7.76-2.12c0.533-0.147 1.080 0.173 1.227 0.707s-0.173 1.080-0.707 1.227l-7.76 2.12c-0.093 0.027-0.187 0.027-0.267 0.027z"></path>
</svg>
