<!-- Generated by IcoMoon.io -->
<svg version="1.1" xmlns="http://www.w3.org/2000/svg" width="32" height="32" viewBox="0 0 32 32">
<title>music-play</title>
<path d="M7.453 30.267c-3.12 0-5.76-2.64-5.76-5.76v-8.213c-0.080-3.88 1.373-7.547 4.067-10.307 2.693-2.747 6.32-4.253 10.2-4.253 7.947 0 14.4 6.467 14.4 14.413v8.213c0 3.173-2.587 5.76-5.76 5.76s-5.76-2.587-5.76-5.76v-3.747c0-1.907 1.547-3.453 3.453-3.453s3.453 1.547 3.453 3.453v4.040c0 0.547-0.453 1-1 1s-1-0.453-1-1v-4.040c0-0.907-0.733-1.453-1.453-1.453-0.907 0-1.453 0.733-1.453 1.453v3.747c0 2.040 1.72 3.76 3.76 3.76s3.76-1.72 3.76-3.76v-8.213c0-6.84-5.56-12.413-12.4-12.413-3.347 0-6.453 1.293-8.773 3.653s-3.56 5.52-3.493 8.88v8.227c0 2.040 1.72 3.76 3.76 3.76s3.76-1.72 3.76-3.76v-3.747c0-0.907-0.733-1.453-1.453-1.453-0.907 0-1.453 0.733-1.453 1.453v3.893c0 0.547-0.453 1-1 1s-1-0.453-1-1v-3.893c0-1.933 1.52-3.453 3.453-3.453 1.907 0 3.453 1.547 3.453 3.453v3.747c0 3.187-2.587 5.773-5.76 5.773z"></path>
<path d="M17.573 15.813c-0.533 0-1.013-0.293-1.24-0.773l-1.933-3.853-0.56 1.040c-0.307 0.573-0.92 0.933-1.573 0.933h-0.973c-0.547 0-1-0.453-1-1s0.453-1 1-1h0.853l1.053-1.947c0.253-0.453 0.72-0.693 1.24-0.733 0.52 0 0.987 0.307 1.227 0.76l1.907 3.813 0.453-0.92c0.307-0.613 0.907-0.987 1.6-0.987h1.080c0.547 0 1 0.453 1 1s-0.453 1-1 1h-0.947l-0.947 1.88c-0.24 0.493-0.707 0.787-1.24 0.787z"></path>
</svg>
