<!-- Generated by IcoMoon.io -->
<svg version="1.1" xmlns="http://www.w3.org/2000/svg" width="32" height="32" viewBox="0 0 32 32">
<title>music-square-search</title>
<path d="M16.467 29h-4.933c-6.92 0-9.867-2.947-9.867-9.867v-7.6c0-6.92 2.947-9.867 9.867-9.867h7.6c6.92 0 9.867 2.947 9.867 9.867v4.933c0 0.547-0.453 1-1 1s-1-0.453-1-1v-4.933c0-5.813-2.053-7.867-7.867-7.867h-7.6c-5.813 0-7.867 2.053-7.867 7.867v7.6c0 5.813 2.053 7.867 7.867 7.867h4.933c0.547 0 1 0.453 1 1s-0.453 1-1 1z"></path>
<path d="M8.959 20.227c-1.613 0-2.933-1.32-2.933-2.933s1.32-2.933 2.933-2.933c1.613 0 2.933 1.32 2.933 2.933s-1.32 2.933-2.933 2.933zM8.959 16.36c-0.507 0-0.933 0.413-0.933 0.933 0 0.507 0.413 0.933 0.933 0.933s0.933-0.413 0.933-0.933c0-0.52-0.413-0.933-0.933-0.933z"></path>
<path d="M10.893 18.293c-0.547 0-1-0.453-1-1v-7.773c0-1.213 0.76-2.2 1.92-2.52l3.867-1.053c1.2-0.333 1.96-0.013 2.373 0.307s0.92 0.96 0.92 2.2v7.547c0 0.547-0.453 1-1 1s-1-0.453-1-1v-7.547c0-0.427-0.093-0.587-0.133-0.613s-0.227-0.080-0.64 0.027l-3.853 1.053c-0.4 0.107-0.453 0.387-0.453 0.587v7.773c0 0.56-0.453 1.013-1 1.013z"></path>
<path d="M16.040 18.933c-1.613 0-2.933-1.32-2.933-2.933s1.32-2.933 2.933-2.933c1.613 0 2.933 1.32 2.933 2.933 0 1.627-1.32 2.933-2.933 2.933zM16.040 15.080c-0.507 0-0.933 0.413-0.933 0.933 0 0.507 0.413 0.933 0.933 0.933s0.933-0.413 0.933-0.933c0-0.52-0.427-0.933-0.933-0.933z"></path>
<path d="M10.894 12.773c-0.44 0-0.84-0.293-0.96-0.733-0.147-0.533 0.173-1.080 0.707-1.227l7.080-1.933c0.533-0.133 1.080 0.173 1.227 0.707s-0.173 1.080-0.707 1.227l-7.080 1.933c-0.093 0.013-0.187 0.027-0.267 0.027z"></path>
<path d="M23.92 29.373c-2.907 0-5.267-2.36-5.267-5.267s2.36-5.267 5.267-5.267c2.907 0 5.267 2.36 5.267 5.267s-2.36 5.267-5.267 5.267zM23.92 20.84c-1.8 0-3.267 1.467-3.267 3.267s1.467 3.267 3.267 3.267c1.8 0 3.267-1.467 3.267-3.267s-1.467-3.267-3.267-3.267z"></path>
<path d="M28.986 30.173c-0.253 0-0.507-0.093-0.707-0.293l-1.333-1.333c-0.387-0.387-0.387-1.027 0-1.413s1.027-0.387 1.413 0l1.333 1.333c0.387 0.387 0.387 1.027 0 1.413-0.2 0.187-0.453 0.293-0.707 0.293z"></path>
</svg>
