<!-- Generated by IcoMoon.io -->
<svg version="1.1" xmlns="http://www.w3.org/2000/svg" width="32" height="32" viewBox="0 0 32 32">
<title>music-square</title>
<path d="M20 30.333h-8c-7.24 0-10.333-3.093-10.333-10.333v-8c0-7.24 3.093-10.333 10.333-10.333h8c7.24 0 10.333 3.093 10.333 10.333v8c0 7.24-3.093 10.333-10.333 10.333zM12 3.667c-6.147 0-8.333 2.187-8.333 8.333v8c0 6.147 2.187 8.333 8.333 8.333h8c6.147 0 8.333-2.187 8.333-8.333v-8c0-6.147-2.187-8.333-8.333-8.333h-8z"></path>
<path d="M11.226 23.813c-1.707 0-3.093-1.387-3.093-3.093s1.387-3.093 3.093-3.093c1.707 0 3.093 1.387 3.093 3.093s-1.387 3.093-3.093 3.093zM11.226 19.626c-0.6 0-1.093 0.493-1.093 1.093s0.493 1.093 1.093 1.093c0.6 0 1.093-0.493 1.093-1.093s-0.493-1.093-1.093-1.093z"></path>
<path d="M13.32 21.72c-0.547 0-1-0.453-1-1v-8.44c0-1.28 0.8-2.32 2.027-2.653l4.187-1.147c1.267-0.347 2.067-0.013 2.507 0.32 0.64 0.493 0.96 1.267 0.96 2.32v8.187c0 0.547-0.453 1-1 1s-1-0.453-1-1v-8.187c0-0.44-0.093-0.68-0.173-0.733-0.067-0.053-0.307-0.107-0.773 0.013l-4.187 1.147c-0.373 0.107-0.547 0.333-0.547 0.72v8.44c0 0.56-0.453 1.013-1 1.013z"></path>
<path d="M18.906 22.413c-1.707 0-3.093-1.387-3.093-3.093s1.387-3.093 3.093-3.093c1.707 0 3.093 1.387 3.093 3.093s-1.387 3.093-3.093 3.093zM18.906 18.227c-0.6 0-1.093 0.493-1.093 1.093s0.493 1.093 1.093 1.093c0.6 0 1.093-0.493 1.093-1.093s-0.493-1.093-1.093-1.093z"></path>
<path d="M13.319 15.72c-0.44 0-0.84-0.293-0.96-0.733-0.147-0.533 0.173-1.080 0.707-1.227l7.68-2.093c0.547-0.147 1.080 0.173 1.227 0.707s-0.173 1.080-0.707 1.227l-7.68 2.093c-0.093 0.013-0.187 0.027-0.267 0.027z"></path>
</svg>
