<!-- Generated by IcoMoon.io -->
<svg version="1.1" xmlns="http://www.w3.org/2000/svg" width="32" height="32" viewBox="0 0 32 32">
<title>music</title>
<path d="M8.374 30.333c-2.84 0-5.16-2.32-5.16-5.16s2.32-5.16 5.16-5.16c2.84 0 5.16 2.32 5.16 5.16s-2.32 5.16-5.16 5.16zM8.374 22.013c-1.747 0-3.16 1.413-3.16 3.16s1.413 3.16 3.16 3.16c1.747 0 3.16-1.413 3.16-3.16s-1.413-3.16-3.16-3.16z"></path>
<path d="M12.534 26.173c-0.547 0-1-0.453-1-1v-16.773c0-2.107 1.267-3.76 3.293-4.307l8.32-2.267c1.693-0.467 3.12-0.293 4.12 0.48 1.013 0.773 1.52 2.067 1.52 3.84v16.267c0 0.547-0.453 1-1 1s-1-0.453-1-1v-16.28c0-0.773-0.133-1.787-0.733-2.24-0.653-0.507-1.773-0.307-2.387-0.133l-8.32 2.267c-1.16 0.32-1.813 1.187-1.813 2.387v16.773c0 0.533-0.453 0.987-1 0.987z"></path>
<path d="M23.626 27.56c-2.84 0-5.16-2.32-5.16-5.16s2.32-5.16 5.16-5.16c2.84 0 5.16 2.32 5.16 5.16s-2.32 5.16-5.16 5.16zM23.626 19.24c-1.747 0-3.16 1.413-3.16 3.16s1.413 3.16 3.16 3.16c1.747 0 3.16-1.413 3.16-3.16s-1.413-3.16-3.16-3.16z"></path>
<path d="M12.533 13.693c-0.44 0-0.84-0.293-0.96-0.733-0.147-0.533 0.16-1.093 0.693-1.24l15.253-4.16c0.533-0.147 1.080 0.173 1.227 0.707s-0.173 1.080-0.707 1.227l-15.24 4.16c-0.093 0.027-0.187 0.040-0.267 0.040z"></path>
</svg>
