<!-- Generated by IcoMoon.io -->
<svg version="1.1" xmlns="http://www.w3.org/2000/svg" width="32" height="32" viewBox="0 0 32 32">
<title>note-add</title>
<path d="M12.747 25c-0.547 0-1-0.453-1-1v-6.667c0-0.547 0.453-1 1-1s1 0.453 1 1v6.667c0 0.547-0.453 1-1 1z"></path>
<path d="M16 21.667h-6.667c-0.547 0-1-0.453-1-1s0.453-1 1-1h6.667c0.547 0 1 0.453 1 1s-0.453 1-1 1z"></path>
<path d="M10.667 7.667c-0.547 0-1-0.453-1-1v-4c0-0.547 0.453-1 1-1s1 0.453 1 1v4c0 0.547-0.453 1-1 1z"></path>
<path d="M21.333 7.667c-0.547 0-1-0.453-1-1v-4c0-0.547 0.453-1 1-1s1 0.453 1 1v4c0 0.547-0.453 1-1 1z"></path>
<path d="M11.8 30.414c-3.293 0-5.467-0.72-6.827-2.267-1.573-1.773-1.827-4.427-1.88-6.787l-0.173-8.227c-0.133-6.307 1.96-8.933 7.427-9.347l10.72-0.213c0.027 0 0.040 0 0.053 0 5.48 0.187 7.667 2.72 7.8 9.040l0.16 8.227c0.053 2.36-0.107 5.027-1.6 6.853-1.36 1.667-3.653 2.48-7.213 2.56l-8 0.16c-0.16 0-0.32 0-0.467 0zM21.067 5.56l-10.627 0.213c-3.733 0.293-5.64 1.493-5.52 7.32l0.173 8.227c0.053 2.827 0.467 4.48 1.373 5.507 1.013 1.147 2.84 1.653 5.773 1.587l8-0.16c2.92-0.053 4.733-0.64 5.707-1.827 0.867-1.053 1.213-2.72 1.147-5.547l-0.16-8.227c-0.133-5.813-2.080-6.96-5.867-7.093z"></path>
</svg>
