<!-- Generated by IcoMoon.io -->
<svg version="1.1" xmlns="http://www.w3.org/2000/svg" width="32" height="32" viewBox="0 0 32 32">
<title>note-favorite</title>
<path d="M10.667 7.667c-0.547 0-1-0.453-1-1v-4c0-0.547 0.453-1 1-1s1 0.453 1 1v4c0 0.547-0.453 1-1 1z"></path>
<path d="M21.333 7.667c-0.547 0-1-0.453-1-1v-4c0-0.547 0.453-1 1-1s1 0.453 1 1v4c0 0.547-0.453 1-1 1z"></path>
<path d="M19.573 30.333h-8.907c-4.867 0-7.667-2.8-7.667-7.667v-11.333c0-4.867 2.8-7.667 7.667-7.667h10.667c4.867 0 7.667 2.8 7.667 7.667v6.84c0 0.387-0.227 0.733-0.56 0.907-0.347 0.16-0.76 0.12-1.053-0.12-2.107-1.68-5.347-1.68-7.453 0.040-1.44 1.133-2.253 2.827-2.253 4.68 0 1.093 0.293 2.16 0.867 3.080 0.44 0.72 0.987 1.32 1.627 1.773 0.347 0.253 0.507 0.707 0.373 1.12-0.16 0.4-0.533 0.68-0.973 0.68zM10.667 5.667c-3.813 0-5.667 1.853-5.667 5.667v11.333c0 3.813 1.853 5.667 5.667 5.667h6.52c-0.133-0.173-0.253-0.36-0.36-0.547-0.76-1.227-1.16-2.653-1.16-4.12 0-2.467 1.093-4.733 3.013-6.24 2.28-1.853 5.653-2.253 8.32-1.027v-5.067c0-3.813-1.853-5.667-5.667-5.667h-10.667z"></path>
<path d="M17.333 15.667h-8c-0.547 0-1-0.453-1-1s0.453-1 1-1h8c0.547 0 1 0.453 1 1s-0.453 1-1 1z"></path>
<path d="M12.827 22.333h-3.493c-0.547 0-1-0.453-1-1s0.453-1 1-1h3.493c0.547 0 1 0.453 1 1s-0.44 1-1 1z"></path>
<path d="M23.667 31.667c-1.707 0-3.32-0.533-4.68-1.52-0.853-0.613-1.587-1.413-2.16-2.36-0.76-1.227-1.16-2.653-1.16-4.12 0-2.467 1.093-4.733 3.013-6.24 2.773-2.253 7.147-2.267 9.947-0.040 1.933 1.52 3.040 3.813 3.040 6.28 0 1.467-0.4 2.893-1.16 4.12-0.427 0.733-0.973 1.373-1.6 1.893-1.427 1.28-3.293 1.987-5.24 1.987zM23.667 17.667c-1.36 0-2.693 0.467-3.747 1.32-1.44 1.133-2.253 2.827-2.253 4.68 0 1.093 0.293 2.16 0.867 3.080 0.44 0.72 0.987 1.32 1.627 1.773 1.027 0.747 2.24 1.147 3.507 1.147 1.48 0 2.84-0.52 3.933-1.493 0.48-0.4 0.867-0.867 1.187-1.413 0.573-0.933 0.88-2 0.88-3.093 0-1.853-0.827-3.56-2.28-4.707-1.067-0.853-2.347-1.293-3.72-1.293z"></path>
<path d="M23.667 28c-0.547 0-1-0.453-1-1 0-1.28-1.053-2.333-2.333-2.333-0.547 0-1-0.453-1-1s0.453-1 1-1c1.28 0 2.333-1.053 2.333-2.333 0-0.547 0.453-1 1-1s1 0.453 1 1c0 1.28 1.053 2.333 2.333 2.333 0.547 0 1 0.453 1 1s-0.453 1-1 1c-1.28 0-2.333 1.053-2.333 2.333 0 0.547-0.453 1-1 1zM23.093 23.667c0.2 0.173 0.4 0.36 0.573 0.573 0.173-0.2 0.36-0.4 0.573-0.573-0.2-0.173-0.4-0.36-0.573-0.573-0.173 0.213-0.36 0.4-0.573 0.573z"></path>
</svg>
