<!-- Generated by IcoMoon.io -->
<svg version="1.1" xmlns="http://www.w3.org/2000/svg" width="32" height="32" viewBox="0 0 32 32">
<title>note-square</title>
<path d="M14.667 30.333h-2.667c-7.24 0-10.333-3.093-10.333-10.333v-8c0-7.24 3.093-10.333 10.333-10.333h8c7.24 0 10.333 3.093 10.333 10.333v1.333c0 0.547-0.453 1-1 1s-1-0.453-1-1v-1.333c0-6.147-2.187-8.333-8.333-8.333h-8c-6.147 0-8.333 2.187-8.333 8.333v8c0 6.147 2.187 8.333 8.333 8.333h2.667c0.547 0 1 0.453 1 1s-0.453 1-1 1z"></path>
<path d="M20.68 30.333c-2.013 0-3.667-1.64-3.667-3.667s1.64-3.667 3.667-3.667c2.027 0 3.667 1.64 3.667 3.667s-1.653 3.667-3.667 3.667zM20.68 25.013c-0.92 0-1.667 0.747-1.667 1.667s0.747 1.667 1.667 1.667c0.92 0 1.667-0.747 1.667-1.667s-0.747-1.667-1.667-1.667z"></path>
<path d="M23.346 27.666c-0.547 0-1-0.453-1-1v-9.32c0-0.547 0.453-1 1-1s1 0.453 1 1v9.32c0 0.56-0.453 1-1 1z"></path>
<path d="M28.106 22c-0.28 0-0.56-0.040-0.84-0.147l-2.947-0.973c-1.133-0.373-1.973-1.56-1.973-2.747v-0.787c0-0.813 0.333-1.52 0.933-1.947s1.373-0.52 2.133-0.267l2.947 0.987c1.133 0.373 1.973 1.56 1.973 2.747v0.787c0 0.813-0.333 1.52-0.933 1.947-0.373 0.267-0.827 0.4-1.293 0.4zM24.573 17c-0.053 0-0.107 0.013-0.133 0.027-0.053 0.040-0.093 0.133-0.093 0.32v0.787c0 0.32 0.307 0.747 0.613 0.853l2.947 0.973c0.173 0.053 0.293 0.040 0.333 0.013 0.053-0.040 0.107-0.133 0.107-0.32v-0.787c0-0.32-0.307-0.747-0.613-0.853l-2.947-0.973c-0.093-0.027-0.16-0.040-0.213-0.040z"></path>
</svg>
