<!-- Generated by IcoMoon.io -->
<svg version="1.1" xmlns="http://www.w3.org/2000/svg" width="32" height="32" viewBox="0 0 32 32">
<title>note-2</title>
<path d="M21.080 26.907c-0.347 0-0.707-0.013-1.093-0.053-0.693-0.053-1.48-0.187-2.293-0.387l-2.24-0.533c-6.147-1.453-8.16-4.707-6.72-10.84l1.307-5.587c0.293-1.267 0.64-2.293 1.067-3.147 2.293-4.733 6.68-4.307 9.8-3.573l2.227 0.52c3.12 0.733 5.093 1.893 6.2 3.667 1.093 1.773 1.267 4.053 0.533 7.173l-1.307 5.573c-1.147 4.88-3.533 7.187-7.48 7.187zM17.493 4.333c-2.227 0-3.64 0.92-4.587 2.893-0.347 0.72-0.653 1.613-0.92 2.733l-1.307 5.587c-1.187 5.040 0.187 7.24 5.227 8.44l2.24 0.533c0.72 0.173 1.4 0.28 2.013 0.333 3.627 0.36 5.427-1.227 6.44-5.587l1.307-5.573c0.6-2.573 0.52-4.373-0.28-5.667s-2.373-2.173-4.96-2.773l-2.227-0.52c-1.107-0.267-2.093-0.4-2.947-0.4z"></path>
<path d="M11.105 29.667c-3.427 0-5.613-2.053-7.013-6.387l-1.707-5.267c-1.893-5.867-0.2-9.173 5.64-11.067l2.107-0.68c0.693-0.213 1.213-0.36 1.68-0.44 0.387-0.080 0.76 0.067 0.987 0.373s0.267 0.707 0.107 1.053c-0.347 0.707-0.653 1.6-0.907 2.72l-1.307 5.587c-1.187 5.040 0.187 7.24 5.227 8.44l2.24 0.533c0.72 0.173 1.4 0.28 2.013 0.333 0.427 0.040 0.773 0.333 0.893 0.747 0.107 0.413-0.053 0.84-0.4 1.080-0.88 0.6-1.987 1.107-3.387 1.56l-2.107 0.693c-1.533 0.48-2.867 0.72-4.067 0.72zM10.372 8.293l-1.72 0.56c-4.76 1.533-5.893 3.773-4.36 8.547l1.707 5.267c1.547 4.76 3.787 5.907 8.547 4.373l2.107-0.693c0.080-0.027 0.147-0.053 0.227-0.080l-1.413-0.333c-6.147-1.453-8.16-4.707-6.72-10.84l1.307-5.587c0.093-0.427 0.2-0.84 0.32-1.213z"></path>
<path d="M23.319 14.013c-0.080 0-0.16-0.013-0.253-0.027l-6.467-1.64c-0.533-0.133-0.853-0.68-0.72-1.213s0.68-0.853 1.213-0.72l6.467 1.64c0.533 0.133 0.853 0.68 0.72 1.213-0.107 0.44-0.52 0.747-0.96 0.747z"></path>
<path d="M19.412 18.52c-0.080 0-0.16-0.013-0.253-0.027l-3.88-0.987c-0.533-0.133-0.853-0.68-0.72-1.213s0.68-0.853 1.213-0.72l3.88 0.987c0.533 0.133 0.853 0.68 0.72 1.213-0.107 0.453-0.507 0.747-0.96 0.747z"></path>
</svg>
