<!-- Generated by IcoMoon.io -->
<svg version="1.1" xmlns="http://www.w3.org/2000/svg" width="32" height="32" viewBox="0 0 32 32">
<title>note-remove</title>
<path d="M16 19.667h-6.667c-0.547 0-1-0.453-1-1s0.453-1 1-1h6.667c0.547 0 1 0.453 1 1s-0.453 1-1 1z"></path>
<path d="M9.333 8.947c-0.253 0-0.507-0.093-0.707-0.293l-5-5c-0.387-0.387-0.387-1.027 0-1.413s1.027-0.387 1.413 0l5 5c0.387 0.387 0.387 1.027 0 1.413-0.2 0.187-0.453 0.293-0.707 0.293z"></path>
<path d="M4.281 9c-0.253 0-0.507-0.093-0.707-0.293-0.387-0.387-0.387-1.027 0-1.413l5-5c0.387-0.387 1.027-0.387 1.413 0s0.387 1.027 0 1.413l-5 5c-0.187 0.2-0.453 0.293-0.707 0.293z"></path>
<path d="M20 14.333h-10.667c-0.547 0-1-0.453-1-1s0.453-1 1-1h10.667c0.547 0 1 0.453 1 1s-0.453 1-1 1z"></path>
<path d="M28 22.333c-0.547 0-1-0.453-1-1v-10.68c0-5.64-1.92-6.787-5.72-6.987h-7.947c-0.547 0-1-0.453-1-1s0.453-1 1-1h8c5.467 0.293 7.667 2.893 7.667 8.987v10.68c0 0.547-0.453 1-1 1z"></path>
<path d="M20 30.333h-8c-7.493 0-9-3.453-9-9.027v-9.293c0-0.547 0.453-1 1-1s1 0.453 1 1v9.293c0 4.96 0.973 7.027 7 7.027h8c0.547 0 1 0.453 1 1s-0.453 1-1 1z"></path>
<path d="M20 30.333c-0.133 0-0.253-0.027-0.387-0.080-0.373-0.16-0.613-0.52-0.613-0.92v-4c0-3.227 1.773-5 5-5h4c0.4 0 0.773 0.24 0.92 0.613s0.067 0.8-0.213 1.093l-8 8c-0.187 0.187-0.453 0.293-0.707 0.293zM24 22.333c-2.107 0-3 0.893-3 3v1.587l4.587-4.587h-1.587z"></path>
</svg>
