<!-- Generated by IcoMoon.io -->
<svg version="1.1" xmlns="http://www.w3.org/2000/svg" width="32" height="32" viewBox="0 0 32 32">
<title>note-1</title>
<path d="M10.667 7.667c-0.547 0-1-0.453-1-1v-4c0-0.547 0.453-1 1-1s1 0.453 1 1v4c0 0.547-0.453 1-1 1z"></path>
<path d="M21.333 7.667c-0.547 0-1-0.453-1-1v-4c0-0.547 0.453-1 1-1s1 0.453 1 1v4c0 0.547-0.453 1-1 1z"></path>
<path d="M20 18.333h-10.667c-0.547 0-1-0.453-1-1s0.453-1 1-1h10.667c0.547 0 1 0.453 1 1s-0.453 1-1 1z"></path>
<path d="M16 23.667h-6.667c-0.547 0-1-0.453-1-1s0.453-1 1-1h6.667c0.547 0 1 0.453 1 1s-0.453 1-1 1z"></path>
<path d="M20 30.333h-8c-7.493 0-9-3.533-9-9.24v-8.227c0-6.32 2.133-8.893 7.613-9.2h10.72c0.013 0 0.040 0 0.053 0 5.48 0.307 7.613 2.88 7.613 9.2v8.227c0 5.707-1.507 9.24-9 9.24zM10.667 5.667c-3.733 0.213-5.667 1.387-5.667 7.2v8.227c0 5.107 0.973 7.24 7 7.24h8c6.027 0 7-2.133 7-7.24v-8.227c0-5.8-1.92-6.987-5.693-7.2h-10.64z"></path>
</svg>
