<!-- Generated by IcoMoon.io -->
<svg version="1.1" xmlns="http://www.w3.org/2000/svg" width="32" height="32" viewBox="0 0 32 32">
<title>note-21</title>
<path d="M21.333 30.333h-10.667c-4.027 0-6.333-2.307-6.333-6.333v-13c0-4.2 2.133-6.333 6.333-6.333 0.547 0 1 0.453 1 1 0 0.533 0.213 1.040 0.587 1.413s0.88 0.587 1.413 0.587h4.667c1.107 0 2-0.893 2-2 0-0.547 0.453-1 1-1 4.2 0 6.333 2.133 6.333 6.333v13c0 4.027-2.307 6.333-6.333 6.333zM9.8 6.693c-2.107 0.173-3.467 1.12-3.467 4.307v13c0 2.96 1.373 4.333 4.333 4.333h10.667c2.96 0 4.333-1.373 4.333-4.333v-13c0-3.187-1.36-4.12-3.467-4.307-0.453 1.707-2.013 2.973-3.867 2.973h-4.667c-1.067 0-2.067-0.413-2.827-1.173-0.507-0.507-0.853-1.12-1.040-1.8z"></path>
<path d="M18.333 9.667h-4.667c-1.067 0-2.067-0.413-2.827-1.173s-1.173-1.76-1.173-2.827c0-2.2 1.8-4 4-4h4.667c1.067 0 2.067 0.413 2.827 1.173s1.173 1.76 1.173 2.827c0 2.2-1.8 4-4 4zM13.667 3.667c-1.107 0-2 0.893-2 2 0 0.533 0.213 1.040 0.587 1.413s0.88 0.587 1.413 0.587h4.667c1.107 0 2-0.893 2-2 0-0.533-0.213-1.040-0.587-1.413s-0.88-0.587-1.413-0.587h-4.667z"></path>
<path d="M16 18.333h-5.333c-0.547 0-1-0.453-1-1s0.453-1 1-1h5.333c0.547 0 1 0.453 1 1s-0.453 1-1 1z"></path>
<path d="M21.333 23.667h-10.667c-0.547 0-1-0.453-1-1s0.453-1 1-1h10.667c0.547 0 1 0.453 1 1s-0.453 1-1 1z"></path>
</svg>
