<!-- Generated by IcoMoon.io -->
<svg version="1.1" xmlns="http://www.w3.org/2000/svg" width="32" height="32" viewBox="0 0 32 32">
<title>notification</title>
<path d="M16.027 27.373c-3.107 0-6.213-0.493-9.16-1.48-1.12-0.387-1.973-1.173-2.347-2.2-0.387-1.027-0.253-2.16 0.36-3.173l1.533-2.547c0.32-0.533 0.613-1.6 0.613-2.227v-3.853c0-4.96 4.040-9 9-9s9 4.040 9 9v3.853c0 0.613 0.293 1.693 0.613 2.24l1.52 2.533c0.573 0.96 0.68 2.12 0.293 3.173s-1.227 1.853-2.28 2.2c-2.933 0.987-6.040 1.48-9.147 1.48zM16.027 4.893c-3.853 0-7 3.133-7 7v3.853c0 0.973-0.4 2.413-0.893 3.253l-1.533 2.547c-0.293 0.493-0.373 1.013-0.2 1.453 0.16 0.453 0.56 0.8 1.107 0.987 5.573 1.867 11.48 1.867 17.053 0 0.48-0.16 0.853-0.52 1.027-1s0.133-1-0.133-1.44l-1.533-2.547c-0.507-0.867-0.893-2.293-0.893-3.267v-3.84c0-3.867-3.133-7-7-7z"></path>
<path d="M18.506 5.254c-0.093 0-0.187-0.013-0.28-0.040-0.387-0.107-0.76-0.187-1.12-0.24-1.133-0.147-2.227-0.067-3.253 0.24-0.373 0.12-0.773 0-1.027-0.28s-0.333-0.68-0.187-1.040c0.547-1.4 1.88-2.32 3.4-2.32s2.853 0.907 3.4 2.32c0.133 0.36 0.067 0.76-0.187 1.040-0.2 0.213-0.48 0.32-0.747 0.32z"></path>
<path d="M16.026 30.413c-1.32 0-2.6-0.533-3.533-1.467s-1.467-2.213-1.467-3.533h2c0 0.787 0.32 1.56 0.88 2.12s1.333 0.88 2.12 0.88c1.653 0 3-1.347 3-3h2c0 2.76-2.24 5-5 5z"></path>
</svg>
