<!-- Generated by IcoMoon.io -->
<svg version="1.1" xmlns="http://www.w3.org/2000/svg" width="32" height="32" viewBox="0 0 32 32">
<title>notification-favorite</title>
<path d="M25.333 11.667c-2.76 0-5-2.24-5-5s2.24-5 5-5c2.76 0 5 2.24 5 5s-2.24 5-5 5zM25.333 3.667c-1.653 0-3 1.347-3 3s1.347 3 3 3c1.653 0 3-1.347 3-3s-1.347-3-3-3z"></path>
<path d="M20 30.333h-8c-7.24 0-10.333-3.093-10.333-10.333v-8c0-7.24 3.093-10.333 10.333-10.333h6.667c0.547 0 1 0.453 1 1s-0.453 1-1 1h-6.667c-6.147 0-8.333 2.187-8.333 8.333v8c0 6.147 2.187 8.333 8.333 8.333h8c6.147 0 8.333-2.187 8.333-8.333v-6.667c0-0.547 0.453-1 1-1s1 0.453 1 1v6.667c0 7.24-3.093 10.333-10.333 10.333z"></path>
<path d="M13.081 24.44c-1.227 0-4.080-1.493-4.96-4.24-0.6-1.88 0.093-4.347 2.267-5.053 0.933-0.307 1.907-0.16 2.68 0.333 0.76-0.493 1.76-0.64 2.693-0.333 2.173 0.707 2.88 3.173 2.267 5.053-0.867 2.8-3.853 4.24-4.947 4.24zM10.027 19.6c0.613 1.933 2.693 2.813 3.067 2.853 0.427-0.040 2.467-1.027 3.027-2.84 0.307-0.973 0-2.227-0.973-2.547-0.413-0.133-0.973-0.053-1.24 0.333-0.187 0.28-0.48 0.44-0.813 0.453-0.32 0-0.64-0.147-0.827-0.413-0.32-0.44-0.88-0.507-1.267-0.373-0.96 0.307-1.28 1.56-0.973 2.533z"></path>
</svg>
