<!-- Generated by IcoMoon.io -->
<svg version="1.1" xmlns="http://www.w3.org/2000/svg" width="32" height="32" viewBox="0 0 32 32">
<title>notification-circle</title>
<path d="M25.333 11.667c-2.76 0-5-2.24-5-5s2.24-5 5-5c2.76 0 5 2.24 5 5s-2.24 5-5 5zM25.333 3.667c-1.653 0-3 1.347-3 3s1.347 3 3 3c1.653 0 3-1.347 3-3s-1.347-3-3-3z"></path>
<path d="M16 30.333c-7.907 0-14.333-6.427-14.333-14.333s6.427-14.333 14.333-14.333c0.973 0 1.947 0.093 2.893 0.293 0.547 0.107 0.893 0.64 0.773 1.187-0.107 0.547-0.64 0.893-1.173 0.773-0.813-0.173-1.653-0.253-2.493-0.253-6.8 0-12.333 5.533-12.333 12.333s5.533 12.333 12.333 12.333c6.8 0 12.333-5.533 12.333-12.333 0-0.827-0.080-1.653-0.24-2.453-0.107-0.547 0.24-1.067 0.787-1.173 0.547-0.12 1.067 0.24 1.173 0.787 0.187 0.933 0.28 1.893 0.28 2.853 0 7.893-6.427 14.32-14.333 14.32z"></path>
</svg>
