<!-- Generated by IcoMoon.io -->
<svg version="1.1" xmlns="http://www.w3.org/2000/svg" width="32" height="32" viewBox="0 0 32 32">
<title>notification-bing</title>
<path d="M16 14.027c-0.547 0-1-0.453-1-1v-4.44c0-0.547 0.453-1 1-1s1 0.453 1 1v4.44c0 0.56-0.453 1-1 1z"></path>
<path d="M16.027 27.134c-3.44 0-6.867-0.547-10.133-1.64-1.213-0.4-2.133-1.267-2.533-2.36s-0.267-2.347 0.387-3.44l1.693-2.827c0.373-0.627 0.707-1.8 0.707-2.533v-2.8c0-5.453 4.427-9.88 9.88-9.88s9.88 4.427 9.88 9.88v2.8c0 0.72 0.333 1.907 0.707 2.533l1.693 2.827c0.627 1.040 0.733 2.28 0.32 3.413s-1.32 2-2.467 2.387c-3.267 1.107-6.693 1.64-10.133 1.64zM16.027 3.667c-4.347 0-7.88 3.533-7.88 7.88v2.8c0 1.080-0.427 2.64-0.987 3.56l-1.693 2.84c-0.347 0.573-0.427 1.187-0.227 1.72s0.653 0.933 1.293 1.147c6.133 2.040 12.88 2.040 19.013 0 0.573-0.187 1.013-0.613 1.213-1.173 0.213-0.56 0.147-1.173-0.16-1.693l-1.693-2.827c-0.56-0.92-0.987-2.48-0.987-3.56v-2.8c-0.013-4.36-3.547-7.893-7.893-7.893z"></path>
<path d="M16 30.533c-1.427 0-2.827-0.587-3.84-1.6s-1.6-2.413-1.6-3.84h2c0 0.907 0.373 1.787 1.013 2.427s1.52 1.013 2.427 1.013c1.893 0 3.44-1.547 3.44-3.44h2c0 3-2.44 5.44-5.44 5.44z"></path>
</svg>
