<!-- Generated by IcoMoon.io -->
<svg version="1.1" xmlns="http://www.w3.org/2000/svg" width="32" height="32" viewBox="0 0 32 32">
<title>omega-square</title>
<path d="M20 30.333h-8c-7.24 0-10.333-3.093-10.333-10.333v-8c0-7.24 3.093-10.333 10.333-10.333h8c7.24 0 10.333 3.093 10.333 10.333v8c0 7.24-3.093 10.333-10.333 10.333zM12 3.667c-6.147 0-8.333 2.187-8.333 8.333v8c0 6.147 2.187 8.333 8.333 8.333h8c6.147 0 8.333-2.187 8.333-8.333v-8c0-6.147-2.187-8.333-8.333-8.333h-8z"></path>
<path d="M22.667 23.333h-4.133c-0.4 0-0.76-0.227-0.92-0.6s-0.093-0.787 0.173-1.080l2.16-2.387c0.893-1 1.4-2.267 1.4-3.573 0-1.333-0.547-2.587-1.547-3.533s-2.387-1.493-3.8-1.493c-1.413 0-2.8 0.547-3.8 1.493s-1.547 2.2-1.547 3.533c0 1.307 0.493 2.573 1.4 3.573l2.16 2.387c0.267 0.293 0.333 0.72 0.173 1.080s-0.52 0.6-0.92 0.6h-4.133c-0.547 0-1-0.453-1-1s0.453-1 1-1h1.88l-0.653-0.72c-1.227-1.36-1.907-3.107-1.907-4.92 0-1.853 0.787-3.68 2.173-4.987 1.387-1.32 3.227-2.040 5.173-2.040s3.787 0.72 5.173 2.040c1.373 1.307 2.173 3.133 2.173 4.987 0 1.8-0.68 3.547-1.907 4.92l-0.653 0.72h1.88c0.547 0 1 0.453 1 1s-0.453 1-1 1z"></path>
</svg>
