<!-- Generated by IcoMoon.io -->
<svg version="1.1" xmlns="http://www.w3.org/2000/svg" width="32" height="32" viewBox="0 0 32 32">
<title>paintbucket</title>
<path d="M13.414 28.774c-1.333 0-2.68-0.907-4.48-2.693l-4.613-4.613c-3.92-3.92-3.52-5.427 0-8.96l7.427-7.44c2.627-2.627 4.8-4.16 8.96 0l4.613 4.613c3.747 3.747 2.84 6.12 0 8.96l-7.427 7.427c-1.8 1.8-3.133 2.707-4.48 2.707zM5.734 20.040l4.613 4.613c2.827 2.827 3.293 2.84 6.133 0l7.427-7.427c2.227-2.227 2.8-3.333 0-6.133l-4.613-4.613c-2.92-2.92-3.8-2.32-6.133 0l-7.427 7.427c-2.827 2.84-3.067 3.067 0 6.133z"></path>
<path d="M26.855 28.613c-1.52 0-2.72-0.587-3.307-1.613s-0.467-2.36 0.32-3.667l0.88-1.453c0.52-0.853 1.28-1.347 2.107-1.347s1.6 0.493 2.107 1.347l0.88 1.453c0.787 1.307 0.893 2.64 0.32 3.667s-1.8 1.613-3.307 1.613zM26.855 22.533c-0.067 0-0.227 0.107-0.4 0.373l-0.88 1.453c-0.4 0.667-0.507 1.267-0.293 1.653s0.787 0.6 1.56 0.6c0.773 0 1.347-0.213 1.56-0.6s0.107-0.973-0.293-1.653l-0.88-1.453c-0.147-0.28-0.307-0.373-0.373-0.373z"></path>
<path d="M2.667 17.32c-0.44 0-0.84-0.293-0.96-0.733-0.147-0.533 0.173-1.080 0.707-1.227 7.56-2.053 15.573-2.12 23.173-0.173l0.667 0.173c0.533 0.133 0.853 0.68 0.72 1.213s-0.68 0.853-1.213 0.72l-0.667-0.173c-7.267-1.867-14.92-1.8-22.147 0.173-0.107 0.027-0.2 0.027-0.28 0.027z"></path>
</svg>
