<!-- Generated by IcoMoon.io -->
<svg version="1.1" xmlns="http://www.w3.org/2000/svg" width="32" height="32" viewBox="0 0 32 32">
<title>paperclip-2</title>
<path d="M16.439 28.453c-1.453 0-2.907-0.547-4.013-1.653-2.213-2.213-2.213-5.8 0-8.013l3.307-3.293c0.387-0.387 1.027-0.387 1.413 0s0.387 1.027 0 1.413l-3.307 3.293c-1.427 1.427-1.427 3.76 0 5.187s3.76 1.427 5.187 0l5.187-5.187c1.573-1.573 2.44-3.667 2.44-5.893s-0.867-4.32-2.44-5.893c-3.253-3.253-8.533-3.253-11.787 0l-5.653 5.653c-1.32 1.32-2.053 3.080-2.053 4.947s0.733 3.627 2.053 4.947c0.387 0.387 0.387 1.027 0 1.413s-1.027 0.387-1.413 0c-1.693-1.707-2.64-3.96-2.64-6.36s0.933-4.667 2.64-6.36l5.653-5.653c4.027-4.027 10.587-4.027 14.613 0 1.947 1.947 3.027 4.547 3.027 7.307s-1.080 5.36-3.027 7.307l-5.187 5.187c-1.107 1.107-2.547 1.653-4 1.653z"></path>
</svg>
