<!-- Generated by IcoMoon.io -->
<svg version="1.1" xmlns="http://www.w3.org/2000/svg" width="32" height="32" viewBox="0 0 32 32">
<title>paperclip</title>
<path d="M14.628 30.333c-4.96 0-9-4.040-9-9v-8c0-5.693 4.64-10.333 10.333-10.333s10.333 4.64 10.333 10.333v7.333c0 3.12-2.547 5.667-5.667 5.667s-5.667-2.547-5.667-5.667v-4.667c0-0.547 0.453-1 1-1s1 0.453 1 1v4.667c0 2.027 1.64 3.667 3.667 3.667s3.667-1.64 3.667-3.667v-7.333c0-4.6-3.733-8.333-8.333-8.333s-8.333 3.733-8.333 8.333v8c0 3.853 3.133 7 7 7 0.547 0 1 0.453 1 1s-0.44 1-1 1z"></path>
</svg>
