<!-- Generated by IcoMoon.io -->
<svg version="1.1" xmlns="http://www.w3.org/2000/svg" width="32" height="32" viewBox="0 0 32 32">
<title>path-square</title>
<path d="M20.052 17.36c-0.253 0-0.52-0.107-0.707-0.293l-4.387-4.387c-0.333-0.333-0.387-0.84-0.133-1.24l1.373-2.173c0.44-0.707 1.133-1.147 1.92-1.227 0.867-0.093 1.773 0.253 2.467 0.947l2.467 2.467c0.667 0.667 1 1.573 0.907 2.467-0.093 0.8-0.52 1.493-1.187 1.92l-2.173 1.373c-0.187 0.107-0.373 0.147-0.547 0.147zM16.932 11.826l3.267 3.267 1.493-0.947c0.187-0.12 0.253-0.307 0.267-0.453 0.027-0.28-0.093-0.6-0.333-0.84l-2.467-2.453c-0.267-0.267-0.573-0.4-0.827-0.373-0.187 0.027-0.333 0.12-0.453 0.307l-0.947 1.493z"></path>
<path d="M11.054 23.973c-0.827 0-1.6-0.307-2.147-0.853-0.64-0.64-0.947-1.573-0.827-2.56l0.8-6.76c0.267-2.253 1.36-3.16 3.653-3.013l3.187 0.187c0.547 0.040 0.973 0.507 0.933 1.053s-0.507 0.973-1.053 0.933l-3.2-0.173c-1.293-0.080-1.413 0.12-1.547 1.253l-0.8 6.76c-0.040 0.373 0.053 0.707 0.253 0.907 0.213 0.213 0.533 0.307 0.907 0.253l6.76-0.8c1.227-0.147 1.373-0.333 1.267-1.507l-0.2-3.227c-0.027-0.547 0.387-1.027 0.933-1.053 0.547-0.040 1.027 0.387 1.053 0.933l0.187 3.187c0.227 2.24-0.707 3.387-3.013 3.653l-6.76 0.8c-0.12 0.027-0.253 0.027-0.387 0.027z"></path>
<path d="M9.986 23.027c-0.253 0-0.507-0.093-0.707-0.293-0.387-0.387-0.387-1.027 0-1.413l2.467-2.467c0.387-0.387 1.027-0.387 1.413 0s0.387 1.027 0 1.413l-2.467 2.467c-0.187 0.2-0.44 0.293-0.707 0.293z"></path>
<path d="M20 30.333h-8c-7.24 0-10.333-3.093-10.333-10.333v-8c0-7.24 3.093-10.333 10.333-10.333h8c7.24 0 10.333 3.093 10.333 10.333v8c0 7.24-3.093 10.333-10.333 10.333zM12 3.667c-6.147 0-8.333 2.187-8.333 8.333v8c0 6.147 2.187 8.333 8.333 8.333h8c6.147 0 8.333-2.187 8.333-8.333v-8c0-6.147-2.187-8.333-8.333-8.333h-8z"></path>
</svg>
