<!-- Generated by IcoMoon.io -->
<svg version="1.1" xmlns="http://www.w3.org/2000/svg" width="32" height="32" viewBox="0 0 32 32">
<title>path</title>
<path d="M22.639 17.6c-0.253 0-0.52-0.107-0.707-0.293l-7.2-7.213c-0.333-0.333-0.387-0.84-0.133-1.24l2.253-3.56c0.627-0.987 1.573-1.6 2.68-1.72 1.24-0.12 2.52 0.36 3.52 1.36l4.040 4.040c0.96 0.96 1.44 2.253 1.293 3.533-0.12 1.12-0.72 2.093-1.653 2.68l-3.56 2.253c-0.16 0.107-0.347 0.16-0.533 0.16zM16.706 9.253l6.080 6.080 2.893-1.827c0.413-0.267 0.68-0.693 0.733-1.213 0.080-0.667-0.2-1.373-0.72-1.893l-4.040-4.040c-0.573-0.573-1.267-0.88-1.893-0.787-0.507 0.053-0.92 0.333-1.213 0.8l-1.84 2.88z"></path>
<path d="M7.854 28.453c-1.187 0-2.253-0.427-3.053-1.213-0.933-0.933-1.347-2.227-1.173-3.667l1.307-11.107c0.4-3.36 1.88-4.587 5.333-4.387l5.227 0.307c0.547 0.040 0.973 0.507 0.933 1.053s-0.507 0.973-1.053 0.933l-5.227-0.293c-2.373-0.147-2.96 0.32-3.227 2.627l-1.307 11.093c-0.093 0.813 0.12 1.533 0.6 2.013 0.493 0.48 1.213 0.707 2.027 0.6l11.093-1.307c2.333-0.28 2.853-0.893 2.627-3.187l-0.32-5.267c-0.027-0.547 0.387-1.027 0.933-1.053 0.547-0.040 1.027 0.387 1.053 0.933l0.307 5.227c0.32 3.32-0.987 4.92-4.387 5.333l-11.093 1.307c-0.187 0.040-0.4 0.053-0.6 0.053z"></path>
<path d="M6.148 26.893c-0.253 0-0.507-0.093-0.707-0.293-0.387-0.387-0.387-1.027 0-1.413l4.053-4.053c0.387-0.387 1.027-0.387 1.413 0s0.387 1.027 0 1.413l-4.053 4.053c-0.2 0.2-0.453 0.293-0.707 0.293z"></path>
</svg>
