<!-- Generated by IcoMoon.io -->
<svg version="1.1" xmlns="http://www.w3.org/2000/svg" width="32" height="32" viewBox="0 0 32 32">
<title>path-2</title>
<path d="M18.866 30.333h-5.707c-1.36 0-2.613-0.573-3.413-1.587-0.707-0.88-0.96-2-0.72-3.067l0.92-4.107c0.107-0.453 0.507-0.773 0.973-0.773h10.187c0.467 0 0.867 0.32 0.973 0.773l0.933 4.107c0.253 1.147 0.013 2.253-0.68 3.12-0.773 0.973-2.040 1.533-3.467 1.533zM11.719 22.8l-0.747 3.333c-0.107 0.48 0.013 0.96 0.333 1.373 0.413 0.52 1.107 0.827 1.853 0.827h5.72c0.813 0 1.507-0.28 1.893-0.773 0.32-0.387 0.413-0.893 0.293-1.427l-0.747-3.333h-8.6z"></path>
<path d="M10.919 22.8c-0.24 0-0.48-0.080-0.667-0.253l-3.92-3.48c-2.573-2.12-2.787-4.173-0.667-6.867l6.92-8.773c0.893-1.133 2.12-1.76 3.427-1.76 1.32 0 2.533 0.627 3.427 1.76l6.92 8.773c2.093 2.653 1.907 4.587-0.667 6.867l-3.92 3.48c-0.413 0.36-1.053 0.333-1.413-0.080s-0.333-1.040 0.080-1.413l3.92-3.48c1.76-1.56 1.84-2.333 0.427-4.133l-6.907-8.773c-1.013-1.293-2.707-1.293-3.72 0l-6.92 8.773c-1.453 1.84-1.387 2.653 0.387 4.107l3.947 3.507c0.413 0.36 0.453 1 0.080 1.413-0.187 0.213-0.453 0.333-0.733 0.333z"></path>
<path d="M16.013 10.293c-0.547 0-1-0.453-1-1v-5.733c0-0.547 0.453-1 1-1s1 0.453 1 1v5.733c0 0.547-0.453 1-1 1z"></path>
</svg>
