<!-- Generated by IcoMoon.io -->
<svg version="1.1" xmlns="http://www.w3.org/2000/svg" width="32" height="32" viewBox="0 0 32 32">
<title>pause</title>
<path d="M11.52 29h-4.84c-2.48 0-3.68-1.147-3.68-3.52v-18.96c0-2.373 1.2-3.52 3.68-3.52h4.84c2.48 0 3.68 1.147 3.68 3.52v18.96c0 2.373-1.2 3.52-3.68 3.52zM6.68 5c-1.44 0-1.68 0.36-1.68 1.52v18.96c0 1.16 0.227 1.52 1.68 1.52h4.84c1.44 0 1.68-0.36 1.68-1.52v-18.96c0-1.16-0.227-1.52-1.68-1.52h-4.84z"></path>
<path d="M25.319 29h-4.84c-2.48 0-3.68-1.147-3.68-3.52v-18.96c0-2.373 1.2-3.52 3.68-3.52h4.84c2.48 0 3.68 1.147 3.68 3.52v18.96c0 2.373-1.2 3.52-3.68 3.52zM20.479 5c-1.44 0-1.68 0.36-1.68 1.52v18.96c0 1.16 0.227 1.52 1.68 1.52h4.84c1.44 0 1.68-0.36 1.68-1.52v-18.96c0-1.16-0.227-1.52-1.68-1.52h-4.84z"></path>
</svg>
