<!-- Generated by IcoMoon.io -->
<svg version="1.1" xmlns="http://www.w3.org/2000/svg" width="32" height="32" viewBox="0 0 32 32">
<title>pause-circle</title>
<path d="M15.961 30.333c-7.893 0-14.333-6.427-14.333-14.333s6.44-14.333 14.333-14.333c7.893 0 14.333 6.427 14.333 14.333s-6.427 14.333-14.333 14.333zM15.961 3.667c-6.8 0-12.333 5.533-12.333 12.333s5.533 12.333 12.333 12.333c6.8 0 12.333-5.533 12.333-12.333s-5.533-12.333-12.333-12.333z"></path>
<path d="M13.347 21.266h-1.733c-1.227 0-1.947-0.707-1.947-1.893v-6.747c0-1.187 0.733-1.893 1.947-1.893h1.72c1.227 0 1.947 0.707 1.947 1.893v6.747c0.013 1.187-0.72 1.893-1.933 1.893zM11.667 19.266h1.627v-6.533h-1.613l-0.013 6.533z"></path>
<path d="M20.385 21.266h-1.72c-1.227 0-1.947-0.707-1.947-1.893v-6.747c0-1.187 0.733-1.893 1.947-1.893h1.72c1.227 0 1.947 0.707 1.947 1.893v6.747c0 1.187-0.733 1.893-1.947 1.893zM18.705 19.266h1.627v-6.533h-1.613l-0.013 6.533z"></path>
</svg>
