<!-- Generated by IcoMoon.io -->
<svg version="1.1" xmlns="http://www.w3.org/2000/svg" width="32" height="32" viewBox="0 0 32 32">
<title>pen-add</title>
<path d="M24.335 18.96c-0.253 0-0.52-0.107-0.707-0.293l-7.56-7.56c-0.333-0.333-0.387-0.84-0.133-1.24l2.36-3.733c0.64-1.027 1.64-1.653 2.787-1.787 1.267-0.147 2.613 0.373 3.653 1.413l4.24 4.24c1 1 1.493 2.333 1.347 3.667-0.133 1.16-0.747 2.16-1.707 2.773l-3.733 2.36c-0.173 0.107-0.36 0.16-0.547 0.16zM18.055 10.267l6.427 6.427 3.053-1.933c0.453-0.28 0.733-0.747 0.787-1.307 0.080-0.707-0.213-1.467-0.773-2.027l-4.24-4.24c-0.613-0.613-1.347-0.92-2.013-0.84-0.533 0.053-0.987 0.36-1.307 0.867l-1.933 3.053z"></path>
<path d="M8.839 30.333c-1.253 0-2.36-0.44-3.187-1.267-0.96-0.96-1.387-2.307-1.213-3.8l1.307-11.040c0.067-0.547 0.56-0.933 1.107-0.88 0.547 0.067 0.947 0.56 0.88 1.107l-1.307 11.040c-0.107 0.867 0.12 1.627 0.64 2.147s1.293 0.76 2.173 0.653l11.627-1.373c2.48-0.293 3.027-0.96 2.787-3.387l-0.32-5.533c-0.027-0.547 0.387-1.027 0.947-1.053 0.547-0.027 1.027 0.387 1.053 0.947l0.32 5.493c0.347 3.44-1.013 5.107-4.547 5.533l-11.627 1.373c-0.213 0.027-0.427 0.040-0.64 0.040z"></path>
<path d="M16.773 11.414c-0.027 0-0.040 0-0.067 0l-2.333-0.147c-0.547-0.040-0.973-0.507-0.933-1.067s0.507-0.973 1.067-0.933l2.333 0.147c0.547 0.040 0.973 0.507 0.933 1.067-0.040 0.52-0.48 0.933-1 0.933z"></path>
<path d="M7.041 28.707c-0.253 0-0.507-0.093-0.707-0.293-0.387-0.387-0.387-1.027 0-1.413l4.24-4.24c0.387-0.387 1.027-0.387 1.413 0s0.387 1.027 0 1.413l-4.24 4.24c-0.2 0.2-0.453 0.293-0.707 0.293z"></path>
<path d="M8.667 15.667c-0.787 0-1.547-0.133-2.253-0.373-1.547-0.52-2.88-1.587-3.733-3.013-0.667-1.093-1.013-2.347-1.013-3.613 0-2.16 0.96-4.147 2.64-5.467 1.227-0.987 2.773-1.533 4.36-1.533 3.867 0 7 3.147 7 7 0 0.627-0.093 1.28-0.267 1.88-0.173 0.613-0.413 1.173-0.747 1.733-0.387 0.64-0.853 1.187-1.4 1.653-1.253 1.12-2.88 1.733-4.587 1.733zM8.667 3.667c-1.133 0-2.24 0.387-3.12 1.093-1.2 0.947-1.88 2.36-1.88 3.907 0 0.893 0.253 1.787 0.72 2.573 0.613 1.013 1.56 1.787 2.667 2.147 1.613 0.573 3.547 0.213 4.893-0.973 0.387-0.333 0.72-0.733 1-1.173 0.24-0.4 0.413-0.8 0.533-1.24s0.187-0.893 0.187-1.333c0-2.76-2.24-5-5-5z"></path>
<path d="M8.693 11.907c-0.547 0-1-0.453-1-1v-4.48c0-0.547 0.453-1 1-1s1 0.453 1 1v4.48c0 0.56-0.453 1-1 1z"></path>
<path d="M10.881 9.667h-4.48c-0.547 0-1-0.453-1-1s0.453-1 1-1h4.48c0.547 0 1 0.453 1 1s-0.44 1-1 1z"></path>
</svg>
