<!-- Generated by IcoMoon.io -->
<svg version="1.1" xmlns="http://www.w3.org/2000/svg" width="32" height="32" viewBox="0 0 32 32">
<title>pen-tool</title>
<path d="M17.693 31h-3.36c-0.933 0-1.773-0.4-2.333-1.080-0.493-0.613-0.68-1.4-0.507-2.147l0.547-2.413c0.107-0.453 0.507-0.773 0.973-0.773h6c0.467 0 0.867 0.32 0.973 0.773l0.547 2.413c0.173 0.8 0.013 1.573-0.48 2.187-0.547 0.653-1.4 1.040-2.36 1.040zM13.813 26.56l-0.373 1.64c-0.040 0.2 0.040 0.36 0.12 0.453 0.173 0.213 0.453 0.333 0.773 0.333h3.36c0.347 0 0.64-0.107 0.8-0.307 0.107-0.133 0.133-0.293 0.093-0.493l-0.373-1.64h-4.4v0.013z"></path>
<path d="M19.013 26.56c-0.28 0-0.547-0.107-0.747-0.333-0.36-0.413-0.333-1.040 0.080-1.413l2.307-2.053c0.92-0.813 0.88-1.013 0.2-1.867l-4.067-5.16c-0.227-0.28-0.493-0.44-0.773-0.44s-0.547 0.16-0.773 0.44l-4.067 5.16c-0.72 0.92-0.707 1.12 0.173 1.84l2.333 2.080c0.413 0.36 0.453 1 0.080 1.413s-1 0.453-1.413 0.080l-2.307-2.053c-1.68-1.373-1.827-2.84-0.44-4.6l4.067-5.16c0.6-0.76 1.453-1.2 2.347-1.2s1.747 0.44 2.347 1.2l4.067 5.16c1.373 1.733 1.24 3.12-0.44 4.6l-2.307 2.053c-0.2 0.173-0.44 0.253-0.667 0.253z"></path>
<path d="M16.013 19.2c-0.547 0-1-0.453-1-1v-3.373c0-0.547 0.453-1 1-1s1 0.453 1 1v3.373c0 0.56-0.453 1-1 1z"></path>
<path d="M15.999 8.387c-0.667 0-1.333-0.253-1.84-0.76l-1.040-1.040c-1.013-1.013-1.013-2.667 0-3.68l1.040-1.040c1.013-1.013 2.667-1.013 3.68 0l1.040 1.040c1.013 1.013 1.013 2.667 0 3.68l-1.040 1.040c-0.507 0.507-1.173 0.76-1.84 0.76zM15.999 3.107c-0.16 0-0.307 0.053-0.427 0.173l-1.040 1.040c-0.107 0.107-0.173 0.267-0.173 0.427s0.067 0.307 0.173 0.427l1.040 1.040c0.227 0.227 0.627 0.227 0.853 0l1.040-1.040c0.107-0.107 0.173-0.267 0.173-0.427s-0.067-0.307-0.173-0.427l-1.040-1.040c-0.12-0.107-0.267-0.173-0.427-0.173z"></path>
<path d="M27.4 18.747h-1.467c-1.44 0-2.6-1.173-2.6-2.6v-1.467c0-1.44 1.173-2.6 2.6-2.6h1.467c1.44 0 2.6 1.173 2.6 2.6v1.467c0 1.44-1.173 2.6-2.6 2.6zM25.933 14.080c-0.333 0-0.6 0.267-0.6 0.6v1.467c0 0.333 0.267 0.6 0.6 0.6h1.467c0.333 0 0.6-0.267 0.6-0.6v-1.467c0-0.333-0.267-0.6-0.6-0.6h-1.467z"></path>
<path d="M6.067 18.747h-1.467c-1.44 0-2.6-1.173-2.6-2.6v-1.467c0-1.44 1.173-2.6 2.6-2.6h1.467c1.44 0 2.6 1.173 2.6 2.6v1.467c0 1.44-1.173 2.6-2.6 2.6zM4.6 14.080c-0.333 0-0.6 0.267-0.6 0.6v1.467c0 0.333 0.267 0.6 0.6 0.6h1.467c0.333 0 0.6-0.267 0.6-0.6v-1.467c0-0.333-0.267-0.6-0.6-0.6h-1.467z"></path>
<path d="M24.72 14.467c-0.253 0-0.507-0.093-0.707-0.293l-7.067-7.067c-0.387-0.387-0.387-1.027 0-1.413s1.027-0.387 1.413 0l7.067 7.067c0.387 0.387 0.387 1.027 0 1.413-0.2 0.2-0.453 0.293-0.707 0.293z"></path>
<path d="M7.281 14.467c-0.253 0-0.507-0.093-0.707-0.293-0.387-0.387-0.387-1.027 0-1.413l7.067-7.067c0.387-0.387 1.027-0.387 1.413 0s0.387 1.027 0 1.413l-7.067 7.067c-0.2 0.2-0.453 0.293-0.707 0.293z"></path>
</svg>
