<!-- Generated by IcoMoon.io -->
<svg version="1.1" xmlns="http://www.w3.org/2000/svg" width="32" height="32" viewBox="0 0 32 32">
<title>pen-tool-2</title>
<path d="M17.693 31h-3.36c-0.933 0-1.773-0.4-2.333-1.080-0.493-0.613-0.68-1.4-0.507-2.147l0.547-2.413c0.107-0.453 0.507-0.773 0.973-0.773h6c0.467 0 0.867 0.32 0.973 0.773l0.547 2.413c0.173 0.8 0.013 1.573-0.48 2.187-0.547 0.653-1.4 1.040-2.36 1.040zM13.813 26.56l-0.373 1.64c-0.040 0.2 0.040 0.36 0.12 0.453 0.173 0.213 0.453 0.333 0.773 0.333h3.36c0.347 0 0.64-0.107 0.8-0.307 0.107-0.133 0.133-0.293 0.093-0.493l-0.373-1.64h-4.4v0.013z"></path>
<path d="M19.013 26.56c-0.28 0-0.547-0.107-0.747-0.333-0.36-0.413-0.333-1.040 0.080-1.413l2.307-2.053c0.92-0.813 0.88-1.013 0.2-1.867l-4.067-5.16c-0.227-0.28-0.493-0.44-0.773-0.44s-0.547 0.16-0.773 0.44l-4.067 5.16c-0.72 0.92-0.707 1.12 0.173 1.84l2.333 2.080c0.413 0.36 0.453 1 0.080 1.413s-1 0.453-1.413 0.080l-2.307-2.053c-1.68-1.373-1.827-2.84-0.44-4.6l4.067-5.16c0.6-0.76 1.453-1.2 2.347-1.2s1.747 0.44 2.347 1.2l4.067 5.16c1.373 1.733 1.24 3.12-0.44 4.6l-2.307 2.053c-0.2 0.173-0.44 0.253-0.667 0.253z"></path>
<path d="M16.013 19.2c-0.547 0-1-0.453-1-1v-3.373c0-0.547 0.453-1 1-1s1 0.453 1 1v3.373c0 0.56-0.453 1-1 1z"></path>
<path d="M16.693 7.667h-1.333c-1.28 0-2.333-1.053-2.333-2.333v-1.333c0-1.28 1.053-2.333 2.333-2.333h1.333c1.28 0 2.333 1.053 2.333 2.333v1.333c0 1.28-1.040 2.333-2.333 2.333zM15.359 3.667c-0.187 0-0.333 0.147-0.333 0.333v1.333c0 0.187 0.147 0.333 0.333 0.333h1.333c0.187 0 0.333-0.147 0.333-0.333v-1.333c0-0.187-0.147-0.333-0.333-0.333h-1.333z"></path>
<path d="M5.693 19.893h-1.333c-1.28 0-2.333-1.053-2.333-2.333v-1.333c0-1.28 1.053-2.333 2.333-2.333h1.333c1.28 0 2.333 1.053 2.333 2.333v1.333c0 1.28-1.053 2.333-2.333 2.333zM4.359 15.893c-0.187 0-0.333 0.147-0.333 0.333v1.333c0 0.187 0.147 0.333 0.333 0.333h1.333c0.187 0 0.333-0.147 0.333-0.333v-1.333c0-0.187-0.147-0.333-0.333-0.333h-1.333z"></path>
<path d="M27.641 19.893h-1.333c-1.28 0-2.333-1.053-2.333-2.333v-1.333c0-1.28 1.053-2.333 2.333-2.333h1.333c1.28 0 2.333 1.053 2.333 2.333v1.333c0 1.28-1.040 2.333-2.333 2.333zM26.307 15.893c-0.187 0-0.333 0.147-0.333 0.333v1.333c0 0.187 0.147 0.333 0.333 0.333h1.333c0.187 0 0.333-0.147 0.333-0.333v-1.333c0-0.187-0.147-0.333-0.333-0.333h-1.333z"></path>
<path d="M5 15.894c-0.547 0-1-0.453-1-1 0-5.693 4.267-10.48 9.92-11.147 0.547-0.053 1.040 0.333 1.107 0.88s-0.333 1.040-0.88 1.107c-4.64 0.547-8.147 4.48-8.147 9.16 0 0.547-0.453 1-1 1z"></path>
<path d="M26.999 15.893c-0.547 0-1-0.453-1-1 0-4.653-3.48-8.587-8.093-9.147-0.547-0.067-0.933-0.56-0.867-1.107s0.56-0.947 1.12-0.867c5.613 0.68 9.853 5.467 9.853 11.133-0.013 0.533-0.453 0.987-1.013 0.987z"></path>
</svg>
