<!-- Generated by IcoMoon.io -->
<svg version="1.1" xmlns="http://www.w3.org/2000/svg" width="32" height="32" viewBox="0 0 32 32">
<title>people</title>
<path d="M24 10.547c-0.040 0-0.067 0-0.107 0h-0.067c-2.52-0.080-4.4-2.027-4.4-4.427 0-2.453 2-4.44 4.44-4.44s4.44 2 4.44 4.44c-0.013 2.413-1.893 4.36-4.293 4.44 0-0.013 0-0.013-0.013-0.013zM23.867 3.667c-1.347 0-2.44 1.093-2.44 2.44 0 1.32 1.027 2.387 2.347 2.44 0.013-0.013 0.12-0.013 0.24 0 1.293-0.067 2.293-1.133 2.307-2.44 0-1.347-1.093-2.44-2.453-2.44z"></path>
<path d="M24.014 20.373c-0.52 0-1.040-0.040-1.56-0.133-0.547-0.093-0.907-0.613-0.813-1.16s0.613-0.907 1.16-0.813c1.64 0.28 3.373-0.027 4.533-0.8 0.627-0.413 0.96-0.933 0.96-1.453s-0.347-1.027-0.96-1.44c-1.16-0.773-2.92-1.080-4.573-0.787-0.547 0.107-1.067-0.267-1.16-0.813s0.267-1.067 0.813-1.16c2.173-0.387 4.427 0.027 6.027 1.093 1.173 0.787 1.853 1.907 1.853 3.107 0 1.187-0.667 2.32-1.853 3.12-1.213 0.8-2.787 1.24-4.427 1.24z"></path>
<path d="M7.961 10.547c-0.013 0-0.027 0-0.027 0-2.4-0.080-4.28-2.027-4.293-4.427 0-2.453 2-4.453 4.44-4.453s4.44 2 4.44 4.44c0 2.413-1.88 4.36-4.28 4.44l-0.28-1 0.093 1c-0.027 0-0.067 0-0.093 0zM8.094 8.547c0.080 0 0.147 0 0.227 0.013 1.187-0.053 2.227-1.12 2.227-2.44 0-1.347-1.093-2.44-2.44-2.44s-2.44 1.093-2.44 2.44c0 1.307 1.013 2.36 2.307 2.44 0.013-0.013 0.067-0.013 0.12-0.013z"></path>
<path d="M7.947 20.373c-1.64 0-3.213-0.44-4.427-1.24-1.173-0.787-1.853-1.92-1.853-3.12 0-1.187 0.68-2.32 1.853-3.107 1.6-1.067 3.853-1.48 6.027-1.093 0.547 0.093 0.907 0.613 0.813 1.16s-0.613 0.92-1.16 0.813c-1.653-0.293-3.4 0.013-4.573 0.787-0.627 0.413-0.96 0.92-0.96 1.44s0.347 1.040 0.96 1.453c1.16 0.773 2.893 1.080 4.533 0.8 0.547-0.093 1.067 0.28 1.16 0.813 0.093 0.547-0.267 1.067-0.813 1.16-0.52 0.093-1.040 0.133-1.56 0.133z"></path>
<path d="M16 20.507c-0.040 0-0.067 0-0.107 0h-0.067c-2.52-0.080-4.4-2.027-4.4-4.427 0-2.453 2-4.44 4.44-4.44s4.44 2 4.44 4.44c-0.013 2.413-1.893 4.36-4.293 4.44 0-0.013 0-0.013-0.013-0.013zM15.867 13.627c-1.347 0-2.44 1.093-2.44 2.44 0 1.32 1.027 2.387 2.347 2.44 0.013-0.013 0.12-0.013 0.24 0 1.293-0.067 2.293-1.133 2.307-2.44 0-1.333-1.093-2.44-2.453-2.44z"></path>
<path d="M15.999 30.347c-1.6 0-3.2-0.413-4.44-1.253-1.173-0.787-1.853-1.907-1.853-3.107 0-1.187 0.667-2.333 1.853-3.12 2.493-1.653 6.4-1.653 8.88 0 1.173 0.787 1.853 1.907 1.853 3.107 0 1.187-0.667 2.333-1.853 3.12-1.24 0.827-2.84 1.253-4.44 1.253zM12.666 24.547c-0.627 0.413-0.96 0.933-0.96 1.453s0.347 1.027 0.96 1.44c1.8 1.213 4.853 1.213 6.653 0 0.627-0.413 0.96-0.933 0.96-1.453s-0.347-1.027-0.96-1.44c-1.787-1.213-4.84-1.2-6.653 0z"></path>
</svg>
