<!-- Generated by IcoMoon.io -->
<svg version="1.1" xmlns="http://www.w3.org/2000/svg" width="32" height="32" viewBox="0 0 32 32">
<title>percentage-circle</title>
<path d="M11.426 21.36c-0.253 0-0.507-0.093-0.707-0.293-0.387-0.387-0.387-1.027 0-1.413l8.733-8.733c0.387-0.387 1.027-0.387 1.413 0s0.387 1.027 0 1.413l-8.733 8.733c-0.2 0.2-0.453 0.293-0.707 0.293z"></path>
<path d="M11.973 14.813c-1.453 0-2.64-1.187-2.64-2.64s1.187-2.64 2.64-2.64c1.453 0 2.64 1.187 2.64 2.64s-1.187 2.64-2.64 2.64zM11.973 11.547c-0.347 0-0.64 0.28-0.64 0.64s0.28 0.64 0.64 0.64c0.36 0 0.64-0.28 0.64-0.64s-0.293-0.64-0.64-0.64z"></path>
<path d="M20.692 22.453c-1.453 0-2.64-1.187-2.64-2.64s1.187-2.64 2.64-2.64c1.453 0 2.64 1.187 2.64 2.64s-1.187 2.64-2.64 2.64zM20.692 19.187c-0.347 0-0.64 0.28-0.64 0.64s0.28 0.64 0.64 0.64c0.36 0 0.64-0.28 0.64-0.64s-0.28-0.64-0.64-0.64z"></path>
<path d="M16 30.333c-7.907 0-14.333-6.427-14.333-14.333s6.427-14.333 14.333-14.333c7.907 0 14.333 6.427 14.333 14.333s-6.427 14.333-14.333 14.333zM16 3.667c-6.8 0-12.333 5.533-12.333 12.333s5.533 12.333 12.333 12.333c6.8 0 12.333-5.533 12.333-12.333s-5.533-12.333-12.333-12.333z"></path>
</svg>
