<!-- Generated by IcoMoon.io -->
<svg version="1.1" xmlns="http://www.w3.org/2000/svg" width="32" height="32" viewBox="0 0 32 32">
<title>percentage-square</title>
<path d="M20 30.333h-8c-7.24 0-10.333-3.093-10.333-10.333v-8c0-7.24 3.093-10.333 10.333-10.333h8c7.24 0 10.333 3.093 10.333 10.333v8c0 7.24-3.093 10.333-10.333 10.333zM12 3.667c-6.147 0-8.333 2.187-8.333 8.333v8c0 6.147 2.187 8.333 8.333 8.333h8c6.147 0 8.333-2.187 8.333-8.333v-8c0-6.147-2.187-8.333-8.333-8.333h-8z"></path>
<path d="M11.426 21.36c-0.253 0-0.507-0.093-0.707-0.293-0.387-0.387-0.387-1.027 0-1.413l8.733-8.733c0.387-0.387 1.027-0.387 1.413 0s0.387 1.027 0 1.413l-8.733 8.733c-0.2 0.2-0.453 0.293-0.707 0.293z"></path>
<path d="M11.973 14.813c-1.453 0-2.64-1.187-2.64-2.64s1.187-2.64 2.64-2.64c1.453 0 2.64 1.187 2.64 2.64s-1.187 2.64-2.64 2.64zM11.973 11.547c-0.347 0-0.64 0.28-0.64 0.64s0.28 0.64 0.64 0.64c0.36 0 0.64-0.28 0.64-0.64s-0.293-0.64-0.64-0.64z"></path>
<path d="M20.692 22.453c-1.453 0-2.64-1.187-2.64-2.64s1.187-2.64 2.64-2.64c1.453 0 2.64 1.187 2.64 2.64s-1.187 2.64-2.64 2.64zM20.692 19.187c-0.347 0-0.64 0.28-0.64 0.64s0.28 0.64 0.64 0.64c0.36 0 0.64-0.28 0.64-0.64s-0.28-0.64-0.64-0.64z"></path>
</svg>
