<!-- Generated by IcoMoon.io -->
<svg version="1.1" xmlns="http://www.w3.org/2000/svg" width="32" height="32" viewBox="0 0 32 32">
<title>personalcard</title>
<path d="M22.667 29h-13.333c-5.88 0-7.667-1.787-7.667-7.667v-10.667c0-5.88 1.787-7.667 7.667-7.667h13.333c5.88 0 7.667 1.787 7.667 7.667v10.667c0 5.88-1.787 7.667-7.667 7.667zM9.333 5c-4.773 0-5.667 0.907-5.667 5.667v10.667c0 4.76 0.893 5.667 5.667 5.667h13.333c4.773 0 5.667-0.907 5.667-5.667v-10.667c0-4.76-0.893-5.667-5.667-5.667h-13.333z"></path>
<path d="M25.333 11.667h-6.667c-0.547 0-1-0.453-1-1s0.453-1 1-1h6.667c0.547 0 1 0.453 1 1s-0.453 1-1 1z"></path>
<path d="M25.333 17h-5.333c-0.547 0-1-0.453-1-1s0.453-1 1-1h5.333c0.547 0 1 0.453 1 1s-0.453 1-1 1z"></path>
<path d="M25.333 22.333h-2.667c-0.547 0-1-0.453-1-1s0.453-1 1-1h2.667c0.547 0 1 0.453 1 1s-0.453 1-1 1z"></path>
<path d="M11.334 16.053c-1.88 0-3.413-1.533-3.413-3.413s1.533-3.413 3.413-3.413c1.88 0 3.413 1.533 3.413 3.413s-1.533 3.413-3.413 3.413zM11.334 11.227c-0.773 0-1.413 0.64-1.413 1.413s0.64 1.413 1.413 1.413c0.773 0 1.413-0.64 1.413-1.413s-0.64-1.413-1.413-1.413z"></path>
<path d="M16 22.773c-0.507 0-0.947-0.387-1-0.907-0.147-1.44-1.307-2.6-2.76-2.733-0.613-0.053-1.227-0.053-1.84 0-1.453 0.133-2.613 1.28-2.76 2.733-0.053 0.547-0.547 0.96-1.093 0.893-0.547-0.053-0.947-0.547-0.893-1.093 0.24-2.4 2.147-4.307 4.56-4.52 0.733-0.067 1.48-0.067 2.213 0 2.4 0.227 4.32 2.133 4.56 4.52 0.053 0.547-0.347 1.040-0.893 1.093-0.027 0.013-0.067 0.013-0.093 0.013z"></path>
</svg>
