<!-- Generated by IcoMoon.io -->
<svg version="1.1" xmlns="http://www.w3.org/2000/svg" width="32" height="32" viewBox="0 0 32 32">
<title>pet</title>
<path d="M18.719 30.333h-6.387c-2.16 0-4.12-0.84-5.533-2.387-1.413-1.533-2.093-3.56-1.907-5.707 0.453-5.467 5.28-9.907 10.773-9.907 5.053 0 9.827 4.053 10.667 9.027 0.4 2.373-0.187 4.613-1.627 6.32-1.467 1.707-3.587 2.653-5.987 2.653zM15.652 14.333c-4.467 0-8.4 3.627-8.773 8.080-0.133 1.587 0.36 3.067 1.387 4.187s2.467 1.733 4.053 1.733h6.387c1.8 0 3.387-0.693 4.44-1.933s1.48-2.92 1.187-4.707c-0.667-4.053-4.56-7.36-8.68-7.36z"></path>
<path d="M13.961 11c-2.387 0-4.333-1.947-4.333-4.333s1.947-4.333 4.333-4.333c2.387 0 4.333 1.947 4.333 4.333s-1.933 4.333-4.333 4.333zM13.961 4.333c-1.28 0-2.333 1.053-2.333 2.333s1.053 2.333 2.333 2.333c1.28 0 2.333-1.053 2.333-2.333s-1.040-2.333-2.333-2.333z"></path>
<path d="M23.068 12.6c-2.027 0-3.667-1.64-3.667-3.667s1.64-3.667 3.667-3.667c2.027 0 3.667 1.64 3.667 3.667s-1.64 3.667-3.667 3.667zM23.068 7.267c-0.92 0-1.667 0.747-1.667 1.667s0.747 1.667 1.667 1.667c0.92 0 1.667-0.747 1.667-1.667s-0.747-1.667-1.667-1.667z"></path>
<path d="M28 17.933c-1.653 0-3-1.347-3-3s1.347-3 3-3 3 1.347 3 3c0 1.653-1.347 3-3 3zM28 13.933c-0.547 0-1 0.453-1 1s0.453 1 1 1c0.547 0 1-0.453 1-1s-0.453-1-1-1z"></path>
<path d="M5.294 15.267c-2.027 0-3.667-1.64-3.667-3.667s1.64-3.667 3.667-3.667 3.667 1.64 3.667 3.667c0 2.027-1.64 3.667-3.667 3.667zM5.294 9.933c-0.92 0-1.667 0.747-1.667 1.667s0.747 1.667 1.667 1.667c0.92 0 1.667-0.747 1.667-1.667s-0.747-1.667-1.667-1.667z"></path>
</svg>
