<!-- Generated by IcoMoon.io -->
<svg version="1.1" xmlns="http://www.w3.org/2000/svg" width="32" height="32" viewBox="0 0 32 32">
<title>pharagraphspacing</title>
<path d="M28 30.333h-24c-0.547 0-1-0.453-1-1s0.453-1 1-1h24c0.547 0 1 0.453 1 1s-0.453 1-1 1z"></path>
<path d="M28 3.667h-24c-0.547 0-1-0.453-1-1s0.453-1 1-1h24c0.547 0 1 0.453 1 1s-0.453 1-1 1z"></path>
<path d="M16 25c-0.547 0-1-0.453-1-1v-16c0-0.547 0.453-1 1-1s1 0.453 1 1v16c0 0.547-0.453 1-1 1z"></path>
<path d="M19.773 11.293c-0.253 0-0.507-0.093-0.707-0.293l-3.067-3.067-3.067 3.067c-0.387 0.387-1.027 0.387-1.413 0s-0.387-1.027 0-1.413l3.773-3.773c0.373-0.373 1.040-0.373 1.413 0l3.773 3.773c0.387 0.387 0.387 1.027 0 1.413-0.2 0.2-0.453 0.293-0.707 0.293z"></path>
<path d="M15.999 25.96c-0.267 0-0.52-0.107-0.707-0.293l-3.773-3.773c-0.387-0.387-0.387-1.027 0-1.413s1.027-0.387 1.413 0l3.067 3.067 3.067-3.067c0.387-0.387 1.027-0.387 1.413 0s0.387 1.027 0 1.413l-3.773 3.773c-0.187 0.187-0.44 0.293-0.707 0.293z"></path>
</svg>
