<!-- Generated by IcoMoon.io -->
<svg version="1.1" xmlns="http://www.w3.org/2000/svg" width="32" height="32" viewBox="0 0 32 32">
<title>picture-frame</title>
<path d="M20 30.333h-8c-7.24 0-10.333-3.093-10.333-10.333v-8c0-7.24 3.093-10.333 10.333-10.333h8c7.24 0 10.333 3.093 10.333 10.333v8c0 7.24-3.093 10.333-10.333 10.333zM12 3.667c-6.147 0-8.333 2.187-8.333 8.333v8c0 6.147 2.187 8.333 8.333 8.333h8c6.147 0 8.333-2.187 8.333-8.333v-8c0-6.147-2.187-8.333-8.333-8.333h-8z"></path>
<path d="M18.6 30.334c-0.453 0-0.853-0.307-0.973-0.76l-6.6-26.667c-0.133-0.533 0.2-1.080 0.733-1.213s1.080 0.187 1.213 0.733l6.6 26.667c0.133 0.533-0.2 1.080-0.733 1.213-0.080 0.013-0.16 0.027-0.24 0.027z"></path>
<path d="M2.666 21c-0.44 0-0.827-0.28-0.96-0.72-0.16-0.533 0.147-1.080 0.68-1.24l12.707-3.707c0.533-0.16 1.080 0.147 1.24 0.68s-0.147 1.080-0.68 1.24l-12.707 3.707c-0.093 0.027-0.187 0.040-0.28 0.040z"></path>
</svg>
