<!-- Generated by IcoMoon.io -->
<svg version="1.1" xmlns="http://www.w3.org/2000/svg" width="32" height="32" viewBox="0 0 32 32">
<title>play-cricle</title>
<path d="M25.426 26.427c-0.253 0-0.507-0.093-0.707-0.293-0.387-0.387-0.387-1.027 0-1.413 4.813-4.813 4.813-12.64 0-17.44-0.387-0.387-0.387-1.027 0-1.413s1.027-0.387 1.413 0c5.587 5.587 5.587 14.68 0 20.267-0.2 0.2-0.453 0.293-0.707 0.293z"></path>
<path d="M6.574 26.427c-0.253 0-0.507-0.093-0.707-0.293-5.587-5.587-5.587-14.68 0-20.267 0.387-0.387 1.027-0.387 1.413 0s0.387 1.027 0 1.413c-4.813 4.813-4.813 12.64 0 17.44 0.387 0.387 0.387 1.027 0 1.413-0.2 0.2-0.453 0.293-0.707 0.293z"></path>
<path d="M15.998 30.28c-1.667-0.013-3.253-0.28-4.733-0.8-0.52-0.187-0.8-0.76-0.613-1.28s0.747-0.8 1.28-0.613c1.28 0.44 2.64 0.68 4.080 0.68 1.427 0 2.8-0.24 4.067-0.68 0.52-0.173 1.093 0.093 1.28 0.613s-0.093 1.093-0.613 1.28c-1.493 0.52-3.080 0.8-4.747 0.8z"></path>
<path d="M20.401 4.453c-0.107 0-0.227-0.013-0.333-0.053-1.28-0.44-2.653-0.68-4.080-0.68s-2.787 0.24-4.067 0.68c-0.52 0.173-1.093-0.093-1.28-0.613s0.093-1.093 0.613-1.28c1.48-0.52 3.080-0.787 4.733-0.787s3.253 0.267 4.733 0.787c0.52 0.187 0.8 0.76 0.613 1.28-0.133 0.413-0.52 0.667-0.933 0.667z"></path>
<path d="M14.080 22.347c-0.587 0-1.147-0.147-1.64-0.427-1.147-0.667-1.787-1.973-1.787-3.68v-4.467c0-1.707 0.627-3.013 1.787-3.68 1.147-0.667 2.6-0.56 4.080 0.293l3.867 2.227c1.48 0.853 2.293 2.053 2.293 3.387s-0.813 2.533-2.293 3.387l-3.867 2.227c-0.84 0.493-1.68 0.733-2.44 0.733zM14.080 11.653c-0.24 0-0.467 0.053-0.64 0.16-0.493 0.293-0.787 1-0.787 1.947v4.467c0 0.947 0.28 1.667 0.787 1.947 0.493 0.28 1.253 0.173 2.080-0.293l3.867-2.227c0.827-0.48 1.293-1.080 1.293-1.653s-0.467-1.173-1.293-1.653l-3.867-2.227c-0.533-0.307-1.027-0.467-1.44-0.467z"></path>
</svg>
