<!-- Generated by IcoMoon.io -->
<svg version="1.1" xmlns="http://www.w3.org/2000/svg" width="32" height="32" viewBox="0 0 32 32">
<title>play-circle</title>
<path d="M15.961 30.333c-7.893 0-14.333-6.427-14.333-14.333s6.44-14.333 14.333-14.333c7.893 0 14.333 6.427 14.333 14.333s-6.427 14.333-14.333 14.333zM15.961 3.667c-6.8 0-12.333 5.533-12.333 12.333s5.533 12.333 12.333 12.333c6.8 0 12.333-5.533 12.333-12.333s-5.533-12.333-12.333-12.333z"></path>
<path d="M14.080 22.653c-0.587 0-1.147-0.147-1.64-0.427-1.147-0.667-1.787-1.973-1.787-3.68v-4.467c0-1.707 0.627-3.013 1.773-3.68s2.6-0.56 4.080 0.293l3.867 2.227c1.48 0.853 2.293 2.053 2.293 3.387 0 1.32-0.813 2.533-2.293 3.387l-3.867 2.227c-0.827 0.493-1.667 0.733-2.427 0.733zM14.080 11.96c-0.24 0-0.467 0.053-0.64 0.16-0.507 0.293-0.787 1-0.787 1.96v4.467c0 0.947 0.28 1.667 0.787 1.947 0.493 0.293 1.253 0.173 2.080-0.293l3.867-2.227c0.827-0.48 1.293-1.080 1.293-1.653s-0.48-1.173-1.293-1.653l-3.867-2.227c-0.533-0.32-1.027-0.48-1.44-0.48z"></path>
</svg>
