<!-- Generated by IcoMoon.io -->
<svg version="1.1" xmlns="http://www.w3.org/2000/svg" width="32" height="32" viewBox="0 0 32 32">
<title>play-remove</title>
<path d="M16 30.333c-7.907 0-14.333-6.427-14.333-14.333s6.427-14.333 14.333-14.333c7.907 0 14.333 6.427 14.333 14.333 0 1.867-0.347 3.653-1.040 5.333-0.12 0.28-0.347 0.493-0.64 0.573-0.293 0.093-0.6 0.040-0.853-0.133-1.573-1.080-3.707-1-5.187 0.173-1.027 0.813-1.627 2.053-1.627 3.373 0 0.787 0.213 1.56 0.627 2.227 0.040 0.067 0.067 0.107 0.107 0.147 0.213 0.24 0.293 0.573 0.227 0.893s-0.293 0.573-0.6 0.693c-1.693 0.707-3.493 1.053-5.347 1.053zM16 3.667c-6.8 0-12.333 5.533-12.333 12.333s5.533 12.333 12.333 12.333c1.2 0 2.373-0.173 3.507-0.52-0.333-0.773-0.507-1.613-0.507-2.48 0-1.947 0.867-3.747 2.373-4.947 1.8-1.44 4.36-1.773 6.44-0.88 0.333-1.12 0.507-2.307 0.507-3.52 0.013-6.787-5.52-12.32-12.32-12.32z"></path>
<path d="M14.505 21.427c-0.52 0-1.013-0.12-1.44-0.373-0.987-0.573-1.56-1.733-1.56-3.2v-3.707c0-1.467 0.573-2.627 1.56-3.2 1-0.573 2.293-0.48 3.56 0.253l3.2 1.853c1.267 0.733 1.987 1.813 1.987 2.947s-0.72 2.227-1.987 2.947l-3.2 1.853c-0.72 0.413-1.44 0.627-2.12 0.627zM14.519 12.573c-0.173 0-0.32 0.040-0.453 0.107-0.36 0.213-0.56 0.747-0.56 1.467v3.707c0 0.72 0.2 1.267 0.56 1.467s0.92 0.12 1.56-0.253l3.2-1.853c0.627-0.36 0.987-0.813 0.987-1.227s-0.36-0.853-0.987-1.227l-3.2-1.853c-0.413-0.213-0.787-0.333-1.107-0.333z"></path>
<path d="M25.333 31.667c-2.093 0-4.027-1.027-5.187-2.747-0.053-0.040-0.16-0.2-0.24-0.347-0.587-0.947-0.907-2.080-0.907-3.24 0-1.947 0.867-3.747 2.373-4.947 2.147-1.707 5.307-1.827 7.56-0.253 1.707 1.187 2.72 3.12 2.72 5.2 0 1.16-0.32 2.293-0.92 3.267-0.333 0.56-0.76 1.067-1.267 1.493-1.093 1.013-2.573 1.573-4.133 1.573zM25.333 21c-0.987 0-1.92 0.333-2.707 0.96-1.027 0.813-1.627 2.053-1.627 3.373 0 0.787 0.213 1.56 0.627 2.227 0.040 0.067 0.067 0.107 0.107 0.147 0.867 1.267 2.187 1.96 3.613 1.96 1.053 0 2.067-0.387 2.84-1.080 0.347-0.293 0.64-0.64 0.853-1.013 0.427-0.68 0.64-1.453 0.64-2.24 0-1.413-0.693-2.747-1.867-3.547-0.747-0.52-1.6-0.787-2.48-0.787z"></path>
<path d="M26.761 27.72c-0.253 0-0.507-0.093-0.707-0.293l-2.813-2.813c-0.387-0.387-0.387-1.027 0-1.413s1.027-0.387 1.413 0l2.813 2.813c0.387 0.387 0.387 1.027 0 1.413-0.2 0.2-0.453 0.293-0.707 0.293z"></path>
<path d="M23.908 27.76c-0.253 0-0.507-0.093-0.707-0.293-0.387-0.387-0.387-1.027 0-1.413l2.813-2.813c0.387-0.387 1.027-0.387 1.413 0s0.387 1.027 0 1.413l-2.813 2.813c-0.2 0.2-0.453 0.293-0.707 0.293z"></path>
</svg>
