<!-- Generated by IcoMoon.io -->
<svg version="1.1" xmlns="http://www.w3.org/2000/svg" width="32" height="32" viewBox="0 0 32 32">
<title>play</title>
<path d="M10.493 28.373c-1.053 0-2.053-0.253-2.933-0.76-2.080-1.2-3.227-3.64-3.227-6.853v-9.507c0-3.227 1.147-5.653 3.227-6.853s4.76-0.973 7.56 0.64l8.227 4.747c2.787 1.613 4.333 3.827 4.333 6.227s-1.533 4.613-4.333 6.227l-8.227 4.747c-1.613 0.92-3.187 1.387-4.627 1.387zM10.493 5.627c-0.72 0-1.36 0.16-1.933 0.493-1.44 0.827-2.227 2.653-2.227 5.133v9.493c0 2.48 0.787 4.293 2.227 5.133s3.413 0.6 5.56-0.64l8.227-4.747c2.147-1.24 3.333-2.827 3.333-4.493s-1.187-3.253-3.333-4.493l-8.227-4.747c-1.307-0.747-2.533-1.133-3.627-1.133z"></path>
</svg>
