<!-- Generated by IcoMoon.io -->
<svg version="1.1" xmlns="http://www.w3.org/2000/svg" width="32" height="32" viewBox="0 0 32 32">
<title>presention-chart</title>
<path d="M24.133 23.667h-16.267c-3.093 0-4.867-1.773-4.867-4.867v-16.133c0-0.547 0.453-1 1-1h24c0.547 0 1 0.453 1 1v16.133c0 3.093-1.773 4.867-4.867 4.867zM5 3.667v15.133c0 1.987 0.88 2.867 2.867 2.867h16.253c1.987 0 2.867-0.88 2.867-2.867v-15.133h-21.987z"></path>
<path d="M29.333 3.667h-26.667c-0.547 0-1-0.453-1-1s0.453-1 1-1h26.667c0.547 0 1 0.453 1 1s-0.453 1-1 1z"></path>
<path d="M10.667 30.333c-0.373 0-0.72-0.2-0.893-0.547-0.253-0.493-0.053-1.093 0.453-1.347l4.773-2.387v-3.387c0-0.547 0.453-1 1-1s1 0.453 1 1v4c0 0.373-0.213 0.72-0.56 0.893l-5.333 2.667c-0.133 0.067-0.293 0.107-0.44 0.107z"></path>
<path d="M21.333 30.334c-0.147 0-0.307-0.040-0.44-0.107l-5.333-2.667c-0.493-0.253-0.693-0.853-0.453-1.347 0.253-0.493 0.853-0.693 1.347-0.453l5.333 2.667c0.493 0.253 0.693 0.853 0.453 1.347-0.187 0.36-0.547 0.56-0.907 0.56z"></path>
<path d="M10 15.667c-0.28 0-0.573-0.12-0.773-0.36-0.36-0.427-0.293-1.053 0.133-1.413l4.2-3.507c0.387-0.32 0.88-0.453 1.347-0.373 0.48 0.080 0.893 0.373 1.147 0.8l1.4 2.333 3.907-3.253c0.427-0.347 1.053-0.293 1.413 0.133s0.293 1.053-0.133 1.413l-4.2 3.507c-0.387 0.32-0.88 0.453-1.347 0.373-0.48-0.080-0.893-0.373-1.147-0.8l-1.4-2.333-3.907 3.253c-0.187 0.147-0.413 0.227-0.64 0.227z"></path>
</svg>
