<!-- Generated by IcoMoon.io -->
<svg version="1.1" xmlns="http://www.w3.org/2000/svg" width="32" height="32" viewBox="0 0 32 32">
<title>previous</title>
<path d="M23.586 26.787c-0.76 0-1.507-0.2-2.2-0.6l-11.053-6.373c-1.373-0.8-2.2-2.227-2.2-3.813s0.827-3.013 2.2-3.813l11.053-6.373c1.373-0.8 3.013-0.8 4.4 0s2.2 2.213 2.2 3.813v12.76c0 1.587-0.827 3.013-2.2 3.813-0.693 0.387-1.44 0.587-2.2 0.587zM23.586 7.214c-0.413 0-0.827 0.107-1.2 0.32l-11.053 6.373c-0.747 0.44-1.2 1.213-1.2 2.080s0.453 1.64 1.2 2.080l11.053 6.373c0.747 0.44 1.653 0.44 2.4 0s1.2-1.213 1.2-2.080v-12.76c0-0.867-0.453-1.64-1.2-2.080-0.373-0.187-0.787-0.307-1.2-0.307z"></path>
<path d="M5.013 25.24c-0.547 0-1-0.453-1-1v-16.48c0-0.547 0.453-1 1-1s1 0.453 1 1v16.48c0 0.547-0.453 1-1 1z"></path>
</svg>
