<!-- Generated by IcoMoon.io -->
<svg version="1.1" xmlns="http://www.w3.org/2000/svg" width="32" height="32" viewBox="0 0 32 32">
<title>printer-slash</title>
<path d="M22.333 10.333h-12.667c-0.547 0-1-0.453-1-1v-2.667c0-3.413 1.587-5 5-5h4.667c3.413 0 5 1.587 5 5v2.667c0 0.547-0.453 1-1 1zM10.667 8.333h10.667v-1.667c0-2.267-0.733-3-3-3h-4.667c-2.267 0-3 0.733-3 3v1.667z"></path>
<path d="M17.333 30.333h-2.667c-2.72 0-4.453-1.307-4.893-3.68-0.093-0.547 0.253-1.067 0.8-1.16 0.533-0.107 1.067 0.253 1.16 0.8 0.173 0.947 0.667 2.040 2.92 2.040h2.667c2.107 0 3-0.893 3-3v-4.333h-3.040c-0.547 0-1-0.453-1-1s0.453-1 1-1h4.053c0.547 0 1 0.453 1 1v5.333c0 3.227-1.773 5-5 5z"></path>
<path d="M8 25c-3.227 0-5-1.773-5-5v-6.667c0-3.227 1.773-5 5-5h14.12c0.547 0 1 0.453 1 1s-0.453 1-1 1h-14.12c-2.107 0-3 0.893-3 3v6.667c0 2.107 0.893 3 3 3 0.547 0 1 0.453 1 1s-0.453 1-1 1z"></path>
<path d="M24 25h-2.667c-0.547 0-1-0.453-1-1v-3h-3c-0.547 0-1-0.453-1-1s0.453-1 1-1h4c0.547 0 1 0.453 1 1v3h1.667c2.107 0 3-0.893 3-3v-6.667c0-1.227-0.307-2.040-0.947-2.493-0.453-0.32-0.56-0.947-0.24-1.387 0.32-0.453 0.947-0.56 1.4-0.24 1.187 0.84 1.787 2.227 1.787 4.12v6.667c0 3.227-1.773 5-5 5z"></path>
<path d="M22.667 21h-1.613c-0.547 0-1-0.453-1-1s0.453-1 1-1h1.613c0.547 0 1 0.453 1 1s-0.453 1-1 1z"></path>
<path d="M12 15.667h-2.667c-0.547 0-1-0.453-1-1s0.453-1 1-1h2.667c0.547 0 1 0.453 1 1s-0.453 1-1 1z"></path>
<path d="M2.667 30.333c-0.253 0-0.507-0.093-0.707-0.293-0.387-0.387-0.387-1.027 0-1.413l26.667-26.667c0.387-0.387 1.027-0.387 1.413 0s0.387 1.027 0 1.413l-26.667 26.667c-0.2 0.2-0.453 0.293-0.707 0.293z"></path>
</svg>
