<!-- Generated by IcoMoon.io -->
<svg version="1.1" xmlns="http://www.w3.org/2000/svg" width="32" height="32" viewBox="0 0 32 32">
<title>printer</title>
<path d="M22.333 10.333h-12.667c-0.547 0-1-0.453-1-1v-2.667c0-3.413 1.587-5 5-5h4.667c3.413 0 5 1.587 5 5v2.667c0 0.547-0.453 1-1 1zM10.667 8.333h10.667v-1.667c0-2.267-0.733-3-3-3h-4.667c-2.267 0-3 0.733-3 3v1.667z"></path>
<path d="M17.333 30.333h-2.667c-3.227 0-5-1.773-5-5v-5.333c0-0.547 0.453-1 1-1h10.667c0.547 0 1 0.453 1 1v5.333c0 3.227-1.773 5-5 5zM11.667 21v4.333c0 2.107 0.893 3 3 3h2.667c2.107 0 3-0.893 3-3v-4.333h-8.667z"></path>
<path d="M24 25h-2.667c-0.547 0-1-0.453-1-1v-3h-8.667v3c0 0.547-0.453 1-1 1h-2.667c-3.227 0-5-1.773-5-5v-6.667c0-3.227 1.773-5 5-5h16c3.227 0 5 1.773 5 5v6.667c0 3.227-1.773 5-5 5zM22.333 23h1.667c2.107 0 3-0.893 3-3v-6.667c0-2.107-0.893-3-3-3h-16c-2.107 0-3 0.893-3 3v6.667c0 2.107 0.893 3 3 3h1.667v-3c0-0.547 0.453-1 1-1h10.667c0.547 0 1 0.453 1 1v3z"></path>
<path d="M22.667 21h-13.333c-0.547 0-1-0.453-1-1s0.453-1 1-1h13.333c0.547 0 1 0.453 1 1s-0.453 1-1 1z"></path>
<path d="M13.333 15.667h-4c-0.547 0-1-0.453-1-1s0.453-1 1-1h4c0.547 0 1 0.453 1 1s-0.453 1-1 1z"></path>
</svg>
