<!-- Generated by IcoMoon.io -->
<svg version="1.1" xmlns="http://www.w3.org/2000/svg" width="32" height="32" viewBox="0 0 32 32">
<title>profile-2user</title>
<path d="M12.214 15.493c-0.040 0-0.067 0-0.107 0-0.067-0.013-0.16-0.013-0.24 0-3.867-0.12-6.787-3.16-6.787-6.907 0-3.813 3.107-6.92 6.92-6.92s6.92 3.107 6.92 6.92c-0.013 3.747-2.947 6.787-6.667 6.907-0.013 0-0.027 0-0.040 0zM12.001 3.667c-2.707 0-4.92 2.213-4.92 4.92 0 2.667 2.080 4.813 4.733 4.907 0.080-0.013 0.253-0.013 0.427 0 2.613-0.12 4.667-2.267 4.68-4.907 0-2.707-2.213-4.92-4.92-4.92z"></path>
<path d="M22.054 15.667c-0.040 0-0.080 0-0.12-0.013-0.547 0.053-1.107-0.333-1.16-0.88s0.28-1.040 0.827-1.107c0.16-0.013 0.333-0.013 0.48-0.013 1.947-0.107 3.467-1.707 3.467-3.667 0-2.027-1.64-3.667-3.667-3.667-0.547 0.013-1-0.44-1-0.987s0.453-1 1-1c3.12 0 5.667 2.547 5.667 5.667 0 3.067-2.4 5.547-5.453 5.667-0.013 0-0.027 0-0.040 0z"></path>
<path d="M12.226 30.067c-2.613 0-5.24-0.667-7.227-2-1.853-1.227-2.867-2.907-2.867-4.733s1.013-3.52 2.867-4.76c4-2.653 10.48-2.653 14.453 0 1.84 1.227 2.867 2.907 2.867 4.733s-1.013 3.52-2.867 4.76c-2 1.333-4.613 2-7.227 2zM6.106 20.253c-1.28 0.853-1.973 1.947-1.973 3.093 0 1.133 0.707 2.227 1.973 3.067 3.32 2.227 8.92 2.227 12.24 0 1.28-0.853 1.973-1.947 1.973-3.093 0-1.133-0.707-2.227-1.973-3.067-3.32-2.213-8.92-2.213-12.24 0z"></path>
<path d="M24.454 27.667c-0.467 0-0.88-0.32-0.973-0.8-0.107-0.547 0.24-1.067 0.773-1.187 0.84-0.173 1.613-0.507 2.213-0.973 0.76-0.573 1.173-1.293 1.173-2.053s-0.413-1.48-1.16-2.040c-0.587-0.453-1.32-0.773-2.187-0.973-0.533-0.12-0.88-0.653-0.76-1.2 0.12-0.533 0.653-0.88 1.2-0.76 1.147 0.253 2.147 0.707 2.96 1.333 1.24 0.933 1.947 2.253 1.947 3.64s-0.72 2.707-1.96 3.653c-0.827 0.64-1.867 1.107-3.013 1.333-0.080 0.027-0.147 0.027-0.213 0.027z"></path>
</svg>
