<!-- Generated by IcoMoon.io -->
<svg version="1.1" xmlns="http://www.w3.org/2000/svg" width="32" height="32" viewBox="0 0 32 32">
<title>programming-arrows</title>
<path d="M25.333 22.333c-0.547 0-1-0.453-1-1v-12.667c0-0.92-0.747-1.667-1.667-1.667h-7.333c-0.547 0-1-0.453-1-1s0.453-1 1-1h7.333c2.027 0 3.667 1.64 3.667 3.667v12.667c0 0.547-0.453 1-1 1z"></path>
<path d="M18.667 10.333c-0.227 0-0.453-0.080-0.64-0.227l-4-3.333c-0.227-0.187-0.36-0.467-0.36-0.773s0.133-0.573 0.36-0.773l4-3.333c0.427-0.36 1.053-0.293 1.413 0.133s0.293 1.053-0.133 1.413l-3.080 2.56 3.080 2.56c0.427 0.36 0.48 0.987 0.133 1.413-0.2 0.24-0.493 0.36-0.773 0.36z"></path>
<path d="M25.333 30.333c-2.76 0-5-2.24-5-5s2.24-5 5-5c2.76 0 5 2.24 5 5s-2.24 5-5 5zM25.333 22.333c-1.653 0-3 1.347-3 3s1.347 3 3 3c1.653 0 3-1.347 3-3s-1.347-3-3-3z"></path>
<path d="M16.667 27h-7.333c-2.027 0-3.667-1.64-3.667-3.667v-12.667c0-0.547 0.453-1 1-1s1 0.453 1 1v12.667c0 0.92 0.747 1.667 1.667 1.667h7.333c0.547 0 1 0.453 1 1s-0.453 1-1 1z"></path>
<path d="M13.335 30.333c-0.28 0-0.573-0.12-0.773-0.36-0.36-0.427-0.293-1.053 0.133-1.413l3.080-2.56-3.080-2.56c-0.427-0.36-0.48-0.987-0.133-1.413 0.36-0.427 0.987-0.48 1.413-0.133l4 3.333c0.227 0.187 0.36 0.467 0.36 0.773s-0.133 0.573-0.36 0.773l-4 3.333c-0.187 0.147-0.413 0.227-0.64 0.227z"></path>
<path d="M6.667 11.667c-2.76 0-5-2.24-5-5s2.24-5 5-5c2.76 0 5 2.24 5 5s-2.24 5-5 5zM6.667 3.667c-1.653 0-3 1.347-3 3s1.347 3 3 3c1.653 0 3-1.347 3-3s-1.347-3-3-3z"></path>
</svg>
