<!-- Generated by IcoMoon.io -->
<svg version="1.1" xmlns="http://www.w3.org/2000/svg" width="32" height="32" viewBox="0 0 32 32">
<title>programming-arrow</title>
<path d="M25.333 22.333c-0.547 0-1-0.453-1-1v-12.667c0-0.92-0.747-1.667-1.667-1.667h-6c-0.547 0-1-0.453-1-1s0.453-1 1-1h6c2.027 0 3.667 1.64 3.667 3.667v12.667c0 0.547-0.453 1-1 1z"></path>
<path d="M20 10.333c-0.227 0-0.453-0.080-0.64-0.227l-4-3.333c-0.227-0.187-0.36-0.467-0.36-0.773s0.133-0.573 0.36-0.773l4-3.333c0.427-0.36 1.053-0.293 1.413 0.133s0.293 1.053-0.133 1.413l-3.080 2.56 3.080 2.56c0.427 0.36 0.48 0.987 0.133 1.413-0.2 0.24-0.493 0.36-0.773 0.36z"></path>
<path d="M6.667 22.333c-0.547 0-1-0.453-1-1v-9.333c0-0.547 0.453-1 1-1s1 0.453 1 1v9.333c0 0.547-0.453 1-1 1z"></path>
<path d="M7 12.333c-2.947 0-5.333-2.387-5.333-5.333s2.387-5.333 5.333-5.333c2.947 0 5.333 2.387 5.333 5.333s-2.387 5.333-5.333 5.333zM7 3.667c-1.84 0-3.333 1.493-3.333 3.333s1.493 3.333 3.333 3.333c1.84 0 3.333-1.493 3.333-3.333s-1.493-3.333-3.333-3.333z"></path>
<path d="M6.667 30.333c-2.76 0-5-2.24-5-5s2.24-5 5-5c2.76 0 5 2.24 5 5s-2.24 5-5 5zM6.667 22.333c-1.653 0-3 1.347-3 3s1.347 3 3 3c1.653 0 3-1.347 3-3s-1.347-3-3-3z"></path>
<path d="M25.333 30.333c-2.76 0-5-2.24-5-5s2.24-5 5-5c2.76 0 5 2.24 5 5s-2.24 5-5 5zM25.333 22.333c-1.653 0-3 1.347-3 3s1.347 3 3 3c1.653 0 3-1.347 3-3s-1.347-3-3-3z"></path>
</svg>
