<!-- Generated by IcoMoon.io -->
<svg version="1.1" xmlns="http://www.w3.org/2000/svg" width="32" height="32" viewBox="0 0 32 32">
<title>quote-down</title>
<path d="M29.335 16.533h-7.733c-2.533 0-4.44-1.907-4.44-4.44v-4.293c0-2.533 1.907-4.44 4.44-4.44h4.293c2.44 0 4.44 1.987 4.44 4.44v7.733c0 0.56-0.453 1-1 1zM21.601 5.373c-1.413 0-2.44 1.027-2.44 2.44v4.293c0 1.413 1.027 2.44 2.44 2.44h6.733v-6.733c0-1.347-1.093-2.44-2.44-2.44h-4.293z"></path>
<path d="M23.294 28.626c-0.347 0-0.68-0.173-0.867-0.493-0.28-0.48-0.12-1.093 0.347-1.373 4.307-2.56 5.56-3.627 5.56-11.227 0-0.547 0.453-1 1-1s1 0.453 1 1c0 8.333-1.693 10.080-6.533 12.947-0.16 0.107-0.333 0.147-0.507 0.147z"></path>
<path d="M13.827 16.533h-7.733c-2.533 0-4.44-1.907-4.44-4.44v-4.293c0-2.533 1.907-4.44 4.44-4.44h4.307c2.44 0 4.44 1.987 4.44 4.44v7.733c-0.013 0.56-0.453 1-1.013 1zM6.107 5.373c-1.413 0-2.44 1.027-2.44 2.44v4.293c0 1.413 1.027 2.44 2.44 2.44h6.733v-6.733c0-1.347-1.093-2.44-2.44-2.44h-4.293z"></path>
<path d="M7.786 28.626c-0.347 0-0.68-0.173-0.867-0.493-0.28-0.48-0.12-1.093 0.347-1.373 4.307-2.56 5.56-3.627 5.56-11.227 0-0.547 0.453-1 1-1s1 0.453 1 1c0 8.333-1.693 10.080-6.533 12.947-0.16 0.107-0.333 0.147-0.507 0.147z"></path>
</svg>
