<!-- Generated by IcoMoon.io -->
<svg version="1.1" xmlns="http://www.w3.org/2000/svg" width="32" height="32" viewBox="0 0 32 32">
<title>quote-down-circle</title>
<path d="M12.907 22.373h-1.987c-1.427 0-2.587-1.16-2.587-2.587v-3.56c0-0.547 0.453-1 1-1h3.573c1.453 0 2.587 1.133 2.587 2.587v1.987c-0.013 1.427-1.147 2.573-2.587 2.573zM10.333 17.213v2.56c0 0.32 0.267 0.587 0.587 0.587h1.987c0.427 0 0.587-0.32 0.587-0.587v-1.987c0-0.267-0.147-0.587-0.587-0.587h-2.573v0.013z"></path>
<path d="M9.333 17.214c-0.547 0-1-0.453-1-1 0-4.107 0.893-5.027 3.28-6.44 0.467-0.28 1.093-0.12 1.373 0.347s0.12 1.093-0.347 1.373c-1.813 1.080-2.307 1.36-2.307 4.72 0 0.56-0.453 1-1 1z"></path>
<path d="M21.079 22.373h-1.987c-1.427 0-2.587-1.16-2.587-2.587v-3.56c0-0.547 0.453-1 1-1h3.573c1.453 0 2.587 1.133 2.587 2.587v1.987c0 1.427-1.133 2.573-2.587 2.573zM18.519 17.213v2.56c0 0.32 0.267 0.587 0.587 0.587h1.987c0.427 0 0.587-0.32 0.587-0.587v-1.987c0-0.267-0.147-0.587-0.587-0.587h-2.573v0.013z"></path>
<path d="M17.521 17.214c-0.547 0-1-0.453-1-1 0-4.107 0.893-5.027 3.28-6.44 0.48-0.28 1.093-0.12 1.373 0.347 0.28 0.48 0.12 1.093-0.347 1.373-1.813 1.080-2.307 1.36-2.307 4.72 0 0.56-0.453 1-1 1z"></path>
<path d="M16 30.333c-7.907 0-14.333-6.427-14.333-14.333s6.427-14.333 14.333-14.333c7.907 0 14.333 6.427 14.333 14.333s-6.427 14.333-14.333 14.333zM16 3.667c-6.8 0-12.333 5.533-12.333 12.333s5.533 12.333 12.333 12.333c6.8 0 12.333-5.533 12.333-12.333s-5.533-12.333-12.333-12.333z"></path>
</svg>
