<!-- Generated by IcoMoon.io -->
<svg version="1.1" xmlns="http://www.w3.org/2000/svg" width="32" height="32" viewBox="0 0 32 32">
<title>quote-up</title>
<path d="M10.4 28.626h-4.293c-2.44 0-4.44-1.987-4.44-4.44v-7.733c0-0.547 0.453-1 1-1h7.733c2.533 0 4.44 1.907 4.44 4.44v4.293c-0.013 2.533-1.92 4.44-4.44 4.44zM3.667 17.466v6.733c0 1.347 1.093 2.44 2.44 2.44h4.293c1.413 0 2.44-1.027 2.44-2.44v-4.293c0-1.413-1.027-2.44-2.44-2.44h-6.733z"></path>
<path d="M2.667 17.466c-0.547 0-1-0.453-1-1 0-8.333 1.693-10.080 6.533-12.947 0.48-0.28 1.093-0.12 1.373 0.347 0.28 0.48 0.12 1.093-0.347 1.373-4.32 2.56-5.56 3.627-5.56 11.227 0 0.547-0.453 1-1 1z"></path>
<path d="M25.895 28.626h-4.293c-2.44 0-4.44-1.987-4.44-4.44v-7.733c0-0.547 0.453-1 1-1h7.733c2.533 0 4.44 1.907 4.44 4.44v4.293c0 2.533-1.907 4.44-4.44 4.44zM19.175 17.466v6.733c0 1.347 1.093 2.44 2.44 2.44h4.293c1.413 0 2.44-1.027 2.44-2.44v-4.293c0-1.413-1.027-2.44-2.44-2.44h-6.733z"></path>
<path d="M18.172 17.466c-0.547 0-1-0.453-1-1 0-8.333 1.693-10.080 6.533-12.947 0.48-0.28 1.093-0.12 1.373 0.347 0.28 0.48 0.12 1.093-0.347 1.373-4.32 2.56-5.56 3.627-5.56 11.227 0 0.547-0.453 1-1 1z"></path>
</svg>
