<!-- Generated by IcoMoon.io -->
<svg version="1.1" xmlns="http://www.w3.org/2000/svg" width="32" height="32" viewBox="0 0 32 32">
<title>quote-up-circle</title>
<path d="M22.665 16.786h-3.573c-1.453 0-2.587-1.133-2.587-2.587v-1.987c0-1.453 1.133-2.587 2.587-2.587h1.987c1.427 0 2.587 1.16 2.587 2.587v3.56c0 0.56-0.453 1.013-1 1.013zM19.092 11.626c-0.427 0-0.587 0.32-0.587 0.587v1.987c0 0.267 0.147 0.587 0.587 0.587h2.573v-2.56c0-0.32-0.267-0.587-0.587-0.587h-1.987v-0.013z"></path>
<path d="M19.88 22.373c-0.347 0-0.68-0.173-0.867-0.493-0.28-0.48-0.12-1.093 0.347-1.373 1.813-1.080 2.307-1.36 2.307-4.72 0-0.547 0.453-1 1-1s1 0.453 1 1c0 4.107-0.893 5.027-3.28 6.44-0.16 0.093-0.333 0.147-0.507 0.147z"></path>
<path d="M14.48 16.786h-3.573c-1.453 0-2.587-1.133-2.587-2.587v-1.987c0-1.453 1.133-2.587 2.587-2.587h1.987c1.427 0 2.587 1.16 2.587 2.587v3.56c0 0.56-0.44 1.013-1 1.013zM10.92 11.626c-0.427 0-0.587 0.32-0.587 0.587v1.987c0 0.267 0.147 0.587 0.587 0.587h2.573v-2.56c0-0.32-0.267-0.587-0.587-0.587h-1.987v-0.013z"></path>
<path d="M11.692 22.373c-0.347 0-0.68-0.173-0.867-0.493-0.28-0.48-0.12-1.093 0.347-1.373 1.813-1.080 2.307-1.36 2.307-4.72 0-0.547 0.453-1 1-1s1 0.453 1 1c0 4.107-0.893 5.027-3.28 6.44-0.16 0.093-0.333 0.147-0.507 0.147z"></path>
<path d="M16 30.333c-7.907 0-14.333-6.427-14.333-14.333s6.427-14.333 14.333-14.333c7.907 0 14.333 6.427 14.333 14.333s-6.427 14.333-14.333 14.333zM16 3.667c-6.8 0-12.333 5.533-12.333 12.333s5.533 12.333 12.333 12.333c6.8 0 12.333-5.533 12.333-12.333s-5.533-12.333-12.333-12.333z"></path>
</svg>
