<!-- Generated by IcoMoon.io -->
<svg version="1.1" xmlns="http://www.w3.org/2000/svg" width="32" height="32" viewBox="0 0 32 32">
<title>radar-1</title>
<path d="M16 19.667c-2.027 0-3.667-1.64-3.667-3.667s1.64-3.667 3.667-3.667c2.027 0 3.667 1.64 3.667 3.667s-1.64 3.667-3.667 3.667zM16 14.333c-0.92 0-1.667 0.747-1.667 1.667s0.747 1.667 1.667 1.667c0.92 0 1.667-0.747 1.667-1.667s-0.747-1.667-1.667-1.667z"></path>
<path d="M26.667 25c-0.213 0-0.413-0.067-0.6-0.2-0.44-0.333-0.533-0.96-0.2-1.4 1.613-2.147 2.467-4.707 2.467-7.4s-0.853-5.253-2.467-7.4c-0.333-0.44-0.24-1.067 0.2-1.4s1.067-0.24 1.4 0.2c1.88 2.493 2.867 5.467 2.867 8.6s-0.987 6.107-2.867 8.6c-0.2 0.267-0.493 0.4-0.8 0.4z"></path>
<path d="M5.333 25c-0.307 0-0.6-0.133-0.8-0.4-1.88-2.493-2.867-5.467-2.867-8.6s0.987-6.107 2.867-8.6c0.333-0.44 0.96-0.533 1.4-0.2s0.533 0.96 0.2 1.4c-1.613 2.147-2.467 4.707-2.467 7.4s0.853 5.253 2.467 7.4c0.333 0.44 0.24 1.067-0.2 1.4-0.173 0.133-0.387 0.2-0.6 0.2z"></path>
<path d="M22.401 21.8c-0.213 0-0.413-0.067-0.6-0.2-0.44-0.333-0.533-0.96-0.2-1.4 0.92-1.213 1.4-2.667 1.4-4.2s-0.48-2.987-1.4-4.2c-0.333-0.44-0.24-1.067 0.2-1.4s1.067-0.24 1.4 0.2c1.173 1.573 1.8 3.44 1.8 5.4s-0.627 3.84-1.8 5.4c-0.2 0.267-0.493 0.4-0.8 0.4z"></path>
<path d="M9.6 21.8c-0.307 0-0.6-0.133-0.8-0.4-1.173-1.573-1.8-3.44-1.8-5.4s0.627-3.84 1.8-5.4c0.333-0.44 0.96-0.533 1.4-0.2s0.533 0.96 0.2 1.4c-0.92 1.213-1.4 2.667-1.4 4.2s0.48 2.987 1.4 4.2c0.333 0.44 0.24 1.067-0.2 1.4-0.173 0.133-0.387 0.2-0.6 0.2z"></path>
</svg>
