<!-- Generated by IcoMoon.io -->
<svg version="1.1" xmlns="http://www.w3.org/2000/svg" width="32" height="32" viewBox="0 0 32 32">
<title>radar-2</title>
<path d="M16 30.334c-7.907 0-14.333-6.427-14.333-14.333 0-2.507 0.653-4.973 1.907-7.147 0.28-0.48 0.88-0.64 1.36-0.373l11.56 6.64c0.48 0.28 0.64 0.88 0.373 1.36-0.28 0.48-0.88 0.64-1.36 0.373l-10.667-6.12c-0.773 1.64-1.173 3.427-1.173 5.253 0 6.8 5.533 12.333 12.333 12.333s12.333-5.533 12.333-12.333c0-6.8-5.533-12.333-12.333-12.333-2.693 0-5.253 0.853-7.4 2.467-0.44 0.333-1.067 0.24-1.4-0.2s-0.24-1.067 0.2-1.4c2.493-1.867 5.467-2.867 8.6-2.867 7.907 0 14.333 6.427 14.333 14.333s-6.427 14.347-14.333 14.347z"></path>
<path d="M16 25c-4.96 0-9-4.040-9-9 0-1.6 0.427-3.187 1.24-4.56 0.28-0.48 0.893-0.64 1.373-0.36s0.64 0.893 0.36 1.373c-0.627 1.067-0.96 2.293-0.96 3.547 0 3.867 3.147 7 7 7s7-3.133 7-7c0-3.867-3.147-7-7-7-1.040 0-2.040 0.227-2.987 0.667-0.507 0.227-1.093 0.013-1.333-0.48-0.24-0.507-0.027-1.093 0.48-1.333 1.2-0.56 2.493-0.853 3.827-0.853 4.96 0 9 4.040 9 9s-4.040 9-9 9z"></path>
</svg>
