<!-- Generated by IcoMoon.io -->
<svg version="1.1" xmlns="http://www.w3.org/2000/svg" width="32" height="32" viewBox="0 0 32 32">
<title>radio</title>
<path d="M22.667 30.333h-13.333c-4.587 0-7.667-3.080-7.667-7.667v-9.333c0-4.587 3.080-7.667 7.667-7.667h13.333c4.587 0 7.667 3.080 7.667 7.667v9.333c0 4.587-3.080 7.667-7.667 7.667zM9.333 7.667c-3.44 0-5.667 2.227-5.667 5.667v9.333c0 3.44 2.227 5.667 5.667 5.667h13.333c3.44 0 5.667-2.227 5.667-5.667v-9.333c0-3.44-2.227-5.667-5.667-5.667h-13.333z"></path>
<path d="M9.333 7.667c-0.547 0-1-0.453-1-1v-4c0-0.547 0.453-1 1-1s1 0.453 1 1v4c0 0.547-0.453 1-1 1z"></path>
<path d="M11.333 22.333c-2.387 0-4.333-1.947-4.333-4.333s1.947-4.333 4.333-4.333c2.387 0 4.333 1.947 4.333 4.333s-1.947 4.333-4.333 4.333zM11.333 15.667c-1.28 0-2.333 1.053-2.333 2.333s1.053 2.333 2.333 2.333c1.28 0 2.333-1.053 2.333-2.333s-1.053-2.333-2.333-2.333z"></path>
<path d="M24.667 15.667h-5.333c-0.547 0-1-0.453-1-1s0.453-1 1-1h5.333c0.547 0 1 0.453 1 1s-0.453 1-1 1z"></path>
<path d="M20 21h-0.667c-0.547 0-1-0.453-1-1s0.453-1 1-1h0.667c0.547 0 1 0.453 1 1s-0.453 1-1 1z"></path>
<path d="M24.667 21h-0.667c-0.547 0-1-0.453-1-1s0.453-1 1-1h0.667c0.547 0 1 0.453 1 1s-0.453 1-1 1z"></path>
</svg>
