<!-- Generated by IcoMoon.io -->
<svg version="1.1" xmlns="http://www.w3.org/2000/svg" width="32" height="32" viewBox="0 0 32 32">
<title>ram-2</title>
<path d="M20.667 30.333h-9.333c-4.947 0-7.667-2.72-7.667-7.667v-13.333c0-4.947 2.72-7.667 7.667-7.667h9.333c4.867 0 7.667 2.8 7.667 7.667v1.333c0 1.28-1.053 2.333-2.333 2.333-0.187 0-0.333 0.147-0.333 0.333v2.893c0 0.44 0.173 0.867 0.493 1.173l1.107 1.107c0.693 0.693 1.080 1.613 1.080 2.587v1.573c-0.013 4.867-2.813 7.667-7.68 7.667zM11.333 3.667c-3.813 0-5.667 1.853-5.667 5.667v13.333c0 3.813 1.853 5.667 5.667 5.667h9.333c3.76 0 5.667-1.907 5.667-5.667v-1.56c0-0.44-0.173-0.867-0.493-1.173l-1.107-1.107c-0.693-0.693-1.080-1.613-1.080-2.587v-2.907c0-1.28 1.053-2.333 2.333-2.333 0.187 0 0.333-0.147 0.333-0.333v-1.333c0-3.76-1.907-5.667-5.667-5.667h-9.32z"></path>
<path d="M21.347 30.293c-0.547 0-1-0.44-1-0.987l-0.040-3.987c0-0.92-0.76-1.653-1.667-1.653h-5.333c-0.44 0-0.867 0.173-1.187 0.493-0.307 0.307-0.48 0.733-0.48 1.173l0.013 3.96c0 0.547-0.44 1-1 1-0.547 0-1-0.44-1-1l-0.013-3.96c0-0.987 0.373-1.907 1.067-2.6s1.613-1.080 2.6-1.080h5.347c2.013 0 3.653 1.64 3.667 3.64l0.040 3.973c0 0.573-0.453 1.027-1.013 1.027 0.013 0 0 0 0 0z"></path>
<path d="M11.92 7.6h-0.013c-0.56-0.013-1-0.467-0.987-1.027l0.067-3.853c0.013-0.547 0.453-0.987 1-0.987h0.013c0.547 0.013 0.987 0.467 0.987 1.013l-0.067 3.867c-0.013 0.547-0.453 0.987-1 0.987z"></path>
<path d="M15.921 7.6h-0.013c-0.547-0.013-0.987-0.467-0.987-1.013l0.067-3.853c0.013-0.547 0.453-0.987 1-0.987h0.013c0.547 0.013 0.987 0.467 0.987 1.013l-0.067 3.853c-0.013 0.547-0.453 0.987-1 0.987z"></path>
<path d="M19.921 7.56h-0.013c-0.547-0.013-0.987-0.467-0.987-1.013l0.067-3.853c0.013-0.547 0.453-0.987 1-0.987h0.013c0.547 0.013 0.987 0.467 0.987 1.013l-0.067 3.853c-0.013 0.547-0.453 0.987-1 0.987z"></path>
</svg>
