<!-- Generated by IcoMoon.io -->
<svg version="1.1" xmlns="http://www.w3.org/2000/svg" width="32" height="32" viewBox="0 0 32 32">
<title>ranking</title>
<path d="M21.654 30.227c-0.573 0-1.293-0.173-2.187-0.707l-2.987-1.773c-0.227-0.133-0.733-0.133-0.96 0l-2.987 1.773c-1.893 1.12-3.040 0.653-3.547 0.28s-1.307-1.333-0.813-3.467l0.707-3.080c0.053-0.24-0.080-0.693-0.253-0.88l-2.48-2.48c-1.333-1.333-1.227-2.493-1.040-3.080s0.773-1.587 2.627-1.907l3.187-0.533c0.227-0.040 0.587-0.307 0.68-0.507l1.76-3.52c0.867-1.72 2.013-1.987 2.627-1.987s1.76 0.253 2.627 1.987l1.76 3.52c0.107 0.2 0.467 0.467 0.68 0.507l3.187 0.533c1.853 0.307 2.44 1.32 2.627 1.907s0.293 1.747-1.040 3.080l-2.48 2.48c-0.173 0.173-0.307 0.64-0.253 0.88l0.707 3.067c0.493 2.147-0.293 3.093-0.813 3.467-0.24 0.213-0.693 0.44-1.333 0.44zM16.001 25.653c0.533 0 1.067 0.12 1.493 0.373l2.987 1.773c0.787 0.467 1.253 0.467 1.347 0.387 0.107-0.080 0.24-0.52 0.040-1.4l-0.707-3.067c-0.213-0.907 0.133-2.080 0.787-2.733l2.48-2.48c0.493-0.493 0.6-0.88 0.547-1.053s-0.36-0.427-1.053-0.533l-3.187-0.533c-0.853-0.147-1.76-0.813-2.147-1.587l-1.76-3.52c-0.307-0.6-0.64-0.88-0.84-0.88s-0.533 0.267-0.84 0.88l-1.76 3.52c-0.387 0.773-1.293 1.44-2.147 1.587l-3.187 0.533c-0.693 0.12-1 0.36-1.053 0.533s0.053 0.56 0.547 1.053l2.48 2.48c0.653 0.653 1 1.84 0.787 2.733l-0.707 3.080c-0.2 0.893-0.067 1.333 0.040 1.4 0.107 0.080 0.573 0.080 1.347-0.387l2.987-1.773c0.453-0.253 0.987-0.387 1.52-0.387z"></path>
<path d="M8 13c-0.547 0-1-0.453-1-1v-9.333c0-0.547 0.453-1 1-1s1 0.453 1 1v9.333c0 0.547-0.453 1-1 1z"></path>
<path d="M24 13c-0.547 0-1-0.453-1-1v-9.333c0-0.547 0.453-1 1-1s1 0.453 1 1v9.333c0 0.547-0.453 1-1 1z"></path>
<path d="M16 6.333c-0.547 0-1-0.453-1-1v-2.667c0-0.547 0.453-1 1-1s1 0.453 1 1v2.667c0 0.547-0.453 1-1 1z"></path>
</svg>
