<!-- Generated by IcoMoon.io -->
<svg version="1.1" xmlns="http://www.w3.org/2000/svg" width="32" height="32" viewBox="0 0 32 32">
<title>ranking-1</title>
<path d="M11.56 30.333h-8.893c-0.547 0-1-0.453-1-1v-8c0-2.027 1.64-3.667 3.667-3.667h6.227c0.547 0 1 0.453 1 1v10.667c0 0.547-0.453 1-1 1zM3.667 28.333h6.893v-8.667h-5.227c-0.92 0-1.667 0.747-1.667 1.667v7z"></path>
<path d="M20.44 30.333h-8.893c-0.547 0-1-0.453-1-1v-13.333c0-2.027 1.64-3.667 3.667-3.667h3.56c2.027 0 3.667 1.64 3.667 3.667v13.333c0 0.547-0.44 1-1 1zM12.56 28.333h6.893v-12.333c0-0.92-0.747-1.667-1.667-1.667h-3.56c-0.92 0-1.667 0.747-1.667 1.667v12.333z"></path>
<path d="M29.333 30.333h-8.893c-0.547 0-1-0.453-1-1v-6.667c0-0.547 0.453-1 1-1h6.227c2.027 0 3.667 1.64 3.667 3.667v4c0 0.547-0.453 1-1 1zM21.44 28.333h6.893v-3c0-0.92-0.747-1.667-1.667-1.667h-5.227v4.667z"></path>
<path d="M18.265 11.133c-0.32 0-0.72-0.093-1.173-0.36l-1.093-0.653-1.080 0.64c-1.093 0.653-1.813 0.267-2.080 0.080s-0.84-0.773-0.56-2l0.253-1.107-0.907-0.907c-0.56-0.56-0.76-1.227-0.56-1.84s0.747-1.040 1.52-1.173l1.16-0.2 0.653-1.307c0.72-1.427 2.467-1.427 3.173 0l0.653 1.307 1.16 0.2c0.773 0.133 1.333 0.56 1.52 1.173 0.2 0.613-0.013 1.28-0.56 1.84l-0.907 0.907 0.253 1.107c0.28 1.24-0.293 1.813-0.56 2.013-0.12 0.107-0.427 0.28-0.867 0.28zM15.999 8.107c0.32 0 0.64 0.080 0.907 0.24l0.747 0.44-0.16-0.72c-0.133-0.56 0.067-1.24 0.48-1.653l0.68-0.68-0.84-0.147c-0.533-0.093-1.053-0.48-1.293-0.96l-0.52-1-0.507 1c-0.24 0.48-0.76 0.867-1.293 0.96l-0.84 0.133 0.68 0.68c0.413 0.413 0.6 1.093 0.48 1.653l-0.16 0.72 0.747-0.44c0.253-0.16 0.573-0.227 0.893-0.227z"></path>
</svg>
