<!-- Generated by IcoMoon.io -->
<svg version="1.1" xmlns="http://www.w3.org/2000/svg" width="32" height="32" viewBox="0 0 32 32">
<title>receipt-disscount</title>
<path d="M16 30.333c-1.053 0-2.053-0.533-2.747-1.48l-1.347-1.8c-0.28-0.373-0.653-0.587-1.053-0.613s-0.8 0.16-1.12 0.493l-0.76-0.667 0.733 0.68c-1.933 2.053-3.4 1.893-4.107 1.613-0.72-0.28-1.933-1.2-1.933-4.16v-15.013c0-5.92 1.707-7.72 7.293-7.72h10.067c5.587 0 7.293 1.8 7.293 7.72v15.013c0 2.947-1.213 3.867-1.933 4.16-0.707 0.28-2.173 0.44-4.107-1.613-0.32-0.347-0.733-0.52-1.133-0.493s-0.787 0.24-1.067 0.613l-1.347 1.8c-0.68 0.933-1.68 1.467-2.733 1.467zM10.773 24.44c0.053 0 0.12 0 0.173 0 0.987 0.053 1.92 0.573 2.547 1.413l1.36 1.8c0.653 0.867 1.653 0.867 2.307 0l1.347-1.8c0.627-0.84 1.56-1.36 2.56-1.413s1.973 0.36 2.693 1.133c1.013 1.080 1.667 1.213 1.907 1.12 0.32-0.133 0.667-0.907 0.667-2.293v-15.013c0-4.813-0.84-5.72-5.293-5.72h-10.080c-4.453 0-5.293 0.907-5.293 5.72v15.013c0 1.4 0.347 2.173 0.667 2.293 0.24 0.093 0.893-0.040 1.907-1.12 0.693-0.733 1.6-1.133 2.533-1.133z"></path>
<path d="M20 18.667c-0.747 0-1.333-0.6-1.333-1.333s0.6-1.333 1.333-1.333c0.733 0 1.333 0.6 1.333 1.333s-0.587 1.333-1.333 1.333z"></path>
<path d="M12 12c-0.747 0-1.333-0.6-1.333-1.333s0.6-1.333 1.333-1.333c0.733 0 1.333 0.6 1.333 1.333s-0.587 1.333-1.333 1.333z"></path>
<path d="M11.507 19.4c-0.253 0-0.507-0.093-0.707-0.293-0.387-0.387-0.387-1.027 0-1.413l8.973-8.973c0.387-0.387 1.027-0.387 1.413 0s0.387 1.027 0 1.413l-8.973 8.973c-0.187 0.2-0.44 0.293-0.707 0.293z"></path>
</svg>
