<!-- Generated by IcoMoon.io -->
<svg version="1.1" xmlns="http://www.w3.org/2000/svg" width="32" height="32" viewBox="0 0 32 32">
<title>receipt-search</title>
<path d="M14.053 29.253c-0.307 0-0.6-0.133-0.8-0.4l-1.347-1.8c-0.28-0.373-0.653-0.587-1.053-0.613s-0.8 0.16-1.12 0.493c-1.933 2.067-3.4 1.893-4.107 1.627-0.72-0.28-1.933-1.2-1.933-4.16v-15.013c0-5.92 1.707-7.72 7.293-7.72h10.067c5.587 0 7.293 1.8 7.293 7.72v5.68c0 0.547-0.453 1-1 1s-1-0.453-1-1v-5.68c0-4.813-0.84-5.72-5.293-5.72h-10.067c-4.453 0-5.293 0.907-5.293 5.72v15.013c0 1.4 0.347 2.173 0.667 2.293 0.24 0.093 0.893-0.040 1.907-1.12 0.733-0.773 1.693-1.187 2.693-1.133 0.987 0.053 1.92 0.573 2.547 1.413l1.36 1.8c0.333 0.44 0.24 1.067-0.2 1.4-0.2 0.147-0.413 0.2-0.613 0.2z"></path>
<path d="M24.267 29.533c-2.907 0-5.267-2.36-5.267-5.267s2.36-5.267 5.267-5.267c2.907 0 5.267 2.36 5.267 5.267s-2.36 5.267-5.267 5.267zM24.267 21c-1.8 0-3.267 1.467-3.267 3.267s1.467 3.267 3.267 3.267c1.8 0 3.267-1.467 3.267-3.267s-1.467-3.267-3.267-3.267z"></path>
<path d="M29.333 30.333c-0.253 0-0.507-0.093-0.707-0.293l-1.333-1.333c-0.387-0.387-0.387-1.027 0-1.413s1.027-0.387 1.413 0l1.333 1.333c0.387 0.387 0.387 1.027 0 1.413-0.2 0.2-0.453 0.293-0.707 0.293z"></path>
<path d="M21.333 10.333h-10.667c-0.547 0-1-0.453-1-1s0.453-1 1-1h10.667c0.547 0 1 0.453 1 1s-0.453 1-1 1z"></path>
<path d="M20 15.667h-8c-0.547 0-1-0.453-1-1s0.453-1 1-1h8c0.547 0 1 0.453 1 1s-0.453 1-1 1z"></path>
</svg>
