<!-- Generated by IcoMoon.io -->
<svg version="1.1" xmlns="http://www.w3.org/2000/svg" width="32" height="32" viewBox="0 0 32 32">
<title>receipt-2</title>
<path d="M15.334 30.333c-1.053 0-2.053-0.547-2.747-1.48l-1.36-1.787c-0.28-0.373-0.653-0.587-1.053-0.613-0.387-0.027-0.8 0.16-1.133 0.493-1.147 1.227-2.267 1.813-3.32 1.787-0.72-0.027-1.347-0.347-1.827-0.933-0.053-0.067-0.107-0.16-0.147-0.253-0.52-1.12-0.76-2.64-0.76-4.92v-13.227c0-2.28 0.24-3.787 0.76-4.92 0.040-0.080 0.080-0.16 0.147-0.227 0.467-0.6 1.093-0.92 1.813-0.96 1.067-0.040 2.2 0.573 3.32 1.773 0.333 0.36 0.733 0.533 1.133 0.507s0.773-0.24 1.053-0.613l1.36-1.8c0.693-0.933 1.693-1.48 2.747-1.48s2.053 0.547 2.747 1.48l1.347 1.787c0.28 0.387 0.667 0.6 1.080 0.627 0.387 0.027 0.8-0.16 1.133-0.507 1.093-1.173 2.173-1.773 3.213-1.773 0.747 0 1.44 0.333 1.92 0.96 0.053 0.067 0.107 0.147 0.147 0.24 0.52 1.12 0.76 2.64 0.76 4.92v13.227c0 2.28-0.24 3.787-0.76 4.92-0.053 0.12-0.12 0.227-0.213 0.32-0.413 0.533-1.093 0.867-1.853 0.867-1.040 0-2.12-0.6-3.213-1.773-0.32-0.347-0.76-0.533-1.133-0.507-0.413 0.027-0.787 0.24-1.080 0.627l-1.347 1.787c-0.68 0.907-1.68 1.453-2.733 1.453zM10.107 24.44c0.053 0 0.12 0 0.173 0 0.987 0.053 1.907 0.573 2.533 1.413l1.36 1.8c0.653 0.88 1.64 0.88 2.293 0.013l1.347-1.787c0.64-0.853 1.573-1.36 2.56-1.413s1.973 0.36 2.693 1.133c0.987 1.053 1.587 1.133 1.747 1.133 0.107 0 0.2-0.027 0.293-0.107 0.373-0.84 0.533-2.107 0.533-4v-13.227c0-1.867-0.173-3.133-0.533-3.973-0.107-0.12-0.213-0.133-0.293-0.133-0.16 0-0.76 0.080-1.747 1.133-0.72 0.773-1.707 1.187-2.693 1.133-1-0.053-1.933-0.573-2.573-1.413l-1.347-1.787c-0.653-0.88-1.64-0.88-2.293 0l-1.36 1.813c-0.627 0.84-1.547 1.347-2.533 1.4s-1.973-0.36-2.693-1.12c-0.813-0.88-1.44-1.173-1.787-1.16-0.080 0-0.173 0.027-0.28 0.133-0.36 0.84-0.533 2.107-0.533 3.973v13.227c0 1.88 0.173 3.147 0.533 3.987 0.12 0.107 0.2 0.12 0.28 0.133 0.333 0.013 0.96-0.28 1.773-1.147 0.707-0.76 1.627-1.16 2.547-1.16z"></path>
<path d="M21.333 14.667h-10.667c-0.547 0-1-0.453-1-1s0.453-1 1-1h10.667c0.547 0 1 0.453 1 1s-0.453 1-1 1z"></path>
<path d="M18.667 19.333h-8c-0.547 0-1-0.453-1-1s0.453-1 1-1h8c0.547 0 1 0.453 1 1s-0.453 1-1 1z"></path>
</svg>
