<!-- Generated by IcoMoon.io -->
<svg version="1.1" xmlns="http://www.w3.org/2000/svg" width="32" height="32" viewBox="0 0 32 32">
<title>receipt-edit</title>
<path d="M14.053 29.253c-0.307 0-0.6-0.133-0.8-0.4l-1.347-1.8c-0.28-0.373-0.653-0.587-1.053-0.613-0.413-0.027-0.8 0.16-1.12 0.493-1.933 2.067-3.4 1.893-4.107 1.627-0.72-0.28-1.933-1.2-1.933-4.16v-15.013c0-5.92 1.707-7.72 7.293-7.72h10.067c5.587 0 7.293 1.8 7.293 7.72v5.68c0 0.547-0.453 1-1 1s-1-0.453-1-1v-5.68c0-4.813-0.84-5.72-5.293-5.72h-10.067c-4.453 0-5.293 0.907-5.293 5.72v15.013c0 1.4 0.347 2.173 0.667 2.293 0.24 0.093 0.893-0.040 1.907-1.12 0.733-0.773 1.693-1.187 2.693-1.133 0.987 0.053 1.92 0.573 2.547 1.413l1.36 1.8c0.333 0.44 0.24 1.067-0.2 1.4-0.2 0.147-0.413 0.2-0.613 0.2z"></path>
<path d="M21.333 10.333h-10.667c-0.547 0-1-0.453-1-1s0.453-1 1-1h10.667c0.547 0 1 0.453 1 1s-0.453 1-1 1z"></path>
<path d="M20 15.667h-8c-0.547 0-1-0.453-1-1s0.453-1 1-1h8c0.547 0 1 0.453 1 1s-0.453 1-1 1z"></path>
<path d="M19.759 29.040c-0.507 0-0.987-0.187-1.333-0.533-0.413-0.413-0.6-1.013-0.507-1.64l0.253-1.8c0.067-0.467 0.347-1.027 0.68-1.36l4.72-4.72c0.64-0.64 1.267-0.973 1.947-1.040 0.827-0.080 1.653 0.267 2.427 1.040s1.12 1.587 1.040 2.427c-0.067 0.667-0.413 1.307-1.040 1.947l-4.72 4.72c-0.333 0.333-0.893 0.613-1.36 0.68l-1.8 0.253c-0.107 0.013-0.2 0.027-0.307 0.027zM25.746 19.933c-0.013 0-0.027 0-0.040 0-0.187 0.013-0.44 0.187-0.72 0.467l-4.72 4.72c-0.040 0.040-0.107 0.173-0.107 0.227l-0.24 1.667 1.667-0.24c0.053-0.013 0.187-0.080 0.227-0.12l4.72-4.72c0.28-0.293 0.453-0.533 0.467-0.72 0.027-0.267-0.24-0.587-0.467-0.813-0.213-0.213-0.52-0.467-0.787-0.467z"></path>
<path d="M26.561 24.333c-0.093 0-0.187-0.013-0.267-0.040-1.76-0.493-3.16-1.893-3.653-3.653-0.147-0.533 0.16-1.080 0.693-1.24 0.533-0.147 1.080 0.16 1.227 0.693 0.307 1.093 1.173 1.96 2.267 2.267 0.533 0.147 0.84 0.707 0.693 1.24-0.12 0.44-0.52 0.733-0.96 0.733z"></path>
</svg>
