<!-- Generated by IcoMoon.io -->
<svg version="1.1" xmlns="http://www.w3.org/2000/svg" width="32" height="32" viewBox="0 0 32 32">
<title>receipt-square</title>
<path d="M20 30.333h-8c-7.24 0-10.333-3.093-10.333-10.333v-8c0-7.24 3.093-10.333 10.333-10.333h8c7.24 0 10.333 3.093 10.333 10.333v8c0 7.24-3.093 10.333-10.333 10.333zM12 3.667c-6.147 0-8.333 2.187-8.333 8.333v8c0 6.147 2.187 8.333 8.333 8.333h8c6.147 0 8.333-2.187 8.333-8.333v-8c0-6.147-2.187-8.333-8.333-8.333h-8z"></path>
<path d="M16 24.84c-0.747 0-1.453-0.373-1.947-1.027l-0.8-1.067c-0.093-0.12-0.2-0.187-0.32-0.2-0.12 0-0.227 0.053-0.333 0.16v0c-1.293 1.387-2.347 1.253-2.867 1.053-0.52-0.213-1.4-0.853-1.4-2.827v-8.84c0-3.707 1.187-4.947 4.707-4.947h5.933c3.52 0 4.707 1.253 4.707 4.947v8.84c0 1.973-0.88 2.627-1.4 2.827-0.507 0.2-1.56 0.333-2.867-1.053-0.107-0.107-0.227-0.16-0.347-0.16s-0.227 0.080-0.32 0.2l-0.787 1.053c-0.507 0.667-1.213 1.040-1.96 1.040zM12.92 20.547c0.040 0 0.080 0 0.12 0 0.707 0.040 1.36 0.4 1.8 1l0.8 1.067c0.227 0.293 0.48 0.293 0.693 0l0.787-1.053c0.44-0.6 1.107-0.96 1.813-1 0.693-0.053 1.4 0.253 1.907 0.8 0.373 0.4 0.613 0.507 0.707 0.533-0.013-0.067 0.107-0.333 0.107-0.947v-8.84c0-2.733-0.413-2.947-2.707-2.947h-5.933c-2.293 0-2.707 0.213-2.707 2.947v8.84c0 0.613 0.12 0.88 0.16 0.96 0.040-0.053 0.28-0.16 0.64-0.56 0-0.013 0.013-0.013 0.027-0.027 0.493-0.48 1.133-0.773 1.787-0.773z"></path>
</svg>
