<!-- Generated by IcoMoon.io -->
<svg version="1.1" xmlns="http://www.w3.org/2000/svg" width="32" height="32" viewBox="0 0 32 32">
<title>received</title>
<path d="M6.666 24.333c-0.253 0-0.507-0.093-0.707-0.293-0.387-0.387-0.387-1.027 0-1.413l18.667-18.667c0.387-0.387 1.027-0.387 1.413 0s0.387 1.027 0 1.413l-18.667 18.667c-0.2 0.2-0.453 0.293-0.707 0.293z"></path>
<path d="M20.36 24.333h-13.693c-0.547 0-1-0.453-1-1v-13.693c0-0.547 0.453-1 1-1s1 0.453 1 1v12.693h12.693c0.547 0 1 0.453 1 1s-0.453 1-1 1z"></path>
<path d="M27.333 30.333h-22.667c-0.547 0-1-0.453-1-1s0.453-1 1-1h22.667c0.547 0 1 0.453 1 1s-0.453 1-1 1z"></path>
</svg>
