<!-- Generated by IcoMoon.io -->
<svg version="1.1" xmlns="http://www.w3.org/2000/svg" width="32" height="32" viewBox="0 0 32 32">
<title>receipt-item</title>
<path d="M25.893 15.667h-4.56c-0.547 0-1-0.453-1-1v-9.32c0-0.987 0.387-1.907 1.080-2.6s1.613-1.080 2.6-1.080h0.013c1.667 0.013 3.24 0.667 4.44 1.853 1.2 1.213 1.853 2.813 1.853 4.48v3.227c0.013 2.653-1.773 4.44-4.427 4.44zM22.333 13.667h3.56c1.547 0 2.44-0.893 2.44-2.44v-3.227c0-1.147-0.453-2.24-1.267-3.067-0.813-0.8-1.907-1.253-3.040-1.267 0 0 0 0-0.013 0-0.44 0-0.867 0.173-1.187 0.493s-0.493 0.733-0.493 1.187v8.32z"></path>
<path d="M12 31.107c-0.627 0-1.213-0.24-1.653-0.693l-2.213-2.227c-0.12-0.12-0.307-0.133-0.44-0.027l-2.293 1.707c-0.707 0.533-1.64 0.627-2.44 0.227s-1.293-1.2-1.293-2.093v-20c0-4.027 2.307-6.333 6.333-6.333h16c0.547 0 1 0.453 1 1s-0.453 1-1 1c-0.92 0-1.667 0.747-1.667 1.667v22.667c0 0.893-0.493 1.693-1.293 2.093s-1.733 0.32-2.44-0.213l-2.28-1.707c-0.133-0.107-0.32-0.080-0.427 0.027l-2.24 2.24c-0.44 0.427-1.027 0.667-1.653 0.667zM7.88 26.093c0.613 0 1.213 0.227 1.667 0.693l2.213 2.227c0.080 0.080 0.187 0.093 0.24 0.093s0.16-0.013 0.24-0.093l2.24-2.24c0.827-0.827 2.133-0.907 3.053-0.2l2.267 1.693c0.147 0.107 0.28 0.067 0.347 0.027s0.187-0.12 0.187-0.293v-22.667c0-0.6 0.147-1.173 0.4-1.667h-12.733c-2.96 0-4.333 1.373-4.333 4.333v20c0 0.187 0.12 0.267 0.187 0.307 0.080 0.040 0.213 0.067 0.347-0.040l2.28-1.707c0.413-0.307 0.907-0.467 1.4-0.467z"></path>
<path d="M16 18.346h-4c-0.547 0-1-0.453-1-1s0.453-1 1-1h4c0.547 0 1 0.453 1 1s-0.453 1-1 1z"></path>
<path d="M16 13.013h-4c-0.547 0-1-0.453-1-1s0.453-1 1-1h4c0.547 0 1 0.453 1 1s-0.453 1-1 1z"></path>
<path d="M7.961 13.346c-0.733 0-1.333-0.6-1.333-1.333s0.6-1.333 1.333-1.333c0.733 0 1.333 0.6 1.333 1.333s-0.6 1.333-1.333 1.333z"></path>
<path d="M7.961 18.68c-0.733 0-1.333-0.6-1.333-1.333s0.6-1.333 1.333-1.333c0.733 0 1.333 0.6 1.333 1.333s-0.6 1.333-1.333 1.333z"></path>
</svg>
