<!-- Generated by IcoMoon.io -->
<svg version="1.1" xmlns="http://www.w3.org/2000/svg" width="32" height="32" viewBox="0 0 32 32">
<title>receive-square-2</title>
<path d="M20 30.333h-8c-7.24 0-10.333-3.093-10.333-10.333v-8c0-7.24 3.093-10.333 10.333-10.333h8c7.24 0 10.333 3.093 10.333 10.333v8c0 7.24-3.093 10.333-10.333 10.333zM12 3.667c-6.147 0-8.333 2.187-8.333 8.333v8c0 6.147 2.187 8.333 8.333 8.333h8c6.147 0 8.333-2.187 8.333-8.333v-8c0-6.147-2.187-8.333-8.333-8.333h-8z"></path>
<path d="M19.773 18.787h-5.653c-0.547 0-1-0.453-1-1s0.453-1 1-1h4.653v-4.653c0-0.547 0.453-1 1-1s1 0.453 1 1v5.653c0 0.56-0.453 1-1 1z"></path>
<path d="M19.773 18.787c-0.253 0-0.507-0.093-0.707-0.293l-7.547-7.547c-0.387-0.387-0.387-1.027 0-1.413s1.027-0.387 1.413 0l7.547 7.547c0.387 0.387 0.387 1.027 0 1.413-0.2 0.2-0.453 0.293-0.707 0.293z"></path>
<path d="M16.001 24.307c-2.813 0-5.64-0.453-8.32-1.347-0.52-0.173-0.8-0.747-0.627-1.267s0.747-0.813 1.267-0.627c4.96 1.653 10.413 1.653 15.373 0 0.52-0.173 1.093 0.107 1.267 0.627s-0.107 1.093-0.627 1.267c-2.693 0.907-5.52 1.347-8.333 1.347z"></path>
</svg>
