<!-- Generated by IcoMoon.io -->
<svg version="1.1" xmlns="http://www.w3.org/2000/svg" width="32" height="32" viewBox="0 0 32 32">
<title>record-circle</title>
<path d="M15.961 30.333c-7.893 0-14.333-6.427-14.333-14.333s6.44-14.333 14.333-14.333c7.893 0 14.333 6.427 14.333 14.333s-6.427 14.333-14.333 14.333zM15.961 3.667c-6.8 0-12.333 5.533-12.333 12.333s5.533 12.333 12.333 12.333c6.8 0 12.333-5.533 12.333-12.333s-5.533-12.333-12.333-12.333z"></path>
<path d="M15.999 22.64c-3.667 0-6.64-2.973-6.64-6.64s2.973-6.64 6.64-6.64c3.667 0 6.64 2.973 6.64 6.64s-2.973 6.64-6.64 6.64zM15.999 11.36c-2.56 0-4.64 2.080-4.64 4.64s2.080 4.64 4.64 4.64c2.56 0 4.64-2.080 4.64-4.64s-2.080-4.64-4.64-4.64z"></path>
</svg>
