<!-- Generated by IcoMoon.io -->
<svg version="1.1" xmlns="http://www.w3.org/2000/svg" width="32" height="32" viewBox="0 0 32 32">
<title>recovery-convert</title>
<path d="M15.227 25.667h-3.64c-3.587 0-5.253-1.667-5.253-5.253v-3.64c0-3.573 1.667-5.24 5.253-5.24h3.64c3.573 0 5.253 1.667 5.253 5.253v3.64c-0.013 3.573-1.68 5.24-5.253 5.24zM11.587 13.533c-2.493 0-3.253 0.76-3.253 3.253v3.64c0 2.493 0.76 3.253 3.253 3.253h3.64c2.493 0 3.253-0.76 3.253-3.253v-3.64c0-2.493-0.76-3.253-3.253-3.253h-3.64z"></path>
<path d="M20.414 20.467h-0.947c-0.547 0-1-0.453-1-1v-2.693c0-2.493-0.76-3.253-3.253-3.253h-2.68c-0.547 0-1-0.453-1-1v-0.933c0-3.573 1.667-5.253 5.253-5.253h3.64c3.573 0 5.253 1.667 5.253 5.253v3.64c-0.013 3.573-1.68 5.24-5.267 5.24zM13.534 11.533h1.693c3.573 0 5.253 1.667 5.253 5.253v1.693c2.453-0.013 3.2-0.773 3.2-3.253v-3.64c0-2.493-0.76-3.253-3.253-3.253h-3.64c-2.48 0-3.24 0.747-3.253 3.2z"></path>
<path d="M20 30.334c-0.36 0-0.693-0.2-0.867-0.507-0.173-0.32-0.173-0.693 0.013-1.013l1.4-2.333c0.28-0.48 0.893-0.627 1.373-0.347s0.627 0.893 0.347 1.373l-0.36 0.6c3.68-0.867 6.44-4.173 6.44-8.12 0-0.547 0.453-1 1-1s1 0.453 1 1c-0.013 5.707-4.653 10.347-10.347 10.347z"></path>
<path d="M2.667 13c-0.547 0-1-0.453-1-1 0-5.693 4.64-10.333 10.333-10.333 0.36 0 0.693 0.2 0.867 0.507 0.173 0.32 0.173 0.693-0.013 1.013l-1.4 2.333c-0.28 0.467-0.893 0.627-1.373 0.333-0.467-0.28-0.627-0.893-0.333-1.373l0.36-0.6c-3.693 0.867-6.44 4.173-6.44 8.12 0 0.547-0.453 1-1 1z"></path>
</svg>
