<!-- Generated by IcoMoon.io -->
<svg version="1.1" xmlns="http://www.w3.org/2000/svg" width="32" height="32" viewBox="0 0 32 32">
<title>redo</title>
<path d="M22.492 25.413h-10.667c-4.227 0-7.667-3.44-7.667-7.667s3.44-7.667 7.667-7.667h14.667c0.547 0 1 0.453 1 1s-0.453 1-1 1h-14.667c-3.12 0-5.667 2.547-5.667 5.667s2.547 5.667 5.667 5.667h10.667c0.547 0 1 0.453 1 1s-0.44 1-1 1z"></path>
<path d="M23.426 15.413c-0.253 0-0.507-0.093-0.707-0.293-0.387-0.387-0.387-1.027 0-1.413l2.707-2.707-2.707-2.707c-0.387-0.387-0.387-1.027 0-1.413s1.027-0.387 1.413 0l3.413 3.413c0.387 0.387 0.387 1.027 0 1.413l-3.413 3.413c-0.2 0.2-0.453 0.293-0.707 0.293z"></path>
</svg>
