<!-- Generated by IcoMoon.io -->
<svg version="1.1" xmlns="http://www.w3.org/2000/svg" width="32" height="32" viewBox="0 0 32 32">
<title>refresh-square-2</title>
<path d="M20 30.333h-8c-7.24 0-10.333-3.093-10.333-10.333v-8c0-7.24 3.093-10.333 10.333-10.333h8c7.24 0 10.333 3.093 10.333 10.333v8c0 7.24-3.093 10.333-10.333 10.333zM12 3.667c-6.147 0-8.333 2.187-8.333 8.333v8c0 6.147 2.187 8.333 8.333 8.333h8c6.147 0 8.333-2.187 8.333-8.333v-8c0-6.147-2.187-8.333-8.333-8.333h-8z"></path>
<path fill="none" stroke-linejoin="round" stroke-linecap="round" stroke-miterlimit="4" stroke-width="2" stroke="#000" d="M23.333 16c0 4.053-3.28 7.333-7.333 7.333s-6.52-4.080-6.52-4.080M9.48 19.253h3.307M9.48 19.253v3.667M8.667 16c0-4.053 3.253-7.333 7.333-7.333 4.893 0 7.333 4.080 7.333 4.080M23.333 12.747v-3.667M23.333 12.747h-3.253"></path>
</svg>
