<!-- Generated by IcoMoon.io -->
<svg version="1.1" xmlns="http://www.w3.org/2000/svg" width="32" height="32" viewBox="0 0 32 32">
<title>refresh-left-square</title>
<path d="M16 24.013c-4.227 0-7.667-3.44-7.667-7.667 0-1.52 0.44-3 1.293-4.253 0.307-0.453 0.933-0.587 1.387-0.28s0.587 0.933 0.28 1.387c-0.627 0.933-0.947 2.027-0.947 3.147 0 3.12 2.547 5.667 5.667 5.667s5.667-2.547 5.667-5.667c0-3.12-2.547-5.667-5.667-5.667-0.667 0-1.307 0.093-1.933 0.28-0.52 0.16-1.080-0.133-1.253-0.667-0.16-0.533 0.133-1.093 0.667-1.253 0.813-0.253 1.653-0.373 2.52-0.373 4.227 0 7.667 3.44 7.667 7.667s-3.453 7.68-7.68 7.68z"></path>
<path d="M12.825 11.2c-0.227 0-0.467-0.080-0.653-0.24-0.413-0.36-0.453-1-0.093-1.413l2.227-2.547c0.36-0.413 1-0.467 1.413-0.093 0.413 0.36 0.453 1 0.093 1.413l-2.227 2.547c-0.213 0.213-0.48 0.333-0.76 0.333z"></path>
<path d="M15.413 13.093c-0.2 0-0.413-0.067-0.587-0.187l-2.587-1.893c-0.44-0.32-0.547-0.947-0.213-1.4 0.32-0.44 0.947-0.547 1.4-0.213l2.587 1.893c0.44 0.32 0.547 0.947 0.213 1.4-0.2 0.253-0.507 0.4-0.813 0.4z"></path>
<path d="M20 30.333h-8c-7.24 0-10.333-3.093-10.333-10.333v-8c0-7.24 3.093-10.333 10.333-10.333h8c7.24 0 10.333 3.093 10.333 10.333v8c0 7.24-3.093 10.333-10.333 10.333zM12 3.667c-6.147 0-8.333 2.187-8.333 8.333v8c0 6.147 2.187 8.333 8.333 8.333h8c6.147 0 8.333-2.187 8.333-8.333v-8c0-6.147-2.187-8.333-8.333-8.333h-8z"></path>
</svg>
