<!-- Generated by IcoMoon.io -->
<svg version="1.1" xmlns="http://www.w3.org/2000/svg" width="32" height="32" viewBox="0 0 32 32">
<title>refresh-right-square</title>
<path d="M20 30.333h-8c-7.24 0-10.333-3.093-10.333-10.333v-8c0-7.24 3.093-10.333 10.333-10.333h8c7.24 0 10.333 3.093 10.333 10.333v8c0 7.24-3.093 10.333-10.333 10.333zM12 3.667c-6.147 0-8.333 2.187-8.333 8.333v8c0 6.147 2.187 8.333 8.333 8.333h8c6.147 0 8.333-2.187 8.333-8.333v-8c0-6.147-2.187-8.333-8.333-8.333h-8z"></path>
<path d="M16 24.013c-4.227 0-7.667-3.44-7.667-7.667s3.44-7.667 7.667-7.667c0.853 0 1.707 0.12 2.52 0.373 0.533 0.16 0.827 0.72 0.667 1.253s-0.72 0.827-1.253 0.667c-0.613-0.187-1.267-0.28-1.933-0.28-3.12 0-5.667 2.547-5.667 5.667s2.547 5.667 5.667 5.667 5.667-2.547 5.667-5.667c0-1.133-0.333-2.213-0.947-3.147-0.307-0.453-0.187-1.080 0.28-1.387 0.453-0.307 1.080-0.187 1.387 0.28 0.84 1.267 1.293 2.733 1.293 4.253-0.013 4.227-3.453 7.653-7.68 7.653z"></path>
<path d="M19.175 11.2c-0.28 0-0.56-0.12-0.76-0.347l-2.227-2.547c-0.36-0.413-0.32-1.053 0.093-1.413s1.053-0.32 1.413 0.093l2.227 2.547c0.36 0.413 0.32 1.053-0.093 1.413-0.187 0.173-0.413 0.253-0.653 0.253z"></path>
<path d="M16.587 13.093c-0.307 0-0.613-0.147-0.813-0.413-0.32-0.44-0.227-1.067 0.213-1.4l2.587-1.893c0.44-0.32 1.067-0.227 1.4 0.213 0.32 0.44 0.227 1.067-0.213 1.4l-2.587 1.893c-0.173 0.133-0.387 0.2-0.587 0.2z"></path>
</svg>
