<!-- Generated by IcoMoon.io -->
<svg version="1.1" xmlns="http://www.w3.org/2000/svg" width="32" height="32" viewBox="0 0 32 32">
<title>refresh-circle</title>
<path d="M16 30.333c-7.907 0-14.333-6.427-14.333-14.333s6.427-14.333 14.333-14.333c7.907 0 14.333 6.427 14.333 14.333s-6.427 14.333-14.333 14.333zM16 3.667c-6.8 0-12.333 5.533-12.333 12.333s5.533 12.333 12.333 12.333c6.8 0 12.333-5.533 12.333-12.333s-5.533-12.333-12.333-12.333z"></path>
<path d="M15.999 23.293c-1.867 0-3.733-0.707-5.16-2.133-0.373-0.373-0.707-0.787-1.013-1.28-0.293-0.467-0.147-1.080 0.32-1.373s1.080-0.147 1.373 0.32c0.227 0.373 0.467 0.667 0.733 0.933 2.067 2.067 5.427 2.067 7.493 0 0.8-0.8 1.307-1.84 1.48-3 0.080-0.547 0.587-0.947 1.133-0.853 0.547 0.080 0.92 0.587 0.853 1.133-0.227 1.587-0.933 3.013-2.040 4.133-1.44 1.413-3.307 2.12-5.173 2.12z"></path>
<path d="M9.787 16.107c-0.053 0-0.093 0-0.147-0.013-0.547-0.080-0.933-0.587-0.853-1.133 0.227-1.587 0.933-3.013 2.040-4.133 2.84-2.84 7.467-2.84 10.32 0 0.373 0.373 0.707 0.787 1.013 1.293 0.293 0.467 0.147 1.080-0.32 1.373s-1.080 0.147-1.373-0.32c-0.227-0.36-0.467-0.667-0.733-0.933-2.067-2.067-5.427-2.067-7.493 0-0.8 0.8-1.307 1.84-1.48 3-0.053 0.507-0.48 0.867-0.973 0.867z"></path>
<path d="M10.427 23.907c-0.547 0-1-0.453-1-1v-3.56c0-0.547 0.453-1 1-1h3.56c0.547 0 1 0.453 1 1s-0.453 1-1 1h-2.56v2.56c0 0.547-0.44 1-1 1z"></path>
<path d="M21.573 13.653h-3.56c-0.547 0-1-0.453-1-1s0.453-1 1-1h2.56v-2.56c0-0.547 0.453-1 1-1s1 0.453 1 1v3.56c0 0.56-0.453 1-1 1z"></path>
</svg>
