<!-- Generated by IcoMoon.io -->
<svg version="1.1" xmlns="http://www.w3.org/2000/svg" width="32" height="32" viewBox="0 0 32 32">
<title>refresh</title>
<path d="M19.4 29.893c-0.44 0-0.853-0.293-0.973-0.747-0.147-0.533 0.173-1.080 0.72-1.227 5.413-1.427 9.187-6.333 9.187-11.933 0-6.8-5.533-12.333-12.333-12.333-5.773 0-9.56 3.373-11.333 5.413h3.92c0.547 0 1 0.453 1 1s-0.44 1.013-1 1.013h-5.907c-0.067 0-0.187-0.013-0.28-0.040-0.12-0.040-0.227-0.093-0.32-0.16-0.12-0.080-0.213-0.187-0.28-0.307s-0.12-0.267-0.133-0.413c0-0.040 0-0.067 0-0.107v-6.053c0-0.547 0.453-1 1-1s1 0.453 1 1v3.187c2.173-2.333 6.267-5.52 12.333-5.52 7.907 0 14.333 6.427 14.333 14.333 0 6.507-4.387 12.213-10.68 13.867-0.080 0.013-0.173 0.027-0.253 0.027z"></path>
<path d="M15.053 30.307c-0.027 0-0.053-0.013-0.067-0.013-1.44-0.093-2.853-0.413-4.187-0.933-0.387-0.147-0.653-0.533-0.64-0.947 0-0.12 0.027-0.24 0.067-0.347 0.2-0.507 0.8-0.76 1.293-0.573 1.16 0.453 2.373 0.72 3.6 0.813 0.52 0.027 0.933 0.48 0.933 1.013l-0.013 0.053c-0.027 0.52-0.467 0.933-0.987 0.933zM7.707 27.44c-0.227 0-0.44-0.080-0.627-0.213-1.12-0.907-2.107-1.96-2.907-3.133-0.12-0.173-0.187-0.36-0.187-0.56 0-0.333 0.16-0.64 0.44-0.827 0.44-0.307 1.080-0.187 1.387 0.24 0 0.013 0 0.013 0 0.013 0.013 0.013 0.027 0.040 0.040 0.053 0.693 1 1.533 1.893 2.48 2.64 0.227 0.187 0.373 0.467 0.373 0.773 0 0.227-0.067 0.453-0.213 0.64-0.2 0.24-0.48 0.373-0.787 0.373zM3.253 20.933c-0.44 0-0.827-0.28-0.947-0.693-0.427-1.373-0.64-2.8-0.64-4.24v-0.013c0.013-0.547 0.453-0.987 1-0.987s1 0.453 1 1c0 1.253 0.187 2.48 0.547 3.64 0.027 0.107 0.040 0.2 0.040 0.307 0 0.427-0.28 0.813-0.707 0.947-0.093 0.027-0.187 0.040-0.293 0.040z"></path>
</svg>
