<!-- Generated by IcoMoon.io -->
<svg version="1.1" xmlns="http://www.w3.org/2000/svg" width="32" height="32" viewBox="0 0 32 32">
<title>repeate-music</title>
<path d="M5.213 22.907c-0.253 0-0.507-0.093-0.707-0.293-1.827-1.84-2.84-4.267-2.84-6.84 0-5.347 4.333-9.693 9.667-9.693l8.093 0.027-1.453-1.387c-0.4-0.387-0.413-1.013-0.027-1.413s1.013-0.413 1.413-0.027l3.253 3.12c0.293 0.28 0.387 0.72 0.24 1.093s-0.52 0.627-0.933 0.627l-10.6-0.027c-4.227 0-7.667 3.453-7.667 7.693 0 2.040 0.8 3.973 2.253 5.427 0.387 0.387 0.387 1.027 0 1.413-0.187 0.187-0.44 0.28-0.693 0.28z"></path>
<path d="M13.333 29c-0.253 0-0.493-0.093-0.693-0.28l-3.253-3.12c-0.293-0.28-0.387-0.72-0.24-1.093s0.52-0.627 0.933-0.627l10.6 0.027c4.227 0 7.667-3.453 7.667-7.693 0-2.040-0.8-3.973-2.253-5.427-0.387-0.387-0.387-1.027 0-1.413s1.027-0.387 1.413 0c1.827 1.84 2.84 4.267 2.84 6.84 0 5.347-4.333 9.693-9.667 9.693l-8.093-0.027 1.453 1.387c0.4 0.387 0.413 1.013 0.027 1.413-0.213 0.213-0.467 0.32-0.733 0.32z"></path>
<path d="M20 17h-8c-0.547 0-1-0.453-1-1s0.453-1 1-1h8c0.547 0 1 0.453 1 1s-0.453 1-1 1z"></path>
</svg>
