<!-- Generated by IcoMoon.io -->
<svg version="1.1" xmlns="http://www.w3.org/2000/svg" width="32" height="32" viewBox="0 0 32 32">
<title>repeat-circle</title>
<path d="M22 16.627c-0.547 0-1-0.453-1-1v-2.36c0-0.627-0.507-1.133-1.133-1.133h-9.867c-0.547 0-1-0.453-1-1s0.453-1 1-1h9.867c1.733 0 3.133 1.413 3.133 3.133v2.36c0 0.547-0.453 1-1 1z"></path>
<path d="M12.253 14.373c-0.253 0-0.507-0.093-0.707-0.293l-2.253-2.253c-0.387-0.387-0.387-1.027 0-1.413l2.253-2.253c0.387-0.387 1.027-0.387 1.413 0s0.387 1.027 0 1.413l-1.547 1.547 1.547 1.547c0.387 0.387 0.387 1.027 0 1.413-0.2 0.2-0.453 0.293-0.707 0.293z"></path>
<path d="M22 21.88h-9.867c-1.733 0-3.133-1.413-3.133-3.133v-2.36c0-0.547 0.453-1 1-1s1 0.453 1 1v2.36c0 0.627 0.507 1.133 1.133 1.133h9.867c0.547 0 1 0.453 1 1s-0.453 1-1 1z"></path>
<path d="M19.747 24.12c-0.253 0-0.507-0.093-0.707-0.293-0.387-0.387-0.387-1.027 0-1.413l1.547-1.547-1.547-1.547c-0.387-0.387-0.387-1.027 0-1.413s1.027-0.387 1.413 0l2.253 2.253c0.387 0.387 0.387 1.027 0 1.413l-2.253 2.253c-0.187 0.2-0.453 0.293-0.707 0.293z"></path>
<path d="M16 30.333c-7.907 0-14.333-6.427-14.333-14.333s6.427-14.333 14.333-14.333c7.907 0 14.333 6.427 14.333 14.333s-6.427 14.333-14.333 14.333zM16 3.667c-6.8 0-12.333 5.533-12.333 12.333s5.533 12.333 12.333 12.333c6.8 0 12.333-5.533 12.333-12.333s-5.533-12.333-12.333-12.333z"></path>
</svg>
