<!-- Generated by IcoMoon.io -->
<svg version="1.1" xmlns="http://www.w3.org/2000/svg" width="32" height="32" viewBox="0 0 32 32">
<title>repeat</title>
<path d="M27.227 16.293c-0.547 0-1-0.453-1-1v-4.427c0-1.653-1.347-3-3-3h-18.453c-0.547 0-1-0.453-1-1s0.453-1 1-1h18.453c2.76 0 5 2.24 5 5v4.427c0 0.56-0.453 1-1 1z"></path>
<path d="M8.987 12.093c-0.253 0-0.507-0.093-0.707-0.293l-4.213-4.213c-0.187-0.187-0.293-0.44-0.293-0.707s0.107-0.52 0.293-0.707l4.213-4.213c0.387-0.387 1.027-0.387 1.413 0s0.387 1.027 0 1.413l-3.507 3.507 3.507 3.507c0.387 0.387 0.387 1.027 0 1.413-0.2 0.187-0.453 0.293-0.707 0.293z"></path>
<path d="M27.227 26.12h-18.453c-2.76 0-5-2.24-5-5v-4.427c0-0.547 0.453-1 1-1s1 0.453 1 1v4.427c0 1.653 1.347 3 3 3h18.453c0.547 0 1 0.453 1 1s-0.453 1-1 1z"></path>
<path d="M23.012 30.333c-0.253 0-0.507-0.093-0.707-0.293-0.387-0.387-0.387-1.027 0-1.413l3.507-3.507-3.507-3.507c-0.387-0.387-0.387-1.027 0-1.413s1.027-0.387 1.413 0l4.213 4.213c0.187 0.187 0.293 0.44 0.293 0.707s-0.107 0.52-0.293 0.707l-4.213 4.213c-0.187 0.2-0.44 0.293-0.707 0.293z"></path>
</svg>
