<!-- Generated by IcoMoon.io -->
<svg version="1.1" xmlns="http://www.w3.org/2000/svg" width="32" height="32" viewBox="0 0 32 32">
<title>reserve</title>
<path d="M25.294 30.333h-18.667c-5 0-5-2.773-5-5v-1.333c0-1.28 1.053-2.333 2.333-2.333h24c1.28 0 2.333 1.053 2.333 2.333v1.333c0 2.227 0 5-5 5zM3.961 23.667c-0.187 0-0.333 0.147-0.333 0.333v1.333c0 2.187 0 3 3 3h18.667c3 0 3-0.813 3-3v-1.333c0-0.187-0.147-0.333-0.333-0.333h-24z"></path>
<path d="M27.626 23.667h-23.267c-0.547 0-1-0.453-1-1v-5.333c0-5.467 3.88-10.267 9.213-11.4 0.787-0.173 1.613-0.267 2.453-0.267h1.933c0.853 0 1.68 0.093 2.467 0.267 5.333 1.147 9.2 5.947 9.2 11.4v5.333c0 0.547-0.44 1-1 1zM5.359 21.667h21.267v-4.333c0-4.52-3.2-8.493-7.627-9.453-0.653-0.147-1.333-0.213-2.040-0.213h-1.933c-0.693 0-1.373 0.067-2.027 0.213-4.427 0.947-7.64 4.92-7.64 9.453v4.333z"></path>
<path d="M12.787 7.907c-0.44 0-0.84-0.293-0.96-0.733-0.107-0.387-0.16-0.773-0.16-1.173 0-2.387 1.947-4.333 4.333-4.333s4.333 1.947 4.333 4.333c0 0.4-0.053 0.787-0.16 1.173-0.133 0.507-0.64 0.827-1.173 0.707-0.653-0.147-1.333-0.213-2.040-0.213h-1.933c-0.693 0-1.373 0.067-2.027 0.213-0.067 0.013-0.133 0.027-0.213 0.027zM15.027 5.667h1.933c0.453 0 0.92 0.027 1.36 0.080-0.12-1.173-1.12-2.080-2.32-2.080s-2.187 0.907-2.32 2.080c0.453-0.053 0.893-0.080 1.347-0.080z"></path>
<path d="M20 15.667h-8c-0.547 0-1-0.453-1-1s0.453-1 1-1h8c0.547 0 1 0.453 1 1s-0.453 1-1 1z"></path>
</svg>
