<!-- Generated by IcoMoon.io -->
<svg version="1.1" xmlns="http://www.w3.org/2000/svg" width="32" height="32" viewBox="0 0 32 32">
<title>rotate-left-1</title>
<path d="M15.667 30.333h-6c-5.533 0-8-2.467-8-8v-6c0-5.533 2.467-8 8-8h6c5.533 0 8 2.467 8 8v6c0 5.533-2.467 8-8 8zM9.667 10.333c-4.427 0-6 1.573-6 6v6c0 4.427 1.573 6 6 6h6c4.427 0 6-1.573 6-6v-6c0-4.427-1.573-6-6-6h-6z"></path>
<path d="M29.334 13c-0.547 0-1-0.453-1-1 0-3.947-2.747-7.253-6.44-8.12l0.36 0.6c0.28 0.48 0.133 1.093-0.347 1.373s-1.093 0.133-1.373-0.347l-1.4-2.333c-0.187-0.307-0.187-0.693-0.013-1 0.187-0.307 0.52-0.507 0.88-0.507 5.693 0 10.333 4.64 10.333 10.333 0 0.547-0.453 1-1 1z"></path>
</svg>
