<!-- Generated by IcoMoon.io -->
<svg version="1.1" xmlns="http://www.w3.org/2000/svg" width="32" height="32" viewBox="0 0 32 32">
<title>rotate-left</title>
<path d="M16 30.333c-6.933 0-12.56-5.64-12.56-12.56 0-2.493 0.733-4.907 2.12-6.987 0.307-0.453 0.933-0.587 1.387-0.28s0.587 0.933 0.28 1.387c-1.16 1.733-1.773 3.773-1.773 5.867 0 5.827 4.733 10.56 10.56 10.56s10.56-4.733 10.56-10.56c0-5.827-4.747-10.56-10.573-10.56-1.227 0-2.427 0.173-3.56 0.52-0.533 0.16-1.093-0.133-1.253-0.667s0.133-1.093 0.667-1.253c1.333-0.4 2.72-0.613 4.147-0.613 6.933 0 12.56 5.64 12.56 12.56s-5.627 12.587-12.56 12.587z"></path>
<path d="M10.494 8.094c-0.227 0-0.467-0.080-0.653-0.24-0.427-0.373-0.467-1-0.107-1.413l3.853-4.427c0.36-0.413 1-0.467 1.413-0.093 0.413 0.36 0.453 1 0.093 1.413l-3.853 4.413c-0.2 0.227-0.48 0.347-0.747 0.347z"></path>
<path d="M14.986 11.373c-0.2 0-0.413-0.067-0.587-0.187l-4.507-3.293c-0.44-0.32-0.533-0.947-0.213-1.387 0.32-0.453 0.947-0.547 1.4-0.227l4.493 3.28c0.44 0.32 0.547 0.947 0.213 1.4-0.187 0.28-0.493 0.413-0.8 0.413z"></path>
</svg>
