<!-- Generated by IcoMoon.io -->
<svg version="1.1" xmlns="http://www.w3.org/2000/svg" width="32" height="32" viewBox="0 0 32 32">
<title>rotate-right</title>
<path d="M16 30.333c-6.933 0-12.56-5.64-12.56-12.56s5.627-12.573 12.56-12.573c1.427 0 2.813 0.2 4.147 0.613 0.533 0.16 0.827 0.72 0.667 1.253s-0.72 0.827-1.253 0.667c-1.133-0.347-2.333-0.533-3.56-0.533-5.827 0-10.56 4.733-10.56 10.56s4.733 10.56 10.56 10.56c5.827 0 10.56-4.733 10.56-10.56 0-2.107-0.613-4.133-1.773-5.867-0.307-0.453-0.187-1.080 0.28-1.387 0.453-0.307 1.080-0.187 1.387 0.28 1.387 2.067 2.12 4.48 2.12 6.987-0.013 6.92-5.64 12.56-12.573 12.56z"></path>
<path d="M21.507 8.094c-0.28 0-0.56-0.12-0.76-0.347l-3.853-4.427c-0.36-0.413-0.32-1.053 0.093-1.413s1.053-0.32 1.413 0.093l3.853 4.427c0.36 0.413 0.32 1.053-0.093 1.413-0.173 0.173-0.413 0.253-0.653 0.253z"></path>
<path d="M17.014 11.374c-0.307 0-0.613-0.147-0.813-0.413-0.32-0.44-0.227-1.067 0.213-1.4l4.493-3.28c0.44-0.333 1.067-0.227 1.4 0.213s0.227 1.067-0.213 1.4l-4.493 3.293c-0.173 0.133-0.373 0.187-0.587 0.187z"></path>
</svg>
