<!-- Generated by IcoMoon.io -->
<svg version="1.1" xmlns="http://www.w3.org/2000/svg" width="32" height="32" viewBox="0 0 32 32">
<title>rotate-right-1</title>
<path d="M22.333 30.333h-6c-5.533 0-8-2.467-8-8v-6c0-5.533 2.467-8 8-8h6c5.533 0 8 2.467 8 8v6c0 5.533-2.467 8-8 8zM16.333 10.333c-4.427 0-6 1.573-6 6v6c0 4.427 1.573 6 6 6h6c4.427 0 6-1.573 6-6v-6c0-4.427-1.573-6-6-6h-6z"></path>
<path d="M2.667 13c-0.547 0-1-0.453-1-1 0-5.693 4.64-10.333 10.333-10.333 0.36 0 0.693 0.2 0.867 0.507s0.173 0.693-0.013 1l-1.4 2.347c-0.28 0.467-0.893 0.627-1.373 0.333-0.467-0.28-0.627-0.893-0.333-1.373l0.36-0.6c-3.693 0.867-6.44 4.173-6.44 8.12 0 0.547-0.453 1-1 1z"></path>
</svg>
