<!-- Generated by IcoMoon.io -->
<svg version="1.1" xmlns="http://www.w3.org/2000/svg" width="32" height="32" viewBox="0 0 32 32">
<title>routing-2</title>
<path d="M7.346 8.667c-0.733 0-1.333-0.6-1.333-1.333s0.587-1.333 1.333-1.333h0.013c0.733 0 1.333 0.6 1.333 1.333s-0.6 1.333-1.347 1.333z"></path>
<path d="M24.68 26c-0.733 0-1.333-0.6-1.333-1.333s0.587-1.333 1.333-1.333h0.013c0.733 0 1.333 0.6 1.333 1.333s-0.6 1.333-1.347 1.333z"></path>
<path d="M7.294 13c-3.12 0-5.667-2.547-5.667-5.667s2.547-5.667 5.667-5.667c3.12 0 5.667 2.547 5.667 5.667s-2.533 5.667-5.667 5.667zM7.294 3.667c-2.027 0-3.667 1.64-3.667 3.667s1.64 3.667 3.667 3.667c2.027 0 3.667-1.64 3.667-3.667s-1.64-3.667-3.667-3.667z"></path>
<path d="M26.628 30.333h-4c-2.027 0-3.667-1.64-3.667-3.667v-4c0-2.027 1.64-3.667 3.667-3.667h4c2.027 0 3.667 1.64 3.667 3.667v4c0 2.027-1.64 3.667-3.667 3.667zM22.628 21c-0.92 0-1.667 0.747-1.667 1.667v4c0 0.92 0.747 1.667 1.667 1.667h4c0.92 0 1.667-0.747 1.667-1.667v-4c0-0.92-0.747-1.667-1.667-1.667h-4z"></path>
<path d="M15.999 26.333h-3.573c-1.547 0-2.893-0.933-3.427-2.373-0.547-1.44-0.147-3.027 1.013-4.053l10.653-9.32c0.64-0.56 0.653-1.32 0.467-1.84-0.2-0.52-0.707-1.080-1.56-1.080h-3.573c-0.547 0-1-0.453-1-1s0.453-1 1-1h3.573c1.547 0 2.893 0.933 3.427 2.373 0.547 1.44 0.147 3.027-1.013 4.053l-10.653 9.32c-0.64 0.56-0.653 1.32-0.467 1.84 0.2 0.52 0.707 1.080 1.56 1.080h3.573c0.547 0 1 0.453 1 1s-0.453 1-1 1z"></path>
</svg>
