<!-- Generated by IcoMoon.io -->
<svg version="1.1" xmlns="http://www.w3.org/2000/svg" width="32" height="32" viewBox="0 0 32 32">
<title>route-square</title>
<path d="M17.574 24.933c-1.56 0-2.88-0.96-3.373-2.44l-0.933-2.76c-0.147-0.48-0.52-0.84-0.973-0.987l-2.773-0.933c-1.493-0.507-2.453-1.853-2.427-3.427s1.013-2.893 2.52-3.36l10.040-3.12c1.267-0.387 2.64-0.053 3.573 0.893s1.267 2.307 0.88 3.573l-3.12 10.053c-0.467 1.507-1.787 2.493-3.373 2.52-0.013-0.013-0.027-0.013-0.040-0.013zM20.694 9.733c-0.16 0-0.307 0.027-0.467 0.067l-10.053 3.133c-0.813 0.253-1.107 0.92-1.107 1.48-0.013 0.547 0.267 1.24 1.067 1.507l2.773 0.92c1.067 0.347 1.907 1.187 2.253 2.267l0.92 2.747c0.267 0.8 0.893 1.053 1.507 1.080 0.547 0 1.227-0.293 1.48-1.107l3.12-10.053c0.173-0.56 0.027-1.147-0.387-1.56-0.307-0.32-0.693-0.48-1.107-0.48z"></path>
<path d="M20 30.333h-8c-7.24 0-10.333-3.093-10.333-10.333v-8c0-7.24 3.093-10.333 10.333-10.333h8c7.24 0 10.333 3.093 10.333 10.333v8c0 7.24-3.093 10.333-10.333 10.333zM12 3.667c-6.147 0-8.333 2.187-8.333 8.333v8c0 6.147 2.187 8.333 8.333 8.333h8c6.147 0 8.333-2.187 8.333-8.333v-8c0-6.147-2.187-8.333-8.333-8.333h-8z"></path>
</svg>
