<!-- Generated by IcoMoon.io -->
<svg version="1.1" xmlns="http://www.w3.org/2000/svg" width="32" height="32" viewBox="0 0 32 32">
<title>routing</title>
<path d="M7.293 14.333c-0.947 0-1.907-0.347-2.64-1.053-2.453-2.333-3.44-4.88-2.867-7.373 0.68-2.933 3.253-4.24 5.507-4.24s4.84 1.32 5.507 4.24c0.573 2.493-0.427 5.040-2.867 7.373-0.733 0.707-1.68 1.053-2.64 1.053zM3.733 6.36c-0.507 2.227 0.973 4.2 2.307 5.467 0.707 0.68 1.813 0.667 2.52 0 1.333-1.267 2.813-3.24 2.293-5.48-0.453-1.973-2.2-2.68-3.547-2.68-1.36 0-3.107 0.707-3.573 2.693z"></path>
<path d="M7.346 8.267c-0.733 0-1.333-0.6-1.333-1.333s0.587-1.333 1.333-1.333h0.013c0.733 0 1.333 0.6 1.333 1.333s-0.6 1.333-1.347 1.333z"></path>
<path d="M24.653 30.334c-0.947 0-1.907-0.347-2.653-1.053-2.467-2.333-3.467-4.88-2.88-7.387 0.68-2.92 3.267-4.24 5.533-4.24s4.853 1.32 5.533 4.24c0.573 2.493-0.427 5.053-2.893 7.373-0.733 0.72-1.68 1.067-2.64 1.067zM24.653 19.667c-1.36 0-3.12 0.707-3.587 2.693-0.52 2.227 0.973 4.213 2.307 5.48 0.707 0.68 1.827 0.68 2.547 0 1.333-1.267 2.827-3.24 2.307-5.467-0.44-2-2.2-2.707-3.573-2.707z"></path>
<path d="M24.706 24.267c-0.733 0-1.333-0.6-1.333-1.333s0.587-1.333 1.333-1.333h0.013c0.733 0 1.333 0.6 1.333 1.333s-0.613 1.333-1.347 1.333z"></path>
<path d="M15.999 26.333h-3.573c-1.547 0-2.893-0.933-3.427-2.373-0.547-1.44-0.147-3.027 1.013-4.053l10.653-9.32c0.64-0.56 0.653-1.32 0.467-1.84-0.2-0.52-0.707-1.080-1.56-1.080h-3.573c-0.547 0-1-0.453-1-1s0.453-1 1-1h3.573c1.547 0 2.893 0.933 3.427 2.373 0.547 1.44 0.147 3.027-1.013 4.053l-10.653 9.32c-0.64 0.56-0.653 1.32-0.467 1.84 0.2 0.52 0.707 1.080 1.56 1.080h3.573c0.547 0 1 0.453 1 1s-0.453 1-1 1z"></path>
</svg>
