<!-- Generated by IcoMoon.io -->
<svg version="1.1" xmlns="http://www.w3.org/2000/svg" width="32" height="32" viewBox="0 0 32 32">
<title>rulerpen</title>
<path d="M24.628 30.333h-5.333c-3.227 0-5-1.773-5-5v-18.667c0-3.227 1.773-5 5-5h5.333c3.227 0 5 1.773 5 5v18.667c0 3.227-1.787 5-5 5zM19.294 3.667c-2.107 0-3 0.893-3 3v18.667c0 2.107 0.893 3 3 3h5.333c2.107 0 3-0.893 3-3v-18.667c0-2.107-0.893-3-3-3h-5.333z"></path>
<path d="M21.961 9h-6.667c-0.547 0-1-0.453-1-1s0.453-1 1-1h6.667c0.547 0 1 0.453 1 1s-0.453 1-1 1z"></path>
<path d="M20.628 25h-5.333c-0.547 0-1-0.453-1-1s0.453-1 1-1h5.333c0.547 0 1 0.453 1 1s-0.453 1-1 1z"></path>
<path d="M21.961 19.667c-0.013 0-0.013 0 0 0l-6.68-0.067c-0.547 0-1-0.453-0.987-1.013 0-0.547 0.453-0.987 1-0.987 0 0 0 0 0.013 0l6.667 0.067c0.547 0 1 0.453 0.987 1.013-0.013 0.547-0.453 0.987-1 0.987z"></path>
<path d="M19.294 14.333h-4c-0.547 0-1-0.453-1-1s0.453-1 1-1h4c0.547 0 1 0.453 1 1s-0.453 1-1 1z"></path>
<path d="M7.319 30.293c-1.213 0-2.36-0.747-3.147-2.053l-1.093-1.813c-0.4-0.667-0.707-1.76-0.707-2.533v-17.293c0-2.72 2.213-4.933 4.933-4.933s4.933 2.213 4.933 4.933v17.28c0 0.773-0.307 1.867-0.707 2.533l-1.093 1.813c-0.76 1.32-1.907 2.067-3.12 2.067zM7.319 3.667c-1.613 0-2.933 1.32-2.933 2.933v17.28c0 0.413 0.2 1.147 0.413 1.507l1.093 1.813c0.413 0.693 0.933 1.080 1.427 1.080s1.013-0.4 1.427-1.080l1.093-1.813c0.213-0.36 0.413-1.093 0.413-1.507v-17.28c0-1.613-1.32-2.933-2.933-2.933z"></path>
<path d="M11.252 10.333h-7.88c-0.547 0-1-0.453-1-1s0.453-1 1-1h7.88c0.547 0 1 0.453 1 1s-0.453 1-1 1z"></path>
</svg>
