<!-- Generated by IcoMoon.io -->
<svg version="1.1" xmlns="http://www.w3.org/2000/svg" width="32" height="32" viewBox="0 0 32 32">
<title>ruler</title>
<path d="M25.333 23.667h-18.667c-3.227 0-5-1.773-5-5v-5.333c0-3.227 1.773-5 5-5h18.667c3.227 0 5 1.773 5 5v5.333c0 3.227-1.773 5-5 5zM6.667 10.333c-2.107 0-3 0.893-3 3v5.333c0 2.107 0.893 3 3 3h18.667c2.107 0 3-0.893 3-3v-5.333c0-2.107-0.893-3-3-3h-18.667z"></path>
<path d="M24 17c-0.547 0-1-0.453-1-1v-6.667c0-0.547 0.453-1 1-1s1 0.453 1 1v6.667c0 0.547-0.453 1-1 1z"></path>
<path d="M8 15.667c-0.547 0-1-0.453-1-1v-5.333c0-0.547 0.453-1 1-1s1 0.453 1 1v5.333c0 0.547-0.453 1-1 1z"></path>
<path d="M13.333 17c-0.56 0-1-0.453-1-1.013l0.067-6.667c0-0.547 0.453-0.987 1-0.987 0 0 0 0 0.013 0 0.547 0 1 0.453 0.987 1.013l-0.067 6.667c0 0.547-0.453 0.987-1 0.987z"></path>
<path d="M18.667 14.333c-0.547 0-1-0.453-1-1v-4c0-0.547 0.453-1 1-1s1 0.453 1 1v4c0 0.547-0.453 1-1 1z"></path>
</svg>
