<!-- Generated by IcoMoon.io -->
<svg version="1.1" xmlns="http://www.w3.org/2000/svg" width="32" height="32" viewBox="0 0 32 32">
<title>safe-home</title>
<path d="M24.706 31.667c-0.2 0-0.387-0.027-0.56-0.067-1.76-0.48-3.347-1.533-4.48-2.973-1.213-1.507-1.88-3.347-1.88-5.2v-2.92c0-0.96 0.64-1.933 1.533-2.307l3.72-1.52c1.093-0.427 2.28-0.427 3.36 0l3.733 1.52c0.893 0.373 1.547 1.347 1.547 2.307v2.92c0 3.72-2.667 7.16-6.333 8.173-0.227 0.040-0.44 0.067-0.64 0.067zM24.72 18.333c-0.32 0-0.64 0.053-0.947 0.187l-3.693 1.52c-0.133 0.053-0.293 0.307-0.293 0.467v2.92c0 1.4 0.507 2.8 1.44 3.96 0.88 1.12 2.093 1.933 3.413 2.293 0.040 0.013 0.12 0.013 0.187-0.013 2.733-0.76 4.827-3.44 4.827-6.24v-2.92c0-0.16-0.16-0.4-0.307-0.467l-3.707-1.52c-0.293-0.12-0.6-0.187-0.92-0.187z"></path>
<path d="M20.454 29h-12.213c-2.32 0-4.453-1.8-4.84-4.080l-1.68-10.067c-0.28-1.587 0.507-3.627 1.76-4.64l8.773-7.013c1.72-1.387 4.413-1.373 6.133 0.013l8.773 7c1.267 1.013 2.040 3.053 1.76 4.64l-0.573 3.453c-0.053 0.293-0.24 0.56-0.507 0.707s-0.587 0.173-0.867 0.053l-1.333-0.547c-0.587-0.24-1.253-0.24-1.867 0l-3.693 1.52c-0.133 0.053-0.293 0.307-0.293 0.467v2.92c0 1.4 0.507 2.8 1.44 3.96 0.24 0.293 0.293 0.707 0.12 1.053-0.16 0.333-0.507 0.56-0.893 0.56zM15.307 4.16c-0.653 0-1.32 0.2-1.8 0.587l-8.773 7.013c-0.693 0.56-1.187 1.867-1.040 2.747l1.68 10.067c0.227 1.307 1.533 2.413 2.867 2.413h10.4c-0.56-1.133-0.853-2.36-0.853-3.587v-2.92c0-0.96 0.64-1.933 1.533-2.307l3.72-1.52c1.093-0.427 2.28-0.427 3.36 0l0.187 0.080 0.373-2.213c0.147-0.88-0.347-2.187-1.040-2.747l-8.773-7c-0.507-0.413-1.173-0.613-1.84-0.613z"></path>
</svg>
