<!-- Generated by IcoMoon.io -->
<svg version="1.1" xmlns="http://www.w3.org/2000/svg" width="32" height="32" viewBox="0 0 32 32">
<title>sagittarius</title>
<path d="M28 17c-0.547 0-1-0.453-1-1v-11h-11c-0.547 0-1-0.453-1-1s0.453-1 1-1h12c0.547 0 1 0.453 1 1v12c0 0.547-0.453 1-1 1z"></path>
<path d="M3.999 29c-0.253 0-0.507-0.093-0.707-0.293-0.387-0.387-0.387-1.027 0-1.413l24-24c0.387-0.387 1.027-0.387 1.413 0s0.387 1.027 0 1.413l-24 24c-0.2 0.2-0.453 0.293-0.707 0.293z"></path>
<path d="M23.2 24.2c-0.253 0-0.507-0.093-0.707-0.293l-14.4-14.4c-0.387-0.387-0.387-1.027 0-1.413s1.027-0.387 1.413 0l14.4 14.4c0.387 0.387 0.387 1.027 0 1.413-0.2 0.2-0.453 0.293-0.707 0.293z"></path>
</svg>
