<!-- Generated by IcoMoon.io -->
<svg version="1.1" xmlns="http://www.w3.org/2000/svg" width="32" height="32" viewBox="0 0 32 32">
<title>save-add</title>
<path d="M19.587 30.333c-0.587 0-1.2-0.173-1.827-0.507l-5.24-2.92c-0.253-0.133-0.8-0.133-1.053 0l-5.227 2.92c-1.133 0.627-2.293 0.68-3.173 0.16-0.893-0.52-1.4-1.56-1.4-2.84v-15.147c0-2.84 2.307-5.147 5.147-5.147h10.373c2.84 0 5.147 2.307 5.147 5.147v15.147c0 1.28-0.507 2.32-1.4 2.84-0.4 0.227-0.853 0.347-1.347 0.347zM12 24.8c0.533 0 1.053 0.12 1.493 0.36l5.24 2.92c0.48 0.267 0.92 0.333 1.187 0.173 0.253-0.147 0.413-0.573 0.413-1.12v-15.147c0-1.733-1.413-3.147-3.147-3.147h-10.373c-1.733 0-3.147 1.413-3.147 3.147v15.147c0 0.547 0.16 0.973 0.413 1.12s0.707 0.080 1.187-0.187l5.24-2.92c0.427-0.227 0.96-0.347 1.493-0.347z"></path>
<path d="M27.587 25.16c-0.587 0-1.2-0.173-1.827-0.507l-4.92-2.747c-0.32-0.173-0.507-0.507-0.507-0.867v-9.040c0-1.733-1.413-3.147-3.147-3.147h-6.52c-0.547 0-1-0.453-1-1v-1.027c0-2.84 2.307-5.147 5.147-5.147h10.373c2.84 0 5.147 2.307 5.147 5.147v15.147c0 1.28-0.507 2.32-1.4 2.84-0.4 0.227-0.853 0.347-1.347 0.347zM22.333 20.44l4.4 2.467c0.48 0.267 0.92 0.333 1.187 0.173 0.253-0.147 0.413-0.573 0.413-1.12v-15.147c0-1.733-1.413-3.147-3.147-3.147h-10.373c-1.733 0-3.147 1.413-3.147 3.147v0.027h5.52c2.84 0 5.147 2.307 5.147 5.147v8.453z"></path>
<path d="M14.667 17h-5.333c-0.547 0-1-0.453-1-1s0.453-1 1-1h5.333c0.547 0 1 0.453 1 1s-0.453 1-1 1z"></path>
<path d="M12 19.667c-0.547 0-1-0.453-1-1v-5.333c0-0.547 0.453-1 1-1s1 0.453 1 1v5.333c0 0.547-0.453 1-1 1z"></path>
</svg>
