<!-- Generated by IcoMoon.io -->
<svg version="1.1" xmlns="http://www.w3.org/2000/svg" width="32" height="32" viewBox="0 0 32 32">
<title>scan-barcode</title>
<path d="M2.667 13c-0.547 0-1-0.453-1-1v-3.333c0-3.867 3.147-7 7-7h3.333c0.547 0 1 0.453 1 1s-0.453 1-1 1h-3.333c-2.76 0-5 2.24-5 5v3.333c0 0.547-0.453 1-1 1z"></path>
<path d="M29.333 13c-0.547 0-1-0.453-1-1v-3.333c0-2.76-2.24-5-5-5h-3.333c-0.547 0-1-0.453-1-1s0.453-1 1-1h3.333c3.853 0 7 3.133 7 7v3.333c0 0.547-0.453 1-1 1z"></path>
<path d="M23.333 30.333h-2c-0.547 0-1-0.453-1-1s0.453-1 1-1h2c2.76 0 5-2.24 5-5v-2c0-0.547 0.453-1 1-1s1 0.453 1 1v2c0 3.867-3.147 7-7 7z"></path>
<path d="M12 30.333h-3.333c-3.853 0-7-3.133-7-7v-3.333c0-0.547 0.453-1 1-1s1 0.453 1 1v3.333c0 2.76 2.24 5 5 5h3.333c0.547 0 1 0.453 1 1s-0.453 1-1 1z"></path>
<path d="M12 15h-2.667c-1.88 0-3-1.12-3-3v-2.667c0-1.88 1.12-3 3-3h2.667c1.88 0 3 1.12 3 3v2.667c0 1.88-1.12 3-3 3zM9.333 8.333c-0.787 0-1 0.213-1 1v2.667c0 0.787 0.213 1 1 1h2.667c0.787 0 1-0.213 1-1v-2.667c0-0.787-0.213-1-1-1h-2.667z"></path>
<path d="M22.667 15h-2.667c-1.88 0-3-1.12-3-3v-2.667c0-1.88 1.12-3 3-3h2.667c1.88 0 3 1.12 3 3v2.667c0 1.88-1.12 3-3 3zM20 8.333c-0.787 0-1 0.213-1 1v2.667c0 0.787 0.213 1 1 1h2.667c0.787 0 1-0.213 1-1v-2.667c0-0.787-0.213-1-1-1h-2.667z"></path>
<path d="M12 25.667h-2.667c-1.88 0-3-1.12-3-3v-2.667c0-1.88 1.12-3 3-3h2.667c1.88 0 3 1.12 3 3v2.667c0 1.88-1.12 3-3 3zM9.333 19c-0.787 0-1 0.213-1 1v2.667c0 0.787 0.213 1 1 1h2.667c0.787 0 1-0.213 1-1v-2.667c0-0.787-0.213-1-1-1h-2.667z"></path>
<path d="M22.667 25.667h-2.667c-1.88 0-3-1.12-3-3v-2.667c0-1.88 1.12-3 3-3h2.667c1.88 0 3 1.12 3 3v2.667c0 1.88-1.12 3-3 3zM20 19c-0.787 0-1 0.213-1 1v2.667c0 0.787 0.213 1 1 1h2.667c0.787 0 1-0.213 1-1v-2.667c0-0.787-0.213-1-1-1h-2.667z"></path>
</svg>
