<!-- Generated by IcoMoon.io -->
<svg version="1.1" xmlns="http://www.w3.org/2000/svg" width="32" height="32" viewBox="0 0 32 32">
<title>scanning</title>
<path d="M2.667 13c-0.547 0-1-0.453-1-1v-3.333c0-3.867 3.147-7 7-7h3.333c0.547 0 1 0.453 1 1s-0.453 1-1 1h-3.333c-2.76 0-5 2.24-5 5v3.333c0 0.547-0.453 1-1 1z"></path>
<path d="M29.333 13c-0.547 0-1-0.453-1-1v-3.333c0-2.76-2.24-5-5-5h-3.333c-0.547 0-1-0.453-1-1s0.453-1 1-1h3.333c3.853 0 7 3.133 7 7v3.333c0 0.547-0.453 1-1 1z"></path>
<path d="M23.333 30.333h-2c-0.547 0-1-0.453-1-1s0.453-1 1-1h2c2.76 0 5-2.24 5-5v-2c0-0.547 0.453-1 1-1s1 0.453 1 1v2c0 3.867-3.147 7-7 7z"></path>
<path d="M12 30.333h-3.333c-3.853 0-7-3.133-7-7v-3.333c0-0.547 0.453-1 1-1s1 0.453 1 1v3.333c0 2.76 2.24 5 5 5h3.333c0.547 0 1 0.453 1 1s-0.453 1-1 1z"></path>
<path d="M11.333 15.667c-2.387 0-4.333-1.947-4.333-4.333s1.947-4.333 4.333-4.333c2.387 0 4.333 1.947 4.333 4.333s-1.947 4.333-4.333 4.333zM11.333 9c-1.28 0-2.333 1.053-2.333 2.333s1.053 2.333 2.333 2.333c1.28 0 2.333-1.053 2.333-2.333s-1.053-2.333-2.333-2.333z"></path>
<path d="M10 25c-1.653 0-3-1.347-3-3s1.347-3 3-3c1.653 0 3 1.347 3 3s-1.347 3-3 3zM10 21c-0.547 0-1 0.453-1 1s0.453 1 1 1c0.547 0 1-0.453 1-1s-0.453-1-1-1z"></path>
<path d="M22 13c-1.653 0-3-1.347-3-3s1.347-3 3-3c1.653 0 3 1.347 3 3s-1.347 3-3 3zM22 9c-0.547 0-1 0.453-1 1s0.453 1 1 1c0.547 0 1-0.453 1-1s-0.453-1-1-1z"></path>
<path d="M20.667 25c-2.387 0-4.333-1.947-4.333-4.333s1.947-4.333 4.333-4.333c2.387 0 4.333 1.947 4.333 4.333s-1.947 4.333-4.333 4.333zM20.667 18.333c-1.28 0-2.333 1.053-2.333 2.333s1.053 2.333 2.333 2.333c1.28 0 2.333-1.053 2.333-2.333s-1.053-2.333-2.333-2.333z"></path>
</svg>
