<!-- Generated by IcoMoon.io -->
<svg version="1.1" xmlns="http://www.w3.org/2000/svg" width="32" height="32" viewBox="0 0 32 32">
<title>scanner</title>
<path d="M29.333 13c-0.547 0-1-0.453-1-1v-2.667c0-3.44-2.227-5.667-5.667-5.667h-13.333c-3.44 0-5.667 2.227-5.667 5.667v2.667c0 0.547-0.453 1-1 1s-1-0.453-1-1v-2.667c0-4.587 3.080-7.667 7.667-7.667h13.333c4.587 0 7.667 3.080 7.667 7.667v2.667c0 0.547-0.453 1-1 1z"></path>
<path d="M22.667 30.333h-13.333c-4.587 0-7.667-3.080-7.667-7.667v-2.667c0-0.547 0.453-1 1-1s1 0.453 1 1v2.667c0 3.44 2.227 5.667 5.667 5.667h13.333c3.44 0 5.667-2.227 5.667-5.667v-2.667c0-0.547 0.453-1 1-1s1 0.453 1 1v2.667c0 4.587-3.080 7.667-7.667 7.667z"></path>
<path d="M29.333 17h-26.667c-0.547 0-1-0.453-1-1s0.453-1 1-1h26.667c0.547 0 1 0.453 1 1s-0.453 1-1 1z"></path>
</svg>
