<!-- Generated by IcoMoon.io -->
<svg version="1.1" xmlns="http://www.w3.org/2000/svg" width="32" height="32" viewBox="0 0 32 32">
<title>scissor-1</title>
<path d="M7.333 14.333c-3.12 0-5.667-2.547-5.667-5.667s2.547-5.667 5.667-5.667c3.12 0 5.667 2.547 5.667 5.667s-2.547 5.667-5.667 5.667zM7.333 5c-2.027 0-3.667 1.64-3.667 3.667s1.64 3.667 3.667 3.667c2.027 0 3.667-1.64 3.667-3.667s-1.64-3.667-3.667-3.667z"></path>
<path d="M7.333 29c-3.12 0-5.667-2.547-5.667-5.667s2.547-5.667 5.667-5.667c3.12 0 5.667 2.547 5.667 5.667s-2.547 5.667-5.667 5.667zM7.333 19.667c-2.027 0-3.667 1.64-3.667 3.667s1.64 3.667 3.667 3.667c2.027 0 3.667-1.64 3.667-3.667s-1.64-3.667-3.667-3.667z"></path>
<path d="M11.534 22.307c-0.307 0-0.6-0.133-0.8-0.4-0.333-0.44-0.24-1.067 0.2-1.4l17.8-13.307c0.44-0.333 1.067-0.24 1.4 0.2s0.24 1.067-0.2 1.4l-17.8 13.307c-0.173 0.133-0.387 0.2-0.6 0.2z"></path>
<path d="M29.334 24.96c-0.213 0-0.413-0.067-0.6-0.2l-17.8-13.307c-0.44-0.333-0.533-0.96-0.2-1.4s0.96-0.533 1.4-0.2l17.8 13.307c0.44 0.333 0.533 0.96 0.2 1.4-0.2 0.253-0.493 0.4-0.8 0.4z"></path>
</svg>
