<!-- Generated by IcoMoon.io -->
<svg version="1.1" xmlns="http://www.w3.org/2000/svg" width="32" height="32" viewBox="0 0 32 32">
<title>scissor</title>
<path d="M20 30.333h-8c-7.24 0-10.333-3.093-10.333-10.333v-8c0-7.24 3.093-10.333 10.333-10.333h8c7.24 0 10.333 3.093 10.333 10.333v8c0 7.24-3.093 10.333-10.333 10.333zM12 3.667c-6.147 0-8.333 2.187-8.333 8.333v8c0 6.147 2.187 8.333 8.333 8.333h8c6.147 0 8.333-2.187 8.333-8.333v-8c0-6.147-2.187-8.333-8.333-8.333h-8z"></path>
<path d="M11.227 15.533c-1.96 0-3.56-1.6-3.56-3.56s1.6-3.573 3.56-3.573c1.96 0 3.56 1.6 3.56 3.573s-1.587 3.56-3.56 3.56zM11.227 10.4c-0.867 0-1.56 0.707-1.56 1.573s0.707 1.56 1.56 1.56c0.853 0 1.56-0.707 1.56-1.56s-0.693-1.573-1.56-1.573z"></path>
<path d="M11.227 23.6c-1.96 0-3.56-1.6-3.56-3.573s1.6-3.56 3.56-3.56c1.96 0 3.56 1.6 3.56 3.56s-1.587 3.573-3.56 3.573zM11.227 18.467c-0.867 0-1.56 0.707-1.56 1.56s0.707 1.573 1.56 1.573c0.853 0 1.56-0.707 1.56-1.573s-0.693-1.56-1.56-1.56z"></path>
<path d="M13.547 19.92c-0.307 0-0.6-0.133-0.8-0.4-0.333-0.44-0.24-1.067 0.2-1.4l9.787-7.32c0.44-0.333 1.067-0.24 1.4 0.2s0.24 1.067-0.2 1.4l-9.787 7.32c-0.187 0.133-0.387 0.2-0.6 0.2z"></path>
<path d="M23.334 21.373c-0.213 0-0.413-0.067-0.6-0.2l-9.787-7.32c-0.44-0.333-0.533-0.96-0.2-1.4s0.96-0.533 1.4-0.2l9.787 7.32c0.44 0.333 0.533 0.96 0.2 1.4-0.2 0.267-0.493 0.4-0.8 0.4z"></path>
</svg>
