<!-- Generated by IcoMoon.io -->
<svg version="1.1" xmlns="http://www.w3.org/2000/svg" width="32" height="32" viewBox="0 0 32 32">
<title>screenmirroring</title>
<path d="M20 30.333h-8c-7.24 0-10.333-3.093-10.333-10.333v-8c0-7.24 3.093-10.333 10.333-10.333h8c7.24 0 10.333 3.093 10.333 10.333v8c0 7.24-3.093 10.333-10.333 10.333zM12 3.667c-6.147 0-8.333 2.187-8.333 8.333v8c0 6.147 2.187 8.333 8.333 8.333h8c6.147 0 8.333-2.187 8.333-8.333v-8c0-6.147-2.187-8.333-8.333-8.333h-8z"></path>
<path d="M21.867 25.667h-5.067c-2.56 0-3.8-1.24-3.8-3.8v-2.4c0-2.56 1.24-3.8 3.8-3.8h5.067c2.56 0 3.8 1.24 3.8 3.8v2.4c0 2.56-1.24 3.8-3.8 3.8zM16.8 17.667c-1.44 0-1.8 0.36-1.8 1.8v2.4c0 1.44 0.36 1.8 1.8 1.8h5.067c1.44 0 1.8-0.36 1.8-1.8v-2.4c0-1.44-0.36-1.8-1.8-1.8h-5.067z"></path>
</svg>
