<!-- Generated by IcoMoon.io -->
<svg version="1.1" xmlns="http://www.w3.org/2000/svg" width="32" height="32" viewBox="0 0 32 32">
<title>scroll</title>
<path d="M20 30.333h-8c-7.24 0-10.333-3.093-10.333-10.333v-8c0-7.24 3.093-10.333 10.333-10.333h8c7.24 0 10.333 3.093 10.333 10.333v8c0 7.24-3.093 10.333-10.333 10.333zM12 3.667c-6.147 0-8.333 2.187-8.333 8.333v8c0 6.147 2.187 8.333 8.333 8.333h8c6.147 0 8.333-2.187 8.333-8.333v-8c0-6.147-2.187-8.333-8.333-8.333h-8z"></path>
<path d="M12.799 21.040c-0.253 0-0.507-0.093-0.707-0.293l-3.32-3.32c-0.787-0.787-0.787-2.053 0-2.84l3.32-3.32c0.387-0.387 1.027-0.387 1.413 0s0.387 1.027 0 1.413l-3.32 3.32 3.32 3.333c0.387 0.387 0.387 1.027 0 1.413-0.2 0.187-0.453 0.293-0.707 0.293z"></path>
<path d="M19.2 21.040c-0.253 0-0.507-0.093-0.707-0.293-0.387-0.387-0.387-1.027 0-1.413l3.32-3.333-3.32-3.333c-0.387-0.387-0.387-1.027 0-1.413s1.027-0.387 1.413 0l3.32 3.32c0.787 0.787 0.787 2.053 0 2.84l-3.32 3.32c-0.187 0.2-0.453 0.307-0.707 0.307z"></path>
</svg>
