<!-- Generated by IcoMoon.io -->
<svg version="1.1" xmlns="http://www.w3.org/2000/svg" width="32" height="32" viewBox="0 0 32 32">
<title>search-favorite-1</title>
<path d="M15.333 29c-7.533 0-13.667-6.133-13.667-13.667s6.133-13.667 13.667-13.667c0.547 0 1 0.453 1 1s-0.453 1-1 1c-6.44 0-11.667 5.24-11.667 11.667s5.227 11.667 11.667 11.667c6.44 0 11.667-5.24 11.667-11.667 0-0.547 0.453-1 1-1s1 0.453 1 1c0 7.533-6.133 13.667-13.667 13.667z"></path>
<path d="M29.334 30.333c-0.253 0-0.507-0.093-0.707-0.293l-2.667-2.667c-0.387-0.387-0.387-1.027 0-1.413s1.027-0.387 1.413 0l2.667 2.667c0.387 0.387 0.387 1.027 0 1.413-0.2 0.2-0.453 0.293-0.707 0.293z"></path>
<path d="M23.333 12.72c-1.227 0-4.080-1.493-4.96-4.24-0.6-1.88 0.093-4.347 2.267-5.053 0.933-0.307 1.907-0.16 2.68 0.333 0.76-0.493 1.76-0.627 2.693-0.333 2.173 0.707 2.88 3.173 2.267 5.053-0.867 2.8-3.867 4.24-4.947 4.24zM20.28 7.88c0.613 1.933 2.693 2.813 3.067 2.853 0.427-0.040 2.467-1.027 3.027-2.84 0.307-0.973 0-2.227-0.973-2.547-0.413-0.133-0.973-0.053-1.24 0.333-0.187 0.28-0.48 0.44-0.813 0.453-0.293 0.013-0.64-0.147-0.827-0.413-0.307-0.44-0.867-0.507-1.267-0.387-0.96 0.32-1.28 1.573-0.973 2.547z"></path>
</svg>
