<!-- Generated by IcoMoon.io -->
<svg version="1.1" xmlns="http://www.w3.org/2000/svg" width="32" height="32" viewBox="0 0 32 32">
<title>search-favorite</title>
<path d="M14.667 27.667c-7.173 0-13-5.827-13-13s5.827-13 13-13c0.547 0 1 0.453 1 1s-0.453 1-1 1c-6.067 0-11 4.933-11 11s4.933 11 11 11c6.067 0 11-4.933 11-11 0-0.547 0.453-1 1-1s1 0.453 1 1c0 7.173-5.827 13-13 13z"></path>
<path d="M22 12.72c-1.227 0-4.080-1.493-4.96-4.24-0.6-1.88 0.093-4.347 2.267-5.053 0.933-0.307 1.907-0.16 2.68 0.333 0.76-0.493 1.76-0.627 2.693-0.333 2.173 0.707 2.88 3.173 2.267 5.053-0.867 2.8-3.867 4.24-4.947 4.24zM18.947 7.88c0.613 1.933 2.693 2.813 3.067 2.853 0.427-0.040 2.467-1.027 3.027-2.84 0.307-0.973 0-2.227-0.973-2.547-0.413-0.133-0.973-0.053-1.24 0.333-0.187 0.28-0.48 0.44-0.813 0.453-0.307 0.013-0.64-0.147-0.827-0.413-0.307-0.44-0.867-0.507-1.267-0.387-0.96 0.32-1.28 1.573-0.973 2.547z"></path>
<path d="M26.88 30.387c-0.107 0-0.213-0.013-0.307-0.027-0.627-0.080-1.76-0.507-2.4-2.413-0.333-1-0.213-2 0.333-2.76s1.467-1.187 2.52-1.187c1.36 0 2.427 0.52 2.907 1.44s0.347 2.093-0.413 3.227c-0.947 1.427-1.973 1.72-2.64 1.72zM26.080 27.32c0.227 0.693 0.547 1.040 0.76 1.067s0.613-0.227 1.027-0.827c0.387-0.573 0.413-0.987 0.32-1.173s-0.467-0.387-1.16-0.387c-0.413 0-0.72 0.133-0.893 0.36-0.16 0.227-0.187 0.573-0.053 0.96z"></path>
</svg>
