<!-- Generated by IcoMoon.io -->
<svg version="1.1" xmlns="http://www.w3.org/2000/svg" width="32" height="32" viewBox="0 0 32 32">
<title>search-status</title>
<path d="M14.667 27.667c-7.173 0-13-5.827-13-13s5.827-13 13-13c0.547 0 1 0.453 1 1s-0.453 1-1 1c-6.067 0-11 4.933-11 11s4.933 11 11 11c6.067 0 11-4.933 11-11 0-0.547 0.453-1 1-1s1 0.453 1 1c0 7.173-5.827 13-13 13z"></path>
<path d="M26.667 7.667h-8c-0.547 0-1-0.453-1-1s0.453-1 1-1h8c0.547 0 1 0.453 1 1s-0.453 1-1 1z"></path>
<path d="M22.667 11.667h-4c-0.547 0-1-0.453-1-1s0.453-1 1-1h4c0.547 0 1 0.453 1 1s-0.453 1-1 1z"></path>
<path d="M26.88 30.387c-0.107 0-0.213-0.013-0.307-0.027-0.627-0.080-1.76-0.507-2.4-2.413-0.333-1-0.213-2 0.333-2.76s1.467-1.187 2.52-1.187c1.36 0 2.427 0.52 2.907 1.44s0.347 2.093-0.413 3.227c-0.947 1.427-1.973 1.72-2.64 1.72zM26.080 27.32c0.227 0.693 0.547 1.040 0.76 1.067s0.613-0.227 1.027-0.827c0.387-0.573 0.413-0.987 0.32-1.173s-0.467-0.387-1.16-0.387c-0.413 0-0.72 0.133-0.893 0.36-0.16 0.227-0.187 0.573-0.053 0.96z"></path>
</svg>
