<!-- Generated by IcoMoon.io -->
<svg version="1.1" xmlns="http://www.w3.org/2000/svg" width="32" height="32" viewBox="0 0 32 32">
<title>security-safe</title>
<path d="M16 30.333c-0.32 0-0.64-0.040-0.947-0.133-6.92-1.907-11.933-8.373-11.933-15.387v-5.853c0-1.493 1.080-3.107 2.467-3.68l7.427-3.040c1.933-0.787 4.053-0.787 5.973 0l7.427 3.040c1.387 0.573 2.467 2.187 2.467 3.68v5.853c0 7-5.027 13.467-11.933 15.387-0.307 0.093-0.627 0.133-0.947 0.133zM16 3.667c-0.76 0-1.507 0.147-2.227 0.44l-7.427 3.040c-0.64 0.267-1.227 1.133-1.227 1.827v5.853c0 6.12 4.4 11.773 10.467 13.453 0.267 0.080 0.56 0.080 0.827 0 6.067-1.68 10.467-7.333 10.467-13.453v-5.853c0-0.693-0.587-1.56-1.227-1.827l-7.427-3.040c-0.72-0.293-1.467-0.44-2.227-0.44z"></path>
<path d="M16 17.667c-2.027 0-3.667-1.64-3.667-3.667s1.64-3.667 3.667-3.667c2.027 0 3.667 1.64 3.667 3.667s-1.64 3.667-3.667 3.667zM16 12.333c-0.92 0-1.667 0.747-1.667 1.667s0.747 1.667 1.667 1.667c0.92 0 1.667-0.747 1.667-1.667s-0.747-1.667-1.667-1.667z"></path>
<path d="M16 21.667c-0.547 0-1-0.453-1-1v-4c0-0.547 0.453-1 1-1s1 0.453 1 1v4c0 0.547-0.453 1-1 1z"></path>
</svg>
