<!-- Generated by IcoMoon.io -->
<svg version="1.1" xmlns="http://www.w3.org/2000/svg" width="32" height="32" viewBox="0 0 32 32">
<title>security-time</title>
<path d="M16.001 30.347c-1.453 0-2.893-0.427-4.027-1.267l-5.733-4.28c-1.52-1.133-2.707-3.507-2.707-5.387v-9.92c0-2.053 1.507-4.24 3.44-4.96l6.653-2.493c1.32-0.493 3.4-0.493 4.72 0l6.653 2.493c1.933 0.72 3.44 2.907 3.44 4.96v9.907c0 1.893-1.187 4.253-2.707 5.387l-5.733 4.28c-1.107 0.853-2.547 1.28-4 1.28zM14.334 3.92l-6.653 2.493c-1.133 0.427-2.133 1.867-2.133 3.093v9.907c0 1.267 0.893 3.040 1.893 3.787l5.733 4.28c1.533 1.147 4.12 1.147 5.667 0l5.733-4.28c1.013-0.76 1.893-2.52 1.893-3.787v-9.92c0-1.213-1-2.653-2.133-3.093l-6.653-2.493c-0.907-0.32-2.453-0.32-3.347 0.013z"></path>
<path d="M16 21.667c-3.493 0-6.333-2.84-6.333-6.333s2.84-6.333 6.333-6.333c3.493 0 6.333 2.84 6.333 6.333s-2.84 6.333-6.333 6.333zM16 11c-2.387 0-4.333 1.947-4.333 4.333s1.947 4.333 4.333 4.333c2.387 0 4.333-1.947 4.333-4.333s-1.947-4.333-4.333-4.333z"></path>
<path d="M14.667 17.667c-0.333 0-0.667-0.173-0.853-0.48-0.28-0.48-0.133-1.093 0.347-1.373l1.013-0.613c0.107-0.067 0.16-0.173 0.16-0.28v-1.24c0-0.547 0.453-1 1-1s1 0.44 1 0.987v1.24c0 0.813-0.44 1.587-1.133 2l-1.027 0.613c-0.147 0.107-0.333 0.147-0.507 0.147z"></path>
</svg>
