<!-- Generated by IcoMoon.io -->
<svg version="1.1" xmlns="http://www.w3.org/2000/svg" width="32" height="32" viewBox="0 0 32 32">
<title>security-user</title>
<path d="M16.001 30.347c-1.453 0-2.893-0.427-4.027-1.267l-5.733-4.28c-1.52-1.133-2.707-3.493-2.707-5.387v-9.907c0-2.053 1.507-4.24 3.44-4.96l6.653-2.493c1.32-0.493 3.4-0.493 4.72 0l6.667 2.493c1.933 0.72 3.44 2.907 3.44 4.96v9.907c0 1.893-1.187 4.253-2.707 5.387l-5.733 4.28c-1.12 0.84-2.56 1.267-4.013 1.267zM14.334 3.92l-6.653 2.493c-1.147 0.427-2.147 1.867-2.147 3.093v9.907c0 1.267 0.893 3.040 1.893 3.787l5.733 4.28c1.533 1.147 4.133 1.147 5.667 0l5.733-4.28c1.013-0.76 1.893-2.533 1.893-3.787v-9.907c0-1.213-1-2.653-2.147-3.093l-6.653-2.493c-0.88-0.333-2.427-0.333-3.32 0z"></path>
<path d="M16 15.56c-0.027 0-0.053 0-0.093 0-1.933-0.053-3.347-1.533-3.347-3.333 0-1.84 1.507-3.347 3.347-3.347s3.347 1.507 3.347 3.347c-0.013 1.813-1.427 3.28-3.227 3.347-0.013-0.013-0.013-0.013-0.027-0.013zM15.907 10.88c-0.747 0-1.347 0.6-1.347 1.347 0 0.733 0.573 1.32 1.293 1.347 0 0 0.067 0 0.147 0 0.707-0.040 1.253-0.627 1.253-1.347 0.013-0.747-0.6-1.347-1.347-1.347z"></path>
<path d="M16.001 23.133c-1.147 0-2.307-0.307-3.2-0.907-0.893-0.587-1.4-1.453-1.4-2.373s0.507-1.787 1.4-2.387c1.8-1.2 4.613-1.187 6.4 0 0.893 0.587 1.4 1.453 1.4 2.373s-0.507 1.787-1.4 2.387c-0.893 0.6-2.053 0.907-3.2 0.907zM13.908 19.12c-0.333 0.213-0.52 0.48-0.507 0.72 0 0.24 0.187 0.507 0.507 0.72 1.12 0.747 3.067 0.747 4.187 0 0.333-0.213 0.52-0.48 0.52-0.72s-0.187-0.507-0.507-0.72c-1.12-0.733-3.080-0.733-4.2 0z"></path>
</svg>
