<!-- Generated by IcoMoon.io -->
<svg version="1.1" xmlns="http://www.w3.org/2000/svg" width="32" height="32" viewBox="0 0 32 32">
<title>security-card</title>
<path d="M14.080 30.28c-1.44 0-2.893-0.413-4.013-1.253l-5.707-4.267c-1.507-1.12-2.68-3.48-2.68-5.373v-9.88c0-2.040 1.493-4.213 3.413-4.933l6.64-2.493c1.32-0.493 3.387-0.493 4.707 0l6.627 2.493c1.56 0.587 2.88 2.147 3.307 3.88 0.067 0.293 0 0.613-0.187 0.853s-0.48 0.387-0.787 0.387l-10.547 0.013c-1.693 0.107-2.107 0.387-2.107 2.853v7.24c0 2.547 0.333 2.867 2.92 2.867h7.893c0.413 0 0.787 0.253 0.933 0.64s0.040 0.827-0.267 1.107c-0.147 0.12-0.267 0.24-0.413 0.347l-5.707 4.28c-1.147 0.827-2.587 1.24-4.027 1.24zM14.080 3.72c-0.6 0-1.213 0.080-1.653 0.253l-6.64 2.493c-1.12 0.427-2.12 1.853-2.12 3.067v9.88c0 1.253 0.88 3.013 1.88 3.76l5.707 4.267c1.533 1.133 4.107 1.133 5.64 0l3.693-2.76h-4.933c-3.68 0-4.92-1.227-4.92-4.867v-7.24c0-2.84 0.68-4.64 4.053-4.853l0.867-0.013h8.2c-0.4-0.573-0.933-1.027-1.493-1.24l-6.627-2.493c-0.453-0.173-1.053-0.253-1.653-0.253z"></path>
<path d="M29.334 15.96h-17.6c-0.547 0-1-0.453-1-1s0.453-1 1-1h17.6c0.547 0 1 0.453 1 1s-0.453 1-1 1z"></path>
<path d="M25.414 24.667h-9.76c-3.68 0-4.92-1.227-4.92-4.867v-7.24c0-2.84 0.68-4.64 4.053-4.853l0.867-0.013h9.76c3.68 0 4.92 1.227 4.92 4.867v7.4c-0.027 3.52-1.267 4.707-4.92 4.707zM15.654 9.693l-0.813 0.013c-1.693 0.107-2.107 0.387-2.107 2.853v7.24c0 2.547 0.333 2.867 2.92 2.867h9.76c2.547 0 2.893-0.333 2.92-2.707v-7.387c0-2.547-0.333-2.867-2.92-2.867h-9.76v-0.013z"></path>
<path d="M16.867 21.346h-1.787c-0.547 0-1-0.453-1-1s0.453-1 1-1h1.787c0.547 0 1 0.453 1 1s-0.44 1-1 1z"></path>
<path d="M24.027 21.346h-4.36c-0.547 0-1-0.453-1-1s0.453-1 1-1h4.36c0.547 0 1 0.453 1 1s-0.44 1-1 1z"></path>
</svg>
