<!-- Generated by IcoMoon.io -->
<svg version="1.1" xmlns="http://www.w3.org/2000/svg" width="32" height="32" viewBox="0 0 32 32">
<title>send-2</title>
<path d="M18.961 28.84c-1.573 0-3.8-1.107-5.56-6.4l-0.96-2.88-2.88-0.96c-5.28-1.76-6.387-3.987-6.387-5.56 0-1.56 1.107-3.8 6.387-5.573l11.32-3.773c2.827-0.947 5.187-0.667 6.64 0.773s1.733 3.813 0.787 6.64l-3.773 11.32c-1.773 5.307-4 6.413-5.573 6.413zM10.188 9.373c-3.707 1.24-5.027 2.707-5.027 3.667s1.32 2.427 5.027 3.653l3.36 1.12c0.293 0.093 0.533 0.333 0.627 0.627l1.12 3.36c1.227 3.707 2.707 5.027 3.667 5.027s2.427-1.32 3.667-5.027l3.773-11.32c0.68-2.053 0.56-3.733-0.307-4.6s-2.547-0.973-4.587-0.293l-11.32 3.787z"></path>
<path d="M13.481 19.2c-0.253 0-0.507-0.093-0.707-0.293-0.387-0.387-0.387-1.027 0-1.413l4.773-4.787c0.387-0.387 1.027-0.387 1.413 0s0.387 1.027 0 1.413l-4.773 4.787c-0.187 0.2-0.453 0.293-0.707 0.293z"></path>
</svg>
