<!-- Generated by IcoMoon.io -->
<svg version="1.1" xmlns="http://www.w3.org/2000/svg" width="32" height="32" viewBox="0 0 32 32">
<title>send-1</title>
<path d="M7.213 29c-1.493 0-2.44-0.507-3.040-1.107-1.173-1.173-2-3.667 0.64-8.96l1.16-2.307c0.147-0.307 0.147-0.947 0-1.253l-1.16-2.307c-2.653-5.293-1.813-7.8-0.64-8.96 1.16-1.173 3.667-2.013 8.947 0.64l11.413 5.707c2.84 1.413 4.4 3.387 4.4 5.547s-1.56 4.133-4.387 5.547l-11.413 5.707c-2.587 1.293-4.507 1.747-5.92 1.747zM7.213 5c-0.72 0-1.28 0.173-1.627 0.52-0.973 0.96-0.587 3.453 1.013 6.64l1.16 2.32c0.427 0.867 0.427 2.173 0 3.040l-1.16 2.307c-1.6 3.2-1.987 5.68-1.013 6.64 0.96 0.973 3.453 0.587 6.653-1.013l11.413-5.707c2.093-1.040 3.28-2.413 3.28-3.76s-1.2-2.72-3.293-3.76l-11.413-5.693c-2.027-1.013-3.773-1.533-5.013-1.533z"></path>
<path d="M14.453 17h-7.2c-0.547 0-1-0.453-1-1s0.453-1 1-1h7.2c0.547 0 1 0.453 1 1s-0.453 1-1 1z"></path>
</svg>
