<!-- Generated by IcoMoon.io -->
<svg version="1.1" xmlns="http://www.w3.org/2000/svg" width="32" height="32" viewBox="0 0 32 32">
<title>setting-2</title>
<path d="M16 21c-2.76 0-5-2.24-5-5s2.24-5 5-5c2.76 0 5 2.24 5 5s-2.24 5-5 5zM16 13c-1.653 0-3 1.347-3 3s1.347 3 3 3c1.653 0 3-1.347 3-3s-1.347-3-3-3z"></path>
<path d="M20.28 29.586c-0.28 0-0.56-0.040-0.84-0.107-0.827-0.227-1.52-0.747-1.96-1.48l-0.16-0.267c-0.787-1.36-1.867-1.36-2.653 0l-0.147 0.253c-0.44 0.747-1.133 1.28-1.96 1.493-0.84 0.227-1.707 0.107-2.44-0.333l-2.293-1.32c-0.813-0.467-1.4-1.227-1.653-2.147-0.24-0.92-0.12-1.867 0.347-2.68 0.387-0.68 0.493-1.293 0.267-1.68s-0.8-0.613-1.587-0.613c-1.947 0-3.533-1.587-3.533-3.533v-2.347c0-1.947 1.587-3.533 3.533-3.533 0.787 0 1.36-0.227 1.587-0.613s0.133-1-0.267-1.68c-0.467-0.813-0.587-1.773-0.347-2.68 0.24-0.92 0.827-1.68 1.653-2.147l2.307-1.32c1.507-0.893 3.493-0.373 4.4 1.16l0.16 0.267c0.787 1.36 1.867 1.36 2.653 0l0.147-0.253c0.907-1.547 2.893-2.067 4.413-1.16l2.293 1.32c0.813 0.467 1.4 1.227 1.653 2.147 0.24 0.92 0.12 1.867-0.347 2.68-0.387 0.68-0.493 1.293-0.267 1.68s0.8 0.613 1.587 0.613c1.947 0 3.533 1.587 3.533 3.533v2.347c0 1.947-1.587 3.533-3.533 3.533-0.787 0-1.36 0.227-1.587 0.613s-0.133 1 0.267 1.68c0.467 0.813 0.6 1.773 0.347 2.68-0.24 0.92-0.827 1.68-1.653 2.147l-2.307 1.32c-0.507 0.28-1.053 0.427-1.613 0.427zM16 24.653c1.187 0 2.293 0.747 3.053 2.067l0.147 0.253c0.16 0.28 0.427 0.48 0.747 0.56s0.64 0.040 0.907-0.12l2.307-1.333c0.347-0.2 0.613-0.533 0.72-0.933s0.053-0.813-0.147-1.16c-0.76-1.307-0.853-2.653-0.267-3.68s1.8-1.613 3.32-1.613c0.853 0 1.533-0.68 1.533-1.533v-2.347c0-0.84-0.68-1.533-1.533-1.533-1.52 0-2.733-0.587-3.32-1.613s-0.493-2.373 0.267-3.68c0.2-0.347 0.253-0.76 0.147-1.16s-0.36-0.72-0.707-0.933l-2.307-1.32c-0.573-0.347-1.333-0.147-1.68 0.44l-0.147 0.253c-0.76 1.32-1.867 2.067-3.053 2.067s-2.293-0.747-3.053-2.067l-0.147-0.267c-0.333-0.56-1.080-0.76-1.653-0.427l-2.307 1.333c-0.347 0.2-0.613 0.533-0.72 0.933s-0.053 0.813 0.147 1.16c0.76 1.307 0.853 2.653 0.267 3.68s-1.8 1.613-3.32 1.613c-0.853 0-1.533 0.68-1.533 1.533v2.347c0 0.84 0.68 1.533 1.533 1.533 1.52 0 2.733 0.587 3.32 1.613s0.493 2.373-0.267 3.68c-0.2 0.347-0.253 0.76-0.147 1.16s0.36 0.72 0.707 0.933l2.307 1.32c0.28 0.173 0.613 0.213 0.92 0.133 0.32-0.080 0.587-0.293 0.76-0.573l0.147-0.253c0.76-1.307 1.867-2.067 3.053-2.067z"></path>
</svg>
