<!-- Generated by IcoMoon.io -->
<svg version="1.1" xmlns="http://www.w3.org/2000/svg" width="32" height="32" viewBox="0 0 32 32">
<title>setting-3</title>
<path d="M20 30.333h-8c-7.24 0-10.333-3.093-10.333-10.333v-8c0-7.24 3.093-10.333 10.333-10.333h8c7.24 0 10.333 3.093 10.333 10.333v8c0 7.24-3.093 10.333-10.333 10.333zM12 3.667c-6.147 0-8.333 2.187-8.333 8.333v8c0 6.147 2.187 8.333 8.333 8.333h8c6.147 0 8.333-2.187 8.333-8.333v-8c0-6.147-2.187-8.333-8.333-8.333h-8z"></path>
<path d="M20.773 25.667c-0.547 0-1-0.453-1-1v-5.2c0-0.547 0.453-1 1-1s1 0.453 1 1v5.2c0 0.547-0.453 1-1 1z"></path>
<path d="M20.773 10.933c-0.547 0-1-0.453-1-1v-2.6c0-0.547 0.453-1 1-1s1 0.453 1 1v2.6c0 0.547-0.453 1-1 1z"></path>
<path d="M20.774 17.867c-2.467 0-4.467-2-4.467-4.467s2-4.467 4.467-4.467c2.467 0 4.467 2 4.467 4.467s-2.013 4.467-4.467 4.467zM20.774 10.934c-1.36 0-2.467 1.107-2.467 2.467s1.107 2.467 2.467 2.467c1.36 0 2.467-1.107 2.467-2.467s-1.12-2.467-2.467-2.467z"></path>
<path d="M11.227 25.666c-0.547 0-1-0.453-1-1v-2.6c0-0.547 0.453-1 1-1s1 0.453 1 1v2.6c0 0.547-0.44 1-1 1z"></path>
<path d="M11.227 13.533c-0.547 0-1-0.453-1-1v-5.2c0-0.547 0.453-1 1-1s1 0.453 1 1v5.2c0 0.547-0.44 1-1 1z"></path>
<path d="M11.227 23.067c-2.467 0-4.467-2-4.467-4.467s2-4.467 4.467-4.467c2.467 0 4.467 2 4.467 4.467s-2 4.467-4.467 4.467zM11.227 16.133c-1.36 0-2.467 1.107-2.467 2.467s1.107 2.467 2.467 2.467c1.36 0 2.467-1.107 2.467-2.467s-1.093-2.467-2.467-2.467z"></path>
</svg>
