<!-- Generated by IcoMoon.io -->
<svg version="1.1" xmlns="http://www.w3.org/2000/svg" width="32" height="32" viewBox="0 0 32 32">
<title>setting-5</title>
<path d="M25.333 30.333c-0.547 0-1-0.453-1-1v-14.667c0-0.547 0.453-1 1-1s1 0.453 1 1v14.667c0 0.547-0.453 1-1 1z"></path>
<path d="M25.333 10.333c-0.547 0-1-0.453-1-1v-6.667c0-0.547 0.453-1 1-1s1 0.453 1 1v6.667c0 0.547-0.453 1-1 1z"></path>
<path d="M16 30.333c-0.547 0-1-0.453-1-1v-6.667c0-0.547 0.453-1 1-1s1 0.453 1 1v6.667c0 0.547-0.453 1-1 1z"></path>
<path d="M16 18.333c-0.547 0-1-0.453-1-1v-14.667c0-0.547 0.453-1 1-1s1 0.453 1 1v14.667c0 0.547-0.453 1-1 1z"></path>
<path d="M6.667 30.333c-0.547 0-1-0.453-1-1v-14.667c0-0.547 0.453-1 1-1s1 0.453 1 1v14.667c0 0.547-0.453 1-1 1z"></path>
<path d="M6.667 10.333c-0.547 0-1-0.453-1-1v-6.667c0-0.547 0.453-1 1-1s1 0.453 1 1v6.667c0 0.547-0.453 1-1 1z"></path>
<path d="M9.333 15.667h-5.333c-0.547 0-1-0.453-1-1s0.453-1 1-1h5.333c0.547 0 1 0.453 1 1s-0.453 1-1 1z"></path>
<path d="M28 15.667h-5.333c-0.547 0-1-0.453-1-1s0.453-1 1-1h5.333c0.547 0 1 0.453 1 1s-0.453 1-1 1z"></path>
<path d="M18.667 18.333h-5.333c-0.547 0-1-0.453-1-1s0.453-1 1-1h5.333c0.547 0 1 0.453 1 1s-0.453 1-1 1z"></path>
</svg>
