<!-- Generated by IcoMoon.io -->
<svg version="1.1" xmlns="http://www.w3.org/2000/svg" width="32" height="32" viewBox="0 0 32 32">
<title>shapes</title>
<path d="M17.906 21h-12.040c-1.493 0-2.853-0.773-3.613-2.067s-0.787-2.84-0.067-4.16l6.013-10.947c0.747-1.36 2.12-2.173 3.68-2.173s2.933 0.813 3.68 2.173l6.027 10.947c0.72 1.307 0.693 2.867-0.067 4.16s-2.12 2.067-3.613 2.067zM11.88 3.667c-0.813 0-1.533 0.427-1.92 1.133l-6.013 10.947c-0.373 0.693-0.36 1.493 0.027 2.173 0.4 0.68 1.107 1.080 1.893 1.080h12.040c0.787 0 1.493-0.4 1.893-1.080s0.413-1.48 0.027-2.173l-6.027-10.947c-0.387-0.707-1.107-1.133-1.92-1.133z"></path>
<path d="M20.667 30.333c-5.333 0-9.667-4.333-9.667-9.667 0-0.24 0.013-0.48 0.027-0.72 0.027-0.533 0.467-0.947 1-0.947h5.88c0.787 0 1.493-0.4 1.893-1.080s0.413-1.48 0.027-2.173l-1.707-3.107c-0.16-0.28-0.16-0.613-0.027-0.907s0.4-0.493 0.707-0.56c0.6-0.12 1.227-0.173 1.867-0.173 5.333 0 9.667 4.333 9.667 9.667s-4.333 9.667-9.667 9.667zM13.013 21c0.173 4.080 3.547 7.333 7.653 7.333 4.227 0 7.667-3.44 7.667-7.667s-3.44-7.667-7.667-7.667c-0.027 0-0.040 0-0.067 0l0.987 1.787c0.72 1.307 0.693 2.867-0.067 4.16s-2.107 2.067-3.613 2.067h-4.893v-0.013z"></path>
</svg>
