<!-- Generated by IcoMoon.io -->
<svg version="1.1" xmlns="http://www.w3.org/2000/svg" width="32" height="32" viewBox="0 0 32 32">
<title>shapes-1</title>
<path d="M15.628 30.333h-6c-5.533 0-8-2.467-8-8v-6c0-5.533 2.467-8 8-8h6c5.533 0 8 2.467 8 8v6c0 5.533-2.467 8-8 8zM9.628 10.333c-4.427 0-6 1.573-6 6v6c0 4.427 1.573 6 6 6h6c4.427 0 6-1.573 6-6v-6c0-4.427-1.573-6-6-6h-6z"></path>
<path d="M22.626 18.293c-0.253 0-0.493-0.093-0.68-0.267-0.213-0.187-0.32-0.453-0.32-0.733v-0.96c0-4.427-1.573-6-6-6h-0.96c-0.28 0-0.547-0.12-0.733-0.32-0.187-0.213-0.28-0.48-0.253-0.76 0.387-4.32 3.947-7.573 8.293-7.573 4.16 0 7.707 3.107 8.24 7.227 0.053 0.32 0.093 0.707 0.093 1.107 0 4.347-3.253 7.907-7.573 8.293-0.040-0.013-0.067-0.013-0.107-0.013zM15.852 8.333c5.293 0.067 7.707 2.467 7.773 7.773 2.72-0.72 4.667-3.187 4.667-6.107 0-0.28-0.027-0.547-0.067-0.8-0.413-3.173-3.107-5.533-6.267-5.533-2.92 0-5.373 1.947-6.107 4.667z"></path>
</svg>
