<!-- Generated by IcoMoon.io -->
<svg version="1.1" xmlns="http://www.w3.org/2000/svg" width="32" height="32" viewBox="0 0 32 32">
<title>share</title>
<path d="M27.493 17.427c-0.507 0-0.933-0.387-1-0.893-0.32-3.013-1.947-5.747-4.453-7.48-0.453-0.32-0.56-0.933-0.253-1.387 0.32-0.453 0.947-0.56 1.387-0.253 2.987 2.067 4.907 5.32 5.293 8.907 0.053 0.547-0.333 1.040-0.893 1.107-0.013 0-0.053 0-0.080 0z"></path>
<path d="M4.653 17.493c-0.040 0-0.067 0-0.107 0-0.547-0.067-0.947-0.56-0.893-1.107 0.36-3.587 2.267-6.827 5.213-8.92 0.453-0.32 1.080-0.213 1.4 0.24s0.213 1.080-0.24 1.4c-2.48 1.747-4.080 4.48-4.387 7.493-0.040 0.507-0.48 0.893-0.987 0.893z"></path>
<path d="M16.080 30.147c-1.973 0-3.853-0.453-5.613-1.333-0.493-0.253-0.693-0.853-0.44-1.347s0.853-0.693 1.347-0.44c2.88 1.453 6.347 1.48 9.253 0.080 0.493-0.24 1.093-0.027 1.333 0.467s0.027 1.093-0.467 1.333c-1.707 0.827-3.52 1.24-5.413 1.24z"></path>
<path d="M16.079 11.253c-2.6 0-4.707-2.107-4.707-4.707s2.107-4.707 4.707-4.707c2.6 0 4.707 2.107 4.707 4.707s-2.12 4.707-4.707 4.707zM16.079 3.853c-1.493 0-2.707 1.213-2.707 2.707s1.213 2.707 2.707 2.707c1.493 0 2.707-1.213 2.707-2.707s-1.227-2.707-2.707-2.707z"></path>
<path d="M6.441 27.56c-2.6 0-4.707-2.107-4.707-4.707 0-2.587 2.107-4.707 4.707-4.707s4.707 2.107 4.707 4.707c0 2.587-2.107 4.707-4.707 4.707zM6.441 20.147c-1.493 0-2.707 1.213-2.707 2.707s1.213 2.707 2.707 2.707c1.493 0 2.707-1.213 2.707-2.707s-1.213-2.707-2.707-2.707z"></path>
<path d="M25.561 27.56c-2.6 0-4.707-2.107-4.707-4.707 0-2.587 2.107-4.707 4.707-4.707s4.707 2.107 4.707 4.707c-0.013 2.587-2.12 4.707-4.707 4.707zM25.561 20.147c-1.493 0-2.707 1.213-2.707 2.707s1.213 2.707 2.707 2.707c1.493 0 2.707-1.213 2.707-2.707-0.013-1.493-1.213-2.707-2.707-2.707z"></path>
</svg>
