<!-- Generated by IcoMoon.io -->
<svg version="1.1" xmlns="http://www.w3.org/2000/svg" width="32" height="32" viewBox="0 0 32 32">
<title>shield-search</title>
<path d="M16.001 30.333c-1.507 0-2.947-0.44-4.027-1.253l-5.733-4.28c-1.52-1.133-2.707-3.493-2.707-5.387v-9.92c0-2.053 1.507-4.24 3.44-4.96l6.653-2.493c1.32-0.493 3.4-0.493 4.72 0l6.667 2.493c1.933 0.72 3.44 2.907 3.44 4.96v4.573c0 0.547-0.453 1-1 1s-1-0.453-1-1v-4.573c0-1.213-1-2.653-2.147-3.093l-6.653-2.493c-0.88-0.333-2.44-0.333-3.32 0l-6.653 2.507c-1.147 0.427-2.147 1.867-2.147 3.093v9.907c0 1.267 0.893 3.040 1.893 3.787l5.733 4.28c0.733 0.547 1.76 0.853 2.827 0.853 0.547 0 1 0.453 1 1s-0.44 1-0.987 1z"></path>
<path d="M21.333 27.667c-3.493 0-6.333-2.84-6.333-6.333s2.84-6.333 6.333-6.333c3.493 0 6.333 2.84 6.333 6.333s-2.84 6.333-6.333 6.333zM21.333 17.013c-2.387 0-4.333 1.947-4.333 4.333s1.947 4.333 4.333 4.333c2.387 0 4.333-1.947 4.333-4.333s-1.947-4.333-4.333-4.333z"></path>
<path d="M28 29.333c-0.093 0-0.173-0.013-0.267-0.027-0.080-0.013-0.16-0.040-0.24-0.080-0.080-0.027-0.16-0.067-0.24-0.12-0.067-0.053-0.133-0.107-0.2-0.16-0.24-0.253-0.387-0.6-0.387-0.947 0-0.173 0.040-0.347 0.107-0.507s0.16-0.307 0.28-0.44c0.493-0.493 1.4-0.493 1.893 0 0.12 0.133 0.213 0.28 0.28 0.44s0.107 0.333 0.107 0.507c0 0.347-0.147 0.693-0.387 0.947-0.253 0.24-0.6 0.387-0.947 0.387z"></path>
</svg>
