<!-- Generated by IcoMoon.io -->
<svg version="1.1" xmlns="http://www.w3.org/2000/svg" width="32" height="32" viewBox="0 0 32 32">
<title>shield-slash</title>
<path d="M16 30.347c-1.453 0-2.893-0.427-4.027-1.267l-2.12-1.587c-0.44-0.333-0.533-0.96-0.2-1.4s0.96-0.533 1.4-0.2l2.12 1.587c1.533 1.147 4.133 1.147 5.667 0l5.733-4.28c1.013-0.76 1.893-2.533 1.893-3.787v-9.92c0-0.547 0.453-1 1-1s1 0.453 1 1v9.907c0 1.893-1.187 4.253-2.707 5.387l-5.733 4.28c-1.133 0.853-2.573 1.28-4.027 1.28z"></path>
<path d="M7.107 25.2c-0.213 0-0.413-0.067-0.6-0.2l-0.267-0.2c-1.52-1.133-2.707-3.507-2.707-5.387v-9.92c0-2.053 1.507-4.24 3.44-4.96l6.653-2.493c1.32-0.493 3.4-0.493 4.72 0l6.667 2.493c0.28 0.107 0.547 0.24 0.813 0.4 0.467 0.293 0.613 0.907 0.32 1.373s-0.907 0.613-1.373 0.32c-0.147-0.093-0.293-0.173-0.453-0.227l-6.667-2.493c-0.88-0.333-2.44-0.333-3.32 0l-6.653 2.507c-1.147 0.427-2.147 1.867-2.147 3.093v9.907c0 1.267 0.893 3.040 1.893 3.787l0.267 0.2c0.44 0.333 0.533 0.96 0.2 1.4-0.173 0.253-0.48 0.4-0.787 0.4z"></path>
<path d="M2.666 30.333c-0.253 0-0.507-0.093-0.707-0.293-0.387-0.387-0.387-1.027 0-1.413l26.667-26.667c0.387-0.387 1.027-0.387 1.413 0s0.387 1.027 0 1.413l-26.667 26.667c-0.2 0.2-0.453 0.293-0.707 0.293z"></path>
</svg>
