<!-- Generated by IcoMoon.io -->
<svg version="1.1" xmlns="http://www.w3.org/2000/svg" width="32" height="32" viewBox="0 0 32 32">
<title>shield-tick</title>
<path d="M16.001 30.347c-1.453 0-2.893-0.427-4.027-1.267l-5.733-4.28c-1.52-1.133-2.707-3.507-2.707-5.387v-9.92c0-2.053 1.507-4.24 3.44-4.96l6.653-2.493c1.32-0.493 3.4-0.493 4.72 0l6.653 2.493c1.933 0.72 3.44 2.907 3.44 4.96v9.907c0 1.893-1.187 4.253-2.707 5.387l-5.733 4.28c-1.107 0.853-2.547 1.28-4 1.28zM14.334 3.92l-6.653 2.493c-1.133 0.427-2.133 1.867-2.133 3.093v9.907c0 1.267 0.893 3.040 1.893 3.787l5.733 4.28c1.533 1.147 4.12 1.147 5.667 0l5.733-4.28c1.013-0.76 1.893-2.52 1.893-3.787v-9.92c0-1.213-1-2.653-2.133-3.093l-6.653-2.493c-0.907-0.32-2.453-0.32-3.347 0.013z"></path>
<path d="M14.214 18.973c-0.253 0-0.507-0.093-0.707-0.293l-2.147-2.147c-0.387-0.387-0.387-1.027 0-1.413s1.027-0.387 1.413 0l1.44 1.44 5.027-5.027c0.387-0.387 1.027-0.387 1.413 0s0.387 1.027 0 1.413l-5.733 5.733c-0.2 0.2-0.453 0.293-0.707 0.293z"></path>
</svg>
