<!-- Generated by IcoMoon.io -->
<svg version="1.1" xmlns="http://www.w3.org/2000/svg" width="32" height="32" viewBox="0 0 32 32">
<title>ship</title>
<path d="M19.173 30.333h-6.347c-5.040 0-9-3.173-10.093-8.093l-0.547-2.48c-0.373-1.707 0.6-3.547 2.213-4.2l9.24-3.707c1.52-0.6 3.2-0.6 4.72 0l9.24 3.707c1.627 0.653 2.6 2.493 2.213 4.2l-0.547 2.48c-1.093 4.92-5.053 8.093-10.093 8.093zM16 13.4c-0.547 0-1.093 0.107-1.627 0.307l-9.24 3.707c-0.707 0.28-1.173 1.173-1.013 1.907l0.547 2.48c0.893 4.027 4.013 6.52 8.147 6.52h6.347c4.133 0 7.253-2.493 8.147-6.52l0.547-2.48c0.16-0.733-0.307-1.627-1.013-1.907l-9.24-3.707c-0.507-0.2-1.053-0.307-1.6-0.307z"></path>
<path d="M16 30.333c-0.547 0-1-0.453-1-1v-16c0-0.547 0.453-1 1-1s1 0.453 1 1v16c0 0.547-0.453 1-1 1z"></path>
<path d="M25.334 16.733c-0.12 0-0.253-0.027-0.373-0.067l-7.347-2.947c-1.040-0.413-2.187-0.413-3.24 0l-7.347 2.947c-0.307 0.12-0.653 0.080-0.933-0.107s-0.44-0.493-0.44-0.827v-5.067c0-2.76 2.24-5 5-5h10.667c2.76 0 5 2.24 5 5v5.067c0 0.333-0.16 0.64-0.44 0.827-0.16 0.12-0.347 0.173-0.547 0.173zM16 11.4c0.8 0 1.6 0.147 2.36 0.453l5.973 2.4v-3.587c0-1.653-1.347-3-3-3h-10.667c-1.653 0-3 1.347-3 3v3.587l5.973-2.4c0.76-0.293 1.56-0.453 2.36-0.453z"></path>
<path d="M19.333 7.667h-6.667c-0.547 0-1-0.453-1-1v-2.667c0-1.28 1.053-2.333 2.333-2.333h4c1.28 0 2.333 1.053 2.333 2.333v2.667c0 0.547-0.453 1-1 1zM13.667 5.667h4.667v-1.667c0-0.187-0.147-0.333-0.333-0.333h-4c-0.187 0-0.333 0.147-0.333 0.333v1.667z"></path>
</svg>
