<!-- Generated by IcoMoon.io -->
<svg version="1.1" xmlns="http://www.w3.org/2000/svg" width="32" height="32" viewBox="0 0 32 32">
<title>shop-remove</title>
<path d="M19.627 30.333h-7.187c-0.853 0-1.6-0.053-2.28-0.147-0.547-0.080-0.933-0.587-0.853-1.133s0.573-0.947 1.133-0.853c0.587 0.080 1.24 0.12 1.987 0.12h7.187c5.453 0 7.387-1.933 7.387-7.387v-5.987c0-0.547 0.453-1 1-1s1 0.453 1 1v5.987c0.013 6.587-2.8 9.4-9.373 9.4z"></path>
<path d="M4.052 21.693c-0.547 0-1-0.453-1-1v-5.733c0-0.547 0.453-1 1-1s1 0.453 1 1v5.733c0 0.547-0.453 1-1 1z"></path>
<path d="M16.040 17c-1.467 0-2.8-0.573-3.747-1.627s-1.387-2.427-1.24-3.893l0.893-8.907c0.053-0.507 0.48-0.907 1-0.907h6.227c0.52 0 0.947 0.387 1 0.907l0.893 8.907c0.147 1.467-0.293 2.84-1.24 3.893-0.987 1.053-2.32 1.627-3.787 1.627zM13.827 3.667l-0.8 8.013c-0.093 0.893 0.173 1.733 0.733 2.347 1.133 1.253 3.4 1.253 4.533 0 0.56-0.627 0.827-1.467 0.733-2.347l-0.8-8.013h-4.4z"></path>
<path d="M24.439 17c-2.707 0-5.12-2.187-5.4-4.88l-0.933-9.347c-0.027-0.28 0.067-0.56 0.253-0.773s0.453-0.333 0.747-0.333h4.067c3.92 0 5.747 1.64 6.293 5.667l0.373 3.707c0.16 1.573-0.32 3.067-1.347 4.2s-2.467 1.76-4.053 1.76zM20.213 3.667l0.827 8.253c0.173 1.667 1.733 3.080 3.4 3.080 1.013 0 1.92-0.387 2.573-1.093 0.64-0.707 0.933-1.653 0.84-2.667l-0.373-3.667c-0.413-3.013-1.387-3.907-4.307-3.907h-2.96z"></path>
<path d="M7.56 17c-1.587 0-3.027-0.627-4.053-1.76s-1.507-2.627-1.347-4.2l0.373-3.667c0.56-4.067 2.387-5.707 6.307-5.707h4.067c0.28 0 0.547 0.12 0.747 0.333 0.187 0.213 0.28 0.493 0.253 0.773l-0.933 9.347c-0.293 2.693-2.72 4.88-5.413 4.88zM8.827 3.667c-2.92 0-3.893 0.88-4.32 3.933l-0.36 3.627c-0.107 1.013 0.2 1.96 0.84 2.667s1.56 1.093 2.573 1.093c1.68 0 3.24-1.413 3.4-3.080l0.827-8.253h-2.96v0.013z"></path>
<path d="M6.667 31.667c-1.867 0-3.613-0.813-4.813-2.24-0.013-0.013-0.067-0.067-0.107-0.133-0.2-0.24-0.373-0.48-0.507-0.733-0.587-0.947-0.907-2.067-0.907-3.24 0-1.947 0.867-3.747 2.373-4.947 0.267-0.213 0.56-0.413 0.88-0.587 0.92-0.52 2-0.813 3.080-0.813 1.547 0 2.973 0.533 4.12 1.533 0.147 0.107 0.347 0.307 0.52 0.493 1.080 1.187 1.68 2.707 1.68 4.293 0 1.16-0.32 2.293-0.92 3.267-0.293 0.507-0.653 0.947-1.053 1.293-0.080 0.080-0.16 0.16-0.253 0.227-1.053 1.027-2.533 1.587-4.093 1.587zM3.307 28.053c0.040 0.040 0.107 0.107 0.16 0.2 0.733 0.867 1.933 1.427 3.2 1.427 1.053 0 2.067-0.387 2.84-1.080 0.040-0.053 0.093-0.107 0.16-0.147 0.267-0.227 0.493-0.52 0.707-0.867 0.413-0.68 0.64-1.44 0.64-2.24 0-1.080-0.413-2.133-1.16-2.947-0.093-0.107-0.187-0.213-0.307-0.293-1.44-1.24-3.413-1.427-4.987-0.533-0.213 0.12-0.4 0.24-0.573 0.387-1.040 0.827-1.64 2.053-1.64 3.387 0 0.787 0.213 1.56 0.627 2.227 0.107 0.187 0.213 0.333 0.333 0.467-0.013 0 0 0 0 0.013z"></path>
<path d="M8.666 26.307h-3.987c-0.547 0-1-0.453-1-1s0.453-1 1-1h3.987c0.547 0 1 0.453 1 1s-0.453 1-1 1z"></path>
</svg>
