<!-- Generated by IcoMoon.io -->
<svg version="1.1" xmlns="http://www.w3.org/2000/svg" width="32" height="32" viewBox="0 0 32 32">
<title>shop</title>
<path d="M19.6 30.333h-7.2c-6.587 0-9.387-2.813-9.387-9.387v-5.987c0-0.547 0.453-1 1-1s1 0.453 1 1v5.987c0 5.453 1.933 7.387 7.387 7.387h7.187c5.453 0 7.387-1.933 7.387-7.387v-5.987c0-0.547 0.453-1 1-1s1 0.453 1 1v5.987c0.013 6.573-2.8 9.387-9.373 9.387z"></path>
<path d="M15.999 17c-1.467 0-2.8-0.573-3.747-1.627s-1.387-2.427-1.24-3.893l0.893-8.907c0.053-0.507 0.48-0.907 1-0.907h6.227c0.52 0 0.947 0.387 1 0.907l0.893 8.907c0.147 1.467-0.293 2.84-1.24 3.893-0.987 1.053-2.32 1.627-3.787 1.627zM13.799 3.667l-0.8 8.013c-0.093 0.893 0.173 1.733 0.733 2.347 1.133 1.253 3.4 1.253 4.533 0 0.56-0.627 0.827-1.467 0.733-2.347l-0.8-8.013h-4.4z"></path>
<path d="M24.413 17c-2.707 0-5.12-2.187-5.4-4.88l-0.933-9.347c-0.027-0.28 0.067-0.56 0.253-0.773s0.453-0.333 0.747-0.333h4.067c3.92 0 5.747 1.64 6.293 5.667l0.373 3.707c0.16 1.573-0.32 3.067-1.347 4.2s-2.467 1.76-4.053 1.76zM20.187 3.667l0.827 8.253c0.173 1.667 1.72 3.080 3.4 3.080 1.013 0 1.92-0.387 2.573-1.093 0.64-0.707 0.933-1.653 0.84-2.667l-0.373-3.667c-0.413-3.013-1.387-3.907-4.307-3.907h-2.96z"></path>
<path d="M7.519 17c-1.587 0-3.027-0.627-4.053-1.76s-1.507-2.627-1.347-4.2l0.36-3.667c0.56-4.067 2.387-5.707 6.307-5.707h4.067c0.28 0 0.547 0.12 0.747 0.333s0.28 0.493 0.253 0.773l-0.933 9.347c-0.28 2.693-2.693 4.88-5.4 4.88zM8.785 3.667c-2.92 0-3.893 0.88-4.32 3.933l-0.36 3.64c-0.107 1.013 0.2 1.96 0.84 2.667s1.547 1.093 2.573 1.093c1.68 0 3.24-1.413 3.4-3.080l0.827-8.253h-2.96z"></path>
<path d="M19.333 30.333h-6.667c-0.547 0-1-0.453-1-1v-3.333c0-2.8 1.533-4.333 4.333-4.333s4.333 1.533 4.333 4.333v3.333c0 0.547-0.453 1-1 1zM13.667 28.333h4.667v-2.333c0-1.68-0.653-2.333-2.333-2.333s-2.333 0.653-2.333 2.333v2.333z"></path>
</svg>
