<!-- Generated by IcoMoon.io -->
<svg version="1.1" xmlns="http://www.w3.org/2000/svg" width="32" height="32" viewBox="0 0 32 32">
<title>shopping-bag</title>
<path d="M21.987 30.333h-11.987c-2.293 0-4.013-0.613-5.080-1.827s-1.48-2.973-1.2-5.253l1.2-10c0.347-2.947 1.093-5.587 6.293-5.587h9.6c5.187 0 5.933 2.64 6.293 5.587l1.2 10c0.267 2.28-0.133 4.053-1.2 5.253-1.107 1.213-2.813 1.827-5.12 1.827zM11.201 9.667c-3.84 0-4.027 1.52-4.307 3.813l-1.2 10c-0.2 1.693 0.040 2.933 0.72 3.693s1.88 1.147 3.587 1.147h11.987c1.707 0 2.907-0.387 3.587-1.147s0.92-2 0.72-3.693l-1.2-10c-0.28-2.307-0.453-3.813-4.307-3.813h-9.587z"></path>
<path d="M21.333 11.667c-0.547 0-1-0.453-1-1v-4.667c0-1.44-0.893-2.333-2.333-2.333h-4c-1.44 0-2.333 0.893-2.333 2.333v4.667c0 0.547-0.453 1-1 1s-1-0.453-1-1v-4.667c0-2.547 1.787-4.333 4.333-4.333h4c2.547 0 4.333 1.787 4.333 4.333v4.667c0 0.547-0.453 1-1 1z"></path>
<path d="M27.213 23.707h-16.547c-0.547 0-1-0.453-1-1s0.453-1 1-1h16.547c0.547 0 1 0.453 1 1s-0.453 1-1 1z"></path>
</svg>
