<!-- Generated by IcoMoon.io -->
<svg version="1.1" xmlns="http://www.w3.org/2000/svg" width="32" height="32" viewBox="0 0 32 32">
<title>shopping-cart</title>
<path d="M24.253 23.667h-14.2c-1.32 0-2.587-0.56-3.48-1.533s-1.347-2.28-1.24-3.6l1.107-13.28c0.040-0.413-0.107-0.813-0.387-1.12s-0.667-0.467-1.080-0.467h-2.307c-0.547 0-1-0.453-1-1s0.453-1 1-1h2.32c0.973 0 1.893 0.413 2.547 1.12 0.36 0.4 0.627 0.867 0.773 1.387h16.653c1.347 0 2.587 0.533 3.493 1.493 0.893 0.973 1.347 2.24 1.24 3.587l-0.72 10c-0.147 2.44-2.28 4.413-4.72 4.413zM8.373 6.16l-1.040 12.533c-0.067 0.773 0.187 1.507 0.707 2.080s1.24 0.88 2.013 0.88h14.2c1.387 0 2.64-1.173 2.747-2.56l0.72-10c0.053-0.787-0.2-1.533-0.72-2.080-0.52-0.56-1.24-0.867-2.027-0.867l-16.6 0.013z"></path>
<path d="M21.667 30.333c-1.467 0-2.667-1.2-2.667-2.667s1.2-2.667 2.667-2.667c1.467 0 2.667 1.2 2.667 2.667s-1.2 2.667-2.667 2.667zM21.667 27c-0.373 0-0.667 0.293-0.667 0.667s0.293 0.667 0.667 0.667c0.373 0 0.667-0.293 0.667-0.667s-0.293-0.667-0.667-0.667z"></path>
<path d="M11 30.333c-1.467 0-2.667-1.2-2.667-2.667s1.2-2.667 2.667-2.667c1.467 0 2.667 1.2 2.667 2.667s-1.2 2.667-2.667 2.667zM11 27c-0.373 0-0.667 0.293-0.667 0.667s0.293 0.667 0.667 0.667c0.373 0 0.667-0.293 0.667-0.667s-0.293-0.667-0.667-0.667z"></path>
<path d="M28 11.667h-16c-0.547 0-1-0.453-1-1s0.453-1 1-1h16c0.547 0 1 0.453 1 1s-0.453 1-1 1z"></path>
</svg>
