<!-- Generated by IcoMoon.io -->
<svg version="1.1" xmlns="http://www.w3.org/2000/svg" width="32" height="32" viewBox="0 0 32 32">
<title>shuffle</title>
<path d="M7.414 24.987c0 0-0.013 0-0.027 0l-3.4-0.013c-0.547 0-1-0.453-1-1s0.453-1 1-1l3.413 0.013c0.867 0 1.68-0.427 2.16-1.16l8.52-12.773c0.853-1.28 2.28-2.053 3.827-2.053 0 0 0.013 0 0.027 0l6.067 0.027c0.547 0 1 0.453 1 1s-0.453 1-1 1l-6.080-0.027c-0.867 0-1.68 0.427-2.16 1.16l-8.52 12.773c-0.853 1.293-2.28 2.053-3.827 2.053z"></path>
<path d="M25.333 27.64c-0.253 0-0.507-0.093-0.707-0.293-0.387-0.387-0.387-1.027 0-1.413l2.667-2.667c0.387-0.387 1.027-0.387 1.413 0s0.387 1.027 0 1.413l-2.667 2.667c-0.2 0.2-0.453 0.293-0.707 0.293z"></path>
<path d="M11.853 12.506c-0.307 0-0.613-0.147-0.813-0.413l-1.44-2c-0.493-0.68-1.307-1.080-2.12-1.080l-3.48 0.013c-0.613-0.013-1-0.44-1-1 0-0.547 0.44-1 1-1l3.48-0.013c0.013 0 0.013 0 0.027 0 1.48 0 2.867 0.72 3.733 1.907l1.44 2c0.32 0.453 0.227 1.067-0.227 1.4-0.187 0.12-0.387 0.187-0.6 0.187z"></path>
<path d="M21.759 25c-1.413 0-2.773-0.667-3.64-1.787l-1.627-2.093c-0.333-0.44-0.253-1.067 0.173-1.4 0.44-0.333 1.067-0.253 1.4 0.173l1.627 2.093c0.493 0.64 1.28 0.96 2.067 1.013l6.227-0.027c0.547 0 1 0.44 1 1 0 0.547-0.44 1-1 1l-6.227 0.027c0.013 0 0 0 0 0z"></path>
<path d="M27.999 9.027c-0.253 0-0.507-0.093-0.707-0.293l-2.667-2.667c-0.387-0.387-0.387-1.027 0-1.413s1.027-0.387 1.413 0l2.667 2.667c0.387 0.387 0.387 1.027 0 1.413-0.2 0.2-0.453 0.293-0.707 0.293z"></path>
</svg>
