<!-- Generated by IcoMoon.io -->
<svg version="1.1" xmlns="http://www.w3.org/2000/svg" width="32" height="32" viewBox="0 0 32 32">
<title>signpost</title>
<path d="M22.959 13h-11.013c-0.747 0-1.493-0.253-2.080-0.733l-2.92-2.333c-0.8-0.64-1.253-1.587-1.253-2.6s0.453-1.973 1.253-2.6l2.92-2.333c0.587-0.467 1.333-0.733 2.080-0.733h11.013c1.84 0 3.333 1.493 3.333 3.333v4.667c0 1.84-1.493 3.333-3.333 3.333zM11.946 3.667c-0.307 0-0.6 0.107-0.827 0.293l-2.92 2.333c-0.32 0.253-0.507 0.64-0.507 1.040s0.187 0.787 0.507 1.040l2.92 2.333c0.24 0.187 0.533 0.293 0.827 0.293h11.013c0.733 0 1.333-0.6 1.333-1.333v-4.667c0-0.733-0.6-1.333-1.333-1.333h-11.013z"></path>
<path d="M20.081 26.333h-11.013c-1.84 0-3.333-1.493-3.333-3.333v-4.667c0-1.84 1.493-3.333 3.333-3.333h11.013c0.76 0 1.493 0.253 2.080 0.733l2.92 2.333c0.8 0.64 1.253 1.587 1.253 2.6s-0.453 1.973-1.253 2.6l-2.92 2.333c-0.587 0.48-1.32 0.733-2.080 0.733zM9.068 17c-0.733 0-1.333 0.6-1.333 1.333v4.667c0 0.733 0.6 1.333 1.333 1.333h11.013c0.307 0 0.6-0.107 0.827-0.293l2.92-2.333c0.32-0.253 0.507-0.64 0.507-1.040s-0.187-0.787-0.507-1.040l-2.92-2.333c-0.24-0.187-0.533-0.293-0.827-0.293h-11.013z"></path>
<path d="M16 17c-0.547 0-1-0.453-1-1v-4c0-0.547 0.453-1 1-1s1 0.453 1 1v4c0 0.547-0.453 1-1 1z"></path>
<path d="M16 30.333c-0.547 0-1-0.453-1-1v-4c0-0.547 0.453-1 1-1s1 0.453 1 1v4c0 0.547-0.453 1-1 1z"></path>
<path d="M20 30.333h-8c-0.547 0-1-0.453-1-1s0.453-1 1-1h8c0.547 0 1 0.453 1 1s-0.453 1-1 1z"></path>
</svg>
