<!-- Generated by IcoMoon.io -->
<svg version="1.1" xmlns="http://www.w3.org/2000/svg" width="32" height="32" viewBox="0 0 32 32">
<title>simcard</title>
<path d="M21.333 30.333h-10.667c-4.587 0-7.667-3.080-7.667-7.667v-13.333c0-4.587 3.080-7.667 7.667-7.667h6.573c2.053 0 3.973 0.8 5.427 2.24l4.093 4.093c1.453 1.453 2.24 3.373 2.24 5.427v9.24c0 4.587-3.080 7.667-7.667 7.667zM10.667 3.667c-3.44 0-5.667 2.227-5.667 5.667v13.333c0 3.44 2.227 5.667 5.667 5.667h10.667c3.44 0 5.667-2.227 5.667-5.667v-9.24c0-1.507-0.587-2.933-1.667-4.013l-4.093-4.080c-1.067-1.067-2.493-1.667-4.013-1.667h-6.56z"></path>
<path d="M18.667 25.667h-5.333c-2.76 0-5-2.24-5-5v-4c0-2.76 2.24-5 5-5h5.333c2.76 0 5 2.24 5 5v4c0 2.76-2.24 5-5 5zM13.333 13.667c-1.653 0-3 1.347-3 3v4c0 1.653 1.347 3 3 3h5.333c1.653 0 3-1.347 3-3v-4c0-1.653-1.347-3-3-3h-5.333z"></path>
<path d="M16 25.667c-0.547 0-1-0.453-1-1v-12c0-0.547 0.453-1 1-1s1 0.453 1 1v12c0 0.547-0.453 1-1 1z"></path>
<path d="M22 19.667h-12c-0.547 0-1-0.453-1-1s0.453-1 1-1h12c0.547 0 1 0.453 1 1s-0.453 1-1 1z"></path>
</svg>
