<!-- Generated by IcoMoon.io -->
<svg version="1.1" xmlns="http://www.w3.org/2000/svg" width="32" height="32" viewBox="0 0 32 32">
<title>simcard-2</title>
<path d="M16.147 30.293h-8.293c-3.64 0-6.187-2.547-6.187-6.187v-10.36c0-3.64 2.547-6.187 6.187-6.187h5.107c1.627 0 3.227 0.667 4.373 1.813l3.187 3.173c1.16 1.16 1.813 2.747 1.813 4.373v7.187c0 3.64-2.547 6.187-6.187 6.187zM7.853 9.56c-2.547 0-4.187 1.64-4.187 4.187v10.36c0 2.547 1.64 4.187 4.187 4.187h8.293c2.547 0 4.187-1.64 4.187-4.187v-7.187c0-1.107-0.453-2.173-1.227-2.96l-3.187-3.173c-0.787-0.787-1.867-1.227-2.96-1.227h-5.107z"></path>
<path d="M24.147 24.373h-2.813c-0.547 0-1-0.453-1-1v-6.453c0-1.107-0.453-2.173-1.227-2.96l-3.187-3.173c-0.787-0.787-1.867-1.227-2.96-1.227h-2.293c-0.547 0-1-0.453-1-1v-0.747c0-3.64 2.547-6.187 6.187-6.187h5.107c1.627 0 3.227 0.667 4.373 1.813l3.187 3.187c1.173 1.173 1.813 2.72 1.813 4.373v7.187c0 3.64-2.547 6.187-6.187 6.187zM22.333 22.373h1.813c2.547 0 4.187-1.64 4.187-4.187v-7.187c0-1.12-0.44-2.173-1.227-2.96l-3.187-3.187c-0.773-0.773-1.853-1.227-2.96-1.227h-5.107c-2.453 0-4.080 1.533-4.187 3.933h1.293c1.627 0 3.227 0.667 4.373 1.813l3.187 3.173c1.16 1.16 1.813 2.747 1.813 4.373v5.453z"></path>
</svg>
