<!-- Generated by IcoMoon.io -->
<svg version="1.1" xmlns="http://www.w3.org/2000/svg" width="32" height="32" viewBox="0 0 32 32">
<title>simcard-1</title>
<path d="M21.333 30.333h-10.667c-4.587 0-7.667-3.080-7.667-7.667v-13.333c0-4.587 3.080-7.667 7.667-7.667h6.573c2.053 0 3.973 0.8 5.427 2.24l4.093 4.093c1.453 1.44 2.24 3.373 2.24 5.427v9.24c0 4.587-3.080 7.667-7.667 7.667zM10.667 3.667c-3.44 0-5.667 2.227-5.667 5.667v13.333c0 3.44 2.227 5.667 5.667 5.667h10.667c3.44 0 5.667-2.227 5.667-5.667v-9.24c0-1.52-0.587-2.933-1.667-4l-4.093-4.093c-1.067-1.067-2.493-1.653-4.013-1.653h-6.56v-0.013z"></path>
<path d="M12.666 25c-0.253 0-0.507-0.093-0.707-0.293l-2.667-2.667c-0.387-0.387-0.387-1.027 0-1.413l2.667-2.667c0.387-0.387 1.027-0.387 1.413 0s0.387 1.027 0 1.413l-1.96 1.96 1.96 1.96c0.387 0.387 0.387 1.027 0 1.413-0.2 0.2-0.453 0.293-0.707 0.293z"></path>
<path d="M19.333 25c-0.253 0-0.507-0.093-0.707-0.293-0.387-0.387-0.387-1.027 0-1.413l1.96-1.96-1.96-1.96c-0.387-0.387-0.387-1.027 0-1.413s1.027-0.387 1.413 0l2.667 2.667c0.387 0.387 0.387 1.027 0 1.413l-2.667 2.667c-0.2 0.2-0.453 0.293-0.707 0.293z"></path>
</svg>
