<!-- Generated by IcoMoon.io -->
<svg version="1.1" xmlns="http://www.w3.org/2000/svg" width="32" height="32" viewBox="0 0 32 32">
<title>size</title>
<path d="M15.628 30.333h-6c-5.533 0-8-2.467-8-8v-6c0-5.533 2.467-8 8-8h6c5.533 0 8 2.467 8 8v6c0 5.533-2.467 8-8 8zM9.628 10.333c-4.427 0-6 1.573-6 6v6c0 4.427 1.573 6 6 6h6c4.427 0 6-1.573 6-6v-6c0-4.427-1.573-6-6-6h-6z"></path>
<path d="M24.161 18.333h-1.533c-0.547 0-1-0.453-1-1v-1c0-4.427-1.573-6-6-6h-1c-0.547 0-1-0.453-1-1v-1.533c0-4.24 1.893-6.133 6.133-6.133h4.4c4.24 0 6.133 1.893 6.133 6.133v4.4c0 4.24-1.893 6.133-6.133 6.133zM23.628 16.333h0.533c3.133 0 4.133-1 4.133-4.133v-4.4c0-3.133-1-4.133-4.133-4.133h-4.4c-3.133 0-4.133 1-4.133 4.133v0.533c5.533 0 8 2.467 8 8z"></path>
</svg>
