<!-- Generated by IcoMoon.io -->
<svg version="1.1" xmlns="http://www.w3.org/2000/svg" width="32" height="32" viewBox="0 0 32 32">
<title>slider-horizontal</title>
<path d="M18.667 29.667h-5.333c-4.4 0-7.053-0.88-7.547-5.347-0.080-0.6-0.12-1.32-0.12-2.32v-12c0-1 0.040-1.733 0.133-2.36 0.48-4.427 3.133-5.307 7.533-5.307h5.333c4.4 0 7.053 0.88 7.547 5.347 0.080 0.6 0.12 1.32 0.12 2.32v12c0 1-0.040 1.733-0.133 2.36-0.48 4.427-3.133 5.307-7.533 5.307zM13.333 4.333c-4.413 0-5.253 0.893-5.56 3.56-0.067 0.56-0.107 1.2-0.107 2.107v12c0 0.907 0.040 1.547 0.107 2.067 0.293 2.707 1.147 3.6 5.56 3.6h5.333c4.413 0 5.253-0.893 5.56-3.56 0.080-0.56 0.107-1.2 0.107-2.107v-12c0-0.907-0.040-1.547-0.107-2.067-0.293-2.707-1.147-3.6-5.56-3.6h-5.333z"></path>
<path d="M2.667 27c-0.547 0-1-0.453-1-1v-20c0-0.547 0.453-1 1-1s1 0.453 1 1v20c0 0.547-0.453 1-1 1z"></path>
<path d="M29.333 26.333c-0.547 0-1-0.453-1-1v-20c0-0.547 0.453-1 1-1s1 0.453 1 1v20c0 0.547-0.453 1-1 1z"></path>
</svg>
