<!-- Generated by IcoMoon.io -->
<svg version="1.1" xmlns="http://www.w3.org/2000/svg" width="32" height="32" viewBox="0 0 32 32">
<title>slider</title>
<path d="M20 30.333h-8c-3.667 0-6.333-2.667-6.333-6.333v-16c0-3.667 2.667-6.333 6.333-6.333h8c3.667 0 6.333 2.667 6.333 6.333v16c0 3.667-2.667 6.333-6.333 6.333zM12 3.667c-3 0-4.333 2.173-4.333 4.333v16c0 2.16 1.333 4.333 4.333 4.333h8c3 0 4.333-2.173 4.333-4.333v-16c0-2.16-1.333-4.333-4.333-4.333h-8z"></path>
<path d="M25.333 22.347h-18.667c-0.547 0-1-0.453-1-1s0.453-1 1-1h18.667c0.547 0 1 0.453 1 1s-0.453 1-1 1z"></path>
<path d="M2.667 27.667c-0.547 0-1-0.453-1-1v-21.333c0-0.547 0.453-1 1-1s1 0.453 1 1v21.333c0 0.547-0.453 1-1 1z"></path>
<path d="M29.333 27.667c-0.547 0-1-0.453-1-1v-21.333c0-0.547 0.453-1 1-1s1 0.453 1 1v21.333c0 0.547-0.453 1-1 1z"></path>
</svg>
