<!-- Generated by IcoMoon.io -->
<svg version="1.1" xmlns="http://www.w3.org/2000/svg" width="32" height="32" viewBox="0 0 32 32">
<title>slider-vertical-1</title>
<path d="M22.667 25h-13.333c-1 0-1.733-0.040-2.36-0.133-4.427-0.48-5.307-3.133-5.307-7.533v-2.667c0-4.4 0.88-7.053 5.347-7.547 0.587-0.080 1.32-0.12 2.32-0.12h13.333c1 0 1.733 0.040 2.36 0.133 4.44 0.493 5.307 3.133 5.307 7.533v2.667c0 4.4-0.88 7.053-5.347 7.547-0.587 0.080-1.32 0.12-2.32 0.12zM9.333 9c-0.907 0-1.547 0.040-2.067 0.107-2.707 0.307-3.6 1.147-3.6 5.56v2.667c0 4.413 0.893 5.253 3.56 5.56 0.56 0.080 1.2 0.107 2.107 0.107h13.333c0.907 0 1.547-0.040 2.067-0.107 2.707-0.293 3.6-1.147 3.6-5.56v-2.667c0-4.413-0.893-5.253-3.56-5.56-0.56-0.080-1.2-0.107-2.107-0.107h-13.333z"></path>
<path d="M20.44 30.334h-8.88c-4.133 0-5.453-1.32-5.453-5.44v-0.453c0-0.227 0-0.427 0.013-0.627 0.013-0.28 0.147-0.533 0.373-0.707 0.213-0.173 0.493-0.253 0.773-0.213 0.533 0.080 1.173 0.107 2.067 0.107h13.333c0.907 0 1.547-0.040 2.067-0.107 0.28-0.040 0.56 0.040 0.773 0.213s0.347 0.427 0.373 0.707c0.013 0.213 0.013 0.4 0.013 0.627v0.453c0 4.12-1.32 5.44-5.453 5.44zM8.107 24.974c0.013 2.92 0.48 3.36 3.453 3.36h8.88c2.973 0 3.44-0.44 3.453-3.36-0.36 0.013-0.76 0.027-1.227 0.027h-13.333c-0.467 0-0.867-0.013-1.227-0.027z"></path>
<path d="M24.88 9.12c-0.053 0-0.093 0-0.147-0.013-0.533-0.080-1.173-0.107-2.067-0.107h-13.333c-0.907 0-1.547 0.040-2.067 0.107-0.28 0.040-0.56-0.040-0.773-0.213s-0.347-0.427-0.373-0.707c-0.013-0.213-0.013-0.4-0.013-0.627v-0.453c0-4.12 1.32-5.44 5.453-5.44h8.88c4.133 0 5.453 1.32 5.453 5.44v0.453c0 0.227 0 0.427-0.013 0.627-0.013 0.28-0.147 0.533-0.373 0.707-0.173 0.147-0.4 0.227-0.627 0.227zM9.333 7h13.333c0.467 0 0.867 0.013 1.227 0.027-0.013-2.92-0.48-3.36-3.453-3.36h-8.88c-2.973 0-3.44 0.44-3.453 3.36 0.36-0.013 0.76-0.027 1.227-0.027z"></path>
</svg>
