<!-- Generated by IcoMoon.io -->
<svg version="1.1" xmlns="http://www.w3.org/2000/svg" width="32" height="32" viewBox="0 0 32 32">
<title>slider-vertical</title>
<path d="M22 26.333h-12c-1 0-1.733-0.040-2.36-0.133-4.427-0.48-5.307-3.133-5.307-7.533v-5.333c0-4.4 0.88-7.053 5.347-7.547 0.587-0.080 1.32-0.12 2.32-0.12h12c1 0 1.733 0.040 2.36 0.133 4.44 0.493 5.307 3.133 5.307 7.533v5.333c0 4.4-0.88 7.053-5.347 7.547-0.587 0.080-1.32 0.12-2.32 0.12zM10 7.667c-0.907 0-1.547 0.040-2.067 0.107-2.707 0.307-3.6 1.147-3.6 5.56v5.333c0 4.413 0.893 5.253 3.56 5.56 0.56 0.080 1.2 0.107 2.107 0.107h12c0.907 0 1.547-0.040 2.067-0.107 2.707-0.293 3.6-1.147 3.6-5.56v-5.333c0-4.413-0.893-5.253-3.56-5.56-0.56-0.080-1.2-0.107-2.107-0.107h-12z"></path>
<path d="M26 3.667h-20c-0.547 0-1-0.453-1-1s0.453-1 1-1h20c0.547 0 1 0.453 1 1s-0.453 1-1 1z"></path>
<path d="M26.667 30.333h-20c-0.547 0-1-0.453-1-1s0.453-1 1-1h20c0.547 0 1 0.453 1 1s-0.453 1-1 1z"></path>
</svg>
