<!-- Generated by IcoMoon.io -->
<svg version="1.1" xmlns="http://www.w3.org/2000/svg" width="32" height="32" viewBox="0 0 32 32">
<title>slider-horizontal-1</title>
<path d="M17.333 30.333h-2.667c-4.4 0-7.053-0.88-7.547-5.347-0.080-0.6-0.12-1.32-0.12-2.32v-13.333c0-1 0.040-1.72 0.133-2.36 0.48-4.427 3.133-5.307 7.533-5.307h2.667c4.4 0 7.053 0.88 7.547 5.347 0.080 0.6 0.12 1.32 0.12 2.32v13.333c0 1-0.040 1.72-0.133 2.36-0.48 4.427-3.133 5.307-7.533 5.307zM14.667 3.667c-4.413 0-5.253 0.893-5.547 3.56-0.080 0.573-0.12 1.2-0.12 2.107v13.333c0 0.907 0.040 1.533 0.107 2.067 0.293 2.707 1.147 3.6 5.56 3.6h2.667c4.413 0 5.253-0.893 5.547-3.56 0.080-0.56 0.12-1.2 0.12-2.107v-13.333c0-0.893-0.040-1.533-0.107-2.067-0.293-2.707-1.147-3.6-5.56-3.6h-2.667z"></path>
<path d="M7.56 25.893h-0.453c-4.12 0-5.44-1.32-5.44-5.453v-8.88c0-4.133 1.32-5.453 5.44-5.453h0.453c0.227 0 0.413 0 0.627 0.013 0.28 0.013 0.533 0.147 0.707 0.373s0.253 0.493 0.213 0.773c-0.067 0.533-0.107 1.16-0.107 2.067v13.333c0 0.907 0.040 1.533 0.107 2.067 0.040 0.28-0.040 0.56-0.213 0.773s-0.427 0.347-0.707 0.373c-0.213 0.013-0.4 0.013-0.627 0.013zM7.027 8.107c-2.92 0.013-3.36 0.48-3.36 3.453v8.88c0 2.973 0.44 3.44 3.36 3.453-0.013-0.36-0.027-0.76-0.027-1.227v-13.333c0-0.467 0.013-0.867 0.027-1.227z"></path>
<path d="M24.893 25.893h-0.453c-0.227 0-0.413 0-0.627-0.013-0.28-0.013-0.533-0.147-0.707-0.373-0.173-0.213-0.253-0.493-0.213-0.773 0.080-0.533 0.107-1.173 0.107-2.067v-13.333c0-0.893-0.040-1.533-0.107-2.067-0.040-0.28 0.040-0.56 0.213-0.773s0.427-0.347 0.707-0.373c0.213-0.013 0.4-0.013 0.627-0.013h0.453c4.12 0 5.44 1.32 5.44 5.453v8.88c0 4.133-1.32 5.453-5.44 5.453zM24.973 8.107c0.013 0.36 0.027 0.76 0.027 1.227v13.333c0 0.467-0.013 0.867-0.027 1.227 2.92-0.013 3.36-0.48 3.36-3.453v-8.88c0-2.973-0.44-3.44-3.36-3.453z"></path>
</svg>
