<!-- Generated by IcoMoon.io -->
<svg version="1.1" xmlns="http://www.w3.org/2000/svg" width="32" height="32" viewBox="0 0 32 32">
<title>smallcaps</title>
<path d="M24.814 8.906c-0.547 0-1-0.453-1-1v-2.013c0-0.8-0.653-1.467-1.467-1.467h-17.24c-0.8 0-1.467 0.653-1.467 1.467v2.013c0 0.547-0.453 1-1 1s-0.987-0.453-0.987-1v-2.013c0-1.907 1.56-3.467 3.467-3.467h17.227c1.907 0 3.467 1.547 3.467 3.467v2.013c0 0.547-0.453 1-1 1z"></path>
<path d="M13.734 25.133c-0.547 0-1-0.453-1-1v-19.707c0-0.547 0.453-1 1-1s1 0.453 1 1v19.707c0 0.56-0.453 1-1 1z"></path>
<path d="M16.641 25.133h-7.44c-0.547 0-1-0.453-1-1s0.453-1 1-1h7.44c0.547 0 1 0.453 1 1s-0.453 1-1 1z"></path>
<path d="M29.346 17.6c-0.547 0-1-0.453-1-1v-1.067c0-0.413-0.347-0.76-0.76-0.76h-9.347c-0.547 0-1-0.453-1-1s0.453-1 1-1h9.347c1.52 0 2.76 1.24 2.76 2.76v1.067c0 0.56-0.44 1-1 1z"></path>
<path d="M21.44 29.573c-0.547 0-1-0.453-1-1v-14.080c0-0.547 0.453-1 1-1s1 0.453 1 1v14.080c0 0.547-0.453 1-1 1z"></path>
<path d="M24.293 29.574h-5.707c-0.547 0-1-0.453-1-1s0.453-1 1-1h5.707c0.547 0 1 0.453 1 1s-0.453 1-1 1z"></path>
</svg>
