<!-- Generated by IcoMoon.io -->
<svg version="1.1" xmlns="http://www.w3.org/2000/svg" width="32" height="32" viewBox="0 0 32 32">
<title>smart-home</title>
<path d="M23.466 30.080h-8.267c-0.547 0-1-0.453-1-1s0.453-1 1-1h8.267c1.427 0 2.827-1.187 3.067-2.6l1.773-10.613c0.16-0.96-0.373-2.333-1.12-2.933l-9.24-7.387c-1.067-0.853-2.84-0.853-3.893-0.013l-9.24 7.4c-0.76 0.613-1.28 1.973-1.12 2.933l0.373 2.253c0.093 0.547-0.28 1.067-0.827 1.147-0.547 0.107-1.053-0.28-1.147-0.827l-0.373-2.24c-0.28-1.653 0.52-3.773 1.84-4.827l9.24-7.4c1.787-1.44 4.6-1.427 6.4 0.013l9.24 7.387c1.307 1.053 2.107 3.173 1.84 4.827l-1.773 10.613c-0.4 2.36-2.653 4.267-5.040 4.267z"></path>
<path d="M6.667 30.333c-0.547 0-0.987-0.44-1-0.973-0.040-1.8-1.227-2.987-3.027-3.027-0.547-0.013-0.987-0.467-0.973-1.027 0.013-0.547 0.453-0.973 1-0.973 0.013 0 0.013 0 0.027 0 2.867 0.067 4.92 2.107 4.973 4.973 0.013 0.547-0.427 1.013-0.973 1.027-0.013 0-0.013 0-0.027 0z"></path>
<path d="M10.667 30.333c-0.547 0-1-0.44-1-0.987-0.013-0.88-0.16-1.72-0.427-2.507-0.68-1.947-2.133-3.387-4.080-4.080-0.787-0.28-1.627-0.427-2.507-0.427-0.547 0-1-0.453-0.987-1.013 0-0.547 0.453-0.987 1-0.987h0.013c1.107 0.013 2.16 0.2 3.147 0.547 2.52 0.893 4.4 2.773 5.293 5.293 0.347 0.987 0.533 2.053 0.547 3.147 0 0.56-0.44 1.013-1 1.013 0.013 0 0 0 0 0z"></path>
<path d="M2.667 30.667c-0.747 0-1.333-0.6-1.333-1.333s0.6-1.333 1.333-1.333c0.733 0 1.333 0.6 1.333 1.333s-0.587 1.333-1.333 1.333z"></path>
</svg>
