<!-- Generated by IcoMoon.io -->
<svg version="1.1" xmlns="http://www.w3.org/2000/svg" width="32" height="32" viewBox="0 0 32 32">
<title>smart-car</title>
<path d="M20.666 19.333h-16c-0.307 0-0.587-0.133-0.773-0.373-0.187-0.227-0.267-0.547-0.2-0.84l1.133-5.4c0.373-1.76 1.173-3.56 4.333-3.56h7.027c3.16 0 3.96 1.8 4.333 3.56l1.133 5.4c0.067 0.293-0.013 0.6-0.2 0.84-0.2 0.24-0.48 0.373-0.787 0.373zM5.892 17.333h13.533l-0.88-4.2c-0.28-1.347-0.613-1.973-2.373-1.973h-7.027c-1.76 0-2.093 0.627-2.373 1.973l-0.88 4.2z"></path>
<path d="M20.626 30.333h-1.88c-1.8 0-2.173-1.107-2.36-1.707l-0.2-0.6c-0.24-0.68-0.24-0.68-0.947-0.68h-5.12c-0.72 0-0.733 0.027-0.947 0.68l-0.2 0.6c-0.2 0.6-0.573 1.72-2.373 1.72h-1.88c-0.867 0-1.68-0.36-2.267-1-0.56-0.613-0.84-1.453-0.76-2.28l0.56-6.093c0.173-1.893 0.787-3.64 4.040-3.64h12.76c3.253 0 3.867 1.747 4.040 3.64l0.56 6.093c0.080 0.827-0.2 1.653-0.76 2.28-0.587 0.627-1.4 0.987-2.267 0.987zM18.4 28.307c0.027 0 0.133 0.027 0.347 0.027h1.88c0.307 0 0.587-0.12 0.787-0.347 0.187-0.213 0.28-0.467 0.253-0.747l-0.56-6.093c-0.12-1.253-0.173-1.827-2.053-1.827h-12.76c-1.88 0-1.933 0.573-2.053 1.827l-0.56 6.093c-0.027 0.28 0.067 0.547 0.253 0.747 0.2 0.227 0.48 0.347 0.787 0.347h1.88c0.293 0 0.373-0.040 0.387-0.040 0-0.013 0.053-0.173 0.093-0.293l0.2-0.6c0.267-0.813 0.68-2.053 2.853-2.053h5.12c2.147 0 2.547 1.173 2.84 2.040l0.213 0.613c0.013 0.107 0.053 0.253 0.093 0.307z"></path>
<path d="M4.667 16.333h-1c-0.547 0-1-0.453-1-1s0.453-1 1-1h1c0.547 0 1 0.453 1 1s-0.453 1-1 1z"></path>
<path d="M21.667 16.333h-1c-0.547 0-1-0.453-1-1s0.453-1 1-1h1c0.547 0 1 0.453 1 1s-0.453 1-1 1z"></path>
<path d="M9.667 23.333h-3c-0.547 0-1-0.453-1-1s0.453-1 1-1h3c0.547 0 1 0.453 1 1s-0.453 1-1 1z"></path>
<path d="M18.667 23.333h-3c-0.547 0-1-0.453-1-1s0.453-1 1-1h3c0.547 0 1 0.453 1 1s-0.453 1-1 1z"></path>
<path d="M24.948 12.653c-0.133 0-0.267-0.027-0.4-0.080-0.507-0.227-0.733-0.813-0.52-1.32 0.253-0.573 0.107-1.413-0.36-2.107-0.467-0.707-1.173-1.173-1.827-1.147h-0.013c-0.547 0-0.987-0.44-1-0.987 0-0.56 0.44-1 0.987-1.013 1.373-0.027 2.667 0.76 3.507 2.027 0.853 1.28 1.053 2.813 0.533 4.013-0.147 0.387-0.52 0.613-0.907 0.613z"></path>
<path d="M29.093 13.973c-0.093 0-0.173-0.013-0.267-0.040-0.533-0.147-0.84-0.693-0.693-1.227 0.507-1.813 0.080-3.973-1.133-5.787s-3.053-3.027-4.933-3.253c-0.547-0.067-0.933-0.56-0.867-1.107s0.573-0.947 1.107-0.867c2.44 0.293 4.813 1.84 6.347 4.133s2.053 5.067 1.4 7.44c-0.12 0.413-0.52 0.707-0.96 0.707z"></path>
</svg>
