<!-- Generated by IcoMoon.io -->
<svg version="1.1" xmlns="http://www.w3.org/2000/svg" width="32" height="32" viewBox="0 0 32 32">
<title>smileys</title>
<path d="M13.333 19.667h-5.067c-4.56 0-6.6-2.040-6.6-6.6v-4.8c0-4.56 2.040-6.6 6.6-6.6h4.8c4.56 0 6.6 2.040 6.6 6.6v5.067c0 0.547-0.44 0.987-0.987 1-3.2 0.053-4.293 1.16-4.347 4.347-0.013 0.547-0.453 0.987-1 0.987zM8.267 3.667c-3.44 0-4.6 1.16-4.6 4.6v4.8c0 3.44 1.16 4.6 4.6 4.6h4.12c0.32-3.253 2.027-4.947 5.28-5.28v-4.12c0-3.44-1.16-4.6-4.6-4.6h-4.8z"></path>
<path d="M6.933 8.84c-0.307 0-0.627-0.147-0.813-0.427-0.32-0.453-0.213-1.080 0.24-1.4 1.040-0.733 2.44-0.747 3.493-0.027 0.453 0.307 0.573 0.933 0.267 1.387s-0.933 0.573-1.387 0.267c-0.36-0.24-0.84-0.24-1.2 0.013-0.2 0.133-0.4 0.187-0.6 0.187z"></path>
<path d="M12.266 8.84c-0.307 0-0.627-0.147-0.813-0.427-0.32-0.453-0.213-1.080 0.24-1.4 1.040-0.733 2.44-0.747 3.493-0.027 0.453 0.307 0.573 0.933 0.267 1.387s-0.933 0.573-1.387 0.267c-0.36-0.24-0.84-0.24-1.2 0.013-0.2 0.133-0.4 0.187-0.6 0.187z"></path>
<path d="M10.881 16.227h-3.093c-0.947 0-1.72-0.773-1.72-1.72 0-2.533 2.067-4.6 4.6-4.6 1.040 0 2.067 0.36 2.88 1.013 0.427 0.347 0.507 0.973 0.16 1.4s-0.973 0.493-1.4 0.16c-0.467-0.373-1.027-0.573-1.627-0.573-1.333 0-2.44 1.013-2.587 2.32h2.8c0.547 0 1 0.453 1 1s-0.467 1-1.013 1z"></path>
<path d="M23.733 30.333h-4.8c-4.56 0-6.6-2.040-6.6-6.6v-5.067c0.080-4.253 2.080-6.253 6.32-6.333h5.080c4.56 0 6.6 2.040 6.6 6.6v4.8c0 4.56-2.040 6.6-6.6 6.6zM18.667 14.333c-3.173 0.053-4.28 1.16-4.333 4.347v5.053c0 3.44 1.16 4.6 4.6 4.6h4.8c3.44 0 4.6-1.16 4.6-4.6v-4.8c0-3.44-1.16-4.6-4.6-4.6h-5.067z"></path>
<path d="M18.786 19.507c-0.627 0-1.24-0.187-1.76-0.56-0.453-0.32-0.56-0.947-0.24-1.4s0.947-0.56 1.4-0.24c0.36 0.253 0.84 0.253 1.2 0.013 0.453-0.307 1.080-0.2 1.387 0.267 0.307 0.453 0.2 1.080-0.267 1.387-0.52 0.36-1.12 0.533-1.72 0.533z"></path>
<path d="M24.119 19.507c-0.627 0-1.24-0.187-1.76-0.56-0.453-0.32-0.56-0.947-0.24-1.4s0.947-0.56 1.4-0.24c0.36 0.253 0.84 0.253 1.2 0.013 0.453-0.307 1.080-0.2 1.387 0.267 0.307 0.453 0.2 1.080-0.267 1.387-0.52 0.36-1.12 0.533-1.72 0.533z"></path>
<path d="M21.334 26.894c-2.533 0-4.6-2.067-4.6-4.6 0-0.947 0.773-1.72 1.72-1.72h5.76c0.947 0 1.72 0.773 1.72 1.72 0 2.533-2.067 4.6-4.6 4.6zM18.748 22.574c0.133 1.307 1.24 2.32 2.587 2.32s2.44-1.013 2.587-2.32h-5.173z"></path>
</svg>
