<!-- Generated by IcoMoon.io -->
<svg version="1.1" xmlns="http://www.w3.org/2000/svg" width="32" height="32" viewBox="0 0 32 32">
<title>sms-star</title>
<path d="M22.667 28.333h-13.333c-4.867 0-7.667-2.8-7.667-7.667v-9.333c0-4.867 2.8-7.667 7.667-7.667h6.667c0.547 0 1 0.453 1 1s-0.453 1-1 1h-6.667c-3.813 0-5.667 1.853-5.667 5.667v9.333c0 3.813 1.853 5.667 5.667 5.667h13.333c3.813 0 5.667-1.853 5.667-5.667v-5.333c0-0.547 0.453-1 1-1s1 0.453 1 1v5.333c0 4.867-2.8 7.667-7.667 7.667z"></path>
<path d="M15.998 17.16c-1.12 0-2.253-0.347-3.12-1.053l-4.173-3.333c-0.427-0.347-0.507-0.973-0.16-1.4s0.973-0.507 1.4-0.16l4.173 3.333c1.013 0.813 2.733 0.813 3.747 0 0.427-0.347 1.053-0.28 1.4 0.16 0.347 0.427 0.28 1.067-0.16 1.4-0.853 0.707-1.987 1.053-3.107 1.053z"></path>
<path d="M22.321 13c-0.547 0-0.92-0.187-1.16-0.36-0.44-0.32-1.12-1.12-0.72-2.88l0.067-0.28c0.027-0.107-0.053-0.36-0.12-0.44l-0.467-0.467c-0.787-0.8-1.093-1.733-0.827-2.573 0.267-0.827 1.053-1.413 2.16-1.6l0.507-0.080c0.093-0.027 0.28-0.16 0.333-0.253l0.373-0.76c0.52-1.053 1.32-1.653 2.2-1.653s1.68 0.6 2.2 1.653l0.373 0.76c0.040 0.080 0.24 0.227 0.333 0.253l0.507 0.080c1.107 0.187 1.893 0.773 2.16 1.6s-0.027 1.76-0.827 2.573l-0.467 0.467c-0.067 0.080-0.147 0.333-0.12 0.44l0.067 0.28c0.4 1.76-0.28 2.56-0.72 2.88s-1.4 0.707-2.933-0.213l-0.333-0.2c-0.093-0.053-0.36-0.053-0.453 0l-0.347 0.2c-0.72 0.427-1.32 0.573-1.787 0.573zM24.654 3.667c-0.013 0.013-0.2 0.147-0.387 0.533l-0.373 0.76c-0.32 0.653-1.080 1.213-1.787 1.333l-0.507 0.080c-0.427 0.067-0.573 0.213-0.587 0.24 0 0.027 0.040 0.24 0.347 0.547l0.467 0.467c0.547 0.56 0.827 1.52 0.653 2.28l-0.067 0.28c-0.107 0.48-0.067 0.733-0.040 0.827 0.027-0.027 0.267-0.053 0.707-0.32l0.347-0.2c0.733-0.44 1.787-0.44 2.52 0l0.333 0.2c0.44 0.267 0.667 0.293 0.747 0.293-0.013-0.040 0.040-0.28-0.080-0.8l-0.067-0.28c-0.173-0.773 0.107-1.72 0.653-2.28l0.467-0.467c0.307-0.307 0.347-0.52 0.347-0.56-0.013-0.027-0.16-0.16-0.587-0.24l-0.507-0.080c-0.72-0.12-1.467-0.68-1.787-1.333l-0.373-0.747c-0.213-0.4-0.387-0.52-0.44-0.533z"></path>
</svg>
