<!-- Generated by IcoMoon.io -->
<svg version="1.1" xmlns="http://www.w3.org/2000/svg" width="32" height="32" viewBox="0 0 32 32">
<title>sms-edit</title>
<path d="M16 28.333h-6.667c-4.867 0-7.667-2.8-7.667-7.667v-9.333c0-4.867 2.8-7.667 7.667-7.667h13.333c4.867 0 7.667 2.8 7.667 7.667v4c0 0.547-0.453 1-1 1s-1-0.453-1-1v-4c0-3.813-1.853-5.667-5.667-5.667h-13.333c-3.813 0-5.667 1.853-5.667 5.667v9.333c0 3.813 1.853 5.667 5.667 5.667h6.667c0.547 0 1 0.453 1 1s-0.453 1-1 1z"></path>
<path d="M15.998 17.16c-1.12 0-2.253-0.347-3.12-1.053l-4.173-3.333c-0.427-0.347-0.507-0.973-0.16-1.4s0.973-0.493 1.4-0.16l4.173 3.333c1.013 0.813 2.733 0.813 3.747 0l4.173-3.333c0.427-0.347 1.053-0.28 1.4 0.16 0.347 0.427 0.28 1.067-0.16 1.4l-4.173 3.333c-0.853 0.707-1.987 1.053-3.107 1.053z"></path>
<path d="M21.093 29.040c-0.507 0-0.987-0.187-1.333-0.533-0.413-0.413-0.6-1.013-0.507-1.64l0.253-1.8c0.067-0.467 0.347-1.027 0.68-1.36l4.72-4.72c0.64-0.64 1.267-0.973 1.947-1.040 0.827-0.080 1.653 0.267 2.427 1.040s1.12 1.587 1.040 2.427c-0.067 0.667-0.413 1.307-1.040 1.947l-4.72 4.72c-0.333 0.333-0.893 0.613-1.36 0.68l-1.8 0.253c-0.107 0.013-0.2 0.027-0.307 0.027zM27.079 19.933c-0.013 0-0.027 0-0.040 0-0.187 0.013-0.44 0.187-0.72 0.467l-4.72 4.72c-0.040 0.040-0.107 0.173-0.107 0.227l-0.24 1.667 1.667-0.24c0.053-0.013 0.187-0.080 0.227-0.12l4.72-4.72c0.28-0.293 0.453-0.533 0.467-0.72 0.027-0.267-0.24-0.587-0.467-0.813-0.213-0.213-0.52-0.467-0.787-0.467z"></path>
<path d="M27.894 24.333c-0.093 0-0.187-0.013-0.267-0.040-1.76-0.493-3.16-1.893-3.653-3.653-0.147-0.533 0.16-1.080 0.693-1.24 0.533-0.147 1.080 0.16 1.227 0.693 0.307 1.093 1.173 1.96 2.267 2.267 0.533 0.147 0.84 0.707 0.693 1.24-0.12 0.44-0.52 0.733-0.96 0.733z"></path>
</svg>
