<!-- Generated by IcoMoon.io -->
<svg version="1.1" xmlns="http://www.w3.org/2000/svg" width="32" height="32" viewBox="0 0 32 32">
<title>sms-notification</title>
<path d="M22.667 28.333h-13.333c-4.867 0-7.667-2.8-7.667-7.667v-9.333c0-4.867 2.8-7.667 7.667-7.667h9.333c0.547 0 1 0.453 1 1s-0.453 1-1 1h-9.333c-3.813 0-5.667 1.853-5.667 5.667v9.333c0 3.813 1.853 5.667 5.667 5.667h13.333c3.813 0 5.667-1.853 5.667-5.667v-6.667c0-0.547 0.453-1 1-1s1 0.453 1 1v6.667c0 4.867-2.8 7.667-7.667 7.667z"></path>
<path d="M15.998 17.16c-1.12 0-2.253-0.347-3.12-1.053l-4.173-3.333c-0.427-0.347-0.507-0.973-0.16-1.4s0.973-0.507 1.4-0.16l4.173 3.333c1.013 0.813 2.733 0.813 3.747 0l1.573-1.253c0.427-0.347 1.067-0.28 1.4 0.16 0.347 0.427 0.28 1.067-0.16 1.4l-1.573 1.253c-0.853 0.707-1.987 1.053-3.107 1.053z"></path>
<path d="M26 11.667c-2.387 0-4.333-1.947-4.333-4.333s1.947-4.333 4.333-4.333c2.387 0 4.333 1.947 4.333 4.333s-1.947 4.333-4.333 4.333zM26 5c-1.28 0-2.333 1.053-2.333 2.333s1.053 2.333 2.333 2.333c1.28 0 2.333-1.053 2.333-2.333s-1.053-2.333-2.333-2.333z"></path>
</svg>
