<!-- Generated by IcoMoon.io -->
<svg version="1.1" xmlns="http://www.w3.org/2000/svg" width="32" height="32" viewBox="0 0 32 32">
<title>sound</title>
<path d="M4 22c-0.547 0-1-0.453-1-1v-10c0-0.547 0.453-1 1-1s1 0.453 1 1v10c0 0.547-0.453 1-1 1z"></path>
<path d="M10 25.333c-0.547 0-1-0.453-1-1v-16.667c0-0.547 0.453-1 1-1s1 0.453 1 1v16.667c0 0.547-0.453 1-1 1z"></path>
<path d="M16 28.667c-0.547 0-1-0.453-1-1v-23.333c0-0.547 0.453-1 1-1s1 0.453 1 1v23.333c0 0.547-0.453 1-1 1z"></path>
<path d="M22 25.333c-0.547 0-1-0.453-1-1v-16.667c0-0.547 0.453-1 1-1s1 0.453 1 1v16.667c0 0.547-0.453 1-1 1z"></path>
<path d="M28 22c-0.547 0-1-0.453-1-1v-10c0-0.547 0.453-1 1-1s1 0.453 1 1v10c0 0.547-0.453 1-1 1z"></path>
</svg>
