<!-- Generated by IcoMoon.io -->
<svg version="1.1" xmlns="http://www.w3.org/2000/svg" width="32" height="32" viewBox="0 0 32 32">
<title>speaker</title>
<path d="M20 30.333h-8c-4.56 0-6.333-1.773-6.333-6.333v-16c0-4.56 1.773-6.333 6.333-6.333h8c4.56 0 6.333 1.773 6.333 6.333v16c0 4.56-1.773 6.333-6.333 6.333zM12 3.667c-3.44 0-4.333 0.893-4.333 4.333v16c0 3.44 0.893 4.333 4.333 4.333h8c3.44 0 4.333-0.893 4.333-4.333v-16c0-3.44-0.893-4.333-4.333-4.333h-8z"></path>
<path d="M16 25c-2.76 0-5-2.24-5-5s2.24-5 5-5c2.76 0 5 2.24 5 5s-2.24 5-5 5zM16 17c-1.653 0-3 1.347-3 3s1.347 3 3 3c1.653 0 3-1.347 3-3s-1.347-3-3-3z"></path>
<path d="M16 13c-1.653 0-3-1.347-3-3s1.347-3 3-3c1.653 0 3 1.347 3 3s-1.347 3-3 3zM16 9c-0.547 0-1 0.453-1 1s0.453 1 1 1c0.547 0 1-0.453 1-1s-0.453-1-1-1z"></path>
</svg>
