<!-- Generated by IcoMoon.io -->
<svg version="1.1" xmlns="http://www.w3.org/2000/svg" width="32" height="32" viewBox="0 0 32 32">
<title>speedometer</title>
<path d="M25.52 27c-0.253 0-0.507-0.093-0.707-0.28-0.4-0.387-0.4-1.013-0.013-1.413 2.28-2.32 3.533-5.387 3.533-8.64 0-6.8-5.533-12.333-12.333-12.333s-12.333 5.533-12.333 12.333c0 3.24 1.24 6.293 3.507 8.613 0.387 0.4 0.373 1.027-0.013 1.413-0.4 0.387-1.027 0.373-1.413-0.013-2.627-2.693-4.080-6.253-4.080-10.013 0-7.907 6.427-14.333 14.333-14.333s14.333 6.427 14.333 14.333c0 3.773-1.453 7.347-4.107 10.040-0.187 0.2-0.453 0.293-0.707 0.293z"></path>
<path d="M15.999 29.667c-3.027 0-5.493-2.467-5.493-5.493s2.467-5.507 5.493-5.507c3.027 0 5.493 2.467 5.493 5.493s-2.467 5.507-5.493 5.507zM15.999 20.667c-1.933 0-3.493 1.573-3.493 3.493s1.573 3.493 3.493 3.493c1.92 0 3.493-1.573 3.493-3.493s-1.56-3.493-3.493-3.493z"></path>
<path d="M21.333 17h-1c-1.107 0-2-0.893-2-2v-1c0-1.653 1.347-3 3-3s3 1.347 3 3c0 1.653-1.347 3-3 3zM21.333 13c-0.547 0-1 0.453-1 1v1h1c0.547 0 1-0.453 1-1s-0.453-1-1-1z"></path>
</svg>
