<!-- Generated by IcoMoon.io -->
<svg version="1.1" xmlns="http://www.w3.org/2000/svg" width="32" height="32" viewBox="0 0 32 32">
<title>square</title>
<path d="M12.493 30.333h-6.333c-3.067 0-4.493-1.427-4.493-4.493v-6.333c0-3.080 1.427-4.507 4.493-4.507h3.173c0.547 0 1 0.453 1 1v3.16c0 1.947 0.56 2.507 2.493 2.507h3.173c0.547 0 1 0.453 1 1v3.173c0 3.067-1.427 4.493-4.507 4.493zM6.16 17c-1.933 0-2.493 0.56-2.493 2.507v6.333c0 1.933 0.56 2.493 2.493 2.493h6.333c1.947 0 2.507-0.56 2.507-2.493v-2.173h-2.173c-3.067 0-4.493-1.427-4.493-4.507v-2.16h-2.173z"></path>
<path d="M19.16 23.667h-6.333c-3.067 0-4.493-1.427-4.493-4.507v-6.333c0-3.067 1.427-4.493 4.493-4.493h3.173c0.547 0 1 0.453 1 1v3.16c0 1.947 0.56 2.507 2.493 2.507h3.173c0.547 0 1 0.453 1 1v3.16c0 3.080-1.427 4.507-4.507 4.507zM12.827 10.333c-1.933 0-2.493 0.56-2.493 2.493v6.333c0 1.947 0.56 2.507 2.493 2.507h6.333c1.947 0 2.507-0.56 2.507-2.507v-2.16h-2.173c-3.067 0-4.493-1.427-4.493-4.507v-2.16h-2.173z"></path>
<path d="M25.827 17h-6.333c-3.067 0-4.493-1.427-4.493-4.507v-6.333c0-3.067 1.427-4.493 4.493-4.493h6.333c3.080 0 4.507 1.427 4.507 4.493v6.333c0 3.080-1.427 4.507-4.507 4.507zM19.493 3.667c-1.933 0-2.493 0.56-2.493 2.493v6.333c0 1.947 0.56 2.507 2.493 2.507h6.333c1.947 0 2.507-0.56 2.507-2.507v-6.333c0-1.933-0.56-2.493-2.507-2.493h-6.333z"></path>
</svg>
