<!-- Generated by IcoMoon.io -->
<svg version="1.1" xmlns="http://www.w3.org/2000/svg" width="32" height="32" viewBox="0 0 32 32">
<title>star-slash</title>
<path d="M7.040 25.867c-0.080 0-0.147-0.013-0.227-0.027-0.533-0.12-0.88-0.667-0.747-1.2l0.76-3.28c0.107-0.427-0.107-1.16-0.427-1.48l-3.307-3.307c-1.653-1.653-1.52-3.067-1.293-3.76s0.947-1.92 3.24-2.307l4.253-0.707c0.4-0.080 0.973-0.507 1.147-0.867l2.36-4.707c1.067-2.147 2.467-2.453 3.2-2.453s2.133 0.32 3.2 2.453l2.347 4.693c0.080 0.16 0.253 0.347 0.453 0.507 0.44 0.333 0.52 0.973 0.173 1.4-0.333 0.44-0.96 0.52-1.4 0.173-0.32-0.24-0.747-0.653-1.013-1.187l-2.347-4.693c-0.413-0.84-0.947-1.347-1.413-1.347s-1 0.507-1.413 1.36l-2.36 4.693c-0.467 0.933-1.587 1.76-2.613 1.933l-4.24 0.707c-0.907 0.147-1.52 0.507-1.667 0.947s0.16 1.093 0.813 1.733l3.307 3.307c0.8 0.8 1.213 2.24 0.96 3.347l-0.76 3.28c-0.12 0.467-0.52 0.787-0.987 0.787z"></path>
<path d="M23.546 30.227c-0.707 0-1.613-0.227-2.747-0.893l-3.987-2.36c-0.413-0.24-1.213-0.24-1.613 0l-4 2.36c-0.467 0.28-1.093 0.12-1.373-0.347-0.28-0.48-0.12-1.093 0.347-1.373l3.987-2.36c1.040-0.613 2.613-0.613 3.653 0l3.987 2.36c1.16 0.693 1.893 0.693 2.173 0.493s0.48-0.907 0.187-2.213l-0.947-4.093c-0.253-1.107 0.16-2.533 0.96-3.347l3.307-3.307c0.653-0.653 0.947-1.293 0.813-1.733-0.147-0.44-0.76-0.8-1.667-0.947-0.547-0.093-0.907-0.6-0.827-1.147 0.093-0.547 0.6-0.907 1.147-0.827 2.307 0.387 3.027 1.613 3.24 2.307s0.347 2.107-1.293 3.76l-3.293 3.307c-0.32 0.32-0.52 1.040-0.427 1.48l0.947 4.093c0.613 2.667-0.333 3.827-0.947 4.28-0.333 0.24-0.867 0.507-1.627 0.507z"></path>
<path d="M2.666 30.333c-0.253 0-0.507-0.093-0.707-0.293-0.387-0.387-0.387-1.027 0-1.413l26.667-26.667c0.387-0.387 1.027-0.387 1.413 0s0.387 1.027 0 1.413l-26.667 26.667c-0.2 0.2-0.453 0.293-0.707 0.293z"></path>
</svg>
