<!-- Generated by IcoMoon.io -->
<svg version="1.1" xmlns="http://www.w3.org/2000/svg" width="32" height="32" viewBox="0 0 32 32">
<title>star-1</title>
<path d="M12.642 27.587c-0.667 0-1.133-0.227-1.413-0.44-0.533-0.387-1.36-1.387-0.84-3.627l0.76-3.28c0.067-0.28-0.080-0.787-0.28-1l-2.653-2.653c-1.4-1.4-1.28-2.613-1.093-3.213s0.8-1.653 2.747-1.987l3.4-0.56c0.253-0.040 0.667-0.347 0.773-0.573l1.88-3.76c0.907-1.813 2.107-2.080 2.747-2.080s1.84 0.267 2.747 2.080l1.88 3.76c0.12 0.227 0.52 0.533 0.773 0.573l3.4 0.56c1.947 0.32 2.56 1.387 2.747 1.987s0.307 1.813-1.093 3.213l-2.653 2.653c-0.2 0.2-0.347 0.72-0.28 1l0.76 3.28c0.52 2.253-0.307 3.24-0.84 3.627s-1.72 0.88-3.72-0.307l-3.187-1.893c-0.267-0.16-0.827-0.16-1.093 0l-3.187 1.893c-0.92 0.56-1.693 0.747-2.28 0.747zM18.668 6.413c-0.213 0-0.6 0.253-0.96 0.973l-1.88 3.76c-0.4 0.813-1.347 1.507-2.24 1.653l-3.4 0.56c-0.76 0.133-1.107 0.413-1.173 0.627s0.053 0.64 0.6 1.187l2.653 2.653c0.68 0.68 1.040 1.92 0.827 2.853l-0.76 3.28c-0.227 0.947-0.080 1.453 0.067 1.573 0.147 0.107 0.68 0.093 1.507-0.413l3.2-1.893c0.893-0.533 2.24-0.533 3.12 0l3.187 1.893c0.84 0.493 1.373 0.52 1.52 0.413s0.293-0.613 0.067-1.573l-0.76-3.28c-0.213-0.947 0.133-2.173 0.827-2.853l2.653-2.653c0.547-0.547 0.667-0.987 0.6-1.187s-0.413-0.493-1.173-0.627l-3.4-0.56c-0.893-0.147-1.84-0.84-2.24-1.653l-1.88-3.76c-0.36-0.72-0.747-0.973-0.96-0.973z"></path>
<path d="M10.667 7.667h-8c-0.547 0-1-0.453-1-1s0.453-1 1-1h8c0.547 0 1 0.453 1 1s-0.453 1-1 1z"></path>
<path d="M6.667 26.333h-4c-0.547 0-1-0.453-1-1s0.453-1 1-1h4c0.547 0 1 0.453 1 1s-0.453 1-1 1z"></path>
<path d="M4 17h-1.333c-0.547 0-1-0.453-1-1s0.453-1 1-1h1.333c0.547 0 1 0.453 1 1s-0.453 1-1 1z"></path>
</svg>
