<!-- Generated by IcoMoon.io -->
<svg version="1.1" xmlns="http://www.w3.org/2000/svg" width="32" height="32" viewBox="0 0 32 32">
<title>star</title>
<path d="M23.547 30.227c-0.707 0-1.613-0.227-2.747-0.893l-3.987-2.36c-0.413-0.24-1.213-0.24-1.613 0l-4 2.36c-2.36 1.4-3.747 0.84-4.373 0.387-0.613-0.453-1.573-1.613-0.947-4.28l0.947-4.093c0.107-0.427-0.107-1.16-0.427-1.48l-3.307-3.307c-1.653-1.653-1.52-3.067-1.293-3.76s0.947-1.92 3.24-2.307l4.253-0.707c0.4-0.067 0.973-0.493 1.147-0.853l2.36-4.707c1.067-2.147 2.467-2.467 3.2-2.467s2.133 0.32 3.2 2.467l2.347 4.693c0.187 0.36 0.76 0.787 1.16 0.853l4.253 0.707c2.307 0.387 3.027 1.613 3.24 2.307s0.347 2.107-1.293 3.76l-3.307 3.32c-0.32 0.32-0.52 1.040-0.427 1.48l0.947 4.093c0.613 2.667-0.333 3.827-0.947 4.28-0.333 0.24-0.867 0.507-1.627 0.507zM16 24.787c0.653 0 1.307 0.16 1.827 0.467l3.987 2.36c1.16 0.693 1.893 0.693 2.173 0.493s0.48-0.907 0.187-2.213l-0.947-4.093c-0.253-1.107 0.16-2.533 0.96-3.347l3.307-3.307c0.653-0.653 0.947-1.293 0.813-1.733-0.147-0.44-0.76-0.8-1.667-0.947l-4.253-0.707c-1.027-0.173-2.147-1-2.613-1.933l-2.347-4.693c-0.427-0.853-0.96-1.36-1.427-1.36s-1 0.507-1.413 1.36l-2.36 4.693c-0.467 0.933-1.587 1.76-2.613 1.933l-4.24 0.707c-0.907 0.147-1.52 0.507-1.667 0.947s0.16 1.093 0.813 1.733l3.307 3.307c0.8 0.8 1.213 2.24 0.96 3.347l-0.947 4.093c-0.307 1.32-0.093 2.013 0.187 2.213s1 0.187 2.173-0.493l3.987-2.36c0.507-0.307 1.16-0.467 1.813-0.467z"></path>
</svg>
