<!-- Generated by IcoMoon.io -->
<svg version="1.1" xmlns="http://www.w3.org/2000/svg" width="32" height="32" viewBox="0 0 32 32">
<title>status</title>
<path d="M13.32 30.067c-0.067 0-0.133 0-0.2-0.027-5.107-1.040-9.253-4.8-10.8-9.787-0.16-0.533 0.133-1.093 0.653-1.253 0.533-0.16 1.093 0.133 1.253 0.653 1.333 4.293 4.893 7.52 9.293 8.413 0.547 0.107 0.893 0.64 0.773 1.187-0.093 0.48-0.52 0.813-0.973 0.813z"></path>
<path d="M29.267 15.64c-0.507 0-0.947-0.387-1-0.893-0.64-6.32-5.92-11.080-12.267-11.080-6.36 0-11.627 4.76-12.267 11.067-0.053 0.547-0.533 0.96-1.093 0.893-0.547-0.053-0.947-0.547-0.893-1.093 0.747-7.333 6.88-12.867 14.253-12.867 7.387 0 13.52 5.533 14.253 12.867 0.053 0.547-0.347 1.040-0.893 1.093-0.027 0.013-0.067 0.013-0.093 0.013z"></path>
<path d="M18.68 30.066c-0.467 0-0.88-0.32-0.973-0.8-0.107-0.547 0.24-1.067 0.773-1.173 4.373-0.893 7.933-4.093 9.28-8.36 0.16-0.533 0.733-0.827 1.253-0.653 0.533 0.16 0.813 0.733 0.653 1.253-1.573 4.96-5.707 8.68-10.787 9.72-0.067 0-0.133 0.013-0.2 0.013z"></path>
</svg>
