<!-- Generated by IcoMoon.io -->
<svg version="1.1" xmlns="http://www.w3.org/2000/svg" width="32" height="32" viewBox="0 0 32 32">
<title>status-up</title>
<path d="M9.173 25.2c-0.547 0-1-0.453-1-1v-2.76c0-0.547 0.453-1 1-1s1 0.453 1 1v2.76c0 0.56-0.453 1-1 1z"></path>
<path d="M16 25.2c-0.547 0-1-0.453-1-1v-5.533c0-0.547 0.453-1 1-1s1 0.453 1 1v5.533c0 0.56-0.453 1-1 1z"></path>
<path d="M22.827 25.2c-0.547 0-1-0.453-1-1v-8.293c0-0.547 0.453-1 1-1s1 0.453 1 1v8.293c0 0.56-0.44 1-1 1z"></path>
<path d="M9.173 17.573c-0.453 0-0.853-0.307-0.973-0.76-0.133-0.533 0.187-1.080 0.733-1.213 4.907-1.227 9.227-3.907 12.52-7.733l0.613-0.72c0.36-0.413 0.987-0.467 1.413-0.107 0.413 0.36 0.467 0.987 0.107 1.413l-0.613 0.72c-3.56 4.16-8.253 7.053-13.56 8.373-0.080 0.027-0.16 0.027-0.24 0.027z"></path>
<path d="M22.827 12.693c-0.547 0-1-0.453-1-1v-2.893h-2.907c-0.547 0-1-0.453-1-1s0.453-1 1-1h3.907c0.547 0 1 0.453 1 1v3.907c0 0.547-0.44 0.987-1 0.987z"></path>
<path d="M20 30.333h-8c-7.24 0-10.333-3.093-10.333-10.333v-8c0-7.24 3.093-10.333 10.333-10.333h8c7.24 0 10.333 3.093 10.333 10.333v8c0 7.24-3.093 10.333-10.333 10.333zM12 3.667c-6.147 0-8.333 2.187-8.333 8.333v8c0 6.147 2.187 8.333 8.333 8.333h8c6.147 0 8.333-2.187 8.333-8.333v-8c0-6.147-2.187-8.333-8.333-8.333h-8z"></path>
</svg>
