<!-- Generated by IcoMoon.io -->
<svg version="1.1" xmlns="http://www.w3.org/2000/svg" width="32" height="32" viewBox="0 0 32 32">
<title>sticker</title>
<path d="M15.959 30.333c-0.813 0-1.653-0.067-2.507-0.213-5.867-1-10.653-5.8-11.627-11.693-0.773-4.68 0.68-9.253 4-12.573s7.893-4.76 12.56-4c5.88 0.973 10.693 5.747 11.693 11.613 0.213 1.293 0.267 2.56 0.16 3.76v0.013c-0.027 0.307-0.080 0.6-0.16 0.893-0.093 0.333-0.347 0.587-0.667 0.693s-0.68 0.027-0.947-0.187c-1.253-1.053-2.853-1.64-4.507-1.64-3.867 0-7 3.147-7 7 0 1.653 0.587 3.253 1.64 4.507 0.227 0.267 0.293 0.613 0.187 0.947s-0.36 0.573-0.693 0.667c-0.293 0.080-0.587 0.133-0.893 0.16-0.4 0.040-0.813 0.053-1.24 0.053zM15.959 3.667c-3.267 0-6.36 1.267-8.707 3.613-2.853 2.853-4.107 6.8-3.44 10.827 0.84 5.053 4.933 9.187 9.987 10.040 0.8 0.133 1.56 0.213 2.293 0.187-0.72-1.32-1.107-2.813-1.107-4.333 0-4.96 4.040-9 9-9 1.52 0 3.013 0.387 4.333 1.107 0.013-0.733-0.053-1.493-0.187-2.293-0.853-5.040-4.987-9.147-10.040-9.973-0.733-0.12-1.44-0.173-2.133-0.173z"></path>
<path d="M17.841 30.147c-0.293 0-0.573-0.12-0.76-0.36-1.36-1.613-2.12-3.667-2.12-5.787 0-4.96 4.040-9 9-9 2.12 0 4.173 0.747 5.787 2.12 0.307 0.253 0.427 0.667 0.32 1.040-0.24 0.827-0.667 1.547-1.28 2.16l-8.507 8.507c-0.613 0.613-1.347 1.040-2.16 1.28-0.093 0.027-0.187 0.040-0.28 0.040zM23.961 17c-3.867 0-7 3.147-7 7 0 1.413 0.427 2.787 1.213 3.933 0.253-0.133 0.48-0.307 0.693-0.52l8.507-8.507c0.213-0.213 0.387-0.44 0.52-0.693-1.147-0.787-2.52-1.213-3.933-1.213z"></path>
</svg>
