<!-- Generated by IcoMoon.io -->
<svg version="1.1" xmlns="http://www.w3.org/2000/svg" width="32" height="32" viewBox="0 0 32 32">
<title>stickynote</title>
<path d="M10.667 7.667c-0.547 0-1-0.453-1-1v-4c0-0.547 0.453-1 1-1s1 0.453 1 1v4c0 0.547-0.453 1-1 1z"></path>
<path d="M21.333 7.667c-0.547 0-1-0.453-1-1v-4c0-0.547 0.453-1 1-1s1 0.453 1 1v4c0 0.547-0.453 1-1 1z"></path>
<path d="M20 15.667h-10.667c-0.547 0-1-0.453-1-1s0.453-1 1-1h10.667c0.547 0 1 0.453 1 1s-0.453 1-1 1z"></path>
<path d="M16 21h-6.667c-0.547 0-1-0.453-1-1s0.453-1 1-1h6.667c0.547 0 1 0.453 1 1s-0.453 1-1 1z"></path>
<path d="M20 30.333h-8c-7.493 0-9-3.533-9-9.24v-8.227c0-6.32 2.133-8.893 7.613-9.2h10.72c5.533 0.307 7.667 2.88 7.667 9.2v8.467c0 0.547-0.453 1-1 1s-1-0.453-1-1v-8.467c0-5.813-1.933-6.987-5.72-7.2h-10.613c-3.733 0.213-5.667 1.387-5.667 7.2v8.227c0 5.107 0.973 7.24 7 7.24h8c0.547 0 1 0.453 1 1s-0.453 1-1 1z"></path>
<path d="M20 30.333c-0.133 0-0.253-0.027-0.387-0.080-0.373-0.16-0.613-0.52-0.613-0.92v-4c0-3.227 1.773-5 5-5h4c0.4 0 0.773 0.24 0.92 0.613 0.16 0.373 0.067 0.8-0.213 1.093l-8 8c-0.187 0.187-0.44 0.293-0.707 0.293zM24 22.333c-2.107 0-3 0.893-3 3v1.587l4.587-4.587h-1.587z"></path>
</svg>
