<!-- Generated by IcoMoon.io -->
<svg version="1.1" xmlns="http://www.w3.org/2000/svg" width="32" height="32" viewBox="0 0 32 32">
<title>stop-circle</title>
<path d="M15.961 30.333c-7.893 0-14.333-6.427-14.333-14.333s6.44-14.333 14.333-14.333c7.893 0 14.333 6.427 14.333 14.333s-6.427 14.333-14.333 14.333zM15.961 3.667c-6.8 0-12.333 5.533-12.333 12.333s5.533 12.333 12.333 12.333c6.8 0 12.333-5.533 12.333-12.333s-5.533-12.333-12.333-12.333z"></path>
<path d="M17.693 22.64h-3.387c-3.373 0-4.947-1.573-4.947-4.947v-3.387c0-3.373 1.573-4.947 4.947-4.947h3.387c3.373 0 4.947 1.573 4.947 4.947v3.387c0 3.373-1.573 4.947-4.947 4.947zM14.306 11.36c-2.253 0-2.947 0.693-2.947 2.947v3.387c0 2.253 0.693 2.947 2.947 2.947h3.387c2.253 0 2.947-0.693 2.947-2.947v-3.387c0-2.253-0.693-2.947-2.947-2.947h-3.387z"></path>
</svg>
