<!-- Generated by IcoMoon.io -->
<svg version="1.1" xmlns="http://www.w3.org/2000/svg" width="32" height="32" viewBox="0 0 32 32">
<title>story</title>
<path d="M15.999 25.827c-2.387 0-4.773-0.907-6.6-2.733-3.64-3.64-3.64-9.56 0-13.2s9.56-3.64 13.2 0c3.64 3.64 3.64 9.56 0 13.2-1.827 1.827-4.213 2.733-6.6 2.733zM15.999 9.16c-1.88 0-3.76 0.72-5.187 2.147-2.853 2.867-2.853 7.507 0 10.373 2.867 2.867 7.52 2.853 10.373 0 2.853-2.867 2.853-7.507 0-10.373-1.427-1.427-3.307-2.147-5.187-2.147z"></path>
<path d="M10.999 29.853c-0.12 0-0.253-0.027-0.373-0.067-3-1.2-5.427-3.32-7.053-6.12-1.573-2.733-2.2-5.827-1.787-8.973 0.067-0.547 0.573-0.933 1.12-0.867s0.933 0.573 0.867 1.12c-0.347 2.693 0.187 5.36 1.533 7.707 1.387 2.4 3.48 4.227 6.053 5.253 0.507 0.213 0.76 0.787 0.56 1.307-0.147 0.4-0.533 0.64-0.92 0.64z"></path>
<path d="M7.799 6.973c-0.293 0-0.587-0.133-0.787-0.387-0.347-0.44-0.267-1.067 0.173-1.4 2.547-1.987 5.587-3.040 8.813-3.040 3.147 0 6.147 1.013 8.667 2.933 0.44 0.333 0.52 0.96 0.187 1.4s-0.96 0.52-1.4 0.187c-2.16-1.653-4.733-2.52-7.453-2.52-2.773 0-5.4 0.907-7.587 2.613-0.187 0.147-0.4 0.213-0.613 0.213z"></path>
<path d="M21.001 29.853c-0.4 0-0.773-0.24-0.933-0.627-0.2-0.507 0.040-1.093 0.56-1.307 2.573-1.040 4.667-2.853 6.053-5.253 1.36-2.347 1.893-5.013 1.533-7.707-0.067-0.547 0.32-1.053 0.867-1.12 0.533-0.067 1.053 0.32 1.12 0.867 0.4 3.133-0.213 6.24-1.787 8.973-1.613 2.8-4.053 4.907-7.053 6.12-0.107 0.027-0.227 0.053-0.36 0.053z"></path>
</svg>
