<!-- Generated by IcoMoon.io -->
<svg version="1.1" xmlns="http://www.w3.org/2000/svg" width="32" height="32" viewBox="0 0 32 32">
<title>strongbox</title>
<path d="M20 30.333h-8c-7.24 0-10.333-3.093-10.333-10.333v-8c0-7.24 3.093-10.333 10.333-10.333h8c7.24 0 10.333 3.093 10.333 10.333v8c0 7.24-3.093 10.333-10.333 10.333zM12 3.667c-6.147 0-8.333 2.187-8.333 8.333v8c0 6.147 2.187 8.333 8.333 8.333h8c6.147 0 8.333-2.187 8.333-8.333v-8c0-6.147-2.187-8.333-8.333-8.333h-8z"></path>
<path d="M16.001 22.080c-1.467 0-2.667-1.2-2.667-2.667v-2.133c-0.787-0.653-1.32-1.573-1.453-2.6-0.027-0.16-0.053-0.387-0.053-0.6 0-1.293 0.587-2.493 1.627-3.293s2.373-1.053 3.653-0.72c1.4 0.373 2.56 1.52 2.92 2.92 0.147 0.547 0.187 1.12 0.093 1.693-0.147 1.013-0.667 1.933-1.453 2.587v2.133c0 1.48-1.2 2.68-2.667 2.68zM15.988 11.92c-0.48 0-0.933 0.147-1.32 0.453-0.533 0.413-0.84 1.040-0.84 1.707 0 0.093 0 0.2 0.027 0.28 0.093 0.667 0.453 1.213 1.013 1.56l0.467 0.293v3.2c0 0.373 0.293 0.667 0.667 0.667s0.667-0.293 0.667-0.667v-3.2l0.467-0.293c0.547-0.347 0.92-0.893 1-1.52v-0.027c0.053-0.293 0.040-0.587-0.040-0.867-0.187-0.733-0.787-1.32-1.507-1.507-0.2-0.053-0.4-0.080-0.6-0.080z"></path>
<path d="M29.333 13.547h-10.2v2h10.2v-2z"></path>
<path d="M12.867 13.547h-10.2v2h10.2v-2z"></path>
</svg>
