<!-- Generated by IcoMoon.io -->
<svg version="1.1" xmlns="http://www.w3.org/2000/svg" width="32" height="32" viewBox="0 0 32 32">
<title>strongbox-2</title>
<path d="M20 30.333h-8c-7.24 0-10.333-3.093-10.333-10.333v-8c0-7.24 3.093-10.333 10.333-10.333h8c7.24 0 10.333 3.093 10.333 10.333v8c0 7.24-3.093 10.333-10.333 10.333zM12 3.667c-6.147 0-8.333 2.187-8.333 8.333v8c0 6.147 2.187 8.333 8.333 8.333h8c6.147 0 8.333-2.187 8.333-8.333v-8c0-6.147-2.187-8.333-8.333-8.333h-8z"></path>
<path d="M21.333 26.333h-10.667c-3.227 0-5-1.773-5-5v-10.667c0-3.227 1.773-5 5-5h10.667c3.227 0 5 1.773 5 5v10.667c0 3.227-1.773 5-5 5zM10.667 7.667c-2.107 0-3 0.893-3 3v10.667c0 2.107 0.893 3 3 3h10.667c2.107 0 3-0.893 3-3v-10.667c0-2.107-0.893-3-3-3h-10.667z"></path>
<path d="M9.973 20.333h-3.307c-0.547 0-1-0.453-1-1s0.453-1 1-1h3.307c1.293 0 2.333-1.053 2.333-2.333s-1.053-2.333-2.333-2.333h-3.307c-0.547 0-1-0.453-1-1s0.453-1 1-1h3.307c2.387 0 4.333 1.947 4.333 4.333s-1.933 4.333-4.333 4.333z"></path>
<path d="M25.333 14.32h-4c-0.547 0-1-0.453-1-1s0.453-1 1-1h4c0.547 0 1 0.453 1 1s-0.453 1-1 1z"></path>
<path d="M25.333 19.667h-4c-0.547 0-1-0.453-1-1s0.453-1 1-1h4c0.547 0 1 0.453 1 1s-0.453 1-1 1z"></path>
<path d="M9.667 17.333c-0.173 0-0.347-0.040-0.507-0.107s-0.307-0.16-0.44-0.28c-0.253-0.253-0.387-0.587-0.387-0.947 0-0.347 0.147-0.693 0.387-0.947 0.373-0.36 0.96-0.493 1.453-0.28 0.173 0.067 0.32 0.16 0.44 0.28 0.24 0.253 0.387 0.6 0.387 0.947 0 0.36-0.133 0.693-0.387 0.947-0.133 0.12-0.28 0.213-0.44 0.28s-0.333 0.107-0.507 0.107z"></path>
</svg>
