<!-- Generated by IcoMoon.io -->
<svg version="1.1" xmlns="http://www.w3.org/2000/svg" width="32" height="32" viewBox="0 0 32 32">
<title>sun-1</title>
<path d="M16 25.667c-5.333 0-9.667-4.333-9.667-9.667s4.333-9.667 9.667-9.667c5.333 0 9.667 4.333 9.667 9.667s-4.333 9.667-9.667 9.667zM16 8.333c-4.227 0-7.667 3.44-7.667 7.667s3.44 7.667 7.667 7.667c4.227 0 7.667-3.44 7.667-7.667s-3.44-7.667-7.667-7.667z"></path>
<path d="M16 30.613c-0.733 0-1.333-0.547-1.333-1.28v-0.107c0-0.733 0.6-1.333 1.333-1.333s1.333 0.6 1.333 1.333c0 0.733-0.6 1.387-1.333 1.387zM25.52 26.853c-0.347 0-0.68-0.133-0.947-0.387l-0.173-0.173c-0.52-0.52-0.52-1.36 0-1.88s1.36-0.52 1.88 0l0.173 0.173c0.52 0.52 0.52 1.36 0 1.88-0.253 0.253-0.587 0.387-0.933 0.387zM6.48 26.853c-0.347 0-0.68-0.133-0.947-0.387-0.52-0.52-0.52-1.36 0-1.88l0.173-0.173c0.52-0.52 1.36-0.52 1.88 0s0.52 1.36 0 1.88l-0.173 0.173c-0.253 0.253-0.6 0.387-0.933 0.387zM29.333 17.333h-0.107c-0.733 0-1.333-0.6-1.333-1.333s0.6-1.333 1.333-1.333c0.733 0 1.387 0.6 1.387 1.333s-0.547 1.333-1.28 1.333zM2.773 17.333h-0.107c-0.733 0-1.333-0.6-1.333-1.333s0.6-1.333 1.333-1.333c0.733 0 1.387 0.6 1.387 1.333s-0.547 1.333-1.28 1.333zM25.347 7.987c-0.347 0-0.68-0.133-0.947-0.387-0.52-0.52-0.52-1.36 0-1.88l0.173-0.173c0.52-0.52 1.36-0.52 1.88 0s0.52 1.36 0 1.88l-0.173 0.173c-0.253 0.253-0.587 0.387-0.933 0.387zM6.653 7.987c-0.347 0-0.68-0.133-0.947-0.387l-0.173-0.187c-0.52-0.52-0.52-1.36 0-1.88s1.36-0.52 1.88 0l0.173 0.173c0.52 0.52 0.52 1.36 0 1.88-0.253 0.267-0.6 0.4-0.933 0.4zM16 4.053c-0.733 0-1.333-0.547-1.333-1.28v-0.107c0-0.733 0.6-1.333 1.333-1.333s1.333 0.6 1.333 1.333c0 0.733-0.6 1.387-1.333 1.387z"></path>
</svg>
