<!-- Generated by IcoMoon.io -->
<svg version="1.1" xmlns="http://www.w3.org/2000/svg" width="32" height="32" viewBox="0 0 32 32">
<title>sun-fog</title>
<path d="M24.667 17c-0.547 0-1-0.453-1-1 0-4.227-3.44-7.667-7.667-7.667s-7.667 3.44-7.667 7.667c0 0.547-0.453 1-1 1s-1-0.453-1-1c0-5.333 4.333-9.667 9.667-9.667s9.667 4.333 9.667 9.667c0 0.547-0.453 1-1 1z"></path>
<path d="M29.333 17.333h-0.107c-0.733 0-1.333-0.6-1.333-1.333s0.6-1.333 1.333-1.333c0.733 0 1.387 0.6 1.387 1.333s-0.547 1.333-1.28 1.333zM2.773 17.333h-0.107c-0.733 0-1.333-0.6-1.333-1.333s0.6-1.333 1.333-1.333c0.733 0 1.387 0.6 1.387 1.333s-0.547 1.333-1.28 1.333zM25.347 7.987c-0.347 0-0.68-0.133-0.947-0.387-0.52-0.52-0.52-1.36 0-1.88l0.173-0.173c0.52-0.52 1.36-0.52 1.88 0s0.52 1.36 0 1.88l-0.173 0.173c-0.253 0.253-0.587 0.387-0.933 0.387zM6.653 7.987c-0.347 0-0.68-0.133-0.947-0.387l-0.173-0.173c-0.52-0.52-0.52-1.36 0-1.88s1.36-0.52 1.88 0l0.173 0.173c0.52 0.52 0.52 1.36 0 1.88-0.253 0.253-0.6 0.387-0.933 0.387zM16 4.053c-0.733 0-1.333-0.547-1.333-1.28v-0.107c0-0.733 0.6-1.333 1.333-1.333s1.333 0.6 1.333 1.333c0 0.733-0.6 1.387-1.333 1.387z"></path>
<path d="M26.667 21h-21.333c-0.547 0-1-0.453-1-1s0.453-1 1-1h21.333c0.547 0 1 0.453 1 1s-0.453 1-1 1z"></path>
<path d="M24 25h-16c-0.547 0-1-0.453-1-1s0.453-1 1-1h16c0.547 0 1 0.453 1 1s-0.453 1-1 1z"></path>
<path d="M20 29h-8c-0.547 0-1-0.453-1-1s0.453-1 1-1h8c0.547 0 1 0.453 1 1s-0.453 1-1 1z"></path>
</svg>
