<!-- Generated by IcoMoon.io -->
<svg version="1.1" xmlns="http://www.w3.org/2000/svg" width="32" height="32" viewBox="0 0 32 32">
<title>sun</title>
<path d="M16 12.333c-0.547 0-1-0.453-1-1v-7.333c0-0.547 0.453-1 1-1s1 0.453 1 1v7.333c0 0.547-0.453 1-1 1z"></path>
<path d="M16 29c-0.547 0-1-0.453-1-1v-7.333c0-0.547 0.453-1 1-1s1 0.453 1 1v7.333c0 0.547-0.453 1-1 1z"></path>
<path d="M18.667 5h-5.333c-0.547 0-1-0.453-1-1s0.453-1 1-1h5.333c0.547 0 1 0.453 1 1s-0.453 1-1 1z"></path>
<path d="M18.667 29h-5.333c-0.547 0-1-0.453-1-1s0.453-1 1-1h5.333c0.547 0 1 0.453 1 1s-0.453 1-1 1z"></path>
<path d="M11.96 14.667c-0.173 0-0.347-0.040-0.493-0.133l-6.347-3.667c-0.48-0.28-0.64-0.893-0.36-1.36 0.28-0.48 0.893-0.64 1.36-0.36l6.347 3.667c0.48 0.28 0.64 0.893 0.36 1.36-0.187 0.32-0.52 0.493-0.867 0.493z"></path>
<path d="M26.387 23c-0.173 0-0.347-0.040-0.493-0.133l-6.347-3.667c-0.48-0.28-0.64-0.893-0.36-1.36 0.28-0.48 0.893-0.64 1.36-0.36l6.347 3.667c0.48 0.28 0.64 0.893 0.36 1.36-0.187 0.32-0.52 0.493-0.867 0.493z"></path>
<path d="M4.28 13.307c-0.173 0-0.347-0.040-0.493-0.133-0.48-0.28-0.64-0.893-0.36-1.36l2.667-4.613c0.28-0.48 0.893-0.64 1.36-0.36 0.48 0.28 0.64 0.893 0.36 1.36l-2.667 4.613c-0.187 0.32-0.533 0.493-0.867 0.493z"></path>
<path d="M25.054 25.307c-0.173 0-0.347-0.040-0.493-0.133-0.48-0.28-0.64-0.893-0.36-1.36l2.667-4.613c0.28-0.48 0.893-0.64 1.36-0.36 0.48 0.28 0.64 0.893 0.36 1.36l-2.667 4.613c-0.173 0.32-0.52 0.493-0.867 0.493z"></path>
<path d="M16 21.667c-2.013 0-3.893-1.080-4.907-2.827-0.507-0.88-0.76-1.827-0.76-2.84s0.253-1.96 0.76-2.827c1.013-1.747 2.893-2.827 4.907-2.827s3.893 1.080 4.907 2.827c0.507 0.88 0.76 1.827 0.76 2.84s-0.253 1.96-0.76 2.827c-1.013 1.747-2.893 2.827-4.907 2.827zM16 12.333c-1.307 0-2.52 0.707-3.173 1.84-0.32 0.56-0.493 1.187-0.493 1.827s0.16 1.267 0.493 1.84c0.653 1.133 1.867 1.84 3.173 1.84s2.52-0.707 3.173-1.84c0.32-0.56 0.493-1.187 0.493-1.827s-0.16-1.267-0.493-1.84c-0.653-1.133-1.867-1.84-3.173-1.84z"></path>
<path d="M20.041 14.667c-0.347 0-0.68-0.173-0.867-0.507-0.28-0.48-0.107-1.093 0.36-1.36l6.347-3.667c0.48-0.28 1.093-0.107 1.36 0.36 0.28 0.48 0.107 1.093-0.36 1.36l-6.347 3.667c-0.147 0.107-0.32 0.147-0.493 0.147z"></path>
<path d="M5.614 23c-0.347 0-0.68-0.173-0.867-0.507-0.28-0.48-0.107-1.093 0.36-1.36l6.347-3.667c0.48-0.28 1.093-0.107 1.36 0.36 0.28 0.48 0.107 1.093-0.36 1.36l-6.347 3.667c-0.147 0.107-0.32 0.147-0.493 0.147z"></path>
<path d="M27.72 13.307c-0.347 0-0.68-0.173-0.867-0.507l-2.667-4.613c-0.28-0.48-0.107-1.093 0.36-1.36 0.48-0.28 1.093-0.107 1.36 0.36l2.667 4.613c0.28 0.48 0.107 1.093-0.36 1.36-0.147 0.107-0.32 0.147-0.493 0.147z"></path>
<path d="M6.947 25.307c-0.347 0-0.68-0.173-0.867-0.507l-2.667-4.613c-0.28-0.48-0.107-1.093 0.36-1.36 0.48-0.28 1.093-0.107 1.36 0.36l2.667 4.613c0.28 0.48 0.107 1.093-0.36 1.36-0.16 0.107-0.333 0.147-0.493 0.147z"></path>
</svg>
