<!-- Generated by IcoMoon.io -->
<svg version="1.1" xmlns="http://www.w3.org/2000/svg" width="32" height="32" viewBox="0 0 32 32">
<title>support</title>
<path d="M16 30.333c-0.933 0-1.88-0.36-2.587-1.067l-2.28-2.253c-0.573-0.56-1.32-0.867-2.12-0.867h-1.013c-2.76 0-5-2.227-5-4.96v-14.547c0-2.733 2.24-4.96 5-4.96h16c2.76 0 5 2.227 5 4.96v14.547c0 2.733-2.24 4.96-5 4.96h-1.013c-0.8 0-1.56 0.307-2.12 0.867l-2.28 2.253c-0.707 0.707-1.653 1.067-2.587 1.067zM8 3.667c-1.653 0-3 1.333-3 2.96v14.547c0 1.64 1.347 2.96 3 2.96h1.013c1.333 0 2.587 0.52 3.533 1.453l2.28 2.253c0.653 0.64 1.707 0.64 2.36 0l2.28-2.253c0.947-0.933 2.2-1.453 3.533-1.453h1c1.653 0 3-1.333 3-2.96v-14.547c0-1.64-1.347-2.96-3-2.96h-16z"></path>
<path d="M13.84 19.347h-3.573c-0.587 0-1.133-0.28-1.48-0.76-0.333-0.453-0.413-1.013-0.253-1.547 0.467-1.427 1.613-2.2 2.627-2.893 1.067-0.72 1.667-1.173 1.667-1.947 0-0.693-0.56-1.253-1.253-1.253s-1.253 0.56-1.253 1.253c0 0.547-0.453 1-1 1s-1-0.453-1-1c0-1.787 1.453-3.253 3.253-3.253s3.253 1.453 3.253 3.253c0 1.88-1.413 2.84-2.547 3.613-0.707 0.48-1.373 0.933-1.707 1.533h3.253c0.547 0 1 0.453 1 1s-0.44 1-0.987 1z"></path>
<path d="M21.385 19.347c-0.547 0-1-0.453-1-1v-0.92h-2.613c0 0 0 0-0.013 0-0.653 0-1.253-0.347-1.587-0.907-0.333-0.573-0.333-1.28 0-1.84 0.907-1.56 1.96-3.333 2.92-4.88 0.427-0.68 1.24-0.987 2-0.773 0.76 0.227 1.293 0.92 1.28 1.72v4.693h0.293c0.547 0 1 0.453 1 1s-0.453 1-1 1h-0.28v0.92c0 0.547-0.44 0.987-1 0.987zM20.385 11.52c-0.787 1.28-1.6 2.653-2.333 3.907h2.333v-3.907z"></path>
</svg>
