<!-- Generated by IcoMoon.io -->
<svg version="1.1" xmlns="http://www.w3.org/2000/svg" width="32" height="32" viewBox="0 0 32 32">
<title>tag-cross</title>
<path d="M22.667 28h-8.96c-2.16 0-4.227-0.92-5.667-2.507l-4.707-5.173c-2.24-2.453-2.24-6.16 0-8.627l4.707-5.173c1.44-1.6 3.507-2.52 5.667-2.52h8.96c4.227 0 7.667 3.44 7.667 7.667v8.667c0 4.227-3.44 7.667-7.667 7.667zM13.707 6c-1.587 0-3.12 0.68-4.187 1.853l-4.72 5.187c-1.533 1.693-1.533 4.24 0 5.933l4.707 5.173c1.067 1.173 2.6 1.853 4.187 1.853h8.973c3.12 0 5.667-2.547 5.667-5.667v-8.667c0-3.12-2.547-5.667-5.667-5.667h-8.96z"></path>
<path d="M21.333 20.293c-0.253 0-0.507-0.093-0.707-0.293l-6.587-6.6c-0.387-0.387-0.387-1.027 0-1.413s1.027-0.387 1.413 0l6.587 6.6c0.387 0.387 0.387 1.027 0 1.413-0.2 0.2-0.453 0.293-0.707 0.293z"></path>
<path d="M14.747 20.293c-0.253 0-0.507-0.093-0.707-0.293-0.387-0.387-0.387-1.027 0-1.413l6.587-6.587c0.387-0.387 1.027-0.387 1.413 0s0.387 1.027 0 1.413l-6.587 6.587c-0.2 0.2-0.453 0.293-0.707 0.293z"></path>
</svg>
