<!-- Generated by IcoMoon.io -->
<svg version="1.1" xmlns="http://www.w3.org/2000/svg" width="32" height="32" viewBox="0 0 32 32">
<title>tag-2</title>
<path d="M16.092 29.306c-1.88 0-3.773-0.72-5.2-2.147l-6.040-6.040c-1.467-1.467-2.24-3.493-2.147-5.56l0.32-6.68c0.147-3.187 2.667-5.707 5.867-5.867l6.667-0.32c2.080-0.093 4.093 0.68 5.56 2.147l6.040 6.040c2.867 2.867 2.867 7.547 0 10.413l-5.853 5.853c-1.44 1.44-3.32 2.16-5.213 2.16zM6.265 19.693l6.040 6.040c2.093 2.093 5.493 2.093 7.587 0l5.853-5.853c2.093-2.093 2.093-5.493 0-7.587l-6.053-6.027c-1.067-1.067-2.52-1.627-4.053-1.56l-6.667 0.32c-2.16 0.093-3.853 1.787-3.96 3.947l-0.32 6.68c-0.067 1.493 0.507 2.973 1.573 4.040z"></path>
<path d="M12.667 17c-2.387 0-4.333-1.947-4.333-4.333s1.947-4.333 4.333-4.333c2.387 0 4.333 1.947 4.333 4.333s-1.947 4.333-4.333 4.333zM12.667 10.333c-1.28 0-2.333 1.053-2.333 2.333s1.053 2.333 2.333 2.333c1.28 0 2.333-1.053 2.333-2.333s-1.053-2.333-2.333-2.333z"></path>
<path d="M17.333 23.667c-0.253 0-0.507-0.093-0.707-0.293-0.387-0.387-0.387-1.027 0-1.413l5.333-5.333c0.387-0.387 1.027-0.387 1.413 0s0.387 1.027 0 1.413l-5.333 5.333c-0.2 0.2-0.453 0.293-0.707 0.293z"></path>
</svg>
