<!-- Generated by IcoMoon.io -->
<svg version="1.1" xmlns="http://www.w3.org/2000/svg" width="32" height="32" viewBox="0 0 32 32">
<title>tag-right</title>
<path d="M19.559 28.867h-13.933c-1.467 0-2.76-0.76-3.467-2.040s-0.667-2.787 0.107-4.027l3.693-5.907c0.293-0.467 0.293-1.333 0-1.787l-3.693-5.907c-0.773-1.24-0.813-2.747-0.107-4.027s2.013-2.040 3.467-2.040h15.253c1.253 0 2.707 0.8 3.36 1.867l5.573 8.907c0.747 1.2 0.68 3.040-0.173 4.173l-6.907 9.2c-0.68 0.907-2.040 1.587-3.173 1.587zM5.626 5.133c-0.72 0-1.373 0.373-1.72 1.013s-0.333 1.387 0.053 2l3.693 5.907c0.693 1.12 0.693 2.8 0 3.92l-3.693 5.907c-0.387 0.613-0.4 1.36-0.053 2s1 1.013 1.72 1.013h13.933c0.507 0 1.267-0.387 1.573-0.787l6.907-9.2c0.36-0.48 0.4-1.4 0.080-1.907l-5.573-8.907c-0.293-0.48-1.107-0.92-1.667-0.92h-15.253v-0.040z"></path>
</svg>
