<!-- Generated by IcoMoon.io -->
<svg version="1.1" xmlns="http://www.w3.org/2000/svg" width="32" height="32" viewBox="0 0 32 32">
<title>tag-user</title>
<path d="M16 30.333c-0.933 0-1.88-0.36-2.587-1.067l-2.28-2.253c-0.56-0.56-1.333-0.867-2.12-0.867h-1.013c-2.76 0-5-2.227-5-4.96v-14.56c0-2.733 2.24-4.96 5-4.96h16c2.76 0 5 2.227 5 4.96v14.547c0 2.733-2.24 4.96-5 4.96h-1.013c-0.787 0-1.56 0.32-2.12 0.867l-2.28 2.253c-0.707 0.72-1.653 1.080-2.587 1.080zM8 3.667c-1.653 0-3 1.333-3 2.96v14.547c0 1.64 1.347 2.96 3 2.96h1.013c1.32 0 2.6 0.533 3.533 1.453l2.28 2.253c0.653 0.64 1.707 0.64 2.36 0l2.28-2.253c0.933-0.92 2.213-1.453 3.533-1.453h1c1.653 0 3-1.333 3-2.96v-14.547c0-1.64-1.347-2.96-3-2.96h-16z"></path>
<path d="M16.094 12.933c-0.027 0-0.067 0-0.093 0-0.040 0-0.093 0-0.133 0-1.947-0.067-3.467-1.64-3.467-3.6 0-1.987 1.613-3.6 3.6-3.6s3.6 1.613 3.6 3.6c-0.013 1.96-1.533 3.533-3.48 3.6 0 0-0.013 0-0.027 0zM16.001 7.733c-0.88 0-1.6 0.72-1.6 1.6 0 0.867 0.68 1.573 1.533 1.6 0-0.013 0.080-0.013 0.173 0 0.84-0.053 1.493-0.747 1.493-1.6 0-0.88-0.72-1.6-1.6-1.6z"></path>
<path d="M16 22.267c-1.52 0-3.040-0.4-4.227-1.187-1.12-0.747-1.773-1.827-1.773-2.973s0.64-2.24 1.773-2.987c2.373-1.573 6.080-1.573 8.44 0 1.12 0.747 1.773 1.84 1.773 2.973 0 1.147-0.64 2.227-1.773 2.987-1.173 0.8-2.693 1.187-4.213 1.187zM12.88 16.787c-0.573 0.387-0.88 0.853-0.88 1.32s0.32 0.933 0.88 1.32c1.693 1.133 4.533 1.133 6.227 0 0.573-0.387 0.893-0.853 0.88-1.32 0-0.467-0.32-0.933-0.88-1.32-1.68-1.133-4.533-1.133-6.227 0z"></path>
</svg>
