<!-- Generated by IcoMoon.io -->
<svg version="1.1" xmlns="http://www.w3.org/2000/svg" width="32" height="32" viewBox="0 0 32 32">
<title>tag</title>
<path d="M16.092 29.307c-1.88 0-3.773-0.72-5.2-2.147l-6.040-6.040c-1.467-1.467-2.24-3.493-2.147-5.56l0.32-6.667c0.147-3.187 2.667-5.707 5.867-5.867l6.667-0.32c2.067-0.080 4.093 0.68 5.56 2.147l6.040 6.040c2.867 2.867 2.867 7.547 0 10.413l-5.853 5.853c-1.44 1.427-3.32 2.147-5.213 2.147zM6.265 19.694l6.040 6.040c1.013 1.013 2.36 1.573 3.787 1.573s2.773-0.56 3.787-1.573l5.853-5.853c1.013-1.013 1.573-2.36 1.573-3.787s-0.56-2.773-1.573-3.787l-6.040-6.040c-1.067-1.067-2.547-1.64-4.040-1.56l-6.667 0.32c-2.173 0.093-3.867 1.787-3.973 3.947l-0.32 6.667c-0.067 1.507 0.507 2.987 1.573 4.053z"></path>
<path d="M12.667 17c-2.387 0-4.333-1.947-4.333-4.333s1.947-4.333 4.333-4.333c2.387 0 4.333 1.947 4.333 4.333s-1.947 4.333-4.333 4.333zM12.667 10.333c-1.28 0-2.333 1.053-2.333 2.333s1.053 2.333 2.333 2.333c1.28 0 2.333-1.053 2.333-2.333s-1.053-2.333-2.333-2.333z"></path>
</svg>
