<!-- Generated by IcoMoon.io -->
<svg version="1.1" xmlns="http://www.w3.org/2000/svg" width="32" height="32" viewBox="0 0 32 32">
<title>task</title>
<path d="M28 27h-13.333c-0.547 0-1-0.453-1-1s0.453-1 1-1h13.333c0.547 0 1 0.453 1 1s-0.453 1-1 1z"></path>
<path d="M28 17.667h-13.333c-0.547 0-1-0.453-1-1s0.453-1 1-1h13.333c0.547 0 1 0.453 1 1s-0.453 1-1 1z"></path>
<path d="M28 8.333h-13.333c-0.547 0-1-0.453-1-1s0.453-1 1-1h13.333c0.547 0 1 0.453 1 1s-0.453 1-1 1z"></path>
<path d="M5.333 9.667c-0.253 0-0.507-0.093-0.707-0.293l-1.333-1.333c-0.387-0.387-0.387-1.027 0-1.413s1.027-0.387 1.413 0l0.627 0.627 3.293-3.293c0.387-0.387 1.027-0.387 1.413 0s0.387 1.027 0 1.413l-4 4c-0.2 0.2-0.453 0.293-0.707 0.293z"></path>
<path d="M5.333 19c-0.253 0-0.507-0.093-0.707-0.293l-1.333-1.333c-0.387-0.387-0.387-1.027 0-1.413s1.027-0.387 1.413 0l0.627 0.627 3.293-3.293c0.387-0.387 1.027-0.387 1.413 0s0.387 1.027 0 1.413l-4 4c-0.2 0.2-0.453 0.293-0.707 0.293z"></path>
<path d="M5.333 28.333c-0.253 0-0.507-0.093-0.707-0.293l-1.333-1.333c-0.387-0.387-0.387-1.027 0-1.413s1.027-0.387 1.413 0l0.627 0.627 3.293-3.293c0.387-0.387 1.027-0.387 1.413 0s0.387 1.027 0 1.413l-4 4c-0.2 0.2-0.453 0.293-0.707 0.293z"></path>
</svg>
