<!-- Generated by IcoMoon.io -->
<svg version="1.1" xmlns="http://www.w3.org/2000/svg" width="32" height="32" viewBox="0 0 32 32">
<title>task-square</title>
<path d="M23.492 12.827h-7c-0.547 0-1-0.453-1-1s0.453-1 1-1h7c0.547 0 1 0.453 1 1s-0.44 1-1 1z"></path>
<path d="M9.494 13.84c-0.253 0-0.507-0.093-0.707-0.293l-1-1c-0.387-0.387-0.387-1.027 0-1.413s1.027-0.387 1.413 0l0.293 0.293 2.293-2.293c0.387-0.387 1.027-0.387 1.413 0s0.387 1.027 0 1.413l-3 3c-0.187 0.187-0.44 0.293-0.707 0.293z"></path>
<path d="M23.492 22.16h-7c-0.547 0-1-0.453-1-1s0.453-1 1-1h7c0.547 0 1 0.453 1 1s-0.44 1-1 1z"></path>
<path d="M9.494 23.173c-0.253 0-0.507-0.093-0.707-0.293l-1-1c-0.387-0.387-0.387-1.027 0-1.413s1.027-0.387 1.413 0l0.293 0.293 2.293-2.293c0.387-0.387 1.027-0.387 1.413 0s0.387 1.027 0 1.413l-3 3c-0.187 0.187-0.44 0.293-0.707 0.293z"></path>
<path d="M20 30.333h-8c-7.24 0-10.333-3.093-10.333-10.333v-8c0-7.24 3.093-10.333 10.333-10.333h8c7.24 0 10.333 3.093 10.333 10.333v8c0 7.24-3.093 10.333-10.333 10.333zM12 3.667c-6.147 0-8.333 2.187-8.333 8.333v8c0 6.147 2.187 8.333 8.333 8.333h8c6.147 0 8.333-2.187 8.333-8.333v-8c0-6.147-2.187-8.333-8.333-8.333h-8z"></path>
</svg>
