<!-- Generated by IcoMoon.io -->
<svg version="1.1" xmlns="http://www.w3.org/2000/svg" width="32" height="32" viewBox="0 0 32 32">
<title>teacher</title>
<path d="M16.014 22.667c-1.133 0-2.28-0.293-3.173-0.867l-8.027-5.24c-1.493-0.973-2.387-2.613-2.387-4.4s0.893-3.427 2.387-4.4l8.040-5.227c1.787-1.16 4.573-1.16 6.347 0.013l7.987 5.24c1.48 0.973 2.373 2.613 2.373 4.387s-0.893 3.413-2.373 4.387l-7.987 5.24c-0.893 0.587-2.040 0.867-3.187 0.867zM16.014 3.667c-0.76 0-1.52 0.173-2.067 0.547l-8.027 5.227c-0.933 0.613-1.48 1.6-1.48 2.72s0.533 2.107 1.48 2.72l8.027 5.24c1.107 0.72 3.053 0.72 4.16 0l7.987-5.24c0.933-0.613 1.467-1.6 1.467-2.72s-0.533-2.107-1.467-2.72l-7.987-5.24c-0.56-0.347-1.32-0.533-2.093-0.533z"></path>
<path d="M15.999 30.333c-0.587 0-1.187-0.080-1.667-0.24l-4.253-1.413c-2.013-0.667-3.6-2.867-3.587-4.987l0.013-6.253c0-0.547 0.453-1 1-1s1 0.453 1 1l-0.013 6.253c0 1.253 1.040 2.693 2.227 3.093l4.253 1.413c0.533 0.173 1.52 0.173 2.053 0l4.253-1.413c1.187-0.4 2.227-1.84 2.227-3.080v-6.187c0-0.547 0.453-1 1-1s1 0.453 1 1v6.187c0 2.12-1.573 4.307-3.587 4.987l-4.253 1.413c-0.48 0.147-1.080 0.227-1.667 0.227z"></path>
<path d="M28.534 21c-0.547 0-1-0.453-1-1v-8c0-0.547 0.453-1 1-1s1 0.453 1 1v8c0 0.547-0.453 1-1 1z"></path>
</svg>
