<!-- Generated by IcoMoon.io -->
<svg version="1.1" xmlns="http://www.w3.org/2000/svg" width="32" height="32" viewBox="0 0 32 32">
<title>text-block</title>
<path d="M20 30.333h-8c-7.24 0-10.333-3.093-10.333-10.333v-8c0-7.24 3.093-10.333 10.333-10.333h8c7.24 0 10.333 3.093 10.333 10.333v8c0 7.24-3.093 10.333-10.333 10.333zM12 3.667c-6.147 0-8.333 2.187-8.333 8.333v8c0 6.147 2.187 8.333 8.333 8.333h8c6.147 0 8.333-2.187 8.333-8.333v-8c0-6.147-2.187-8.333-8.333-8.333h-8z"></path>
<path d="M9.334 12.84c-0.36 0-0.72-0.2-0.893-0.547-0.253-0.493-0.053-1.093 0.44-1.347 4.453-2.227 9.773-2.227 14.227 0 0.493 0.253 0.693 0.853 0.453 1.347-0.253 0.493-0.84 0.693-1.347 0.453-3.893-1.947-8.547-1.947-12.44 0-0.133 0.067-0.293 0.093-0.44 0.093z"></path>
<path d="M16 22.72c-0.547 0-1-0.453-1-1v-11.147c0-0.547 0.453-1 1-1s1 0.453 1 1v11.16c0 0.547-0.453 0.987-1 0.987z"></path>
</svg>
