<!-- Generated by IcoMoon.io -->
<svg version="1.1" xmlns="http://www.w3.org/2000/svg" width="32" height="32" viewBox="0 0 32 32">
<title>text-italic</title>
<path d="M25.175 5h-12.347c-0.547 0-0.987-0.453-0.987-1s0.453-1 1-1h12.333c0.547 0 1 0.453 1 1s-0.453 1-1 1z"></path>
<path d="M19.172 29h-12.347c-0.547 0-1-0.453-1-1s0.453-1 1-1h12.333c0.547 0 1 0.453 1 1s-0.44 1-0.987 1z"></path>
<path d="M13 29c-0.080 0-0.16-0.013-0.24-0.027-0.533-0.133-0.867-0.68-0.733-1.213l6-24c0.133-0.533 0.667-0.867 1.213-0.733 0.533 0.133 0.867 0.68 0.733 1.213l-6 24c-0.12 0.453-0.52 0.76-0.973 0.76z"></path>
</svg>
