<!-- Generated by IcoMoon.io -->
<svg version="1.1" xmlns="http://www.w3.org/2000/svg" width="32" height="32" viewBox="0 0 32 32">
<title>textalign-justifycenter</title>
<path d="M28 7h-24c-0.547 0-1-0.453-1-1s0.453-1 1-1h24c0.547 0 1 0.453 1 1s-0.453 1-1 1z"></path>
<path d="M28 13.667h-24c-0.547 0-1-0.453-1-1s0.453-1 1-1h24c0.547 0 1 0.453 1 1s-0.453 1-1 1z"></path>
<path d="M28 20.333h-24c-0.547 0-1-0.453-1-1s0.453-1 1-1h24c0.547 0 1 0.453 1 1s-0.453 1-1 1z"></path>
<path d="M28 27h-24c-0.547 0-1-0.453-1-1s0.453-1 1-1h24c0.547 0 1 0.453 1 1s-0.453 1-1 1z"></path>
</svg>
