<!-- Generated by IcoMoon.io -->
<svg version="1.1" xmlns="http://www.w3.org/2000/svg" width="32" height="32" viewBox="0 0 32 32">
<title>text-bold</title>
<path d="M16.001 17h-9.493c-0.547 0-1-0.453-1-1v-10c0-2.027 1.64-3.667 3.667-3.667h6.827c4.040 0 7.333 3.293 7.333 7.333s-3.293 7.333-7.333 7.333zM7.494 15h8.507c2.947 0 5.333-2.387 5.333-5.333s-2.387-5.333-5.333-5.333h-6.827c-0.92 0-1.667 0.747-1.667 1.667v9h-0.013z"></path>
<path d="M19.175 29.667h-10c-2.027 0-3.667-1.64-3.667-3.667v-10c0-0.547 0.453-1 1-1h12.667c4.040 0 7.333 3.293 7.333 7.333s-3.293 7.333-7.333 7.333zM7.494 17v9c0 0.92 0.747 1.667 1.667 1.667h10c2.947 0 5.333-2.387 5.333-5.333s-2.387-5.333-5.333-5.333h-11.667z"></path>
</svg>
