<!-- Generated by IcoMoon.io -->
<svg version="1.1" xmlns="http://www.w3.org/2000/svg" width="32" height="32" viewBox="0 0 32 32">
<title>text</title>
<path d="M28.44 10.56c-0.547 0-1-0.453-1-1v-2.427c0-0.973-0.787-1.76-1.76-1.76h-19.36c-0.973 0-1.76 0.787-1.76 1.76v2.44c0 0.547-0.453 1-1 1s-1-0.453-1-1.013v-2.427c0-2.080 1.693-3.76 3.76-3.76h19.36c2.080 0 3.76 1.693 3.76 3.76v2.44c0 0.547-0.44 0.987-1 0.987z"></path>
<path d="M16 28.627c-0.547 0-1-0.453-1-1v-22.147c0-0.547 0.453-1 1-1s1 0.453 1 1v22.147c0 0.56-0.453 1-1 1z"></path>
<path d="M21.254 28.627h-10.507c-0.547 0-1-0.453-1-1s0.453-1 1-1h10.507c0.547 0 1 0.453 1 1s-0.453 1-1 1z"></path>
</svg>
