<!-- Generated by IcoMoon.io -->
<svg version="1.1" xmlns="http://www.w3.org/2000/svg" width="32" height="32" viewBox="0 0 32 32">
<title>text-underline</title>
<path d="M25.333 29h-18.667c-0.547 0-1-0.453-1-1s0.453-1 1-1h18.667c0.547 0 1 0.453 1 1s-0.453 1-1 1z"></path>
<path d="M16 23.667c-5.693 0-10.333-4.64-10.333-10.333v-9.333c0-0.547 0.453-1 1-1s1 0.453 1 1v9.333c0 4.6 3.733 8.333 8.333 8.333s8.333-3.733 8.333-8.333v-9.333c0-0.547 0.453-1 1-1s1 0.453 1 1v9.333c0 5.693-4.64 10.333-10.333 10.333z"></path>
</svg>
