<!-- Generated by IcoMoon.io -->
<svg version="1.1" xmlns="http://www.w3.org/2000/svg" width="32" height="32" viewBox="0 0 32 32">
<title>ticket-expired</title>
<path d="M23.174 27.667h-8.627c-0.547 0-1-0.453-1-1s0.453-1 1-1h8.627c4.080 0 5.040-0.667 5.147-4.293-1.76-0.453-3.067-2.053-3.067-3.947 0-1.907 1.307-3.52 3.080-3.973v-0.347c0-4.387-0.773-5.16-5.16-5.16h-7.507v8.053c0 0.547-0.453 1-1 1s-1-0.453-1-1v-9.053c0-0.547 0.453-1 1-1h8.507c5.493 0 7.16 1.667 7.16 7.16v1.227c0 0.547-0.453 1-1 1-1.147 0-2.080 0.933-2.080 2.093 0 1.147 0.933 2.080 2.080 2.080 0.547 0 1 0.453 1 1 0 5.493-1.667 7.16-7.16 7.16z"></path>
<path d="M14.667 27.667h-3.693c-2.693 0-4.080-2.027-5.347-5.067l-0.253-0.613c-0.093-0.24-0.093-0.52 0.013-0.76s0.307-0.44 0.547-0.533c0.533-0.213 0.947-0.627 1.173-1.147 0.227-0.533 0.227-1.12 0-1.653-0.44-1.12-1.707-1.64-2.827-1.2-0.253 0.107-0.52 0.093-0.773-0.013-0.24-0.107-0.44-0.307-0.533-0.547l-0.227-0.573c-2.133-5.187-1.2-7.413 3.987-9.56l3.52-1.44c0.507-0.213 1.093 0.040 1.307 0.547l4.040 9.787c0.053 0.12 0.080 0.253 0.080 0.387v3.387c0 0.547-0.453 1-1 1s-1-0.453-1-1v-3.2l-3.6-8.68-2.587 1.067c-4.107 1.693-4.6 2.733-2.987 6.733 1.853-0.267 3.72 0.733 4.453 2.533 0.427 1.027 0.427 2.16-0.013 3.187-0.293 0.707-0.773 1.307-1.387 1.747 1.28 3.013 2.213 3.613 3.4 3.613h2.693v-3c0-0.547 0.453-1 1-1s1 0.453 1 1v4c0.013 0.547-0.44 1-0.987 1z"></path>
<path d="M10.893 27.667h-0.227c-0.547 0-1-0.453-1-1s0.453-1 1-1h0.227c0.547 0 1 0.453 1 1s-0.453 1-1 1z"></path>
</svg>
