<!-- Generated by IcoMoon.io -->
<svg version="1.1" xmlns="http://www.w3.org/2000/svg" width="32" height="32" viewBox="0 0 32 32">
<title>ticket-star</title>
<path d="M22.668 27.667h-13.333c-5.667 0-7.52-1.693-7.653-6.973 0-0.267 0.093-0.533 0.28-0.72s0.44-0.307 0.72-0.307c2.013 0 3.653-1.653 3.653-3.667s-1.64-3.667-3.653-3.667c-0.267 0-0.52-0.107-0.72-0.307s-0.293-0.453-0.28-0.72c0.133-5.28 1.987-6.973 7.653-6.973h13.333c5.88 0 7.667 1.787 7.667 7.667v8c0 5.88-1.787 7.667-7.667 7.667zM3.721 21.573c0.227 3.387 1.373 4.093 5.613 4.093h13.333c4.773 0 5.667-0.907 5.667-5.667v-8c0-4.76-0.893-5.667-5.667-5.667h-13.333c-4.24 0-5.387 0.72-5.613 4.093 2.627 0.507 4.613 2.813 4.613 5.573s-1.987 5.067-4.613 5.573z"></path>
<path d="M12 11c-0.547 0-1-0.453-1-1v-4.667c0-0.547 0.453-1 1-1s1 0.453 1 1v4.667c0 0.547-0.453 1-1 1z"></path>
<path d="M12 27.667c-0.547 0-1-0.453-1-1v-4.667c0-0.547 0.453-1 1-1s1 0.453 1 1v4.667c0 0.547-0.453 1-1 1z"></path>
<path d="M17.387 20.867c-0.32 0-0.64-0.107-0.907-0.293-0.48-0.347-0.72-0.933-0.613-1.52l0.28-1.587-1.16-1.133c-0.427-0.413-0.573-1.027-0.4-1.587 0.187-0.56 0.667-0.973 1.253-1.053l1.6-0.24 0.72-1.453c0.267-0.533 0.8-0.867 1.387-0.867 0.6 0 1.133 0.333 1.387 0.867l0.72 1.453 1.6 0.24c0.587 0.080 1.067 0.493 1.253 1.053s0.027 1.173-0.4 1.587l-1.16 1.133 0.28 1.587c0.107 0.587-0.133 1.173-0.613 1.52s-1.107 0.387-1.627 0.12l-1.427-0.747-1.44 0.747c-0.227 0.12-0.48 0.173-0.733 0.173zM17.027 15.533l0.68 0.667c0.373 0.36 0.533 0.867 0.453 1.373l-0.16 0.933 0.84-0.44c0.453-0.24 0.987-0.24 1.44 0l0.84 0.44-0.16-0.933c-0.080-0.52 0.080-1.027 0.453-1.373l0.68-0.667-0.933-0.133c-0.507-0.080-0.947-0.4-1.173-0.853l-0.413-0.853-0.413 0.853c-0.227 0.453-0.667 0.773-1.173 0.853l-0.96 0.133z"></path>
</svg>
