<!-- Generated by IcoMoon.io -->
<svg version="1.1" xmlns="http://www.w3.org/2000/svg" width="32" height="32" viewBox="0 0 32 32">
<title>ticket-2</title>
<path d="M22.252 30.333h-12.507c-5.56 0-7.253-1.693-7.253-7.253v-0.613c0-0.547 0.453-1 1-1 1.173 0 2.133-0.96 2.133-2.133s-0.96-2.133-2.133-2.133c-0.547 0-1-0.453-1-1v-0.613c0-5.56 1.693-7.253 7.253-7.253h12.507c5.56 0 7.253 1.693 7.253 7.253v1.253c0 0.547-0.453 1-1 1-1.173 0-2.133 0.96-2.133 2.133s0.96 2.12 2.133 2.12c0.547 0 1 0.453 1 1-0.013 5.547-1.707 7.24-7.253 7.24zM4.506 23.347c0.027 4.24 0.867 4.987 5.253 4.987h12.507c4.16 0 5.12-0.68 5.24-4.373-1.787-0.453-3.12-2.067-3.12-4s1.333-3.56 3.133-4.013v-0.373c0-4.467-0.787-5.253-5.253-5.253h-12.52c-4.373 0-5.213 0.76-5.253 4.987 1.8 0.453 3.133 2.080 3.133 4.013s-1.333 3.573-3.12 4.027z"></path>
<path d="M13.333 13.667c-0.547 0-1-0.453-1-1v-3.333c0-0.547 0.453-1 1-1s1 0.453 1 1v3.333c0 0.547-0.453 1-1 1z"></path>
<path d="M13.333 22.56c-0.547 0-1-0.453-1-1v-4.44c0-0.547 0.453-1 1-1s1 0.453 1 1v4.44c0 0.547-0.453 1-1 1z"></path>
<path d="M13.333 30.333c-0.547 0-1-0.453-1-1v-3.333c0-0.547 0.453-1 1-1s1 0.453 1 1v3.333c0 0.547-0.453 1-1 1z"></path>
<path d="M21.774 10.334h-12.12c-0.4 0-0.773-0.24-0.92-0.613s-0.067-0.813 0.213-1.093l3.907-3.907c3.6-3.6 5.8-3.6 9.387 0l0.8 0.8c0.187 0.187 0.293 0.44 0.293 0.707s-0.107 0.52-0.293 0.707c-0.533 0.533-0.68 1.32-0.373 2 0.147 0.307 0.12 0.667-0.067 0.96-0.173 0.267-0.493 0.44-0.827 0.44zM12.067 8.334h8.44c-0.027-0.707 0.147-1.413 0.507-2.027l-0.173-0.173c-2.787-2.787-3.773-2.787-6.56 0l-2.213 2.2z"></path>
</svg>
