<!-- Generated by IcoMoon.io -->
<svg version="1.1" xmlns="http://www.w3.org/2000/svg" width="32" height="32" viewBox="0 0 32 32">
<title>ticket-discount</title>
<path d="M22.667 27.667h-13.333c-5.88 0-7.667-1.787-7.667-7.667v-0.667c0-0.547 0.453-1 1-1 1.28 0 2.333-1.053 2.333-2.333s-1.053-2.333-2.333-2.333c-0.547 0-1-0.453-1-1v-0.667c0-5.88 1.787-7.667 7.667-7.667h13.333c5.88 0 7.667 1.787 7.667 7.667v1.333c0 0.547-0.453 1-1 1-1.28 0-2.333 1.053-2.333 2.333s1.053 2.333 2.333 2.333c0.547 0 1 0.453 1 1 0 5.88-1.787 7.667-7.667 7.667zM3.667 20.213c0.027 4.587 0.973 5.453 5.667 5.453h13.333c4.453 0 5.533-0.787 5.653-4.787-1.907-0.453-3.32-2.173-3.32-4.213s1.427-3.76 3.333-4.213v-0.453c0-4.76-0.907-5.667-5.667-5.667h-13.333c-4.693 0-5.64 0.867-5.667 5.453 1.907 0.453 3.333 2.173 3.333 4.213s-1.427 3.76-3.333 4.213z"></path>
<path d="M20 21.173c-0.747 0-1.347-0.6-1.347-1.333s0.6-1.333 1.333-1.333c0.733 0 1.333 0.6 1.333 1.333s-0.573 1.333-1.32 1.333z"></path>
<path d="M12 14.507c-0.747 0-1.347-0.6-1.347-1.333s0.6-1.333 1.333-1.333c0.733 0 1.333 0.6 1.333 1.333s-0.573 1.333-1.32 1.333z"></path>
<path d="M11.507 21.907c-0.253 0-0.507-0.093-0.707-0.293-0.387-0.387-0.387-1.027 0-1.413l8.973-8.973c0.387-0.387 1.027-0.387 1.413 0s0.387 1.027 0 1.413l-8.973 8.973c-0.187 0.2-0.453 0.293-0.707 0.293z"></path>
</svg>
