<!-- Generated by IcoMoon.io -->
<svg version="1.1" xmlns="http://www.w3.org/2000/svg" width="32" height="32" viewBox="0 0 32 32">
<title>timer-pause</title>
<path d="M16 30.333c-6.987 0-12.667-5.68-12.667-12.667s5.68-12.667 12.667-12.667c6.987 0 12.667 5.68 12.667 12.667 0 0.547-0.453 1-1 1s-1-0.453-1-1c0-5.88-4.787-10.667-10.667-10.667s-10.667 4.787-10.667 10.667c0 5.88 4.787 10.667 10.667 10.667 0.547 0 1 0.453 1 1s-0.453 1-1 1z"></path>
<path d="M16 18.333c-0.547 0-1-0.453-1-1v-6.667c0-0.547 0.453-1 1-1s1 0.453 1 1v6.667c0 0.547-0.453 1-1 1z"></path>
<path d="M20 3.667h-8c-0.547 0-1-0.453-1-1s0.453-1 1-1h8c0.547 0 1 0.453 1 1s-0.453 1-1 1z"></path>
<path d="M25.333 29c-0.547 0-1-0.453-1-1v-5.333c0-0.547 0.453-1 1-1s1 0.453 1 1v5.333c0 0.547-0.453 1-1 1z"></path>
<path d="M21.333 29c-0.547 0-1-0.453-1-1v-5.333c0-0.547 0.453-1 1-1s1 0.453 1 1v5.333c0 0.547-0.453 1-1 1z"></path>
</svg>
