<!-- Generated by IcoMoon.io -->
<svg version="1.1" xmlns="http://www.w3.org/2000/svg" width="32" height="32" viewBox="0 0 32 32">
<title>timer-start</title>
<path d="M16 18.333c-0.547 0-1-0.453-1-1v-6.667c0-0.547 0.453-1 1-1s1 0.453 1 1v6.667c0 0.547-0.453 1-1 1z"></path>
<path d="M16 30.333c-6.987 0-12.667-5.68-12.667-12.667s5.68-12.667 12.667-12.667c6.987 0 12.667 5.68 12.667 12.667 0 0.547-0.453 1-1 1s-1-0.453-1-1c0-5.88-4.787-10.667-10.667-10.667s-10.667 4.787-10.667 10.667c0 5.88 4.787 10.667 10.667 10.667 0.547 0 1 0.453 1 1s-0.453 1-1 1z"></path>
<path d="M20 3.667h-8c-0.547 0-1-0.453-1-1s0.453-1 1-1h8c0.547 0 1 0.453 1 1s-0.453 1-1 1z"></path>
<path d="M21.534 29.36c-0.467 0-0.893-0.107-1.28-0.333-0.88-0.507-1.387-1.533-1.387-2.813v-3.080c0-1.28 0.507-2.307 1.387-2.813s2.013-0.427 3.12 0.2l2.667 1.547c1.107 0.64 1.747 1.587 1.747 2.6s-0.64 1.96-1.747 2.6l-2.667 1.547c-0.613 0.36-1.24 0.547-1.84 0.547zM21.547 21.973c-0.107 0-0.213 0.027-0.293 0.067-0.24 0.133-0.387 0.547-0.387 1.080v3.080c0 0.533 0.147 0.947 0.387 1.080s0.667 0.067 1.12-0.2l2.667-1.547c0.467-0.267 0.747-0.6 0.747-0.867s-0.28-0.6-0.747-0.867l-2.667-1.547c-0.307-0.187-0.6-0.28-0.827-0.28z"></path>
</svg>
