<!-- Generated by IcoMoon.io -->
<svg version="1.1" xmlns="http://www.w3.org/2000/svg" width="32" height="32" viewBox="0 0 32 32">
<title>timer</title>
<path d="M20.32 30.333h-8.64c-2.52 0-4.36-1.053-5.067-2.867-0.733-1.893-0.053-4.24 1.707-5.827l6.187-5.64-6.187-5.64c-1.76-1.587-2.44-3.933-1.707-5.827 0.707-1.827 2.547-2.867 5.067-2.867h8.64c2.52 0 4.36 1.053 5.067 2.867 0.733 1.893 0.053 4.24-1.707 5.827l-6.187 5.64 6.2 5.64c1.747 1.587 2.44 3.933 1.707 5.827-0.72 1.813-2.56 2.867-5.080 2.867zM16 17.347l-6.333 5.76c-1.12 1.027-1.613 2.52-1.187 3.627 0.4 1.027 1.533 1.6 3.2 1.6h8.64c1.667 0 2.8-0.56 3.2-1.6 0.427-1.107-0.053-2.6-1.187-3.627l-6.333-5.76zM11.68 3.667c-1.667 0-2.8 0.56-3.2 1.6-0.427 1.107 0.053 2.6 1.187 3.627l6.333 5.76 6.333-5.76c1.12-1.027 1.613-2.52 1.187-3.627-0.4-1.027-1.533-1.6-3.2-1.6h-8.64z"></path>
</svg>
