<!-- Generated by IcoMoon.io -->
<svg version="1.1" xmlns="http://www.w3.org/2000/svg" width="32" height="32" viewBox="0 0 32 32">
<title>toggle-off-circle</title>
<path d="M18.667 27.667h-5.333c-6.44 0-11.667-5.24-11.667-11.667s5.227-11.667 11.667-11.667h5.333c6.44 0 11.667 5.24 11.667 11.667s-5.227 11.667-11.667 11.667zM13.333 6.333c-5.333 0-9.667 4.333-9.667 9.667s4.333 9.667 9.667 9.667h5.333c5.333 0 9.667-4.333 9.667-9.667s-4.333-9.667-9.667-9.667h-5.333z"></path>
<path d="M13.333 22.333c-3.493 0-6.333-2.84-6.333-6.333s2.84-6.333 6.333-6.333c3.493 0 6.333 2.84 6.333 6.333s-2.84 6.333-6.333 6.333zM13.333 11.667c-2.387 0-4.333 1.947-4.333 4.333s1.947 4.333 4.333 4.333c2.387 0 4.333-1.947 4.333-4.333s-1.947-4.333-4.333-4.333z"></path>
</svg>
