<!-- Generated by IcoMoon.io -->
<svg version="1.1" xmlns="http://www.w3.org/2000/svg" width="32" height="32" viewBox="0 0 32 32">
<title>toggle-off</title>
<path d="M14.267 22.333h-3.2c-3.227 0-4.733-1.507-4.733-4.733v-3.2c0-3.227 1.507-4.733 4.733-4.733h3.2c3.227 0 4.733 1.507 4.733 4.733v3.2c0 3.227-1.507 4.733-4.733 4.733zM11.067 11.667c-2.12 0-2.733 0.613-2.733 2.733v3.2c0 2.12 0.613 2.733 2.733 2.733h3.2c2.12 0 2.733-0.613 2.733-2.733v-3.2c0-2.12-0.613-2.733-2.733-2.733h-3.2z"></path>
<path d="M22.667 27.667h-13.333c-5.88 0-7.667-1.787-7.667-7.667v-8c0-5.88 1.787-7.667 7.667-7.667h13.333c5.88 0 7.667 1.787 7.667 7.667v8c0 5.88-1.787 7.667-7.667 7.667zM9.333 6.333c-4.773 0-5.667 0.907-5.667 5.667v8c0 4.76 0.893 5.667 5.667 5.667h13.333c4.773 0 5.667-0.907 5.667-5.667v-8c0-4.76-0.893-5.667-5.667-5.667h-13.333z"></path>
</svg>
