<!-- Generated by IcoMoon.io -->
<svg version="1.1" xmlns="http://www.w3.org/2000/svg" width="32" height="32" viewBox="0 0 32 32">
<title>trade</title>
<path d="M20.667 21c-0.24 0-0.507-0.013-0.76-0.027-0.493-0.027-0.893-0.427-0.933-0.92-0.293-3.72-3.32-6.733-7.027-7.027-0.493-0.040-0.893-0.44-0.92-0.933-0.013-0.253-0.027-0.507-0.027-0.76 0-5.333 4.333-9.667 9.667-9.667s9.667 4.333 9.667 9.667c0 5.333-4.333 9.667-9.667 9.667zM13 11.147c3.973 0.693 7.16 3.88 7.853 7.853 4.147-0.107 7.48-3.493 7.48-7.667 0-4.227-3.44-7.667-7.667-7.667-4.16 0-7.56 3.333-7.667 7.48z"></path>
<path d="M11.333 30.333c-5.333 0-9.667-4.333-9.667-9.667s4.333-9.667 9.667-9.667c0.24 0 0.507 0.013 0.76 0.027 4.707 0.373 8.52 4.187 8.88 8.867 0.013 0.267 0.027 0.52 0.027 0.773 0 5.333-4.333 9.667-9.667 9.667zM11.333 13c-4.227 0-7.667 3.44-7.667 7.667s3.44 7.667 7.667 7.667c4.227 0 7.667-3.44 7.667-7.667 0-0.213-0.013-0.427-0.027-0.627-0.293-3.693-3.307-6.72-7.027-7.013-0.187-0.013-0.4-0.027-0.613-0.027z"></path>
<path d="M4 9.787c-0.307 0-0.6-0.053-0.893-0.173-0.88-0.36-1.44-1.213-1.44-2.16v-3.453c0-1.28 1.053-2.333 2.333-2.333h3.453c0.947 0 1.787 0.56 2.16 1.44 0.36 0.88 0.16 1.88-0.507 2.547l-3.453 3.453c-0.453 0.44-1.040 0.68-1.653 0.68zM4 3.667c-0.187 0-0.333 0.147-0.333 0.333v3.453c0 0.2 0.133 0.28 0.2 0.307 0.080 0.027 0.227 0.067 0.36-0.067l3.453-3.453c0.133-0.133 0.107-0.28 0.067-0.36s-0.12-0.2-0.307-0.2h-3.44v-0.013z"></path>
<path d="M27.998 30.333h-3.453c-0.947 0-1.787-0.56-2.16-1.44-0.36-0.88-0.16-1.88 0.507-2.547l3.453-3.453c0.667-0.667 1.667-0.867 2.547-0.507s1.44 1.213 1.44 2.16v3.453c0 1.28-1.053 2.333-2.333 2.333zM27.985 24.213c-0.067 0-0.147 0.027-0.227 0.107l-3.453 3.453c-0.133 0.133-0.107 0.28-0.067 0.36s0.12 0.2 0.307 0.2h3.453c0.187 0 0.333-0.147 0.333-0.333v-3.453c0-0.2-0.133-0.28-0.2-0.307-0.040-0.013-0.093-0.027-0.147-0.027z"></path>
</svg>
