<!-- Generated by IcoMoon.io -->
<svg version="1.1" xmlns="http://www.w3.org/2000/svg" width="32" height="32" viewBox="0 0 32 32">
<title>translate</title>
<path d="M19.719 25.893c-0.147 0-0.307-0.040-0.44-0.107-0.493-0.253-0.693-0.853-0.453-1.347l2.853-5.693c0.173-0.333 0.52-0.547 0.893-0.547s0.72 0.213 0.893 0.56l2.853 5.693c0.253 0.493 0.053 1.093-0.453 1.347-0.493 0.253-1.093 0.053-1.347-0.453l-1.947-3.907-1.947 3.907c-0.187 0.347-0.547 0.547-0.907 0.547z"></path>
<path d="M24.907 24.88h-4.693c-0.547 0-1-0.453-1-1s0.453-1 1-1h4.693c0.547 0 1 0.453 1 1s-0.44 1-1 1z"></path>
<path d="M22.56 30.333c-4.28 0-7.773-3.48-7.773-7.773s3.48-7.773 7.773-7.773c4.28 0 7.773 3.48 7.773 7.773s-3.48 7.773-7.773 7.773zM22.56 16.8c-3.187 0-5.773 2.587-5.773 5.773s2.587 5.773 5.773 5.773c3.173 0 5.773-2.587 5.773-5.773s-2.587-5.773-5.773-5.773z"></path>
<path d="M6.48 16.934c-1.48 0-2.653-0.413-3.48-1.213-0.88-0.853-1.333-2.147-1.333-3.813v-5.227c0-3.24 1.787-5.027 5.027-5.027h5.227c1.667 0 2.947 0.44 3.813 1.333 0.84 0.867 1.253 2.12 1.213 3.72v5.2c0.040 1.627-0.373 2.907-1.24 3.773s-2.147 1.267-3.8 1.24h-5.2c-0.093 0.013-0.16 0.013-0.227 0.013zM6.693 3.667c-2.147 0-3.027 0.88-3.027 3.027v5.227c0 1.107 0.24 1.907 0.72 2.373 0.467 0.453 1.213 0.653 2.267 0.64h5.253c1.12 0.027 1.893-0.2 2.36-0.667s0.68-1.253 0.653-2.333v-5.253c0.027-1.067-0.187-1.827-0.64-2.293-0.467-0.48-1.267-0.72-2.373-0.72h-5.213z"></path>
<path d="M11.999 8.799h-5.413c-0.547 0-1-0.453-1-1s0.453-1 1-1h5.413c0.547 0 1 0.453 1 1s-0.44 1-1 1z"></path>
<path d="M9.307 8.8c-0.547 0-1-0.453-1-1v-0.907c0-0.547 0.453-1 1-1s1 0.453 1 1v0.907c0 0.547-0.453 1-1 1z"></path>
<path d="M6.586 13.013c-0.547 0-1-0.453-1-1s0.453-1 1-1c1.693 0 3.067-1.44 3.067-3.227 0-0.547 0.453-1 1-1s1 0.453 1 1c0 2.88-2.267 5.227-5.067 5.227z"></path>
<path d="M12.014 13.013c-1.24 0-2.427-0.627-3.267-1.733-0.333-0.44-0.24-1.067 0.2-1.4s1.067-0.24 1.4 0.2c0.453 0.613 1.053 0.947 1.667 0.947 0.547 0 1 0.453 1 1s-0.453 0.987-1 0.987z"></path>
<path d="M12 30.333c-5.693 0-10.333-4.64-10.333-10.333 0-0.547 0.453-1 1-1s1 0.453 1 1c0 3.947 2.747 7.253 6.44 8.12l-0.36-0.6c-0.28-0.48-0.133-1.093 0.347-1.373 0.467-0.28 1.093-0.133 1.373 0.347l1.4 2.333c0.187 0.307 0.187 0.693 0.013 1-0.187 0.307-0.52 0.507-0.88 0.507z"></path>
<path d="M29.334 13c-0.547 0-1-0.453-1-1 0-3.947-2.747-7.253-6.44-8.12l0.36 0.6c0.28 0.48 0.133 1.093-0.347 1.373-0.467 0.28-1.093 0.133-1.373-0.347l-1.4-2.333c-0.187-0.307-0.187-0.693-0.013-1 0.173-0.32 0.507-0.507 0.867-0.507 5.693 0 10.333 4.64 10.333 10.333 0.013 0.547-0.44 1-0.987 1z"></path>
</svg>
