<!-- Generated by IcoMoon.io -->
<svg version="1.1" xmlns="http://www.w3.org/2000/svg" width="32" height="32" viewBox="0 0 32 32">
<title>transaction-minus</title>
<path d="M15.999 30.333c-1.040 0-2.053-0.533-2.747-1.467l-1.347-1.8c-0.28-0.373-0.653-0.587-1.053-0.613-0.4-0.013-0.8 0.16-1.12 0.493v0c-1.92 2.053-3.4 1.893-4.107 1.613-0.72-0.28-1.933-1.2-1.933-4.16v-15.013c0-5.92 1.707-7.72 7.293-7.72h10.080c5.587 0 7.293 1.8 7.293 7.72v15.013c0 2.947-1.213 3.867-1.933 4.16-0.707 0.28-2.173 0.44-4.107-1.613-0.32-0.347-0.72-0.52-1.133-0.493-0.4 0.027-0.787 0.24-1.067 0.613l-1.347 1.8c-0.72 0.933-1.733 1.467-2.773 1.467zM10.773 24.44c0.053 0 0.12 0 0.173 0 0.987 0.053 1.92 0.573 2.547 1.413l1.347 1.8c0.653 0.867 1.653 0.867 2.307 0l1.347-1.8c0.64-0.84 1.56-1.36 2.56-1.413s1.973 0.36 2.693 1.133c1.013 1.080 1.667 1.213 1.907 1.12 0.32-0.133 0.667-0.907 0.667-2.293v-15.013c0-4.813-0.84-5.72-5.293-5.72h-10.080c-4.453 0-5.293 0.907-5.293 5.72v15.013c0 1.4 0.347 2.173 0.667 2.293 0.227 0.093 0.893-0.040 1.907-1.12 0.733-0.733 1.627-1.133 2.547-1.133z"></path>
<path d="M19.667 14.333h-7.333c-0.547 0-1-0.453-1-1s0.453-1 1-1h7.333c0.547 0 1 0.453 1 1s-0.453 1-1 1z"></path>
</svg>
