<!-- Generated by IcoMoon.io -->
<svg version="1.1" xmlns="http://www.w3.org/2000/svg" width="32" height="32" viewBox="0 0 32 32">
<title>trash</title>
<path d="M28 8.973c-0.027 0-0.067 0-0.107 0-7.053-0.707-14.093-0.973-21.067-0.267l-2.72 0.267c-0.56 0.053-1.053-0.347-1.107-0.907s0.347-1.040 0.893-1.093l2.72-0.267c7.093-0.72 14.28-0.44 21.48 0.267 0.547 0.053 0.947 0.547 0.893 1.093-0.040 0.52-0.48 0.907-0.987 0.907z"></path>
<path d="M11.334 7.627c-0.053 0-0.107 0-0.173-0.013-0.533-0.093-0.907-0.613-0.813-1.147l0.293-1.747c0.213-1.28 0.507-3.053 3.613-3.053h3.493c3.12 0 3.413 1.84 3.613 3.067l0.293 1.733c0.093 0.547-0.28 1.067-0.813 1.147-0.547 0.093-1.067-0.28-1.147-0.813l-0.293-1.733c-0.187-1.16-0.227-1.387-1.64-1.387h-3.493c-1.413 0-1.44 0.187-1.64 1.373l-0.307 1.733c-0.080 0.493-0.507 0.84-0.987 0.84z"></path>
<path d="M20.281 30.333h-8.56c-4.653 0-4.84-2.573-4.987-4.653l-0.867-13.427c-0.040-0.547 0.387-1.027 0.933-1.067 0.56-0.027 1.027 0.387 1.067 0.933l0.867 13.427c0.147 2.027 0.2 2.787 2.987 2.787h8.56c2.8 0 2.853-0.76 2.987-2.787l0.867-13.427c0.040-0.547 0.52-0.96 1.067-0.933 0.547 0.040 0.973 0.507 0.933 1.067l-0.867 13.427c-0.147 2.080-0.333 4.653-4.987 4.653z"></path>
<path d="M18.213 23h-4.44c-0.547 0-1-0.453-1-1s0.453-1 1-1h4.44c0.547 0 1 0.453 1 1s-0.453 1-1 1z"></path>
<path d="M19.333 17.667h-6.667c-0.547 0-1-0.453-1-1s0.453-1 1-1h6.667c0.547 0 1 0.453 1 1s-0.453 1-1 1z"></path>
</svg>
