<!-- Generated by IcoMoon.io -->
<svg version="1.1" xmlns="http://www.w3.org/2000/svg" width="32" height="32" viewBox="0 0 32 32">
<title>tree</title>
<path d="M21.56 14.413h-11.12c-1.147 0-2.027-0.453-2.427-1.227-0.4-0.787-0.24-1.76 0.427-2.68l5.56-7.787c0.987-1.413 3.027-1.413 4.027 0.013l5.56 7.773c0.667 0.92 0.827 1.893 0.427 2.68-0.427 0.773-1.307 1.227-2.453 1.227zM16 3.6c-0.12 0-0.253 0.107-0.373 0.267l-5.56 7.8c-0.267 0.36-0.28 0.573-0.267 0.613 0.013 0.027 0.2 0.133 0.653 0.133h11.12c0.44 0 0.627-0.12 0.653-0.147 0-0.027-0.013-0.24-0.267-0.6l-5.56-7.787c-0.147-0.187-0.28-0.28-0.4-0.28z"></path>
<path d="M23.453 25h-14.893c-1.907 0-2.667-0.92-2.947-1.467s-0.573-1.693 0.547-3.24l5.32-7.467c0.187-0.267 0.493-0.413 0.813-0.413h7.427c0.32 0 0.627 0.16 0.813 0.413l5.32 7.48c1.12 1.533 0.813 2.68 0.533 3.227s-1.027 1.467-2.933 1.467zM12.8 14.413l-5.027 7.053c-0.427 0.587-0.467 0.987-0.387 1.16 0.093 0.173 0.44 0.373 1.16 0.373h14.893c0.72 0 1.080-0.2 1.16-0.373 0.093-0.173 0.040-0.573-0.387-1.16l-5.027-7.067h-6.387v0.013z"></path>
<path d="M16 30.333c-0.547 0-1-0.453-1-1v-5.333c0-0.547 0.453-1 1-1s1 0.453 1 1v5.333c0 0.547-0.453 1-1 1z"></path>
</svg>
