<!-- Generated by IcoMoon.io -->
<svg version="1.1" xmlns="http://www.w3.org/2000/svg" width="32" height="32" viewBox="0 0 32 32">
<title>trend-down</title>
<path d="M22 20.333c-0.253 0-0.507-0.093-0.707-0.293l-4.733-4.733-1.453 2.187c-0.16 0.253-0.44 0.413-0.733 0.44-0.307 0.027-0.6-0.080-0.8-0.293l-4.267-4.267c-0.387-0.387-0.387-1.027 0-1.413s1.027-0.387 1.413 0l3.4 3.4 1.453-2.187c0.16-0.24 0.427-0.4 0.733-0.44 0.307-0.027 0.6 0.080 0.8 0.293l5.6 5.6c0.387 0.387 0.387 1.027 0 1.413-0.2 0.2-0.453 0.293-0.707 0.293z"></path>
<path d="M22 20.333h-2.667c-0.547 0-1-0.453-1-1s0.453-1 1-1h1.667v-1.667c0-0.547 0.453-1 1-1s1 0.453 1 1v2.667c0 0.547-0.453 1-1 1z"></path>
<path d="M20 30.333h-8c-7.24 0-10.333-3.093-10.333-10.333v-8c0-7.24 3.093-10.333 10.333-10.333h8c7.24 0 10.333 3.093 10.333 10.333v8c0 7.24-3.093 10.333-10.333 10.333zM12 3.667c-6.147 0-8.333 2.187-8.333 8.333v8c0 6.147 2.187 8.333 8.333 8.333h8c6.147 0 8.333-2.187 8.333-8.333v-8c0-6.147-2.187-8.333-8.333-8.333h-8z"></path>
</svg>
