<!-- Generated by IcoMoon.io -->
<svg version="1.1" xmlns="http://www.w3.org/2000/svg" width="32" height="32" viewBox="0 0 32 32">
<title>triangle</title>
<path d="M24.081 29.547h-16.16c-2.6 0-4.587-0.947-5.6-2.653-1-1.707-0.867-3.907 0.4-6.173l8.080-14.547c1.333-2.4 3.173-3.72 5.2-3.72s3.867 1.32 5.2 3.72l8.080 14.547c1.267 2.28 1.413 4.467 0.4 6.173s-3 2.653-5.6 2.653zM16.001 4.453c-1.253 0-2.48 0.96-3.453 2.693l-8.067 14.547c-0.907 1.627-1.053 3.12-0.427 4.2 0.627 1.067 2.013 1.667 3.88 1.667h16.16c1.867 0 3.24-0.587 3.88-1.667 0.627-1.080 0.48-2.56-0.427-4.2l-8.093-14.547c-0.973-1.733-2.2-2.693-3.453-2.693z"></path>
<path d="M28.588 27.667c-0.2 0-0.4-0.053-0.573-0.187l-12.013-8.413-12.013 8.413c-0.453 0.32-1.080 0.213-1.387-0.24-0.32-0.453-0.213-1.080 0.24-1.387l12.587-8.813c0.347-0.24 0.8-0.24 1.147 0l12.587 8.813c0.453 0.32 0.56 0.947 0.24 1.387-0.187 0.28-0.493 0.427-0.813 0.427z"></path>
<path d="M16 18.853c-0.547 0-1-0.453-1-1v-13.853c0-0.547 0.453-1 1-1s1 0.453 1 1v13.853c0 0.547-0.453 1-1 1z"></path>
</svg>
