<!-- Generated by IcoMoon.io -->
<svg version="1.1" xmlns="http://www.w3.org/2000/svg" width="32" height="32" viewBox="0 0 32 32">
<title>truck-remove</title>
<path d="M17.333 19.667h-14.667c-0.547 0-1-0.453-1-1v-8.507c0-0.427 0.267-0.8 0.653-0.947 0.4-0.147 0.84-0.027 1.107 0.293 0.8 0.947 1.96 1.48 3.227 1.48 0.040 0 0.067 0 0.107 0 1.067-0.027 2.053-0.427 2.8-1.133 0.347-0.293 0.627-0.64 0.84-1.027 0.413-0.707 0.613-1.48 0.6-2.267-0.027-1.227-0.56-2.347-1.467-3.16-0.32-0.28-0.427-0.72-0.28-1.107s0.52-0.653 0.933-0.653h9.813c0.547 0 1 0.453 1 1v13.333c0 2.053-1.64 3.693-3.667 3.693zM3.667 17.667h13.667c0.92 0 1.667-0.747 1.667-1.667v-12.333h-6.747c0.467 0.867 0.72 1.84 0.747 2.853 0.027 1.16-0.267 2.307-0.853 3.307-0.32 0.573-0.76 1.12-1.24 1.52-1.067 1.013-2.533 1.613-4.093 1.653-1.107 0.040-2.2-0.24-3.133-0.747v5.413h-0.013z"></path>
<path d="M25.333 27.667h-1.333c-0.547 0-1-0.453-1-1 0-0.92-0.747-1.667-1.667-1.667s-1.667 0.747-1.667 1.667c0 0.547-0.453 1-1 1h-5.333c-0.547 0-1-0.453-1-1 0-0.92-0.747-1.667-1.667-1.667s-1.667 0.747-1.667 1.667c0 0.547-0.453 1-1 1h-1.333c-2.76 0-5-2.24-5-5v-4c0-0.547 0.453-1 1-1h14.667c0.92 0 1.667-0.747 1.667-1.667v-9.333c0-0.547 0.453-1 1-1h2.453c1.32 0 2.533 0.707 3.187 1.853l2.28 3.987c0.173 0.307 0.173 0.693 0 1s-0.507 0.493-0.867 0.493h-1.72c-0.187 0-0.333 0.147-0.333 0.333v4c0 0.187 0.147 0.333 0.333 0.333h4c0.547 0 1 0.453 1 1v4c0 2.76-2.24 5-5 5zM24.867 25.667h0.467c1.653 0 3-1.347 3-3v-3h-3c-1.28 0-2.333-1.053-2.333-2.333v-4c0-1.28 1.040-2.333 2.333-2.333l-1.427-2.493c-0.293-0.52-0.853-0.84-1.453-0.84h-1.453v8.333c0 2.027-1.64 3.667-3.667 3.667h-13.667v3c0 1.653 1.347 3 3 3h0.467c0.44-1.533 1.853-2.667 3.533-2.667s3.093 1.133 3.533 2.667h3.613c0.44-1.533 1.853-2.667 3.533-2.667s3.080 1.133 3.52 2.667z"></path>
<path d="M10.667 30.333c-2.027 0-3.667-1.64-3.667-3.667s1.64-3.667 3.667-3.667c2.027 0 3.667 1.64 3.667 3.667s-1.64 3.667-3.667 3.667zM10.667 25c-0.92 0-1.667 0.747-1.667 1.667s0.747 1.667 1.667 1.667c0.92 0 1.667-0.747 1.667-1.667s-0.747-1.667-1.667-1.667z"></path>
<path d="M21.333 30.333c-2.027 0-3.667-1.64-3.667-3.667s1.64-3.667 3.667-3.667c2.027 0 3.667 1.64 3.667 3.667s-1.64 3.667-3.667 3.667zM21.333 25c-0.92 0-1.667 0.747-1.667 1.667s0.747 1.667 1.667 1.667c0.92 0 1.667-0.747 1.667-1.667s-0.747-1.667-1.667-1.667z"></path>
<path d="M29.333 19.667h-4c-1.28 0-2.333-1.053-2.333-2.333v-4c0-1.28 1.053-2.333 2.333-2.333h1.72c0.36 0 0.693 0.187 0.867 0.507l2.28 4c0.080 0.147 0.133 0.32 0.133 0.493v2.667c0 0.547-0.453 1-1 1zM25.333 13c-0.187 0-0.333 0.147-0.333 0.333v4c0 0.187 0.147 0.333 0.333 0.333h3v-1.4l-1.867-3.267h-1.133z"></path>
<path d="M6.667 13c-2.213 0-4.293-1.173-5.413-3.080-0.6-0.96-0.92-2.093-0.92-3.253 0-1.947 0.867-3.747 2.373-4.947 1.12-0.893 2.533-1.387 3.96-1.387 3.493 0 6.333 2.84 6.333 6.333 0 1.16-0.32 2.293-0.92 3.267-0.333 0.56-0.76 1.067-1.267 1.493-1.107 1.013-2.587 1.573-4.147 1.573zM6.667 2.333c-0.987 0-1.92 0.333-2.707 0.96-1.027 0.813-1.627 2.053-1.627 3.373 0 0.787 0.213 1.56 0.627 2.227 0.773 1.307 2.2 2.107 3.707 2.107 1.053 0 2.067-0.387 2.84-1.080 0.347-0.293 0.64-0.64 0.853-1.013 0.427-0.68 0.64-1.453 0.64-2.24 0-2.387-1.947-4.333-4.333-4.333z"></path>
<path d="M8.094 9.053c-0.253 0-0.507-0.093-0.707-0.293l-2.813-2.813c-0.387-0.387-0.387-1.027 0-1.413s1.027-0.387 1.413 0l2.813 2.813c0.387 0.387 0.387 1.027 0 1.413-0.2 0.2-0.453 0.293-0.707 0.293z"></path>
<path d="M5.241 9.093c-0.253 0-0.507-0.093-0.707-0.293-0.387-0.387-0.387-1.027 0-1.413l2.813-2.813c0.387-0.387 1.027-0.387 1.413 0s0.387 1.027 0 1.413l-2.813 2.813c-0.2 0.2-0.453 0.293-0.707 0.293z"></path>
</svg>
