<!-- Generated by IcoMoon.io -->
<svg version="1.1" xmlns="http://www.w3.org/2000/svg" width="32" height="32" viewBox="0 0 32 32">
<title>truck</title>
<path d="M17.333 19.667h-14.667c-0.547 0-1-0.453-1-1v-10.667c0-3.493 2.84-6.333 6.333-6.333h12c0.547 0 1 0.453 1 1v13.333c0 2.027-1.64 3.667-3.667 3.667zM3.667 17.667h13.667c0.92 0 1.667-0.747 1.667-1.667v-12.333h-11c-2.387 0-4.333 1.947-4.333 4.333v9.667z"></path>
<path d="M25.333 27.667h-1.333c-0.547 0-1-0.453-1-1 0-0.92-0.747-1.667-1.667-1.667s-1.667 0.747-1.667 1.667c0 0.547-0.453 1-1 1h-5.333c-0.547 0-1-0.453-1-1 0-0.92-0.747-1.667-1.667-1.667s-1.667 0.747-1.667 1.667c0 0.547-0.453 1-1 1h-1.333c-2.76 0-5-2.24-5-5v-4c0-0.547 0.453-1 1-1h14.667c0.92 0 1.667-0.747 1.667-1.667v-9.333c0-0.547 0.453-1 1-1h2.453c1.32 0 2.533 0.707 3.187 1.853l2.28 3.987c0.173 0.307 0.173 0.693 0 1s-0.507 0.493-0.867 0.493h-1.72c-0.187 0-0.333 0.147-0.333 0.333v4c0 0.187 0.147 0.333 0.333 0.333h4c0.547 0 1 0.453 1 1v4c0 2.76-2.24 5-5 5zM24.867 25.667h0.467c1.653 0 3-1.347 3-3v-3h-3c-1.28 0-2.333-1.053-2.333-2.333v-4c0-1.28 1.040-2.333 2.333-2.333l-1.427-2.493c-0.293-0.52-0.853-0.84-1.453-0.84h-1.453v8.333c0 2.027-1.64 3.667-3.667 3.667h-13.667v3c0 1.653 1.347 3 3 3h0.467c0.44-1.533 1.853-2.667 3.533-2.667s3.093 1.133 3.533 2.667h3.613c0.44-1.533 1.853-2.667 3.533-2.667s3.080 1.133 3.52 2.667z"></path>
<path d="M10.667 30.333c-2.027 0-3.667-1.64-3.667-3.667s1.64-3.667 3.667-3.667c2.027 0 3.667 1.64 3.667 3.667s-1.64 3.667-3.667 3.667zM10.667 25c-0.92 0-1.667 0.747-1.667 1.667s0.747 1.667 1.667 1.667c0.92 0 1.667-0.747 1.667-1.667s-0.747-1.667-1.667-1.667z"></path>
<path d="M21.333 30.333c-2.027 0-3.667-1.64-3.667-3.667s1.64-3.667 3.667-3.667c2.027 0 3.667 1.64 3.667 3.667s-1.64 3.667-3.667 3.667zM21.333 25c-0.92 0-1.667 0.747-1.667 1.667s0.747 1.667 1.667 1.667c0.92 0 1.667-0.747 1.667-1.667s-0.747-1.667-1.667-1.667z"></path>
<path d="M29.333 19.667h-4c-1.28 0-2.333-1.053-2.333-2.333v-4c0-1.28 1.053-2.333 2.333-2.333h1.72c0.36 0 0.693 0.187 0.867 0.507l2.28 4c0.080 0.147 0.133 0.32 0.133 0.493v2.667c0 0.547-0.453 1-1 1zM25.333 13c-0.187 0-0.333 0.147-0.333 0.333v4c0 0.187 0.147 0.333 0.333 0.333h3v-1.4l-1.867-3.267h-1.133z"></path>
</svg>
