<!-- Generated by IcoMoon.io -->
<svg version="1.1" xmlns="http://www.w3.org/2000/svg" width="32" height="32" viewBox="0 0 32 32">
<title>truck-fast</title>
<path d="M17.333 19.667h-1.333c-0.547 0-1-0.453-1-1s0.453-1 1-1h1.333c0.92 0 1.667-0.747 1.667-1.667v-12.333h-11c-1.573 0-3.013 0.853-3.787 2.227-0.267 0.48-0.88 0.653-1.36 0.387s-0.653-0.88-0.387-1.36c1.12-2 3.24-3.253 5.533-3.253h12c0.547 0 1 0.453 1 1v13.333c0 2.027-1.64 3.667-3.667 3.667z"></path>
<path d="M25.333 27.667h-1.333c-0.547 0-1-0.453-1-1 0-0.92-0.747-1.667-1.667-1.667s-1.667 0.747-1.667 1.667c0 0.547-0.453 1-1 1h-5.333c-0.547 0-1-0.453-1-1 0-0.92-0.747-1.667-1.667-1.667s-1.667 0.747-1.667 1.667c0 0.547-0.453 1-1 1h-1.333c-2.76 0-5-2.24-5-5 0-0.547 0.453-1 1-1s1 0.453 1 1c0 1.653 1.347 3 3 3h0.467c0.44-1.533 1.853-2.667 3.533-2.667s3.093 1.133 3.533 2.667h3.613c0.44-1.533 1.853-2.667 3.533-2.667s3.093 1.133 3.533 2.667h0.453c1.653 0 3-1.347 3-3v-3h-3c-1.28 0-2.333-1.053-2.333-2.333v-4c0-1.28 1.040-2.333 2.333-2.333l-1.427-2.493c-0.293-0.52-0.853-0.84-1.453-0.84h-1.453v8.333c0 2.027-1.64 3.667-3.667 3.667h-1.333c-0.547 0-1-0.453-1-1s0.453-1 1-1h1.333c0.92 0 1.667-0.747 1.667-1.667v-9.333c0-0.547 0.453-1 1-1h2.453c1.32 0 2.533 0.707 3.187 1.853l2.28 3.987c0.173 0.307 0.173 0.693 0 1s-0.507 0.493-0.867 0.493h-1.72c-0.187 0-0.333 0.147-0.333 0.333v4c0 0.187 0.147 0.333 0.333 0.333h4c0.547 0 1 0.453 1 1v4c0 2.76-2.24 5-5 5z"></path>
<path d="M10.667 30.333c-2.027 0-3.667-1.64-3.667-3.667s1.64-3.667 3.667-3.667c2.027 0 3.667 1.64 3.667 3.667s-1.64 3.667-3.667 3.667zM10.667 25c-0.92 0-1.667 0.747-1.667 1.667s0.747 1.667 1.667 1.667c0.92 0 1.667-0.747 1.667-1.667s-0.747-1.667-1.667-1.667z"></path>
<path d="M21.333 30.333c-2.027 0-3.667-1.64-3.667-3.667s1.64-3.667 3.667-3.667c2.027 0 3.667 1.64 3.667 3.667s-1.64 3.667-3.667 3.667zM21.333 25c-0.92 0-1.667 0.747-1.667 1.667s0.747 1.667 1.667 1.667c0.92 0 1.667-0.747 1.667-1.667s-0.747-1.667-1.667-1.667z"></path>
<path d="M29.333 19.667h-4c-1.28 0-2.333-1.053-2.333-2.333v-4c0-1.28 1.053-2.333 2.333-2.333h1.72c0.36 0 0.693 0.187 0.867 0.507l2.28 4c0.080 0.147 0.133 0.32 0.133 0.493v2.667c0 0.547-0.453 1-1 1zM25.333 13c-0.187 0-0.333 0.147-0.333 0.333v4c0 0.187 0.147 0.333 0.333 0.333h3v-1.4l-1.867-3.267h-1.133z"></path>
<path d="M10.667 11.667h-8c-0.547 0-1-0.453-1-1s0.453-1 1-1h8c0.547 0 1 0.453 1 1s-0.453 1-1 1z"></path>
<path d="M8 15.667h-5.333c-0.547 0-1-0.453-1-1s0.453-1 1-1h5.333c0.547 0 1 0.453 1 1s-0.453 1-1 1z"></path>
<path d="M5.333 19.667h-2.667c-0.547 0-1-0.453-1-1s0.453-1 1-1h2.667c0.547 0 1 0.453 1 1s-0.453 1-1 1z"></path>
</svg>
