<!-- Generated by IcoMoon.io -->
<svg version="1.1" xmlns="http://www.w3.org/2000/svg" width="32" height="32" viewBox="0 0 32 32">
<title>trush-square</title>
<path d="M20 30.333h-8c-7.24 0-10.333-3.093-10.333-10.333v-8c0-7.24 3.093-10.333 10.333-10.333h8c7.24 0 10.333 3.093 10.333 10.333v8c0 7.24-3.093 10.333-10.333 10.333zM12 3.667c-6.147 0-8.333 2.187-8.333 8.333v8c0 6.147 2.187 8.333 8.333 8.333h8c6.147 0 8.333-2.187 8.333-8.333v-8c0-6.147-2.187-8.333-8.333-8.333h-8z"></path>
<path d="M23.865 13.067c-0.027 0-0.067 0-0.093 0-4.613-0.453-9.2-0.64-13.747-0.173l-1.787 0.173c-0.56 0.053-1.040-0.347-1.093-0.893s0.347-1.040 0.893-1.093l1.787-0.173c4.68-0.467 9.4-0.293 14.147 0.173 0.547 0.053 0.947 0.547 0.893 1.093-0.053 0.507-0.493 0.893-1 0.893z"></path>
<path d="M19.053 12.187c-0.48 0-0.907-0.347-0.987-0.827l-0.187-1.133c-0.027-0.187-0.080-0.48-0.133-0.547 0 0-0.133-0.080-0.613-0.080h-2.293c-0.493 0-0.627 0.080-0.627 0.080-0.027 0.053-0.080 0.347-0.107 0.533l-0.187 1.147c-0.093 0.547-0.613 0.907-1.147 0.827-0.547-0.093-0.907-0.613-0.827-1.147l0.187-1.147c0.147-0.853 0.387-2.28 2.707-2.28h2.293c2.333 0 2.573 1.493 2.707 2.293l0.187 1.133c0.093 0.547-0.28 1.067-0.813 1.147-0.040 0-0.107 0-0.16 0z"></path>
<path d="M18.8 24.413h-5.613c-3.373 0-3.52-2.027-3.613-3.373l-0.573-8.813c-0.040-0.547 0.387-1.027 0.933-1.067 0.56-0.040 1.027 0.387 1.067 0.933l0.573 8.8c0.093 1.307 0.107 1.507 1.613 1.507h5.613c1.507 0 1.52-0.2 1.613-1.507l0.573-8.8c0.040-0.547 0.493-0.973 1.067-0.933 0.547 0.040 0.973 0.507 0.933 1.067l-0.573 8.8c-0.093 1.36-0.227 3.387-3.613 3.387z"></path>
</svg>
