<!-- Generated by IcoMoon.io -->
<svg version="1.1" xmlns="http://www.w3.org/2000/svg" width="32" height="32" viewBox="0 0 32 32">
<title>unlimited</title>
<path d="M23.267 23.067c-2.24 0-4.307-1.053-5.653-2.907-0.32-0.44-0.227-1.067 0.213-1.4s1.067-0.227 1.4 0.213c0.973 1.32 2.44 2.080 4.040 2.080 2.787 0 5.067-2.267 5.067-5.067s-2.267-5.067-5.067-5.067c-1.893 0-3.68 1.013-4.653 2.627l-3.533 5.88c-1.333 2.227-3.773 3.6-6.36 3.6-3.893 0-7.067-3.173-7.067-7.067s3.173-7.067 7.067-7.067c2.24 0 4.307 1.053 5.653 2.907 0.32 0.44 0.227 1.067-0.213 1.4-0.453 0.32-1.067 0.227-1.4-0.213-0.973-1.32-2.44-2.080-4.040-2.080-2.787 0-5.067 2.267-5.067 5.067s2.267 5.067 5.067 5.067c1.893 0 3.68-1.013 4.653-2.627l3.533-5.88c1.333-2.227 3.773-3.6 6.36-3.6 3.893 0 7.067 3.173 7.067 7.067s-3.173 7.067-7.067 7.067z"></path>
</svg>
