<!-- Generated by IcoMoon.io -->
<svg version="1.1" xmlns="http://www.w3.org/2000/svg" width="32" height="32" viewBox="0 0 32 32">
<title>unlock</title>
<path d="M22.667 30.333h-13.333c-5.88 0-7.667-1.787-7.667-7.667v-2.667c0-5.88 1.787-7.667 7.667-7.667h13.333c5.88 0 7.667 1.787 7.667 7.667v2.667c0 5.88-1.787 7.667-7.667 7.667zM9.333 14.333c-4.773 0-5.667 0.907-5.667 5.667v2.667c0 4.76 0.893 5.667 5.667 5.667h13.333c4.773 0 5.667-0.907 5.667-5.667v-2.667c0-4.76-0.893-5.667-5.667-5.667h-13.333z"></path>
<path d="M8 14.333c-0.547 0-1-0.453-1-1v-2.667c0-3.867 0.933-9 9-9 5.973 0 9 2.573 9 7.667 0 0.547-0.453 1-1 1s-1-0.453-1-1c0-2.64-0.8-5.667-7-5.667-5.813 0-7 2.8-7 7v2.667c0 0.547-0.453 1-1 1z"></path>
<path d="M16 25.667c-2.387 0-4.333-1.947-4.333-4.333s1.947-4.333 4.333-4.333c2.387 0 4.333 1.947 4.333 4.333s-1.947 4.333-4.333 4.333zM16 19c-1.28 0-2.333 1.053-2.333 2.333s1.053 2.333 2.333 2.333c1.28 0 2.333-1.053 2.333-2.333s-1.053-2.333-2.333-2.333z"></path>
</svg>
