<!-- Generated by IcoMoon.io -->
<svg version="1.1" xmlns="http://www.w3.org/2000/svg" width="32" height="32" viewBox="0 0 32 32">
<title>user-tick</title>
<path d="M16 17c-4.227 0-7.667-3.44-7.667-7.667s3.44-7.667 7.667-7.667c4.227 0 7.667 3.44 7.667 7.667s-3.44 7.667-7.667 7.667zM16 3.667c-3.12 0-5.667 2.547-5.667 5.667s2.547 5.667 5.667 5.667c3.12 0 5.667-2.547 5.667-5.667s-2.547-5.667-5.667-5.667z"></path>
<path d="M4.547 30.333c-0.547 0-1-0.453-1-1 0-5.693 5.587-10.333 12.453-10.333 1.347 0 2.667 0.173 3.947 0.533 0.533 0.147 0.84 0.693 0.693 1.227s-0.693 0.84-1.227 0.693c-1.093-0.307-2.24-0.453-3.413-0.453-5.76 0-10.453 3.733-10.453 8.333 0 0.547-0.453 1-1 1z"></path>
<path d="M24 30.333c-2.213 0-4.293-1.173-5.413-3.080-0.6-0.96-0.92-2.093-0.92-3.253 0-1.947 0.867-3.747 2.373-4.947 1.12-0.893 2.533-1.387 3.96-1.387 3.493 0 6.333 2.84 6.333 6.333 0 1.16-0.32 2.293-0.92 3.267-0.333 0.56-0.76 1.067-1.267 1.493-1.107 1.013-2.587 1.573-4.147 1.573zM24 19.667c-0.987 0-1.92 0.333-2.707 0.96-1.027 0.813-1.627 2.053-1.627 3.373 0 0.787 0.213 1.56 0.627 2.227 0.773 1.307 2.2 2.107 3.707 2.107 1.053 0 2.067-0.387 2.84-1.080 0.347-0.293 0.64-0.64 0.853-1.013 0.427-0.68 0.64-1.453 0.64-2.24 0-2.387-1.947-4.333-4.333-4.333z"></path>
<path d="M23.239 26.32c-0.253 0-0.507-0.093-0.707-0.293l-1.32-1.32c-0.387-0.387-0.387-1.027 0-1.413s1.027-0.387 1.413 0l0.64 0.64 2.133-1.973c0.4-0.373 1.040-0.347 1.413 0.053s0.347 1.040-0.053 1.413l-2.84 2.627c-0.2 0.173-0.44 0.267-0.68 0.267z"></path>
</svg>
