<!-- Generated by IcoMoon.io -->
<svg version="1.1" xmlns="http://www.w3.org/2000/svg" width="32" height="32" viewBox="0 0 32 32">
<title>user-tag</title>
<path d="M16 30.333c-0.933 0-1.88-0.36-2.587-1.067l-2.28-2.253c-0.56-0.56-1.333-0.867-2.12-0.867h-1.013c-2.76 0-5-2.227-5-4.96v-14.547c0-2.733 2.24-4.96 5-4.96h16c2.76 0 5 2.227 5 4.96v14.547c0 2.733-2.24 4.96-5 4.96h-1.013c-0.787 0-1.56 0.32-2.12 0.867l-2.28 2.253c-0.707 0.707-1.653 1.067-2.587 1.067zM8 3.667c-1.653 0-3 1.333-3 2.96v14.547c0 1.64 1.347 2.96 3 2.96h1.013c1.32 0 2.6 0.533 3.533 1.453l2.28 2.253c0.653 0.64 1.707 0.64 2.36 0l2.28-2.253c0.933-0.92 2.213-1.453 3.533-1.453h1c1.653 0 3-1.333 3-2.96v-14.547c0-1.64-1.347-2.96-3-2.96h-16z"></path>
<path d="M16 14.333c-2.267 0-4.107-1.84-4.107-4.107s1.84-4.107 4.107-4.107c2.267 0 4.107 1.84 4.107 4.107s-1.84 4.107-4.107 4.107zM16 8.12c-1.16 0-2.107 0.947-2.107 2.107s0.947 2.107 2.107 2.107c1.16 0 2.107-0.947 2.107-2.107s-0.947-2.107-2.107-2.107z"></path>
<path d="M21.333 21.88c-0.547 0-1-0.453-1-1 0-1.84-1.947-3.347-4.333-3.347s-4.333 1.507-4.333 3.347c0 0.547-0.453 1-1 1s-1-0.453-1-1c0-2.947 2.84-5.347 6.333-5.347s6.333 2.4 6.333 5.347c0 0.547-0.453 1-1 1z"></path>
</svg>
