<!-- Generated by IcoMoon.io -->
<svg version="1.1" xmlns="http://www.w3.org/2000/svg" width="32" height="32" viewBox="0 0 32 32">
<title>user</title>
<path d="M16 17c-4.227 0-7.667-3.44-7.667-7.667s3.44-7.667 7.667-7.667c4.227 0 7.667 3.44 7.667 7.667s-3.44 7.667-7.667 7.667zM16 3.667c-3.12 0-5.667 2.547-5.667 5.667s2.547 5.667 5.667 5.667c3.12 0 5.667-2.547 5.667-5.667s-2.547-5.667-5.667-5.667z"></path>
<path d="M27.453 30.333c-0.547 0-1-0.453-1-1 0-4.6-4.693-8.333-10.453-8.333s-10.453 3.733-10.453 8.333c0 0.547-0.453 1-1 1s-1-0.453-1-1c0-5.693 5.587-10.333 12.453-10.333s12.453 4.64 12.453 10.333c0 0.547-0.453 1-1 1z"></path>
</svg>
