<!-- Generated by IcoMoon.io -->
<svg version="1.1" xmlns="http://www.w3.org/2000/svg" width="32" height="32" viewBox="0 0 32 32">
<title>user-octagon</title>
<path d="M16 30.333c-0.893 0-1.8-0.227-2.6-0.693l-7.92-4.573c-1.6-0.933-2.6-2.653-2.6-4.507v-9.12c0-1.853 1-3.573 2.6-4.507l7.92-4.573c1.6-0.933 3.587-0.933 5.2 0l7.92 4.573c1.6 0.933 2.6 2.653 2.6 4.507v9.12c0 1.853-1 3.573-2.6 4.507l-7.92 4.573c-0.8 0.467-1.707 0.693-2.6 0.693zM16 3.667c-0.547 0-1.107 0.147-1.6 0.427l-7.92 4.573c-0.987 0.573-1.6 1.627-1.6 2.773v9.12c0 1.133 0.613 2.2 1.6 2.773l7.92 4.573c0.987 0.573 2.213 0.573 3.2 0l7.92-4.573c0.987-0.573 1.6-1.627 1.6-2.773v-9.12c0-1.133-0.613-2.2-1.6-2.773l-7.92-4.573c-0.493-0.28-1.053-0.427-1.6-0.427z"></path>
<path d="M16 15.667c-2.267 0-4.107-1.84-4.107-4.107s1.84-4.107 4.107-4.107 4.107 1.84 4.107 4.107c0 2.267-1.84 4.107-4.107 4.107zM16 9.453c-1.16 0-2.107 0.947-2.107 2.107s0.947 2.107 2.107 2.107c1.16 0 2.107-0.947 2.107-2.107s-0.947-2.107-2.107-2.107z"></path>
<path d="M21.333 23.213c-0.547 0-1-0.453-1-1 0-1.84-1.947-3.347-4.333-3.347s-4.333 1.507-4.333 3.347c0 0.547-0.453 1-1 1s-1-0.453-1-1c0-2.947 2.84-5.347 6.333-5.347s6.333 2.4 6.333 5.347c0 0.547-0.453 1-1 1z"></path>
</svg>
