<!-- Generated by IcoMoon.io -->
<svg version="1.1" xmlns="http://www.w3.org/2000/svg" width="32" height="32" viewBox="0 0 32 32">
<title>user-cirlce-add</title>
<path d="M15.281 19.307c-2.613 0-4.747-2.133-4.747-4.747s2.133-4.747 4.747-4.747 4.747 2.133 4.747 4.747c0 2.613-2.133 4.747-4.747 4.747zM15.281 11.826c-1.507 0-2.747 1.227-2.747 2.747s1.227 2.747 2.747 2.747 2.747-1.227 2.747-2.747c0-1.52-1.227-2.747-2.747-2.747z"></path>
<path d="M22.199 27.933c-0.547 0-1-0.453-1-1 0-2.56-2.653-4.64-5.92-4.64s-5.92 2.080-5.92 4.64c0 0.547-0.453 1-1 1s-1-0.453-1-1c0-3.653 3.547-6.64 7.92-6.64s7.92 2.973 7.92 6.64c0 0.547-0.453 1-1 1z"></path>
<path d="M15.333 30.333c-7.533 0-13.667-6.133-13.667-13.667s6.133-13.667 13.667-13.667c1.853 0 3.64 0.36 5.32 1.067 0.48 0.2 0.72 0.733 0.56 1.227-0.147 0.44-0.213 0.907-0.213 1.373 0 0.787 0.213 1.56 0.627 2.227 0.213 0.373 0.493 0.707 0.813 0.987 1.16 1.053 2.88 1.387 4.227 0.907 0.493-0.187 1.053 0.067 1.253 0.56 0.72 1.693 1.080 3.493 1.080 5.333 0 7.52-6.133 13.653-13.667 13.653zM15.333 5c-6.427 0-11.667 5.227-11.667 11.667s5.24 11.667 11.667 11.667c6.427 0 11.667-5.227 11.667-11.667 0-1.28-0.213-2.547-0.613-3.76-1.84 0.32-3.853-0.253-5.267-1.547-0.467-0.4-0.88-0.893-1.2-1.44-0.587-0.96-0.907-2.093-0.907-3.253 0-0.36 0.027-0.707 0.093-1.053-1.213-0.413-2.48-0.613-3.773-0.613z"></path>
<path d="M25.333 13c-1.573 0-3.067-0.587-4.227-1.64-0.467-0.4-0.88-0.893-1.2-1.44-0.587-0.96-0.907-2.093-0.907-3.253 0-0.68 0.107-1.347 0.32-1.987 0.293-0.907 0.8-1.747 1.48-2.427 1.2-1.227 2.813-1.92 4.547-1.92 1.813 0 3.533 0.773 4.707 2.107 1.040 1.16 1.627 2.653 1.627 4.227 0 0.507-0.067 1.013-0.2 1.493-0.133 0.6-0.387 1.227-0.733 1.773-0.773 1.307-2 2.28-3.44 2.733-0.6 0.227-1.267 0.333-1.973 0.333zM25.333 2.333c-1.187 0-2.293 0.467-3.107 1.307-0.467 0.48-0.8 1.027-1 1.653-0.147 0.44-0.213 0.907-0.213 1.373 0 0.787 0.213 1.56 0.627 2.227 0.213 0.373 0.493 0.707 0.813 0.987 1.16 1.053 2.88 1.387 4.227 0.907 1.013-0.32 1.84-0.987 2.373-1.88 0.24-0.387 0.4-0.8 0.493-1.213 0.093-0.347 0.133-0.68 0.133-1.027 0-1.067-0.4-2.093-1.12-2.893-0.813-0.92-1.987-1.44-3.227-1.44z"></path>
<path d="M27.32 7.64h-3.987c-0.547 0-1-0.453-1-1s0.453-1 1-1h3.987c0.547 0 1 0.453 1 1s-0.44 1-1 1z"></path>
<path d="M25.333 9.68c-0.547 0-1-0.453-1-1v-3.987c0-0.547 0.453-1 1-1s1 0.453 1 1v3.987c0 0.56-0.453 1-1 1z"></path>
</svg>
