<!-- Generated by IcoMoon.io -->
<svg version="1.1" xmlns="http://www.w3.org/2000/svg" width="32" height="32" viewBox="0 0 32 32">
<title>user-add</title>
<path d="M16 17c-4.227 0-7.667-3.44-7.667-7.667s3.44-7.667 7.667-7.667c4.227 0 7.667 3.44 7.667 7.667s-3.44 7.667-7.667 7.667zM16 3.667c-3.12 0-5.667 2.547-5.667 5.667s2.547 5.667 5.667 5.667c3.12 0 5.667-2.547 5.667-5.667s-2.547-5.667-5.667-5.667z"></path>
<path d="M4.547 30.333c-0.547 0-1-0.453-1-1 0-5.693 5.587-10.333 12.453-10.333 1.347 0 2.667 0.173 3.947 0.533 0.533 0.147 0.84 0.693 0.693 1.227s-0.693 0.84-1.227 0.693c-1.093-0.307-2.24-0.453-3.413-0.453-5.76 0-10.453 3.733-10.453 8.333 0 0.547-0.453 1-1 1z"></path>
<path d="M24 30.333c-1.573 0-3.067-0.587-4.227-1.64-0.467-0.4-0.88-0.893-1.2-1.44-0.587-0.96-0.907-2.093-0.907-3.253 0-1.667 0.64-3.227 1.787-4.413 1.2-1.24 2.813-1.92 4.547-1.92 1.813 0 3.533 0.773 4.707 2.107 1.040 1.16 1.627 2.653 1.627 4.227 0 0.507-0.067 1.013-0.2 1.493-0.133 0.6-0.387 1.227-0.733 1.773-1.107 1.893-3.187 3.067-5.4 3.067zM24 19.667c-1.187 0-2.28 0.467-3.107 1.307-0.787 0.813-1.227 1.88-1.227 3.027 0 0.787 0.213 1.56 0.627 2.227 0.213 0.373 0.493 0.707 0.813 0.987 0.8 0.733 1.827 1.133 2.893 1.133 1.507 0 2.933-0.8 3.707-2.093 0.227-0.373 0.4-0.8 0.493-1.213 0.093-0.347 0.133-0.68 0.133-1.027 0-1.067-0.4-2.093-1.12-2.893-0.8-0.933-1.973-1.453-3.213-1.453z"></path>
<path d="M26 24.973h-3.987c-0.547 0-1-0.453-1-1s0.453-1 1-1h3.987c0.547 0 1 0.453 1 1s-0.453 1-1 1z"></path>
<path d="M24 27.013c-0.547 0-1-0.453-1-1v-3.987c0-0.547 0.453-1 1-1s1 0.453 1 1v3.987c0 0.56-0.453 1-1 1z"></path>
</svg>
