<!-- Generated by IcoMoon.io -->
<svg version="1.1" xmlns="http://www.w3.org/2000/svg" width="32" height="32" viewBox="0 0 32 32">
<title>user-edit</title>
<path d="M16 17c-4.227 0-7.667-3.44-7.667-7.667s3.44-7.667 7.667-7.667c4.227 0 7.667 3.44 7.667 7.667s-3.44 7.667-7.667 7.667zM16 3.667c-3.12 0-5.667 2.547-5.667 5.667s2.547 5.667 5.667 5.667c3.12 0 5.667-2.547 5.667-5.667s-2.547-5.667-5.667-5.667z"></path>
<path d="M21.093 30.333c-0.507 0-0.987-0.187-1.333-0.533-0.413-0.413-0.6-1.013-0.507-1.64l0.253-1.8c0.067-0.467 0.347-1.013 0.68-1.36l4.72-4.72c1.893-1.893 3.56-0.813 4.373 0 0.693 0.693 1.053 1.44 1.053 2.187 0 0.76-0.347 1.467-1.053 2.173l-4.72 4.72c-0.333 0.333-0.893 0.613-1.36 0.68l-1.8 0.253c-0.107 0.027-0.2 0.040-0.307 0.040zM27.079 21.227c-0.24 0-0.453 0.16-0.76 0.467l-4.72 4.72c-0.040 0.040-0.107 0.173-0.107 0.227l-0.24 1.667 1.667-0.24c0.053-0.013 0.187-0.080 0.227-0.12l4.72-4.72c0.213-0.213 0.467-0.52 0.467-0.76 0-0.2-0.16-0.48-0.467-0.773-0.32-0.32-0.56-0.467-0.787-0.467z"></path>
<path d="M27.894 25.626c-0.093 0-0.187-0.013-0.267-0.040-1.76-0.493-3.16-1.893-3.653-3.653-0.147-0.533 0.16-1.080 0.693-1.227s1.080 0.16 1.227 0.693c0.307 1.093 1.173 1.96 2.267 2.267 0.533 0.147 0.84 0.707 0.693 1.227-0.12 0.44-0.52 0.733-0.96 0.733z"></path>
<path d="M4.547 30.333c-0.547 0-1-0.453-1-1 0-5.693 5.587-10.333 12.453-10.333 1.453 0 2.893 0.213 4.24 0.613 0.533 0.16 0.827 0.72 0.667 1.24-0.16 0.533-0.72 0.827-1.24 0.667-1.173-0.347-2.4-0.533-3.667-0.533-5.76 0-10.453 3.733-10.453 8.333 0 0.56-0.453 1.013-1 1.013z"></path>
</svg>
