<!-- Generated by IcoMoon.io -->
<svg version="1.1" xmlns="http://www.w3.org/2000/svg" width="32" height="32" viewBox="0 0 32 32">
<title>verify</title>
<path d="M14.387 20.227c-0.267 0-0.52-0.107-0.707-0.293l-3.227-3.227c-0.387-0.387-0.387-1.027 0-1.413s1.027-0.387 1.413 0l2.52 2.52 5.733-5.733c0.387-0.387 1.027-0.387 1.413 0s0.387 1.027 0 1.413l-6.44 6.44c-0.187 0.187-0.44 0.293-0.707 0.293z"></path>
<path d="M16.001 30.333c-0.84 0-1.68-0.28-2.333-0.84l-2.107-1.813c-0.213-0.187-0.747-0.373-1.027-0.373h-2.293c-1.973 0-3.573-1.6-3.573-3.573v-2.28c0-0.28-0.187-0.8-0.373-1.013l-1.8-2.12c-1.093-1.293-1.093-3.333 0-4.627l1.8-2.12c0.187-0.213 0.373-0.733 0.373-1.013v-2.293c0-1.973 1.6-3.573 3.573-3.573h2.307c0.28 0 0.813-0.2 1.027-0.373l2.107-1.813c1.307-1.12 3.347-1.12 4.653 0l2.107 1.813c0.213 0.187 0.747 0.373 1.027 0.373h2.267c1.973 0 3.573 1.6 3.573 3.573v2.267c0 0.28 0.2 0.813 0.387 1.027l1.813 2.107c1.12 1.307 1.12 3.347 0 4.653l-1.813 2.107c-0.187 0.213-0.387 0.747-0.387 1.027v2.267c0 1.973-1.6 3.573-3.573 3.573h-2.267c-0.28 0-0.813 0.2-1.027 0.373l-2.107 1.813c-0.653 0.573-1.493 0.853-2.333 0.853zM8.241 6.693c-0.867 0-1.573 0.707-1.573 1.573v2.28c0 0.76-0.36 1.733-0.853 2.307l-1.8 2.12c-0.467 0.547-0.467 1.493 0 2.040l1.8 2.12c0.493 0.587 0.853 1.547 0.853 2.307v2.28c0 0.867 0.707 1.573 1.573 1.573h2.307c0.773 0 1.747 0.36 2.333 0.867l2.107 1.813c0.547 0.467 1.507 0.467 2.053 0l2.107-1.813c0.587-0.493 1.56-0.867 2.333-0.867h2.267c0.867 0 1.573-0.707 1.573-1.573v-2.267c0-0.773 0.36-1.747 0.867-2.333l1.813-2.107c0.467-0.547 0.467-1.507 0-2.053l-1.813-2.107c-0.507-0.587-0.867-1.56-0.867-2.333v-2.253c0-0.867-0.707-1.573-1.573-1.573h-2.267c-0.773 0-1.747-0.36-2.333-0.867l-2.107-1.813c-0.547-0.467-1.507-0.467-2.053 0l-2.107 1.827c-0.587 0.493-1.573 0.853-2.333 0.853h-2.307z"></path>
</svg>
