<!-- Generated by IcoMoon.io -->
<svg version="1.1" xmlns="http://www.w3.org/2000/svg" width="32" height="32" viewBox="0 0 32 32">
<title>video-remove</title>
<path d="M20 30.333h-8c-7.24 0-10.333-3.093-10.333-10.333v-8c0-7.24 3.093-10.333 10.333-10.333h8c7.24 0 10.333 3.093 10.333 10.333v8c0 0.333 0 0.667-0.027 0.987-0.040 0.427-0.333 0.773-0.747 0.88s-0.84-0.053-1.080-0.413c-0.013-0.013-0.093-0.107-0.107-0.133-0.92-1.053-2.267-1.653-3.693-1.653-1.36 0-2.64 0.533-3.587 1.507-0.907 0.933-1.413 2.173-1.413 3.493 0 0.893 0.253 1.787 0.72 2.573 0.253 0.427 0.573 0.8 0.933 1.12l0.16 0.147c0.307 0.253 0.453 0.693 0.333 1.080s-0.44 0.68-0.84 0.72c-0.307 0.027-0.653 0.027-0.987 0.027zM12 3.667c-6.147 0-8.333 2.187-8.333 8.333v8c0 6.147 2.187 8.333 8.333 8.333h6.707c-0.013-0.013-0.027-0.040-0.040-0.053-0.667-1.107-1.013-2.347-1.013-3.613 0-1.84 0.707-3.573 1.973-4.88 1.307-1.347 3.147-2.12 5.027-2.12 1.32 0 2.587 0.36 3.667 1.040v-6.707c0-6.147-2.187-8.333-8.333-8.333h-7.987z"></path>
<path d="M28.639 10.48h-25.28c-0.547 0-1-0.453-1-1s0.453-1 1-1h25.28c0.547 0 1 0.453 1 1s-0.44 1-1 1z"></path>
<path d="M11.359 10.293c-0.547 0-1-0.453-1-1v-6.48c0-0.547 0.453-1 1-1s1 0.453 1 1v6.48c0 0.547-0.453 1-1 1z"></path>
<path d="M20.641 9.693c-0.547 0-1-0.453-1-1v-5.88c0-0.547 0.453-1 1-1s1 0.453 1 1v5.88c0 0.56-0.44 1-1 1z"></path>
<path d="M24.666 31.667c-1.573 0-3.107-0.533-4.307-1.52-0.040-0.027-0.080-0.053-0.107-0.080-0.12-0.107-0.2-0.16-0.267-0.24-0.467-0.4-0.92-0.933-1.293-1.547-0.667-1.107-1.013-2.347-1.013-3.613 0-1.84 0.707-3.573 1.973-4.88 1.307-1.347 3.147-2.12 5.027-2.12 2.013 0 3.907 0.853 5.213 2.347 0.067 0.053 0.173 0.187 0.267 0.32 0.96 1.16 1.533 2.72 1.533 4.333 0 0.587-0.067 1.133-0.2 1.653-0.16 0.667-0.427 1.32-0.8 1.947-1.293 2.107-3.587 3.4-6.027 3.4zM21.453 28.467c0.027 0.027 0.067 0.040 0.093 0.067 0.88 0.733 1.947 1.12 3.12 1.12 1.747 0 3.373-0.933 4.28-2.427 0.267-0.44 0.453-0.92 0.573-1.413 0.093-0.373 0.147-0.747 0.147-1.16 0-1.147-0.4-2.253-1.133-3.133-0.013-0.013-0.16-0.187-0.173-0.213-0.92-1.053-2.267-1.653-3.693-1.653-1.36 0-2.64 0.533-3.587 1.507-0.907 0.933-1.413 2.173-1.413 3.493 0 0.893 0.253 1.787 0.72 2.573 0.253 0.427 0.573 0.8 0.933 1.12l0.133 0.12z"></path>
<path d="M26.266 27.24c-0.253 0-0.507-0.093-0.707-0.293l-3.173-3.173c-0.387-0.387-0.387-1.027 0-1.413s1.027-0.387 1.413 0l3.173 3.173c0.387 0.387 0.387 1.027 0 1.413-0.187 0.187-0.453 0.293-0.707 0.293z"></path>
<path d="M23.067 27.266c-0.253 0-0.507-0.093-0.707-0.293-0.387-0.387-0.387-1.027 0-1.413l3.173-3.173c0.387-0.387 1.027-0.387 1.413 0s0.387 1.027 0 1.413l-3.173 3.173c-0.2 0.2-0.453 0.293-0.707 0.293z"></path>
</svg>
