<!-- Generated by IcoMoon.io -->
<svg version="1.1" xmlns="http://www.w3.org/2000/svg" width="32" height="32" viewBox="0 0 32 32">
<title>video</title>
<path d="M17.173 27.813h-8.093c-4.733 0-6.413-3.32-6.413-6.413v-10.8c0-4.613 1.8-6.413 6.413-6.413h8.093c4.613 0 6.413 1.8 6.413 6.413v10.8c0 4.613-1.8 6.413-6.413 6.413zM9.080 6.214c-3.48 0-4.387 0.907-4.387 4.387v10.8c0 1.64 0.573 4.387 4.387 4.387h8.093c3.48 0 4.387-0.907 4.387-4.387v-10.8c0-3.48-0.907-4.387-4.387-4.387h-8.093z"></path>
<path d="M27.706 24.147c-0.573 0-1.307-0.187-2.147-0.773l-3.56-2.493c-0.267-0.187-0.427-0.493-0.427-0.827v-8.107c0-0.333 0.16-0.64 0.427-0.827l3.56-2.493c1.587-1.107 2.747-0.787 3.293-0.507 0.547 0.293 1.48 1.053 1.48 2.987v9.773c0 1.933-0.933 2.707-1.48 2.987-0.253 0.147-0.653 0.28-1.147 0.28zM23.586 19.52l3.133 2.187c0.6 0.413 1.027 0.453 1.2 0.36 0.187-0.093 0.387-0.467 0.387-1.187v-9.76c0-0.733-0.213-1.093-0.387-1.187s-0.6-0.053-1.2 0.36l-3.133 2.187v7.040z"></path>
<path d="M15.333 15.667c-1.653 0-3-1.347-3-3s1.347-3 3-3c1.653 0 3 1.347 3 3s-1.347 3-3 3zM15.333 11.667c-0.547 0-1 0.453-1 1s0.453 1 1 1c0.547 0 1-0.453 1-1s-0.453-1-1-1z"></path>
</svg>
