<!-- Generated by IcoMoon.io -->
<svg version="1.1" xmlns="http://www.w3.org/2000/svg" width="32" height="32" viewBox="0 0 32 32">
<title>video-horizontal</title>
<path d="M20 30.333h-8c-7.24 0-10.333-3.093-10.333-10.333v-8c0-7.24 3.093-10.333 10.333-10.333h8c7.24 0 10.333 3.093 10.333 10.333v8c0 7.24-3.093 10.333-10.333 10.333zM12 3.667c-6.147 0-8.333 2.187-8.333 8.333v8c0 6.147 2.187 8.333 8.333 8.333h8c6.147 0 8.333-2.187 8.333-8.333v-8c0-6.147-2.187-8.333-8.333-8.333h-8z"></path>
<path d="M28.639 23.813h-25.28c-0.547 0-1-0.453-1-1s0.453-1 1-1h25.28c0.547 0 1 0.453 1 1s-0.44 1-1 1z"></path>
<path d="M28.639 10.48h-25.28c-0.547 0-1-0.453-1-1s0.44-1 1-1h25.28c0.547 0 1 0.453 1 1s-0.44 1-1 1z"></path>
<path d="M9.294 29.613c-0.547 0-1-0.453-1-1v-5.8c0-0.547 0.453-1 1-1s1 0.453 1 1v5.8c0 0.56-0.453 1-1 1z"></path>
<path d="M16 30.293c-0.547 0-1-0.453-1-1v-6.48c0-0.547 0.453-1 1-1s1 0.453 1 1v6.48c0 0.547-0.453 1-1 1z"></path>
<path d="M22.628 29.693c-0.547 0-1-0.453-1-1v-5.88c0-0.547 0.453-1 1-1s1 0.453 1 1v5.88c0 0.56-0.453 1-1 1z"></path>
<path d="M9.294 9.613c-0.547 0-1-0.453-1-1v-5.8c0-0.547 0.453-1 1-1s1 0.453 1 1v5.8c0 0.56-0.453 1-1 1z"></path>
<path d="M16 10.293c-0.547 0-1-0.453-1-1v-6.48c0-0.547 0.453-1 1-1s1 0.453 1 1v6.48c0 0.547-0.453 1-1 1z"></path>
<path d="M16 25.040c-0.547 0-1-0.453-1-1v-14.667c0-0.547 0.453-1 1-1s1 0.453 1 1v14.667c0 0.547-0.453 1-1 1z"></path>
<path d="M22.628 9.693c-0.547 0-1-0.453-1-1v-5.88c0-0.547 0.453-1 1-1s1 0.453 1 1v5.88c0 0.56-0.453 1-1 1z"></path>
</svg>
