<!-- Generated by IcoMoon.io -->
<svg version="1.1" xmlns="http://www.w3.org/2000/svg" width="32" height="32" viewBox="0 0 32 32">
<title>video-tick</title>
<path d="M20 30.333h-8c-7.24 0-10.333-3.093-10.333-10.333v-8c0-7.24 3.093-10.333 10.333-10.333h8c7.24 0 10.333 3.093 10.333 10.333v8c0 0.32 0 0.653-0.027 0.96-0.040 0.4-0.32 0.747-0.707 0.867s-0.813-0.013-1.067-0.333c-0.947-1.16-2.347-1.827-3.867-1.827-1.133 0-2.24 0.387-3.12 1.093-1.2 0.947-1.88 2.36-1.88 3.907 0 0.893 0.253 1.787 0.72 2.573 0.293 0.493 0.68 0.933 1.12 1.28 0.32 0.253 0.453 0.68 0.333 1.067s-0.453 0.667-0.867 0.707c-0.307 0.040-0.64 0.040-0.973 0.040zM12 3.667c-6.147 0-8.333 2.187-8.333 8.333v8c0 6.147 2.187 8.333 8.333 8.333h6.707c-0.013-0.013-0.027-0.040-0.040-0.053-0.667-1.093-1.013-2.347-1.013-3.613 0-2.16 0.96-4.147 2.64-5.467 2.24-1.813 5.64-1.973 8.027-0.507v-6.693c0-6.147-2.187-8.333-8.333-8.333h-7.987z"></path>
<path d="M28.639 10.48h-25.28c-0.547 0-1-0.453-1-1s0.453-1 1-1h25.28c0.547 0 1 0.453 1 1s-0.44 1-1 1z"></path>
<path d="M11.359 10.293c-0.547 0-1-0.453-1-1v-6.48c0-0.547 0.453-1 1-1s1 0.453 1 1v6.48c0 0.547-0.453 1-1 1z"></path>
<path d="M20.641 9.693c-0.547 0-1-0.453-1-1v-5.88c0-0.547 0.453-1 1-1s1 0.453 1 1v5.88c0 0.56-0.44 1-1 1z"></path>
<path d="M24.667 31.667c-1.573 0-3.093-0.533-4.32-1.507-0.027-0.027-0.067-0.040-0.093-0.067-0.627-0.507-1.16-1.107-1.573-1.813-0.667-1.093-1.013-2.347-1.013-3.613 0-2.16 0.96-4.147 2.64-5.467 1.227-0.987 2.773-1.533 4.36-1.533 2.12 0 4.093 0.933 5.413 2.573 1.013 1.227 1.587 2.8 1.587 4.427 0 1.267-0.347 2.507-1.013 3.613-0.387 0.64-0.853 1.187-1.387 1.653-1.267 1.12-2.893 1.733-4.6 1.733zM21.427 28.467c0.040 0.027 0.067 0.053 0.107 0.080 0.88 0.733 1.987 1.133 3.133 1.133 1.227 0 2.36-0.427 3.28-1.24 0.387-0.333 0.72-0.733 1-1.173 0.467-0.787 0.72-1.68 0.72-2.573 0-1.16-0.4-2.28-1.133-3.16-0.947-1.173-2.36-1.84-3.867-1.84-1.133 0-2.24 0.387-3.12 1.093-1.2 0.947-1.88 2.36-1.88 3.907 0 0.893 0.253 1.787 0.72 2.573 0.28 0.44 0.627 0.853 1.040 1.2z"></path>
<path d="M23.8 27.146c-0.253 0-0.507-0.093-0.707-0.293l-1.48-1.48c-0.387-0.387-0.387-1.027 0-1.413s1.027-0.387 1.413 0l0.8 0.8 2.493-2.307c0.4-0.373 1.040-0.347 1.413 0.053s0.347 1.040-0.053 1.413l-3.2 2.96c-0.187 0.173-0.427 0.267-0.68 0.267z"></path>
</svg>
