<!-- Generated by IcoMoon.io -->
<svg version="1.1" xmlns="http://www.w3.org/2000/svg" width="32" height="32" viewBox="0 0 32 32">
<title>video-slash</title>
<path d="M5.733 26.56c-0.227 0-0.453-0.080-0.64-0.227-1.347-1.107-2.093-2.88-2.093-5v-10.667c0-4.56 1.773-6.333 6.333-6.333h8c2.72 0 5.573 0.507 6.187 4.307 0.093 0.547-0.28 1.053-0.827 1.147s-1.053-0.28-1.147-0.827c-0.28-1.733-1.013-2.627-4.213-2.627h-8c-3.44 0-4.333 0.893-4.333 4.333v10.667c0 0.867 0.173 2.48 1.36 3.453 0.427 0.347 0.493 0.987 0.133 1.413-0.187 0.24-0.48 0.36-0.76 0.36z"></path>
<path d="M17.333 27.667h-6.667c-0.547 0-1-0.453-1-1s0.453-1 1-1h6.667c3.44 0 4.333-0.893 4.333-4.333v-6.667c0-0.547 0.453-1 1-1s1 0.453 1 1v6.667c0 4.56-1.773 6.333-6.333 6.333z"></path>
<path d="M27.734 24.053c-0.573 0-1.28-0.187-2.12-0.773l-3.52-2.467c-0.453-0.32-0.56-0.947-0.24-1.387 0.32-0.453 0.933-0.56 1.387-0.24l3.52 2.467c0.587 0.413 1.013 0.453 1.187 0.36s0.387-0.453 0.387-1.173v-11.507c0-0.547 0.453-1 1-1s1 0.453 1 1v11.493c0 1.907-0.92 2.667-1.467 2.947-0.253 0.133-0.64 0.28-1.133 0.28z"></path>
<path d="M2.695 30.587c-0.253 0-0.507-0.093-0.707-0.293-0.387-0.387-0.387-1.027 0-1.413l26.667-26.667c0.387-0.387 1.027-0.387 1.413 0s0.387 1.027 0 1.413l-26.667 26.667c-0.187 0.2-0.453 0.293-0.707 0.293z"></path>
</svg>
