<!-- Generated by IcoMoon.io -->
<svg version="1.1" xmlns="http://www.w3.org/2000/svg" width="32" height="32" viewBox="0 0 32 32">
<title>video-time</title>
<path d="M20 30.333h-8c-7.24 0-10.333-3.093-10.333-10.333v-8c0-7.24 3.093-10.333 10.333-10.333h8c7.24 0 10.333 3.093 10.333 10.333v8c0 0.32 0 0.653-0.027 0.96-0.040 0.4-0.32 0.747-0.707 0.867s-0.813-0.013-1.067-0.333c-0.947-1.16-2.347-1.827-3.867-1.827-1.133 0-2.24 0.387-3.12 1.093-1.2 0.947-1.88 2.36-1.88 3.907 0 1.507 0.667 2.92 1.827 3.867 0.32 0.253 0.44 0.68 0.333 1.067-0.12 0.387-0.453 0.667-0.867 0.707-0.307 0.027-0.64 0.027-0.96 0.027zM12 3.667c-6.147 0-8.333 2.187-8.333 8.333v8c0 6.147 2.187 8.333 8.333 8.333h6.693c-0.667-1.080-1.027-2.347-1.027-3.667 0-2.16 0.96-4.147 2.64-5.467 2.24-1.813 5.64-1.973 8.027-0.507v-6.693c0-6.147-2.187-8.333-8.333-8.333h-8z"></path>
<path d="M28.639 10.48h-25.28c-0.547 0-1-0.453-1-1s0.453-1 1-1h25.28c0.547 0 1 0.453 1 1s-0.44 1-1 1z"></path>
<path d="M11.359 10.293c-0.547 0-1-0.453-1-1v-6.48c0-0.547 0.453-1 1-1s1 0.453 1 1v6.48c0 0.547-0.453 1-1 1z"></path>
<path d="M20.641 9.693c-0.547 0-1-0.453-1-1v-5.88c0-0.547 0.453-1 1-1s1 0.453 1 1v5.88c0 0.56-0.44 1-1 1z"></path>
<path d="M24.667 31.667c-1.627 0-3.2-0.56-4.44-1.587-1.627-1.32-2.56-3.293-2.56-5.413 0-2.16 0.96-4.147 2.64-5.467 1.227-0.987 2.773-1.533 4.36-1.533 2.12 0 4.093 0.933 5.413 2.573 1.013 1.227 1.587 2.8 1.587 4.427 0 1.987-0.867 3.907-2.373 5.253-1.307 1.133-2.947 1.747-4.627 1.747zM24.667 19.667c-1.133 0-2.24 0.387-3.12 1.093-1.2 0.947-1.88 2.36-1.88 3.907 0 1.507 0.667 2.92 1.827 3.867 1.813 1.507 4.627 1.493 6.48-0.12 1.067-0.96 1.693-2.333 1.693-3.747 0-1.16-0.4-2.28-1.133-3.16-0.947-1.173-2.36-1.84-3.867-1.84z"></path>
<path d="M23.172 27.173c-0.333 0-0.667-0.173-0.853-0.48-0.28-0.48-0.133-1.093 0.347-1.373l1.387-0.827v-1.68c0-0.547 0.453-1 1-1s1 0.453 1 1v2.253c0 0.347-0.187 0.68-0.48 0.853l-1.88 1.12c-0.173 0.080-0.347 0.133-0.52 0.133z"></path>
</svg>
