<!-- Generated by IcoMoon.io -->
<svg version="1.1" xmlns="http://www.w3.org/2000/svg" width="32" height="32" viewBox="0 0 32 32">
<title>video-octagon</title>
<path d="M16 30.333c-0.893 0-1.8-0.227-2.6-0.693l-7.92-4.573c-1.6-0.933-2.6-2.653-2.6-4.507v-9.12c0-1.853 1-3.573 2.6-4.507l7.92-4.573c1.6-0.933 3.587-0.933 5.2 0l7.92 4.573c1.6 0.933 2.6 2.653 2.6 4.507v9.12c0 1.853-1 3.573-2.6 4.507l-7.92 4.573c-0.8 0.467-1.707 0.693-2.6 0.693zM16 3.667c-0.547 0-1.107 0.147-1.6 0.427l-7.92 4.573c-0.987 0.573-1.6 1.627-1.6 2.773v9.12c0 1.133 0.613 2.2 1.6 2.773l7.92 4.573c0.987 0.573 2.213 0.573 3.2 0l7.92-4.573c0.987-0.573 1.6-1.627 1.6-2.773v-9.12c0-1.133-0.613-2.2-1.6-2.773l-7.92-4.573c-0.493-0.28-1.053-0.427-1.6-0.427z"></path>
<path d="M14.787 20.894c-0.48 0-0.933-0.12-1.347-0.347-0.92-0.533-1.453-1.613-1.453-2.96v-3.2c0-1.347 0.533-2.427 1.453-2.96s2.12-0.453 3.28 0.227l2.773 1.6c1.16 0.667 1.84 1.667 1.84 2.733s-0.667 2.053-1.84 2.733l-2.773 1.6c-0.64 0.387-1.307 0.573-1.933 0.573zM14.8 13.094c-0.133 0-0.253 0.027-0.347 0.080-0.28 0.16-0.453 0.613-0.453 1.227v3.2c0 0.6 0.173 1.053 0.453 1.227 0.28 0.16 0.76 0.080 1.28-0.227l2.773-1.6c0.52-0.307 0.827-0.68 0.827-1s-0.307-0.693-0.827-1l-2.773-1.6c-0.347-0.2-0.68-0.307-0.933-0.307z"></path>
</svg>
