<!-- Generated by IcoMoon.io -->
<svg version="1.1" xmlns="http://www.w3.org/2000/svg" width="32" height="32" viewBox="0 0 32 32">
<title>video-square</title>
<path d="M20 30.333h-8c-7.24 0-10.333-3.093-10.333-10.333v-8c0-7.24 3.093-10.333 10.333-10.333h8c7.24 0 10.333 3.093 10.333 10.333v8c0 7.24-3.093 10.333-10.333 10.333zM12 3.667c-6.147 0-8.333 2.187-8.333 8.333v8c0 6.147 2.187 8.333 8.333 8.333h8c6.147 0 8.333-2.187 8.333-8.333v-8c0-6.147-2.187-8.333-8.333-8.333h-8z"></path>
<path d="M14.346 21.826c-0.56 0-1.080-0.133-1.547-0.4-1.067-0.613-1.68-1.867-1.68-3.453v-3.947c0-1.573 0.613-2.84 1.68-3.453s2.453-0.52 3.827 0.28l3.427 1.973c1.36 0.787 2.147 1.947 2.147 3.173s-0.787 2.387-2.147 3.173l-3.427 1.973c-0.773 0.453-1.56 0.68-2.28 0.68zM14.36 12.173c-0.213 0-0.4 0.040-0.547 0.133-0.427 0.253-0.68 0.88-0.68 1.72v3.947c0 0.84 0.24 1.467 0.68 1.72 0.427 0.253 1.093 0.147 1.827-0.28l3.427-1.973c0.733-0.427 1.147-0.947 1.147-1.44s-0.413-1.027-1.147-1.44l-3.427-1.973c-0.48-0.28-0.92-0.413-1.28-0.413z"></path>
</svg>
