<!-- Generated by IcoMoon.io -->
<svg version="1.1" xmlns="http://www.w3.org/2000/svg" width="32" height="32" viewBox="0 0 32 32">
<title>video-vertical</title>
<path d="M20 30.333h-8c-7.24 0-10.333-3.093-10.333-10.333v-8c0-7.24 3.093-10.333 10.333-10.333h8c7.24 0 10.333 3.093 10.333 10.333v8c0 7.24-3.093 10.333-10.333 10.333zM12 3.667c-6.147 0-8.333 2.187-8.333 8.333v8c0 6.147 2.187 8.333 8.333 8.333h8c6.147 0 8.333-2.187 8.333-8.333v-8c0-6.147-2.187-8.333-8.333-8.333h-8z"></path>
<path d="M9.188 29.64c-0.547 0-1-0.453-1-1v-25.28c0-0.547 0.453-1 1-1s1 0.44 1 1v25.28c0 0.56-0.453 1-1 1z"></path>
<path d="M22.521 29.64c-0.547 0-1-0.453-1-1v-25.28c0-0.547 0.453-1 1-1s1 0.453 1 1v25.28c0 0.56-0.453 1-1 1z"></path>
<path d="M9.185 10.294h-5.8c-0.547 0-1-0.453-1-1s0.453-1 1-1h5.8c0.547 0 1 0.453 1 1s-0.453 1-1 1z"></path>
<path d="M9.186 17h-6.48c-0.547 0-1-0.453-1-1s0.453-1 1-1h6.48c0.547 0 1 0.453 1 1s-0.453 1-1 1z"></path>
<path d="M9.187 23.627h-5.88c-0.547 0-1-0.453-1-1s0.453-1 1-1h5.88c0.547 0 1 0.453 1 1s-0.453 1-1 1z"></path>
<path d="M29.185 10.294h-5.8c-0.547 0-1-0.453-1-1s0.453-1 1-1h5.8c0.547 0 1 0.453 1 1s-0.453 1-1 1z"></path>
<path d="M29.186 17h-6.48c-0.547 0-1-0.453-1-1s0.453-1 1-1h6.48c0.547 0 1 0.453 1 1s-0.453 1-1 1z"></path>
<path d="M22.628 17h-14.667c-0.547 0-1-0.453-1-1s0.453-1 1-1h14.667c0.547 0 1 0.453 1 1s-0.44 1-1 1z"></path>
<path d="M29.187 23.627h-5.88c-0.547 0-1-0.453-1-1s0.453-1 1-1h5.88c0.547 0 1 0.453 1 1s-0.453 1-1 1z"></path>
</svg>
