<!-- Generated by IcoMoon.io -->
<svg version="1.1" xmlns="http://www.w3.org/2000/svg" width="32" height="32" viewBox="0 0 32 32">
<title>video-circle</title>
<path d="M14.346 21.826c-0.56 0-1.080-0.133-1.547-0.4-1.067-0.613-1.68-1.867-1.68-3.453v-3.947c0-1.573 0.613-2.84 1.68-3.453s2.453-0.52 3.827 0.28l3.427 1.973c1.36 0.787 2.147 1.947 2.147 3.173s-0.787 2.387-2.147 3.173l-3.427 1.973c-0.773 0.453-1.56 0.68-2.28 0.68zM14.36 12.173c-0.213 0-0.4 0.040-0.547 0.133-0.427 0.253-0.68 0.88-0.68 1.72v3.947c0 0.84 0.24 1.467 0.68 1.72 0.427 0.253 1.093 0.147 1.827-0.28l3.427-1.973c0.733-0.427 1.147-0.947 1.147-1.44s-0.413-1.027-1.147-1.44l-3.427-1.973c-0.48-0.28-0.92-0.413-1.28-0.413z"></path>
<path d="M16 30.333c-7.907 0-14.333-6.427-14.333-14.333s6.427-14.333 14.333-14.333c7.907 0 14.333 6.427 14.333 14.333s-6.427 14.333-14.333 14.333zM16 3.667c-6.8 0-12.333 5.533-12.333 12.333s5.533 12.333 12.333 12.333c6.8 0 12.333-5.533 12.333-12.333s-5.533-12.333-12.333-12.333z"></path>
</svg>
