<!-- Generated by IcoMoon.io -->
<svg version="1.1" xmlns="http://www.w3.org/2000/svg" width="32" height="32" viewBox="0 0 32 32">
<title>voice-cricle</title>
<path d="M8 19.853c-0.547 0-1-0.453-1-1v-5.72c0-0.547 0.453-1 1-1s1 0.453 1 1v5.72c0 0.56-0.453 1-1 1z"></path>
<path d="M12 21.76c-0.547 0-1-0.453-1-1v-9.52c0-0.547 0.453-1 1-1s1 0.453 1 1v9.52c0 0.56-0.453 1-1 1z"></path>
<path d="M16 23.667c-0.547 0-1-0.453-1-1v-13.333c0-0.547 0.453-1 1-1s1 0.453 1 1v13.333c0 0.547-0.453 1-1 1z"></path>
<path d="M20 21.76c-0.547 0-1-0.453-1-1v-9.52c0-0.547 0.453-1 1-1s1 0.453 1 1v9.52c0 0.56-0.453 1-1 1z"></path>
<path d="M24 19.853c-0.547 0-1-0.453-1-1v-5.72c0-0.547 0.453-1 1-1s1 0.453 1 1v5.72c0 0.56-0.453 1-1 1z"></path>
<path d="M16 30.333c-7.907 0-14.333-6.427-14.333-14.333s6.427-14.333 14.333-14.333c7.907 0 14.333 6.427 14.333 14.333s-6.427 14.333-14.333 14.333zM16 3.667c-6.8 0-12.333 5.533-12.333 12.333s5.533 12.333 12.333 12.333c6.8 0 12.333-5.533 12.333-12.333s-5.533-12.333-12.333-12.333z"></path>
</svg>
