<!-- Generated by IcoMoon.io -->
<svg version="1.1" xmlns="http://www.w3.org/2000/svg" width="32" height="32" viewBox="0 0 32 32">
<title>volume-mute</title>
<path d="M21.4 27.453c-1.053 0-2.213-0.373-3.373-1.107l-3.893-2.44c-0.267-0.16-0.573-0.253-0.88-0.253h-1.92c-3.227 0-5-1.773-5-5v-5.333c0-3.227 1.773-5 5-5h1.907c0.307 0 0.613-0.093 0.88-0.253l3.893-2.44c1.947-1.213 3.84-1.44 5.333-0.613s2.307 2.547 2.307 4.853v12.227c0 2.293-0.827 4.027-2.307 4.853-0.587 0.347-1.253 0.507-1.947 0.507zM11.333 10.333c-2.107 0-3 0.893-3 3v5.333c0 2.107 0.893 3 3 3h1.907c0.693 0 1.36 0.187 1.947 0.56l3.893 2.44c1.293 0.8 2.493 1.013 3.307 0.56s1.28-1.587 1.28-3.093v-12.253c0-1.52-0.467-2.653-1.28-3.093-0.813-0.453-2.013-0.253-3.307 0.56l-3.893 2.44c-0.587 0.36-1.253 0.56-1.947 0.56h-1.907v-0.013z"></path>
</svg>
