<!-- Generated by IcoMoon.io -->
<svg version="1.1" xmlns="http://www.w3.org/2000/svg" width="32" height="32" viewBox="0 0 32 32">
<title>volume-slash</title>
<path d="M9.333 23.667h-2.667c-3.227 0-5-1.773-5-5v-5.333c0-3.227 1.773-5 5-5h1.907c0.307 0 0.613-0.093 0.88-0.253l3.893-2.44c1.947-1.213 3.84-1.44 5.333-0.613s2.307 2.547 2.307 4.853v1.28c0 0.547-0.453 1-1 1s-1-0.453-1-1v-1.28c0-1.52-0.467-2.653-1.28-3.093-0.813-0.453-2.013-0.253-3.307 0.56l-3.893 2.427c-0.573 0.373-1.253 0.56-1.933 0.56h-1.907c-2.107 0-3 0.893-3 3v5.333c0 2.107 0.893 3 3 3h2.667c0.547 0 1 0.453 1 1s-0.453 1-1 1z"></path>
<path d="M16.733 27.454c-1.053 0-2.213-0.373-3.373-1.107-0.467-0.293-0.613-0.907-0.32-1.373s0.907-0.613 1.373-0.32c1.293 0.8 2.493 1.013 3.307 0.56s1.28-1.587 1.28-3.093v-4.853c0-0.547 0.453-1 1-1s1 0.453 1 1v4.853c0 2.293-0.827 4.027-2.307 4.853-0.6 0.32-1.267 0.48-1.96 0.48z"></path>
<path d="M24 22.333c-0.213 0-0.413-0.067-0.6-0.2-0.44-0.333-0.533-0.96-0.2-1.4 1.68-2.24 2.040-5.213 0.96-7.787-0.213-0.507 0.027-1.093 0.533-1.307s1.093 0.027 1.307 0.533c1.36 3.227 0.893 6.973-1.2 9.773-0.2 0.253-0.493 0.387-0.8 0.387z"></path>
<path d="M26.441 25.667c-0.213 0-0.413-0.067-0.6-0.2-0.44-0.333-0.533-0.96-0.2-1.4 2.853-3.8 3.48-8.893 1.64-13.28-0.213-0.507 0.027-1.093 0.533-1.307 0.52-0.213 1.093 0.027 1.307 0.533 2.12 5.040 1.4 10.88-1.88 15.253-0.187 0.267-0.493 0.4-0.8 0.4z"></path>
<path d="M2.666 30.333c-0.253 0-0.507-0.093-0.707-0.293-0.387-0.387-0.387-1.027 0-1.413l26.667-26.667c0.387-0.387 1.027-0.387 1.413 0s0.387 1.027 0 1.413l-26.667 26.667c-0.2 0.2-0.453 0.293-0.707 0.293z"></path>
</svg>
