<!-- Generated by IcoMoon.io -->
<svg version="1.1" xmlns="http://www.w3.org/2000/svg" width="32" height="32" viewBox="0 0 32 32">
<title>volume-up</title>
<path d="M17.013 27.667c-1.080 0-2.24-0.373-3.44-1.12l-3.973-2.48c-0.28-0.173-0.587-0.267-0.907-0.267h-1.947c-3.28 0-5.080-1.8-5.080-5.080v-5.44c0-3.28 1.8-5.080 5.080-5.080h1.947c0.32 0 0.64-0.093 0.907-0.267l3.973-2.48c1.987-1.24 3.907-1.467 5.427-0.613 1.52 0.84 2.347 2.587 2.347 4.933v12.48c0 2.333-0.84 4.093-2.347 4.933-0.6 0.32-1.267 0.48-1.987 0.48zM6.747 10.2c-2.16 0-3.080 0.92-3.080 3.080v5.44c0 2.16 0.92 3.080 3.080 3.080h1.947c0.693 0 1.373 0.2 1.973 0.56l3.973 2.48c1.32 0.827 2.56 1.027 3.4 0.573 0.84-0.467 1.32-1.627 1.32-3.173v-12.48c0-1.56-0.48-2.72-1.32-3.173-0.84-0.467-2.080-0.253-3.4 0.573l-3.973 2.467c-0.6 0.373-1.28 0.573-1.973 0.573h-1.947z"></path>
<path d="M29.333 17h-5.333c-0.547 0-1-0.453-1-1s0.453-1 1-1h5.333c0.547 0 1 0.453 1 1s-0.453 1-1 1z"></path>
<path d="M26.667 19.667c-0.547 0-1-0.453-1-1v-5.333c0-0.547 0.453-1 1-1s1 0.453 1 1v5.333c0 0.547-0.453 1-1 1z"></path>
</svg>
