<!-- Generated by IcoMoon.io -->
<svg version="1.1" xmlns="http://www.w3.org/2000/svg" width="32" height="32" viewBox="0 0 32 32">
<title>wallet-3</title>
<path d="M17.333 15.867h-8c-0.547 0-1-0.453-1-1s0.453-1 1-1h8c0.547 0 1 0.453 1 1s-0.453 1-1 1z"></path>
<path d="M2.667 15.866c-0.547 0-1-0.453-1-1v-6.16c0-3.267 2.653-5.92 5.92-5.92h7.493c3.427 0 5.92 2.28 5.92 5.413 0 0.547-0.453 1-1 1s-1-0.453-1-1c0-2.347-2.040-3.413-3.92-3.413h-7.493c-2.16 0-3.92 1.76-3.92 3.92v6.16c0 0.56-0.453 1-1 1z"></path>
<path d="M21.333 29.2h-13.333c-3.493 0-6.333-2.84-6.333-6.333v-9.333c0-3.493 2.84-6.333 6.333-6.333h13.333c3.493 0 6.333 2.84 6.333 6.333v1.933c0 0.547-0.453 1-1 1h-1.44c-0.467 0-0.893 0.173-1.2 0.493l-0.013 0.013c-0.44 0.44-0.613 1.053-0.453 1.653 0.2 0.747 0.987 1.293 1.867 1.293h1.24c0.547 0 1 0.453 1 1v1.933c0 3.507-2.84 6.347-6.333 6.347zM8 9.2c-2.387 0-4.333 1.947-4.333 4.333v9.333c0 2.387 1.947 4.333 4.333 4.333h13.333c2.387 0 4.333-1.947 4.333-4.333v-0.933h-0.24c-1.8 0-3.36-1.133-3.8-2.773-0.347-1.293 0.027-2.667 0.973-3.6 0.693-0.707 1.627-1.093 2.627-1.093h0.44v-0.933c0-2.387-1.947-4.333-4.333-4.333h-13.333z"></path>
<path d="M27.96 21.933h-2.573c-2.013 0-3.72-1.493-3.88-3.413-0.107-1.107 0.293-2.187 1.093-2.973 0.667-0.693 1.613-1.080 2.613-1.080h2.733c1.307 0 2.373 1.053 2.373 2.36v2.747c0.013 1.307-1.053 2.36-2.36 2.36zM25.227 16.467c-0.467 0-0.893 0.173-1.2 0.493-0.387 0.373-0.573 0.88-0.52 1.387 0.067 0.88 0.92 1.587 1.88 1.587h2.573c0.2 0 0.373-0.16 0.373-0.36v-2.747c0-0.2-0.173-0.36-0.373-0.36h-2.733z"></path>
</svg>
