<!-- Generated by IcoMoon.io -->
<svg version="1.1" xmlns="http://www.w3.org/2000/svg" width="32" height="32" viewBox="0 0 32 32">
<title>wallet-2</title>
<path d="M17.333 13h-8c-0.547 0-1-0.453-1-1s0.453-1 1-1h8c0.547 0 1 0.453 1 1s-0.453 1-1 1z"></path>
<path d="M25.387 19.734c-2.013 0-3.72-1.493-3.88-3.413-0.107-1.107 0.293-2.187 1.093-2.973 0.667-0.693 1.613-1.080 2.613-1.080h2.787c1.32 0.040 2.333 1.080 2.333 2.36v2.747c0 1.28-1.013 2.32-2.293 2.36h-2.653zM27.96 14.267h-2.733c-0.467 0-0.893 0.173-1.2 0.493-0.387 0.373-0.573 0.88-0.52 1.387 0.067 0.88 0.92 1.587 1.88 1.587h2.613c0.173 0 0.333-0.16 0.333-0.36v-2.747c0-0.2-0.16-0.347-0.373-0.36z"></path>
<path d="M21.333 28.333h-12c-4.587 0-7.667-3.080-7.667-7.667v-9.333c0-4.107 2.533-7.080 6.467-7.573 0.36-0.053 0.773-0.093 1.2-0.093h12c0.32 0 0.733 0.013 1.16 0.080 3.933 0.453 6.507 3.44 6.507 7.587v1.933c0 0.547-0.453 1-1 1h-2.773c-0.467 0-0.893 0.173-1.2 0.493l-0.013 0.013c-0.373 0.36-0.547 0.853-0.507 1.36 0.067 0.88 0.92 1.587 1.88 1.587h2.613c0.547 0 1 0.453 1 1v1.933c0 4.6-3.080 7.68-7.667 7.68zM9.333 5.667c-0.32 0-0.627 0.027-0.933 0.067-2.933 0.373-4.733 2.507-4.733 5.6v9.333c0 3.44 2.227 5.667 5.667 5.667h12c3.44 0 5.667-2.227 5.667-5.667v-0.933h-1.613c-2.013 0-3.72-1.493-3.88-3.413-0.107-1.093 0.293-2.187 1.093-2.96 0.693-0.707 1.627-1.093 2.627-1.093h1.773v-0.933c0-3.12-1.827-5.267-4.787-5.613-0.32-0.053-0.6-0.053-0.88-0.053h-12z"></path>
</svg>
