<!-- Generated by IcoMoon.io -->
<svg version="1.1" xmlns="http://www.w3.org/2000/svg" width="32" height="32" viewBox="0 0 32 32">
<title>wallet-money</title>
<path d="M9.56 30.333c-3.173 0-5.773-2.307-5.773-5.147v-2.72c0-0.547 0.453-1 1-1s1 0.453 1 1c0 1.667 1.613 2.92 3.773 2.92s3.773-1.253 3.773-2.92c0-0.547 0.453-1 1-1s1 0.453 1 1v2.72c0 2.84-2.587 5.147-5.773 5.147zM6.133 26.493c0.587 1.093 1.907 1.84 3.427 1.84s2.84-0.76 3.427-1.84c-0.947 0.573-2.12 0.907-3.427 0.907s-2.48-0.333-3.427-0.907z"></path>
<path d="M9.56 23.733c-2.187 0-4.147-1-5.12-2.587-0.427-0.693-0.653-1.507-0.653-2.333 0-1.4 0.613-2.707 1.733-3.68 2.16-1.893 5.88-1.893 8.053-0.013 1.12 0.987 1.747 2.293 1.747 3.693 0 0.827-0.227 1.64-0.653 2.333-0.96 1.587-2.92 2.587-5.107 2.587zM9.56 15.667c-1.040 0-2 0.347-2.72 0.973-0.68 0.587-1.053 1.36-1.053 2.173 0 0.467 0.12 0.893 0.36 1.293 0.613 1.013 1.92 1.64 3.413 1.64s2.8-0.627 3.4-1.627c0.24-0.387 0.36-0.827 0.36-1.293 0-0.813-0.373-1.587-1.053-2.187-0.707-0.627-1.667-0.973-2.707-0.973z"></path>
<path d="M9.56 27.4c-3.293 0-5.773-2.12-5.773-4.92v-3.667c0-2.84 2.587-5.147 5.773-5.147 1.507 0 2.947 0.52 4.027 1.453 1.12 0.987 1.747 2.293 1.747 3.693v3.667c0 2.8-2.48 4.92-5.773 4.92zM9.56 15.667c-2.080 0-3.773 1.413-3.773 3.147v3.667c0 1.667 1.613 2.92 3.773 2.92s3.773-1.253 3.773-2.92v-3.667c0-0.813-0.373-1.587-1.053-2.187-0.72-0.613-1.68-0.96-2.72-0.96z"></path>
<path d="M25.387 19.734c-2.013 0-3.72-1.493-3.88-3.413-0.107-1.107 0.293-2.187 1.093-2.973 0.667-0.693 1.613-1.080 2.613-1.080h2.787c1.32 0.040 2.333 1.080 2.333 2.36v2.747c0 1.28-1.013 2.32-2.293 2.36h-2.653zM27.96 14.267h-2.733c-0.467 0-0.893 0.173-1.2 0.493-0.387 0.373-0.573 0.88-0.52 1.387 0.067 0.88 0.92 1.587 1.88 1.587h2.613c0.173 0 0.333-0.16 0.333-0.36v-2.747c0-0.2-0.16-0.347-0.373-0.36z"></path>
<path d="M21.334 28.333h-3.333c-0.547 0-1-0.453-1-1s0.453-1 1-1h3.333c3.44 0 5.667-2.227 5.667-5.667v-0.933h-1.613c-2.013 0-3.72-1.493-3.88-3.413-0.107-1.107 0.293-2.187 1.093-2.973 0.667-0.693 1.613-1.080 2.613-1.080h1.773v-0.933c0-3.12-1.827-5.267-4.787-5.613-0.32-0.053-0.6-0.053-0.88-0.053h-12c-0.32 0-0.627 0.027-0.933 0.067-2.933 0.373-4.733 2.507-4.733 5.6v2.667c0 0.547-0.453 1-1 1s-1-0.453-1-1v-2.667c0-4.107 2.533-7.080 6.467-7.573 0.36-0.053 0.773-0.093 1.2-0.093h12c0.32 0 0.733 0.013 1.16 0.080 3.933 0.453 6.507 3.44 6.507 7.587v1.933c0 0.547-0.453 1-1 1h-2.773c-0.467 0-0.893 0.173-1.2 0.493-0.387 0.373-0.573 0.88-0.52 1.387 0.067 0.88 0.92 1.587 1.88 1.587h2.627c0.547 0 1 0.453 1 1v1.933c0 4.587-3.080 7.667-7.667 7.667z"></path>
</svg>
