<!-- Generated by IcoMoon.io -->
<svg version="1.1" xmlns="http://www.w3.org/2000/svg" width="32" height="32" viewBox="0 0 32 32">
<title>wallet-1</title>
<path d="M22.667 30.333h-13.333c-4.587 0-7.667-3.080-7.667-7.667v-6.667c0-4.107 2.533-7.080 6.467-7.573 0.373-0.053 0.787-0.093 1.2-0.093h13.333c0.32 0 0.733 0.013 1.16 0.080 3.933 0.453 6.507 3.44 6.507 7.587v6.667c0 4.587-3.080 7.667-7.667 7.667zM9.333 10.333c-0.32 0-0.627 0.027-0.933 0.067-2.933 0.373-4.733 2.507-4.733 5.6v6.667c0 3.44 2.227 5.667 5.667 5.667h13.333c3.44 0 5.667-2.227 5.667-5.667v-6.667c0-3.12-1.827-5.267-4.787-5.613-0.32-0.053-0.6-0.053-0.88-0.053h-13.333z"></path>
<path d="M8.253 10.413c-0.32 0-0.613-0.147-0.813-0.413-0.227-0.307-0.253-0.707-0.080-1.040 0.227-0.453 0.547-0.893 0.96-1.293l4.333-4.347c2.213-2.2 5.813-2.2 8.027 0l2.333 2.36c0.987 0.973 1.587 2.28 1.653 3.667 0.013 0.307-0.107 0.6-0.333 0.8s-0.533 0.293-0.827 0.24c-0.267-0.040-0.547-0.053-0.84-0.053h-13.333c-0.32 0-0.627 0.027-0.933 0.067-0.040 0.013-0.093 0.013-0.147 0.013zM10.48 8.333h11.947c-0.173-0.453-0.453-0.867-0.827-1.24l-2.347-2.373c-1.427-1.413-3.76-1.413-5.2 0l-3.573 3.613z"></path>
<path d="M29.333 23h-4c-2.027 0-3.667-1.64-3.667-3.667s1.64-3.667 3.667-3.667h4c0.547 0 1 0.453 1 1s-0.453 1-1 1h-4c-0.92 0-1.667 0.747-1.667 1.667s0.747 1.667 1.667 1.667h4c0.547 0 1 0.453 1 1s-0.453 1-1 1z"></path>
</svg>
