<!-- Generated by IcoMoon.io -->
<svg version="1.1" xmlns="http://www.w3.org/2000/svg" width="32" height="32" viewBox="0 0 32 32">
<title>wallet-remove</title>
<path d="M22.667 30.333h-12.493c-0.427 0-0.8-0.267-0.947-0.653s-0.027-0.84 0.293-1.107c0.32-0.267 0.613-0.613 0.827-0.987 0.427-0.68 0.64-1.453 0.64-2.24 0-2.387-1.947-4.333-4.333-4.333-1.24 0-2.427 0.533-3.253 1.48-0.28 0.307-0.72 0.427-1.107 0.28s-0.653-0.52-0.653-0.933v-5.84c0-4.107 2.533-7.080 6.467-7.573 0.36-0.053 0.773-0.093 1.2-0.093h13.333c0.32 0 0.733 0.013 1.16 0.080 3.933 0.453 6.507 3.44 6.507 7.587v6.667c0.027 4.587-3.053 7.667-7.64 7.667zM12.241 28.333h10.427c3.44 0 5.667-2.227 5.667-5.667v-6.667c0-3.12-1.827-5.267-4.787-5.613-0.32-0.053-0.6-0.053-0.88-0.053h-13.333c-0.32 0-0.627 0.027-0.933 0.067-2.933 0.373-4.733 2.507-4.733 5.6v3.76c0.907-0.493 1.947-0.76 3-0.76 3.493 0 6.333 2.84 6.333 6.333 0 1.053-0.267 2.093-0.76 3z"></path>
<path d="M8.253 10.413c-0.32 0-0.613-0.147-0.813-0.413-0.227-0.307-0.253-0.707-0.080-1.040 0.227-0.453 0.547-0.893 0.96-1.293l4.333-4.347c2.213-2.2 5.813-2.2 8.027 0l2.333 2.373c0.987 0.973 1.587 2.28 1.653 3.667 0.013 0.307-0.107 0.6-0.333 0.8s-0.533 0.293-0.827 0.24c-0.267-0.040-0.547-0.053-0.84-0.053h-13.333c-0.32 0-0.627 0.027-0.933 0.067-0.040 0-0.093 0-0.147 0zM10.48 8.333h11.947c-0.173-0.453-0.453-0.867-0.827-1.24l-2.347-2.373c-1.427-1.413-3.76-1.413-5.2 0l-3.573 3.613z"></path>
<path d="M29.333 23h-4c-2.027 0-3.667-1.64-3.667-3.667s1.64-3.667 3.667-3.667h4c0.547 0 1 0.453 1 1s-0.453 1-1 1h-4c-0.92 0-1.667 0.747-1.667 1.667s0.747 1.667 1.667 1.667h4c0.547 0 1 0.453 1 1s-0.453 1-1 1z"></path>
<path d="M6.667 31.667c-2.213 0-4.293-1.173-5.413-3.080-0.6-0.96-0.92-2.093-0.92-3.253 0-1.533 0.56-3.013 1.587-4.173 1.2-1.373 2.933-2.16 4.747-2.16 3.493 0 6.333 2.84 6.333 6.333 0 1.16-0.32 2.293-0.92 3.267-0.333 0.56-0.76 1.067-1.267 1.493-1.107 1.013-2.587 1.573-4.147 1.573zM6.667 21c-1.24 0-2.427 0.533-3.253 1.48-0.693 0.8-1.080 1.813-1.080 2.853 0 0.787 0.213 1.56 0.627 2.227 0.773 1.307 2.2 2.107 3.707 2.107 1.053 0 2.067-0.387 2.84-1.080 0.347-0.293 0.64-0.64 0.853-1.013 0.427-0.68 0.64-1.453 0.64-2.24 0-2.387-1.947-4.333-4.333-4.333z"></path>
<path d="M8.094 27.72c-0.253 0-0.507-0.093-0.707-0.293l-2.813-2.813c-0.387-0.387-0.387-1.027 0-1.413s1.027-0.387 1.413 0l2.813 2.813c0.387 0.387 0.387 1.027 0 1.413-0.2 0.2-0.453 0.293-0.707 0.293z"></path>
<path d="M5.241 27.76c-0.253 0-0.507-0.093-0.707-0.293-0.387-0.387-0.387-1.027 0-1.413l2.813-2.813c0.387-0.387 1.027-0.387 1.413 0s0.387 1.027 0 1.413l-2.813 2.813c-0.2 0.2-0.453 0.293-0.707 0.293z"></path>
</svg>
