<!-- Generated by IcoMoon.io -->
<svg version="1.1" xmlns="http://www.w3.org/2000/svg" width="32" height="32" viewBox="0 0 32 32">
<title>wallet-search</title>
<path d="M22.667 30.333h-6.667c-0.547 0-1-0.453-1-1s0.453-1 1-1h6.667c3.44 0 5.667-2.227 5.667-5.667v-6.667c0-3.053-1.893-5.333-4.72-5.667h-14.28c-0.373 0-0.507 0-0.747 0.080-0.067 0.027-0.133 0.040-0.2 0.040-2.947 0.347-4.72 2.413-4.72 5.547v1.333c0 0.547-0.453 1-1 1s-1-0.453-1-1v-1.333c0-4.080 2.507-7.027 6.387-7.52 0.507-0.147 0.88-0.147 1.28-0.147h14.4c4 0.467 6.6 3.547 6.6 7.667v6.667c0 4.587-3.080 7.667-7.667 7.667z"></path>
<path d="M8.266 10.467c-0.267 0-0.52-0.107-0.707-0.293-0.267-0.267-0.36-0.667-0.24-1.027 0.213-0.627 0.6-1.013 1.040-1.453l4.253-4.387c2.2-2.2 5.907-2.2 8.093-0.013l2.4 2.4c0.88 0.88 1.44 2.093 1.613 3.52 0.040 0.28-0.053 0.573-0.24 0.787s-0.467 0.333-0.747 0.333h-14.4c-0.373 0-0.507 0-0.747 0.080-0.107 0.040-0.213 0.053-0.32 0.053zM10.52 8.333h11.947c-0.16-0.427-0.413-0.853-0.773-1.227l-2.4-2.4c-1.427-1.427-3.827-1.427-5.253 0l-3.52 3.627z"></path>
<path d="M29.333 23h-4c-2.027 0-3.667-1.64-3.667-3.667s1.64-3.667 3.667-3.667h4c0.547 0 1 0.453 1 1s-0.453 1-1 1h-4c-0.92 0-1.667 0.747-1.667 1.667s0.747 1.667 1.667 1.667h4c0.547 0 1 0.453 1 1s-0.453 1-1 1z"></path>
<path d="M7.733 29.533c-2.907 0-5.267-2.36-5.267-5.267s2.36-5.267 5.267-5.267c2.907 0 5.267 2.36 5.267 5.267s-2.36 5.267-5.267 5.267zM7.733 21c-1.8 0-3.267 1.467-3.267 3.267s1.467 3.267 3.267 3.267c1.8 0 3.267-1.467 3.267-3.267s-1.467-3.267-3.267-3.267z"></path>
<path d="M2.666 30.333c-0.253 0-0.507-0.093-0.707-0.293-0.387-0.387-0.387-1.027 0-1.413l1.333-1.333c0.387-0.387 1.027-0.387 1.413 0s0.387 1.027 0 1.413l-1.333 1.333c-0.2 0.2-0.453 0.293-0.707 0.293z"></path>
</svg>
