<!-- Generated by IcoMoon.io -->
<svg version="1.1" xmlns="http://www.w3.org/2000/svg" width="32" height="32" viewBox="0 0 32 32">
<title>wallet-add-1</title>
<path d="M19.333 21.587h-6.667c-0.547 0-1-0.453-1-1s0.453-1 1-1h6.667c0.547 0 1 0.453 1 1s-0.453 1-1 1z"></path>
<path d="M16 25c-0.547 0-1-0.453-1-1v-6.667c0-0.547 0.453-1 1-1s1 0.453 1 1v6.667c0 0.547-0.453 1-1 1z"></path>
<path d="M6.933 13.947c-0.253 0-0.507-0.107-0.707-0.293-0.28-0.28-0.373-0.72-0.213-1.093l2.48-5.92c0.053-0.12 0.080-0.2 0.12-0.267 1.973-4.547 4.493-5.653 8.947-3.947 0.253 0.093 0.453 0.293 0.56 0.547s0.107 0.533 0 0.787l-3.907 9.067c-0.16 0.36-0.52 0.6-0.92 0.6h-3.8c-0.76 0-1.48 0.147-2.173 0.44-0.12 0.053-0.253 0.080-0.387 0.080zM14.146 3.667c-1.653 0-2.667 1.080-3.72 3.533-0.013 0.040-0.040 0.080-0.053 0.12l-1.747 4.147c0.293-0.027 0.573-0.040 0.867-0.040h3.133l3.213-7.467c-0.627-0.2-1.187-0.293-1.693-0.293z"></path>
<path d="M24.387 13.693c-0.093 0-0.2-0.013-0.293-0.040-0.493-0.147-1.040-0.227-1.6-0.227h-9.2c-0.333 0-0.653-0.173-0.84-0.453-0.173-0.28-0.213-0.64-0.080-0.947l3.867-8.973c0.2-0.48 0.787-0.8 1.28-0.64 0.16 0.053 0.307 0.12 0.467 0.187l3.147 1.32c1.84 0.76 3.067 1.56 3.867 2.52 0.16 0.187 0.293 0.387 0.413 0.587 0.147 0.227 0.28 0.507 0.373 0.787 0.040 0.093 0.107 0.267 0.147 0.453 0.373 1.253 0.187 2.813-0.613 4.813-0.16 0.373-0.533 0.613-0.933 0.613zM14.814 11.427h7.693c0.427 0 0.84 0.040 1.253 0.107 0.373-1.16 0.453-2.053 0.24-2.773-0.027-0.12-0.053-0.173-0.067-0.227-0.080-0.213-0.133-0.333-0.2-0.44-0.093-0.147-0.16-0.267-0.267-0.387-0.573-0.693-1.587-1.333-3.093-1.947l-2.64-1.107-2.92 6.773z"></path>
<path d="M21.2 30.333h-10.4c-0.373 0-0.72-0.027-1.067-0.067-4.68-0.32-7.347-2.987-7.667-7.72-0.040-0.293-0.067-0.653-0.067-1.013v-2.6c0-3 1.787-5.707 4.547-6.907 0.933-0.4 1.933-0.6 2.96-0.6h13.013c0.76 0 1.493 0.107 2.173 0.32 3.133 0.947 5.333 3.907 5.333 7.187v2.6c0 0.293-0.013 0.573-0.027 0.84-0.293 5.213-3.333 7.96-8.8 7.96zM9.493 13.426c-0.76 0-1.48 0.147-2.173 0.44-2.027 0.88-3.333 2.867-3.333 5.067v2.6c0 0.28 0.027 0.56 0.053 0.827 0.253 3.8 2.12 5.667 5.867 5.92 0.333 0.040 0.6 0.067 0.88 0.067h10.4c4.4 0 6.56-1.933 6.773-6.067 0.013-0.24 0.027-0.48 0.027-0.747v-2.6c0-2.413-1.613-4.573-3.907-5.28-0.493-0.147-1.040-0.227-1.6-0.227h-12.987z"></path>
<path d="M2.987 19.933c-0.547 0-1-0.453-1-1v-3.907c0-4.2 2.973-7.827 7.080-8.627 0.36-0.067 0.733 0.067 0.973 0.347 0.227 0.28 0.293 0.68 0.147 1.013l-2.333 5.573c-0.107 0.24-0.293 0.427-0.52 0.533-2.027 0.88-3.333 2.867-3.333 5.067-0.013 0.547-0.453 1-1.013 1zM7.467 9.093c-1.707 0.96-2.947 2.64-3.333 4.6 0.587-0.6 1.267-1.107 2.040-1.48l1.293-3.12z"></path>
<path d="M29.012 19.933c-0.547 0-1-0.453-1-1 0-2.413-1.613-4.573-3.907-5.28-0.267-0.080-0.493-0.267-0.613-0.52s-0.133-0.547-0.027-0.8c0.627-1.56 0.787-2.693 0.533-3.573-0.027-0.12-0.053-0.173-0.067-0.227-0.173-0.387-0.080-0.84 0.227-1.133s0.773-0.36 1.147-0.16c2.907 1.52 4.707 4.507 4.707 7.787v3.907c0 0.547-0.453 1-1 1zM25.666 12.12c0.84 0.387 1.587 0.933 2.213 1.587-0.253-1.307-0.88-2.493-1.8-3.427-0.067 0.56-0.2 1.173-0.413 1.84z"></path>
</svg>
