<!-- Generated by IcoMoon.io -->
<svg version="1.1" xmlns="http://www.w3.org/2000/svg" width="32" height="32" viewBox="0 0 32 32">
<title>warning-2</title>
<path d="M16 18.333c-0.547 0-1-0.453-1-1v-7c0-0.547 0.453-1 1-1s1 0.453 1 1v7c0 0.547-0.453 1-1 1z"></path>
<path d="M16 23c-0.36 0-0.693-0.133-0.947-0.387-0.12-0.133-0.213-0.28-0.293-0.44-0.067-0.16-0.093-0.333-0.093-0.507 0-0.347 0.147-0.693 0.387-0.947 0.493-0.493 1.4-0.493 1.893 0 0.24 0.253 0.387 0.6 0.387 0.947 0 0.173-0.040 0.347-0.107 0.507s-0.16 0.307-0.28 0.44c-0.253 0.253-0.587 0.387-0.947 0.387z"></path>
<path d="M16 30.333c-0.893 0-1.8-0.227-2.6-0.693l-7.92-4.573c-1.6-0.933-2.6-2.653-2.6-4.507v-9.12c0-1.853 1-3.573 2.6-4.507l7.92-4.573c1.6-0.933 3.587-0.933 5.2 0l7.92 4.573c1.6 0.933 2.6 2.653 2.6 4.507v9.12c0 1.853-1 3.573-2.6 4.507l-7.92 4.573c-0.8 0.467-1.707 0.693-2.6 0.693zM16 3.667c-0.547 0-1.107 0.147-1.6 0.427l-7.92 4.573c-0.987 0.573-1.6 1.627-1.6 2.773v9.12c0 1.133 0.613 2.2 1.6 2.773l7.92 4.573c0.987 0.573 2.213 0.573 3.187 0l7.92-4.573c0.987-0.573 1.6-1.627 1.6-2.773v-9.12c0-1.133-0.613-2.2-1.6-2.773l-7.92-4.573c-0.48-0.28-1.040-0.427-1.587-0.427z"></path>
</svg>
