<!-- Generated by IcoMoon.io -->
<svg version="1.1" xmlns="http://www.w3.org/2000/svg" width="32" height="32" viewBox="0 0 32 32">
<title>watch</title>
<path d="M20.667 26.333h-9.333c-3.653 0-5.667-2.013-5.667-5.667v-9.333c0-3.653 2.013-5.667 5.667-5.667h9.333c3.653 0 5.667 2.013 5.667 5.667v9.333c0 3.653-2.013 5.667-5.667 5.667zM11.333 7.667c-2.573 0-3.667 1.093-3.667 3.667v9.333c0 2.573 1.093 3.667 3.667 3.667h9.333c2.573 0 3.667-1.093 3.667-3.667v-9.333c0-2.573-1.093-3.667-3.667-3.667h-9.333z"></path>
<path d="M21.333 3.667h-10.667c-0.547 0-1-0.453-1-1s0.453-1 1-1h10.667c0.547 0 1 0.453 1 1s-0.453 1-1 1z"></path>
<path d="M21.333 30.333h-10.667c-0.547 0-1-0.453-1-1s0.453-1 1-1h10.667c0.547 0 1 0.453 1 1s-0.453 1-1 1z"></path>
<path d="M19.333 17.667h-4c-0.547 0-1-0.453-1-1v-4c0-0.547 0.453-1 1-1s1 0.453 1 1v3h3c0.547 0 1 0.453 1 1s-0.453 1-1 1z"></path>
</svg>
