<!-- Generated by IcoMoon.io -->
<svg version="1.1" xmlns="http://www.w3.org/2000/svg" width="32" height="32" viewBox="0 0 32 32">
<title>weight</title>
<path d="M18.667 30.333h-5.333c-7.24 0-10.333-3.093-10.333-10.333v-8c0-7.24 3.093-10.333 10.333-10.333h5.333c7.24 0 10.333 3.093 10.333 10.333v8c0 7.24-3.093 10.333-10.333 10.333zM13.333 3.667c-6.147 0-8.333 2.187-8.333 8.333v8c0 6.147 2.187 8.333 8.333 8.333h5.333c6.147 0 8.333-2.187 8.333-8.333v-8c0-6.147-2.187-8.333-8.333-8.333h-5.333z"></path>
<path d="M20.093 16.72c-0.24 0-0.48-0.093-0.667-0.253-1.947-1.733-4.907-1.733-6.853 0-0.213 0.2-0.507 0.28-0.813 0.24-0.293-0.040-0.547-0.213-0.707-0.467l-2.907-4.667c-0.253-0.413-0.173-0.947 0.187-1.28 4.373-3.88 10.96-3.88 15.333 0 0.36 0.32 0.44 0.867 0.187 1.28l-2.907 4.667c-0.16 0.253-0.413 0.413-0.707 0.467-0.053 0-0.107 0.013-0.147 0.013zM15.999 13.16c1.333 0 2.653 0.373 3.813 1.107l1.867-3c-3.373-2.507-8-2.507-11.373 0l1.867 3c1.173-0.747 2.493-1.107 3.827-1.107z"></path>
</svg>
