<!-- Generated by IcoMoon.io -->
<svg version="1.1" xmlns="http://www.w3.org/2000/svg" width="32" height="32" viewBox="0 0 32 32">
<title>weight-1</title>
<path d="M22.906 25c-2.28 0-5-0.867-5-5v-8c0-4.133 2.72-5 5-5s5 0.867 5 5v8c0 4.133-2.72 5-5 5zM22.906 9c-2.16 0-3 0.84-3 3v8c0 2.16 0.84 3 3 3s3-0.84 3-3v-8c0-2.16-0.84-3-3-3z"></path>
<path d="M9.094 25c-2.28 0-5-0.867-5-5v-8c0-4.133 2.72-5 5-5s5 0.867 5 5v8c0 4.133-2.72 5-5 5zM9.094 9c-2.16 0-3 0.84-3 3v8c0 2.16 0.84 3 3 3s3-0.84 3-3v-8c0-2.16-0.84-3-3-3z"></path>
<path d="M18.907 17h-5.813c-0.547 0-1-0.453-1-1s0.453-1 1-1h5.813c0.547 0 1 0.453 1 1s-0.44 1-1 1z"></path>
<path d="M30 20.333c-0.547 0-1-0.453-1-1v-6.667c0-0.547 0.453-1 1-1s1 0.453 1 1v6.667c0 0.547-0.453 1-1 1z"></path>
<path d="M2 20.333c-0.547 0-1-0.453-1-1v-6.667c0-0.547 0.453-1 1-1s1 0.453 1 1v6.667c0 0.547-0.453 1-1 1z"></path>
</svg>
