<!-- Generated by IcoMoon.io -->
<svg version="1.1" xmlns="http://www.w3.org/2000/svg" width="32" height="32" viewBox="0 0 32 32">
<title>wifi-square</title>
<path d="M24.001 14.28c-0.213 0-0.427-0.067-0.613-0.213-4.493-3.467-10.293-3.467-14.773 0-0.44 0.333-1.067 0.253-1.4-0.173-0.333-0.44-0.253-1.067 0.173-1.4 5.227-4.040 11.987-4.040 17.227 0 0.44 0.333 0.52 0.96 0.173 1.4-0.187 0.253-0.493 0.387-0.787 0.387z"></path>
<path d="M21.867 18.4c-0.213 0-0.427-0.067-0.613-0.213-3.2-2.467-7.32-2.467-10.52 0-0.44 0.333-1.067 0.253-1.4-0.173-0.333-0.44-0.253-1.067 0.173-1.4 3.933-3.040 9.027-3.040 12.96 0 0.44 0.333 0.52 0.96 0.173 1.4-0.173 0.253-0.467 0.387-0.773 0.387z"></path>
<path d="M18.933 22.52c-0.213 0-0.427-0.067-0.613-0.213-1.413-1.093-3.24-1.093-4.653 0-0.44 0.333-1.067 0.253-1.4-0.173-0.333-0.44-0.253-1.067 0.173-1.4 2.12-1.64 4.973-1.64 7.093 0 0.44 0.333 0.52 0.96 0.173 1.4-0.173 0.253-0.467 0.387-0.773 0.387z"></path>
<path d="M20 30.333h-8c-7.24 0-10.333-3.093-10.333-10.333v-8c0-7.24 3.093-10.333 10.333-10.333h8c7.24 0 10.333 3.093 10.333 10.333v8c0 7.24-3.093 10.333-10.333 10.333zM12 3.667c-6.147 0-8.333 2.187-8.333 8.333v8c0 6.147 2.187 8.333 8.333 8.333h8c6.147 0 8.333-2.187 8.333-8.333v-8c0-6.147-2.187-8.333-8.333-8.333h-8z"></path>
</svg>
