<!-- Generated by IcoMoon.io -->
<svg version="1.1" xmlns="http://www.w3.org/2000/svg" width="32" height="32" viewBox="0 0 32 32">
<title>wifi</title>
<path d="M25.455 16.787c-0.213 0-0.427-0.067-0.613-0.213-5.373-4.147-12.32-4.147-17.693 0-0.44 0.333-1.067 0.253-1.4-0.173-0.333-0.44-0.253-1.067 0.173-1.4 6.12-4.733 14.027-4.733 20.133 0 0.44 0.333 0.52 0.96 0.173 1.4-0.173 0.253-0.467 0.387-0.773 0.387z"></path>
<path d="M29.334 12.147c-0.213 0-0.427-0.067-0.613-0.213-7.733-5.973-17.72-5.973-25.44 0-0.44 0.333-1.067 0.253-1.4-0.173-0.333-0.44-0.253-1.067 0.173-1.4 8.467-6.547 19.413-6.547 27.893 0 0.44 0.333 0.52 0.96 0.173 1.4-0.187 0.253-0.493 0.387-0.787 0.387z"></path>
<path d="M22.946 21.653c-0.213 0-0.427-0.067-0.613-0.213-3.84-2.973-8.813-2.973-12.667 0-0.44 0.333-1.067 0.253-1.4-0.173-0.333-0.44-0.253-1.067 0.173-1.4 4.587-3.547 10.52-3.547 15.107 0 0.44 0.333 0.52 0.96 0.173 1.4-0.187 0.253-0.48 0.387-0.773 0.387z"></path>
<path d="M19.466 26.533c-0.213 0-0.427-0.067-0.613-0.213-1.733-1.347-3.987-1.347-5.72 0-0.44 0.333-1.067 0.253-1.4-0.173-0.333-0.44-0.253-1.067 0.173-1.4 2.48-1.92 5.68-1.92 8.16 0 0.44 0.333 0.52 0.96 0.173 1.4-0.173 0.24-0.467 0.387-0.773 0.387z"></path>
</svg>
