<!-- Generated by IcoMoon.io -->
<svg version="1.1" xmlns="http://www.w3.org/2000/svg" width="32" height="32" viewBox="0 0 32 32">
<title>wind-2</title>
<path d="M29.333 18.467c-0.173 0-0.347-0.040-0.507-0.147l-3.333-2c-1.733-1.040-3.893-1.040-5.64 0-2.373 1.427-5.32 1.427-7.693 0-1.733-1.040-3.893-1.040-5.64 0l-3.333 2c-0.48 0.28-1.093 0.133-1.373-0.347s-0.133-1.093 0.347-1.373l3.333-2c2.373-1.427 5.32-1.427 7.693 0 1.733 1.040 3.893 1.040 5.64 0 2.373-1.427 5.32-1.427 7.693 0l3.333 2c0.48 0.28 0.627 0.893 0.347 1.373-0.2 0.32-0.533 0.493-0.867 0.493z"></path>
<path d="M9.334 9.133c-1.333 0-2.667-0.36-3.853-1.067l-3.333-2c-0.48-0.28-0.627-0.893-0.347-1.373 0.28-0.467 0.893-0.627 1.373-0.347l3.333 2c1.733 1.040 3.893 1.040 5.64 0 2.373-1.427 5.32-1.427 7.693 0 1.733 1.040 3.893 1.040 5.64 0l3.333-2c0.48-0.28 1.093-0.133 1.373 0.347 0.28 0.467 0.133 1.093-0.347 1.373l-3.333 2c-2.373 1.427-5.32 1.427-7.693 0-1.733-1.040-3.893-1.040-5.64 0-1.173 0.707-2.507 1.067-3.84 1.067z"></path>
<path d="M29.333 27.8c-0.173 0-0.347-0.040-0.507-0.147l-3.333-2c-1.733-1.040-3.893-1.040-5.64 0-2.373 1.427-5.32 1.427-7.693 0-1.733-1.040-3.893-1.040-5.64 0l-3.333 2c-0.48 0.28-1.093 0.133-1.373-0.347s-0.133-1.093 0.347-1.373l3.333-2c2.373-1.427 5.32-1.427 7.693 0 1.733 1.040 3.893 1.040 5.64 0 2.373-1.427 5.32-1.427 7.693 0l3.333 2c0.48 0.28 0.627 0.893 0.347 1.373-0.2 0.32-0.533 0.493-0.867 0.493z"></path>
</svg>
