<!-- Generated by IcoMoon.io -->
<svg version="1.1" xmlns="http://www.w3.org/2000/svg" width="32" height="32" viewBox="0 0 32 32">
<title>wind</title>
<path d="M24.667 30.333c-3.12 0-5.667-2.547-5.667-5.667v-0.667c0-0.547 0.453-1 1-1s1 0.453 1 1v0.667c0 2.027 1.64 3.667 3.667 3.667s3.667-1.64 3.667-3.667c0-2.027-1.64-3.667-3.667-3.667h-22c-0.547 0-1-0.453-1-1s0.453-1 1-1h22c3.12 0 5.667 2.547 5.667 5.667s-2.547 5.667-5.667 5.667z"></path>
<path d="M24.667 17h-22c-0.547 0-1-0.453-1-1s0.453-1 1-1h22c2.027 0 3.667-1.64 3.667-3.667s-1.64-3.667-3.667-3.667c-2.027 0-3.667 1.64-3.667 3.667v0.667c0 0.547-0.453 1-1 1s-1-0.453-1-1v-0.667c0-3.12 2.547-5.667 5.667-5.667s5.667 2.547 5.667 5.667c0 3.12-2.547 5.667-5.667 5.667z"></path>
<path d="M12.413 13h-9.747c-0.547 0-1-0.453-1-1s0.453-1 1-1h9.747c1.427 0 2.587-1.16 2.587-2.587s-1.16-2.587-2.587-2.587c-1.427 0-2.587 1.16-2.587 2.587v0.507c0 0.547-0.453 1-1 1s-1-0.453-1-1v-0.507c0-2.533 2.053-4.587 4.587-4.587s4.587 2.053 4.587 4.587c0 2.533-2.053 4.587-4.587 4.587z"></path>
</svg>
