<!-- Generated by IcoMoon.io -->
<svg version="1.1" xmlns="http://www.w3.org/2000/svg" width="32" height="32" viewBox="0 0 32 32">
<title>woman</title>
<path d="M16 22.333c-5.693 0-10.333-4.64-10.333-10.333s4.64-10.333 10.333-10.333c5.693 0 10.333 4.64 10.333 10.333s-4.64 10.333-10.333 10.333zM16 3.667c-4.6 0-8.333 3.733-8.333 8.333s3.733 8.333 8.333 8.333c4.6 0 8.333-3.733 8.333-8.333s-3.733-8.333-8.333-8.333z"></path>
<path d="M16 30.333c-0.547 0-1-0.453-1-1v-8c0-0.547 0.453-1 1-1s1 0.453 1 1v8c0 0.547-0.453 1-1 1z"></path>
<path d="M20 26.333h-8c-0.547 0-1-0.453-1-1s0.453-1 1-1h8c0.547 0 1 0.453 1 1s-0.453 1-1 1z"></path>
</svg>
