<svg width="50" height="52" viewBox="0 0 50 52" fill="none" xmlns="http://www.w3.org/2000/svg">
<path d="M13.1814 43.4429C7.04852 40.4479 2.99445 34.3504 2.99445 27.5298C2.99445 23.6591 4.50399 17.7136 6.74399 14.6612V17.8387C6.74399 18.4571 7.24542 18.9587 7.86399 18.9587C8.48246 18.9587 8.98399 18.4571 8.98399 17.8387V10.656H1.77466C1.15609 10.656 0.654663 11.1575 0.654663 11.776C0.654663 12.3946 1.15609 12.896 1.77466 12.896H5.35407C2.53492 16.368 0.774615 22.993 0.774615 27.5517C0.774615 31.3584 2.07538 35.0488 4.11255 38.2445C6.09484 41.3542 8.89092 43.846 12.1984 45.4611C12.3566 45.5384 12.5241 45.5722 12.6891 45.5722C13.1036 45.5722 13.5022 45.3398 13.6963 44.9421C13.9678 44.3864 13.7372 43.7142 13.1814 43.4429Z" fill="#07021F"/>
<path d="M47.344 0.687988H5.56799C4.33084 0.687988 3.27199 1.63484 3.27199 2.87199V8.52799H5.51199V2.92799H47.288V13.568H11.112V15.808H47.344C48.5811 15.808 49.528 14.7491 49.528 13.512V2.87199C49.528 1.63484 48.5811 0.687988 47.344 0.687988Z" fill="#5737D6"/>
<path d="M48.058 18.272H11.0837C11.0329 18.6714 10.9132 19.049 10.7361 19.392H48.072V26.56H10.44V19.8654C10.1432 20.2617 9.76093 20.589 9.31999 20.8203V26.5514C9.31999 27.1698 9.83541 27.68 10.454 27.68H48.058C48.6766 27.68 49.192 27.1698 49.192 26.5514V19.3974C49.192 18.7788 48.6766 18.272 48.058 18.272ZM48.058 30.144H10.454C9.83541 30.144 9.31999 30.6508 9.31999 31.2694V37.8606C9.88402 38.4657 10.5004 39.0312 11.1642 39.5521H48.058C48.6766 39.5521 49.192 39.0419 49.192 38.4235V31.2695C49.192 30.6508 48.6766 30.144 48.058 30.144ZM48.072 38.432H10.44V31.264H48.072V38.432ZM20.352 50.304H18.112C17.8028 50.304 17.552 50.5546 17.552 50.864C17.552 51.1733 17.8028 51.424 18.112 51.424H20.352C20.6612 51.424 20.912 51.1733 20.912 50.864C20.912 50.5546 20.6612 50.304 20.352 50.304ZM19.834 43.136C20.1432 43.136 20.394 42.8853 20.394 42.576C20.394 42.2666 20.1432 42.016 19.834 42.016H17.594C17.2848 42.016 17.034 42.2666 17.034 42.576C17.034 42.8853 17.2848 43.136 17.594 43.136H19.834ZM23.866 43.136C24.1752 43.136 24.426 42.8853 24.426 42.576C24.426 42.2666 24.1752 42.016 23.866 42.016H21.626C21.3168 42.016 21.066 42.2666 21.066 42.576C21.066 42.8853 21.3168 43.136 21.626 43.136H23.866ZM28.416 50.304H26.176C25.8668 50.304 25.616 50.5546 25.616 50.864C25.616 51.1733 25.8668 51.424 26.176 51.424H28.416C28.7252 51.424 28.976 51.1733 28.976 50.864C28.976 50.5546 28.7252 50.304 28.416 50.304ZM27.898 43.136C28.2072 43.136 28.458 42.8853 28.458 42.576C28.458 42.2666 28.2072 42.016 27.898 42.016H25.658C25.3488 42.016 25.098 42.2666 25.098 42.576C25.098 42.8853 25.3488 43.136 25.658 43.136H27.898ZM24.384 50.304H22.144C21.8348 50.304 21.584 50.5546 21.584 50.864C21.584 51.1733 21.8348 51.424 22.144 51.424H24.384C24.6932 51.424 24.944 51.1733 24.944 50.864C24.944 50.5546 24.6932 50.304 24.384 50.304ZM16.32 50.304H14.08C13.7708 50.304 13.52 50.5546 13.52 50.864C13.52 51.1733 13.7708 51.424 14.08 51.424H16.32C16.6292 51.424 16.88 51.1733 16.88 50.864C16.88 50.5546 16.6292 50.304 16.32 50.304ZM9.87999 48.6557C10.1892 48.6557 10.44 48.405 10.44 48.0957V47.0833C10.0598 46.8789 9.68645 46.6637 9.31999 46.4384V48.0957C9.31999 48.405 9.57076 48.6557 9.87999 48.6557ZM48.002 42.016H46.28C45.9708 42.016 45.72 42.2666 45.72 42.576C45.72 42.8853 45.9708 43.136 46.28 43.136H48.072V43.696C48.072 44.0053 48.3228 44.256 48.632 44.256C48.9412 44.256 49.192 44.0053 49.192 43.696V43.178C49.192 42.5595 48.6206 42.016 48.002 42.016ZM12.288 50.304H10.44V49.8877C10.44 49.5783 10.1892 49.3277 9.87999 49.3277C9.57076 49.3277 9.31999 49.5783 9.31999 49.8877V50.2937C9.31999 50.9121 9.83541 51.424 10.454 51.424H12.288C12.5972 51.424 12.848 51.1733 12.848 50.864C12.848 50.5546 12.5972 50.304 12.288 50.304ZM44.026 43.136C44.3352 43.136 44.586 42.8853 44.586 42.576C44.586 42.2666 44.3352 42.016 44.026 42.016H41.786C41.4768 42.016 41.226 42.2666 41.226 42.576C41.226 42.8853 41.4768 43.136 41.786 43.136H44.026ZM44.544 50.304H42.304C41.9948 50.304 41.744 50.5546 41.744 50.864C41.744 51.1733 41.9948 51.424 42.304 51.424H44.544C44.8532 51.424 45.104 51.1733 45.104 50.864C45.104 50.5546 44.8532 50.304 44.544 50.304ZM31.93 43.136C32.2392 43.136 32.49 42.8853 32.49 42.576C32.49 42.2666 32.2392 42.016 31.93 42.016H29.69C29.3808 42.016 29.13 42.2666 29.13 42.576C29.13 42.8853 29.3808 43.136 29.69 43.136H31.93ZM40.512 50.304H38.272C37.9628 50.304 37.712 50.5546 37.712 50.864C37.712 51.1733 37.9628 51.424 38.272 51.424H40.512C40.8212 51.424 41.072 51.1733 41.072 50.864C41.072 50.5546 40.8212 50.304 40.512 50.304ZM48.632 45.1837C48.3228 45.1837 48.072 45.4343 48.072 45.7437V47.9837C48.072 48.293 48.3228 48.5437 48.632 48.5437C48.9412 48.5437 49.192 48.293 49.192 47.9837V45.7437C49.192 45.4345 48.9412 45.1837 48.632 45.1837ZM48.632 49.2157C48.3228 49.2157 48.072 49.4663 48.072 49.7757V50.304H46.336C46.0268 50.304 45.776 50.5546 45.776 50.864C45.776 51.1733 46.0268 51.424 46.336 51.424H48.058C48.6766 51.424 49.192 50.9123 49.192 50.2937V49.7757C49.192 49.4665 48.9412 49.2157 48.632 49.2157ZM35.962 43.136C36.2712 43.136 36.522 42.8853 36.522 42.576C36.522 42.2666 36.2712 42.016 35.962 42.016H33.722C33.4128 42.016 33.162 42.2666 33.162 42.576C33.162 42.8853 33.4128 43.136 33.722 43.136H35.962ZM39.994 43.136C40.3032 43.136 40.554 42.8853 40.554 42.576C40.554 42.2666 40.3032 42.016 39.994 42.016H37.754C37.4448 42.016 37.194 42.2666 37.194 42.576C37.194 42.8853 37.4448 43.136 37.754 43.136H39.994ZM32.448 50.304H30.208C29.8988 50.304 29.648 50.5546 29.648 50.864C29.648 51.1733 29.8988 51.424 30.208 51.424H32.448C32.7572 51.424 33.008 51.1733 33.008 50.864C33.008 50.5546 32.7572 50.304 32.448 50.304ZM36.48 50.304H34.24C33.9308 50.304 33.68 50.5546 33.68 50.864C33.68 51.1733 33.9308 51.424 34.24 51.424H36.48C36.7892 51.424 37.04 51.1733 37.04 50.864C37.04 50.5546 36.7892 50.304 36.48 50.304Z" fill="#5737D6"/>
</svg>
